<svg width="230" height="230" viewBox="0 0 230 230" fill="none"
    xmlns="http://www.w3.org/2000/svg">

    <g clip-path="url(#)">
        <path d="M108.774 114.372C108.774 114.372 104.36 109.958 103.589 118.226C102.889 126.564 102.889 126.564 102.889 126.564L111.156 139.035L120.896 140.086L121.596 135.042L108.774 114.372Z" fill="#49443A" stroke="#231F20" stroke-width="0.162342" stroke-miterlimit="10" stroke-linecap="round" stroke-linejoin="round"/>
        <path d="M126.221 129.576C126.221 130.207 126.221 130.767 126.081 131.258C126.011 131.748 125.871 132.239 125.731 132.659C125.38 133.64 124.82 134.411 124.049 134.971C123.348 135.462 122.508 135.742 121.527 135.742C121.457 135.742 121.386 135.742 121.316 135.742C120.265 135.742 119.004 135.392 117.743 134.691C117.743 134.691 117.673 134.691 117.673 134.621C112.838 131.959 108.915 125.302 108.845 119.837C108.845 119.557 108.845 119.277 108.845 119.066C108.915 117.875 109.195 116.894 109.615 116.054C109.615 115.984 109.686 115.984 109.686 115.914C110.176 115.003 110.947 114.372 111.787 114.022C112.558 113.741 113.399 113.601 114.38 113.741C115.081 113.812 115.921 114.092 116.692 114.442C116.902 114.512 117.112 114.652 117.323 114.792C117.463 114.863 117.533 114.933 117.673 115.003L117.743 115.073C121.597 118.786 124.68 124.041 126.081 129.226V129.296C126.151 129.366 126.221 129.436 126.221 129.576Z" fill="#6E6657" stroke="#231F20" stroke-width="0.162342" stroke-miterlimit="10" stroke-linecap="round" stroke-linejoin="round"/>
        <path d="M107.443 122.92C107.513 126.984 110.456 131.959 113.959 133.92C115.851 134.971 117.533 134.971 118.724 134.201C119.284 133.78 119.705 133.22 119.985 132.519C120.125 132.169 120.195 131.818 120.265 131.468C120.335 131.048 120.335 130.627 120.335 130.207C120.265 126.143 117.323 121.168 113.819 119.207C113.679 119.136 113.469 119.066 113.329 118.926C112.698 118.646 112.138 118.436 111.577 118.366C110.877 118.296 110.246 118.366 109.685 118.576C108.284 119.136 107.443 120.678 107.443 122.92Z" fill="#928874" stroke="#231F20" stroke-width="0.162342" stroke-miterlimit="10" stroke-linecap="round" stroke-linejoin="round"/>
        <path d="M109.686 118.576C110.246 118.366 110.877 118.296 111.577 118.366C112.138 118.436 112.698 118.646 113.329 118.926C113.469 118.996 113.679 119.067 113.819 119.207C117.393 121.239 120.336 126.143 120.336 130.207C120.336 130.627 120.336 131.118 120.265 131.468C120.195 131.819 120.125 132.169 119.985 132.519C119.705 133.29 119.285 133.85 118.724 134.201L122.227 132.099H122.297C123.489 131.398 124.189 129.997 124.119 127.895C124.119 123.831 121.176 118.926 117.603 116.894C116.062 116.054 114.66 115.844 113.539 116.264L112.698 116.824L109.686 118.576Z" fill="url(#paint0_linear_1_19911)" stroke="#231F20" stroke-width="0.162342" stroke-miterlimit="10" stroke-linecap="round" stroke-linejoin="round"/>
        <path d="M126.221 129.296C126.221 129.226 126.221 129.226 126.221 129.156C124.82 123.971 121.737 118.786 117.883 115.003C117.813 114.933 117.813 114.933 117.743 114.863C116.342 113.531 114.8 112.34 113.259 111.499C112.908 111.289 112.558 111.149 112.208 110.939C110.947 110.308 109.685 109.958 108.564 109.818C107.093 109.608 105.762 109.748 104.571 110.238C104.571 110.238 104.571 110.238 104.501 110.238C101.558 111.429 99.8062 114.652 99.8062 119.417C99.9463 128.105 106.112 138.475 113.609 142.679C117.603 144.921 121.176 144.921 123.629 143.169C124.75 142.328 125.66 141.137 126.221 139.596C126.501 138.895 126.641 138.194 126.781 137.424C126.922 136.583 126.992 135.742 126.992 134.761C126.992 132.94 126.711 131.118 126.221 129.296ZM119.915 137.354C118.374 138.475 116.061 138.475 113.539 137.003C108.775 134.341 104.851 127.685 104.781 122.219C104.711 119.207 105.902 117.105 107.794 116.334C108.354 116.124 108.985 115.984 109.685 115.984C109.755 115.984 109.826 115.984 109.826 115.984C109.966 115.984 110.176 115.984 110.316 116.054C111.017 116.124 111.787 116.404 112.628 116.754C112.838 116.824 113.049 116.965 113.259 117.105C118.023 119.767 121.947 126.423 122.017 131.889C122.017 131.959 122.017 132.099 122.017 132.169C122.017 132.659 121.947 133.15 121.877 133.57C121.807 134.061 121.667 134.551 121.527 134.971C121.456 135.252 121.316 135.462 121.246 135.672C120.966 136.443 120.476 137.003 119.915 137.354Z" fill="#231F20" stroke="#231F20" stroke-width="0.162342" stroke-miterlimit="10" stroke-linecap="round" stroke-linejoin="round"/>
        <path d="M133.088 137.704C133.438 137.564 133.788 137.354 134.139 137.073L133.088 137.704ZM126.151 129.156C124.75 123.971 121.667 118.786 117.813 115.003C117.743 114.933 117.743 114.933 117.673 114.863C117.673 114.863 117.673 114.863 117.673 114.933C117.883 115.773 118.164 116.614 118.444 117.455C119.705 120.888 121.667 124.181 124.049 126.984C124.68 127.755 125.38 128.525 126.081 129.156C126.221 129.226 126.221 129.226 126.151 129.156ZM113.539 105.124L113.469 105.194C113.96 104.913 114.38 104.633 114.66 104.493C114.73 104.493 114.73 104.423 114.8 104.423C114.871 104.423 114.871 104.353 114.941 104.353L115.011 104.283L115.081 104.213C114.52 104.423 113.96 104.703 113.539 105.124Z" fill="#231F20" stroke="#231F20" stroke-width="0.162342" stroke-miterlimit="10" stroke-linecap="round" stroke-linejoin="round"/>
        <path d="M135.399 136.022C135.329 136.093 135.189 136.163 135.189 136.233C135.259 136.163 135.329 136.093 135.399 136.022Z" fill="url(#paint1_linear_1_19911)" stroke="#231F20" stroke-width="0.162342" stroke-miterlimit="10" stroke-linecap="round" stroke-linejoin="round"/>
        <path d="M137.502 128.595C137.502 129.576 137.432 130.417 137.292 131.258C137.152 132.029 136.941 132.799 136.731 133.43C136.171 134.971 135.26 136.233 134.139 137.003L133.088 137.634L123.629 143.169C124.75 142.328 125.661 141.137 126.221 139.596C126.502 138.895 126.642 138.195 126.782 137.424C126.922 136.583 126.992 135.742 126.992 134.761C126.992 133.01 126.712 131.188 126.221 129.296C126.221 129.226 126.221 129.226 126.221 129.156C124.82 123.971 121.737 118.786 117.884 115.003C117.813 114.933 117.813 114.933 117.743 114.863C116.342 113.531 114.801 112.34 113.259 111.499C112.909 111.289 112.559 111.149 112.208 110.939C110.947 110.308 109.686 109.958 108.565 109.818C107.093 109.608 105.762 109.748 104.571 110.238C104.571 110.238 104.571 110.238 104.501 110.238L113.469 105.053L113.399 105.123C113.89 104.843 114.31 104.563 114.59 104.423C114.661 104.423 114.661 104.353 114.731 104.353C114.801 104.353 114.801 104.283 114.871 104.283L114.941 104.213L115.011 104.143C116.202 103.652 117.533 103.512 119.075 103.722C120.196 103.862 121.457 104.283 122.718 104.843C123.068 104.983 123.419 105.194 123.769 105.404C125.381 106.315 126.922 107.506 128.393 108.907C132.247 112.621 135.33 117.875 136.731 123.06C137.222 124.952 137.502 126.774 137.502 128.595Z" fill="url(#paint2_linear_1_19911)" stroke="#231F20" stroke-width="0.162342" stroke-miterlimit="10" stroke-linecap="round" stroke-linejoin="round"/>
        <path d="M114.66 104.423C114.38 104.563 113.96 104.843 113.469 105.124L113.539 105.053L114.66 104.423Z" fill="#C49A6C" stroke="#231F20" stroke-width="0.162342" stroke-miterlimit="10" stroke-linecap="round" stroke-linejoin="round"/>
        <path d="M128.463 135.742C128.463 136.653 128.393 137.494 128.322 138.335L94.0603 118.997C93.9202 117.875 93.8501 116.824 93.8501 115.773C93.8501 110.238 95.8119 106.315 98.9649 104.563L99.105 104.493C101.277 103.302 104.01 103.092 107.093 104.002C108.424 104.423 109.755 104.983 111.156 105.824C116.902 109.117 122.017 115.353 125.169 122.149C127.271 126.634 128.463 131.398 128.463 135.742Z" fill="#F1F2F2" stroke="#231F20" stroke-width="0.120163" stroke-miterlimit="10" stroke-linecap="round" stroke-linejoin="round"/>
        <path d="M141.215 128.525C141.215 129.436 141.144 130.277 141.074 131.118L128.322 138.335C128.392 137.494 128.463 136.653 128.463 135.742C128.463 131.328 127.271 126.634 125.169 122.15C122.016 115.353 116.902 109.117 111.156 105.824C109.755 105.053 108.424 104.423 107.092 104.002C104.01 103.092 101.277 103.302 99.105 104.493L111.296 97.5564L112.207 97.066C115.29 95.5946 119.354 95.9449 123.908 98.5373C133.437 104.073 141.215 117.525 141.215 128.525Z" fill="#F1F2F2" stroke="#231F20" stroke-width="0.120163" stroke-miterlimit="10" stroke-linecap="round" stroke-linejoin="round"/>
        <path d="M128.463 135.742C128.463 136.653 128.393 137.494 128.322 138.335L94.0603 118.997C93.9202 117.875 93.8501 116.824 93.8501 115.773C93.8501 110.238 95.8119 106.315 98.9649 104.563L99.105 104.493C101.277 103.302 104.01 103.092 107.093 104.002C108.424 104.423 109.755 104.983 111.156 105.824C116.902 109.117 122.017 115.353 125.169 122.149C127.271 126.634 128.463 131.398 128.463 135.742Z" fill="#F1F2F2" stroke="#231F20" stroke-width="0.120163" stroke-miterlimit="10" stroke-linecap="round" stroke-linejoin="round"/>
        <path opacity="0.14" d="M128.463 135.742C128.463 136.653 128.393 137.494 128.322 138.335L94.0603 118.997C93.9202 117.875 93.8501 116.824 93.8501 115.773C93.8501 110.238 95.8119 106.315 98.9649 104.563L99.105 104.493C101.277 103.302 104.01 103.092 107.093 104.002C108.424 104.423 109.755 104.983 111.156 105.824C116.902 109.117 122.017 115.353 125.169 122.149C127.271 126.634 128.463 131.398 128.463 135.742Z" fill="black" stroke="#231F20" stroke-width="0.163954" stroke-miterlimit="10"/>
        <path d="M158.169 142.259C158.169 142.259 153.755 137.844 152.985 146.112C152.214 154.38 152.214 154.45 152.214 154.45L160.482 166.922L170.221 167.973L170.921 162.928L158.169 142.259Z" fill="#49443A" stroke="#231F20" stroke-width="0.162342" stroke-miterlimit="10" stroke-linecap="round" stroke-linejoin="round"/>
        <path d="M175.546 157.393C175.546 158.023 175.546 158.584 175.406 159.074C175.336 159.565 175.195 160.055 175.055 160.476C174.705 161.457 174.144 162.227 173.374 162.788C172.673 163.278 171.832 163.559 170.851 163.559C170.781 163.559 170.711 163.559 170.641 163.559C169.59 163.559 168.329 163.208 167.068 162.508C167.068 162.508 166.998 162.508 166.998 162.438C162.233 159.775 158.239 153.189 158.169 147.724C158.169 147.443 158.169 147.163 158.169 146.953C158.239 145.762 158.52 144.781 158.94 143.94C158.94 143.87 159.01 143.87 159.01 143.8C159.501 142.889 160.271 142.259 161.112 141.908C161.883 141.628 162.724 141.488 163.705 141.628C164.405 141.698 165.246 141.978 166.017 142.329C166.227 142.399 166.437 142.539 166.647 142.679C166.788 142.749 166.858 142.819 166.998 142.889L167.068 142.959C170.921 146.673 174.004 151.928 175.406 157.113V157.183C175.546 157.183 175.546 157.323 175.546 157.393Z" fill="#6E6657" stroke="#231F20" stroke-width="0.162342" stroke-miterlimit="10" stroke-linecap="round" stroke-linejoin="round"/>
        <path d="M156.838 150.807C156.908 154.871 159.851 159.845 163.354 161.807C165.246 162.858 166.927 162.858 168.118 162.087C168.679 161.667 169.099 161.106 169.38 160.406C169.52 160.055 169.59 159.705 169.66 159.355C169.73 158.934 169.73 158.514 169.73 158.094C169.66 154.03 166.717 149.055 163.214 147.093C163.074 147.023 162.863 146.953 162.723 146.813C162.093 146.533 161.532 146.323 160.972 146.252C160.271 146.182 159.64 146.252 159.08 146.463C157.679 146.953 156.768 148.495 156.838 150.807Z" fill="#928874" stroke="#231F20" stroke-width="0.162342" stroke-miterlimit="10" stroke-linecap="round" stroke-linejoin="round"/>
        <path d="M159.01 146.392C159.57 146.182 160.201 146.112 160.902 146.182C161.462 146.252 162.023 146.463 162.653 146.743C162.793 146.813 163.004 146.883 163.144 147.023C166.717 149.055 169.66 153.96 169.66 158.023C169.66 158.444 169.66 158.934 169.59 159.285C169.52 159.635 169.45 159.985 169.309 160.336C169.029 161.106 168.609 161.667 168.048 162.017L171.552 159.915H171.622C172.813 159.215 173.513 157.813 173.443 155.711C173.373 151.647 170.43 146.673 166.927 144.711C165.386 143.87 163.984 143.66 162.863 144.08L161.953 144.641L159.01 146.392Z" fill="url(#paint3_linear_1_19911)" stroke="#231F20" stroke-width="0.162342" stroke-miterlimit="10" stroke-linecap="round" stroke-linejoin="round"/>
        <path d="M175.546 157.113C175.546 157.042 175.546 157.042 175.546 156.972C174.144 151.788 171.061 146.603 167.208 142.819C167.138 142.749 167.138 142.749 167.068 142.679C165.666 141.348 164.125 140.157 162.583 139.316C162.233 139.106 161.883 138.966 161.532 138.755C160.271 138.125 159.01 137.774 157.889 137.634C156.418 137.424 155.086 137.564 153.895 138.055C153.895 138.055 153.895 138.055 153.825 138.055C150.883 139.246 149.131 142.469 149.131 147.233C149.201 155.851 155.367 166.221 162.864 170.425C166.857 172.667 170.431 172.737 172.883 170.915C174.004 170.075 174.915 168.884 175.476 167.342C175.756 166.641 175.896 165.941 176.036 165.17C176.176 164.329 176.246 163.489 176.246 162.508C176.316 160.826 176.036 158.934 175.546 157.113ZM169.31 165.24C167.768 166.361 165.456 166.361 162.934 164.89C158.169 162.227 154.246 155.571 154.176 150.106C154.106 147.093 155.297 144.991 157.188 144.22C157.749 144.01 158.38 143.87 159.08 143.87C159.15 143.87 159.22 143.87 159.22 143.87C159.36 143.87 159.571 143.87 159.711 143.94C160.411 144.01 161.182 144.291 162.023 144.641C162.233 144.711 162.443 144.851 162.654 144.991C167.418 147.654 171.342 154.31 171.412 159.775C171.412 159.845 171.412 159.985 171.412 160.055C171.412 160.546 171.342 161.036 171.272 161.457C171.202 161.947 171.061 162.438 170.921 162.858C170.851 163.138 170.711 163.348 170.641 163.559C170.291 164.259 169.8 164.82 169.31 165.24Z" fill="#231F20" stroke="#231F20" stroke-width="0.162342" stroke-miterlimit="10" stroke-linecap="round" stroke-linejoin="round"/>
        <path d="M182.412 165.52C182.763 165.38 183.113 165.17 183.463 164.89L182.412 165.52ZM175.546 157.042C174.145 151.858 171.062 146.673 167.208 142.889C167.138 142.819 167.138 142.819 167.068 142.749C167.068 142.749 167.068 142.749 167.068 142.819C167.278 143.66 167.558 144.501 167.839 145.341C169.1 148.775 171.062 152.068 173.444 154.87C174.075 155.641 174.775 156.412 175.476 157.042C175.546 157.112 175.546 157.042 175.546 157.042ZM162.864 132.94L162.794 133.01C163.284 132.73 163.705 132.449 163.985 132.309C164.055 132.309 164.055 132.239 164.125 132.239C164.195 132.239 164.195 132.169 164.265 132.169L164.335 132.099L164.405 132.029C163.845 132.239 163.284 132.589 162.864 132.94Z" fill="#231F20" stroke="#231F20" stroke-width="0.162342" stroke-miterlimit="10" stroke-linecap="round" stroke-linejoin="round"/>
        <path d="M184.724 163.839C184.654 163.909 184.514 163.979 184.514 164.049C184.584 163.979 184.654 163.909 184.724 163.839Z" fill="url(#paint4_linear_1_19911)" stroke="#231F20" stroke-width="0.162342" stroke-miterlimit="10" stroke-linecap="round" stroke-linejoin="round"/>
        <path d="M186.827 156.482C186.827 157.463 186.757 158.304 186.616 159.144C186.476 159.915 186.266 160.686 186.056 161.317C185.495 162.858 184.585 164.119 183.464 164.89L182.413 165.52L172.954 171.056C174.075 170.215 174.986 169.024 175.546 167.482C175.826 166.782 175.966 166.081 176.107 165.31C176.247 164.469 176.317 163.629 176.317 162.648C176.317 160.896 176.037 159.074 175.546 157.183C175.546 157.113 175.546 157.113 175.546 157.043C174.145 151.858 171.062 146.673 167.208 142.889C167.138 142.819 167.138 142.819 167.068 142.749C165.667 141.418 164.125 140.227 162.584 139.386C162.234 139.176 161.883 139.036 161.533 138.825C160.272 138.195 159.011 137.844 157.889 137.704C156.418 137.494 155.087 137.634 153.896 138.125C153.896 138.125 153.896 138.125 153.826 138.125L162.794 132.94L162.724 133.01C163.214 132.73 163.635 132.449 163.915 132.309C163.985 132.309 163.985 132.239 164.055 132.239C164.125 132.239 164.125 132.169 164.195 132.169L164.265 132.099L164.336 132.029C165.527 131.539 166.858 131.398 168.399 131.609C169.52 131.749 170.782 132.169 172.043 132.73C172.393 132.87 172.743 133.08 173.094 133.29C174.705 134.201 176.247 135.392 177.718 136.793C181.572 140.507 184.655 145.762 186.056 150.947C186.546 152.768 186.827 154.66 186.827 156.482Z" fill="url(#paint5_linear_1_19911)" stroke="#231F20" stroke-width="0.162342" stroke-miterlimit="10" stroke-linecap="round" stroke-linejoin="round"/>
        <path d="M163.985 132.239C163.705 132.379 163.284 132.66 162.794 132.94L162.864 132.87L163.985 132.239Z" fill="#C49A6C" stroke="#231F20" stroke-width="0.162342" stroke-miterlimit="10" stroke-linecap="round" stroke-linejoin="round"/>
        <path d="M177.788 163.629C177.788 164.539 177.718 165.38 177.648 166.221L143.386 146.883C143.246 145.762 143.176 144.711 143.176 143.66C143.176 138.125 145.138 134.201 148.291 132.449L148.431 132.309C150.603 131.118 153.335 130.908 156.418 131.819C157.749 132.239 159.081 132.8 160.482 133.64C166.227 136.934 171.342 143.169 174.495 149.966C176.597 154.45 177.788 159.214 177.788 163.629Z" fill="#F1F2F2" stroke="#231F20" stroke-width="0.120163" stroke-miterlimit="10" stroke-linecap="round" stroke-linejoin="round"/>
        <path d="M177.788 163.629C177.788 164.539 177.718 165.38 177.648 166.221L143.386 146.883C143.246 145.762 143.176 144.711 143.176 143.66C143.176 138.125 145.138 134.201 148.291 132.449L148.431 132.309C150.603 131.118 153.335 130.908 156.418 131.819C157.749 132.239 159.081 132.8 160.482 133.64C166.227 136.934 171.342 143.169 174.495 149.966C176.597 154.45 177.788 159.214 177.788 163.629Z" fill="#F1F2F2" stroke="#231F20" stroke-width="0.120163" stroke-miterlimit="10" stroke-linecap="round" stroke-linejoin="round"/>
        <path opacity="0.14" d="M177.788 163.629C177.788 164.539 177.718 165.38 177.648 166.221L143.386 146.883C143.246 145.762 143.176 144.711 143.176 143.66C143.176 138.125 145.138 134.201 148.291 132.449L148.431 132.309C150.603 131.118 153.335 130.908 156.418 131.819C157.749 132.239 159.081 132.8 160.482 133.64C166.227 136.934 171.342 143.169 174.495 149.966C176.597 154.45 177.788 159.214 177.788 163.629Z" fill="black" stroke="#231F20" stroke-width="0.163954" stroke-miterlimit="10"/>
        <path d="M190.54 156.342C190.54 157.253 190.47 158.093 190.4 158.934L177.648 166.151C177.718 165.31 177.788 164.469 177.788 163.559C177.788 159.144 176.597 154.45 174.495 149.966C171.342 143.169 166.227 136.934 160.482 133.64C159.081 132.8 157.749 132.239 156.418 131.819C153.335 130.908 150.603 131.118 148.431 132.309L160.622 125.443L161.533 124.952C164.616 123.481 168.75 123.831 173.234 126.424C182.763 131.959 190.54 145.341 190.54 156.342Z" fill="#F1F2F2" stroke="#231F20" stroke-width="0.120163" stroke-miterlimit="10" stroke-linecap="round" stroke-linejoin="round"/>
        <path d="M176.738 159.705L176.177 160.055C176.107 160.055 176.107 160.055 176.037 160.055C176.317 159.915 176.528 159.845 176.738 159.705Z" fill="#F1F2F2" stroke="#231F20" stroke-width="0.227924" stroke-miterlimit="10" stroke-linecap="round" stroke-linejoin="round"/>
        <path d="M176.738 159.705L176.177 160.055C176.107 160.055 176.107 160.055 176.037 160.055C176.317 159.915 176.528 159.845 176.738 159.705Z" fill="#F1F2F2" stroke="#231F20" stroke-width="0.227924" stroke-miterlimit="10" stroke-linecap="round" stroke-linejoin="round"/>
        <path d="M176.738 159.705L176.177 160.055C176.107 160.055 176.107 160.055 176.037 160.055C176.317 159.915 176.528 159.845 176.738 159.705Z" fill="#F1F2F2" stroke="#231F20" stroke-width="0.227924" stroke-miterlimit="10" stroke-linecap="round" stroke-linejoin="round"/>
        <path d="M176.738 159.705L176.177 160.055C176.107 160.055 176.107 160.055 176.037 160.055C176.317 159.915 176.528 159.845 176.738 159.705Z" fill="#F1F2F2" stroke="#231F20" stroke-width="0.227924" stroke-miterlimit="10" stroke-linecap="round" stroke-linejoin="round"/>
        <path d="M176.738 159.705L176.177 160.055C176.107 160.055 176.107 160.055 176.037 160.055C176.317 159.915 176.528 159.845 176.738 159.705Z" fill="#F1F2F2" stroke="#231F20" stroke-width="0.227924" stroke-miterlimit="10" stroke-linecap="round" stroke-linejoin="round"/>
        <path d="M171.623 156.342C171.623 157.253 171.553 158.163 171.412 159.004C171.342 159.495 171.202 159.915 171.132 160.335C170.992 160.896 170.782 161.386 170.572 161.877C170.431 162.157 170.291 162.437 170.151 162.718C169.941 163.138 169.661 163.488 169.381 163.839C168.96 164.329 168.4 164.75 167.839 165.1L167.699 165.17C165.247 166.571 161.954 166.361 158.24 164.189C157.75 163.909 157.329 163.629 156.909 163.348L108.633 135.462C108.353 135.322 108.073 135.182 107.793 134.972C100.296 130.698 94.27 120.258 94.27 111.71C94.27 109.958 94.4802 108.487 94.9707 107.226C95.6013 105.334 96.7223 103.932 98.1236 103.092C98.1937 103.092 98.1937 103.022 98.2638 103.022C98.8944 102.671 99.525 102.461 100.226 102.321C100.366 102.181 100.576 102.181 100.786 102.111C100.996 102.111 101.207 102.041 101.417 102.041L103.589 101.83L104.079 101.76L110.946 101.2L111.436 101.13L115.29 100.78H117.111L120.405 100.499L126.08 100.079C126.43 100.009 126.71 100.009 127.061 100.009C127.201 100.009 127.411 100.009 127.621 100.009C128.602 100.009 129.583 100.219 130.704 100.639C131.545 100.92 132.456 101.34 133.367 101.83C134.628 102.601 135.889 103.512 137.08 104.563C138.061 105.474 138.972 106.455 139.883 107.506L139.953 107.576C140.163 107.856 140.443 108.136 140.654 108.417L152.284 123.13L152.985 124.041L154.737 126.213L155.087 126.634L157.609 129.857L160.062 132.94L163.705 137.564C164.336 138.195 164.896 138.895 165.457 139.666C165.877 140.156 166.228 140.717 166.578 141.207C169.451 145.481 171.412 150.526 171.693 155.151C171.553 155.501 171.623 155.921 171.623 156.342Z" fill="#F1F2F2" stroke="#231F20" stroke-width="0.227924" stroke-miterlimit="10" stroke-linecap="round" stroke-linejoin="round"/>
        <path opacity="0.14" d="M171.623 156.342C171.623 157.253 171.553 158.163 171.412 159.004C171.342 159.495 171.202 159.915 171.132 160.335C170.992 160.896 170.782 161.386 170.572 161.877C170.431 162.157 170.291 162.437 170.151 162.718C169.941 163.138 169.661 163.488 169.381 163.839C168.96 164.329 168.4 164.75 167.839 165.1L167.699 165.17C165.247 166.571 161.954 166.361 158.24 164.189C157.75 163.909 157.329 163.629 156.909 163.348L108.633 135.462C108.353 135.322 108.073 135.182 107.793 134.972C100.296 130.698 94.27 120.258 94.27 111.71C94.27 109.958 94.4802 108.487 94.9707 107.226C95.6013 105.334 96.7223 103.932 98.1236 103.092C98.1937 103.092 98.1937 103.022 98.2638 103.022C98.8944 102.671 99.525 102.461 100.226 102.321C100.366 102.181 100.576 102.181 100.786 102.111C100.996 102.111 101.207 102.041 101.417 102.041L103.589 101.83L104.079 101.76L110.946 101.2L111.436 101.13L115.29 100.78H117.111L120.405 100.499L126.08 100.079C126.43 100.009 126.71 100.009 127.061 100.009C127.201 100.009 127.411 100.009 127.621 100.009C128.602 100.009 129.583 100.219 130.704 100.639C131.545 100.92 132.456 101.34 133.367 101.83C134.628 102.601 135.889 103.512 137.08 104.563C138.061 105.474 138.972 106.455 139.883 107.506L139.953 107.576C140.163 107.856 140.443 108.136 140.654 108.417L152.284 123.13L152.985 124.041L154.737 126.213L155.087 126.634L157.609 129.857L160.062 132.94L163.705 137.564C164.336 138.195 164.896 138.895 165.457 139.666C165.877 140.156 166.228 140.717 166.578 141.207C169.451 145.481 171.412 150.526 171.693 155.151C171.553 155.501 171.623 155.921 171.623 156.342Z" fill="black" stroke="#231F20" stroke-width="0.227924" stroke-miterlimit="10"/>
        <path d="M180.731 151.017C180.731 155.291 179.26 158.233 176.878 159.705L176.738 159.775C176.527 159.915 176.317 159.985 176.037 160.125C176.107 160.125 176.107 160.125 176.177 160.125L171.903 162.648L170.922 163.208L169.591 163.979L167.769 165.03C168.33 164.68 168.82 164.259 169.311 163.769C169.591 163.418 169.871 163.068 170.081 162.648C170.221 162.367 170.362 162.087 170.502 161.807C170.712 161.316 170.922 160.826 171.062 160.265C171.202 159.845 171.272 159.425 171.343 158.934C171.483 158.093 171.553 157.253 171.553 156.272C171.553 155.851 171.553 155.431 171.483 155.01C171.202 150.386 169.241 145.341 166.368 141.067C166.018 140.507 165.597 140.016 165.247 139.526C164.686 138.825 164.126 138.125 163.495 137.424L159.852 132.8L157.399 129.717L154.877 126.494L154.527 126.073L152.775 123.901L152.074 122.99L140.444 108.277C140.233 107.996 140.023 107.716 139.743 107.436L139.673 107.366C138.832 106.315 137.851 105.334 136.87 104.423C135.679 103.372 134.488 102.461 133.157 101.69C132.246 101.2 131.405 100.78 130.494 100.499C129.443 100.149 128.392 99.9388 127.411 99.8687C127.201 99.8687 127.061 99.8687 126.851 99.8687C126.5 99.8687 126.22 99.9388 125.87 99.9388L120.194 100.429L117.112 100.78L115.22 100.92L111.366 101.27L110.876 101.34L104.009 101.901L103.519 101.971L101.347 102.181C101.137 102.181 100.926 102.181 100.716 102.251C100.506 102.251 100.366 102.321 100.156 102.321C99.455 102.461 98.8244 102.741 98.1938 103.022L100.226 101.831L107.302 97.6266C108.073 97.2062 108.914 96.926 109.825 96.7858C110.035 96.7858 110.245 96.7158 110.455 96.7158L111.086 96.6457L113.889 96.4355L115.5 96.2954L126.08 95.4546L129.163 95.1743L130.424 95.1042L135.189 94.6838C135.539 94.6138 135.819 94.6138 136.169 94.6138C138.061 94.5437 140.163 95.1743 142.405 96.4355C144.718 97.7667 146.96 99.7286 148.851 102.111L148.921 102.181C149.132 102.461 149.412 102.741 149.622 103.022L154.667 109.398L161.954 118.646L163.705 120.888L165.877 123.621L168.89 127.475L172.604 132.169C173.655 133.29 174.636 134.551 175.476 135.812C175.546 135.883 175.546 135.953 175.617 135.953C176.037 136.583 176.387 137.144 176.738 137.774C178.699 141.137 180.031 144.851 180.451 148.354C180.661 149.265 180.731 150.106 180.731 151.017Z" fill="#F1F2F2" stroke="#231F20" stroke-width="0.227924" stroke-miterlimit="10" stroke-linecap="round" stroke-linejoin="round"/>
    </g>
    <defs>
        <linearGradient id="paint0_linear_1_19911" x1="114.611" y1="117.625" x2="121.497" y2="130.231" gradientUnits="userSpaceOnUse">
            <stop stop-color="#C2B59B"/>
            <stop offset="1" stop-color="#49443A"/>
        </linearGradient>
        <linearGradient id="paint1_linear_1_19911" x1="135.337" y1="136.023" x2="135.234" y2="136.217" gradientUnits="userSpaceOnUse">
            <stop stop-color="#58595B"/>
            <stop offset="1"/>
        </linearGradient>
        <linearGradient id="paint2_linear_1_19911" x1="122.194" y1="140.834" x2="120.221" y2="104.589" gradientUnits="userSpaceOnUse">
            <stop/>
            <stop offset="1" stop-color="#58595B"/>
        </linearGradient>
        <linearGradient id="paint3_linear_1_19911" x1="163.948" y1="145.468" x2="170.834" y2="158.074" gradientUnits="userSpaceOnUse">
            <stop stop-color="#C2B59B"/>
            <stop offset="1" stop-color="#49443A"/>
        </linearGradient>
        <linearGradient id="paint4_linear_1_19911" x1="184.675" y1="163.866" x2="184.572" y2="164.06" gradientUnits="userSpaceOnUse">
            <stop stop-color="#58595B"/>
            <stop offset="1"/>
        </linearGradient>
        <linearGradient id="paint5_linear_1_19911" x1="171.531" y1="168.677" x2="169.559" y2="132.432" gradientUnits="userSpaceOnUse">
            <stop/>
            <stop offset="1" stop-color="#58595B"/>
        </linearGradient>
        <clipPath id="">
            <rect width="96.8309" height="77.9131" fill="white" transform="translate(93.7793 94.4736)"/>
        </clipPath>
    </defs>


    <g clip-path="url(#)">
        <path d="M181.197 137.515L139.812 162.242L133.381 152.43L143.822 146.307L162.207 135.474L176.052 127.311L181.197 137.515Z" fill="#F9FAFA" stroke="#231F20" stroke-width="0.201439" stroke-miterlimit="10" stroke-linecap="round" stroke-linejoin="round"/>
        <path d="M181.197 137.516V151.959L139.812 177.785V162.242L181.197 137.516Z" fill="#F1F2F2" stroke="#231F20" stroke-width="0.201439" stroke-miterlimit="10" stroke-linecap="round" stroke-linejoin="round"/>
        <path d="M176.052 127.311L162.131 135.474L143.822 146.307L133.381 152.43L130.658 150.782L116.207 141.911C116.358 141.911 120.519 139.556 126.421 136.102L101.832 121.345L89.878 114.123L84.6577 117.184L80.0425 119.932L66.5754 111.689L77.1675 105.645L76.9406 105.488L72.7794 102.976L62.9438 96.4607L82.9932 85.157L92.9044 91.7508L93.207 91.9863L96.4603 94.1058L109.398 86.57L119.309 92.6143L122.941 94.8123L113.256 100.464L123.092 106.509L125.135 107.764L149.345 122.758C152.825 120.717 156.23 118.676 159.256 116.949L176.052 127.311Z" fill="#F1F2F2" stroke="#231F20" stroke-width="0.201439" stroke-miterlimit="10" stroke-linecap="round" stroke-linejoin="round"/>
        <path d="M77.1678 105.645L66.5757 111.69L50.6875 117.655L62.9441 110.591L76.9408 105.567L77.1678 105.645Z" fill="#F1F2F2" stroke="#231F20" stroke-width="0.201439" stroke-miterlimit="10" stroke-linecap="round" stroke-linejoin="round"/>
        <path d="M109.398 86.5701L96.4603 94.1059L93.207 91.9865L109.398 86.5701Z" fill="#F1F2F2" stroke="#231F20" stroke-width="0.201439" stroke-miterlimit="10" stroke-linecap="round" stroke-linejoin="round"/>
        <path d="M76.9406 105.567L62.9438 110.591V96.4608L72.7794 103.055L76.9406 105.567Z" fill="#F1F2F2" stroke="#231F20" stroke-width="0.201439" stroke-miterlimit="10" stroke-linecap="round" stroke-linejoin="round"/>
        <path d="M139.812 162.242V177.785L99.7138 181.631L50.6875 137.515V117.655L66.5757 111.689L80.0428 119.932V134.061L80.1184 134.14L116.207 155.727V141.911L130.658 150.782L133.382 152.43L139.812 162.242Z" fill="#F1F2F2" stroke="#231F20" stroke-width="0.201439" stroke-miterlimit="10" stroke-linecap="round" stroke-linejoin="round"/>
        <path opacity="0.14" d="M139.812 162.242V177.785L99.7138 181.631L50.6875 137.515V117.655L66.5757 111.689L80.0428 119.932V134.061L80.1184 134.14L116.207 155.727V141.911L130.658 150.782L133.382 152.43L139.812 162.242Z" fill="black" stroke="#231F20" stroke-width="0.0802954" stroke-miterlimit="10"/>
        <path d="M76.9406 105.567L62.9438 110.591V96.4608L72.7794 103.055L76.9406 105.567Z" fill="#F1F2F2" stroke="#231F20" stroke-width="0.201439" stroke-miterlimit="10" stroke-linecap="round" stroke-linejoin="round"/>
        <path opacity="0.14" d="M76.9406 105.567L62.9438 110.591V96.4608L72.7794 103.055L76.9406 105.567Z" fill="black" stroke="#231F20" stroke-width="0.0802954" stroke-miterlimit="10"/>
        <path d="M116.207 144.502V155.727L80.1182 134.14L89.878 128.41L116.207 144.502Z" fill="#F1F2F2" stroke="#231F20" stroke-width="0.201439" stroke-miterlimit="10" stroke-linecap="round" stroke-linejoin="round"/>
        <path d="M89.878 114.201V128.41L80.1181 134.14L80.0425 134.061V119.932L84.6576 117.184L89.878 114.201Z" fill="#F1F2F2" stroke="#231F20" stroke-width="0.201439" stroke-miterlimit="10" stroke-linecap="round" stroke-linejoin="round"/>
        <path d="M126.346 136.102C120.444 139.556 116.359 141.911 116.132 141.911V144.502L89.8784 128.41V114.201L101.832 121.423L126.346 136.102Z" fill="#F1F2F2" stroke="#231F20" stroke-width="0.201439" stroke-miterlimit="10" stroke-linecap="round" stroke-linejoin="round"/>
        <path d="M123.017 94.8909V106.509L113.181 100.464L122.865 94.8124L123.017 94.8909Z" fill="#F1F2F2" stroke="#231F20" stroke-width="0.201439" stroke-miterlimit="10" stroke-linecap="round" stroke-linejoin="round"/>
        <path d="M123.017 94.7339V94.8909L122.865 94.8124L123.017 94.7339Z" fill="#F1F2F2" stroke="#231F20" stroke-width="0.201439" stroke-miterlimit="10" stroke-linecap="round" stroke-linejoin="round"/>
        <path opacity="0.14" d="M89.878 114.201L85.6411 130.843L116.207 149.997V141.911L126.345 136.102L89.878 114.201Z" fill="black" stroke="#231F20" stroke-width="0.0802954" stroke-miterlimit="10"/>
        <path opacity="0.2" d="M154.793 166.324C154.793 166.324 147.53 169.386 147.53 163.42C147.53 157.532 147.53 157.611 147.53 157.611L151.994 154.942L154.793 166.324Z" fill="black" stroke="#231F20" stroke-width="0.0802954" stroke-miterlimit="10"/>
        <path opacity="0.2" d="M168.714 157.297C168.714 157.297 161.224 160.515 161.224 154.55C161.224 148.584 161.224 149.447 161.224 149.447L166.293 146.386L168.714 157.297Z" fill="black" stroke="#231F20" stroke-width="0.0802954" stroke-miterlimit="10"/>
        <path d="M173.556 136.966C173.481 136.966 173.481 137.045 173.405 137.123C173.329 137.123 173.329 137.202 173.254 137.202C171.211 138.85 169.773 142.225 170 144.894C170.152 146.15 170.606 147.014 171.287 147.406V155.256C171.287 155.806 170.908 156.355 170.227 156.826C168.79 157.69 166.444 157.69 165.007 156.826C164.326 156.434 163.948 155.884 163.948 155.256V144.502C163.948 134.768 169.698 135.396 173.556 136.966Z" fill="url(#paint0_linear_1_19911)" stroke="#231F20" stroke-width="0.190369" stroke-miterlimit="10" stroke-linecap="round" stroke-linejoin="round"/>
        <path opacity="0.2" d="M167.277 156.748C167.655 156.983 168.185 157.14 168.714 157.297C167.428 157.533 165.99 157.376 164.931 156.748C164.25 156.355 163.872 155.806 163.872 155.178V144.502C163.948 136.966 167.428 135.632 170.757 136.181C168.336 136.652 166.293 138.771 166.217 144.502V155.178C166.217 155.806 166.596 156.355 167.277 156.748Z" fill="black" stroke="#231F20" stroke-width="0.201439" stroke-miterlimit="10"/>
        <path d="M180.139 140.184C179.987 138.771 179.382 137.83 178.55 137.516C178.323 137.437 178.02 137.359 177.793 137.359C177.717 137.359 177.717 137.359 177.642 137.359C177.566 137.359 177.566 137.359 177.491 137.359C177.415 137.359 177.339 137.359 177.339 137.359C177.264 137.359 177.264 137.359 177.188 137.359C177.112 137.359 177.112 137.359 177.037 137.437C176.81 137.516 176.583 137.594 176.431 137.751C176.356 137.751 176.356 137.83 176.28 137.83C176.204 137.83 176.204 137.908 176.129 137.908C176.053 137.908 175.977 137.987 175.977 137.987L175.902 138.065C175.75 138.222 175.523 138.379 175.372 138.536C175.221 138.693 174.994 138.85 174.842 139.085C174.767 139.164 174.691 139.321 174.616 139.399C174.464 139.635 174.313 139.87 174.162 140.027C174.01 140.263 173.859 140.498 173.708 140.734C173.632 140.891 173.556 140.969 173.481 141.126C173.405 141.205 173.405 141.362 173.329 141.44C173.178 141.754 173.102 141.99 173.027 142.304C173.027 142.382 172.951 142.461 172.951 142.618L172.875 142.775C172.875 142.853 172.8 143.01 172.8 143.089C172.8 143.246 172.724 143.324 172.724 143.481C172.724 143.56 172.648 143.717 172.648 143.874V143.952C172.648 144.109 172.573 144.188 172.573 144.345C172.573 144.502 172.573 144.58 172.573 144.737C172.573 144.894 172.573 144.973 172.573 145.13V145.208C172.573 145.287 172.573 145.287 172.573 145.365C172.573 145.444 172.573 145.522 172.573 145.601C172.573 145.679 172.573 145.758 172.573 145.915C172.573 145.993 172.573 146.072 172.573 146.229C172.648 146.778 172.8 147.249 173.027 147.642C173.102 147.799 173.178 147.956 173.329 148.034C173.329 148.113 173.405 148.113 173.405 148.191C173.481 148.27 173.632 148.427 173.783 148.505C173.783 148.505 173.859 148.584 173.935 148.584C174.086 148.662 174.162 148.741 174.313 148.741C175.069 148.976 175.977 148.741 176.885 148.034C178.928 146.386 180.441 142.853 180.139 140.184ZM176.658 146.464C175.977 146.935 175.372 147.092 174.842 146.935C174.767 146.935 174.691 146.857 174.54 146.857C174.464 146.857 174.389 146.778 174.313 146.7C174.162 146.543 174.01 146.386 173.935 146.229C173.783 145.993 173.708 145.679 173.632 145.287C173.632 145.208 173.632 145.13 173.632 145.13C173.632 144.973 173.632 144.816 173.632 144.659C173.632 143.246 174.313 141.597 175.296 140.498C175.523 140.263 175.75 140.027 175.977 139.792C175.977 139.792 175.977 139.792 176.053 139.713C176.356 139.478 176.658 139.321 176.961 139.242C177.037 139.242 177.188 139.164 177.264 139.164C177.491 139.164 177.717 139.164 177.869 139.242C178.474 139.478 178.852 140.106 178.928 141.048C179.155 142.932 178.096 145.365 176.658 146.464Z" fill="#F1F2F2" stroke="#231F20" stroke-width="0.201439" stroke-miterlimit="10" stroke-linecap="round" stroke-linejoin="round"/>
        <path d="M176.658 146.464C175.977 146.935 175.372 147.092 174.842 146.935C174.766 146.935 174.691 146.857 174.539 146.857C174.464 146.857 174.388 146.778 174.312 146.7C174.691 146.7 175.145 146.543 175.599 146.15C177.036 145.051 178.095 142.696 177.944 140.812C177.868 140.027 177.641 139.478 177.188 139.164C177.414 139.164 177.641 139.164 177.793 139.242C178.398 139.478 178.776 140.106 178.852 141.048C179.155 142.932 178.095 145.365 176.658 146.464Z" fill="#797979" stroke="#231F20" stroke-width="0.201439" stroke-miterlimit="10" stroke-linecap="round" stroke-linejoin="round"/>
        <path d="M175.675 146.15C175.221 146.464 174.767 146.621 174.388 146.7C174.237 146.543 174.086 146.386 174.01 146.229C173.859 145.993 173.783 145.679 173.708 145.287C173.708 145.208 173.708 145.13 173.708 145.13C173.708 144.973 173.708 144.816 173.708 144.659C173.708 143.246 174.388 141.597 175.372 140.498C175.599 140.263 175.826 140.027 176.053 139.792C176.053 139.792 176.053 139.792 176.129 139.713C176.431 139.478 176.734 139.321 177.036 139.242C177.112 139.242 177.263 139.164 177.339 139.164C177.717 139.478 178.02 140.027 178.096 140.812C178.171 142.618 177.112 145.051 175.675 146.15Z" fill="#939598" stroke="#231F20" stroke-width="0.0802954" stroke-miterlimit="10"/>
        <path d="M178.626 137.516C178.399 137.437 178.096 137.359 177.869 137.359C177.793 137.359 177.793 137.359 177.718 137.359C177.642 137.359 177.642 137.359 177.566 137.359C177.491 137.359 177.415 137.359 177.415 137.359C177.339 137.359 177.339 137.359 177.264 137.359C177.188 137.359 177.188 137.359 177.112 137.437C176.886 137.516 176.659 137.594 176.507 137.751C176.432 137.751 176.432 137.829 176.356 137.829C176.28 137.829 176.28 137.908 176.205 137.908C176.129 137.908 176.053 137.986 176.053 137.986L175.978 138.065C175.826 138.222 175.599 138.379 175.448 138.536C175.297 138.693 175.07 138.85 174.918 139.085C174.843 139.164 174.767 139.321 174.691 139.399C174.54 139.635 174.389 139.87 174.237 140.027C174.086 140.263 173.935 140.498 173.784 140.734C173.708 140.891 173.632 140.969 173.557 141.126C173.481 141.205 173.481 141.362 173.405 141.44C173.254 141.754 173.178 141.99 173.103 142.304C173.103 142.382 173.027 142.461 173.027 142.618L172.951 142.775C172.951 142.853 172.876 143.01 172.876 143.089C172.876 143.246 172.8 143.324 172.8 143.481C172.8 143.56 172.724 143.717 172.724 143.874V143.952C172.724 144.109 172.649 144.188 172.649 144.345C172.649 144.502 172.649 144.58 172.649 144.737C172.649 144.894 172.649 144.973 172.649 145.13V145.208C172.649 145.287 172.649 145.287 172.649 145.365C172.649 145.444 172.649 145.522 172.649 145.601C172.649 145.679 172.649 145.758 172.649 145.915C172.649 145.993 172.649 146.072 172.649 146.229C172.724 146.778 172.876 147.249 173.103 147.642C173.178 147.799 173.254 147.956 173.405 148.034C173.405 148.113 173.481 148.113 173.481 148.191C173.557 148.27 173.708 148.427 173.859 148.505C173.859 148.505 173.935 148.584 174.011 148.584L171.816 147.642C171.741 147.642 171.665 147.563 171.514 147.485C171.514 147.485 171.438 147.485 171.438 147.406C170.757 147.014 170.303 146.15 170.152 144.894C169.925 142.225 171.363 138.85 173.405 137.202C173.481 137.123 173.481 137.123 173.557 137.123C173.632 137.045 173.632 137.045 173.708 136.966C174.54 136.417 175.372 136.181 176.053 136.338L176.583 136.574L178.626 137.516Z" fill="#F1F2F2" stroke="#231F20" stroke-width="0.201439" stroke-miterlimit="10" stroke-linecap="round" stroke-linejoin="round"/>
        <path d="M159.862 145.836C159.786 145.836 159.786 145.915 159.711 145.993C159.635 145.993 159.635 146.072 159.559 146.072C157.517 147.72 156.079 151.096 156.306 153.765C156.457 155.021 156.911 155.884 157.592 156.277V164.126C157.592 164.676 157.214 165.225 156.533 165.696C155.096 166.56 152.75 166.56 151.313 165.696C150.632 165.304 150.253 164.754 150.253 164.126V153.372C150.253 143.638 156.079 144.266 159.862 145.836Z" fill="url(#paint1_linear_1_19911)" stroke="#231F20" stroke-width="0.190369" stroke-miterlimit="10" stroke-linecap="round" stroke-linejoin="round"/>
        <path opacity="0.2" d="M153.582 165.618C153.961 165.854 154.49 166.011 155.02 166.168C153.734 166.403 152.296 166.246 151.237 165.618C150.556 165.226 150.178 164.676 150.178 164.048V153.372C150.253 145.836 153.734 144.502 157.063 145.051C154.642 145.522 152.599 147.642 152.523 153.372V164.048C152.523 164.676 152.901 165.226 153.582 165.618Z" fill="black" stroke="#231F20" stroke-width="0.201439" stroke-miterlimit="10"/>
        <path d="M166.52 149.055C166.369 147.642 165.763 146.7 164.931 146.386C164.704 146.307 164.401 146.229 164.174 146.229C164.099 146.229 164.099 146.229 164.023 146.229C163.948 146.229 163.948 146.229 163.872 146.229C163.796 146.229 163.721 146.229 163.721 146.229C163.645 146.229 163.645 146.229 163.569 146.229C163.494 146.229 163.494 146.229 163.418 146.307C163.191 146.386 162.964 146.464 162.813 146.621C162.737 146.621 162.737 146.7 162.661 146.7C162.586 146.7 162.586 146.778 162.51 146.778C162.434 146.778 162.359 146.857 162.359 146.857L162.283 146.935C162.132 147.092 161.905 147.249 161.753 147.406C161.602 147.563 161.375 147.72 161.224 147.956C161.148 148.034 161.073 148.191 160.997 148.27C160.846 148.505 160.694 148.741 160.543 148.898C160.392 149.133 160.24 149.369 160.089 149.604C160.013 149.761 159.938 149.84 159.862 149.997C159.786 150.075 159.786 150.232 159.711 150.311C159.559 150.625 159.484 150.86 159.408 151.174C159.408 151.253 159.332 151.331 159.332 151.488L159.257 151.645C159.257 151.724 159.181 151.881 159.181 151.959C159.181 152.116 159.105 152.195 159.105 152.352C159.105 152.43 159.03 152.587 159.03 152.744V152.823C159.03 152.98 158.954 153.058 158.954 153.215C158.954 153.372 158.954 153.451 158.954 153.608C158.954 153.765 158.954 153.843 158.954 154V154.079C158.954 154.157 158.954 154.157 158.954 154.236C158.954 154.314 158.954 154.393 158.954 154.471C158.954 154.55 158.954 154.628 158.954 154.785C158.954 154.864 158.954 154.942 158.954 155.099C159.03 155.649 159.181 156.12 159.408 156.512C159.484 156.669 159.559 156.826 159.711 156.905C159.711 156.983 159.786 156.983 159.786 157.062C159.862 157.14 160.013 157.297 160.165 157.376C160.165 157.376 160.24 157.454 160.316 157.454C160.467 157.533 160.543 157.611 160.694 157.611C161.451 157.847 162.359 157.611 163.267 156.905C165.234 155.256 166.747 151.802 166.52 149.055ZM162.964 155.335C162.283 155.806 161.678 155.963 161.148 155.806C161.073 155.806 160.997 155.727 160.846 155.727C160.77 155.727 160.694 155.649 160.619 155.57C160.467 155.413 160.316 155.256 160.24 155.099C160.089 154.864 160.013 154.55 159.938 154.157C159.938 154.079 159.938 154 159.938 154C159.938 153.843 159.938 153.686 159.938 153.529C159.938 152.116 160.619 150.468 161.602 149.369C161.829 149.133 162.056 148.898 162.283 148.662C162.283 148.662 162.283 148.662 162.359 148.584C162.661 148.348 162.964 148.191 163.267 148.113C163.342 148.113 163.494 148.034 163.569 148.034C163.796 148.034 164.023 148.034 164.174 148.113C164.78 148.348 165.158 148.976 165.234 149.918C165.461 151.802 164.401 154.236 162.964 155.335Z" fill="#F1F2F2" stroke="#231F20" stroke-width="0.201439" stroke-miterlimit="10" stroke-linecap="round" stroke-linejoin="round"/>
        <path d="M162.964 155.335C162.283 155.806 161.677 155.963 161.148 155.806C161.072 155.806 160.996 155.727 160.845 155.727C160.769 155.727 160.694 155.649 160.618 155.57C160.996 155.57 161.45 155.413 161.904 155.021C163.342 153.922 164.401 151.567 164.25 149.683C164.174 148.898 163.947 148.348 163.493 148.034C163.72 148.034 163.947 148.034 164.098 148.113C164.704 148.348 165.082 148.976 165.158 149.918C165.46 151.802 164.401 154.236 162.964 155.335Z" fill="#797979" stroke="#231F20" stroke-width="0.201439" stroke-miterlimit="10" stroke-linecap="round" stroke-linejoin="round"/>
        <path d="M161.98 155.021C161.526 155.335 161.072 155.492 160.694 155.57C160.543 155.413 160.391 155.256 160.316 155.099C160.164 154.864 160.089 154.55 160.013 154.157C160.013 154.079 160.013 154 160.013 154C160.013 153.843 160.013 153.686 160.013 153.529C160.013 152.116 160.694 150.468 161.678 149.369C161.905 149.133 162.132 148.898 162.359 148.662C162.359 148.662 162.359 148.662 162.434 148.584C162.737 148.348 163.039 148.191 163.342 148.113C163.418 148.113 163.569 148.034 163.645 148.034C164.023 148.348 164.326 148.898 164.401 149.683C164.477 151.488 163.418 153.922 161.98 155.021Z" fill="#939598" stroke="#231F20" stroke-width="0.0802954" stroke-miterlimit="10"/>
        <path d="M164.931 146.386C164.704 146.307 164.401 146.229 164.174 146.229C164.099 146.229 164.099 146.229 164.023 146.229C163.947 146.229 163.947 146.229 163.872 146.229C163.796 146.229 163.72 146.229 163.72 146.229C163.645 146.229 163.645 146.229 163.569 146.229C163.493 146.229 163.493 146.229 163.418 146.307C163.191 146.386 162.964 146.464 162.812 146.621C162.737 146.621 162.737 146.7 162.661 146.7C162.585 146.7 162.585 146.778 162.51 146.778C162.434 146.778 162.358 146.857 162.358 146.857L162.283 146.935C162.132 147.092 161.905 147.249 161.753 147.406C161.602 147.563 161.375 147.72 161.224 147.956C161.148 148.034 161.072 148.191 160.997 148.27C160.845 148.505 160.694 148.741 160.543 148.898C160.391 149.133 160.24 149.369 160.089 149.604C160.013 149.761 159.937 149.84 159.862 149.997C159.786 150.075 159.786 150.232 159.71 150.311C159.559 150.625 159.483 150.86 159.408 151.174C159.408 151.253 159.332 151.331 159.332 151.488L159.257 151.645C159.257 151.724 159.181 151.881 159.181 151.959C159.181 152.116 159.105 152.195 159.105 152.352C159.105 152.43 159.03 152.587 159.03 152.744V152.823C159.03 152.98 158.954 153.058 158.954 153.215C158.954 153.372 158.954 153.451 158.954 153.608C158.954 153.765 158.954 153.843 158.954 154V154.157C158.954 154.236 158.954 154.236 158.954 154.314C158.954 154.393 158.954 154.471 158.954 154.55C158.954 154.628 158.954 154.707 158.954 154.864C158.954 154.942 158.954 155.021 158.954 155.178C159.03 155.727 159.181 156.198 159.408 156.591C159.483 156.748 159.559 156.905 159.71 156.983C159.71 157.062 159.786 157.062 159.786 157.14C159.862 157.219 160.013 157.376 160.164 157.454C160.164 157.454 160.24 157.533 160.316 157.533L158.122 156.591C158.046 156.591 157.97 156.512 157.819 156.434C157.819 156.434 157.743 156.434 157.743 156.355C157.062 155.963 156.608 155.099 156.457 153.843C156.23 151.174 157.668 147.799 159.71 146.15C159.786 146.072 159.786 146.072 159.862 146.072C159.937 145.993 159.937 145.993 160.013 145.915C160.845 145.365 161.678 145.13 162.358 145.287L162.888 145.522L164.931 146.386Z" fill="#F1F2F2" stroke="#231F20" stroke-width="0.201439" stroke-miterlimit="10" stroke-linecap="round" stroke-linejoin="round"/>
    </g>
    <defs>
        <linearGradient id="paint0_linear_1_19911" x1="163.858" y1="146.721" x2="173.526" y2="146.721" gradientUnits="userSpaceOnUse">
            <stop stop-color="#D1D2D3"/>
            <stop offset="0.3636" stop-color="#D1D2D3"/>
            <stop offset="0.6738" stop-color="#F1F1F1"/>
            <stop offset="1" stop-color="#E5E6E6"/>
        </linearGradient>
        <linearGradient id="paint1_linear_1_19911" x1="150.187" y1="155.598" x2="159.855" y2="155.598" gradientUnits="userSpaceOnUse">
            <stop stop-color="#D1D2D3"/>
            <stop offset="0.3636" stop-color="#D1D2D3"/>
            <stop offset="0.6738" stop-color="#F1F1F1"/>
            <stop offset="1" stop-color="#E5E6E6"/>
        </linearGradient>
        <clipPath id="">
            <rect width="130.661" height="96.6314" fill="white" transform="translate(50.6118 85.0785)"/>
        </clipPath>
    </defs>


    <g clip-path="url(#)">
        <path d="M123.487 191.935L122.927 192.285C122.857 192.285 122.857 192.285 122.787 192.285C123.067 192.145 123.277 192.075 123.487 191.935Z" fill="#F1F2F2" stroke="#231F20" stroke-width="0.227924" stroke-miterlimit="10" stroke-linecap="round" stroke-linejoin="round"/>
        <path d="M123.487 191.935L122.927 192.285C122.857 192.285 122.857 192.285 122.787 192.285C123.067 192.145 123.277 192.075 123.487 191.935Z" fill="#F1F2F2" stroke="#231F20" stroke-width="0.227924" stroke-miterlimit="10" stroke-linecap="round" stroke-linejoin="round"/>
        <path d="M123.487 191.935L122.927 192.285C122.857 192.285 122.857 192.285 122.787 192.285C123.067 192.145 123.277 192.075 123.487 191.935Z" fill="#F1F2F2" stroke="#231F20" stroke-width="0.227924" stroke-miterlimit="10" stroke-linecap="round" stroke-linejoin="round"/>
        <path d="M123.487 191.935L122.927 192.285C122.857 192.285 122.857 192.285 122.787 192.285C123.067 192.145 123.277 192.075 123.487 191.935Z" fill="#F1F2F2" stroke="#231F20" stroke-width="0.227924" stroke-miterlimit="10" stroke-linecap="round" stroke-linejoin="round"/>
        <path d="M123.487 191.935L122.927 192.285C122.857 192.285 122.857 192.285 122.787 192.285C123.067 192.145 123.277 192.075 123.487 191.935Z" fill="#F1F2F2" stroke="#231F20" stroke-width="0.227924" stroke-miterlimit="10" stroke-linecap="round" stroke-linejoin="round"/>
        <path d="M118.372 188.572C118.372 189.483 118.302 190.394 118.162 191.234C118.092 191.725 117.952 192.145 117.882 192.566C117.742 193.126 117.532 193.617 117.321 194.107C117.181 194.387 117.041 194.668 116.901 194.948C116.691 195.368 116.411 195.719 116.13 196.069C115.71 196.559 115.149 196.98 114.589 197.33L114.449 197.4C111.996 198.801 108.703 198.591 104.99 196.419C104.499 196.139 104.079 195.859 103.659 195.578L55.3833 167.692C55.103 167.552 54.8227 167.412 54.5425 167.202C47.1155 162.928 41.0898 152.488 41.0898 143.94C41.0898 142.188 41.3 140.717 41.7905 139.456C42.4211 137.564 43.5421 136.163 44.9435 135.322C45.0135 135.322 45.0135 135.252 45.0836 135.252C45.7142 134.902 46.3448 134.691 47.0454 134.551C47.2556 134.481 47.3958 134.481 47.606 134.481C47.8162 134.481 48.0264 134.411 48.2366 134.411L50.4086 134.201L50.899 134.131L57.7655 133.57L58.256 133.5L62.1096 133.15L63.8612 133.01L67.1543 132.729L72.8997 132.309C73.25 132.239 73.5303 132.239 73.8806 132.239C74.0207 132.239 74.2309 132.239 74.4411 132.239C75.4221 132.239 76.403 132.449 77.524 132.87C78.3648 133.15 79.2757 133.57 80.1865 134.061C81.4477 134.831 82.7089 135.742 83.9 136.793C84.8809 137.704 85.7918 138.685 86.7027 139.736L86.7727 139.806C86.9829 140.086 87.2632 140.367 87.4734 140.647L99.1043 155.361L99.8049 156.272L101.557 158.444L101.907 158.864L104.429 162.087L106.882 165.17L110.525 169.794C111.156 170.425 111.716 171.126 112.277 171.896C112.697 172.387 113.047 172.947 113.398 173.438C116.27 177.712 118.232 182.756 118.513 187.381C118.372 187.731 118.372 188.151 118.372 188.572Z" fill="#F1F2F2" stroke="#231F20" stroke-width="0.227924" stroke-miterlimit="10" stroke-linecap="round" stroke-linejoin="round"/>
        <path opacity="0.14" d="M118.372 188.572C118.372 189.483 118.302 190.394 118.162 191.234C118.092 191.725 117.952 192.145 117.882 192.566C117.742 193.126 117.532 193.617 117.321 194.107C117.181 194.387 117.041 194.668 116.901 194.948C116.691 195.368 116.411 195.719 116.13 196.069C115.71 196.559 115.149 196.98 114.589 197.33L114.449 197.4C111.996 198.801 108.703 198.591 104.99 196.419C104.499 196.139 104.079 195.859 103.659 195.578L55.3833 167.692C55.103 167.552 54.8227 167.412 54.5425 167.202C47.1155 162.928 41.0898 152.488 41.0898 143.94C41.0898 142.188 41.3 140.717 41.7905 139.456C42.4211 137.564 43.5421 136.163 44.9435 135.322C45.0135 135.322 45.0135 135.252 45.0836 135.252C45.7142 134.902 46.3448 134.691 47.0454 134.551C47.2556 134.481 47.3958 134.481 47.606 134.481C47.8162 134.481 48.0264 134.411 48.2366 134.411L50.4086 134.201L50.899 134.131L57.7655 133.57L58.256 133.5L62.1096 133.15L63.8612 133.01L67.1543 132.729L72.8997 132.309C73.25 132.239 73.5303 132.239 73.8806 132.239C74.0207 132.239 74.2309 132.239 74.4411 132.239C75.4221 132.239 76.403 132.449 77.524 132.87C78.3648 133.15 79.2757 133.57 80.1865 134.061C81.4477 134.831 82.7089 135.742 83.9 136.793C84.8809 137.704 85.7918 138.685 86.7027 139.736L86.7727 139.806C86.9829 140.086 87.2632 140.367 87.4734 140.647L99.1043 155.361L99.8049 156.272L101.557 158.444L101.907 158.864L104.429 162.087L106.882 165.17L110.525 169.794C111.156 170.425 111.716 171.126 112.277 171.896C112.697 172.387 113.047 172.947 113.398 173.438C116.27 177.712 118.232 182.756 118.513 187.381C118.372 187.731 118.372 188.151 118.372 188.572Z" fill="black" stroke="#231F20" stroke-width="0.227924" stroke-miterlimit="10"/>
        <path d="M127.481 183.247C127.481 187.521 126.01 190.464 123.627 191.935L123.487 192.005C123.277 192.145 123.067 192.215 122.787 192.355C122.857 192.355 122.857 192.355 122.927 192.355L118.653 194.878L117.672 195.438L116.341 196.209L114.519 197.26C115.079 196.91 115.57 196.489 116.06 195.999C116.341 195.649 116.621 195.298 116.831 194.878C116.971 194.598 117.111 194.317 117.251 194.037C117.462 193.547 117.672 193.056 117.812 192.496C117.952 192.075 118.022 191.655 118.092 191.164C118.232 190.324 118.302 189.483 118.302 188.502C118.302 188.081 118.302 187.661 118.232 187.241C117.952 182.616 115.99 177.572 113.118 173.298C112.767 172.737 112.347 172.247 111.997 171.756C111.436 171.056 110.875 170.355 110.245 169.654L106.601 165.03L104.149 161.947L101.627 158.724L101.276 158.304L99.5248 156.131L98.8242 155.221L87.1933 140.507C86.9831 140.227 86.7729 139.946 86.4926 139.666L86.4225 139.596C85.5817 138.545 84.6008 137.564 83.6199 136.653C82.4288 135.602 81.2377 134.691 79.9064 133.921C78.9956 133.43 78.1548 133.01 77.2439 132.73C76.1929 132.379 75.1419 132.169 74.161 132.099C73.9508 132.099 73.8107 132.099 73.6005 132.099C73.2502 132.099 72.9699 132.169 72.6196 132.169L66.9442 132.659L63.8614 133.01L61.9696 133.15L58.116 133.5L57.6255 133.57L50.7591 134.131H50.3387L48.1666 134.341C47.9564 134.341 47.7462 134.341 47.536 134.411C47.3258 134.411 47.1857 134.481 46.9755 134.481C46.2749 134.621 45.6443 134.902 45.0137 135.182L47.0456 133.991L54.1222 129.787C54.8929 129.366 55.7337 129.086 56.6446 128.946C56.8548 128.946 57.065 128.876 57.2752 128.876L57.9058 128.806L60.7084 128.596L62.2498 128.526L72.8298 127.685L75.9127 127.405L77.1739 127.334L81.9383 126.914C82.2887 126.844 82.5689 126.844 82.9192 126.844C84.811 126.774 86.913 127.405 89.1551 128.666C91.4673 129.997 93.7094 131.959 95.6011 134.341L95.6712 134.411C95.8814 134.691 96.1617 134.972 96.3719 135.252L101.417 141.628L108.703 150.877L110.455 153.119L112.627 155.851L115.64 159.705L119.353 164.399C120.404 165.52 121.385 166.781 122.226 168.043C122.296 168.113 122.296 168.183 122.366 168.183C122.787 168.813 123.137 169.374 123.487 170.005C125.449 173.368 126.78 177.081 127.201 180.584C127.411 181.495 127.481 182.336 127.481 183.247Z" fill="#F1F2F2" stroke="#231F20" stroke-width="0.227924" stroke-miterlimit="10" stroke-linecap="round" stroke-linejoin="round"/>
        <path d="M36.6053 155.991C36.6053 155.991 32.1911 151.577 31.4204 159.845C30.7197 168.183 30.7197 168.183 30.7197 168.183L38.9875 180.654L48.7266 181.705L49.4273 176.661L36.6053 155.991Z" fill="#49443A" stroke="#231F20" stroke-width="0.162342" stroke-miterlimit="10" stroke-linecap="round" stroke-linejoin="round"/>
        <path d="M54.0514 171.126C54.0514 171.756 54.0514 172.317 53.9112 172.807C53.8412 173.298 53.701 173.788 53.5609 174.208C53.2106 175.189 52.65 175.96 51.8793 176.521C51.1787 177.011 50.3379 177.291 49.357 177.291C49.2869 177.291 49.2168 177.291 49.1468 177.291C48.0958 177.291 46.8346 176.941 45.5734 176.24C45.5734 176.24 45.5033 176.24 45.5033 176.17C40.7389 173.508 36.8152 166.852 36.7451 161.386C36.7451 161.106 36.7451 160.826 36.7451 160.616C36.8152 159.425 37.0954 158.444 37.5158 157.603C37.5158 157.533 37.5859 157.533 37.5859 157.463C38.0764 156.552 38.8471 155.921 39.6879 155.571C40.4586 155.291 41.2994 155.151 42.2803 155.291C42.981 155.361 43.8218 155.641 44.5925 155.991C44.8027 156.061 45.0129 156.202 45.2231 156.342C45.3632 156.412 45.4333 156.482 45.5734 156.552L45.6435 156.622C49.4971 160.335 52.58 165.59 53.9813 170.775V170.845C53.9813 170.915 54.0514 171.055 54.0514 171.126Z" fill="#6E6657" stroke="#231F20" stroke-width="0.162342" stroke-miterlimit="10" stroke-linecap="round" stroke-linejoin="round"/>
        <path d="M35.2739 164.469C35.344 168.533 38.2868 173.508 41.79 175.469C43.6818 176.52 45.3634 176.52 46.5545 175.75C47.115 175.329 47.5354 174.769 47.8157 174.068C47.9558 173.718 48.0259 173.367 48.096 173.017C48.166 172.597 48.166 172.176 48.166 171.756C48.096 167.692 45.1532 162.717 41.6499 160.756C41.5098 160.686 41.2996 160.615 41.1594 160.475C40.5289 160.195 39.9683 159.985 39.4078 159.915C38.7071 159.845 38.0766 159.915 37.516 160.125C36.1147 160.686 35.2739 162.227 35.2739 164.469Z" fill="#928874" stroke="#231F20" stroke-width="0.162342" stroke-miterlimit="10" stroke-linecap="round" stroke-linejoin="round"/>
        <path d="M37.5161 160.125C38.0766 159.915 38.7072 159.845 39.4079 159.915C39.9684 159.985 40.5289 160.195 41.1595 160.475C41.2997 160.546 41.5099 160.616 41.65 160.756C45.2233 162.788 48.1661 167.692 48.1661 171.756C48.1661 172.176 48.1661 172.667 48.096 173.017C48.026 173.368 47.9559 173.718 47.8158 174.068C47.5355 174.839 47.1151 175.399 46.5546 175.75L50.0579 173.648H50.128C51.3191 172.947 52.0197 171.546 51.9497 169.444C51.8796 165.38 48.9368 160.405 45.4335 158.444C43.8921 157.603 42.4908 157.393 41.3697 157.813L40.5289 158.374L37.5161 160.125Z" fill="url(#paint0_linear_1_19911)" stroke="#231F20" stroke-width="0.162342" stroke-miterlimit="10" stroke-linecap="round" stroke-linejoin="round"/>
        <path d="M54.0515 170.845C54.0515 170.775 54.0515 170.775 54.0515 170.705C52.6502 165.52 49.5673 160.335 45.7137 156.552C45.6436 156.482 45.6436 156.482 45.5736 156.412C44.1722 155.08 42.6308 153.889 41.0893 153.049C40.739 152.838 40.3887 152.698 40.0384 152.488C38.7772 151.857 37.516 151.507 36.3949 151.367C34.9236 151.157 33.5923 151.297 32.4012 151.787C32.4012 151.787 32.4012 151.787 32.3311 151.787C29.3884 152.978 27.6367 156.201 27.6367 160.966C27.7068 169.584 33.8726 179.954 41.3696 184.158C45.3634 186.4 48.9367 186.47 51.389 184.648C52.5101 183.807 53.4209 182.616 53.9814 181.075C54.2617 180.374 54.4018 179.673 54.542 178.903C54.6821 178.062 54.7522 177.221 54.7522 176.24C54.8222 174.489 54.542 172.667 54.0515 170.845ZM47.7456 178.903C46.2041 180.024 43.892 180.024 41.3696 178.552C36.6051 175.89 32.6815 169.234 32.6114 163.769C32.5413 160.756 33.7324 158.654 35.6242 157.883C36.1847 157.673 36.8153 157.533 37.516 157.533C37.5861 157.533 37.6561 157.533 37.6561 157.533C37.7963 157.533 38.0065 157.533 38.1466 157.603C38.8472 157.673 39.618 157.953 40.4588 158.303C40.6689 158.374 40.8791 158.514 41.0893 158.654C45.8538 161.316 49.7775 167.973 49.8476 173.438C49.8476 173.508 49.8476 173.648 49.8476 173.718C49.8476 174.208 49.7775 174.699 49.7074 175.119C49.6374 175.61 49.4972 176.1 49.3571 176.521C49.287 176.801 49.1469 177.011 49.0768 177.221C48.7966 177.992 48.3061 178.552 47.7456 178.903Z" fill="#231F20" stroke="#231F20" stroke-width="0.162342" stroke-miterlimit="10" stroke-linecap="round" stroke-linejoin="round"/>
        <path d="M60.9182 179.253C61.2685 179.113 61.6189 178.903 61.9692 178.622L60.9182 179.253ZM53.9817 170.705C52.5804 165.52 49.4975 160.335 45.6439 156.552C45.5738 156.482 45.5738 156.482 45.5037 156.412C45.5037 156.412 45.5037 156.412 45.5037 156.482C45.7139 157.322 45.9942 158.163 46.2745 159.004C47.5357 162.437 49.4975 165.73 51.8797 168.533C52.5103 169.304 53.211 170.074 53.9116 170.705C54.0518 170.775 54.0518 170.775 53.9817 170.705ZM41.3699 146.672L41.2998 146.743C41.7903 146.462 42.2107 146.182 42.4909 146.042C42.561 146.042 42.561 145.972 42.6311 145.972C42.7011 145.972 42.7011 145.902 42.7712 145.902L42.8413 145.832L42.9113 145.762C42.3508 145.972 41.7903 146.252 41.3699 146.672Z" fill="#231F20" stroke="#231F20" stroke-width="0.162342" stroke-miterlimit="10" stroke-linecap="round" stroke-linejoin="round"/>
        <path d="M63.2302 177.572C63.1602 177.642 63.02 177.712 63.02 177.782C63.0901 177.712 63.1602 177.642 63.2302 177.572Z" fill="url(#paint1_linear_1_19911)" stroke="#231F20" stroke-width="0.162342" stroke-miterlimit="10" stroke-linecap="round" stroke-linejoin="round"/>
        <path d="M65.3325 170.145C65.3325 171.125 65.2625 171.966 65.1223 172.807C64.9822 173.648 64.8421 174.349 64.5618 175.049C64.0013 176.591 63.0904 177.852 61.9694 178.623L60.9184 179.253L51.4595 184.788C52.5805 183.948 53.4914 182.756 54.0519 181.215C54.3322 180.514 54.4723 179.814 54.6125 179.043C54.7526 178.202 54.8227 177.361 54.8227 176.38C54.8227 174.629 54.5424 172.807 54.0519 170.915C54.0519 170.845 54.0519 170.845 54.0519 170.775C52.6506 165.59 49.5677 160.405 45.7141 156.622C45.644 156.552 45.644 156.552 45.574 156.482C44.1727 155.15 42.6312 153.959 41.0898 153.119C40.7394 152.908 40.3891 152.768 40.0388 152.558C38.7776 151.927 37.5164 151.577 36.3954 151.437C34.924 151.227 33.5927 151.367 32.4016 151.857C32.4016 151.857 32.4016 151.857 32.3315 151.857L41.3 146.673L41.2299 146.743C41.7204 146.462 42.1408 146.182 42.421 146.042C42.4911 146.042 42.4911 145.972 42.5611 145.972C42.6312 145.972 42.6312 145.902 42.7013 145.902L42.7713 145.832L42.8414 145.762C44.0325 145.271 45.3638 145.131 46.9052 145.341C48.0263 145.481 49.2875 145.902 50.5486 146.462C50.899 146.602 51.2493 146.813 51.5996 147.023C53.2111 147.934 54.7526 149.125 56.224 150.526C60.0776 154.24 63.1605 159.495 64.5618 164.679C65.0523 166.501 65.3325 168.393 65.3325 170.145Z" fill="url(#paint2_linear_1_19911)" stroke="#231F20" stroke-width="0.162342" stroke-miterlimit="10" stroke-linecap="round" stroke-linejoin="round"/>
        <path d="M42.4909 145.972C42.2107 146.112 41.7903 146.392 41.2998 146.673L41.3699 146.603L42.4909 145.972Z" fill="#C49A6C" stroke="#231F20" stroke-width="0.162342" stroke-miterlimit="10" stroke-linecap="round" stroke-linejoin="round"/>
        <path d="M56.2936 177.291C56.2936 178.202 56.2236 179.043 56.1535 179.884L21.8913 160.546C21.7512 159.495 21.6812 158.374 21.6812 157.323C21.6812 151.787 23.643 147.864 26.796 146.112L26.9361 146.042C29.1081 144.851 31.8407 144.641 34.9236 145.552C36.2548 145.972 37.5861 146.533 38.9874 147.373C44.7328 150.666 49.8476 156.902 53.0005 163.699C55.1025 168.183 56.2936 172.947 56.2936 177.291Z" fill="#F1F2F2" stroke="#231F20" stroke-width="0.120163" stroke-miterlimit="10" stroke-linecap="round" stroke-linejoin="round"/>
        <path d="M69.0456 170.075C69.0456 170.985 68.9755 171.826 68.9054 172.667L56.1535 179.884C56.2235 179.043 56.2936 178.202 56.2936 177.291C56.2936 172.877 55.1025 168.183 53.0005 163.699C49.8475 156.902 44.7327 150.666 38.9873 147.373C37.586 146.603 36.2548 145.972 34.9235 145.552C31.8406 144.641 29.1081 144.851 26.936 146.042L39.1275 139.105L40.0383 138.615C43.1212 137.144 47.2551 137.494 51.7393 140.086C61.2683 145.622 69.0456 159.074 69.0456 170.075Z" fill="#F1F2F2" stroke="#231F20" stroke-width="0.120163" stroke-miterlimit="10" stroke-linecap="round" stroke-linejoin="round"/>
        <path d="M56.2936 177.291C56.2936 178.202 56.2236 179.043 56.1535 179.884L21.8913 160.546C21.7512 159.495 21.6812 158.374 21.6812 157.323C21.6812 151.787 23.643 147.864 26.796 146.112L26.9361 146.042C29.1081 144.851 31.8407 144.641 34.9236 145.552C36.2548 145.972 37.5861 146.533 38.9874 147.373C44.7328 150.666 49.8476 156.902 53.0005 163.699C55.1025 168.183 56.2936 172.947 56.2936 177.291Z" fill="#F1F2F2" stroke="#231F20" stroke-width="0.120163" stroke-miterlimit="10" stroke-linecap="round" stroke-linejoin="round"/>
        <path opacity="0.14" d="M56.2936 177.291C56.2936 178.202 56.2236 179.043 56.1535 179.884L21.8913 160.546C21.7512 159.495 21.6812 158.374 21.6812 157.323C21.6812 151.787 23.643 147.864 26.796 146.112L26.9361 146.042C29.1081 144.851 31.8407 144.641 34.9236 145.552C36.2548 145.972 37.5861 146.533 38.9874 147.373C44.7328 150.666 49.8476 156.902 53.0005 163.699C55.1025 168.183 56.2936 172.947 56.2936 177.291Z" fill="black" stroke="#231F20" stroke-width="0.163954" stroke-miterlimit="10"/>
        <path d="M86.002 183.807C86.002 183.807 81.5878 179.393 80.8171 187.661C80.0464 195.999 80.0464 195.999 80.0464 195.999L88.3141 208.471L98.0533 209.522L98.7539 204.477L86.002 183.807Z" fill="#49443A" stroke="#231F20" stroke-width="0.162342" stroke-miterlimit="10" stroke-linecap="round" stroke-linejoin="round"/>
        <path d="M103.379 198.942C103.379 199.572 103.379 200.133 103.238 200.623C103.168 201.114 103.028 201.604 102.888 202.025C102.538 203.006 101.977 203.776 101.206 204.337C100.506 204.827 99.665 205.108 98.6841 205.108C98.614 205.108 98.544 205.108 98.4739 205.108C97.4229 205.108 96.1617 204.757 94.9006 204.057C94.9006 204.057 94.8305 204.057 94.8305 203.987C90.066 201.324 86.1423 194.668 86.0723 189.203C86.0723 188.922 86.0723 188.642 86.0723 188.432C86.1423 187.241 86.4226 186.26 86.843 185.419C86.843 185.349 86.9131 185.349 86.9131 185.279C87.4035 184.368 88.1742 183.738 89.015 183.387C89.7857 183.107 90.6265 182.967 91.6075 183.107C92.3081 183.177 93.1489 183.457 93.9196 183.808C94.1298 183.878 94.34 184.018 94.5502 184.158C94.6904 184.228 94.7604 184.298 94.9006 184.368L94.9706 184.438C98.8242 188.152 101.907 193.407 103.308 198.592V198.662C103.379 198.732 103.379 198.872 103.379 198.942Z" fill="#6E6657" stroke="#231F20" stroke-width="0.162342" stroke-miterlimit="10" stroke-linecap="round" stroke-linejoin="round"/>
        <path d="M84.6713 192.356C84.7413 196.419 87.6841 201.394 91.1874 203.356C93.0791 204.407 94.7607 204.407 95.9518 203.636C96.5124 203.216 96.9328 202.655 97.213 201.955C97.3532 201.604 97.4232 201.254 97.4933 200.904C97.5634 200.483 97.5634 200.063 97.5634 199.642C97.4933 195.579 94.5505 190.604 91.0472 188.642C90.9071 188.572 90.6969 188.502 90.5568 188.362C89.9262 188.082 89.3657 187.871 88.8051 187.801C88.1045 187.731 87.4739 187.801 86.9134 188.011C85.512 188.572 84.6012 190.043 84.6713 192.356Z" fill="#928874" stroke="#231F20" stroke-width="0.162342" stroke-miterlimit="10" stroke-linecap="round" stroke-linejoin="round"/>
        <path d="M86.8433 187.941C87.4038 187.731 88.0344 187.661 88.735 187.731C89.2956 187.801 89.8561 188.011 90.4867 188.292C90.6268 188.362 90.837 188.432 90.9771 188.572C94.5505 190.604 97.4933 195.508 97.4933 199.572C97.4933 199.993 97.4933 200.483 97.4232 200.833C97.3531 201.184 97.2831 201.534 97.1429 201.884C96.8627 202.655 96.4423 203.216 95.8817 203.566L99.385 201.464H99.4551C100.646 200.763 101.347 199.362 101.277 197.26C101.207 193.196 98.264 188.222 94.7607 186.26C93.2192 185.419 91.8179 185.209 90.6969 185.629L89.786 186.19L86.8433 187.941Z" fill="url(#paint3_linear_1_19911)" stroke="#231F20" stroke-width="0.162342" stroke-miterlimit="10" stroke-linecap="round" stroke-linejoin="round"/>
        <path d="M103.379 198.661C103.379 198.591 103.379 198.591 103.379 198.521C101.977 193.336 98.8945 188.152 95.0408 184.368C94.9708 184.298 94.9708 184.298 94.9007 184.228C93.4994 182.897 91.9579 181.705 90.4165 180.865C90.0662 180.654 89.7158 180.514 89.3655 180.304C88.1043 179.674 86.8431 179.323 85.7221 179.183C84.2507 178.973 82.9195 179.113 81.7283 179.603C81.7283 179.603 81.7283 179.603 81.6583 179.603C78.7155 180.795 76.9639 184.018 76.9639 188.782C77.0339 197.4 83.1997 207.77 90.6968 211.974C94.6905 214.216 98.2639 214.286 100.716 212.464C101.837 211.624 102.748 210.432 103.309 208.891C103.589 208.19 103.729 207.49 103.869 206.719C104.009 205.878 104.079 205.037 104.079 204.056C104.149 202.375 103.869 200.483 103.379 198.661ZM97.1428 206.789C95.6014 207.91 93.2892 207.91 90.7668 206.439C86.0023 203.776 82.0787 197.12 82.0086 191.655C81.9385 188.642 83.1297 186.54 85.0214 185.769C85.582 185.559 86.2125 185.419 86.9132 185.419C86.9833 185.419 87.0533 185.419 87.0533 185.419C87.1935 185.419 87.4037 185.419 87.5438 185.489C88.2445 185.559 89.0152 185.839 89.856 186.19C90.0662 186.26 90.2764 186.4 90.4866 186.54C95.251 189.202 99.1747 195.859 99.2448 201.324C99.2448 201.394 99.2448 201.534 99.2448 201.604C99.2448 202.095 99.1747 202.585 99.1046 203.005C99.0346 203.496 98.8945 203.986 98.7543 204.407C98.6843 204.687 98.5441 204.897 98.4741 205.107C98.1237 205.808 97.6333 206.369 97.1428 206.789Z" fill="#231F20" stroke="#231F20" stroke-width="0.162342" stroke-miterlimit="10" stroke-linecap="round" stroke-linejoin="round"/>
        <path d="M110.245 207.069C110.596 206.929 110.946 206.719 111.296 206.439L110.245 207.069ZM103.379 198.591C101.978 193.406 98.8947 188.222 95.0411 184.438C94.971 184.368 94.971 184.368 94.901 184.298C94.901 184.298 94.901 184.298 94.901 184.368C95.1112 185.209 95.3914 186.05 95.6717 186.89C96.9329 190.324 98.8947 193.617 101.277 196.419C101.908 197.19 102.608 197.961 103.309 198.591C103.379 198.661 103.379 198.591 103.379 198.591ZM90.697 174.489L90.627 174.559C91.1174 174.279 91.5378 173.998 91.8181 173.858C91.8881 173.858 91.8881 173.788 91.9582 173.788C92.0283 173.788 92.0283 173.718 92.0983 173.718L92.1684 173.648L92.2385 173.578C91.6779 173.788 91.1174 174.138 90.697 174.489Z" fill="#231F20" stroke="#231F20" stroke-width="0.162342" stroke-miterlimit="10" stroke-linecap="round" stroke-linejoin="round"/>
        <path d="M112.557 205.458C112.487 205.528 112.347 205.598 112.347 205.668C112.417 205.528 112.487 205.458 112.557 205.458Z" fill="url(#paint4_linear_1_19911)" stroke="#231F20" stroke-width="0.162342" stroke-miterlimit="10" stroke-linecap="round" stroke-linejoin="round"/>
        <path d="M114.66 198.031C114.66 199.012 114.59 199.853 114.449 200.693C114.309 201.464 114.099 202.235 113.889 202.865C113.328 204.407 112.418 205.668 111.297 206.439L110.246 207.069L100.787 212.605C101.908 211.764 102.819 210.573 103.379 209.031C103.659 208.331 103.799 207.63 103.94 206.859C104.08 206.018 104.15 205.178 104.15 204.197C104.15 202.445 103.87 200.623 103.379 198.732C103.379 198.662 103.379 198.662 103.379 198.591C101.978 193.407 98.8949 188.222 95.0413 184.438C94.9712 184.368 94.9712 184.368 94.9011 184.298C93.4998 182.967 91.9584 181.776 90.4169 180.935C90.0666 180.725 89.7163 180.585 89.3659 180.374C88.1047 179.744 86.8436 179.393 85.7225 179.253C84.2511 179.043 82.9199 179.183 81.7288 179.674C81.7288 179.674 81.7288 179.674 81.6587 179.674L90.6271 174.489L90.557 174.559C91.0475 174.279 91.4679 173.998 91.7482 173.858C91.8182 173.858 91.8182 173.788 91.8883 173.788C91.9584 173.788 91.9584 173.718 92.0284 173.718L92.0985 173.648L92.1686 173.578C93.3597 173.088 94.6909 172.947 96.2324 173.158C97.3534 173.298 98.6146 173.718 99.8758 174.279C100.226 174.419 100.576 174.629 100.927 174.839C102.538 175.75 104.08 176.941 105.551 178.342C109.405 182.056 112.488 187.311 113.889 192.496C114.379 194.317 114.66 196.209 114.66 198.031Z" fill="url(#paint5_linear_1_19911)" stroke="#231F20" stroke-width="0.162342" stroke-miterlimit="10" stroke-linecap="round" stroke-linejoin="round"/>
        <path d="M91.8181 173.858C91.5378 173.998 91.1174 174.279 90.627 174.559L90.697 174.489L91.8181 173.858Z" fill="#C49A6C" stroke="#231F20" stroke-width="0.162342" stroke-miterlimit="10" stroke-linecap="round" stroke-linejoin="round"/>
        <path d="M105.621 205.178C105.621 206.088 105.551 206.929 105.481 207.77L71.2185 188.432C71.0784 187.311 71.0083 186.26 71.0083 185.209C71.0083 179.674 72.9701 175.75 76.1231 173.998L76.2632 173.928C78.4353 172.737 81.1678 172.527 84.2507 173.438C85.582 173.858 86.9132 174.419 88.3145 175.259C94.0599 178.553 99.1747 184.788 102.328 191.585C104.43 195.999 105.621 200.763 105.621 205.178Z" fill="#F1F2F2" stroke="#231F20" stroke-width="0.120163" stroke-miterlimit="10" stroke-linecap="round" stroke-linejoin="round"/>
        <path d="M105.621 205.178C105.621 206.088 105.551 206.929 105.481 207.77L71.2185 188.432C71.0784 187.311 71.0083 186.26 71.0083 185.209C71.0083 179.674 72.9701 175.75 76.1231 173.998L76.2632 173.928C78.4353 172.737 81.1678 172.527 84.2507 173.438C85.582 173.858 86.9132 174.419 88.3145 175.259C94.0599 178.553 99.1747 184.788 102.328 191.585C104.43 195.999 105.621 200.763 105.621 205.178Z" fill="#F1F2F2" stroke="#231F20" stroke-width="0.120163" stroke-miterlimit="10" stroke-linecap="round" stroke-linejoin="round"/>
        <path opacity="0.14" d="M105.621 205.178C105.621 206.088 105.551 206.929 105.481 207.77L71.2185 188.432C71.0784 187.311 71.0083 186.26 71.0083 185.209C71.0083 179.674 72.9701 175.75 76.1231 173.998L76.2632 173.928C78.4353 172.737 81.1678 172.527 84.2507 173.438C85.582 173.858 86.9132 174.419 88.3145 175.259C94.0599 178.553 99.1747 184.788 102.328 191.585C104.43 195.999 105.621 200.763 105.621 205.178Z" fill="black" stroke="#231F20" stroke-width="0.163954" stroke-miterlimit="10"/>
        <path d="M118.373 197.961C118.373 198.872 118.303 199.712 118.233 200.553L105.481 207.77C105.551 206.929 105.621 206.088 105.621 205.178C105.621 200.763 104.43 196.069 102.328 191.585C99.1747 184.788 94.0599 178.553 88.3145 175.259C86.9132 174.419 85.5819 173.858 84.2507 173.438C81.1678 172.527 78.4352 172.737 76.2632 173.928L88.4546 167.062L89.3655 166.571C92.4484 165.1 96.5823 165.45 101.066 168.043C110.595 173.508 118.373 186.89 118.373 197.961Z" fill="#F1F2F2" stroke="#231F20" stroke-width="0.120163" stroke-miterlimit="10" stroke-linecap="round" stroke-linejoin="round"/>
    </g>
    <defs>
        <linearGradient id="paint0_linear_1_19911" x1="42.4414" y1="159.18" x2="49.3272" y2="171.785" gradientUnits="userSpaceOnUse">
            <stop stop-color="#C2B59B"/>
            <stop offset="1" stop-color="#49443A"/>
        </linearGradient>
        <linearGradient id="paint1_linear_1_19911" x1="63.1684" y1="177.578" x2="63.0654" y2="177.772" gradientUnits="userSpaceOnUse">
            <stop stop-color="#58595B"/>
            <stop offset="1"/>
        </linearGradient>
        <linearGradient id="paint2_linear_1_19911" x1="50.0243" y1="182.388" x2="48.0518" y2="146.144" gradientUnits="userSpaceOnUse">
            <stop/>
            <stop offset="1" stop-color="#58595B"/>
        </linearGradient>
        <linearGradient id="paint3_linear_1_19911" x1="91.7812" y1="187.023" x2="98.6673" y2="199.628" gradientUnits="userSpaceOnUse">
            <stop stop-color="#C2B59B"/>
            <stop offset="1" stop-color="#49443A"/>
        </linearGradient>
        <linearGradient id="paint4_linear_1_19911" x1="112.508" y1="205.42" x2="112.405" y2="205.614" gradientUnits="userSpaceOnUse">
            <stop stop-color="#58595B"/>
            <stop offset="1"/>
        </linearGradient>
        <linearGradient id="paint5_linear_1_19911" x1="99.3642" y1="210.231" x2="97.3918" y2="173.987" gradientUnits="userSpaceOnUse">
            <stop/>
            <stop offset="1" stop-color="#58595B"/>
        </linearGradient>
        <clipPath id="">
            <rect width="105.939" height="87.2319" fill="white" transform="translate(21.6118 126.704)"/>
        </clipPath>
    </defs>


    <g clip-path="url(#)">
        <path d="M175.687 132.029V140.717L160.973 147.934V139.246C161.113 139.316 161.253 139.316 161.394 139.386C163.706 140.016 165.738 139.806 167.419 139.106C167.489 139.106 167.559 139.036 167.559 139.036C169.311 138.405 170.852 137.424 171.973 136.373C174.706 133.851 175.547 132.239 175.687 132.029C175.687 132.029 175.617 132.029 175.687 132.029Z" fill="#F1F2F2"/>
        <path d="M175.687 132.029V140.717L160.973 147.934V139.246C161.113 139.316 161.253 139.316 161.394 139.386C163.706 140.016 165.738 139.806 167.419 139.106C167.489 139.106 167.559 139.036 167.559 139.036C169.311 138.405 170.852 137.424 171.973 136.373C174.706 133.851 175.547 132.239 175.687 132.029ZM175.687 132.029C175.617 132.029 175.687 132.029 175.687 132.029Z" stroke="#231F20" stroke-width="0.185955" stroke-miterlimit="10" stroke-linecap="round" stroke-linejoin="round"/>
        <path d="M175.686 132.029C175.686 132.029 175.616 132.029 175.686 132.029C175.546 132.239 174.706 133.851 172.043 136.373C170.922 137.424 169.381 138.405 167.629 139.036C167.559 139.036 167.489 139.106 167.489 139.106C165.737 139.806 163.775 140.016 161.463 139.386C161.323 139.316 161.183 139.316 161.043 139.246L132.316 122.64L61.269 81.7217C61.269 81.7217 71.0782 83.6836 75.7026 72.9635L175.686 132.029Z" fill="#939598" stroke="#231F20" stroke-width="0.185955" stroke-miterlimit="10"/>
        <path d="M160.903 139.246V147.934L61.269 90.4799V81.7217L132.176 122.64L160.903 139.246Z" fill="#F1F2F2" stroke="#231F20" stroke-width="0.185955" stroke-miterlimit="10" stroke-linecap="round" stroke-linejoin="round"/>
        <path opacity="0.2" d="M160.903 139.246V147.934L61.269 90.4799V81.7217L132.176 122.64L160.903 139.246Z" fill="black" stroke="#231F20" stroke-width="0.185955" stroke-miterlimit="10"/>
        <path d="M92.3087 61.5428L86.6334 71.4221L76.684 88.6582L60.1485 77.5878L57.6962 75.9763C56.2248 74.7852 55.314 72.7533 55.314 69.8806C55.314 68.5494 55.5242 67.148 55.8745 65.7467C56.7153 62.4536 58.4669 59.1605 60.709 56.498C62.1103 54.8865 63.6518 53.4852 65.3334 52.5744C67.7857 51.1731 70.0978 50.8928 71.7794 51.5934V51.5234L92.2386 61.5428H92.3087Z" fill="url(#paint0_linear_1_19911)"/>
        <path d="M154.177 133.5L169.872 106.385C151.304 95.6649 92.3091 61.5429 92.3091 61.5429C90.2772 60.3517 87.5446 60.5619 84.4617 62.3136C78.4361 65.8869 73.4614 74.435 73.4614 81.5116C73.4614 85.0149 74.7226 87.5372 76.6844 88.6583L154.177 133.5Z" fill="url(#paint1_linear_1_19911)" stroke="#231F20" stroke-width="0.0444042" stroke-miterlimit="10"/>
        <path d="M121.386 114.512L114.87 110.729C112.838 109.538 111.647 107.085 111.647 103.582C111.647 96.5055 116.622 87.9575 122.717 84.3842C124.259 83.4733 125.73 83.0529 126.991 82.9128C128.323 82.7727 129.514 83.0529 130.495 83.6134C130.495 83.6134 132.947 85.0148 137.011 87.397C136.03 86.8365 134.839 86.5562 133.507 86.6963C132.176 86.8365 130.705 87.3269 129.233 88.1677C123.138 91.671 118.163 100.289 118.163 107.366C118.093 110.869 119.354 113.391 121.386 114.512Z" fill="url(#paint2_linear_1_19911)"/>
        <path d="M111.507 108.837L104.991 105.054C102.959 103.862 101.768 101.41 101.768 97.9069C101.768 90.8302 106.743 82.2822 112.838 78.7089C114.38 77.798 115.851 77.3776 117.112 77.2375C118.444 77.0974 119.635 77.3776 120.616 77.9382C120.616 77.9382 123.068 79.3395 127.132 81.7217C126.151 81.1612 124.96 80.8809 123.629 81.021C122.297 81.1612 120.826 81.6516 119.355 82.4924C113.259 85.9957 108.284 94.6138 108.284 101.69C108.284 105.194 109.475 107.646 111.507 108.837Z" fill="url(#paint3_linear_1_19911)"/>
        <path d="M154.177 133.5C154.597 133.781 155.088 133.921 155.578 134.061C161.744 136.513 178.209 141.348 190.961 140.227C193.133 140.016 194.465 137.774 193.554 135.742C188.229 123.971 176.178 111.5 170.993 107.366C170.642 107.015 170.222 106.665 169.802 106.385C167.77 105.194 165.037 105.404 161.954 107.156C155.858 110.659 150.884 119.277 150.884 126.354C150.954 129.857 152.145 132.309 154.177 133.5Z" fill="url(#paint4_linear_1_19911)"/>
        <path d="M97.4942 98.1172L57.4166 99.1682L27.4985 81.8619L39.3396 75.0656L74.5827 84.8748L97.4942 98.1172Z" fill="url(#paint5_linear_1_19911)" stroke="#231F20" stroke-width="0.11708" stroke-miterlimit="10"/>
        <path d="M97.3541 94.8241L57.2765 95.8751L27.3584 78.5688L39.1995 71.7725L74.4426 81.5817L97.3541 94.8241Z" fill="#F1F2F2" stroke="#231F20" stroke-width="0.149871" stroke-miterlimit="10"/>
        <path d="M27.3584 78.5687L27.4985 81.8618L57.4166 99.1681L57.2765 95.875L27.3584 78.5687Z" fill="#BCBEC0" stroke="#231F20" stroke-width="0.11708" stroke-miterlimit="10"/>
        <path d="M97.4946 98.1172L97.3545 94.8241L57.2769 95.8751L57.417 99.1682L97.4946 98.1172Z" fill="#D1D3D4" stroke="#231F20" stroke-width="0.11708" stroke-miterlimit="10"/>
        <path d="M110.526 75.626L91.3981 40.3829L61.48 23.0767V36.7395L87.5444 62.3836L110.526 75.626Z" fill="url(#paint6_linear_1_19911)" stroke="#231F20" stroke-width="0.11708" stroke-miterlimit="10"/>
        <path d="M107.583 77.1674L88.4552 41.9243L58.5371 24.618V38.2809L84.6716 63.9249L107.583 77.1674Z" fill="#F1F2F2" stroke="#231F20" stroke-width="0.149871" stroke-miterlimit="10"/>
        <path opacity="0.2" d="M107.583 77.1674L88.4552 41.9243L58.5371 24.618V38.2809L84.6716 63.9249L107.583 77.1674Z" fill="black" stroke="#231F20" stroke-width="0.185955" stroke-miterlimit="10"/>
        <path d="M58.5371 24.6181L61.4799 23.0767L91.3979 40.3829L88.4552 41.9243L58.5371 24.6181Z" fill="#F1F2F2" stroke="#231F20" stroke-width="0.149871" stroke-miterlimit="10"/>
        <path d="M110.526 75.6259L107.584 77.1673L88.4556 41.9243L91.3983 40.3828L110.526 75.6259Z" fill="#F1F2F2" stroke="#231F20" stroke-width="0.149871" stroke-miterlimit="10"/>
        <path opacity="0.2" d="M107.583 77.1674H96.5128L86.6336 71.4221L60.7793 56.498C62.1806 54.8865 63.7221 53.4852 65.4036 52.5744C67.8559 51.1731 70.1681 50.8928 71.8497 51.5934V51.5234L72.0599 51.6635L84.6717 63.925L107.583 77.1674Z" fill="black" stroke="#231F20" stroke-width="0.185955" stroke-miterlimit="10"/>
    </g>
    <defs>
        <linearGradient id="paint0_linear_1_19911" x1="66.1855" y1="80.85" x2="78.5825" y2="53.4229" gradientUnits="userSpaceOnUse">
            <stop stop-color="#BE1E2D"/>
            <stop offset="0.3636" stop-color="#AA1E23"/>
            <stop offset="0.6989" stop-color="#F5828A"/>
            <stop offset="1" stop-color="#BE1E2D"/>
        </linearGradient>
        <linearGradient id="paint1_linear_1_19911" x1="127.182" y1="81.7221" x2="111.51" y2="108.825" gradientUnits="userSpaceOnUse">
            <stop stop-color="#E6E7E8"/>
            <stop offset="0.3262" stop-color="#F1F2F2"/>
            <stop offset="0.6364" stop-color="#D1D3D4"/>
            <stop offset="1" stop-color="#D1D3D4"/>
        </linearGradient>
        <linearGradient id="paint2_linear_1_19911" x1="129.855" y1="83.269" x2="114.184" y2="110.37" gradientUnits="userSpaceOnUse">
            <stop stop-color="#BE1E2D"/>
            <stop offset="0.3011" stop-color="#F5828A"/>
            <stop offset="0.6364" stop-color="#AA1E23"/>
            <stop offset="1" stop-color="#BE1E2D"/>
        </linearGradient>
        <linearGradient id="paint3_linear_1_19911" x1="120.001" y1="77.5703" x2="104.33" y2="104.671" gradientUnits="userSpaceOnUse">
            <stop stop-color="#BE1E2D"/>
            <stop offset="0.3011" stop-color="#F5828A"/>
            <stop offset="0.6364" stop-color="#AA1E23"/>
            <stop offset="1" stop-color="#BE1E2D"/>
        </linearGradient>
        <linearGradient id="paint4_linear_1_19911" x1="181.771" y1="113.29" x2="166.099" y2="140.392" gradientUnits="userSpaceOnUse">
            <stop stop-color="#BE1E2D"/>
            <stop offset="0.3011" stop-color="#F5828A"/>
            <stop offset="0.6364" stop-color="#AA1E23"/>
            <stop offset="1" stop-color="#BE1E2D"/>
        </linearGradient>
        <linearGradient id="paint5_linear_1_19911" x1="52.0269" y1="96.0349" x2="62.5203" y2="77.8874" gradientUnits="userSpaceOnUse">
            <stop stop-color="#D1D3D4"/>
            <stop offset="0.3636" stop-color="#A7A9AC"/>
            <stop offset="0.6738" stop-color="#F1F2F2"/>
            <stop offset="1" stop-color="#E6E7E8"/>
        </linearGradient>
        <linearGradient id="paint6_linear_1_19911" x1="86.0024" y1="37.2798" x2="75.5079" y2="55.4292" gradientUnits="userSpaceOnUse">
            <stop stop-color="#D1D3D4"/>
            <stop offset="0.3636" stop-color="#A7A9AC"/>
            <stop offset="0.6738" stop-color="#F1F2F2"/>
            <stop offset="1" stop-color="#E6E7E8"/>
        </linearGradient>
        <clipPath id="">
            <rect width="166.686" height="125.137" fill="white" transform="translate(27.2168 23.0066)"/>
        </clipPath>
    </defs>

</svg>
