<svg width="230" height="230" viewBox="0 0 230 230" fill="none"
    xmlns="http://www.w3.org/2000/svg">

    <g clip-path="url(#)">
        <path d="M176.528 153.329L176.037 153.609C175.967 153.609 175.967 153.609 175.897 153.609C176.177 153.539 176.387 153.399 176.528 153.329Z" fill="#F1F2F2" stroke="#231F20" stroke-width="0.201439" stroke-miterlimit="10" stroke-linecap="round" stroke-linejoin="round"/>
        <path d="M180.592 155.571C180.452 155.711 180.241 155.781 180.101 155.921L180.031 155.991L180.592 155.571Z" fill="#F1F2F2" stroke="#231F20" stroke-width="0.201439" stroke-miterlimit="10" stroke-linecap="round" stroke-linejoin="round"/>
        <path d="M176.528 153.329L176.037 153.609C175.967 153.609 175.967 153.609 175.897 153.609C176.177 153.539 176.387 153.399 176.528 153.329Z" fill="#F1F2F2" stroke="#231F20" stroke-width="0.201439" stroke-miterlimit="10" stroke-linecap="round" stroke-linejoin="round"/>
        <path d="M176.528 153.329L176.037 153.609C175.967 153.609 175.967 153.609 175.897 153.609C176.177 153.539 176.387 153.399 176.528 153.329Z" fill="#F1F2F2" stroke="#231F20" stroke-width="0.201439" stroke-miterlimit="10" stroke-linecap="round" stroke-linejoin="round"/>
        <path d="M180.592 155.571C180.452 155.711 180.241 155.781 180.101 155.921L180.031 155.991L180.592 155.571Z" fill="#F1F2F2" stroke="#231F20" stroke-width="0.201439" stroke-miterlimit="10" stroke-linecap="round" stroke-linejoin="round"/>
        <path d="M183.884 153.469C183.184 155.15 182.203 156.342 180.871 157.112L180.731 157.182C178.349 158.584 175.056 158.373 171.413 156.342L172.323 155.781C175.336 157.112 177.999 157.112 180.031 155.991L180.101 155.921C180.311 155.781 180.451 155.711 180.591 155.571L183.884 153.469Z" fill="#414042" stroke="#231F20" stroke-width="0.201439" stroke-miterlimit="10" stroke-linecap="round" stroke-linejoin="round"/>
        <path d="M176.528 153.329L176.037 153.609C175.967 153.609 175.967 153.609 175.897 153.609C176.177 153.539 176.387 153.399 176.528 153.329Z" fill="#F1F2F2" stroke="#231F20" stroke-width="0.201439" stroke-miterlimit="10" stroke-linecap="round" stroke-linejoin="round"/>
        <path d="M180.592 155.571C180.452 155.711 180.241 155.781 180.101 155.921L180.031 155.991L180.592 155.571Z" fill="#F1F2F2" stroke="#231F20" stroke-width="0.201439" stroke-miterlimit="10" stroke-linecap="round" stroke-linejoin="round"/>
        <path d="M176.528 153.329L176.037 153.609C175.967 153.609 175.967 153.609 175.897 153.609C176.177 153.539 176.387 153.399 176.528 153.329Z" fill="#F1F2F2" stroke="#231F20" stroke-width="0.201439" stroke-miterlimit="10" stroke-linecap="round" stroke-linejoin="round"/>
        <path d="M155.438 121.729L154.597 121.239C154.667 121.169 154.737 121.028 154.807 120.958L155.438 121.729Z" fill="#F1F2F2" stroke="#231F20" stroke-width="0.201439" stroke-miterlimit="10" stroke-linecap="round" stroke-linejoin="round"/>
        <path d="M137.781 93.5626L136.87 93.983C137.15 93.7728 137.431 93.6327 137.781 93.5626Z" fill="#F1F2F2" stroke="#231F20" stroke-width="0.201439" stroke-miterlimit="10" stroke-linecap="round" stroke-linejoin="round"/>
        <path d="M120.405 93.3524H120.334C120.334 93.2823 120.405 93.2823 120.405 93.2123C120.405 93.2823 120.405 93.3524 120.405 93.3524Z" fill="#F1F2F2" stroke="#231F20" stroke-width="0.201439" stroke-miterlimit="10" stroke-linecap="round" stroke-linejoin="round"/>
        <path d="M172.043 150.316C172.043 151.157 171.973 151.928 171.833 152.628C171.763 153.049 171.693 153.399 171.553 153.819C171.413 154.31 171.273 154.73 171.062 155.151C170.922 155.431 170.782 155.641 170.642 155.851C170.432 156.202 170.222 156.552 169.941 156.832C169.521 157.253 169.101 157.673 168.61 157.953L168.47 158.023C166.298 159.214 163.355 159.074 160.062 157.182C159.642 156.972 159.221 156.692 158.871 156.412L116.341 131.889C116.061 131.749 115.851 131.608 115.57 131.468C108.984 127.685 103.659 118.436 103.659 110.869C103.659 109.328 103.869 107.996 104.29 106.875C104.85 105.194 105.831 104.003 107.022 103.232C107.092 103.232 107.092 103.162 107.162 103.162C107.723 102.882 108.284 102.671 108.914 102.531C109.054 102.531 109.264 102.461 109.405 102.461C109.545 102.461 109.755 102.391 109.965 102.391L111.857 102.251L112.277 102.181L118.373 101.69L118.793 101.62L122.157 101.34L123.768 101.2L126.711 100.99L131.685 100.569C131.966 100.499 132.246 100.499 132.526 100.499C132.666 100.499 132.807 100.499 133.017 100.499C133.858 100.499 134.768 100.709 135.749 101.06C136.52 101.34 137.291 101.69 138.061 102.111C139.183 102.741 140.304 103.582 141.284 104.493C142.125 105.264 142.966 106.175 143.737 107.085L143.807 107.156C144.017 107.436 144.227 107.646 144.437 107.926L154.737 120.888C154.667 120.958 154.597 121.099 154.527 121.169L155.368 121.659L156.909 123.621L157.189 123.971L159.432 126.844L161.604 129.577L164.827 133.64C165.387 134.201 165.878 134.831 166.368 135.462C166.718 135.882 167.069 136.373 167.349 136.863C169.871 140.647 171.623 145.061 171.903 149.195C171.973 149.615 172.043 149.966 172.043 150.316Z" fill="#F1F2F2" stroke="#231F20" stroke-width="0.201439" stroke-miterlimit="10" stroke-linecap="round" stroke-linejoin="round"/>
        <path opacity="0.14" d="M172.043 150.316C172.043 151.157 171.973 151.928 171.833 152.628C171.763 153.049 171.693 153.399 171.553 153.819C171.413 154.31 171.273 154.73 171.062 155.151C170.922 155.431 170.782 155.641 170.642 155.851C170.432 156.202 170.222 156.552 169.941 156.832C169.521 157.253 169.101 157.673 168.61 157.953L168.47 158.023C166.298 159.214 163.355 159.074 160.062 157.182C159.642 156.972 159.221 156.692 158.871 156.412L116.341 131.889C116.061 131.749 115.851 131.608 115.57 131.468C108.984 127.685 103.659 118.436 103.659 110.869C103.659 109.328 103.869 107.996 104.29 106.875C104.85 105.194 105.831 104.003 107.022 103.232C107.092 103.232 107.092 103.162 107.162 103.162C107.723 102.882 108.284 102.671 108.914 102.531C109.054 102.531 109.264 102.461 109.405 102.461C109.545 102.461 109.755 102.391 109.965 102.391L111.857 102.251L112.277 102.181L118.373 101.69L118.793 101.62L122.157 101.34L123.768 101.2L126.711 100.99L131.685 100.569C131.966 100.499 132.246 100.499 132.526 100.499C132.666 100.499 132.807 100.499 133.017 100.499C133.858 100.499 134.768 100.709 135.749 101.06C136.52 101.34 137.291 101.69 138.061 102.111C139.183 102.741 140.304 103.582 141.284 104.493C142.125 105.264 142.966 106.175 143.737 107.085L143.807 107.156C144.017 107.436 144.227 107.646 144.437 107.926L154.737 120.888C154.667 120.958 154.597 121.099 154.527 121.169L155.368 121.659L156.909 123.621L157.189 123.971L159.432 126.844L161.604 129.577L164.827 133.64C165.387 134.201 165.878 134.831 166.368 135.462C166.718 135.882 167.069 136.373 167.349 136.863C169.871 140.647 171.623 145.061 171.903 149.195C171.973 149.615 172.043 149.966 172.043 150.316Z" fill="black" stroke="#231F20" stroke-width="0.0802954" stroke-miterlimit="10"/>
        <path d="M155.438 121.729L154.597 121.239C154.667 121.169 154.737 121.028 154.807 120.958L155.438 121.729Z" fill="#F1F2F2" stroke="#231F20" stroke-width="0.201439" stroke-miterlimit="10" stroke-linecap="round" stroke-linejoin="round"/>
        <path d="M188.088 150.456C188.088 155.08 186.477 158.374 183.884 159.915L183.744 159.985C181.082 161.526 177.438 161.246 173.375 158.934C172.884 158.654 172.394 158.303 171.903 158.023L170.222 157.042L171.413 156.342C175.056 158.374 178.349 158.584 180.732 157.182L180.872 157.112C182.203 156.342 183.184 155.08 183.884 153.469C184.445 152.068 184.795 150.386 184.795 148.424C184.795 147.653 184.725 146.813 184.655 145.972C184.305 142.959 183.254 139.876 181.782 136.863C181.152 135.602 180.381 134.341 179.61 133.15C178.7 131.819 177.719 130.627 176.738 129.506L172.043 123.551L169.661 120.538L169.311 120.118L167.279 117.595L161.183 109.888L159.221 107.436L153.546 100.219C153.336 99.9387 153.126 99.6584 152.845 99.3782L152.775 99.3081C151.794 98.117 150.743 97.066 149.692 96.0851C148.571 95.1041 147.45 94.2634 146.259 93.6328C144.508 92.6518 142.896 92.0913 141.425 91.8811C141.284 91.8811 141.144 91.8111 140.934 91.8111C140.514 91.8111 140.163 91.741 139.813 91.8111C139.533 91.8111 139.253 91.8811 139.042 91.8811L131.756 92.5117L130.845 92.5818L120.335 93.4226C120.335 93.3525 120.335 93.3525 120.335 93.2824C120.335 93.3525 120.265 93.3525 120.265 93.4226L117.953 93.6328L114.169 93.913C113.959 93.913 113.749 93.913 113.538 93.9831C112.628 94.1232 111.787 94.4035 111.016 94.8239C108.634 96.2252 107.092 99.0979 107.022 103.302C105.761 104.073 104.85 105.264 104.29 106.945C103.869 105.194 103.659 103.442 103.659 101.76C103.659 97.066 105.341 93.7729 108.003 92.2314H108.073C108.494 92.0212 108.914 91.8111 109.335 91.6709C109.825 91.5308 110.245 91.3907 110.806 91.3206C111.016 91.3206 111.226 91.2505 111.436 91.2505L120.405 90.4798L132.596 89.4989L137.921 89.0785L138.482 89.0084C138.902 88.9384 139.323 88.9384 139.743 88.9384C141.355 88.9384 143.106 89.3587 144.998 90.1995C145.418 90.4097 145.909 90.6199 146.329 90.9002C148.922 92.3716 151.304 94.5436 153.406 97.066L153.476 97.136C153.756 97.4163 153.966 97.7666 154.247 98.0469L160.833 106.385L168.89 116.614L168.82 116.684L169.311 117.105L170.852 119.067L173.655 122.57L173.935 122.92L179.4 129.787C180.521 130.978 181.572 132.379 182.553 133.78C183.674 135.392 184.585 137.144 185.426 138.895C186.757 141.838 187.668 144.921 188.018 147.864C188.018 148.775 188.088 149.615 188.088 150.456Z" fill="#231F20" stroke="#231F20" stroke-width="0.201439" stroke-miterlimit="10" stroke-linecap="round" stroke-linejoin="round"/>
        <path d="M169.241 117.035L168.68 116.614L168.82 116.544L169.241 117.035Z" fill="#F1F2F2" stroke="#231F20" stroke-width="0.201439" stroke-miterlimit="10" stroke-linecap="round" stroke-linejoin="round"/>
        <path d="M137.781 93.5626L136.87 93.983C137.15 93.7728 137.431 93.6327 137.781 93.5626Z" fill="#F1F2F2" stroke="#231F20" stroke-width="0.201439" stroke-miterlimit="10" stroke-linecap="round" stroke-linejoin="round"/>
        <path d="M141.425 91.811L141.144 91.9512L140.934 91.811C141.144 91.811 141.284 91.811 141.425 91.811Z" fill="#F1F2F2" stroke="#231F20" stroke-width="0.201439" stroke-miterlimit="10" stroke-linecap="round" stroke-linejoin="round"/>
        <path d="M169.521 120.468L168.96 120.118L169.171 120.048L169.521 120.468Z" fill="#F1F2F2" stroke="#231F20" stroke-width="0.201439" stroke-miterlimit="10" stroke-linecap="round" stroke-linejoin="round"/>
        <path d="M155.438 121.729L154.597 121.239C154.667 121.169 154.737 121.028 154.807 120.958L155.438 121.729Z" fill="#F1F2F2" stroke="#231F20" stroke-width="0.201439" stroke-miterlimit="10" stroke-linecap="round" stroke-linejoin="round"/>
        <path d="M122.437 97.2761L121.036 97.4163L118.583 97.6264L118.023 97.6965C117.813 97.6965 117.673 97.6965 117.462 97.7666C116.622 97.8366 115.921 98.1169 115.22 98.4672L108.984 102.181C109.405 99.1679 110.736 97.0659 112.628 96.0149C113.048 95.8047 113.399 95.5945 113.889 95.4544C115.43 94.9639 117.182 95.034 119.074 95.7347C119.634 95.9449 120.195 96.1551 120.755 96.4353C121.036 96.5755 121.386 96.7156 121.666 96.9258C121.947 96.9258 122.157 97.136 122.437 97.2761Z" fill="#928874" stroke="#231F20" stroke-width="0.201439" stroke-miterlimit="10"/>
        <path d="M134.978 95.5946C134.768 95.8048 134.628 96.0851 134.488 96.2953L131.755 96.5055L122.437 97.2762C122.156 97.1361 121.946 96.9959 121.666 96.8558C121.386 96.6456 121.035 96.5055 120.755 96.3653C120.195 96.0851 119.634 95.8048 119.074 95.6647C117.112 95.0341 115.36 94.964 113.889 95.3844L118.023 93.6328L120.335 93.4226H120.405L130.915 92.5818C131.055 92.6519 131.125 92.7219 131.265 92.792C131.405 92.8621 131.615 93.0022 131.755 93.0722C132.806 93.7028 133.927 94.6137 134.978 95.5946Z" fill="url(#paint0_linear_1_19911)" stroke="#231F20" stroke-width="0.201439" stroke-miterlimit="10" stroke-linecap="round" stroke-linejoin="round"/>
        <path d="M117.952 93.5626L113.818 95.3143C113.398 95.4544 112.978 95.5945 112.557 95.8748C110.665 96.9958 109.334 99.0978 108.914 102.041L107.162 103.092C107.092 103.092 107.092 103.162 107.022 103.162C107.092 99.0278 108.563 96.085 111.016 94.6837C111.786 94.2633 112.627 93.983 113.538 93.8429C113.748 93.8429 113.958 93.7728 114.169 93.7728L117.952 93.5626Z" fill="#414042" stroke="#231F20" stroke-width="0.201439" stroke-miterlimit="10" stroke-linecap="round" stroke-linejoin="round"/>
        <path d="M137.781 93.5626L136.87 93.983C137.15 93.7728 137.431 93.6327 137.781 93.5626Z" fill="#F1F2F2" stroke="#231F20" stroke-width="0.201439" stroke-miterlimit="10" stroke-linecap="round" stroke-linejoin="round"/>
        <path d="M184.725 148.424C184.725 150.386 184.445 152.068 183.814 153.469L180.591 155.571C182.553 154.1 183.744 151.367 183.744 147.654C183.744 146.883 183.674 146.182 183.604 145.411C183.254 142.399 182.203 139.246 180.661 136.303C178.279 131.749 174.776 127.685 170.852 125.443C170.432 125.232 170.011 124.952 169.591 124.812L166.928 121.379L168.96 120.118L169.521 120.398L171.903 123.411L176.597 129.366C177.648 130.487 178.629 131.749 179.47 133.01C180.311 134.201 181.011 135.462 181.642 136.723C183.113 139.666 184.094 142.819 184.515 145.832C184.655 146.813 184.725 147.654 184.725 148.424Z" fill="url(#paint1_linear_1_19911)" stroke="#231F20" stroke-width="0.201439" stroke-miterlimit="10" stroke-linecap="round" stroke-linejoin="round"/>
        <path d="M183.744 147.653C183.744 151.367 182.553 154.099 180.591 155.571L179.961 155.991C177.929 157.112 175.266 157.112 172.253 155.781L176.037 153.539L176.527 153.259L176.597 153.189C178.699 151.927 180.031 149.265 180.031 145.551C180.031 144.781 179.961 144.01 179.89 143.239C179.47 140.156 178.279 136.863 176.597 133.921C176.247 133.36 175.967 132.8 175.616 132.309C175.616 132.239 175.546 132.239 175.546 132.169C174.776 131.048 173.935 129.927 173.024 128.946L169.731 124.812C170.151 125.022 170.572 125.232 170.992 125.443C174.916 127.685 178.419 131.749 180.801 136.303C182.343 139.246 183.394 142.399 183.744 145.411C183.744 146.182 183.744 146.953 183.744 147.653Z" fill="#928874" stroke="#231F20" stroke-width="0.201439" stroke-miterlimit="10"/>
        <path d="M141.425 91.811L141.144 91.9512L140.934 91.811C141.144 91.811 141.284 91.811 141.425 91.811Z" fill="#F1F2F2" stroke="#231F20" stroke-width="0.201439" stroke-miterlimit="10" stroke-linecap="round" stroke-linejoin="round"/>
        <path d="M169.521 120.468L168.96 120.118L169.171 120.048L169.521 120.468Z" fill="#F1F2F2" stroke="#231F20" stroke-width="0.201439" stroke-miterlimit="10" stroke-linecap="round" stroke-linejoin="round"/>
        <path d="M155.438 121.729L154.597 121.239C154.667 121.169 154.737 121.028 154.807 120.958L155.438 121.729Z" fill="#F1F2F2" stroke="#231F20" stroke-width="0.201439" stroke-miterlimit="10" stroke-linecap="round" stroke-linejoin="round"/>
        <path d="M155.438 121.729L154.597 121.239C154.667 121.169 154.737 121.028 154.807 120.958L155.438 121.729Z" fill="#F1F2F2" stroke="#231F20" stroke-width="0.201439" stroke-miterlimit="10" stroke-linecap="round" stroke-linejoin="round"/>
        <path d="M180.031 145.622C180.031 149.405 178.699 151.998 176.598 153.259L176.527 153.329C176.317 153.469 176.107 153.539 175.897 153.609C175.967 153.609 175.967 153.609 176.037 153.609L172.253 155.851L171.343 156.412L170.151 157.112L168.54 158.093C169.03 157.813 169.451 157.393 169.871 156.972C170.151 156.692 170.362 156.342 170.572 155.991C170.712 155.781 170.852 155.501 170.992 155.291C171.202 154.87 171.343 154.45 171.483 153.959C171.623 153.609 171.693 153.189 171.763 152.768C171.903 152.068 171.973 151.297 171.973 150.456C171.973 150.106 171.973 149.685 171.903 149.335C171.623 145.271 169.941 140.787 167.349 137.003C166.999 136.513 166.718 136.093 166.368 135.602C165.877 134.972 165.387 134.341 164.826 133.78L161.603 129.717L159.431 126.984L157.189 124.111L156.909 123.761L155.438 121.729L154.807 120.958L144.577 107.926C144.367 107.646 144.157 107.436 143.947 107.155L143.877 107.085C143.106 106.175 142.265 105.264 141.425 104.493C140.374 103.582 139.323 102.741 138.201 102.111C137.431 101.62 136.59 101.27 135.889 101.06C134.908 100.709 133.998 100.569 133.157 100.499C133.017 100.499 132.806 100.499 132.666 100.499C132.386 100.499 132.106 100.499 131.826 100.569L126.851 100.99L123.908 101.2L122.297 101.34L118.933 101.62L118.513 101.69L112.347 102.181L111.927 102.251L110.035 102.391C109.825 102.391 109.685 102.391 109.475 102.461C109.334 102.461 109.124 102.531 108.984 102.531C108.353 102.671 107.793 102.881 107.232 103.162L108.984 102.111L115.22 98.3972C115.921 98.0469 116.621 97.7666 117.462 97.6966C117.602 97.6966 117.812 97.6265 118.023 97.6265L118.583 97.5564L121.035 97.3462L122.437 97.2061L131.755 96.4354L134.488 96.2252L135.609 96.1551L139.813 95.8048C140.093 95.7347 140.374 95.7347 140.654 95.7347C142.335 95.6647 144.157 96.2252 146.189 97.3462C148.291 98.5374 150.183 100.289 151.934 102.321L152.004 102.391C152.215 102.671 152.425 102.881 152.635 103.162L157.119 108.837L163.565 116.965L165.107 118.927L166.999 121.309L169.661 124.742L172.954 128.876C173.865 129.857 174.706 130.978 175.476 132.099C175.476 132.169 175.547 132.169 175.547 132.239C175.897 132.8 176.247 133.29 176.527 133.851C178.209 136.793 179.4 140.086 179.821 143.169C180.031 144.08 180.031 144.851 180.031 145.622Z" fill="#F1F2F2" stroke="#231F20" stroke-width="0.201439" stroke-miterlimit="10" stroke-linecap="round" stroke-linejoin="round"/>
        <path d="M155.438 121.729L154.597 121.239C154.667 121.169 154.737 121.028 154.807 120.958L155.438 121.729Z" fill="#F1F2F2" stroke="#231F20" stroke-width="0.201439" stroke-miterlimit="10" stroke-linecap="round" stroke-linejoin="round"/>
        <path d="M169.241 117.035L168.68 116.614L168.82 116.544L169.241 117.035Z" fill="#F1F2F2" stroke="#231F20" stroke-width="0.201439" stroke-miterlimit="10" stroke-linecap="round" stroke-linejoin="round"/>
        <path d="M137.781 93.5626L136.87 93.983C137.15 93.7728 137.431 93.6327 137.781 93.5626Z" fill="#F1F2F2" stroke="#231F20" stroke-width="0.201439" stroke-miterlimit="10" stroke-linecap="round" stroke-linejoin="round"/>
        <path d="M141.425 91.811L141.144 91.9512L140.934 91.811C141.144 91.811 141.284 91.811 141.425 91.811Z" fill="#F1F2F2" stroke="#231F20" stroke-width="0.201439" stroke-miterlimit="10" stroke-linecap="round" stroke-linejoin="round"/>
        <path d="M169.521 120.468L168.96 120.118L169.171 120.048L169.521 120.468Z" fill="#F1F2F2" stroke="#231F20" stroke-width="0.201439" stroke-miterlimit="10" stroke-linecap="round" stroke-linejoin="round"/>
        <path d="M141.425 91.811L141.144 91.9512L140.934 91.811C141.144 91.811 141.284 91.811 141.425 91.811Z" fill="#F1F2F2" stroke="#231F20" stroke-width="0.201439" stroke-miterlimit="10" stroke-linecap="round" stroke-linejoin="round"/>
        <path d="M169.521 120.468L168.96 120.118L169.171 120.048L169.521 120.468Z" fill="#F1F2F2" stroke="#231F20" stroke-width="0.201439" stroke-miterlimit="10" stroke-linecap="round" stroke-linejoin="round"/>
        <path d="M169.241 117.035L168.68 116.614L168.82 116.544L169.241 117.035Z" fill="#F1F2F2" stroke="#231F20" stroke-width="0.201439" stroke-miterlimit="10" stroke-linecap="round" stroke-linejoin="round"/>
        <path d="M207.987 129.016C207.987 132.799 206.656 135.392 204.554 136.653L204.484 136.723L204.344 136.583C203.573 132.309 201.682 127.965 199.089 124.111C198.108 122.71 197.057 121.379 195.936 120.118L170.853 88.3077C170.642 87.9574 170.362 87.6771 170.082 87.3969L170.012 87.3268C167.91 84.8044 165.528 82.6324 162.935 81.161C161.954 80.6005 161.043 80.1801 160.203 79.8298L167.77 79.1992C169.591 78.9189 171.834 79.4094 174.146 80.7406C176.248 81.9318 178.139 83.6834 179.891 85.7153L179.961 85.7854C180.171 86.0656 180.382 86.2758 180.592 86.5561L200.911 112.27C201.822 113.251 202.662 114.372 203.433 115.493C206.236 119.697 207.987 124.602 207.987 129.016Z" fill="#F1F2F2" stroke="#231F20" stroke-width="0.201439" stroke-miterlimit="10" stroke-linecap="round" stroke-linejoin="round"/>
        <path d="M204.484 136.723L204.414 136.793C204.414 136.723 204.414 136.653 204.414 136.583L204.484 136.723Z" fill="#F1F2F2" stroke="#231F20" stroke-width="0.201439" stroke-miterlimit="10" stroke-linecap="round" stroke-linejoin="round"/>
        <path d="M169.241 117.035L168.68 116.614L168.82 116.544L169.241 117.035Z" fill="#F1F2F2" stroke="#231F20" stroke-width="0.201439" stroke-miterlimit="10" stroke-linecap="round" stroke-linejoin="round"/>
        <path d="M141.144 91.9512L139.953 92.5117L137.781 93.5627C137.431 93.7028 137.15 93.8429 136.87 93.9831C136.169 94.4035 135.539 94.8939 135.048 95.5946C133.997 94.6137 132.876 93.7729 131.755 93.0021C131.615 92.9321 131.405 92.792 131.265 92.7219C131.125 92.6518 131.055 92.5818 130.915 92.5117L131.825 92.4416L139.112 91.811C139.393 91.741 139.603 91.741 139.883 91.741C140.233 91.741 140.654 91.741 141.004 91.741L141.144 91.9512Z" fill="#414042" stroke="#231F20" stroke-width="0.201439" stroke-miterlimit="10" stroke-linecap="round" stroke-linejoin="round"/>
        <path d="M157.049 108.837L152.565 103.162C152.355 102.881 152.145 102.671 151.935 102.391V102.391C150.253 100.359 148.291 98.6075 146.189 97.4163C144.227 96.2953 142.336 95.7348 140.654 95.8048C140.374 95.8048 140.094 95.8048 139.813 95.8749L135.609 96.2252L134.488 96.2953C134.628 96.015 134.769 95.8048 134.979 95.5946C135.469 94.964 136.1 94.4035 136.8 93.9831L137.711 93.5627C138.412 93.2825 139.183 93.1423 140.023 93.1423C140.934 93.1423 141.915 93.2825 142.966 93.5627C143.877 93.843 144.858 94.2634 145.909 94.894C149.342 96.9259 152.495 100.289 154.807 104.213C155.718 105.684 156.419 107.226 157.049 108.837Z" fill="#928874" stroke="#231F20" stroke-width="0.201439" stroke-miterlimit="10"/>
        <path d="M137.781 93.5626L136.87 93.983C137.15 93.7728 137.431 93.6327 137.781 93.5626Z" fill="#F1F2F2" stroke="#231F20" stroke-width="0.201439" stroke-miterlimit="10" stroke-linecap="round" stroke-linejoin="round"/>
        <path d="M141.425 91.811L141.144 91.9512L140.934 91.811C141.144 91.811 141.284 91.811 141.425 91.811Z" fill="#F1F2F2" stroke="#231F20" stroke-width="0.201439" stroke-miterlimit="10" stroke-linecap="round" stroke-linejoin="round"/>
        <path d="M169.171 120.048L168.961 120.118L166.999 121.379L165.107 118.926L165.948 118.366L167.279 117.595L169.171 120.048Z" fill="#414042" stroke="#231F20" stroke-width="0.201439" stroke-miterlimit="10" stroke-linecap="round" stroke-linejoin="round"/>
        <path d="M169.521 120.468L168.96 120.118L169.171 120.048L169.521 120.468Z" fill="#F1F2F2" stroke="#231F20" stroke-width="0.201439" stroke-miterlimit="10" stroke-linecap="round" stroke-linejoin="round"/>
        <path d="M167.279 117.595L165.948 118.366L165.037 118.926L163.496 116.965L157.05 108.837C156.419 107.226 155.648 105.684 154.807 104.213C152.495 100.289 149.342 96.9258 145.909 94.8939C144.928 94.3334 143.947 93.913 142.966 93.5627C141.915 93.2124 140.934 93.0722 140.024 93.1423C139.183 93.1423 138.412 93.2824 137.711 93.5627L139.883 92.5117L141.075 91.9512L141.355 91.811C142.896 92.0212 144.508 92.5818 146.189 93.5627C147.381 94.2633 148.502 95.1041 149.623 96.015C150.744 96.9959 151.725 98.0469 152.705 99.238L152.776 99.3081C152.986 99.5883 153.266 99.8686 153.476 100.149L159.152 107.366L161.113 109.818L167.279 117.595Z" fill="url(#paint2_linear_1_19911)" stroke="#231F20" stroke-width="0.201439" stroke-miterlimit="10" stroke-linecap="round" stroke-linejoin="round"/>
        <path d="M141.425 91.811L141.144 91.9512L140.934 91.811C141.144 91.811 141.284 91.811 141.425 91.811Z" fill="#F1F2F2" stroke="#231F20" stroke-width="0.201439" stroke-miterlimit="10" stroke-linecap="round" stroke-linejoin="round"/>
        <path d="M169.241 117.035L168.68 116.614L168.82 116.544L169.241 117.035Z" fill="#F1F2F2" stroke="#231F20" stroke-width="0.201439" stroke-miterlimit="10" stroke-linecap="round" stroke-linejoin="round"/>
        <path d="M204.484 136.723L204.414 136.793C204.414 136.723 204.414 136.653 204.414 136.583L204.484 136.723Z" fill="#F1F2F2" stroke="#231F20" stroke-width="0.201439" stroke-miterlimit="10" stroke-linecap="round" stroke-linejoin="round"/>
        <path d="M204.764 140.717C204.764 145.341 203.152 148.634 200.56 150.176L200.42 150.246L183.884 159.915C186.477 158.374 188.088 155.08 188.088 150.456C188.088 149.615 188.018 148.774 187.948 147.934C187.598 144.991 186.687 141.908 185.356 138.965C184.515 137.214 183.604 135.462 182.483 133.85C181.502 132.449 180.451 131.118 179.33 129.857L173.865 122.99L173.585 122.64L170.782 119.137L169.241 117.175L168.82 116.684L160.763 106.315L154.177 97.9768C153.966 97.6265 153.686 97.3462 153.406 97.066L153.336 96.9959C151.234 94.4735 148.852 92.3015 146.259 90.8301C145.769 90.5498 145.348 90.3396 144.928 90.1294C143.036 89.2186 141.284 88.7982 139.673 88.8683C139.253 88.8683 138.832 88.9383 138.412 88.9383L137.851 89.0084L132.526 89.4288L120.405 90.4798L111.436 91.2505C111.226 91.2505 111.016 91.2505 110.806 91.3206C110.315 91.3906 109.825 91.4607 109.334 91.6709C108.914 91.811 108.494 92.0212 108.073 92.2314L124.679 82.4222C125.099 82.212 125.52 82.0018 126.01 81.8617C126.501 81.7216 126.921 81.5814 127.481 81.5114C127.692 81.5114 127.902 81.4413 128.112 81.4413L155.157 79.1992C156.699 78.989 158.451 79.1291 160.272 79.8298C161.183 80.1801 162.094 80.6005 163.005 81.161C165.597 82.6324 167.979 84.8044 170.081 87.3268L170.152 87.3969C170.432 87.6771 170.642 88.0275 170.922 88.3077L196.006 120.118C197.127 121.309 198.178 122.71 199.159 124.111C201.751 127.895 203.643 132.309 204.414 136.583C204.414 136.653 204.414 136.723 204.414 136.793C204.624 138.124 204.764 139.456 204.764 140.717Z" fill="#414042" stroke="#231F20" stroke-width="0.201439" stroke-miterlimit="10" stroke-linecap="round" stroke-linejoin="round"/>
    </g>
    <defs>
        <linearGradient id="paint0_linear_1_19911" x1="113.864" y1="94.8909" x2="135.002" y2="94.8909" gradientUnits="userSpaceOnUse">
            <stop stop-color="#58595B"/>
            <stop offset="1"/>
        </linearGradient>
        <linearGradient id="paint1_linear_1_19911" x1="166.975" y1="137.864" x2="184.739" y2="137.864" gradientUnits="userSpaceOnUse">
            <stop stop-color="#58595B"/>
            <stop offset="1"/>
        </linearGradient>
        <linearGradient id="paint2_linear_1_19911" x1="137.753" y1="105.395" x2="167.244" y2="105.395" gradientUnits="userSpaceOnUse">
            <stop stop-color="#58595B"/>
            <stop offset="1"/>
        </linearGradient>
        <clipPath id="">
            <rect width="104.538" height="81.9769" fill="white" transform="translate(103.589 79.0592)"/>
        </clipPath>
    </defs>


    <g clip-path="url(#)">
        <path d="M181.197 137.515L139.812 162.242L133.381 152.43L143.822 146.307L162.207 135.474L176.052 127.311L181.197 137.515Z" fill="#F9FAFA" stroke="#231F20" stroke-width="0.201439" stroke-miterlimit="10" stroke-linecap="round" stroke-linejoin="round"/>
        <path d="M181.197 137.516V151.959L139.812 177.785V162.242L181.197 137.516Z" fill="#F1F2F2" stroke="#231F20" stroke-width="0.201439" stroke-miterlimit="10" stroke-linecap="round" stroke-linejoin="round"/>
        <path d="M176.052 127.311L162.131 135.474L143.822 146.307L133.381 152.43L130.658 150.782L116.207 141.911C116.358 141.911 120.519 139.556 126.421 136.102L101.832 121.345L89.878 114.123L84.6577 117.184L80.0425 119.932L66.5754 111.689L77.1675 105.645L76.9406 105.488L72.7794 102.976L62.9438 96.4607L82.9932 85.157L92.9044 91.7508L93.207 91.9863L96.4603 94.1058L109.398 86.57L119.309 92.6143L122.941 94.8123L113.256 100.464L123.092 106.509L125.135 107.764L149.345 122.758C152.825 120.717 156.23 118.676 159.256 116.949L176.052 127.311Z" fill="#F1F2F2" stroke="#231F20" stroke-width="0.201439" stroke-miterlimit="10" stroke-linecap="round" stroke-linejoin="round"/>
        <path d="M77.1678 105.645L66.5757 111.69L50.6875 117.655L62.9441 110.591L76.9408 105.567L77.1678 105.645Z" fill="#F1F2F2" stroke="#231F20" stroke-width="0.201439" stroke-miterlimit="10" stroke-linecap="round" stroke-linejoin="round"/>
        <path d="M109.398 86.5701L96.4603 94.1059L93.207 91.9865L109.398 86.5701Z" fill="#F1F2F2" stroke="#231F20" stroke-width="0.201439" stroke-miterlimit="10" stroke-linecap="round" stroke-linejoin="round"/>
        <path d="M76.9406 105.567L62.9438 110.591V96.4608L72.7794 103.055L76.9406 105.567Z" fill="#F1F2F2" stroke="#231F20" stroke-width="0.201439" stroke-miterlimit="10" stroke-linecap="round" stroke-linejoin="round"/>
        <path d="M139.812 162.242V177.785L99.7138 181.631L50.6875 137.515V117.655L66.5757 111.689L80.0428 119.932V134.061L80.1184 134.14L116.207 155.727V141.911L130.658 150.782L133.382 152.43L139.812 162.242Z" fill="#F1F2F2" stroke="#231F20" stroke-width="0.201439" stroke-miterlimit="10" stroke-linecap="round" stroke-linejoin="round"/>
        <path opacity="0.14" d="M139.812 162.242V177.785L99.7138 181.631L50.6875 137.515V117.655L66.5757 111.689L80.0428 119.932V134.061L80.1184 134.14L116.207 155.727V141.911L130.658 150.782L133.382 152.43L139.812 162.242Z" fill="black" stroke="#231F20" stroke-width="0.0802954" stroke-miterlimit="10"/>
        <path d="M76.9406 105.567L62.9438 110.591V96.4608L72.7794 103.055L76.9406 105.567Z" fill="#F1F2F2" stroke="#231F20" stroke-width="0.201439" stroke-miterlimit="10" stroke-linecap="round" stroke-linejoin="round"/>
        <path opacity="0.14" d="M76.9406 105.567L62.9438 110.591V96.4608L72.7794 103.055L76.9406 105.567Z" fill="black" stroke="#231F20" stroke-width="0.0802954" stroke-miterlimit="10"/>
        <path d="M116.207 144.502V155.727L80.1182 134.14L89.878 128.41L116.207 144.502Z" fill="#F1F2F2" stroke="#231F20" stroke-width="0.201439" stroke-miterlimit="10" stroke-linecap="round" stroke-linejoin="round"/>
        <path d="M89.878 114.201V128.41L80.1181 134.14L80.0425 134.061V119.932L84.6576 117.184L89.878 114.201Z" fill="#F1F2F2" stroke="#231F20" stroke-width="0.201439" stroke-miterlimit="10" stroke-linecap="round" stroke-linejoin="round"/>
        <path d="M126.346 136.102C120.444 139.556 116.359 141.911 116.132 141.911V144.502L89.8784 128.41V114.201L101.832 121.423L126.346 136.102Z" fill="#F1F2F2" stroke="#231F20" stroke-width="0.201439" stroke-miterlimit="10" stroke-linecap="round" stroke-linejoin="round"/>
        <path d="M123.017 94.8909V106.509L113.181 100.464L122.865 94.8124L123.017 94.8909Z" fill="#F1F2F2" stroke="#231F20" stroke-width="0.201439" stroke-miterlimit="10" stroke-linecap="round" stroke-linejoin="round"/>
        <path d="M123.017 94.7339V94.8909L122.865 94.8124L123.017 94.7339Z" fill="#F1F2F2" stroke="#231F20" stroke-width="0.201439" stroke-miterlimit="10" stroke-linecap="round" stroke-linejoin="round"/>
        <path opacity="0.14" d="M89.878 114.201L85.6411 130.843L116.207 149.997V141.911L126.345 136.102L89.878 114.201Z" fill="black" stroke="#231F20" stroke-width="0.0802954" stroke-miterlimit="10"/>
        <path opacity="0.2" d="M154.793 166.324C154.793 166.324 147.53 169.386 147.53 163.42C147.53 157.532 147.53 157.611 147.53 157.611L151.994 154.942L154.793 166.324Z" fill="black" stroke="#231F20" stroke-width="0.0802954" stroke-miterlimit="10"/>
        <path opacity="0.2" d="M168.714 157.297C168.714 157.297 161.224 160.515 161.224 154.55C161.224 148.584 161.224 149.447 161.224 149.447L166.293 146.386L168.714 157.297Z" fill="black" stroke="#231F20" stroke-width="0.0802954" stroke-miterlimit="10"/>
        <path d="M173.556 136.966C173.481 136.966 173.481 137.045 173.405 137.123C173.329 137.123 173.329 137.202 173.254 137.202C171.211 138.85 169.773 142.225 170 144.894C170.152 146.15 170.606 147.014 171.287 147.406V155.256C171.287 155.806 170.908 156.355 170.227 156.826C168.79 157.69 166.444 157.69 165.007 156.826C164.326 156.434 163.948 155.884 163.948 155.256V144.502C163.948 134.768 169.698 135.396 173.556 136.966Z" fill="url(#paint0_linear_1_19911)" stroke="#231F20" stroke-width="0.190369" stroke-miterlimit="10" stroke-linecap="round" stroke-linejoin="round"/>
        <path opacity="0.2" d="M167.277 156.748C167.655 156.983 168.185 157.14 168.714 157.297C167.428 157.533 165.99 157.376 164.931 156.748C164.25 156.355 163.872 155.806 163.872 155.178V144.502C163.948 136.966 167.428 135.632 170.757 136.181C168.336 136.652 166.293 138.771 166.217 144.502V155.178C166.217 155.806 166.596 156.355 167.277 156.748Z" fill="black" stroke="#231F20" stroke-width="0.201439" stroke-miterlimit="10"/>
        <path d="M180.139 140.184C179.987 138.771 179.382 137.83 178.55 137.516C178.323 137.437 178.02 137.359 177.793 137.359C177.717 137.359 177.717 137.359 177.642 137.359C177.566 137.359 177.566 137.359 177.491 137.359C177.415 137.359 177.339 137.359 177.339 137.359C177.264 137.359 177.264 137.359 177.188 137.359C177.112 137.359 177.112 137.359 177.037 137.437C176.81 137.516 176.583 137.594 176.431 137.751C176.356 137.751 176.356 137.83 176.28 137.83C176.204 137.83 176.204 137.908 176.129 137.908C176.053 137.908 175.977 137.987 175.977 137.987L175.902 138.065C175.75 138.222 175.523 138.379 175.372 138.536C175.221 138.693 174.994 138.85 174.842 139.085C174.767 139.164 174.691 139.321 174.616 139.399C174.464 139.635 174.313 139.87 174.162 140.027C174.01 140.263 173.859 140.498 173.708 140.734C173.632 140.891 173.556 140.969 173.481 141.126C173.405 141.205 173.405 141.362 173.329 141.44C173.178 141.754 173.102 141.99 173.027 142.304C173.027 142.382 172.951 142.461 172.951 142.618L172.875 142.775C172.875 142.853 172.8 143.01 172.8 143.089C172.8 143.246 172.724 143.324 172.724 143.481C172.724 143.56 172.648 143.717 172.648 143.874V143.952C172.648 144.109 172.573 144.188 172.573 144.345C172.573 144.502 172.573 144.58 172.573 144.737C172.573 144.894 172.573 144.973 172.573 145.13V145.208C172.573 145.287 172.573 145.287 172.573 145.365C172.573 145.444 172.573 145.522 172.573 145.601C172.573 145.679 172.573 145.758 172.573 145.915C172.573 145.993 172.573 146.072 172.573 146.229C172.648 146.778 172.8 147.249 173.027 147.642C173.102 147.799 173.178 147.956 173.329 148.034C173.329 148.113 173.405 148.113 173.405 148.191C173.481 148.27 173.632 148.427 173.783 148.505C173.783 148.505 173.859 148.584 173.935 148.584C174.086 148.662 174.162 148.741 174.313 148.741C175.069 148.976 175.977 148.741 176.885 148.034C178.928 146.386 180.441 142.853 180.139 140.184ZM176.658 146.464C175.977 146.935 175.372 147.092 174.842 146.935C174.767 146.935 174.691 146.857 174.54 146.857C174.464 146.857 174.389 146.778 174.313 146.7C174.162 146.543 174.01 146.386 173.935 146.229C173.783 145.993 173.708 145.679 173.632 145.287C173.632 145.208 173.632 145.13 173.632 145.13C173.632 144.973 173.632 144.816 173.632 144.659C173.632 143.246 174.313 141.597 175.296 140.498C175.523 140.263 175.75 140.027 175.977 139.792C175.977 139.792 175.977 139.792 176.053 139.713C176.356 139.478 176.658 139.321 176.961 139.242C177.037 139.242 177.188 139.164 177.264 139.164C177.491 139.164 177.717 139.164 177.869 139.242C178.474 139.478 178.852 140.106 178.928 141.048C179.155 142.932 178.096 145.365 176.658 146.464Z" fill="#F1F2F2" stroke="#231F20" stroke-width="0.201439" stroke-miterlimit="10" stroke-linecap="round" stroke-linejoin="round"/>
        <path d="M176.658 146.464C175.977 146.935 175.372 147.092 174.842 146.935C174.766 146.935 174.691 146.857 174.539 146.857C174.464 146.857 174.388 146.778 174.312 146.7C174.691 146.7 175.145 146.543 175.599 146.15C177.036 145.051 178.095 142.696 177.944 140.812C177.868 140.027 177.641 139.478 177.188 139.164C177.414 139.164 177.641 139.164 177.793 139.242C178.398 139.478 178.776 140.106 178.852 141.048C179.155 142.932 178.095 145.365 176.658 146.464Z" fill="#797979" stroke="#231F20" stroke-width="0.201439" stroke-miterlimit="10" stroke-linecap="round" stroke-linejoin="round"/>
        <path d="M175.675 146.15C175.221 146.464 174.767 146.621 174.388 146.7C174.237 146.543 174.086 146.386 174.01 146.229C173.859 145.993 173.783 145.679 173.708 145.287C173.708 145.208 173.708 145.13 173.708 145.13C173.708 144.973 173.708 144.816 173.708 144.659C173.708 143.246 174.388 141.597 175.372 140.498C175.599 140.263 175.826 140.027 176.053 139.792C176.053 139.792 176.053 139.792 176.129 139.713C176.431 139.478 176.734 139.321 177.036 139.242C177.112 139.242 177.263 139.164 177.339 139.164C177.717 139.478 178.02 140.027 178.096 140.812C178.171 142.618 177.112 145.051 175.675 146.15Z" fill="#939598" stroke="#231F20" stroke-width="0.0802954" stroke-miterlimit="10"/>
        <path d="M178.626 137.516C178.399 137.437 178.096 137.359 177.869 137.359C177.793 137.359 177.793 137.359 177.718 137.359C177.642 137.359 177.642 137.359 177.566 137.359C177.491 137.359 177.415 137.359 177.415 137.359C177.339 137.359 177.339 137.359 177.264 137.359C177.188 137.359 177.188 137.359 177.112 137.437C176.886 137.516 176.659 137.594 176.507 137.751C176.432 137.751 176.432 137.829 176.356 137.829C176.28 137.829 176.28 137.908 176.205 137.908C176.129 137.908 176.053 137.986 176.053 137.986L175.978 138.065C175.826 138.222 175.599 138.379 175.448 138.536C175.297 138.693 175.07 138.85 174.918 139.085C174.843 139.164 174.767 139.321 174.691 139.399C174.54 139.635 174.389 139.87 174.237 140.027C174.086 140.263 173.935 140.498 173.784 140.734C173.708 140.891 173.632 140.969 173.557 141.126C173.481 141.205 173.481 141.362 173.405 141.44C173.254 141.754 173.178 141.99 173.103 142.304C173.103 142.382 173.027 142.461 173.027 142.618L172.951 142.775C172.951 142.853 172.876 143.01 172.876 143.089C172.876 143.246 172.8 143.324 172.8 143.481C172.8 143.56 172.724 143.717 172.724 143.874V143.952C172.724 144.109 172.649 144.188 172.649 144.345C172.649 144.502 172.649 144.58 172.649 144.737C172.649 144.894 172.649 144.973 172.649 145.13V145.208C172.649 145.287 172.649 145.287 172.649 145.365C172.649 145.444 172.649 145.522 172.649 145.601C172.649 145.679 172.649 145.758 172.649 145.915C172.649 145.993 172.649 146.072 172.649 146.229C172.724 146.778 172.876 147.249 173.103 147.642C173.178 147.799 173.254 147.956 173.405 148.034C173.405 148.113 173.481 148.113 173.481 148.191C173.557 148.27 173.708 148.427 173.859 148.505C173.859 148.505 173.935 148.584 174.011 148.584L171.816 147.642C171.741 147.642 171.665 147.563 171.514 147.485C171.514 147.485 171.438 147.485 171.438 147.406C170.757 147.014 170.303 146.15 170.152 144.894C169.925 142.225 171.363 138.85 173.405 137.202C173.481 137.123 173.481 137.123 173.557 137.123C173.632 137.045 173.632 137.045 173.708 136.966C174.54 136.417 175.372 136.181 176.053 136.338L176.583 136.574L178.626 137.516Z" fill="#F1F2F2" stroke="#231F20" stroke-width="0.201439" stroke-miterlimit="10" stroke-linecap="round" stroke-linejoin="round"/>
        <path d="M159.862 145.836C159.786 145.836 159.786 145.915 159.711 145.993C159.635 145.993 159.635 146.072 159.559 146.072C157.517 147.72 156.079 151.096 156.306 153.765C156.457 155.021 156.911 155.884 157.592 156.277V164.126C157.592 164.676 157.214 165.225 156.533 165.696C155.096 166.56 152.75 166.56 151.313 165.696C150.632 165.304 150.253 164.754 150.253 164.126V153.372C150.253 143.638 156.079 144.266 159.862 145.836Z" fill="url(#paint1_linear_1_19911)" stroke="#231F20" stroke-width="0.190369" stroke-miterlimit="10" stroke-linecap="round" stroke-linejoin="round"/>
        <path opacity="0.2" d="M153.582 165.618C153.961 165.854 154.49 166.011 155.02 166.168C153.734 166.403 152.296 166.246 151.237 165.618C150.556 165.226 150.178 164.676 150.178 164.048V153.372C150.253 145.836 153.734 144.502 157.063 145.051C154.642 145.522 152.599 147.642 152.523 153.372V164.048C152.523 164.676 152.901 165.226 153.582 165.618Z" fill="black" stroke="#231F20" stroke-width="0.201439" stroke-miterlimit="10"/>
        <path d="M166.52 149.055C166.369 147.642 165.763 146.7 164.931 146.386C164.704 146.307 164.401 146.229 164.174 146.229C164.099 146.229 164.099 146.229 164.023 146.229C163.948 146.229 163.948 146.229 163.872 146.229C163.796 146.229 163.721 146.229 163.721 146.229C163.645 146.229 163.645 146.229 163.569 146.229C163.494 146.229 163.494 146.229 163.418 146.307C163.191 146.386 162.964 146.464 162.813 146.621C162.737 146.621 162.737 146.7 162.661 146.7C162.586 146.7 162.586 146.778 162.51 146.778C162.434 146.778 162.359 146.857 162.359 146.857L162.283 146.935C162.132 147.092 161.905 147.249 161.753 147.406C161.602 147.563 161.375 147.72 161.224 147.956C161.148 148.034 161.073 148.191 160.997 148.27C160.846 148.505 160.694 148.741 160.543 148.898C160.392 149.133 160.24 149.369 160.089 149.604C160.013 149.761 159.938 149.84 159.862 149.997C159.786 150.075 159.786 150.232 159.711 150.311C159.559 150.625 159.484 150.86 159.408 151.174C159.408 151.253 159.332 151.331 159.332 151.488L159.257 151.645C159.257 151.724 159.181 151.881 159.181 151.959C159.181 152.116 159.105 152.195 159.105 152.352C159.105 152.43 159.03 152.587 159.03 152.744V152.823C159.03 152.98 158.954 153.058 158.954 153.215C158.954 153.372 158.954 153.451 158.954 153.608C158.954 153.765 158.954 153.843 158.954 154V154.079C158.954 154.157 158.954 154.157 158.954 154.236C158.954 154.314 158.954 154.393 158.954 154.471C158.954 154.55 158.954 154.628 158.954 154.785C158.954 154.864 158.954 154.942 158.954 155.099C159.03 155.649 159.181 156.12 159.408 156.512C159.484 156.669 159.559 156.826 159.711 156.905C159.711 156.983 159.786 156.983 159.786 157.062C159.862 157.14 160.013 157.297 160.165 157.376C160.165 157.376 160.24 157.454 160.316 157.454C160.467 157.533 160.543 157.611 160.694 157.611C161.451 157.847 162.359 157.611 163.267 156.905C165.234 155.256 166.747 151.802 166.52 149.055ZM162.964 155.335C162.283 155.806 161.678 155.963 161.148 155.806C161.073 155.806 160.997 155.727 160.846 155.727C160.77 155.727 160.694 155.649 160.619 155.57C160.467 155.413 160.316 155.256 160.24 155.099C160.089 154.864 160.013 154.55 159.938 154.157C159.938 154.079 159.938 154 159.938 154C159.938 153.843 159.938 153.686 159.938 153.529C159.938 152.116 160.619 150.468 161.602 149.369C161.829 149.133 162.056 148.898 162.283 148.662C162.283 148.662 162.283 148.662 162.359 148.584C162.661 148.348 162.964 148.191 163.267 148.113C163.342 148.113 163.494 148.034 163.569 148.034C163.796 148.034 164.023 148.034 164.174 148.113C164.78 148.348 165.158 148.976 165.234 149.918C165.461 151.802 164.401 154.236 162.964 155.335Z" fill="#F1F2F2" stroke="#231F20" stroke-width="0.201439" stroke-miterlimit="10" stroke-linecap="round" stroke-linejoin="round"/>
        <path d="M162.964 155.335C162.283 155.806 161.677 155.963 161.148 155.806C161.072 155.806 160.996 155.727 160.845 155.727C160.769 155.727 160.694 155.649 160.618 155.57C160.996 155.57 161.45 155.413 161.904 155.021C163.342 153.922 164.401 151.567 164.25 149.683C164.174 148.898 163.947 148.348 163.493 148.034C163.72 148.034 163.947 148.034 164.098 148.113C164.704 148.348 165.082 148.976 165.158 149.918C165.46 151.802 164.401 154.236 162.964 155.335Z" fill="#797979" stroke="#231F20" stroke-width="0.201439" stroke-miterlimit="10" stroke-linecap="round" stroke-linejoin="round"/>
        <path d="M161.98 155.021C161.526 155.335 161.072 155.492 160.694 155.57C160.543 155.413 160.391 155.256 160.316 155.099C160.164 154.864 160.089 154.55 160.013 154.157C160.013 154.079 160.013 154 160.013 154C160.013 153.843 160.013 153.686 160.013 153.529C160.013 152.116 160.694 150.468 161.678 149.369C161.905 149.133 162.132 148.898 162.359 148.662C162.359 148.662 162.359 148.662 162.434 148.584C162.737 148.348 163.039 148.191 163.342 148.113C163.418 148.113 163.569 148.034 163.645 148.034C164.023 148.348 164.326 148.898 164.401 149.683C164.477 151.488 163.418 153.922 161.98 155.021Z" fill="#939598" stroke="#231F20" stroke-width="0.0802954" stroke-miterlimit="10"/>
        <path d="M164.931 146.386C164.704 146.307 164.401 146.229 164.174 146.229C164.099 146.229 164.099 146.229 164.023 146.229C163.947 146.229 163.947 146.229 163.872 146.229C163.796 146.229 163.72 146.229 163.72 146.229C163.645 146.229 163.645 146.229 163.569 146.229C163.493 146.229 163.493 146.229 163.418 146.307C163.191 146.386 162.964 146.464 162.812 146.621C162.737 146.621 162.737 146.7 162.661 146.7C162.585 146.7 162.585 146.778 162.51 146.778C162.434 146.778 162.358 146.857 162.358 146.857L162.283 146.935C162.132 147.092 161.905 147.249 161.753 147.406C161.602 147.563 161.375 147.72 161.224 147.956C161.148 148.034 161.072 148.191 160.997 148.27C160.845 148.505 160.694 148.741 160.543 148.898C160.391 149.133 160.24 149.369 160.089 149.604C160.013 149.761 159.937 149.84 159.862 149.997C159.786 150.075 159.786 150.232 159.71 150.311C159.559 150.625 159.483 150.86 159.408 151.174C159.408 151.253 159.332 151.331 159.332 151.488L159.257 151.645C159.257 151.724 159.181 151.881 159.181 151.959C159.181 152.116 159.105 152.195 159.105 152.352C159.105 152.43 159.03 152.587 159.03 152.744V152.823C159.03 152.98 158.954 153.058 158.954 153.215C158.954 153.372 158.954 153.451 158.954 153.608C158.954 153.765 158.954 153.843 158.954 154V154.157C158.954 154.236 158.954 154.236 158.954 154.314C158.954 154.393 158.954 154.471 158.954 154.55C158.954 154.628 158.954 154.707 158.954 154.864C158.954 154.942 158.954 155.021 158.954 155.178C159.03 155.727 159.181 156.198 159.408 156.591C159.483 156.748 159.559 156.905 159.71 156.983C159.71 157.062 159.786 157.062 159.786 157.14C159.862 157.219 160.013 157.376 160.164 157.454C160.164 157.454 160.24 157.533 160.316 157.533L158.122 156.591C158.046 156.591 157.97 156.512 157.819 156.434C157.819 156.434 157.743 156.434 157.743 156.355C157.062 155.963 156.608 155.099 156.457 153.843C156.23 151.174 157.668 147.799 159.71 146.15C159.786 146.072 159.786 146.072 159.862 146.072C159.937 145.993 159.937 145.993 160.013 145.915C160.845 145.365 161.678 145.13 162.358 145.287L162.888 145.522L164.931 146.386Z" fill="#F1F2F2" stroke="#231F20" stroke-width="0.201439" stroke-miterlimit="10" stroke-linecap="round" stroke-linejoin="round"/>
    </g>
    <defs>
        <linearGradient id="paint0_linear_1_19911" x1="163.858" y1="146.721" x2="173.526" y2="146.721" gradientUnits="userSpaceOnUse">
            <stop stop-color="#D1D2D3"/>
            <stop offset="0.3636" stop-color="#D1D2D3"/>
            <stop offset="0.6738" stop-color="#F1F1F1"/>
            <stop offset="1" stop-color="#E5E6E6"/>
        </linearGradient>
        <linearGradient id="paint1_linear_1_19911" x1="150.187" y1="155.598" x2="159.855" y2="155.598" gradientUnits="userSpaceOnUse">
            <stop stop-color="#D1D2D3"/>
            <stop offset="0.3636" stop-color="#D1D2D3"/>
            <stop offset="0.6738" stop-color="#F1F1F1"/>
            <stop offset="1" stop-color="#E5E6E6"/>
        </linearGradient>
        <clipPath id="">
            <rect width="130.661" height="96.6314" fill="white" transform="translate(50.6118 85.0785)"/>
        </clipPath>
    </defs>


    <g clip-path="url(#)">
        <path d="M91.7473 199.572L91.2568 199.853C91.1868 199.853 91.1868 199.853 91.1167 199.853C91.397 199.782 91.6072 199.642 91.7473 199.572Z" fill="#F1F2F2" stroke="#231F20" stroke-width="0.201439" stroke-miterlimit="10" stroke-linecap="round" stroke-linejoin="round"/>
        <path d="M95.8115 201.814C95.6714 201.954 95.4612 202.025 95.321 202.165L95.251 202.235L95.8115 201.814Z" fill="#F1F2F2" stroke="#231F20" stroke-width="0.201439" stroke-miterlimit="10" stroke-linecap="round" stroke-linejoin="round"/>
        <path d="M91.7473 199.572L91.2568 199.853C91.1868 199.853 91.1868 199.853 91.1167 199.853C91.397 199.782 91.6072 199.642 91.7473 199.572Z" fill="#F1F2F2" stroke="#231F20" stroke-width="0.201439" stroke-miterlimit="10" stroke-linecap="round" stroke-linejoin="round"/>
        <path d="M91.7473 199.572L91.2568 199.853C91.1868 199.853 91.1868 199.853 91.1167 199.853C91.397 199.782 91.6072 199.642 91.7473 199.572Z" fill="#F1F2F2" stroke="#231F20" stroke-width="0.201439" stroke-miterlimit="10" stroke-linecap="round" stroke-linejoin="round"/>
        <path d="M95.8115 201.814C95.6714 201.954 95.4612 202.025 95.321 202.165L95.251 202.235L95.8115 201.814Z" fill="#F1F2F2" stroke="#231F20" stroke-width="0.201439" stroke-miterlimit="10" stroke-linecap="round" stroke-linejoin="round"/>
        <path d="M99.104 199.712C98.4034 201.394 97.4225 202.585 96.0912 203.356L95.9511 203.426C93.5688 204.827 90.2757 204.617 86.6323 202.585L87.5432 202.025C90.556 203.356 93.2185 203.356 95.2504 202.235L95.3205 202.165C95.5307 202.025 95.6708 201.955 95.8109 201.814L99.104 199.712Z" fill="#414042" stroke="#231F20" stroke-width="0.201439" stroke-miterlimit="10" stroke-linecap="round" stroke-linejoin="round"/>
        <path d="M91.7473 199.572L91.2568 199.853C91.1868 199.853 91.1868 199.853 91.1167 199.853C91.397 199.782 91.6072 199.642 91.7473 199.572Z" fill="#F1F2F2" stroke="#231F20" stroke-width="0.201439" stroke-miterlimit="10" stroke-linecap="round" stroke-linejoin="round"/>
        <path d="M95.8115 201.814C95.6714 201.954 95.4612 202.025 95.321 202.165L95.251 202.235L95.8115 201.814Z" fill="#F1F2F2" stroke="#231F20" stroke-width="0.201439" stroke-miterlimit="10" stroke-linecap="round" stroke-linejoin="round"/>
        <path d="M91.7473 199.572L91.2568 199.853C91.1868 199.853 91.1868 199.853 91.1167 199.853C91.397 199.782 91.6072 199.642 91.7473 199.572Z" fill="#F1F2F2" stroke="#231F20" stroke-width="0.201439" stroke-miterlimit="10" stroke-linecap="round" stroke-linejoin="round"/>
        <path d="M70.6577 167.973L69.8169 167.482C69.887 167.412 69.957 167.272 70.0271 167.202L70.6577 167.973Z" fill="#F1F2F2" stroke="#231F20" stroke-width="0.201439" stroke-miterlimit="10" stroke-linecap="round" stroke-linejoin="round"/>
        <path d="M53.0007 139.806L52.0898 140.227C52.3701 140.016 52.6504 139.876 53.0007 139.806Z" fill="#F1F2F2" stroke="#231F20" stroke-width="0.201439" stroke-miterlimit="10" stroke-linecap="round" stroke-linejoin="round"/>
        <path d="M35.6243 139.596H35.5542C35.5542 139.526 35.6243 139.526 35.6243 139.456C35.6243 139.526 35.6243 139.596 35.6243 139.596Z" fill="#F1F2F2" stroke="#231F20" stroke-width="0.201439" stroke-miterlimit="10" stroke-linecap="round" stroke-linejoin="round"/>
        <path d="M87.2631 196.559C87.2631 197.4 87.193 198.171 87.0529 198.872C86.9828 199.292 86.9128 199.642 86.7726 200.063C86.6325 200.553 86.4924 200.974 86.2822 201.394C86.142 201.674 86.0019 201.884 85.8618 202.095C85.6516 202.445 85.4414 202.795 85.1611 203.076C84.7407 203.496 84.3203 203.916 83.8299 204.197L83.6897 204.267C81.5177 205.458 78.5749 205.318 75.2818 203.426C74.8614 203.216 74.4411 202.935 74.0907 202.655L31.5608 178.132C31.2805 177.992 31.0703 177.852 30.7901 177.712C24.2039 173.928 18.8789 164.68 18.8789 157.112C18.8789 155.571 19.0891 154.24 19.5095 153.119C20.07 151.437 21.0509 150.246 22.2421 149.475C22.3121 149.475 22.3121 149.405 22.3822 149.405C22.9427 149.125 23.5032 148.915 24.1338 148.775C24.274 148.775 24.4842 148.705 24.6243 148.705C24.7644 148.705 24.9746 148.634 25.1848 148.634L27.0766 148.494L27.497 148.424L33.5927 147.934L34.0131 147.864L37.3763 147.583L38.9878 147.443L41.9305 147.233L46.9052 146.813C47.1855 146.743 47.4657 146.743 47.746 146.743C47.8861 146.743 48.0263 146.743 48.2365 146.743C49.0772 146.743 49.9881 146.953 50.969 147.303C51.7397 147.583 52.5105 147.934 53.2812 148.354C54.4022 148.985 55.5233 149.826 56.5042 150.736C57.345 151.507 58.1858 152.418 58.9565 153.329L59.0266 153.399C59.2368 153.679 59.447 153.889 59.6572 154.17L69.9568 167.132C69.8868 167.202 69.8167 167.342 69.7466 167.412L70.5874 167.903L72.1289 169.864L72.4091 170.215L74.6512 173.087L76.8233 175.82L80.0463 179.884C80.6068 180.444 81.0973 181.075 81.5878 181.705C81.9381 182.126 82.2884 182.616 82.5687 183.107C85.091 186.89 86.8427 191.304 87.123 195.438C87.193 195.859 87.2631 196.209 87.2631 196.559Z" fill="#F1F2F2" stroke="#231F20" stroke-width="0.201439" stroke-miterlimit="10" stroke-linecap="round" stroke-linejoin="round"/>
        <path opacity="0.14" d="M87.2631 196.559C87.2631 197.4 87.193 198.171 87.0529 198.872C86.9828 199.292 86.9128 199.642 86.7726 200.063C86.6325 200.553 86.4924 200.974 86.2822 201.394C86.142 201.674 86.0019 201.884 85.8618 202.095C85.6516 202.445 85.4414 202.795 85.1611 203.076C84.7407 203.496 84.3203 203.916 83.8299 204.197L83.6897 204.267C81.5177 205.458 78.5749 205.318 75.2818 203.426C74.8614 203.216 74.4411 202.935 74.0907 202.655L31.5608 178.132C31.2805 177.992 31.0703 177.852 30.7901 177.712C24.2039 173.928 18.8789 164.68 18.8789 157.112C18.8789 155.571 19.0891 154.24 19.5095 153.119C20.07 151.437 21.0509 150.246 22.2421 149.475C22.3121 149.475 22.3121 149.405 22.3822 149.405C22.9427 149.125 23.5032 148.915 24.1338 148.775C24.274 148.775 24.4842 148.705 24.6243 148.705C24.7644 148.705 24.9746 148.634 25.1848 148.634L27.0766 148.494L27.497 148.424L33.5927 147.934L34.0131 147.864L37.3763 147.583L38.9878 147.443L41.9305 147.233L46.9052 146.813C47.1855 146.743 47.4657 146.743 47.746 146.743C47.8861 146.743 48.0263 146.743 48.2365 146.743C49.0772 146.743 49.9881 146.953 50.969 147.303C51.7397 147.583 52.5105 147.934 53.2812 148.354C54.4022 148.985 55.5233 149.826 56.5042 150.736C57.345 151.507 58.1858 152.418 58.9565 153.329L59.0266 153.399C59.2368 153.679 59.447 153.889 59.6572 154.17L69.9568 167.132C69.8868 167.202 69.8167 167.342 69.7466 167.412L70.5874 167.903L72.1289 169.864L72.4091 170.215L74.6512 173.087L76.8233 175.82L80.0463 179.884C80.6068 180.444 81.0973 181.075 81.5878 181.705C81.9381 182.126 82.2884 182.616 82.5687 183.107C85.091 186.89 86.8427 191.304 87.123 195.438C87.193 195.859 87.2631 196.209 87.2631 196.559Z" fill="black" stroke="#231F20" stroke-width="0.0802954" stroke-miterlimit="10"/>
        <path d="M70.6577 167.973L69.8169 167.482C69.887 167.412 69.957 167.272 70.0271 167.202L70.6577 167.973Z" fill="#F1F2F2" stroke="#231F20" stroke-width="0.201439" stroke-miterlimit="10" stroke-linecap="round" stroke-linejoin="round"/>
        <path d="M103.308 196.7C103.308 201.324 101.697 204.617 99.1042 206.159L98.9641 206.229C96.3016 207.77 92.6581 207.49 88.5943 205.178C88.1039 204.897 87.6134 204.547 87.123 204.267L85.4414 203.286L86.6325 202.585C90.2759 204.617 93.569 204.827 95.9512 203.426L96.0914 203.356C97.4226 202.585 98.4035 201.324 99.1042 199.712C99.6647 198.311 100.015 196.63 100.015 194.668C100.015 193.897 99.945 193.056 99.8749 192.215C99.5246 189.203 98.4736 186.12 97.0022 183.107C96.3716 181.846 95.6009 180.585 94.8302 179.393C93.9193 178.062 92.9384 176.871 91.9575 175.75L87.2631 169.794L84.8809 166.782L84.5305 166.361L82.4986 163.839L76.4029 156.132L74.4411 153.679L68.7657 146.462C68.5555 146.182 68.3453 145.902 68.0651 145.622L67.995 145.552C67.0141 144.36 65.9631 143.31 64.9121 142.329C63.7911 141.348 62.67 140.507 61.4789 139.876C59.7272 138.895 58.1157 138.335 56.6443 138.125C56.5042 138.125 56.3641 138.055 56.1539 138.055C55.7335 138.055 55.3832 137.985 55.0328 138.055C54.7526 138.055 54.4723 138.125 54.2621 138.125L46.9753 138.755L46.0644 138.825L35.5546 139.666C35.5546 139.596 35.5546 139.596 35.5546 139.526C35.5546 139.596 35.4845 139.596 35.4845 139.666L33.1723 139.876L29.3888 140.157C29.1786 140.157 28.9684 140.157 28.7582 140.227C27.8473 140.367 27.0065 140.647 26.2358 141.067C23.8536 142.469 22.3121 145.341 22.2421 149.545C20.9809 150.316 20.07 151.507 19.5095 153.189C19.0891 151.437 18.8789 149.685 18.8789 148.004C18.8789 143.31 20.5605 140.016 23.223 138.475H23.293C23.7134 138.265 24.1338 138.055 24.5542 137.914C25.0447 137.774 25.4651 137.634 26.0256 137.564C26.2358 137.564 26.446 137.494 26.6562 137.494L35.6246 136.723L47.8161 135.742L53.1411 135.322L53.7016 135.252C54.122 135.182 54.5424 135.182 54.9628 135.182C56.5743 135.182 58.3259 135.602 60.2177 136.443C60.6381 136.653 61.1286 136.863 61.549 137.144C64.1414 138.615 66.5236 140.787 68.6256 143.31L68.6957 143.38C68.9759 143.66 69.1861 144.01 69.4664 144.29L76.0526 152.628L84.1101 162.858L84.0401 162.928L84.5305 163.348L86.072 165.31L88.8746 168.813L89.1549 169.164L94.62 176.03C95.741 177.221 96.792 178.623 97.7729 180.024C98.894 181.635 99.8049 183.387 100.646 185.139C101.977 188.082 102.888 191.164 103.238 194.107C103.238 195.018 103.308 195.859 103.308 196.7Z" fill="#231F20" stroke="#231F20" stroke-width="0.201439" stroke-miterlimit="10" stroke-linecap="round" stroke-linejoin="round"/>
        <path d="M84.4604 163.278L83.8999 162.858L84.04 162.788L84.4604 163.278Z" fill="#F1F2F2" stroke="#231F20" stroke-width="0.201439" stroke-miterlimit="10" stroke-linecap="round" stroke-linejoin="round"/>
        <path d="M53.0007 139.806L52.0898 140.227C52.3701 140.016 52.6504 139.876 53.0007 139.806Z" fill="#F1F2F2" stroke="#231F20" stroke-width="0.201439" stroke-miterlimit="10" stroke-linecap="round" stroke-linejoin="round"/>
        <path d="M56.6443 138.055L56.364 138.195L56.1538 138.055C56.364 138.055 56.5041 138.055 56.6443 138.055Z" fill="#F1F2F2" stroke="#231F20" stroke-width="0.201439" stroke-miterlimit="10" stroke-linecap="round" stroke-linejoin="round"/>
        <path d="M84.7407 166.712L84.1802 166.361L84.3904 166.291L84.7407 166.712Z" fill="#F1F2F2" stroke="#231F20" stroke-width="0.201439" stroke-miterlimit="10" stroke-linecap="round" stroke-linejoin="round"/>
        <path d="M70.6577 167.973L69.8169 167.482C69.887 167.412 69.957 167.272 70.0271 167.202L70.6577 167.973Z" fill="#F1F2F2" stroke="#231F20" stroke-width="0.201439" stroke-miterlimit="10" stroke-linecap="round" stroke-linejoin="round"/>
        <path d="M37.6567 143.52L36.2554 143.66L33.8031 143.87L33.2426 143.94C33.0324 143.94 32.8923 143.94 32.6821 144.01C31.8413 144.08 31.1406 144.36 30.44 144.711L24.2041 148.424C24.6245 145.411 25.9557 143.309 27.8475 142.258C28.2679 142.048 28.6182 141.838 29.1087 141.698C30.6502 141.207 32.4018 141.278 34.2936 141.978C34.8541 142.188 35.4146 142.399 35.9751 142.679C36.2554 142.819 36.6057 142.959 36.886 143.169C37.1663 143.169 37.3765 143.38 37.6567 143.52Z" fill="#928874" stroke="#231F20" stroke-width="0.201439" stroke-miterlimit="10"/>
        <path d="M50.1982 141.838C49.988 142.048 49.8479 142.329 49.7077 142.539L46.9752 142.749L37.6564 143.52C37.3762 143.38 37.166 143.239 36.8857 143.099C36.6054 142.889 36.2551 142.749 35.9748 142.609C35.4143 142.329 34.8538 142.048 34.2933 141.908C32.3314 141.278 30.5798 141.208 29.1084 141.628L33.2423 139.876L35.5544 139.666H35.6245L46.1344 138.825C46.2745 138.895 46.3446 138.965 46.4847 139.036C46.6248 139.106 46.835 139.246 46.9752 139.316C48.0262 139.946 49.1472 140.857 50.1982 141.838Z" fill="url(#paint0_linear_1_19911)" stroke="#231F20" stroke-width="0.201439" stroke-miterlimit="10" stroke-linecap="round" stroke-linejoin="round"/>
        <path d="M33.172 139.806L29.0381 141.558C28.6177 141.698 28.1973 141.838 27.7769 142.118C25.8851 143.239 24.5539 145.341 24.1335 148.284L22.3818 149.335C22.3118 149.335 22.3118 149.405 22.2417 149.405C22.3118 145.271 23.7831 142.329 26.2354 140.927C27.0062 140.507 27.847 140.227 28.7578 140.086C28.968 140.086 29.1782 140.016 29.3884 140.016L33.172 139.806Z" fill="#414042" stroke="#231F20" stroke-width="0.201439" stroke-miterlimit="10" stroke-linecap="round" stroke-linejoin="round"/>
        <path d="M53.0007 139.806L52.0898 140.227C52.3701 140.016 52.6504 139.876 53.0007 139.806Z" fill="#F1F2F2" stroke="#231F20" stroke-width="0.201439" stroke-miterlimit="10" stroke-linecap="round" stroke-linejoin="round"/>
        <path d="M99.9447 194.668C99.9447 196.629 99.6644 198.311 99.0338 199.712L95.8108 201.814C97.7726 200.343 98.9637 197.61 98.9637 193.897C98.9637 193.126 98.8937 192.426 98.8236 191.655C98.4733 188.642 97.4223 185.489 95.8808 182.546C93.4986 177.992 89.9953 173.928 86.0716 171.686C85.6512 171.476 85.2308 171.196 84.8104 171.055L82.1479 167.622L84.1799 166.361L84.7404 166.641L87.1226 169.654L91.817 175.61C92.868 176.731 93.8489 177.992 94.6897 179.253C95.5305 180.444 96.2312 181.705 96.8618 182.967C98.3331 185.909 99.3141 189.062 99.7345 192.075C99.8746 193.056 99.9447 193.897 99.9447 194.668Z" fill="url(#paint1_linear_1_19911)" stroke="#231F20" stroke-width="0.201439" stroke-miterlimit="10" stroke-linecap="round" stroke-linejoin="round"/>
        <path d="M98.9638 193.897C98.9638 197.61 97.7727 200.343 95.8109 201.814L95.1803 202.235C93.1484 203.356 90.4859 203.356 87.473 202.025L91.2566 199.783L91.7471 199.502L91.8171 199.432C93.9191 198.171 95.2503 195.508 95.2503 191.795C95.2503 191.024 95.1803 190.254 95.1102 189.483C94.6898 186.4 93.4987 183.107 91.8171 180.164C91.4668 179.604 91.1865 179.043 90.8362 178.553C90.8362 178.483 90.7661 178.483 90.7661 178.412C89.9954 177.291 89.1546 176.17 88.2438 175.189L84.9507 171.056C85.3711 171.266 85.7915 171.476 86.2119 171.686C90.1355 173.928 93.6388 177.992 96.0211 182.546C97.5625 185.489 98.6135 188.642 98.9638 191.655C98.9638 192.426 98.9638 193.196 98.9638 193.897Z" fill="#928874" stroke="#231F20" stroke-width="0.201439" stroke-miterlimit="10"/>
        <path d="M56.6443 138.055L56.364 138.195L56.1538 138.055C56.364 138.055 56.5041 138.055 56.6443 138.055Z" fill="#F1F2F2" stroke="#231F20" stroke-width="0.201439" stroke-miterlimit="10" stroke-linecap="round" stroke-linejoin="round"/>
        <path d="M84.7407 166.712L84.1802 166.361L84.3904 166.291L84.7407 166.712Z" fill="#F1F2F2" stroke="#231F20" stroke-width="0.201439" stroke-miterlimit="10" stroke-linecap="round" stroke-linejoin="round"/>
        <path d="M70.6577 167.973L69.8169 167.482C69.887 167.412 69.957 167.272 70.0271 167.202L70.6577 167.973Z" fill="#F1F2F2" stroke="#231F20" stroke-width="0.201439" stroke-miterlimit="10" stroke-linecap="round" stroke-linejoin="round"/>
        <path d="M70.6577 167.973L69.8169 167.482C69.887 167.412 69.957 167.272 70.0271 167.202L70.6577 167.973Z" fill="#F1F2F2" stroke="#231F20" stroke-width="0.201439" stroke-miterlimit="10" stroke-linecap="round" stroke-linejoin="round"/>
        <path d="M95.2505 191.865C95.2505 195.649 93.9192 198.241 91.8173 199.502L91.7472 199.572C91.537 199.712 91.3268 199.783 91.1166 199.853C91.1867 199.853 91.1867 199.853 91.2567 199.853L87.4732 202.095L86.5623 202.655L85.3712 203.356L83.7597 204.337C84.2501 204.057 84.6705 203.636 85.0909 203.216C85.3712 202.935 85.5814 202.585 85.7916 202.235C85.9317 202.025 86.0719 201.744 86.212 201.534C86.4222 201.114 86.5623 200.693 86.7025 200.203C86.8426 199.853 86.9127 199.432 86.9827 199.012C87.1228 198.311 87.1929 197.54 87.1929 196.7C87.1929 196.349 87.1929 195.929 87.1228 195.579C86.8426 191.515 85.161 187.031 82.5686 183.247C82.2182 182.757 81.938 182.336 81.5877 181.846C81.0972 181.215 80.6067 180.584 80.0462 180.024L76.8232 175.96L74.6511 173.228L72.409 170.355L72.1288 170.005L70.6574 167.973L70.0268 167.202L59.7972 154.17C59.587 153.889 59.3768 153.679 59.1666 153.399L59.0965 153.329C58.3258 152.418 57.485 151.507 56.6442 150.736C55.5933 149.826 54.5423 148.985 53.4212 148.354C52.6505 147.864 51.8097 147.513 51.109 147.303C50.1281 146.953 49.2173 146.813 48.3765 146.743C48.2363 146.743 48.0262 146.743 47.886 146.743C47.6058 146.743 47.3255 146.743 47.0452 146.813L42.0706 147.233L39.1278 147.443L37.5163 147.584L34.1531 147.864L33.7327 147.934L27.5669 148.424L27.1466 148.494L25.2548 148.635C25.0446 148.635 24.9044 148.635 24.6943 148.705C24.5541 148.705 24.3439 148.775 24.2038 148.775C23.5732 148.915 23.0127 149.125 22.4521 149.405L24.2038 148.354L30.4396 144.641C31.1403 144.29 31.841 144.01 32.6817 143.94C32.8219 143.94 33.0321 143.87 33.2423 143.87L33.8028 143.8L36.2551 143.59L37.6564 143.45L46.9752 142.679L49.7077 142.469L50.8288 142.399L55.0327 142.048C55.313 141.978 55.5933 141.978 55.8735 141.978C57.5551 141.908 59.3768 142.469 61.4087 143.59C63.5107 144.781 65.4025 146.533 67.1541 148.564L67.2242 148.635C67.4344 148.915 67.6446 149.125 67.8548 149.405L72.339 155.081L78.785 163.208L80.3265 165.17L82.2182 167.552L84.8807 170.985L88.1738 175.119C89.0847 176.1 89.9255 177.221 90.6962 178.342C90.6962 178.412 90.7663 178.412 90.7663 178.483C91.1166 179.043 91.4669 179.534 91.7472 180.094C93.4288 183.037 94.6199 186.33 95.0403 189.413C95.2505 190.324 95.2505 191.094 95.2505 191.865Z" fill="#F1F2F2" stroke="#231F20" stroke-width="0.201439" stroke-miterlimit="10" stroke-linecap="round" stroke-linejoin="round"/>
        <path d="M70.6577 167.973L69.8169 167.482C69.887 167.412 69.957 167.272 70.0271 167.202L70.6577 167.973Z" fill="#F1F2F2" stroke="#231F20" stroke-width="0.201439" stroke-miterlimit="10" stroke-linecap="round" stroke-linejoin="round"/>
        <path d="M84.4604 163.278L83.8999 162.858L84.04 162.788L84.4604 163.278Z" fill="#F1F2F2" stroke="#231F20" stroke-width="0.201439" stroke-miterlimit="10" stroke-linecap="round" stroke-linejoin="round"/>
        <path d="M53.0007 139.806L52.0898 140.227C52.3701 140.016 52.6504 139.876 53.0007 139.806Z" fill="#F1F2F2" stroke="#231F20" stroke-width="0.201439" stroke-miterlimit="10" stroke-linecap="round" stroke-linejoin="round"/>
        <path d="M56.6443 138.055L56.364 138.195L56.1538 138.055C56.364 138.055 56.5041 138.055 56.6443 138.055Z" fill="#F1F2F2" stroke="#231F20" stroke-width="0.201439" stroke-miterlimit="10" stroke-linecap="round" stroke-linejoin="round"/>
        <path d="M84.7407 166.712L84.1802 166.361L84.3904 166.291L84.7407 166.712Z" fill="#F1F2F2" stroke="#231F20" stroke-width="0.201439" stroke-miterlimit="10" stroke-linecap="round" stroke-linejoin="round"/>
        <path d="M56.6443 138.055L56.364 138.195L56.1538 138.055C56.364 138.055 56.5041 138.055 56.6443 138.055Z" fill="#F1F2F2" stroke="#231F20" stroke-width="0.201439" stroke-miterlimit="10" stroke-linecap="round" stroke-linejoin="round"/>
        <path d="M84.7407 166.712L84.1802 166.361L84.3904 166.291L84.7407 166.712Z" fill="#F1F2F2" stroke="#231F20" stroke-width="0.201439" stroke-miterlimit="10" stroke-linecap="round" stroke-linejoin="round"/>
        <path d="M84.4604 163.278L83.8999 162.858L84.04 162.788L84.4604 163.278Z" fill="#F1F2F2" stroke="#231F20" stroke-width="0.201439" stroke-miterlimit="10" stroke-linecap="round" stroke-linejoin="round"/>
        <path d="M123.207 175.259C123.207 179.043 121.876 181.635 119.774 182.897L119.704 182.967L119.564 182.827C118.793 178.553 116.901 174.208 114.309 170.355C113.328 168.954 112.277 167.622 111.156 166.361L86.0724 134.551C85.8622 134.201 85.5819 133.921 85.3016 133.64L85.2316 133.57C83.1296 131.048 80.7474 128.876 78.1549 127.405C77.174 126.844 76.2632 126.424 75.4224 126.073L82.9895 125.443C84.8112 125.162 87.0533 125.653 89.3654 126.984C91.4674 128.175 93.3592 129.927 95.1108 131.959L95.1809 132.029C95.3911 132.309 95.6013 132.519 95.8115 132.8L116.131 158.514C117.041 159.495 117.882 160.616 118.653 161.737C121.456 165.941 123.207 170.845 123.207 175.259Z" fill="#F1F2F2" stroke="#231F20" stroke-width="0.201439" stroke-miterlimit="10" stroke-linecap="round" stroke-linejoin="round"/>
        <path d="M119.703 182.967L119.633 183.037C119.633 182.967 119.633 182.897 119.633 182.827L119.703 182.967Z" fill="#F1F2F2" stroke="#231F20" stroke-width="0.201439" stroke-miterlimit="10" stroke-linecap="round" stroke-linejoin="round"/>
        <path d="M84.4604 163.278L83.8999 162.858L84.04 162.788L84.4604 163.278Z" fill="#F1F2F2" stroke="#231F20" stroke-width="0.201439" stroke-miterlimit="10" stroke-linecap="round" stroke-linejoin="round"/>
        <path d="M56.3639 138.195L55.1728 138.755L53.0007 139.806C52.6504 139.946 52.3701 140.086 52.0899 140.227C51.3892 140.647 50.7586 141.137 50.2682 141.838C49.2172 140.857 48.0961 140.016 46.9751 139.246C46.8349 139.176 46.6247 139.035 46.4846 138.965C46.3445 138.895 46.2744 138.825 46.1343 138.755L47.0451 138.685L54.332 138.055C54.6122 137.984 54.8224 137.984 55.1027 137.984C55.453 137.984 55.8734 137.984 56.2237 137.984L56.3639 138.195Z" fill="#414042" stroke="#231F20" stroke-width="0.201439" stroke-miterlimit="10" stroke-linecap="round" stroke-linejoin="round"/>
        <path d="M72.2692 155.08L67.785 149.405C67.5748 149.125 67.3646 148.915 67.1544 148.634V148.634C65.4728 146.603 63.511 144.851 61.409 143.66C59.4471 142.539 57.5554 141.978 55.8738 142.048C55.5935 142.048 55.3133 142.048 55.033 142.118L50.8291 142.469L49.708 142.539C49.8481 142.258 49.9883 142.048 50.1985 141.838C50.6889 141.207 51.3195 140.647 52.0202 140.227L52.931 139.806C53.6317 139.526 54.4024 139.386 55.2432 139.386C56.1541 139.386 57.135 139.526 58.186 139.806C59.0968 140.086 60.0777 140.507 61.1287 141.137C64.562 143.169 67.7149 146.532 70.0271 150.456C70.9379 151.928 71.6386 153.469 72.2692 155.08Z" fill="#928874" stroke="#231F20" stroke-width="0.201439" stroke-miterlimit="10"/>
        <path d="M53.0007 139.806L52.0898 140.227C52.3701 140.016 52.6504 139.876 53.0007 139.806Z" fill="#F1F2F2" stroke="#231F20" stroke-width="0.201439" stroke-miterlimit="10" stroke-linecap="round" stroke-linejoin="round"/>
        <path d="M56.6443 138.055L56.364 138.195L56.1538 138.055C56.364 138.055 56.5041 138.055 56.6443 138.055Z" fill="#F1F2F2" stroke="#231F20" stroke-width="0.201439" stroke-miterlimit="10" stroke-linecap="round" stroke-linejoin="round"/>
        <path d="M84.3905 166.291L84.1803 166.361L82.2184 167.622L80.3267 165.17L81.1674 164.609L82.4987 163.839L84.3905 166.291Z" fill="#414042" stroke="#231F20" stroke-width="0.201439" stroke-miterlimit="10" stroke-linecap="round" stroke-linejoin="round"/>
        <path d="M84.7407 166.712L84.1802 166.361L84.3904 166.291L84.7407 166.712Z" fill="#F1F2F2" stroke="#231F20" stroke-width="0.201439" stroke-miterlimit="10" stroke-linecap="round" stroke-linejoin="round"/>
        <path d="M82.4989 163.839L81.1677 164.609L80.2568 165.17L78.7154 163.208L72.2693 155.081C71.6387 153.469 70.868 151.928 70.0272 150.456C67.715 146.533 64.5621 143.169 61.1288 141.137C60.1479 140.577 59.167 140.157 58.1861 139.806C57.1351 139.456 56.1542 139.316 55.2433 139.386C54.4025 139.386 53.6318 139.526 52.9312 139.806L55.1032 138.755L56.2943 138.195L56.5746 138.055C58.116 138.265 59.7275 138.825 61.4091 139.806C62.6002 140.507 63.7213 141.348 64.8423 142.259C65.9634 143.239 66.9443 144.29 67.9252 145.482L67.9953 145.552C68.2055 145.832 68.4857 146.112 68.6959 146.392L74.3713 153.609L76.3331 156.061L82.4989 163.839Z" fill="url(#paint2_linear_1_19911)" stroke="#231F20" stroke-width="0.201439" stroke-miterlimit="10" stroke-linecap="round" stroke-linejoin="round"/>
        <path d="M56.6443 138.055L56.364 138.195L56.1538 138.055C56.364 138.055 56.5041 138.055 56.6443 138.055Z" fill="#F1F2F2" stroke="#231F20" stroke-width="0.201439" stroke-miterlimit="10" stroke-linecap="round" stroke-linejoin="round"/>
        <path d="M84.4604 163.278L83.8999 162.858L84.04 162.788L84.4604 163.278Z" fill="#F1F2F2" stroke="#231F20" stroke-width="0.201439" stroke-miterlimit="10" stroke-linecap="round" stroke-linejoin="round"/>
        <path d="M119.703 182.967L119.633 183.037C119.633 182.967 119.633 182.897 119.633 182.827L119.703 182.967Z" fill="#F1F2F2" stroke="#231F20" stroke-width="0.201439" stroke-miterlimit="10" stroke-linecap="round" stroke-linejoin="round"/>
        <path d="M119.984 186.96C119.984 191.585 118.372 194.878 115.78 196.419L115.64 196.489L99.1041 206.158C101.697 204.617 103.308 201.324 103.308 196.7C103.308 195.859 103.238 195.018 103.168 194.177C102.818 191.234 101.907 188.152 100.575 185.209C99.7347 183.457 98.8239 181.706 97.7028 180.094C96.7219 178.693 95.6709 177.361 94.5498 176.1L89.0847 169.234L88.8045 168.883L86.0018 165.38L84.4604 163.418L84.04 162.928L75.9824 152.558L69.3962 144.22C69.186 143.87 68.9058 143.59 68.6255 143.309L68.5554 143.239C66.4535 140.717 64.0712 138.545 61.4788 137.074C60.9883 136.793 60.568 136.583 60.1476 136.373C58.2558 135.462 56.5041 135.042 54.8926 135.112C54.4722 135.112 54.0518 135.182 53.6314 135.182L53.0709 135.252L47.7459 135.672L35.6245 136.723L26.6561 137.494C26.4459 137.494 26.2357 137.494 26.0255 137.564C25.5351 137.634 25.0446 137.704 24.5542 137.914C24.1338 138.055 23.7134 138.265 23.293 138.475L39.8986 128.666C40.3189 128.456 40.7393 128.245 41.2298 128.105C41.7203 127.965 42.1407 127.825 42.7012 127.755C42.9114 127.755 43.1216 127.685 43.3318 127.685L70.3772 125.443C71.9186 125.233 73.6703 125.373 75.492 126.073C76.4028 126.424 77.3137 126.844 78.2245 127.405C80.817 128.876 83.1992 131.048 85.3012 133.57L85.3712 133.64C85.6515 133.921 85.8617 134.271 86.142 134.551L111.225 166.361C112.347 167.552 113.398 168.954 114.378 170.355C116.971 174.138 118.863 178.553 119.633 182.827C119.633 182.897 119.633 182.967 119.633 183.037C119.844 184.368 119.984 185.699 119.984 186.96Z" fill="#414042" stroke="#231F20" stroke-width="0.201439" stroke-miterlimit="10" stroke-linecap="round" stroke-linejoin="round"/>
    </g>
    <defs>
        <linearGradient id="paint0_linear_1_19911" x1="29.0842" y1="141.134" x2="50.2221" y2="141.134" gradientUnits="userSpaceOnUse">
            <stop stop-color="#58595B"/>
            <stop offset="1"/>
        </linearGradient>
        <linearGradient id="paint1_linear_1_19911" x1="82.1947" y1="184.107" x2="99.9584" y2="184.107" gradientUnits="userSpaceOnUse">
            <stop stop-color="#58595B"/>
            <stop offset="1"/>
        </linearGradient>
        <linearGradient id="paint2_linear_1_19911" x1="52.9729" y1="151.638" x2="82.4641" y2="151.638" gradientUnits="userSpaceOnUse">
            <stop stop-color="#58595B"/>
            <stop offset="1"/>
        </linearGradient>
        <clipPath id="">
            <rect width="104.538" height="81.9769" fill="white" transform="translate(18.8096 125.303)"/>
        </clipPath>
    </defs>


    <g clip-path="url(#)">
        <path d="M175.687 132.029V140.717L160.973 147.934V139.246C161.113 139.316 161.253 139.316 161.394 139.386C163.706 140.016 165.738 139.806 167.419 139.106C167.489 139.106 167.559 139.036 167.559 139.036C169.311 138.405 170.852 137.424 171.973 136.373C174.706 133.851 175.547 132.239 175.687 132.029C175.687 132.029 175.617 132.029 175.687 132.029Z" fill="#F1F2F2"/>
        <path d="M175.687 132.029V140.717L160.973 147.934V139.246C161.113 139.316 161.253 139.316 161.394 139.386C163.706 140.016 165.738 139.806 167.419 139.106C167.489 139.106 167.559 139.036 167.559 139.036C169.311 138.405 170.852 137.424 171.973 136.373C174.706 133.851 175.547 132.239 175.687 132.029ZM175.687 132.029C175.617 132.029 175.687 132.029 175.687 132.029Z" stroke="#231F20" stroke-width="0.185955" stroke-miterlimit="10" stroke-linecap="round" stroke-linejoin="round"/>
        <path d="M175.686 132.029C175.686 132.029 175.616 132.029 175.686 132.029C175.546 132.239 174.706 133.851 172.043 136.373C170.922 137.424 169.381 138.405 167.629 139.036C167.559 139.036 167.489 139.106 167.489 139.106C165.737 139.806 163.775 140.016 161.463 139.386C161.323 139.316 161.183 139.316 161.043 139.246L132.316 122.64L61.269 81.7217C61.269 81.7217 71.0782 83.6836 75.7026 72.9635L175.686 132.029Z" fill="#939598" stroke="#231F20" stroke-width="0.185955" stroke-miterlimit="10"/>
        <path d="M160.903 139.246V147.934L61.269 90.4799V81.7217L132.176 122.64L160.903 139.246Z" fill="#F1F2F2" stroke="#231F20" stroke-width="0.185955" stroke-miterlimit="10" stroke-linecap="round" stroke-linejoin="round"/>
        <path opacity="0.2" d="M160.903 139.246V147.934L61.269 90.4799V81.7217L132.176 122.64L160.903 139.246Z" fill="black" stroke="#231F20" stroke-width="0.185955" stroke-miterlimit="10"/>
        <path d="M92.3087 61.5428L86.6334 71.4221L76.684 88.6582L60.1485 77.5878L57.6962 75.9763C56.2248 74.7852 55.314 72.7533 55.314 69.8806C55.314 68.5494 55.5242 67.148 55.8745 65.7467C56.7153 62.4536 58.4669 59.1605 60.709 56.498C62.1103 54.8865 63.6518 53.4852 65.3334 52.5744C67.7857 51.1731 70.0978 50.8928 71.7794 51.5934V51.5234L92.2386 61.5428H92.3087Z" fill="url(#paint0_linear_1_19911)"/>
        <path d="M154.177 133.5L169.872 106.385C151.304 95.6649 92.3091 61.5429 92.3091 61.5429C90.2772 60.3517 87.5446 60.5619 84.4617 62.3136C78.4361 65.8869 73.4614 74.435 73.4614 81.5116C73.4614 85.0149 74.7226 87.5372 76.6844 88.6583L154.177 133.5Z" fill="url(#paint1_linear_1_19911)" stroke="#231F20" stroke-width="0.0444042" stroke-miterlimit="10"/>
        <path d="M121.386 114.512L114.87 110.729C112.838 109.538 111.647 107.085 111.647 103.582C111.647 96.5055 116.622 87.9575 122.717 84.3842C124.259 83.4733 125.73 83.0529 126.991 82.9128C128.323 82.7727 129.514 83.0529 130.495 83.6134C130.495 83.6134 132.947 85.0148 137.011 87.397C136.03 86.8365 134.839 86.5562 133.507 86.6963C132.176 86.8365 130.705 87.3269 129.233 88.1677C123.138 91.671 118.163 100.289 118.163 107.366C118.093 110.869 119.354 113.391 121.386 114.512Z" fill="url(#paint2_linear_1_19911)"/>
        <path d="M111.507 108.837L104.991 105.054C102.959 103.862 101.768 101.41 101.768 97.9069C101.768 90.8302 106.743 82.2822 112.838 78.7089C114.38 77.798 115.851 77.3776 117.112 77.2375C118.444 77.0974 119.635 77.3776 120.616 77.9382C120.616 77.9382 123.068 79.3395 127.132 81.7217C126.151 81.1612 124.96 80.8809 123.629 81.021C122.297 81.1612 120.826 81.6516 119.355 82.4924C113.259 85.9957 108.284 94.6138 108.284 101.69C108.284 105.194 109.475 107.646 111.507 108.837Z" fill="url(#paint3_linear_1_19911)"/>
        <path d="M154.177 133.5C154.597 133.781 155.088 133.921 155.578 134.061C161.744 136.513 178.209 141.348 190.961 140.227C193.133 140.016 194.465 137.774 193.554 135.742C188.229 123.971 176.178 111.5 170.993 107.366C170.642 107.015 170.222 106.665 169.802 106.385C167.77 105.194 165.037 105.404 161.954 107.156C155.858 110.659 150.884 119.277 150.884 126.354C150.954 129.857 152.145 132.309 154.177 133.5Z" fill="url(#paint4_linear_1_19911)"/>
        <path d="M97.4942 98.1172L57.4166 99.1682L27.4985 81.8619L39.3396 75.0656L74.5827 84.8748L97.4942 98.1172Z" fill="url(#paint5_linear_1_19911)" stroke="#231F20" stroke-width="0.11708" stroke-miterlimit="10"/>
        <path d="M97.3541 94.8241L57.2765 95.8751L27.3584 78.5688L39.1995 71.7725L74.4426 81.5817L97.3541 94.8241Z" fill="#F1F2F2" stroke="#231F20" stroke-width="0.149871" stroke-miterlimit="10"/>
        <path d="M27.3584 78.5687L27.4985 81.8618L57.4166 99.1681L57.2765 95.875L27.3584 78.5687Z" fill="#BCBEC0" stroke="#231F20" stroke-width="0.11708" stroke-miterlimit="10"/>
        <path d="M97.4946 98.1172L97.3545 94.8241L57.2769 95.8751L57.417 99.1682L97.4946 98.1172Z" fill="#D1D3D4" stroke="#231F20" stroke-width="0.11708" stroke-miterlimit="10"/>
        <path d="M110.526 75.626L91.3981 40.3829L61.48 23.0767V36.7395L87.5444 62.3836L110.526 75.626Z" fill="url(#paint6_linear_1_19911)" stroke="#231F20" stroke-width="0.11708" stroke-miterlimit="10"/>
        <path d="M107.583 77.1674L88.4552 41.9243L58.5371 24.618V38.2809L84.6716 63.9249L107.583 77.1674Z" fill="#F1F2F2" stroke="#231F20" stroke-width="0.149871" stroke-miterlimit="10"/>
        <path opacity="0.2" d="M107.583 77.1674L88.4552 41.9243L58.5371 24.618V38.2809L84.6716 63.9249L107.583 77.1674Z" fill="black" stroke="#231F20" stroke-width="0.185955" stroke-miterlimit="10"/>
        <path d="M58.5371 24.6181L61.4799 23.0767L91.3979 40.3829L88.4552 41.9243L58.5371 24.6181Z" fill="#F1F2F2" stroke="#231F20" stroke-width="0.149871" stroke-miterlimit="10"/>
        <path d="M110.526 75.6259L107.584 77.1673L88.4556 41.9243L91.3983 40.3828L110.526 75.6259Z" fill="#F1F2F2" stroke="#231F20" stroke-width="0.149871" stroke-miterlimit="10"/>
        <path opacity="0.2" d="M107.583 77.1674H96.5128L86.6336 71.4221L60.7793 56.498C62.1806 54.8865 63.7221 53.4852 65.4036 52.5744C67.8559 51.1731 70.1681 50.8928 71.8497 51.5934V51.5234L72.0599 51.6635L84.6717 63.925L107.583 77.1674Z" fill="black" stroke="#231F20" stroke-width="0.185955" stroke-miterlimit="10"/>
    </g>
    <defs>
        <linearGradient id="paint0_linear_1_19911" x1="66.1855" y1="80.85" x2="78.5825" y2="53.4229" gradientUnits="userSpaceOnUse">
            <stop stop-color="#BE1E2D"/>
            <stop offset="0.3636" stop-color="#AA1E23"/>
            <stop offset="0.6989" stop-color="#F5828A"/>
            <stop offset="1" stop-color="#BE1E2D"/>
        </linearGradient>
        <linearGradient id="paint1_linear_1_19911" x1="127.182" y1="81.7221" x2="111.51" y2="108.825" gradientUnits="userSpaceOnUse">
            <stop stop-color="#E6E7E8"/>
            <stop offset="0.3262" stop-color="#F1F2F2"/>
            <stop offset="0.6364" stop-color="#D1D3D4"/>
            <stop offset="1" stop-color="#D1D3D4"/>
        </linearGradient>
        <linearGradient id="paint2_linear_1_19911" x1="129.855" y1="83.269" x2="114.184" y2="110.37" gradientUnits="userSpaceOnUse">
            <stop stop-color="#BE1E2D"/>
            <stop offset="0.3011" stop-color="#F5828A"/>
            <stop offset="0.6364" stop-color="#AA1E23"/>
            <stop offset="1" stop-color="#BE1E2D"/>
        </linearGradient>
        <linearGradient id="paint3_linear_1_19911" x1="120.001" y1="77.5703" x2="104.33" y2="104.671" gradientUnits="userSpaceOnUse">
            <stop stop-color="#BE1E2D"/>
            <stop offset="0.3011" stop-color="#F5828A"/>
            <stop offset="0.6364" stop-color="#AA1E23"/>
            <stop offset="1" stop-color="#BE1E2D"/>
        </linearGradient>
        <linearGradient id="paint4_linear_1_19911" x1="181.771" y1="113.29" x2="166.099" y2="140.392" gradientUnits="userSpaceOnUse">
            <stop stop-color="#BE1E2D"/>
            <stop offset="0.3011" stop-color="#F5828A"/>
            <stop offset="0.6364" stop-color="#AA1E23"/>
            <stop offset="1" stop-color="#BE1E2D"/>
        </linearGradient>
        <linearGradient id="paint5_linear_1_19911" x1="52.0269" y1="96.0349" x2="62.5203" y2="77.8874" gradientUnits="userSpaceOnUse">
            <stop stop-color="#D1D3D4"/>
            <stop offset="0.3636" stop-color="#A7A9AC"/>
            <stop offset="0.6738" stop-color="#F1F2F2"/>
            <stop offset="1" stop-color="#E6E7E8"/>
        </linearGradient>
        <linearGradient id="paint6_linear_1_19911" x1="86.0024" y1="37.2798" x2="75.5079" y2="55.4292" gradientUnits="userSpaceOnUse">
            <stop stop-color="#D1D3D4"/>
            <stop offset="0.3636" stop-color="#A7A9AC"/>
            <stop offset="0.6738" stop-color="#F1F2F2"/>
            <stop offset="1" stop-color="#E6E7E8"/>
        </linearGradient>
        <clipPath id="">
            <rect width="166.686" height="125.137" fill="white" transform="translate(27.2168 23.0066)"/>
        </clipPath>
    </defs>

</svg>
