<svg width="230" height="230" viewBox="0 0 230 230" fill="none"
    xmlns="http://www.w3.org/2000/svg">

    <g clip-path="url(#)">
        <path d="M108.774 114.372C108.774 114.372 104.36 109.958 103.589 118.226C102.889 126.564 102.889 126.564 102.889 126.564L111.156 139.035L120.896 140.086L121.596 135.042L108.774 114.372Z" fill="#49443A" stroke="#231F20" stroke-width="0.162342" stroke-miterlimit="10" stroke-linecap="round" stroke-linejoin="round"/>
        <path d="M126.221 129.576C126.221 130.207 126.221 130.767 126.081 131.258C126.011 131.748 125.871 132.239 125.731 132.659C125.38 133.64 124.82 134.411 124.049 134.971C123.348 135.462 122.508 135.742 121.527 135.742C121.457 135.742 121.386 135.742 121.316 135.742C120.265 135.742 119.004 135.392 117.743 134.691C117.743 134.691 117.673 134.691 117.673 134.621C112.838 131.959 108.915 125.302 108.845 119.837C108.845 119.557 108.845 119.277 108.845 119.066C108.915 117.875 109.195 116.894 109.615 116.054C109.615 115.984 109.686 115.984 109.686 115.914C110.176 115.003 110.947 114.372 111.787 114.022C112.558 113.741 113.399 113.601 114.38 113.741C115.081 113.812 115.921 114.092 116.692 114.442C116.902 114.512 117.112 114.652 117.323 114.792C117.463 114.863 117.533 114.933 117.673 115.003L117.743 115.073C121.597 118.786 124.68 124.041 126.081 129.226V129.296C126.151 129.366 126.221 129.436 126.221 129.576Z" fill="#6E6657" stroke="#231F20" stroke-width="0.162342" stroke-miterlimit="10" stroke-linecap="round" stroke-linejoin="round"/>
        <path d="M107.443 122.92C107.513 126.984 110.456 131.959 113.959 133.92C115.851 134.971 117.533 134.971 118.724 134.201C119.284 133.78 119.705 133.22 119.985 132.519C120.125 132.169 120.195 131.818 120.265 131.468C120.335 131.048 120.335 130.627 120.335 130.207C120.265 126.143 117.323 121.168 113.819 119.207C113.679 119.136 113.469 119.066 113.329 118.926C112.698 118.646 112.138 118.436 111.577 118.366C110.877 118.296 110.246 118.366 109.685 118.576C108.284 119.136 107.443 120.678 107.443 122.92Z" fill="#928874" stroke="#231F20" stroke-width="0.162342" stroke-miterlimit="10" stroke-linecap="round" stroke-linejoin="round"/>
        <path d="M109.686 118.576C110.246 118.366 110.877 118.296 111.577 118.366C112.138 118.436 112.698 118.646 113.329 118.926C113.469 118.996 113.679 119.067 113.819 119.207C117.393 121.239 120.336 126.143 120.336 130.207C120.336 130.627 120.336 131.118 120.265 131.468C120.195 131.819 120.125 132.169 119.985 132.519C119.705 133.29 119.285 133.85 118.724 134.201L122.227 132.099H122.297C123.489 131.398 124.189 129.997 124.119 127.895C124.119 123.831 121.176 118.926 117.603 116.894C116.062 116.054 114.66 115.844 113.539 116.264L112.698 116.824L109.686 118.576Z" fill="url(#paint0_linear_1_19911)" stroke="#231F20" stroke-width="0.162342" stroke-miterlimit="10" stroke-linecap="round" stroke-linejoin="round"/>
        <path d="M126.221 129.296C126.221 129.226 126.221 129.226 126.221 129.156C124.82 123.971 121.737 118.786 117.883 115.003C117.813 114.933 117.813 114.933 117.743 114.863C116.342 113.531 114.8 112.34 113.259 111.499C112.908 111.289 112.558 111.149 112.208 110.939C110.947 110.308 109.685 109.958 108.564 109.818C107.093 109.608 105.762 109.748 104.571 110.238C104.571 110.238 104.571 110.238 104.501 110.238C101.558 111.429 99.8062 114.652 99.8062 119.417C99.9463 128.105 106.112 138.475 113.609 142.679C117.603 144.921 121.176 144.921 123.629 143.169C124.75 142.328 125.66 141.137 126.221 139.596C126.501 138.895 126.641 138.194 126.781 137.424C126.922 136.583 126.992 135.742 126.992 134.761C126.992 132.94 126.711 131.118 126.221 129.296ZM119.915 137.354C118.374 138.475 116.061 138.475 113.539 137.003C108.775 134.341 104.851 127.685 104.781 122.219C104.711 119.207 105.902 117.105 107.794 116.334C108.354 116.124 108.985 115.984 109.685 115.984C109.755 115.984 109.826 115.984 109.826 115.984C109.966 115.984 110.176 115.984 110.316 116.054C111.017 116.124 111.787 116.404 112.628 116.754C112.838 116.824 113.049 116.965 113.259 117.105C118.023 119.767 121.947 126.423 122.017 131.889C122.017 131.959 122.017 132.099 122.017 132.169C122.017 132.659 121.947 133.15 121.877 133.57C121.807 134.061 121.667 134.551 121.527 134.971C121.456 135.252 121.316 135.462 121.246 135.672C120.966 136.443 120.476 137.003 119.915 137.354Z" fill="#231F20" stroke="#231F20" stroke-width="0.162342" stroke-miterlimit="10" stroke-linecap="round" stroke-linejoin="round"/>
        <path d="M133.088 137.704C133.438 137.564 133.788 137.354 134.139 137.073L133.088 137.704ZM126.151 129.156C124.75 123.971 121.667 118.786 117.813 115.003C117.743 114.933 117.743 114.933 117.673 114.863C117.673 114.863 117.673 114.863 117.673 114.933C117.883 115.773 118.164 116.614 118.444 117.455C119.705 120.888 121.667 124.181 124.049 126.984C124.68 127.755 125.38 128.525 126.081 129.156C126.221 129.226 126.221 129.226 126.151 129.156ZM113.539 105.124L113.469 105.194C113.96 104.913 114.38 104.633 114.66 104.493C114.73 104.493 114.73 104.423 114.8 104.423C114.871 104.423 114.871 104.353 114.941 104.353L115.011 104.283L115.081 104.213C114.52 104.423 113.96 104.703 113.539 105.124Z" fill="#231F20" stroke="#231F20" stroke-width="0.162342" stroke-miterlimit="10" stroke-linecap="round" stroke-linejoin="round"/>
        <path d="M135.399 136.022C135.329 136.093 135.189 136.163 135.189 136.233C135.259 136.163 135.329 136.093 135.399 136.022Z" fill="url(#paint1_linear_1_19911)" stroke="#231F20" stroke-width="0.162342" stroke-miterlimit="10" stroke-linecap="round" stroke-linejoin="round"/>
        <path d="M137.502 128.595C137.502 129.576 137.432 130.417 137.292 131.258C137.152 132.029 136.941 132.799 136.731 133.43C136.171 134.971 135.26 136.233 134.139 137.003L133.088 137.634L123.629 143.169C124.75 142.328 125.661 141.137 126.221 139.596C126.502 138.895 126.642 138.195 126.782 137.424C126.922 136.583 126.992 135.742 126.992 134.761C126.992 133.01 126.712 131.188 126.221 129.296C126.221 129.226 126.221 129.226 126.221 129.156C124.82 123.971 121.737 118.786 117.884 115.003C117.813 114.933 117.813 114.933 117.743 114.863C116.342 113.531 114.801 112.34 113.259 111.499C112.909 111.289 112.559 111.149 112.208 110.939C110.947 110.308 109.686 109.958 108.565 109.818C107.093 109.608 105.762 109.748 104.571 110.238C104.571 110.238 104.571 110.238 104.501 110.238L113.469 105.053L113.399 105.123C113.89 104.843 114.31 104.563 114.59 104.423C114.661 104.423 114.661 104.353 114.731 104.353C114.801 104.353 114.801 104.283 114.871 104.283L114.941 104.213L115.011 104.143C116.202 103.652 117.533 103.512 119.075 103.722C120.196 103.862 121.457 104.283 122.718 104.843C123.068 104.983 123.419 105.194 123.769 105.404C125.381 106.315 126.922 107.506 128.393 108.907C132.247 112.621 135.33 117.875 136.731 123.06C137.222 124.952 137.502 126.774 137.502 128.595Z" fill="url(#paint2_linear_1_19911)" stroke="#231F20" stroke-width="0.162342" stroke-miterlimit="10" stroke-linecap="round" stroke-linejoin="round"/>
        <path d="M114.66 104.423C114.38 104.563 113.96 104.843 113.469 105.124L113.539 105.053L114.66 104.423Z" fill="#C49A6C" stroke="#231F20" stroke-width="0.162342" stroke-miterlimit="10" stroke-linecap="round" stroke-linejoin="round"/>
        <path d="M128.463 135.742C128.463 136.653 128.393 137.494 128.322 138.335L94.0603 118.997C93.9202 117.875 93.8501 116.824 93.8501 115.773C93.8501 110.238 95.8119 106.315 98.9649 104.563L99.105 104.493C101.277 103.302 104.01 103.092 107.093 104.002C108.424 104.423 109.755 104.983 111.156 105.824C116.902 109.117 122.017 115.353 125.169 122.149C127.271 126.634 128.463 131.398 128.463 135.742Z" fill="#F1F2F2" stroke="#231F20" stroke-width="0.120163" stroke-miterlimit="10" stroke-linecap="round" stroke-linejoin="round"/>
        <path d="M141.215 128.525C141.215 129.436 141.144 130.277 141.074 131.118L128.322 138.335C128.392 137.494 128.463 136.653 128.463 135.742C128.463 131.328 127.271 126.634 125.169 122.15C122.016 115.353 116.902 109.117 111.156 105.824C109.755 105.053 108.424 104.423 107.092 104.002C104.01 103.092 101.277 103.302 99.105 104.493L111.296 97.5564L112.207 97.066C115.29 95.5946 119.354 95.9449 123.908 98.5373C133.437 104.073 141.215 117.525 141.215 128.525Z" fill="#F1F2F2" stroke="#231F20" stroke-width="0.120163" stroke-miterlimit="10" stroke-linecap="round" stroke-linejoin="round"/>
        <path d="M128.463 135.742C128.463 136.653 128.393 137.494 128.322 138.335L94.0603 118.997C93.9202 117.875 93.8501 116.824 93.8501 115.773C93.8501 110.238 95.8119 106.315 98.9649 104.563L99.105 104.493C101.277 103.302 104.01 103.092 107.093 104.002C108.424 104.423 109.755 104.983 111.156 105.824C116.902 109.117 122.017 115.353 125.169 122.149C127.271 126.634 128.463 131.398 128.463 135.742Z" fill="#F1F2F2" stroke="#231F20" stroke-width="0.120163" stroke-miterlimit="10" stroke-linecap="round" stroke-linejoin="round"/>
        <path opacity="0.14" d="M128.463 135.742C128.463 136.653 128.393 137.494 128.322 138.335L94.0603 118.997C93.9202 117.875 93.8501 116.824 93.8501 115.773C93.8501 110.238 95.8119 106.315 98.9649 104.563L99.105 104.493C101.277 103.302 104.01 103.092 107.093 104.002C108.424 104.423 109.755 104.983 111.156 105.824C116.902 109.117 122.017 115.353 125.169 122.149C127.271 126.634 128.463 131.398 128.463 135.742Z" fill="black" stroke="#231F20" stroke-width="0.163954" stroke-miterlimit="10"/>
        <path d="M158.169 142.259C158.169 142.259 153.755 137.844 152.985 146.112C152.214 154.38 152.214 154.45 152.214 154.45L160.482 166.922L170.221 167.973L170.921 162.928L158.169 142.259Z" fill="#49443A" stroke="#231F20" stroke-width="0.162342" stroke-miterlimit="10" stroke-linecap="round" stroke-linejoin="round"/>
        <path d="M175.546 157.393C175.546 158.023 175.546 158.584 175.406 159.074C175.336 159.565 175.195 160.055 175.055 160.476C174.705 161.457 174.144 162.227 173.374 162.788C172.673 163.278 171.832 163.559 170.851 163.559C170.781 163.559 170.711 163.559 170.641 163.559C169.59 163.559 168.329 163.208 167.068 162.508C167.068 162.508 166.998 162.508 166.998 162.438C162.233 159.775 158.239 153.189 158.169 147.724C158.169 147.443 158.169 147.163 158.169 146.953C158.239 145.762 158.52 144.781 158.94 143.94C158.94 143.87 159.01 143.87 159.01 143.8C159.501 142.889 160.271 142.259 161.112 141.908C161.883 141.628 162.724 141.488 163.705 141.628C164.405 141.698 165.246 141.978 166.017 142.329C166.227 142.399 166.437 142.539 166.647 142.679C166.788 142.749 166.858 142.819 166.998 142.889L167.068 142.959C170.921 146.673 174.004 151.928 175.406 157.113V157.183C175.546 157.183 175.546 157.323 175.546 157.393Z" fill="#6E6657" stroke="#231F20" stroke-width="0.162342" stroke-miterlimit="10" stroke-linecap="round" stroke-linejoin="round"/>
        <path d="M156.838 150.807C156.908 154.871 159.851 159.845 163.354 161.807C165.246 162.858 166.927 162.858 168.118 162.087C168.679 161.667 169.099 161.106 169.38 160.406C169.52 160.055 169.59 159.705 169.66 159.355C169.73 158.934 169.73 158.514 169.73 158.094C169.66 154.03 166.717 149.055 163.214 147.093C163.074 147.023 162.863 146.953 162.723 146.813C162.093 146.533 161.532 146.323 160.972 146.252C160.271 146.182 159.64 146.252 159.08 146.463C157.679 146.953 156.768 148.495 156.838 150.807Z" fill="#928874" stroke="#231F20" stroke-width="0.162342" stroke-miterlimit="10" stroke-linecap="round" stroke-linejoin="round"/>
        <path d="M159.01 146.392C159.57 146.182 160.201 146.112 160.902 146.182C161.462 146.252 162.023 146.463 162.653 146.743C162.793 146.813 163.004 146.883 163.144 147.023C166.717 149.055 169.66 153.96 169.66 158.023C169.66 158.444 169.66 158.934 169.59 159.285C169.52 159.635 169.45 159.985 169.309 160.336C169.029 161.106 168.609 161.667 168.048 162.017L171.552 159.915H171.622C172.813 159.215 173.513 157.813 173.443 155.711C173.373 151.647 170.43 146.673 166.927 144.711C165.386 143.87 163.984 143.66 162.863 144.08L161.953 144.641L159.01 146.392Z" fill="url(#paint3_linear_1_19911)" stroke="#231F20" stroke-width="0.162342" stroke-miterlimit="10" stroke-linecap="round" stroke-linejoin="round"/>
        <path d="M175.546 157.113C175.546 157.042 175.546 157.042 175.546 156.972C174.144 151.788 171.061 146.603 167.208 142.819C167.138 142.749 167.138 142.749 167.068 142.679C165.666 141.348 164.125 140.157 162.583 139.316C162.233 139.106 161.883 138.966 161.532 138.755C160.271 138.125 159.01 137.774 157.889 137.634C156.418 137.424 155.086 137.564 153.895 138.055C153.895 138.055 153.895 138.055 153.825 138.055C150.883 139.246 149.131 142.469 149.131 147.233C149.201 155.851 155.367 166.221 162.864 170.425C166.857 172.667 170.431 172.737 172.883 170.915C174.004 170.075 174.915 168.884 175.476 167.342C175.756 166.641 175.896 165.941 176.036 165.17C176.176 164.329 176.246 163.489 176.246 162.508C176.316 160.826 176.036 158.934 175.546 157.113ZM169.31 165.24C167.768 166.361 165.456 166.361 162.934 164.89C158.169 162.227 154.246 155.571 154.176 150.106C154.106 147.093 155.297 144.991 157.188 144.22C157.749 144.01 158.38 143.87 159.08 143.87C159.15 143.87 159.22 143.87 159.22 143.87C159.36 143.87 159.571 143.87 159.711 143.94C160.411 144.01 161.182 144.291 162.023 144.641C162.233 144.711 162.443 144.851 162.654 144.991C167.418 147.654 171.342 154.31 171.412 159.775C171.412 159.845 171.412 159.985 171.412 160.055C171.412 160.546 171.342 161.036 171.272 161.457C171.202 161.947 171.061 162.438 170.921 162.858C170.851 163.138 170.711 163.348 170.641 163.559C170.291 164.259 169.8 164.82 169.31 165.24Z" fill="#231F20" stroke="#231F20" stroke-width="0.162342" stroke-miterlimit="10" stroke-linecap="round" stroke-linejoin="round"/>
        <path d="M182.412 165.52C182.763 165.38 183.113 165.17 183.463 164.89L182.412 165.52ZM175.546 157.042C174.145 151.858 171.062 146.673 167.208 142.889C167.138 142.819 167.138 142.819 167.068 142.749C167.068 142.749 167.068 142.749 167.068 142.819C167.278 143.66 167.558 144.501 167.839 145.341C169.1 148.775 171.062 152.068 173.444 154.87C174.075 155.641 174.775 156.412 175.476 157.042C175.546 157.112 175.546 157.042 175.546 157.042ZM162.864 132.94L162.794 133.01C163.284 132.73 163.705 132.449 163.985 132.309C164.055 132.309 164.055 132.239 164.125 132.239C164.195 132.239 164.195 132.169 164.265 132.169L164.335 132.099L164.405 132.029C163.845 132.239 163.284 132.589 162.864 132.94Z" fill="#231F20" stroke="#231F20" stroke-width="0.162342" stroke-miterlimit="10" stroke-linecap="round" stroke-linejoin="round"/>
        <path d="M184.724 163.839C184.654 163.909 184.514 163.979 184.514 164.049C184.584 163.979 184.654 163.909 184.724 163.839Z" fill="url(#paint4_linear_1_19911)" stroke="#231F20" stroke-width="0.162342" stroke-miterlimit="10" stroke-linecap="round" stroke-linejoin="round"/>
        <path d="M186.827 156.482C186.827 157.463 186.757 158.304 186.616 159.144C186.476 159.915 186.266 160.686 186.056 161.317C185.495 162.858 184.585 164.119 183.464 164.89L182.413 165.52L172.954 171.056C174.075 170.215 174.986 169.024 175.546 167.482C175.826 166.782 175.966 166.081 176.107 165.31C176.247 164.469 176.317 163.629 176.317 162.648C176.317 160.896 176.037 159.074 175.546 157.183C175.546 157.113 175.546 157.113 175.546 157.043C174.145 151.858 171.062 146.673 167.208 142.889C167.138 142.819 167.138 142.819 167.068 142.749C165.667 141.418 164.125 140.227 162.584 139.386C162.234 139.176 161.883 139.036 161.533 138.825C160.272 138.195 159.011 137.844 157.889 137.704C156.418 137.494 155.087 137.634 153.896 138.125C153.896 138.125 153.896 138.125 153.826 138.125L162.794 132.94L162.724 133.01C163.214 132.73 163.635 132.449 163.915 132.309C163.985 132.309 163.985 132.239 164.055 132.239C164.125 132.239 164.125 132.169 164.195 132.169L164.265 132.099L164.336 132.029C165.527 131.539 166.858 131.398 168.399 131.609C169.52 131.749 170.782 132.169 172.043 132.73C172.393 132.87 172.743 133.08 173.094 133.29C174.705 134.201 176.247 135.392 177.718 136.793C181.572 140.507 184.655 145.762 186.056 150.947C186.546 152.768 186.827 154.66 186.827 156.482Z" fill="url(#paint5_linear_1_19911)" stroke="#231F20" stroke-width="0.162342" stroke-miterlimit="10" stroke-linecap="round" stroke-linejoin="round"/>
        <path d="M163.985 132.239C163.705 132.379 163.284 132.66 162.794 132.94L162.864 132.87L163.985 132.239Z" fill="#C49A6C" stroke="#231F20" stroke-width="0.162342" stroke-miterlimit="10" stroke-linecap="round" stroke-linejoin="round"/>
        <path d="M177.788 163.629C177.788 164.539 177.718 165.38 177.648 166.221L143.386 146.883C143.246 145.762 143.176 144.711 143.176 143.66C143.176 138.125 145.138 134.201 148.291 132.449L148.431 132.309C150.603 131.118 153.335 130.908 156.418 131.819C157.749 132.239 159.081 132.8 160.482 133.64C166.227 136.934 171.342 143.169 174.495 149.966C176.597 154.45 177.788 159.214 177.788 163.629Z" fill="#F1F2F2" stroke="#231F20" stroke-width="0.120163" stroke-miterlimit="10" stroke-linecap="round" stroke-linejoin="round"/>
        <path d="M177.788 163.629C177.788 164.539 177.718 165.38 177.648 166.221L143.386 146.883C143.246 145.762 143.176 144.711 143.176 143.66C143.176 138.125 145.138 134.201 148.291 132.449L148.431 132.309C150.603 131.118 153.335 130.908 156.418 131.819C157.749 132.239 159.081 132.8 160.482 133.64C166.227 136.934 171.342 143.169 174.495 149.966C176.597 154.45 177.788 159.214 177.788 163.629Z" fill="#F1F2F2" stroke="#231F20" stroke-width="0.120163" stroke-miterlimit="10" stroke-linecap="round" stroke-linejoin="round"/>
        <path opacity="0.14" d="M177.788 163.629C177.788 164.539 177.718 165.38 177.648 166.221L143.386 146.883C143.246 145.762 143.176 144.711 143.176 143.66C143.176 138.125 145.138 134.201 148.291 132.449L148.431 132.309C150.603 131.118 153.335 130.908 156.418 131.819C157.749 132.239 159.081 132.8 160.482 133.64C166.227 136.934 171.342 143.169 174.495 149.966C176.597 154.45 177.788 159.214 177.788 163.629Z" fill="black" stroke="#231F20" stroke-width="0.163954" stroke-miterlimit="10"/>
        <path d="M190.54 156.342C190.54 157.253 190.47 158.093 190.4 158.934L177.648 166.151C177.718 165.31 177.788 164.469 177.788 163.559C177.788 159.144 176.597 154.45 174.495 149.966C171.342 143.169 166.227 136.934 160.482 133.64C159.081 132.8 157.749 132.239 156.418 131.819C153.335 130.908 150.603 131.118 148.431 132.309L160.622 125.443L161.533 124.952C164.616 123.481 168.75 123.831 173.234 126.424C182.763 131.959 190.54 145.341 190.54 156.342Z" fill="#F1F2F2" stroke="#231F20" stroke-width="0.120163" stroke-miterlimit="10" stroke-linecap="round" stroke-linejoin="round"/>
        <path d="M176.738 159.705L176.177 160.055C176.107 160.055 176.107 160.055 176.037 160.055C176.317 159.915 176.528 159.845 176.738 159.705Z" fill="#F1F2F2" stroke="#231F20" stroke-width="0.227924" stroke-miterlimit="10" stroke-linecap="round" stroke-linejoin="round"/>
        <path d="M176.738 159.705L176.177 160.055C176.107 160.055 176.107 160.055 176.037 160.055C176.317 159.915 176.528 159.845 176.738 159.705Z" fill="#F1F2F2" stroke="#231F20" stroke-width="0.227924" stroke-miterlimit="10" stroke-linecap="round" stroke-linejoin="round"/>
        <path d="M176.738 159.705L176.177 160.055C176.107 160.055 176.107 160.055 176.037 160.055C176.317 159.915 176.528 159.845 176.738 159.705Z" fill="#F1F2F2" stroke="#231F20" stroke-width="0.227924" stroke-miterlimit="10" stroke-linecap="round" stroke-linejoin="round"/>
        <path d="M176.738 159.705L176.177 160.055C176.107 160.055 176.107 160.055 176.037 160.055C176.317 159.915 176.528 159.845 176.738 159.705Z" fill="#F1F2F2" stroke="#231F20" stroke-width="0.227924" stroke-miterlimit="10" stroke-linecap="round" stroke-linejoin="round"/>
        <path d="M176.738 159.705L176.177 160.055C176.107 160.055 176.107 160.055 176.037 160.055C176.317 159.915 176.528 159.845 176.738 159.705Z" fill="#F1F2F2" stroke="#231F20" stroke-width="0.227924" stroke-miterlimit="10" stroke-linecap="round" stroke-linejoin="round"/>
        <path d="M171.623 156.342C171.623 157.253 171.553 158.163 171.412 159.004C171.342 159.495 171.202 159.915 171.132 160.335C170.992 160.896 170.782 161.386 170.572 161.877C170.431 162.157 170.291 162.437 170.151 162.718C169.941 163.138 169.661 163.488 169.381 163.839C168.96 164.329 168.4 164.75 167.839 165.1L167.699 165.17C165.247 166.571 161.954 166.361 158.24 164.189C157.75 163.909 157.329 163.629 156.909 163.348L108.633 135.462C108.353 135.322 108.073 135.182 107.793 134.972C100.296 130.698 94.27 120.258 94.27 111.71C94.27 109.958 94.4802 108.487 94.9707 107.226C95.6013 105.334 96.7223 103.932 98.1236 103.092C98.1937 103.092 98.1937 103.022 98.2638 103.022C98.8944 102.671 99.525 102.461 100.226 102.321C100.366 102.181 100.576 102.181 100.786 102.111C100.996 102.111 101.207 102.041 101.417 102.041L103.589 101.83L104.079 101.76L110.946 101.2L111.436 101.13L115.29 100.78H117.111L120.405 100.499L126.08 100.079C126.43 100.009 126.71 100.009 127.061 100.009C127.201 100.009 127.411 100.009 127.621 100.009C128.602 100.009 129.583 100.219 130.704 100.639C131.545 100.92 132.456 101.34 133.367 101.83C134.628 102.601 135.889 103.512 137.08 104.563C138.061 105.474 138.972 106.455 139.883 107.506L139.953 107.576C140.163 107.856 140.443 108.136 140.654 108.417L152.284 123.13L152.985 124.041L154.737 126.213L155.087 126.634L157.609 129.857L160.062 132.94L163.705 137.564C164.336 138.195 164.896 138.895 165.457 139.666C165.877 140.156 166.228 140.717 166.578 141.207C169.451 145.481 171.412 150.526 171.693 155.151C171.553 155.501 171.623 155.921 171.623 156.342Z" fill="#F1F2F2" stroke="#231F20" stroke-width="0.227924" stroke-miterlimit="10" stroke-linecap="round" stroke-linejoin="round"/>
        <path opacity="0.14" d="M171.623 156.342C171.623 157.253 171.553 158.163 171.412 159.004C171.342 159.495 171.202 159.915 171.132 160.335C170.992 160.896 170.782 161.386 170.572 161.877C170.431 162.157 170.291 162.437 170.151 162.718C169.941 163.138 169.661 163.488 169.381 163.839C168.96 164.329 168.4 164.75 167.839 165.1L167.699 165.17C165.247 166.571 161.954 166.361 158.24 164.189C157.75 163.909 157.329 163.629 156.909 163.348L108.633 135.462C108.353 135.322 108.073 135.182 107.793 134.972C100.296 130.698 94.27 120.258 94.27 111.71C94.27 109.958 94.4802 108.487 94.9707 107.226C95.6013 105.334 96.7223 103.932 98.1236 103.092C98.1937 103.092 98.1937 103.022 98.2638 103.022C98.8944 102.671 99.525 102.461 100.226 102.321C100.366 102.181 100.576 102.181 100.786 102.111C100.996 102.111 101.207 102.041 101.417 102.041L103.589 101.83L104.079 101.76L110.946 101.2L111.436 101.13L115.29 100.78H117.111L120.405 100.499L126.08 100.079C126.43 100.009 126.71 100.009 127.061 100.009C127.201 100.009 127.411 100.009 127.621 100.009C128.602 100.009 129.583 100.219 130.704 100.639C131.545 100.92 132.456 101.34 133.367 101.83C134.628 102.601 135.889 103.512 137.08 104.563C138.061 105.474 138.972 106.455 139.883 107.506L139.953 107.576C140.163 107.856 140.443 108.136 140.654 108.417L152.284 123.13L152.985 124.041L154.737 126.213L155.087 126.634L157.609 129.857L160.062 132.94L163.705 137.564C164.336 138.195 164.896 138.895 165.457 139.666C165.877 140.156 166.228 140.717 166.578 141.207C169.451 145.481 171.412 150.526 171.693 155.151C171.553 155.501 171.623 155.921 171.623 156.342Z" fill="black" stroke="#231F20" stroke-width="0.227924" stroke-miterlimit="10"/>
        <path d="M180.731 151.017C180.731 155.291 179.26 158.233 176.878 159.705L176.738 159.775C176.527 159.915 176.317 159.985 176.037 160.125C176.107 160.125 176.107 160.125 176.177 160.125L171.903 162.648L170.922 163.208L169.591 163.979L167.769 165.03C168.33 164.68 168.82 164.259 169.311 163.769C169.591 163.418 169.871 163.068 170.081 162.648C170.221 162.367 170.362 162.087 170.502 161.807C170.712 161.316 170.922 160.826 171.062 160.265C171.202 159.845 171.272 159.425 171.343 158.934C171.483 158.093 171.553 157.253 171.553 156.272C171.553 155.851 171.553 155.431 171.483 155.01C171.202 150.386 169.241 145.341 166.368 141.067C166.018 140.507 165.597 140.016 165.247 139.526C164.686 138.825 164.126 138.125 163.495 137.424L159.852 132.8L157.399 129.717L154.877 126.494L154.527 126.073L152.775 123.901L152.074 122.99L140.444 108.277C140.233 107.996 140.023 107.716 139.743 107.436L139.673 107.366C138.832 106.315 137.851 105.334 136.87 104.423C135.679 103.372 134.488 102.461 133.157 101.69C132.246 101.2 131.405 100.78 130.494 100.499C129.443 100.149 128.392 99.9388 127.411 99.8687C127.201 99.8687 127.061 99.8687 126.851 99.8687C126.5 99.8687 126.22 99.9388 125.87 99.9388L120.194 100.429L117.112 100.78L115.22 100.92L111.366 101.27L110.876 101.34L104.009 101.901L103.519 101.971L101.347 102.181C101.137 102.181 100.926 102.181 100.716 102.251C100.506 102.251 100.366 102.321 100.156 102.321C99.455 102.461 98.8244 102.741 98.1938 103.022L100.226 101.831L107.302 97.6266C108.073 97.2062 108.914 96.926 109.825 96.7858C110.035 96.7858 110.245 96.7158 110.455 96.7158L111.086 96.6457L113.889 96.4355L115.5 96.2954L126.08 95.4546L129.163 95.1743L130.424 95.1042L135.189 94.6838C135.539 94.6138 135.819 94.6138 136.169 94.6138C138.061 94.5437 140.163 95.1743 142.405 96.4355C144.718 97.7667 146.96 99.7286 148.851 102.111L148.921 102.181C149.132 102.461 149.412 102.741 149.622 103.022L154.667 109.398L161.954 118.646L163.705 120.888L165.877 123.621L168.89 127.475L172.604 132.169C173.655 133.29 174.636 134.551 175.476 135.812C175.546 135.883 175.546 135.953 175.617 135.953C176.037 136.583 176.387 137.144 176.738 137.774C178.699 141.137 180.031 144.851 180.451 148.354C180.661 149.265 180.731 150.106 180.731 151.017Z" fill="#F1F2F2" stroke="#231F20" stroke-width="0.227924" stroke-miterlimit="10" stroke-linecap="round" stroke-linejoin="round"/>
    </g>
    <defs>
        <linearGradient id="paint0_linear_1_19911" x1="114.611" y1="117.625" x2="121.497" y2="130.231" gradientUnits="userSpaceOnUse">
            <stop stop-color="#C2B59B"/>
            <stop offset="1" stop-color="#49443A"/>
        </linearGradient>
        <linearGradient id="paint1_linear_1_19911" x1="135.337" y1="136.023" x2="135.234" y2="136.217" gradientUnits="userSpaceOnUse">
            <stop stop-color="#58595B"/>
            <stop offset="1"/>
        </linearGradient>
        <linearGradient id="paint2_linear_1_19911" x1="122.194" y1="140.834" x2="120.221" y2="104.589" gradientUnits="userSpaceOnUse">
            <stop/>
            <stop offset="1" stop-color="#58595B"/>
        </linearGradient>
        <linearGradient id="paint3_linear_1_19911" x1="163.948" y1="145.468" x2="170.834" y2="158.074" gradientUnits="userSpaceOnUse">
            <stop stop-color="#C2B59B"/>
            <stop offset="1" stop-color="#49443A"/>
        </linearGradient>
        <linearGradient id="paint4_linear_1_19911" x1="184.675" y1="163.866" x2="184.572" y2="164.06" gradientUnits="userSpaceOnUse">
            <stop stop-color="#58595B"/>
            <stop offset="1"/>
        </linearGradient>
        <linearGradient id="paint5_linear_1_19911" x1="171.531" y1="168.677" x2="169.559" y2="132.432" gradientUnits="userSpaceOnUse">
            <stop/>
            <stop offset="1" stop-color="#58595B"/>
        </linearGradient>
        <clipPath id="">
            <rect width="96.8309" height="77.9131" fill="white" transform="translate(93.7793 94.4736)"/>
        </clipPath>
    </defs>


    <g clip-path="url(#)">
        <path d="M65.8939 95.805C65.1232 96.5757 64.3524 96.8559 63.6518 96.7859C63.5117 96.7859 63.3715 96.7158 63.3015 96.7158C63.2314 96.7158 63.2314 96.7158 63.1613 96.6457C63.0212 96.5757 62.9511 96.5056 62.811 96.4355C62.7409 96.4355 62.7409 96.3655 62.6709 96.3655C62.5307 96.2954 62.4607 96.1553 62.3906 96.0152C62.1804 95.7349 61.9702 95.3145 61.8301 94.824C61.8301 94.754 61.76 94.6839 61.76 94.6138C61.76 94.5438 61.6899 94.4737 61.6899 94.3336C61.6899 94.2635 61.6899 94.1934 61.6899 94.1234C61.6899 94.0533 61.6899 94.0533 61.6899 93.9832V93.9132C61.6899 93.773 61.6899 93.703 61.6899 93.5629C61.6899 93.4227 61.6899 93.3527 61.6899 93.2125C61.6899 93.0724 61.6899 93.0023 61.6899 92.8622V92.7921C61.6899 92.652 61.6899 92.5819 61.6899 92.4418C61.6899 92.3017 61.6899 92.1615 61.76 92.0915C61.76 92.0214 61.76 91.8813 61.8301 91.8112V91.6711C61.8301 91.601 61.8301 91.4609 61.9001 91.3908C61.9702 91.1106 62.0403 90.8303 62.1103 90.6201C62.1103 90.48 62.1804 90.4099 62.1804 90.2698C62.2505 90.1296 62.2505 90.0596 62.3205 89.9194C62.3906 89.7092 62.5307 89.429 62.6008 89.2188C62.7409 89.0086 62.811 88.7984 62.9511 88.5882C63.0212 88.5181 63.0913 88.378 63.1613 88.3079C63.3015 88.0977 63.4416 87.9576 63.5817 87.7474C63.7218 87.6073 63.862 87.3971 64.0021 87.2569L64.0722 87.1869C64.1422 87.1168 64.1422 87.1168 64.2123 87.0467C64.2824 86.9767 64.2824 86.9767 64.3524 86.9066C64.4225 86.8365 64.4225 86.8365 64.4926 86.8365C64.7028 86.6964 64.8429 86.6263 65.0531 86.4862C65.1232 86.4862 65.1232 86.4161 65.1932 86.4161C65.2633 86.4161 65.2633 86.3461 65.3334 86.3461C65.4034 86.3461 65.4735 86.276 65.4735 86.276C65.5436 86.276 65.5436 86.276 65.6136 86.276C65.6837 86.276 65.6837 86.276 65.7538 86.276C66.034 86.2059 66.2442 86.276 66.4544 86.276C67.2952 86.4862 67.9258 87.1869 68.2061 88.4481C68.6265 90.8303 67.6455 94.1234 65.8939 95.805Z" fill="#F1F2F2" stroke="#231F20" stroke-width="0.201439" stroke-miterlimit="10" stroke-linecap="round" stroke-linejoin="round"/>
        <path opacity="0.2" d="M65.8939 95.805C65.1232 96.5757 64.3524 96.8559 63.6518 96.7859C63.5117 96.7859 63.3715 96.7158 63.3015 96.7158C63.2314 96.7158 63.2314 96.7158 63.1613 96.6457C63.0212 96.5757 62.9511 96.5056 62.811 96.4355C62.7409 96.4355 62.7409 96.3655 62.6709 96.3655C62.5307 96.2954 62.4607 96.1553 62.3906 96.0152C62.1804 95.7349 61.9702 95.3145 61.8301 94.824C61.8301 94.754 61.76 94.6839 61.76 94.6138C61.76 94.5438 61.6899 94.4737 61.6899 94.3336C61.6899 94.2635 61.6899 94.1934 61.6899 94.1234C61.6899 94.0533 61.6899 94.0533 61.6899 93.9832V93.9132C61.6899 93.773 61.6899 93.703 61.6899 93.5629C61.6899 93.4227 61.6899 93.3527 61.6899 93.2125C61.6899 93.0724 61.6899 93.0023 61.6899 92.8622V92.7921C61.6899 92.652 61.6899 92.5819 61.6899 92.4418C61.6899 92.3017 61.6899 92.1615 61.76 92.0915C61.76 92.0214 61.76 91.8813 61.8301 91.8112V91.6711C61.8301 91.601 61.8301 91.4609 61.9001 91.3908C61.9702 91.1106 62.0403 90.8303 62.1103 90.6201C62.1103 90.48 62.1804 90.4099 62.1804 90.2698C62.2505 90.1296 62.2505 90.0596 62.3205 89.9194C62.3906 89.7092 62.5307 89.429 62.6008 89.2188C62.7409 89.0086 62.811 88.7984 62.9511 88.5882C63.0212 88.5181 63.0913 88.378 63.1613 88.3079C63.3015 88.0977 63.4416 87.9576 63.5817 87.7474C63.7218 87.6073 63.862 87.3971 64.0021 87.2569L64.0722 87.1869C64.1422 87.1168 64.1422 87.1168 64.2123 87.0467C64.2824 86.9767 64.2824 86.9767 64.3524 86.9066C64.4225 86.8365 64.4225 86.8365 64.4926 86.8365C64.7028 86.6964 64.8429 86.6263 65.0531 86.4862C65.1232 86.4862 65.1232 86.4161 65.1932 86.4161C65.2633 86.4161 65.2633 86.3461 65.3334 86.3461C65.4034 86.3461 65.4735 86.276 65.4735 86.276C65.5436 86.276 65.5436 86.276 65.6136 86.276C65.6837 86.276 65.6837 86.276 65.7538 86.276C66.034 86.2059 66.2442 86.276 66.4544 86.276C67.2952 86.4862 67.9258 87.1869 68.2061 88.4481C68.6265 90.8303 67.6455 94.1234 65.8939 95.805Z" fill="black" stroke="#231F20" stroke-width="0.209427" stroke-miterlimit="10"/>
        <path d="M66.3143 86.3459C66.1041 86.2759 65.8238 86.2759 65.6136 86.3459C65.5435 86.3459 65.5435 86.3459 65.4735 86.3459C65.4034 86.3459 65.4034 86.3459 65.3333 86.3459C65.2633 86.3459 65.1932 86.3459 65.1932 86.416C65.1231 86.416 65.1231 86.416 65.0531 86.4861C64.983 86.4861 64.983 86.5561 64.9129 86.5561C64.7028 86.6262 64.5626 86.7663 64.3524 86.9065C64.2824 86.9065 64.2824 86.9765 64.2123 86.9765C64.1422 86.9765 64.1422 87.0466 64.0722 87.1167C64.0021 87.1867 64.0021 87.1867 63.932 87.2568L63.862 87.3269C63.7218 87.467 63.5817 87.6071 63.4416 87.8173C63.3014 87.9574 63.1613 88.1676 63.0212 88.3778C62.9511 88.4479 62.881 88.588 62.811 88.6581C62.6708 88.8683 62.5307 89.0785 62.4606 89.2887C62.3205 89.4989 62.2504 89.7792 62.1804 89.9894C62.1103 90.1295 62.1103 90.1996 62.0403 90.3397C61.9702 90.4798 61.9702 90.5499 61.9702 90.69C61.9001 90.9703 61.8301 91.2505 61.76 91.4607C61.76 91.5308 61.6899 91.6709 61.6899 91.741V91.8811C61.6899 91.9512 61.6899 92.0913 61.6199 92.1614C61.6199 92.3015 61.6199 92.4417 61.5498 92.5117C61.5498 92.6519 61.5498 92.7219 61.5498 92.862V92.9321C61.5498 93.0722 61.5498 93.1423 61.5498 93.2824C61.5498 93.4226 61.5498 93.4926 61.5498 93.6328C61.5498 93.7729 61.5498 93.843 61.5498 93.9831V94.0532C61.5498 94.1232 61.5498 94.1232 61.5498 94.1933C61.5498 94.2634 61.5498 94.3334 61.5498 94.4035C61.5498 94.4736 61.6199 94.5436 61.6199 94.6838C61.6199 94.7538 61.6899 94.8239 61.6899 94.894C61.8301 95.3844 62.0403 95.7347 62.2504 96.0851C62.3205 96.2252 62.4606 96.2953 62.5307 96.4354C62.6008 96.4354 62.6008 96.5055 62.6708 96.5055C62.811 96.5755 62.881 96.6456 63.0212 96.7157C63.0912 96.7157 63.0912 96.7157 63.1613 96.7857L61.0593 96.2252C60.9893 96.2252 60.8491 96.1551 60.7791 96.1551H60.709C60.0083 95.8749 59.5179 95.1742 59.2376 94.1232C58.6771 91.6709 59.5879 88.4479 61.2695 86.7663C61.3396 86.6963 61.3396 86.6963 61.4097 86.6262C61.4797 86.5561 61.4797 86.5561 61.5498 86.4861C62.2504 85.8555 63.0212 85.5752 63.6518 85.6453L64.1422 85.7854L66.3143 86.3459Z" fill="#F1F2F2" stroke="#231F20" stroke-width="0.201439" stroke-miterlimit="10" stroke-linecap="round" stroke-linejoin="round"/>
        <path d="M72.6205 94.6838V104.213C72.6205 104.703 72.2702 105.194 71.6396 105.614C70.8688 106.034 69.8179 106.245 68.8369 106.175C68.1363 106.105 67.4356 105.964 66.8751 105.614C66.2445 105.264 65.8942 104.703 65.8942 104.213V98.7476C65.8942 98.7476 65.8942 98.5374 65.8942 98.2572C65.8241 97.9068 65.684 97.3463 65.2636 96.8558C64.9133 96.4354 64.4929 96.0851 63.7221 95.7348C63.3718 95.5947 63.1616 95.3144 63.0215 94.9641C63.0215 94.9641 63.0215 94.9641 63.0215 94.894C63.0215 94.8239 62.9514 94.7539 62.9514 94.6838C62.9514 94.6137 62.8813 94.5437 62.8813 94.4035C62.8813 94.3335 62.8813 94.2634 62.8813 94.1933C62.8813 94.1233 62.8813 94.1233 62.8813 94.0532V93.9831C62.8813 93.843 62.8813 93.7729 62.8813 93.6328C62.8813 93.4927 62.8813 93.3526 62.8813 93.2825C62.8813 93.2124 62.8813 93.0723 62.8813 92.9322V92.8621C62.8813 92.792 62.8813 92.6519 62.8813 92.5118C62.8813 92.3716 62.8813 92.2315 62.9514 92.1614C62.9514 92.0914 62.9514 91.9512 63.0215 91.8812V91.741C63.0215 91.671 63.0215 91.5308 63.0915 91.4608C63.1616 91.1805 63.2317 90.9003 63.3017 90.6901C63.3017 90.5499 63.3718 90.4799 63.3718 90.3397C63.4419 90.1996 63.4419 90.1295 63.5119 89.9894C63.582 89.7792 63.7221 89.4989 63.7922 89.2887C63.9323 89.0785 64.0024 88.8683 64.1425 88.6581C64.2126 88.5881 64.2827 88.448 64.3527 88.3779C64.3527 88.3078 64.4228 88.3078 64.4228 88.2378C64.9133 87.6072 65.5438 87.397 65.684 87.397C66.3846 87.2568 67.0853 87.1868 67.7159 87.1868C68.0662 87.1868 68.4165 87.2568 68.7669 87.3269C69.4675 87.467 70.0281 87.8174 70.5886 88.3078C70.7287 88.518 70.9389 88.6581 71.079 88.7983C71.7096 89.6391 72.2001 90.8302 72.4804 92.5118C72.6205 93.1424 72.6205 93.843 72.6205 94.6838Z" fill="#F1F2F2" stroke="#231F20" stroke-width="0.201439" stroke-miterlimit="10" stroke-linecap="round" stroke-linejoin="round"/>
        <path d="M65.8242 98.2572C65.8242 98.5375 65.8242 98.7477 65.8242 98.7477V98.2572Z" fill="url(#paint0_linear_1_19911)" stroke="#231F20" stroke-width="0.190369" stroke-miterlimit="10" stroke-linecap="round" stroke-linejoin="round"/>
        <path d="M71.0788 88.7983C70.9387 88.6582 70.7986 88.448 70.5884 88.3079C70.7986 88.3779 70.9387 88.5881 71.0788 88.7983Z" fill="url(#paint1_linear_1_19911)" stroke="#231F20" stroke-width="0.190369" stroke-miterlimit="10" stroke-linecap="round" stroke-linejoin="round"/>
        <path opacity="0.2" d="M72.6199 94.6838V104.213C72.6199 104.703 72.2696 105.194 71.639 105.614C70.8683 106.034 69.8173 106.245 68.8364 106.175C69.1166 106.105 69.3969 105.964 69.6772 105.824C70.3778 105.404 70.7282 104.913 70.7282 104.423V94.4035C70.7282 90.1295 69.467 87.9575 67.7153 87.1167C68.0657 87.1167 68.416 87.1868 68.7663 87.2568C69.467 87.397 70.0275 87.7473 70.588 88.2378C70.7282 88.4479 70.9384 88.5881 71.0785 88.7282C71.7091 89.569 72.1995 90.7601 72.4798 92.4417C72.6199 93.1424 72.6199 93.843 72.6199 94.6838Z" fill="black" stroke="#231F20" stroke-width="0.209427" stroke-miterlimit="10"/>
        <path d="M64.0723 88.588C64.1423 88.4479 64.2124 88.3077 64.3525 88.1676C64.3525 88.2377 64.2825 88.2377 64.2825 88.3077C64.2124 88.3778 64.1423 88.5179 64.0723 88.588Z" fill="url(#paint2_linear_1_19911)" stroke="#231F20" stroke-width="0.190369" stroke-miterlimit="10" stroke-linecap="round" stroke-linejoin="round"/>
        <path d="M80.6075 87.2569C79.8368 88.0276 78.996 88.3078 78.2953 88.2378C78.1552 88.2378 78.0151 88.1677 77.945 88.1677C77.8749 88.1677 77.8749 88.1677 77.8049 88.0977C77.6647 88.0276 77.5947 87.9575 77.4545 87.8875C77.3845 87.8875 77.3845 87.8174 77.3144 87.8174C77.1743 87.7473 77.1042 87.6072 77.0342 87.4671C76.824 87.1868 76.6138 86.7664 76.4736 86.2759C76.4736 86.2059 76.4036 86.1358 76.4036 86.0657C76.4036 85.9957 76.3335 85.9256 76.3335 85.7855C76.3335 85.7154 76.3335 85.6453 76.3335 85.5753C76.3335 85.5052 76.3335 85.5052 76.3335 85.4352V85.3651C76.3335 85.225 76.3335 85.1549 76.3335 85.0148C76.3335 84.8746 76.3335 84.8046 76.3335 84.6644C76.3335 84.5243 76.3335 84.4542 76.3335 84.3141V84.244C76.3335 84.1039 76.3335 84.0338 76.3335 83.8937C76.3335 83.7536 76.3335 83.6134 76.4036 83.5434C76.4036 83.4733 76.4036 83.3332 76.4736 83.2631V83.123C76.4736 83.0529 76.4736 82.9128 76.5437 82.8427C76.6138 82.5625 76.6838 82.2822 76.7539 82.072C76.7539 81.9319 76.824 81.8618 76.824 81.7217C76.894 81.5815 76.894 81.5115 76.9641 81.3713C77.0342 81.1611 77.1743 80.8809 77.2444 80.6707C77.3845 80.4605 77.4546 80.2503 77.5947 80.0401C77.5246 79.8299 77.5947 79.7598 77.6647 79.6197C77.8049 79.4095 77.945 79.2694 78.0851 79.0592C78.2253 78.919 78.3654 78.7088 78.5055 78.5687L78.5756 78.4986C78.6457 78.4286 78.6457 78.4286 78.7157 78.3585C78.7858 78.4286 78.7858 78.3585 78.8559 78.3585C78.9259 78.2884 78.9259 78.2884 78.996 78.2884C79.2062 78.1483 79.3463 78.0782 79.5565 77.9381C79.6266 77.9381 79.6266 77.868 79.6967 77.868C79.7667 77.868 79.7667 77.798 79.8368 77.798C79.9068 77.798 79.9769 77.7279 79.9769 77.7279C80.047 77.7279 80.047 77.7279 80.117 77.7279C80.1871 77.7279 80.1871 77.7279 80.2572 77.7279C80.5374 77.6579 80.7476 77.7279 80.9578 77.7279C81.7986 77.9381 82.4292 78.6388 82.7095 79.9C83.3401 82.2822 82.3592 85.5753 80.6075 87.2569Z" fill="#F1F2F2" stroke="#231F20" stroke-width="0.201439" stroke-miterlimit="10" stroke-linecap="round" stroke-linejoin="round"/>
        <path opacity="0.2" d="M80.6075 87.2569C79.8368 88.0276 78.996 88.3078 78.2953 88.2378C78.1552 88.2378 78.0151 88.1677 77.945 88.1677C77.8749 88.1677 77.8749 88.1677 77.8049 88.0977C77.6647 88.0276 77.5947 87.9575 77.4545 87.8875C77.3845 87.8875 77.3845 87.8174 77.3144 87.8174C77.1743 87.7473 77.1042 87.6072 77.0342 87.4671C76.824 87.1868 76.6138 86.7664 76.4736 86.2759C76.4736 86.2059 76.4036 86.1358 76.4036 86.0657C76.4036 85.9957 76.3335 85.9256 76.3335 85.7855C76.3335 85.7154 76.3335 85.6453 76.3335 85.5753C76.3335 85.5052 76.3335 85.5052 76.3335 85.4352V85.3651C76.3335 85.225 76.3335 85.1549 76.3335 85.0148C76.3335 84.8746 76.3335 84.8046 76.3335 84.6644C76.3335 84.5243 76.3335 84.4542 76.3335 84.3141V84.244C76.3335 84.1039 76.3335 84.0338 76.3335 83.8937C76.3335 83.7536 76.3335 83.6134 76.4036 83.5434C76.4036 83.4733 76.4036 83.3332 76.4736 83.2631V83.123C76.4736 83.0529 76.4736 82.9128 76.5437 82.8427C76.6138 82.5625 76.6838 82.2822 76.7539 82.072C76.7539 81.9319 76.824 81.8618 76.824 81.7217C76.894 81.5815 76.894 81.5115 76.9641 81.3713C77.0342 81.1611 77.1743 80.8809 77.2444 80.6707C77.3845 80.4605 77.4546 80.2503 77.5947 80.0401C77.5246 79.8299 77.5947 79.7598 77.6647 79.6197C77.8049 79.4095 77.945 79.2694 78.0851 79.0592C78.2253 78.919 78.3654 78.7088 78.5055 78.5687L78.5756 78.4986C78.6457 78.4286 78.6457 78.4286 78.7157 78.3585C78.7858 78.4286 78.7858 78.3585 78.8559 78.3585C78.9259 78.2884 78.9259 78.2884 78.996 78.2884C79.2062 78.1483 79.3463 78.0782 79.5565 77.9381C79.6266 77.9381 79.6266 77.868 79.6967 77.868C79.7667 77.868 79.7667 77.798 79.8368 77.798C79.9068 77.798 79.9769 77.7279 79.9769 77.7279C80.047 77.7279 80.047 77.7279 80.117 77.7279C80.1871 77.7279 80.1871 77.7279 80.2572 77.7279C80.5374 77.6579 80.7476 77.7279 80.9578 77.7279C81.7986 77.9381 82.4292 78.6388 82.7095 79.9C83.3401 82.2822 82.3592 85.5753 80.6075 87.2569Z" fill="black" stroke="#231F20" stroke-width="0.209427" stroke-miterlimit="10"/>
        <path d="M80.9578 77.7279C80.7476 77.6578 80.4674 77.6578 80.2572 77.7279C80.1871 77.7279 80.1871 77.7279 80.117 77.7279C80.047 77.7279 80.047 77.7279 79.9769 77.7279C79.9068 77.7279 79.8368 77.7279 79.8368 77.798C79.7667 77.798 79.7667 77.798 79.6966 77.868C79.6266 77.868 79.6266 77.9381 79.5565 77.9381C79.3463 78.0082 79.2062 78.1483 78.996 78.2884C78.9259 78.2884 78.9259 78.3585 78.8558 78.3585C78.7858 78.3585 78.7858 78.4286 78.7157 78.4986C78.6456 78.5687 78.6456 78.5687 78.5756 78.6388L78.5055 78.7088C78.3654 78.8489 78.2253 78.9891 78.0851 79.1993C77.945 79.3394 77.8049 79.5496 77.6647 79.7598C77.5947 79.8299 77.5246 79.97 77.4545 80.0401C77.3144 80.2503 77.1743 80.4605 77.1042 80.6707C76.9641 80.8809 76.894 81.1611 76.8239 81.3713C76.7539 81.5114 76.7539 81.5815 76.6838 81.7216C76.6137 81.8618 76.6137 81.9318 76.6137 82.072C76.5437 82.3522 76.4736 82.6325 76.4035 82.8427C76.4035 82.9128 76.3335 83.0529 76.3335 83.123V83.2631C76.3335 83.3332 76.3335 83.4733 76.2634 83.5434C76.2634 83.6835 76.2634 83.8236 76.1933 83.8937C76.1933 84.0338 76.1933 84.1039 76.1933 84.244V84.3141C76.1933 84.4542 76.1933 84.5243 76.1933 84.6644C76.1933 84.8045 76.1933 84.8746 76.1933 85.0147C76.1933 85.1549 76.1933 85.2249 76.1933 85.3651V85.4351C76.1933 85.5052 76.1933 85.5052 76.1933 85.5753C76.1933 85.6453 76.1933 85.7154 76.1933 85.7855C76.1933 85.8555 76.2634 85.9256 76.2634 86.0657C76.2634 86.1358 76.3335 86.2059 76.3335 86.2759C76.4736 86.7664 76.6838 87.1167 76.894 87.467C76.9641 87.6072 77.1042 87.6772 77.1743 87.8174C77.2443 87.8174 77.2443 87.8874 77.3144 87.8874C77.4545 87.9575 77.5246 88.0276 77.6647 88.0976C77.7348 88.0976 77.7348 88.0976 77.8049 88.1677L75.7029 87.6072C75.6328 87.6072 75.4927 87.5371 75.4226 87.5371H75.3526C74.6519 87.2568 74.1614 86.5562 73.8812 85.5052C73.3206 83.193 74.2315 80.0401 75.9131 78.2884C75.9831 78.2184 75.9831 78.2184 76.0532 78.1483C76.1233 78.0782 76.1233 78.0782 76.1933 78.0082C76.894 77.3776 77.6647 77.0973 78.2953 77.1674L78.7858 77.3075L80.9578 77.7279Z" fill="#F1F2F2" stroke="#231F20" stroke-width="0.201439" stroke-miterlimit="10" stroke-linecap="round" stroke-linejoin="round"/>
        <path d="M87.3336 86.0658V95.5947C87.3336 96.0852 86.9833 96.5756 86.3527 96.996C85.582 97.4164 84.531 97.6266 83.5501 97.5565C82.8494 97.4865 82.1488 97.3464 81.5882 96.996C80.9576 96.6457 80.6073 96.0852 80.6073 95.5947V90.1296C80.6073 90.1296 80.6073 89.9194 80.6073 89.6391C80.5372 89.2888 80.3971 88.7283 79.9767 88.2378C79.5563 87.8875 79.0659 87.4671 78.3652 87.1167C78.0149 86.9766 77.8047 86.6964 77.6645 86.346C77.6645 86.346 77.6645 86.346 77.6645 86.276C77.6645 86.2059 77.5945 86.1358 77.5945 86.0658C77.5945 85.9957 77.5244 85.9256 77.5244 85.7855C77.5244 85.7154 77.5244 85.6454 77.5244 85.5753C77.5244 85.5052 77.5244 85.5052 77.5244 85.4352V85.3651C77.5244 85.225 77.5244 85.1549 77.5244 85.0148C77.5244 84.8746 77.5244 84.7345 77.5244 84.6644C77.5244 84.5944 77.5244 84.4542 77.5244 84.3141V84.2441C77.5244 84.174 77.5244 84.0339 77.5244 83.8937C77.5244 83.7536 77.5244 83.6135 77.5945 83.5434C77.5945 83.4733 77.5945 83.3332 77.6645 83.2631V83.123C77.6645 83.0529 77.6645 82.9128 77.7346 82.8427C77.6645 82.5625 77.7346 82.2822 77.8047 82.072C77.8047 81.9319 77.8747 81.8618 77.8747 81.7217C77.9448 81.5816 77.9448 81.5115 78.0149 81.3714C78.0849 81.1612 78.2251 80.8809 78.2951 80.6707C78.4353 80.4605 78.5053 80.2503 78.6455 80.0401C78.7155 79.97 78.7856 79.8299 78.8557 79.7598C78.8557 79.6898 78.9257 79.6898 78.9257 79.6197C79.4162 78.9891 80.0468 78.7789 80.1869 78.7789C80.8876 78.6388 81.5882 78.5687 82.2188 78.5687C82.5691 78.5687 82.9195 78.6388 83.2698 78.7089C83.9705 78.849 84.531 79.1993 85.0915 79.6898C85.2316 79.9 85.4418 80.0401 85.582 80.1802C86.2126 81.021 86.703 82.2121 86.9833 83.8937C87.2636 84.5243 87.3336 85.295 87.3336 86.0658Z" fill="#F1F2F2" stroke="#231F20" stroke-width="0.201439" stroke-miterlimit="10" stroke-linecap="round" stroke-linejoin="round"/>
        <path d="M80.5376 89.639C80.5376 89.9193 80.5376 90.1295 80.5376 90.1295V89.639Z" fill="url(#paint3_linear_1_19911)" stroke="#231F20" stroke-width="0.190369" stroke-miterlimit="10" stroke-linecap="round" stroke-linejoin="round"/>
        <path d="M85.7922 80.1803C85.6521 80.0401 85.512 79.83 85.3018 79.6898C85.4419 79.83 85.6521 79.9701 85.7922 80.1803Z" fill="url(#paint4_linear_1_19911)" stroke="#231F20" stroke-width="0.190369" stroke-miterlimit="10" stroke-linecap="round" stroke-linejoin="round"/>
        <path opacity="0.2" d="M87.3338 86.0658V95.5947C87.3338 96.0852 86.9835 96.5756 86.3529 96.996C85.5822 97.4164 84.5312 97.6266 83.5503 97.5565C83.8305 97.4865 84.1108 97.3463 84.391 97.2062C85.0917 96.7858 85.442 96.2954 85.442 95.8049V85.8556C85.442 81.5816 84.1808 79.4095 82.4292 78.5687C82.7795 78.5687 83.1299 78.6388 83.4802 78.7089C84.1808 78.849 84.7414 79.1993 85.3019 79.6898C85.442 79.9 85.6522 80.0401 85.7924 80.1802C86.4229 81.021 86.9134 82.2121 87.1937 83.8937C87.2637 84.5243 87.3338 85.295 87.3338 86.0658Z" fill="black" stroke="#231F20" stroke-width="0.209427" stroke-miterlimit="10"/>
        <path d="M78.7163 80.0401C78.7864 79.9 78.8564 79.7599 78.9966 79.6198C78.9966 79.6898 78.9265 79.6898 78.9265 79.7599C78.8564 79.8299 78.7864 79.9 78.7163 80.0401Z" fill="url(#paint5_linear_1_19911)" stroke="#231F20" stroke-width="0.190369" stroke-miterlimit="10" stroke-linecap="round" stroke-linejoin="round"/>
        <path d="M133.647 129.296L133.577 129.366L133.507 129.226L133.647 129.296Z" fill="#F1F2F2" stroke="#231F20" stroke-width="0.201439" stroke-miterlimit="10" stroke-linecap="round" stroke-linejoin="round"/>
        <path d="M144.788 147.514L133.507 154.17L121.806 136.023L133.507 129.367H133.577L144.788 147.514Z" fill="#F9FAFA" stroke="#231F20" stroke-width="0.201439" stroke-miterlimit="10" stroke-linecap="round" stroke-linejoin="round"/>
        <path d="M162.865 136.864V125.793L151.725 119.067L161.324 113.602L171.833 131.539L162.865 136.864Z" fill="#F9FAFA" stroke="#231F20" stroke-width="0.201439" stroke-miterlimit="10" stroke-linecap="round" stroke-linejoin="round"/>
        <path d="M171.833 131.538V149.826L133.507 172.107V154.17L144.788 147.513L144.928 147.654V136.093L162.865 125.793V136.863L171.833 131.538Z" fill="#F1F2F2" stroke="#231F20" stroke-width="0.201439" stroke-miterlimit="10" stroke-linecap="round" stroke-linejoin="round"/>
        <path d="M144.928 147.443V147.654L144.788 147.514L144.928 147.443Z" fill="#F1F2F2" stroke="#231F20" stroke-width="0.201439" stroke-miterlimit="10" stroke-linecap="round" stroke-linejoin="round"/>
        <path d="M133.507 154.17V172.107L68.2761 147.023L53.9126 123.061V108.977L59.8682 99.7286L74.582 108.347V121.729L108.073 141.067V128.245L108.284 128.105L119.284 134.621L121.806 136.023L133.507 154.17Z" fill="#F1F2F2" stroke="#231F20" stroke-width="0.201439" stroke-miterlimit="10" stroke-linecap="round" stroke-linejoin="round"/>
        <path opacity="0.14" d="M133.507 154.17V172.107L68.2761 147.023L53.9126 123.061V108.977L59.8682 99.7286L74.582 108.347V121.729L108.073 141.067V128.245L108.284 128.105L119.284 134.621L121.806 136.023L133.507 154.17Z" fill="black" stroke="#231F20" stroke-width="0.0802954" stroke-miterlimit="10"/>
        <path d="M160.272 135.252C160.272 135.252 151.374 140.297 148.361 142.048L148.291 139.316L157.75 133.991L160.272 135.252Z" fill="#939598" stroke="#231F20" stroke-width="0.0468579" stroke-miterlimit="10"/>
        <path d="M160.203 132.099L160.273 135.252L157.75 134.061L157.68 133.5L160.203 132.099Z" fill="#4F4C4D" stroke="#231F20" stroke-width="0.0468579" stroke-miterlimit="10"/>
        <path d="M157.68 133.5L157.75 134.061L148.291 139.386V138.825L157.68 133.5Z" fill="#231F20" stroke="#231F20" stroke-width="0.0468579" stroke-miterlimit="10" stroke-linecap="round" stroke-linejoin="round"/>
        <path d="M113.819 85.7855V95.3145L108.844 92.3717L105.691 90.4799L106.812 89.7793L113.819 85.7855Z" fill="#F1F2F2" stroke="#231F20" stroke-width="0.201439" stroke-miterlimit="10" stroke-linecap="round" stroke-linejoin="round"/>
        <path d="M105.692 90.48H105.621H105.692Z" fill="#F1F2F2" stroke="#231F20" stroke-width="0.201439" stroke-miterlimit="10" stroke-linecap="round" stroke-linejoin="round"/>
        <path d="M162.865 125.793L144.928 136.093L133.647 129.296L133.507 129.226L133.577 129.366H133.507L121.806 136.023L119.284 134.621L158.591 112.06L161.323 113.602L151.724 119.067L162.865 125.793Z" fill="#F1F2F2" stroke="#231F20" stroke-width="0.201439" stroke-miterlimit="10" stroke-linecap="round" stroke-linejoin="round"/>
        <path d="M144.928 136.093V147.443L144.788 147.513L133.577 129.366L133.647 129.296L144.928 136.093Z" fill="#F1F2F2" stroke="#231F20" stroke-width="0.201439" stroke-miterlimit="10" stroke-linecap="round" stroke-linejoin="round"/>
        <path opacity="0.14" d="M144.928 136.093V147.443L144.788 147.513L133.577 129.366L133.647 129.296L144.928 136.093Z" fill="black" stroke="#231F20" stroke-width="0.0802954" stroke-miterlimit="10"/>
        <path d="M133.647 129.296L133.577 129.366L133.507 129.226L133.647 129.296Z" fill="#F1F2F2" stroke="#231F20" stroke-width="0.201439" stroke-miterlimit="10" stroke-linecap="round" stroke-linejoin="round"/>
        <path d="M144.928 147.443V147.654L144.788 147.513L144.928 147.443Z" fill="#F1F2F2" stroke="#231F20" stroke-width="0.201439" stroke-miterlimit="10" stroke-linecap="round" stroke-linejoin="round"/>
        <path opacity="0.2" d="M144.788 147.513L133.647 142.328L133.507 129.226L144.788 147.513Z" fill="black" stroke="#231F20" stroke-width="0.0802954" stroke-miterlimit="10"/>
        <path d="M108.073 130.838V141.067L74.582 121.729V121.589L83.6205 116.404L108.073 130.838Z" fill="#F1F2F2" stroke="#231F20" stroke-width="0.201439" stroke-miterlimit="10" stroke-linecap="round" stroke-linejoin="round"/>
        <path d="M83.6205 103.092V116.404L74.582 121.589V108.277L78.1554 106.245L83.6205 103.092Z" fill="#F1F2F2" stroke="#231F20" stroke-width="0.201439" stroke-miterlimit="10" stroke-linecap="round" stroke-linejoin="round"/>
        <path d="M158.591 112.06L119.284 134.621L108.284 128.105L117.883 122.64L95.2514 109.748L87.0537 105.054L83.6205 103.092L78.1553 106.245L74.582 108.277V108.347L59.8682 99.7287L99.105 77.1675L113.819 85.7856L106.812 89.7793L105.691 90.48H105.621H105.691L108.844 92.3718L113.819 95.3145L117.112 97.2063L139.253 110.379L147.59 105.614L158.591 112.06Z" fill="#F1F2F2" stroke="#231F20" stroke-width="0.201439" stroke-miterlimit="10" stroke-linecap="round" stroke-linejoin="round"/>
        <path d="M117.882 122.64L108.283 128.105L108.073 128.245V130.838L83.6201 116.404V103.092L87.0533 105.054L95.251 109.748L117.882 122.64Z" fill="#F1F2F2" stroke="#231F20" stroke-width="0.201439" stroke-miterlimit="10" stroke-linecap="round" stroke-linejoin="round"/>
        <path d="M105.692 90.48H105.621H105.692Z" fill="black" stroke="#231F20" stroke-width="0.201439" stroke-miterlimit="10"/>
        <path opacity="0.14" d="M83.6205 103.092L80.5376 118.156L108.073 134.621V128.245L117.883 122.64L83.6205 103.092Z" fill="black" stroke="#231F20" stroke-width="0.0802954" stroke-miterlimit="10"/>
    </g>
    <defs>
        <linearGradient id="paint0_linear_1_19911" x1="-nan" y1="-nan" x2="-nan" y2="-nan" gradientUnits="userSpaceOnUse">
            <stop stop-color="#D1D2D3"/>
            <stop offset="0.3636" stop-color="#D1D2D3"/>
            <stop offset="0.6738" stop-color="#F1F1F1"/>
            <stop offset="1" stop-color="#E5E6E6"/>
        </linearGradient>
        <linearGradient id="paint1_linear_1_19911" x1="70.6065" y1="88.5007" x2="71.1032" y2="88.5007" gradientUnits="userSpaceOnUse">
            <stop stop-color="#D1D2D3"/>
            <stop offset="0.3636" stop-color="#D1D2D3"/>
            <stop offset="0.6738" stop-color="#F1F1F1"/>
            <stop offset="1" stop-color="#E5E6E6"/>
        </linearGradient>
        <linearGradient id="paint2_linear_1_19911" x1="64.0486" y1="88.3998" x2="64.3225" y2="88.3998" gradientUnits="userSpaceOnUse">
            <stop stop-color="#D1D2D3"/>
            <stop offset="0.3636" stop-color="#D1D2D3"/>
            <stop offset="0.6738" stop-color="#F1F1F1"/>
            <stop offset="1" stop-color="#E5E6E6"/>
        </linearGradient>
        <linearGradient id="paint3_linear_1_19911" x1="-nan" y1="-nan" x2="-nan" y2="-nan" gradientUnits="userSpaceOnUse">
            <stop stop-color="#D1D2D3"/>
            <stop offset="0.3636" stop-color="#D1D2D3"/>
            <stop offset="0.6738" stop-color="#F1F1F1"/>
            <stop offset="1" stop-color="#E5E6E6"/>
        </linearGradient>
        <linearGradient id="paint4_linear_1_19911" x1="85.2797" y1="79.9124" x2="85.7765" y2="79.9124" gradientUnits="userSpaceOnUse">
            <stop stop-color="#D1D2D3"/>
            <stop offset="0.3636" stop-color="#D1D2D3"/>
            <stop offset="0.6738" stop-color="#F1F1F1"/>
            <stop offset="1" stop-color="#E5E6E6"/>
        </linearGradient>
        <linearGradient id="paint5_linear_1_19911" x1="78.7225" y1="79.8117" x2="78.9964" y2="79.8117" gradientUnits="userSpaceOnUse">
            <stop stop-color="#D1D2D3"/>
            <stop offset="0.3636" stop-color="#D1D2D3"/>
            <stop offset="0.6738" stop-color="#F1F1F1"/>
            <stop offset="1" stop-color="#E5E6E6"/>
        </linearGradient>
        <clipPath id="">
            <rect width="118.061" height="95.2894" fill="white" transform="translate(53.8418 76.9573)"/>
        </clipPath>
    </defs>


    <g clip-path="url(#)">
        <path d="M123.487 191.935L122.927 192.285C122.857 192.285 122.857 192.285 122.787 192.285C123.067 192.145 123.277 192.075 123.487 191.935Z" fill="#F1F2F2" stroke="#231F20" stroke-width="0.227924" stroke-miterlimit="10" stroke-linecap="round" stroke-linejoin="round"/>
        <path d="M123.487 191.935L122.927 192.285C122.857 192.285 122.857 192.285 122.787 192.285C123.067 192.145 123.277 192.075 123.487 191.935Z" fill="#F1F2F2" stroke="#231F20" stroke-width="0.227924" stroke-miterlimit="10" stroke-linecap="round" stroke-linejoin="round"/>
        <path d="M123.487 191.935L122.927 192.285C122.857 192.285 122.857 192.285 122.787 192.285C123.067 192.145 123.277 192.075 123.487 191.935Z" fill="#F1F2F2" stroke="#231F20" stroke-width="0.227924" stroke-miterlimit="10" stroke-linecap="round" stroke-linejoin="round"/>
        <path d="M123.487 191.935L122.927 192.285C122.857 192.285 122.857 192.285 122.787 192.285C123.067 192.145 123.277 192.075 123.487 191.935Z" fill="#F1F2F2" stroke="#231F20" stroke-width="0.227924" stroke-miterlimit="10" stroke-linecap="round" stroke-linejoin="round"/>
        <path d="M123.487 191.935L122.927 192.285C122.857 192.285 122.857 192.285 122.787 192.285C123.067 192.145 123.277 192.075 123.487 191.935Z" fill="#F1F2F2" stroke="#231F20" stroke-width="0.227924" stroke-miterlimit="10" stroke-linecap="round" stroke-linejoin="round"/>
        <path d="M118.372 188.572C118.372 189.483 118.302 190.394 118.162 191.234C118.092 191.725 117.952 192.145 117.882 192.566C117.742 193.126 117.532 193.617 117.321 194.107C117.181 194.387 117.041 194.668 116.901 194.948C116.691 195.368 116.411 195.719 116.13 196.069C115.71 196.559 115.149 196.98 114.589 197.33L114.449 197.4C111.996 198.801 108.703 198.591 104.99 196.419C104.499 196.139 104.079 195.859 103.659 195.578L55.3833 167.692C55.103 167.552 54.8227 167.412 54.5425 167.202C47.1155 162.928 41.0898 152.488 41.0898 143.94C41.0898 142.188 41.3 140.717 41.7905 139.456C42.4211 137.564 43.5421 136.163 44.9435 135.322C45.0135 135.322 45.0135 135.252 45.0836 135.252C45.7142 134.902 46.3448 134.691 47.0454 134.551C47.2556 134.481 47.3958 134.481 47.606 134.481C47.8162 134.481 48.0264 134.411 48.2366 134.411L50.4086 134.201L50.899 134.131L57.7655 133.57L58.256 133.5L62.1096 133.15L63.8612 133.01L67.1543 132.729L72.8997 132.309C73.25 132.239 73.5303 132.239 73.8806 132.239C74.0207 132.239 74.2309 132.239 74.4411 132.239C75.4221 132.239 76.403 132.449 77.524 132.87C78.3648 133.15 79.2757 133.57 80.1865 134.061C81.4477 134.831 82.7089 135.742 83.9 136.793C84.8809 137.704 85.7918 138.685 86.7027 139.736L86.7727 139.806C86.9829 140.086 87.2632 140.367 87.4734 140.647L99.1043 155.361L99.8049 156.272L101.557 158.444L101.907 158.864L104.429 162.087L106.882 165.17L110.525 169.794C111.156 170.425 111.716 171.126 112.277 171.896C112.697 172.387 113.047 172.947 113.398 173.438C116.27 177.712 118.232 182.756 118.513 187.381C118.372 187.731 118.372 188.151 118.372 188.572Z" fill="#F1F2F2" stroke="#231F20" stroke-width="0.227924" stroke-miterlimit="10" stroke-linecap="round" stroke-linejoin="round"/>
        <path opacity="0.14" d="M118.372 188.572C118.372 189.483 118.302 190.394 118.162 191.234C118.092 191.725 117.952 192.145 117.882 192.566C117.742 193.126 117.532 193.617 117.321 194.107C117.181 194.387 117.041 194.668 116.901 194.948C116.691 195.368 116.411 195.719 116.13 196.069C115.71 196.559 115.149 196.98 114.589 197.33L114.449 197.4C111.996 198.801 108.703 198.591 104.99 196.419C104.499 196.139 104.079 195.859 103.659 195.578L55.3833 167.692C55.103 167.552 54.8227 167.412 54.5425 167.202C47.1155 162.928 41.0898 152.488 41.0898 143.94C41.0898 142.188 41.3 140.717 41.7905 139.456C42.4211 137.564 43.5421 136.163 44.9435 135.322C45.0135 135.322 45.0135 135.252 45.0836 135.252C45.7142 134.902 46.3448 134.691 47.0454 134.551C47.2556 134.481 47.3958 134.481 47.606 134.481C47.8162 134.481 48.0264 134.411 48.2366 134.411L50.4086 134.201L50.899 134.131L57.7655 133.57L58.256 133.5L62.1096 133.15L63.8612 133.01L67.1543 132.729L72.8997 132.309C73.25 132.239 73.5303 132.239 73.8806 132.239C74.0207 132.239 74.2309 132.239 74.4411 132.239C75.4221 132.239 76.403 132.449 77.524 132.87C78.3648 133.15 79.2757 133.57 80.1865 134.061C81.4477 134.831 82.7089 135.742 83.9 136.793C84.8809 137.704 85.7918 138.685 86.7027 139.736L86.7727 139.806C86.9829 140.086 87.2632 140.367 87.4734 140.647L99.1043 155.361L99.8049 156.272L101.557 158.444L101.907 158.864L104.429 162.087L106.882 165.17L110.525 169.794C111.156 170.425 111.716 171.126 112.277 171.896C112.697 172.387 113.047 172.947 113.398 173.438C116.27 177.712 118.232 182.756 118.513 187.381C118.372 187.731 118.372 188.151 118.372 188.572Z" fill="black" stroke="#231F20" stroke-width="0.227924" stroke-miterlimit="10"/>
        <path d="M127.481 183.247C127.481 187.521 126.01 190.464 123.627 191.935L123.487 192.005C123.277 192.145 123.067 192.215 122.787 192.355C122.857 192.355 122.857 192.355 122.927 192.355L118.653 194.878L117.672 195.438L116.341 196.209L114.519 197.26C115.079 196.91 115.57 196.489 116.06 195.999C116.341 195.649 116.621 195.298 116.831 194.878C116.971 194.598 117.111 194.317 117.251 194.037C117.462 193.547 117.672 193.056 117.812 192.496C117.952 192.075 118.022 191.655 118.092 191.164C118.232 190.324 118.302 189.483 118.302 188.502C118.302 188.081 118.302 187.661 118.232 187.241C117.952 182.616 115.99 177.572 113.118 173.298C112.767 172.737 112.347 172.247 111.997 171.756C111.436 171.056 110.875 170.355 110.245 169.654L106.601 165.03L104.149 161.947L101.627 158.724L101.276 158.304L99.5248 156.131L98.8242 155.221L87.1933 140.507C86.9831 140.227 86.7729 139.946 86.4926 139.666L86.4225 139.596C85.5817 138.545 84.6008 137.564 83.6199 136.653C82.4288 135.602 81.2377 134.691 79.9064 133.921C78.9956 133.43 78.1548 133.01 77.2439 132.73C76.1929 132.379 75.1419 132.169 74.161 132.099C73.9508 132.099 73.8107 132.099 73.6005 132.099C73.2502 132.099 72.9699 132.169 72.6196 132.169L66.9442 132.659L63.8614 133.01L61.9696 133.15L58.116 133.5L57.6255 133.57L50.7591 134.131H50.3387L48.1666 134.341C47.9564 134.341 47.7462 134.341 47.536 134.411C47.3258 134.411 47.1857 134.481 46.9755 134.481C46.2749 134.621 45.6443 134.902 45.0137 135.182L47.0456 133.991L54.1222 129.787C54.8929 129.366 55.7337 129.086 56.6446 128.946C56.8548 128.946 57.065 128.876 57.2752 128.876L57.9058 128.806L60.7084 128.596L62.2498 128.526L72.8298 127.685L75.9127 127.405L77.1739 127.334L81.9383 126.914C82.2887 126.844 82.5689 126.844 82.9192 126.844C84.811 126.774 86.913 127.405 89.1551 128.666C91.4673 129.997 93.7094 131.959 95.6011 134.341L95.6712 134.411C95.8814 134.691 96.1617 134.972 96.3719 135.252L101.417 141.628L108.703 150.877L110.455 153.119L112.627 155.851L115.64 159.705L119.353 164.399C120.404 165.52 121.385 166.781 122.226 168.043C122.296 168.113 122.296 168.183 122.366 168.183C122.787 168.813 123.137 169.374 123.487 170.005C125.449 173.368 126.78 177.081 127.201 180.584C127.411 181.495 127.481 182.336 127.481 183.247Z" fill="#F1F2F2" stroke="#231F20" stroke-width="0.227924" stroke-miterlimit="10" stroke-linecap="round" stroke-linejoin="round"/>
        <path d="M36.6053 155.991C36.6053 155.991 32.1911 151.577 31.4204 159.845C30.7197 168.183 30.7197 168.183 30.7197 168.183L38.9875 180.654L48.7266 181.705L49.4273 176.661L36.6053 155.991Z" fill="#49443A" stroke="#231F20" stroke-width="0.162342" stroke-miterlimit="10" stroke-linecap="round" stroke-linejoin="round"/>
        <path d="M54.0514 171.126C54.0514 171.756 54.0514 172.317 53.9112 172.807C53.8412 173.298 53.701 173.788 53.5609 174.208C53.2106 175.189 52.65 175.96 51.8793 176.521C51.1787 177.011 50.3379 177.291 49.357 177.291C49.2869 177.291 49.2168 177.291 49.1468 177.291C48.0958 177.291 46.8346 176.941 45.5734 176.24C45.5734 176.24 45.5033 176.24 45.5033 176.17C40.7389 173.508 36.8152 166.852 36.7451 161.386C36.7451 161.106 36.7451 160.826 36.7451 160.616C36.8152 159.425 37.0954 158.444 37.5158 157.603C37.5158 157.533 37.5859 157.533 37.5859 157.463C38.0764 156.552 38.8471 155.921 39.6879 155.571C40.4586 155.291 41.2994 155.151 42.2803 155.291C42.981 155.361 43.8218 155.641 44.5925 155.991C44.8027 156.061 45.0129 156.202 45.2231 156.342C45.3632 156.412 45.4333 156.482 45.5734 156.552L45.6435 156.622C49.4971 160.335 52.58 165.59 53.9813 170.775V170.845C53.9813 170.915 54.0514 171.055 54.0514 171.126Z" fill="#6E6657" stroke="#231F20" stroke-width="0.162342" stroke-miterlimit="10" stroke-linecap="round" stroke-linejoin="round"/>
        <path d="M35.2739 164.469C35.344 168.533 38.2868 173.508 41.79 175.469C43.6818 176.52 45.3634 176.52 46.5545 175.75C47.115 175.329 47.5354 174.769 47.8157 174.068C47.9558 173.718 48.0259 173.367 48.096 173.017C48.166 172.597 48.166 172.176 48.166 171.756C48.096 167.692 45.1532 162.717 41.6499 160.756C41.5098 160.686 41.2996 160.615 41.1594 160.475C40.5289 160.195 39.9683 159.985 39.4078 159.915C38.7071 159.845 38.0766 159.915 37.516 160.125C36.1147 160.686 35.2739 162.227 35.2739 164.469Z" fill="#928874" stroke="#231F20" stroke-width="0.162342" stroke-miterlimit="10" stroke-linecap="round" stroke-linejoin="round"/>
        <path d="M37.5161 160.125C38.0766 159.915 38.7072 159.845 39.4079 159.915C39.9684 159.985 40.5289 160.195 41.1595 160.475C41.2997 160.546 41.5099 160.616 41.65 160.756C45.2233 162.788 48.1661 167.692 48.1661 171.756C48.1661 172.176 48.1661 172.667 48.096 173.017C48.026 173.368 47.9559 173.718 47.8158 174.068C47.5355 174.839 47.1151 175.399 46.5546 175.75L50.0579 173.648H50.128C51.3191 172.947 52.0197 171.546 51.9497 169.444C51.8796 165.38 48.9368 160.405 45.4335 158.444C43.8921 157.603 42.4908 157.393 41.3697 157.813L40.5289 158.374L37.5161 160.125Z" fill="url(#paint0_linear_1_19911)" stroke="#231F20" stroke-width="0.162342" stroke-miterlimit="10" stroke-linecap="round" stroke-linejoin="round"/>
        <path d="M54.0515 170.845C54.0515 170.775 54.0515 170.775 54.0515 170.705C52.6502 165.52 49.5673 160.335 45.7137 156.552C45.6436 156.482 45.6436 156.482 45.5736 156.412C44.1722 155.08 42.6308 153.889 41.0893 153.049C40.739 152.838 40.3887 152.698 40.0384 152.488C38.7772 151.857 37.516 151.507 36.3949 151.367C34.9236 151.157 33.5923 151.297 32.4012 151.787C32.4012 151.787 32.4012 151.787 32.3311 151.787C29.3884 152.978 27.6367 156.201 27.6367 160.966C27.7068 169.584 33.8726 179.954 41.3696 184.158C45.3634 186.4 48.9367 186.47 51.389 184.648C52.5101 183.807 53.4209 182.616 53.9814 181.075C54.2617 180.374 54.4018 179.673 54.542 178.903C54.6821 178.062 54.7522 177.221 54.7522 176.24C54.8222 174.489 54.542 172.667 54.0515 170.845ZM47.7456 178.903C46.2041 180.024 43.892 180.024 41.3696 178.552C36.6051 175.89 32.6815 169.234 32.6114 163.769C32.5413 160.756 33.7324 158.654 35.6242 157.883C36.1847 157.673 36.8153 157.533 37.516 157.533C37.5861 157.533 37.6561 157.533 37.6561 157.533C37.7963 157.533 38.0065 157.533 38.1466 157.603C38.8472 157.673 39.618 157.953 40.4588 158.303C40.6689 158.374 40.8791 158.514 41.0893 158.654C45.8538 161.316 49.7775 167.973 49.8476 173.438C49.8476 173.508 49.8476 173.648 49.8476 173.718C49.8476 174.208 49.7775 174.699 49.7074 175.119C49.6374 175.61 49.4972 176.1 49.3571 176.521C49.287 176.801 49.1469 177.011 49.0768 177.221C48.7966 177.992 48.3061 178.552 47.7456 178.903Z" fill="#231F20" stroke="#231F20" stroke-width="0.162342" stroke-miterlimit="10" stroke-linecap="round" stroke-linejoin="round"/>
        <path d="M60.9182 179.253C61.2685 179.113 61.6189 178.903 61.9692 178.622L60.9182 179.253ZM53.9817 170.705C52.5804 165.52 49.4975 160.335 45.6439 156.552C45.5738 156.482 45.5738 156.482 45.5037 156.412C45.5037 156.412 45.5037 156.412 45.5037 156.482C45.7139 157.322 45.9942 158.163 46.2745 159.004C47.5357 162.437 49.4975 165.73 51.8797 168.533C52.5103 169.304 53.211 170.074 53.9116 170.705C54.0518 170.775 54.0518 170.775 53.9817 170.705ZM41.3699 146.672L41.2998 146.743C41.7903 146.462 42.2107 146.182 42.4909 146.042C42.561 146.042 42.561 145.972 42.6311 145.972C42.7011 145.972 42.7011 145.902 42.7712 145.902L42.8413 145.832L42.9113 145.762C42.3508 145.972 41.7903 146.252 41.3699 146.672Z" fill="#231F20" stroke="#231F20" stroke-width="0.162342" stroke-miterlimit="10" stroke-linecap="round" stroke-linejoin="round"/>
        <path d="M63.2302 177.572C63.1602 177.642 63.02 177.712 63.02 177.782C63.0901 177.712 63.1602 177.642 63.2302 177.572Z" fill="url(#paint1_linear_1_19911)" stroke="#231F20" stroke-width="0.162342" stroke-miterlimit="10" stroke-linecap="round" stroke-linejoin="round"/>
        <path d="M65.3325 170.145C65.3325 171.125 65.2625 171.966 65.1223 172.807C64.9822 173.648 64.8421 174.349 64.5618 175.049C64.0013 176.591 63.0904 177.852 61.9694 178.623L60.9184 179.253L51.4595 184.788C52.5805 183.948 53.4914 182.756 54.0519 181.215C54.3322 180.514 54.4723 179.814 54.6125 179.043C54.7526 178.202 54.8227 177.361 54.8227 176.38C54.8227 174.629 54.5424 172.807 54.0519 170.915C54.0519 170.845 54.0519 170.845 54.0519 170.775C52.6506 165.59 49.5677 160.405 45.7141 156.622C45.644 156.552 45.644 156.552 45.574 156.482C44.1727 155.15 42.6312 153.959 41.0898 153.119C40.7394 152.908 40.3891 152.768 40.0388 152.558C38.7776 151.927 37.5164 151.577 36.3954 151.437C34.924 151.227 33.5927 151.367 32.4016 151.857C32.4016 151.857 32.4016 151.857 32.3315 151.857L41.3 146.673L41.2299 146.743C41.7204 146.462 42.1408 146.182 42.421 146.042C42.4911 146.042 42.4911 145.972 42.5611 145.972C42.6312 145.972 42.6312 145.902 42.7013 145.902L42.7713 145.832L42.8414 145.762C44.0325 145.271 45.3638 145.131 46.9052 145.341C48.0263 145.481 49.2875 145.902 50.5486 146.462C50.899 146.602 51.2493 146.813 51.5996 147.023C53.2111 147.934 54.7526 149.125 56.224 150.526C60.0776 154.24 63.1605 159.495 64.5618 164.679C65.0523 166.501 65.3325 168.393 65.3325 170.145Z" fill="url(#paint2_linear_1_19911)" stroke="#231F20" stroke-width="0.162342" stroke-miterlimit="10" stroke-linecap="round" stroke-linejoin="round"/>
        <path d="M42.4909 145.972C42.2107 146.112 41.7903 146.392 41.2998 146.673L41.3699 146.603L42.4909 145.972Z" fill="#C49A6C" stroke="#231F20" stroke-width="0.162342" stroke-miterlimit="10" stroke-linecap="round" stroke-linejoin="round"/>
        <path d="M56.2936 177.291C56.2936 178.202 56.2236 179.043 56.1535 179.884L21.8913 160.546C21.7512 159.495 21.6812 158.374 21.6812 157.323C21.6812 151.787 23.643 147.864 26.796 146.112L26.9361 146.042C29.1081 144.851 31.8407 144.641 34.9236 145.552C36.2548 145.972 37.5861 146.533 38.9874 147.373C44.7328 150.666 49.8476 156.902 53.0005 163.699C55.1025 168.183 56.2936 172.947 56.2936 177.291Z" fill="#F1F2F2" stroke="#231F20" stroke-width="0.120163" stroke-miterlimit="10" stroke-linecap="round" stroke-linejoin="round"/>
        <path d="M69.0456 170.075C69.0456 170.985 68.9755 171.826 68.9054 172.667L56.1535 179.884C56.2235 179.043 56.2936 178.202 56.2936 177.291C56.2936 172.877 55.1025 168.183 53.0005 163.699C49.8475 156.902 44.7327 150.666 38.9873 147.373C37.586 146.603 36.2548 145.972 34.9235 145.552C31.8406 144.641 29.1081 144.851 26.936 146.042L39.1275 139.105L40.0383 138.615C43.1212 137.144 47.2551 137.494 51.7393 140.086C61.2683 145.622 69.0456 159.074 69.0456 170.075Z" fill="#F1F2F2" stroke="#231F20" stroke-width="0.120163" stroke-miterlimit="10" stroke-linecap="round" stroke-linejoin="round"/>
        <path d="M56.2936 177.291C56.2936 178.202 56.2236 179.043 56.1535 179.884L21.8913 160.546C21.7512 159.495 21.6812 158.374 21.6812 157.323C21.6812 151.787 23.643 147.864 26.796 146.112L26.9361 146.042C29.1081 144.851 31.8407 144.641 34.9236 145.552C36.2548 145.972 37.5861 146.533 38.9874 147.373C44.7328 150.666 49.8476 156.902 53.0005 163.699C55.1025 168.183 56.2936 172.947 56.2936 177.291Z" fill="#F1F2F2" stroke="#231F20" stroke-width="0.120163" stroke-miterlimit="10" stroke-linecap="round" stroke-linejoin="round"/>
        <path opacity="0.14" d="M56.2936 177.291C56.2936 178.202 56.2236 179.043 56.1535 179.884L21.8913 160.546C21.7512 159.495 21.6812 158.374 21.6812 157.323C21.6812 151.787 23.643 147.864 26.796 146.112L26.9361 146.042C29.1081 144.851 31.8407 144.641 34.9236 145.552C36.2548 145.972 37.5861 146.533 38.9874 147.373C44.7328 150.666 49.8476 156.902 53.0005 163.699C55.1025 168.183 56.2936 172.947 56.2936 177.291Z" fill="black" stroke="#231F20" stroke-width="0.163954" stroke-miterlimit="10"/>
        <path d="M86.002 183.807C86.002 183.807 81.5878 179.393 80.8171 187.661C80.0464 195.999 80.0464 195.999 80.0464 195.999L88.3141 208.471L98.0533 209.522L98.7539 204.477L86.002 183.807Z" fill="#49443A" stroke="#231F20" stroke-width="0.162342" stroke-miterlimit="10" stroke-linecap="round" stroke-linejoin="round"/>
        <path d="M103.379 198.942C103.379 199.572 103.379 200.133 103.238 200.623C103.168 201.114 103.028 201.604 102.888 202.025C102.538 203.006 101.977 203.776 101.206 204.337C100.506 204.827 99.665 205.108 98.6841 205.108C98.614 205.108 98.544 205.108 98.4739 205.108C97.4229 205.108 96.1617 204.757 94.9006 204.057C94.9006 204.057 94.8305 204.057 94.8305 203.987C90.066 201.324 86.1423 194.668 86.0723 189.203C86.0723 188.922 86.0723 188.642 86.0723 188.432C86.1423 187.241 86.4226 186.26 86.843 185.419C86.843 185.349 86.9131 185.349 86.9131 185.279C87.4035 184.368 88.1742 183.738 89.015 183.387C89.7857 183.107 90.6265 182.967 91.6075 183.107C92.3081 183.177 93.1489 183.457 93.9196 183.808C94.1298 183.878 94.34 184.018 94.5502 184.158C94.6904 184.228 94.7604 184.298 94.9006 184.368L94.9706 184.438C98.8242 188.152 101.907 193.407 103.308 198.592V198.662C103.379 198.732 103.379 198.872 103.379 198.942Z" fill="#6E6657" stroke="#231F20" stroke-width="0.162342" stroke-miterlimit="10" stroke-linecap="round" stroke-linejoin="round"/>
        <path d="M84.6713 192.356C84.7413 196.419 87.6841 201.394 91.1874 203.356C93.0791 204.407 94.7607 204.407 95.9518 203.636C96.5124 203.216 96.9328 202.655 97.213 201.955C97.3532 201.604 97.4232 201.254 97.4933 200.904C97.5634 200.483 97.5634 200.063 97.5634 199.642C97.4933 195.579 94.5505 190.604 91.0472 188.642C90.9071 188.572 90.6969 188.502 90.5568 188.362C89.9262 188.082 89.3657 187.871 88.8051 187.801C88.1045 187.731 87.4739 187.801 86.9134 188.011C85.512 188.572 84.6012 190.043 84.6713 192.356Z" fill="#928874" stroke="#231F20" stroke-width="0.162342" stroke-miterlimit="10" stroke-linecap="round" stroke-linejoin="round"/>
        <path d="M86.8433 187.941C87.4038 187.731 88.0344 187.661 88.735 187.731C89.2956 187.801 89.8561 188.011 90.4867 188.292C90.6268 188.362 90.837 188.432 90.9771 188.572C94.5505 190.604 97.4933 195.508 97.4933 199.572C97.4933 199.993 97.4933 200.483 97.4232 200.833C97.3531 201.184 97.2831 201.534 97.1429 201.884C96.8627 202.655 96.4423 203.216 95.8817 203.566L99.385 201.464H99.4551C100.646 200.763 101.347 199.362 101.277 197.26C101.207 193.196 98.264 188.222 94.7607 186.26C93.2192 185.419 91.8179 185.209 90.6969 185.629L89.786 186.19L86.8433 187.941Z" fill="url(#paint3_linear_1_19911)" stroke="#231F20" stroke-width="0.162342" stroke-miterlimit="10" stroke-linecap="round" stroke-linejoin="round"/>
        <path d="M103.379 198.661C103.379 198.591 103.379 198.591 103.379 198.521C101.977 193.336 98.8945 188.152 95.0408 184.368C94.9708 184.298 94.9708 184.298 94.9007 184.228C93.4994 182.897 91.9579 181.705 90.4165 180.865C90.0662 180.654 89.7158 180.514 89.3655 180.304C88.1043 179.674 86.8431 179.323 85.7221 179.183C84.2507 178.973 82.9195 179.113 81.7283 179.603C81.7283 179.603 81.7283 179.603 81.6583 179.603C78.7155 180.795 76.9639 184.018 76.9639 188.782C77.0339 197.4 83.1997 207.77 90.6968 211.974C94.6905 214.216 98.2639 214.286 100.716 212.464C101.837 211.624 102.748 210.432 103.309 208.891C103.589 208.19 103.729 207.49 103.869 206.719C104.009 205.878 104.079 205.037 104.079 204.056C104.149 202.375 103.869 200.483 103.379 198.661ZM97.1428 206.789C95.6014 207.91 93.2892 207.91 90.7668 206.439C86.0023 203.776 82.0787 197.12 82.0086 191.655C81.9385 188.642 83.1297 186.54 85.0214 185.769C85.582 185.559 86.2125 185.419 86.9132 185.419C86.9833 185.419 87.0533 185.419 87.0533 185.419C87.1935 185.419 87.4037 185.419 87.5438 185.489C88.2445 185.559 89.0152 185.839 89.856 186.19C90.0662 186.26 90.2764 186.4 90.4866 186.54C95.251 189.202 99.1747 195.859 99.2448 201.324C99.2448 201.394 99.2448 201.534 99.2448 201.604C99.2448 202.095 99.1747 202.585 99.1046 203.005C99.0346 203.496 98.8945 203.986 98.7543 204.407C98.6843 204.687 98.5441 204.897 98.4741 205.107C98.1237 205.808 97.6333 206.369 97.1428 206.789Z" fill="#231F20" stroke="#231F20" stroke-width="0.162342" stroke-miterlimit="10" stroke-linecap="round" stroke-linejoin="round"/>
        <path d="M110.245 207.069C110.596 206.929 110.946 206.719 111.296 206.439L110.245 207.069ZM103.379 198.591C101.978 193.406 98.8947 188.222 95.0411 184.438C94.971 184.368 94.971 184.368 94.901 184.298C94.901 184.298 94.901 184.298 94.901 184.368C95.1112 185.209 95.3914 186.05 95.6717 186.89C96.9329 190.324 98.8947 193.617 101.277 196.419C101.908 197.19 102.608 197.961 103.309 198.591C103.379 198.661 103.379 198.591 103.379 198.591ZM90.697 174.489L90.627 174.559C91.1174 174.279 91.5378 173.998 91.8181 173.858C91.8881 173.858 91.8881 173.788 91.9582 173.788C92.0283 173.788 92.0283 173.718 92.0983 173.718L92.1684 173.648L92.2385 173.578C91.6779 173.788 91.1174 174.138 90.697 174.489Z" fill="#231F20" stroke="#231F20" stroke-width="0.162342" stroke-miterlimit="10" stroke-linecap="round" stroke-linejoin="round"/>
        <path d="M112.557 205.458C112.487 205.528 112.347 205.598 112.347 205.668C112.417 205.528 112.487 205.458 112.557 205.458Z" fill="url(#paint4_linear_1_19911)" stroke="#231F20" stroke-width="0.162342" stroke-miterlimit="10" stroke-linecap="round" stroke-linejoin="round"/>
        <path d="M114.66 198.031C114.66 199.012 114.59 199.853 114.449 200.693C114.309 201.464 114.099 202.235 113.889 202.865C113.328 204.407 112.418 205.668 111.297 206.439L110.246 207.069L100.787 212.605C101.908 211.764 102.819 210.573 103.379 209.031C103.659 208.331 103.799 207.63 103.94 206.859C104.08 206.018 104.15 205.178 104.15 204.197C104.15 202.445 103.87 200.623 103.379 198.732C103.379 198.662 103.379 198.662 103.379 198.591C101.978 193.407 98.8949 188.222 95.0413 184.438C94.9712 184.368 94.9712 184.368 94.9011 184.298C93.4998 182.967 91.9584 181.776 90.4169 180.935C90.0666 180.725 89.7163 180.585 89.3659 180.374C88.1047 179.744 86.8436 179.393 85.7225 179.253C84.2511 179.043 82.9199 179.183 81.7288 179.674C81.7288 179.674 81.7288 179.674 81.6587 179.674L90.6271 174.489L90.557 174.559C91.0475 174.279 91.4679 173.998 91.7482 173.858C91.8182 173.858 91.8182 173.788 91.8883 173.788C91.9584 173.788 91.9584 173.718 92.0284 173.718L92.0985 173.648L92.1686 173.578C93.3597 173.088 94.6909 172.947 96.2324 173.158C97.3534 173.298 98.6146 173.718 99.8758 174.279C100.226 174.419 100.576 174.629 100.927 174.839C102.538 175.75 104.08 176.941 105.551 178.342C109.405 182.056 112.488 187.311 113.889 192.496C114.379 194.317 114.66 196.209 114.66 198.031Z" fill="url(#paint5_linear_1_19911)" stroke="#231F20" stroke-width="0.162342" stroke-miterlimit="10" stroke-linecap="round" stroke-linejoin="round"/>
        <path d="M91.8181 173.858C91.5378 173.998 91.1174 174.279 90.627 174.559L90.697 174.489L91.8181 173.858Z" fill="#C49A6C" stroke="#231F20" stroke-width="0.162342" stroke-miterlimit="10" stroke-linecap="round" stroke-linejoin="round"/>
        <path d="M105.621 205.178C105.621 206.088 105.551 206.929 105.481 207.77L71.2185 188.432C71.0784 187.311 71.0083 186.26 71.0083 185.209C71.0083 179.674 72.9701 175.75 76.1231 173.998L76.2632 173.928C78.4353 172.737 81.1678 172.527 84.2507 173.438C85.582 173.858 86.9132 174.419 88.3145 175.259C94.0599 178.553 99.1747 184.788 102.328 191.585C104.43 195.999 105.621 200.763 105.621 205.178Z" fill="#F1F2F2" stroke="#231F20" stroke-width="0.120163" stroke-miterlimit="10" stroke-linecap="round" stroke-linejoin="round"/>
        <path d="M105.621 205.178C105.621 206.088 105.551 206.929 105.481 207.77L71.2185 188.432C71.0784 187.311 71.0083 186.26 71.0083 185.209C71.0083 179.674 72.9701 175.75 76.1231 173.998L76.2632 173.928C78.4353 172.737 81.1678 172.527 84.2507 173.438C85.582 173.858 86.9132 174.419 88.3145 175.259C94.0599 178.553 99.1747 184.788 102.328 191.585C104.43 195.999 105.621 200.763 105.621 205.178Z" fill="#F1F2F2" stroke="#231F20" stroke-width="0.120163" stroke-miterlimit="10" stroke-linecap="round" stroke-linejoin="round"/>
        <path opacity="0.14" d="M105.621 205.178C105.621 206.088 105.551 206.929 105.481 207.77L71.2185 188.432C71.0784 187.311 71.0083 186.26 71.0083 185.209C71.0083 179.674 72.9701 175.75 76.1231 173.998L76.2632 173.928C78.4353 172.737 81.1678 172.527 84.2507 173.438C85.582 173.858 86.9132 174.419 88.3145 175.259C94.0599 178.553 99.1747 184.788 102.328 191.585C104.43 195.999 105.621 200.763 105.621 205.178Z" fill="black" stroke="#231F20" stroke-width="0.163954" stroke-miterlimit="10"/>
        <path d="M118.373 197.961C118.373 198.872 118.303 199.712 118.233 200.553L105.481 207.77C105.551 206.929 105.621 206.088 105.621 205.178C105.621 200.763 104.43 196.069 102.328 191.585C99.1747 184.788 94.0599 178.553 88.3145 175.259C86.9132 174.419 85.5819 173.858 84.2507 173.438C81.1678 172.527 78.4352 172.737 76.2632 173.928L88.4546 167.062L89.3655 166.571C92.4484 165.1 96.5823 165.45 101.066 168.043C110.595 173.508 118.373 186.89 118.373 197.961Z" fill="#F1F2F2" stroke="#231F20" stroke-width="0.120163" stroke-miterlimit="10" stroke-linecap="round" stroke-linejoin="round"/>
    </g>
    <defs>
        <linearGradient id="paint0_linear_1_19911" x1="42.4414" y1="159.18" x2="49.3272" y2="171.785" gradientUnits="userSpaceOnUse">
            <stop stop-color="#C2B59B"/>
            <stop offset="1" stop-color="#49443A"/>
        </linearGradient>
        <linearGradient id="paint1_linear_1_19911" x1="63.1684" y1="177.578" x2="63.0654" y2="177.772" gradientUnits="userSpaceOnUse">
            <stop stop-color="#58595B"/>
            <stop offset="1"/>
        </linearGradient>
        <linearGradient id="paint2_linear_1_19911" x1="50.0243" y1="182.388" x2="48.0518" y2="146.144" gradientUnits="userSpaceOnUse">
            <stop/>
            <stop offset="1" stop-color="#58595B"/>
        </linearGradient>
        <linearGradient id="paint3_linear_1_19911" x1="91.7812" y1="187.023" x2="98.6673" y2="199.628" gradientUnits="userSpaceOnUse">
            <stop stop-color="#C2B59B"/>
            <stop offset="1" stop-color="#49443A"/>
        </linearGradient>
        <linearGradient id="paint4_linear_1_19911" x1="112.508" y1="205.42" x2="112.405" y2="205.614" gradientUnits="userSpaceOnUse">
            <stop stop-color="#58595B"/>
            <stop offset="1"/>
        </linearGradient>
        <linearGradient id="paint5_linear_1_19911" x1="99.3642" y1="210.231" x2="97.3918" y2="173.987" gradientUnits="userSpaceOnUse">
            <stop/>
            <stop offset="1" stop-color="#58595B"/>
        </linearGradient>
        <clipPath id="">
            <rect width="105.939" height="87.2319" fill="white" transform="translate(21.6118 126.704)"/>
        </clipPath>
    </defs>


    <g clip-path="url(#)">
        <path d="M142.125 84.7347L142.615 107.366C142.755 113.181 139.042 118.997 131.545 123.621C116.481 132.8 91.6774 133.36 76.1929 124.882C68.4156 120.678 64.4919 114.933 64.3518 109.188L63.8613 86.5565C63.9314 90.4801 65.8232 94.3338 69.3265 97.767C71.008 99.3785 73.1801 100.92 75.6324 102.321C91.1169 110.799 115.92 110.239 130.984 101.06C133.437 99.5887 135.469 97.9772 137.08 96.2255C140.513 92.6522 142.195 88.6584 142.125 84.7347Z" fill="#F7F7F7" stroke="#231F20" stroke-width="0.344794" stroke-miterlimit="10" stroke-linecap="round" stroke-linejoin="round"/>
        <path opacity="0.14" d="M108.984 107.926V130.558C97.4228 131.679 85.2314 129.787 76.1929 124.882C68.4156 120.678 64.4919 114.933 64.3518 109.188L63.8613 86.5564C63.9314 90.4801 65.8232 94.3337 69.3265 97.7669C71.008 99.3784 73.1801 100.92 75.6324 102.321C84.811 107.296 97.2827 109.118 108.984 107.926Z" fill="black" stroke="#231F20" stroke-width="0.0802954" stroke-miterlimit="10"/>
        <path d="M142.125 84.7346C142.195 88.6583 140.583 92.582 137.15 96.1554C135.539 97.8369 133.507 99.5185 131.055 100.99C115.99 110.169 91.1871 110.729 75.7026 102.251C73.1802 100.85 71.0783 99.3784 69.3967 97.6968C65.8233 94.2636 64.0016 90.41 63.9316 86.4863C63.7914 80.6708 67.5049 74.8554 75.0019 70.231C89.996 61.1225 114.799 60.5619 130.284 69.0399C137.991 73.3139 141.985 78.9892 142.125 84.7346Z" fill="#F7F7F7" stroke="#231F20" stroke-width="0.344794" stroke-miterlimit="10" stroke-linecap="round" stroke-linejoin="round"/>
        <path d="M136.029 78.1486L136.169 84.9449C136.239 88.238 134.837 91.6012 131.965 94.614C130.563 96.0854 128.812 97.4166 126.78 98.6778C114.028 106.455 92.9381 106.946 79.8358 99.7288C77.7338 98.5377 75.9121 97.2765 74.4407 95.8752C71.4279 93.0025 69.8865 89.7094 69.8164 86.4163L69.6763 79.6199C69.6763 80.741 69.8865 81.862 70.3069 82.9831C70.6572 84.1742 71.2177 85.2953 72.0585 86.3463C72.6891 87.3272 73.4598 88.238 74.3707 89.0788C75.8421 90.4801 77.5937 91.7413 79.7657 92.9324C92.868 100.149 113.888 99.6587 126.71 91.8814C128.812 90.6203 130.493 89.2189 131.895 87.8176C132.806 86.9068 133.506 85.9259 134.067 84.9449C134.837 83.8239 135.328 82.7028 135.608 81.5117C135.888 80.3907 136.029 79.2696 136.029 78.1486Z" fill="#F7F7F7" stroke="#231F20" stroke-width="0.344794" stroke-miterlimit="10" stroke-linecap="round" stroke-linejoin="round"/>
        <path opacity="0.2" d="M136.029 78.1486L136.169 84.9449C136.239 88.238 134.837 91.6012 131.965 94.614C130.563 96.0854 128.812 97.4166 126.78 98.6778C114.028 106.455 92.9381 106.946 79.8358 99.7288C77.7338 98.5377 75.9121 97.2765 74.4407 95.8752C71.4279 93.0025 69.8865 89.7094 69.8164 86.4163L69.6763 79.6199C69.6763 80.741 69.8865 81.862 70.3069 82.9831C70.6572 84.1742 71.2177 85.2953 72.0585 86.3463C72.6891 87.3272 73.4598 88.238 74.3707 89.0788C75.8421 90.4801 77.5937 91.7413 79.7657 92.9324C92.868 100.149 113.888 99.6587 126.71 91.8814C128.812 90.6203 130.493 89.2189 131.895 87.8176C132.806 86.9068 133.506 85.9259 134.067 84.9449C134.837 83.8239 135.328 82.7028 135.608 81.5117C135.888 80.3907 136.029 79.2696 136.029 78.1486Z" fill="black" stroke="#231F20" stroke-width="0.492913" stroke-miterlimit="10"/>
        <path d="M136.029 78.1485C136.029 79.2696 135.888 80.3906 135.608 81.5117C135.258 82.7028 134.767 83.8238 134.067 84.9449C133.506 85.9258 132.736 86.8367 131.895 87.8176C130.493 89.289 128.742 90.6202 126.71 91.8814C113.958 99.6587 92.8681 100.149 79.7658 92.9324C77.6638 91.8113 75.8421 90.4801 74.3708 89.0788C73.4599 88.1679 72.6892 87.3271 72.0586 86.3462C71.2879 85.2251 70.7273 84.1041 70.3069 82.983C69.8865 81.862 69.7464 80.7409 69.6763 79.6199C69.5362 74.7153 72.6892 69.7406 79.0652 65.8169C91.8171 58.0396 112.907 57.5492 126.009 64.7659C132.525 68.4094 135.888 73.1738 136.029 78.1485Z" fill="#F1F2F2" stroke="#231F20" stroke-width="0.523461" stroke-miterlimit="10" stroke-linecap="round" stroke-linejoin="round"/>
        <path d="M142.615 115.564C142.405 115.494 142.195 115.353 141.985 115.213L142.615 115.564Z" fill="white" stroke="#231F20" stroke-width="0.176776" stroke-miterlimit="10"/>
        <path d="M152.354 104.003C152.494 107.926 149.832 112.761 146.539 114.793C145.067 115.704 143.666 115.914 142.615 115.494L141.984 115.143C141.003 114.443 140.373 113.181 140.303 111.36C140.163 107.436 142.825 102.601 146.118 100.57C147.519 99.6587 148.851 99.4485 149.972 99.7988C151.373 100.359 152.354 101.761 152.354 104.003Z" fill="#58595B" stroke="#231F20" stroke-width="0.176776" stroke-miterlimit="10" stroke-linecap="round" stroke-linejoin="round"/>
        <path d="M149.972 99.8689C148.921 99.5185 147.59 99.7287 146.188 100.64C142.825 102.671 140.233 107.506 140.373 111.43C140.443 113.251 141.074 114.513 142.055 115.213L134.277 111.36C132.946 110.869 132.035 109.468 132.035 107.296C132.035 106.595 132.105 105.824 132.245 105.054C133.997 103.933 135.538 102.742 136.8 101.55C138.761 99.6587 140.233 97.6968 141.074 95.5948C141.424 95.6649 141.704 95.735 141.984 95.8751L142.195 96.0152L149.972 99.8689Z" fill="url(#paint0_linear_1_19911)" stroke="#231F20" stroke-width="0.176776" stroke-miterlimit="10" stroke-linecap="round" stroke-linejoin="round"/>
        <path d="M159.851 122.08C159.711 122.01 159.501 121.94 159.361 121.799L159.851 122.08Z" fill="white" stroke="#231F20" stroke-width="0.134877" stroke-miterlimit="10"/>
        <path d="M167.348 113.251C167.418 116.264 165.457 119.908 162.934 121.519C161.813 122.22 160.762 122.36 159.921 122.08L159.431 121.799C158.66 121.309 158.24 120.328 158.17 118.927C158.1 115.914 160.062 112.27 162.584 110.659C163.705 109.958 164.686 109.818 165.527 110.098C166.578 110.449 167.278 111.57 167.348 113.251Z" fill="#58595B" stroke="#231F20" stroke-width="0.134877" stroke-miterlimit="10" stroke-linecap="round" stroke-linejoin="round"/>
        <path d="M166.297 113.882C166.368 116.194 164.826 119.137 162.794 120.328C161.883 120.889 161.113 121.029 160.482 120.748L160.132 120.538C159.571 120.118 159.151 119.347 159.151 118.296C159.081 115.984 160.622 113.041 162.654 111.85C163.495 111.36 164.266 111.219 164.966 111.36C165.737 111.64 166.297 112.551 166.297 113.882Z" fill="#231F20" stroke="#231F20" stroke-width="0.134877" stroke-miterlimit="10"/>
        <path d="M165.457 110.098C164.616 109.818 163.635 110.028 162.514 110.659C159.992 112.2 157.96 115.914 158.1 118.927C158.17 120.328 158.59 121.309 159.361 121.799L143.877 113.952C142.826 113.602 142.195 112.481 142.125 110.869C142.055 107.856 144.017 104.213 146.539 102.601C147.73 101.831 148.851 101.761 149.692 102.111L149.902 102.181L165.457 110.098Z" fill="url(#paint1_linear_1_19911)" stroke="#231F20" stroke-width="0.134877" stroke-miterlimit="10" stroke-linecap="round" stroke-linejoin="round"/>
        <path d="M124.608 126.283C124.398 126.213 124.188 126.073 123.978 125.933L124.608 126.283Z" fill="white" stroke="#231F20" stroke-width="0.176776" stroke-miterlimit="10"/>
        <path d="M134.418 114.793C134.558 118.716 131.895 123.551 128.602 125.583C127.131 126.494 125.73 126.704 124.679 126.283L123.978 126.003C122.997 125.303 122.366 124.041 122.296 122.22C122.156 118.296 124.819 113.461 128.112 111.43C129.513 110.519 130.844 110.309 131.965 110.659C133.437 111.079 134.348 112.551 134.418 114.793Z" fill="#58595B" stroke="#231F20" stroke-width="0.176776" stroke-miterlimit="10" stroke-linecap="round" stroke-linejoin="round"/>
        <path d="M131.965 110.659C130.914 110.309 129.583 110.519 128.182 111.43C124.819 113.461 122.226 118.296 122.366 122.22C122.436 124.041 123.067 125.303 124.048 126.003L116.201 122.08C114.869 121.589 113.958 120.188 113.958 118.016C113.888 115.914 114.589 113.532 115.85 111.43C119.704 110.589 123.347 109.398 126.64 107.926L131.965 110.659Z" fill="url(#paint2_linear_1_19911)" stroke="#231F20" stroke-width="0.176776" stroke-miterlimit="10" stroke-linecap="round" stroke-linejoin="round"/>
        <path d="M141.915 132.8C141.775 132.73 141.565 132.66 141.425 132.519L141.915 132.8Z" fill="white" stroke="#231F20" stroke-width="0.134877" stroke-miterlimit="10"/>
        <path d="M149.343 123.971C149.413 126.984 147.451 130.628 144.928 132.239C143.807 132.94 142.756 133.08 141.916 132.8L141.425 132.519C140.654 132.029 140.234 131.048 140.164 129.647C140.094 126.634 142.056 122.99 144.578 121.379C145.699 120.678 146.68 120.538 147.521 120.818C148.572 121.169 149.343 122.29 149.343 123.971Z" fill="#58595B" stroke="#231F20" stroke-width="0.134877" stroke-miterlimit="10" stroke-linecap="round" stroke-linejoin="round"/>
        <path d="M148.361 124.602C148.431 126.914 146.89 129.857 144.858 131.048C143.947 131.609 143.177 131.749 142.546 131.468L142.196 131.258C141.635 130.838 141.215 130.067 141.215 129.016C141.145 126.704 142.686 123.761 144.718 122.57C145.559 122.08 146.33 121.939 147.03 122.08C147.731 122.43 148.291 123.271 148.361 124.602Z" fill="#231F20" stroke="#231F20" stroke-width="0.134877" stroke-miterlimit="10"/>
        <path d="M147.521 120.818C146.68 120.538 145.699 120.748 144.578 121.379C142.056 122.92 140.024 126.634 140.164 129.647C140.234 131.048 140.654 132.029 141.425 132.519L125.94 124.672C124.889 124.322 124.259 123.201 124.189 121.589C124.119 118.576 126.081 114.933 128.603 113.321C129.794 112.551 130.915 112.481 131.756 112.831L131.966 112.901L147.521 120.818Z" fill="url(#paint3_linear_1_19911)" stroke="#231F20" stroke-width="0.134877" stroke-miterlimit="10" stroke-linecap="round" stroke-linejoin="round"/>
        <path opacity="0.2" d="M99.7353 87.2571C107.552 87.2571 113.889 83.5869 113.889 79.0594C113.889 74.5319 107.552 70.8617 99.7353 70.8617C91.9187 70.8617 85.582 74.5319 85.582 79.0594C85.582 83.5869 91.9187 87.2571 99.7353 87.2571Z" fill="black" stroke="#231F20" stroke-width="0.201439" stroke-miterlimit="10"/>
        <path d="M118.724 75.8366C118.724 76.327 118.653 76.7474 118.513 77.1678C118.373 77.6583 118.163 78.0787 117.953 78.4991C117.252 79.6902 116.061 80.8112 114.379 81.7922C108.634 85.1553 99.2452 85.1553 93.4998 81.7922C91.8183 80.8112 90.6271 79.6902 89.9265 78.4991C89.6462 78.0787 89.5061 77.5882 89.366 77.1678C89.2258 76.7474 89.1558 76.257 89.1558 75.8366C89.1558 74.9958 89.366 74.155 89.7864 73.3142C89.9265 73.0339 90.0666 72.8237 90.2768 72.5435C90.3469 72.4734 90.4169 72.4033 90.4169 72.3333L90.487 72.4033L92.7291 73.6645L95.1814 72.2632V70.6517L93.64 69.7408C93.9202 69.6007 94.2005 69.4606 94.4808 69.3204C94.761 69.1803 95.0413 69.0402 95.3215 68.9001C95.4617 68.83 95.6719 68.7599 95.812 68.6899L98.7548 70.2313L101.207 68.83V67.4287C105.831 66.9382 110.806 67.7089 114.379 69.8109C117.322 71.4925 118.724 73.6645 118.724 75.8366Z" fill="#F1F2F2" stroke="#231F20" stroke-width="0.201439" stroke-miterlimit="10" stroke-linecap="round" stroke-linejoin="round"/>
        <path d="M118.724 75.8365V78.5691C118.724 80.7412 117.252 82.9132 114.379 84.5948C108.634 87.9579 99.2452 87.9579 93.4998 84.5948C90.6271 82.9132 89.1558 80.7412 89.1558 78.5691V75.8365C89.1558 76.327 89.2258 76.7474 89.366 77.1678C89.5061 77.6583 89.7163 78.0787 89.9265 78.499C90.6271 79.6902 91.8183 80.8112 93.4998 81.7921C99.2452 85.1553 108.634 85.1553 114.379 81.7921C116.061 80.8112 117.252 79.6902 117.953 78.499C118.233 78.0787 118.373 77.5882 118.513 77.1678C118.724 76.7474 118.724 76.327 118.724 75.8365Z" fill="#F1F2F2" stroke="#231F20" stroke-width="0.201439" stroke-miterlimit="10" stroke-linecap="round" stroke-linejoin="round"/>
        <path d="M95.1816 70.6516V72.3332L92.7993 73.6644V72.0529L95.1816 70.6516Z" fill="#F1F2F2" stroke="#231F20" stroke-width="0.201439" stroke-miterlimit="10" stroke-linecap="round" stroke-linejoin="round"/>
        <path d="M92.7991 72.053V73.6645L90.557 72.4033H90.4869L89.436 71.8428V73.174L87.334 71.9129V68.9L90.9774 71.002L91.4679 71.2823L92.7991 72.053Z" fill="#F1F2F2" stroke="#231F20" stroke-width="0.201439" stroke-miterlimit="10" stroke-linecap="round" stroke-linejoin="round"/>
        <path d="M101.277 67.4286L101.137 67.4987L98.8248 68.8299L97.7037 68.1292L96.933 67.7089L93.4297 65.6769L95.8119 64.2056L99.4553 66.3075L101.277 67.4286Z" fill="#F1F2F2" stroke="#231F20" stroke-width="0.201439" stroke-miterlimit="10" stroke-linecap="round" stroke-linejoin="round"/>
        <path d="M101.277 67.4987V68.9L98.8247 70.3013V68.8299L101.067 67.4987C101.207 67.4987 101.207 67.4987 101.277 67.4987Z" fill="#F1F2F2" stroke="#231F20" stroke-width="0.201439" stroke-miterlimit="10" stroke-linecap="round" stroke-linejoin="round"/>
        <path d="M101.277 67.4286V67.4987C101.207 67.4987 101.137 67.4987 101.137 67.4987L101.277 67.4286Z" fill="#F1F2F2" stroke="#231F20" stroke-width="0.201439" stroke-miterlimit="10" stroke-linecap="round" stroke-linejoin="round"/>
        <path d="M95.8821 68.6898C95.7419 68.7599 95.5317 68.8299 95.3916 68.9V68.4095L95.5317 68.4796L95.8821 68.6898Z" fill="#F1F2F2" stroke="#231F20" stroke-width="0.201439" stroke-miterlimit="10" stroke-linecap="round" stroke-linejoin="round"/>
        <path d="M95.1814 70.6516L92.7991 72.0529L91.4679 71.2822L90.9774 71.0019L87.334 68.9L89.7863 67.4987L93.4297 69.6006L93.6399 69.7408L95.1814 70.6516Z" fill="#F1F2F2" stroke="#231F20" stroke-width="0.201439" stroke-miterlimit="10" stroke-linecap="round" stroke-linejoin="round"/>
        <path d="M98.8248 68.8298V70.3012L95.882 68.6897L95.4616 68.4795L95.3215 68.4094V68.8999C95.0412 69.04 94.7609 69.1802 94.4807 69.3203L94.2705 69.1802L93.4297 68.6897V65.6769L96.933 67.7088L97.7037 68.1292L98.8248 68.8298Z" fill="#F1F2F2" stroke="#231F20" stroke-width="0.201439" stroke-miterlimit="10" stroke-linecap="round" stroke-linejoin="round"/>
        <path opacity="0.2" d="M92.7991 72.053V73.6645L90.557 72.4033H90.4869L89.436 71.8428V73.174L87.334 71.9129V68.9L90.9774 71.002L91.4679 71.2823L92.7991 72.053Z" fill="black" stroke="#231F20" stroke-width="0.201439" stroke-miterlimit="10"/>
        <path opacity="0.2" d="M98.8248 68.8298V70.3012L95.882 68.6897L95.4616 68.4795L95.3215 68.4094V68.8999C95.0412 69.04 94.7609 69.1802 94.4807 69.3203L94.2705 69.1802L93.4297 68.6897V65.6769L96.933 67.7088L97.7037 68.1292L98.8248 68.8298Z" fill="black" stroke="#231F20" stroke-width="0.201439" stroke-miterlimit="10"/>
        <path d="M90.4873 72.4033C90.4172 72.4734 90.3471 72.5434 90.3471 72.6135L89.5063 73.174V71.8428L90.4873 72.4033Z" fill="#F1F2F2" stroke="#231F20" stroke-width="0.201439" stroke-miterlimit="10" stroke-linecap="round" stroke-linejoin="round"/>
        <path opacity="0.2" d="M118.724 75.8364V78.569C118.724 80.741 117.252 82.9131 114.379 84.5946C108.634 87.9578 99.2452 87.9578 93.4998 84.5946C90.6271 82.9131 89.1558 80.741 89.1558 78.569V75.8364C89.1558 76.3269 89.2258 76.7473 89.366 77.1677C89.5061 77.6581 89.7163 78.0785 89.9265 78.4989C90.6271 79.69 91.8183 80.8111 93.4998 81.792C99.2452 85.1552 108.634 85.1552 114.379 81.792C116.061 80.8111 117.252 79.69 117.953 78.4989C118.233 78.0785 118.373 77.5881 118.513 77.1677C118.724 76.7473 118.724 76.3269 118.724 75.8364Z" fill="black" stroke="#231F20" stroke-width="0.492913" stroke-miterlimit="10"/>
        <path opacity="0.14" d="M106.322 84.3144V87.047C101.768 87.4673 97.0031 86.6966 93.4998 84.6647C90.6271 82.9831 89.1558 80.8111 89.1558 78.6391V75.9065C89.1558 76.397 89.2258 76.8173 89.366 77.2377C89.5061 77.7282 89.7163 78.1486 89.9265 78.569C90.6271 79.7601 91.8183 80.8812 93.4998 81.8621C97.0031 83.894 101.838 84.7348 106.322 84.3144Z" fill="black" stroke="#231F20" stroke-width="0.201439" stroke-miterlimit="10"/>
    </g>
    <defs>
        <linearGradient id="paint0_linear_1_19911" x1="136.681" y1="110.818" x2="144.097" y2="96.7875" gradientUnits="userSpaceOnUse">
            <stop stop-color="#59595C"/>
            <stop offset="0.3636" stop-color="#221F1F"/>
            <stop offset="0.6738" stop-color="#808184"/>
            <stop offset="1" stop-color="#424143"/>
        </linearGradient>
        <linearGradient id="paint1_linear_1_19911" x1="150.538" y1="115.974" x2="155.935" y2="105.142" gradientUnits="userSpaceOnUse">
            <stop stop-color="#59595C"/>
            <stop offset="0.3636" stop-color="#221F1F"/>
            <stop offset="0.6738" stop-color="#808184"/>
            <stop offset="1" stop-color="#424143"/>
        </linearGradient>
        <linearGradient id="paint2_linear_1_19911" x1="118.469" y1="121.439" x2="125.885" y2="107.407" gradientUnits="userSpaceOnUse">
            <stop stop-color="#59595C"/>
            <stop offset="0.3636" stop-color="#221F1F"/>
            <stop offset="0.6738" stop-color="#808184"/>
            <stop offset="1" stop-color="#424143"/>
        </linearGradient>
        <linearGradient id="paint3_linear_1_19911" x1="132.569" y1="126.722" x2="137.966" y2="115.889" gradientUnits="userSpaceOnUse">
            <stop stop-color="#59595C"/>
            <stop offset="0.3636" stop-color="#221F1F"/>
            <stop offset="0.6738" stop-color="#808184"/>
            <stop offset="1" stop-color="#424143"/>
        </linearGradient>
        <clipPath id="">
            <rect width="103.767" height="73.569" fill="white" transform="translate(63.6514 59.4407)"/>
        </clipPath>
    </defs>

</svg>
