<svg width="230" height="230" viewBox="0 0 230 230" fill="none"
    xmlns="http://www.w3.org/2000/svg">

    <g clip-path="url(#)">
        <path d="M140.303 114.583L173.304 133.851L190.54 124.812L136.379 91.6011L140.303 114.583Z" fill="#F1F2F2" stroke="#231F20" stroke-width="0.201439" stroke-miterlimit="10" stroke-linecap="round" stroke-linejoin="round"/>
        <path opacity="0.2" d="M140.303 114.583L173.304 133.851L190.54 124.812L136.379 91.6011L140.303 114.583Z" fill="black" stroke="#231F20" stroke-width="0.0802954" stroke-miterlimit="10"/>
        <path d="M109.824 103.652C109.824 103.652 103.729 97.4865 102.678 109.047C101.557 120.538 101.557 120.538 101.557 120.538L113.117 137.914L126.64 139.316L127.621 132.309L109.824 103.652Z" fill="#49443A" stroke="#231F20" stroke-width="0.225612" stroke-miterlimit="10" stroke-linecap="round" stroke-linejoin="round"/>
        <path d="M133.997 124.742C133.997 125.583 133.927 126.354 133.857 127.124C133.717 127.825 133.577 128.456 133.367 129.086C132.876 130.488 132.035 131.538 131.054 132.239C130.073 132.94 128.882 133.29 127.551 133.36C127.481 133.36 127.341 133.36 127.271 133.36C125.799 133.36 124.118 132.87 122.296 131.889C122.226 131.889 122.226 131.819 122.156 131.819C115.43 128.035 109.965 118.787 109.895 111.219C109.895 110.869 109.895 110.449 109.895 110.098C109.965 108.417 110.385 107.015 110.946 105.894C110.946 105.824 111.016 105.754 111.086 105.684C111.786 104.423 112.767 103.512 114.028 103.022C115.079 102.601 116.271 102.461 117.602 102.671C118.583 102.812 119.704 103.162 120.825 103.722C121.105 103.863 121.455 104.003 121.736 104.213C121.876 104.283 122.016 104.353 122.226 104.493C122.296 104.493 122.296 104.563 122.366 104.563C127.761 109.748 132.035 117.035 133.927 124.182C133.927 124.252 133.927 124.252 133.927 124.322C133.997 124.392 133.997 124.532 133.997 124.742Z" fill="#6E6657" stroke="#231F20" stroke-width="0.225612" stroke-miterlimit="10" stroke-linecap="round" stroke-linejoin="round"/>
        <path d="M107.933 115.493C108.003 121.169 112.066 128.035 117.041 130.838C119.704 132.309 122.016 132.379 123.627 131.188C124.398 130.628 124.959 129.857 125.379 128.806C125.519 128.385 125.659 127.895 125.729 127.334C125.799 126.774 125.869 126.213 125.869 125.583C125.799 119.907 121.736 113.041 116.761 110.238C116.551 110.098 116.341 110.028 116.06 109.888C115.219 109.468 114.379 109.257 113.678 109.117C112.697 108.977 111.786 109.047 111.016 109.398C109.124 110.238 107.933 112.34 107.933 115.493Z" fill="#928874" stroke="#231F20" stroke-width="0.225612" stroke-miterlimit="10" stroke-linecap="round" stroke-linejoin="round"/>
        <path d="M111.086 109.398C111.857 109.047 112.768 108.977 113.748 109.117C114.519 109.257 115.29 109.468 116.131 109.888C116.341 110.028 116.551 110.098 116.831 110.238C121.806 113.041 125.87 119.907 125.94 125.583C125.94 126.213 125.87 126.774 125.8 127.334C125.73 127.825 125.59 128.315 125.449 128.806C125.099 129.857 124.468 130.628 123.698 131.188L128.532 128.315L128.602 128.245C130.214 127.334 131.195 125.303 131.195 122.43C131.125 116.755 127.061 109.888 122.086 107.085C119.914 105.894 117.952 105.614 116.411 106.245L115.15 106.945L111.086 109.398Z" fill="url(#paint0_linear_1_19911)" stroke="#231F20" stroke-width="0.225612" stroke-miterlimit="10" stroke-linecap="round" stroke-linejoin="round"/>
        <path d="M133.997 124.322C133.997 124.252 133.997 124.252 133.927 124.181C131.965 116.965 127.691 109.748 122.366 104.563C122.296 104.493 122.296 104.493 122.226 104.423C120.264 102.531 118.162 100.99 115.99 99.7285C115.5 99.4483 115.009 99.2381 114.589 99.0279C112.837 98.1871 111.156 97.6266 109.544 97.4164C107.512 97.1361 105.621 97.3463 104.009 97.9769H103.939C99.8751 99.6585 97.3527 104.143 97.4228 110.729C97.5629 122.64 106.111 137.074 116.551 142.959C122.086 146.042 127.061 146.112 130.494 143.66C132.105 142.539 133.296 140.857 134.137 138.685C134.488 137.774 134.768 136.723 134.908 135.602C135.118 134.481 135.188 133.22 135.188 131.889C135.048 129.436 134.698 126.844 133.997 124.322ZM127.201 133.29C126.71 134.201 126.08 134.972 125.309 135.532C123.137 137.074 119.984 137.074 116.411 135.042C109.754 131.328 104.289 122.15 104.219 114.512C104.149 110.308 105.761 107.436 108.353 106.385C109.124 106.034 110.035 105.894 111.016 105.894C111.086 105.894 111.156 105.894 111.226 105.894C111.436 105.894 111.716 105.964 111.926 105.964C112.907 106.105 114.028 106.455 115.149 106.945C115.43 107.085 115.78 107.226 116.06 107.436C122.717 111.149 128.182 120.398 128.252 127.965C128.252 128.105 128.252 128.245 128.252 128.385C128.252 129.086 128.182 129.717 128.112 130.347C127.971 131.048 127.831 131.679 127.621 132.309C127.481 132.729 127.341 133.01 127.201 133.29Z" fill="#231F20" stroke="#231F20" stroke-width="0.225612" stroke-miterlimit="10" stroke-linecap="round" stroke-linejoin="round"/>
        <path d="M125.449 85.295L125.379 85.3651C126.01 85.0147 126.57 84.6644 126.92 84.4542L125.449 85.295ZM133.927 124.111C131.965 116.895 127.691 109.678 122.366 104.493C122.296 104.423 122.296 104.423 122.226 104.353V104.423C122.506 105.614 122.927 106.735 123.347 107.926C125.099 112.691 127.831 117.315 131.124 121.239C132.035 122.29 133.016 123.341 133.997 124.322C133.997 124.322 133.997 124.322 134.067 124.322C133.997 124.252 133.997 124.182 133.927 124.111ZM152.705 130.558C153.195 130.347 153.686 130.067 154.176 129.717L152.705 130.558Z" fill="#231F20" stroke="#231F20" stroke-width="0.225612" stroke-miterlimit="10" stroke-linecap="round" stroke-linejoin="round"/>
        <path d="M155.927 128.245C155.787 128.385 155.647 128.456 155.577 128.526C155.717 128.456 155.787 128.385 155.927 128.245Z" fill="url(#paint1_linear_1_19911)" stroke="#231F20" stroke-width="0.225612" stroke-miterlimit="10" stroke-linecap="round" stroke-linejoin="round"/>
        <path d="M158.801 117.946C158.801 119.277 158.731 120.538 158.521 121.659C158.381 122.78 158.1 123.761 157.75 124.672C156.979 126.844 155.718 128.526 154.107 129.647L152.635 130.488L130.424 143.59C132.036 142.469 133.227 140.787 134.068 138.615C134.418 137.704 134.698 136.653 134.838 135.532C135.049 134.411 135.119 133.15 135.119 131.819C135.119 129.366 134.698 126.844 133.998 124.252C133.998 124.182 133.998 124.182 133.928 124.112C131.966 116.895 127.692 109.678 122.367 104.493C122.297 104.423 122.297 104.423 122.227 104.353C120.265 102.461 118.163 100.92 115.991 99.6586C115.5 99.3783 115.01 99.1681 114.589 98.9579C112.838 98.1171 111.156 97.5566 109.545 97.3464C107.513 97.0661 105.621 97.2763 104.01 97.9069H103.939L125.52 85.225L125.45 85.2951C126.08 84.9448 126.641 84.5944 126.991 84.3842C127.061 84.3842 127.061 84.3142 127.131 84.3142C127.201 84.3142 127.271 84.2441 127.271 84.2441C127.341 84.2441 127.411 84.174 127.411 84.174C127.482 84.174 127.482 84.104 127.552 84.104L127.622 84.0339C129.303 83.3333 131.195 83.1231 133.227 83.4033C134.838 83.6135 136.52 84.174 138.272 85.0148C138.762 85.225 139.183 85.5053 139.673 85.7155C141.915 86.9767 144.087 88.5882 146.049 90.55C151.444 95.7349 155.718 103.022 157.61 110.168C158.381 112.831 158.801 115.423 158.801 117.946Z" fill="url(#paint2_linear_1_19911)" stroke="#231F20" stroke-width="0.225612" stroke-miterlimit="10" stroke-linecap="round" stroke-linejoin="round"/>
        <path d="M126.92 84.4542C126.5 84.6644 126.009 85.0147 125.379 85.3651L125.449 85.295L126.92 84.4542Z" fill="#C49A6C" stroke="#231F20" stroke-width="0.225612" stroke-miterlimit="10" stroke-linecap="round" stroke-linejoin="round"/>
        <path d="M154.667 129.717C154.667 129.717 148.571 123.551 147.52 135.112C146.469 146.673 146.469 146.673 146.469 146.673L158.03 164.049L171.553 165.45L172.534 158.444L154.667 129.717Z" fill="#49443A" stroke="#231F20" stroke-width="0.225612" stroke-miterlimit="10" stroke-linecap="round" stroke-linejoin="round"/>
        <path d="M178.839 150.807C178.839 151.647 178.769 152.418 178.699 153.189C178.559 153.889 178.419 154.52 178.209 155.151C177.718 156.552 176.878 157.603 175.897 158.304C174.916 159.004 173.725 159.425 172.393 159.425C172.323 159.425 172.183 159.425 172.113 159.425C170.642 159.355 168.96 158.934 167.138 157.953C167.068 157.953 167.068 157.883 166.998 157.883C160.272 154.1 154.807 144.921 154.737 137.284C154.737 136.934 154.737 136.513 154.737 136.163C154.807 134.481 155.227 133.08 155.788 131.959C155.788 131.889 155.858 131.819 155.928 131.749C156.629 130.487 157.61 129.577 158.871 129.086C159.922 128.666 161.113 128.526 162.444 128.736C163.495 128.876 164.546 129.226 165.667 129.787C165.947 129.927 166.298 130.067 166.578 130.277C166.718 130.347 166.858 130.417 167.068 130.558C167.138 130.558 167.138 130.628 167.209 130.628C172.604 135.812 176.878 143.099 178.769 150.246C178.769 150.316 178.769 150.316 178.769 150.386C178.839 150.456 178.839 150.666 178.839 150.807Z" fill="#6E6657" stroke="#231F20" stroke-width="0.225612" stroke-miterlimit="10" stroke-linecap="round" stroke-linejoin="round"/>
        <path d="M152.845 141.558C152.915 147.233 156.979 154.1 161.954 156.902C164.616 158.374 166.928 158.444 168.54 157.253C169.311 156.692 169.871 155.921 170.292 154.87C170.432 154.45 170.572 153.96 170.642 153.399C170.712 152.838 170.782 152.278 170.782 151.647C170.712 145.972 166.648 139.106 161.673 136.303C161.463 136.163 161.253 136.093 160.973 135.953C160.132 135.532 159.291 135.322 158.591 135.182C157.61 135.042 156.699 135.112 155.928 135.462C153.966 136.303 152.775 138.405 152.845 141.558Z" fill="#928874" stroke="#231F20" stroke-width="0.225612" stroke-miterlimit="10" stroke-linecap="round" stroke-linejoin="round"/>
        <path d="M155.928 135.462C156.699 135.112 157.61 135.042 158.591 135.182C159.361 135.322 160.132 135.532 160.973 135.953C161.183 136.093 161.393 136.163 161.674 136.303C166.648 139.106 170.712 145.972 170.782 151.647C170.782 152.278 170.712 152.839 170.642 153.399C170.572 153.889 170.432 154.38 170.292 154.87C169.941 155.921 169.311 156.692 168.54 157.253L173.375 154.38L173.445 154.31C175.056 153.399 176.037 151.367 176.037 148.494C175.967 142.819 171.903 135.953 166.929 133.15C164.757 131.959 162.795 131.679 161.253 132.309L159.992 133.01L155.928 135.462Z" fill="url(#paint3_linear_1_19911)" stroke="#231F20" stroke-width="0.225612" stroke-miterlimit="10" stroke-linecap="round" stroke-linejoin="round"/>
        <path d="M178.84 150.386C178.84 150.316 178.84 150.316 178.77 150.246C176.808 143.029 172.534 135.812 167.209 130.628C167.139 130.557 167.139 130.557 167.069 130.487C165.107 128.596 163.005 127.054 160.833 125.793C160.342 125.513 159.852 125.303 159.431 125.092C157.68 124.252 155.998 123.691 154.387 123.481C152.355 123.201 150.463 123.411 148.852 124.041C144.788 125.723 142.265 130.207 142.335 136.793C142.476 148.704 151.024 163.138 161.463 169.024C166.999 172.106 171.973 172.177 175.406 169.724C177.018 168.603 178.209 166.922 179.05 164.75C179.4 163.839 179.68 162.788 179.821 161.667C180.031 160.546 180.101 159.284 180.101 157.953C179.891 155.501 179.54 152.908 178.84 150.386ZM170.152 161.597C167.979 163.138 164.827 163.138 161.253 161.106C154.597 157.393 149.132 148.144 149.062 140.577C148.992 136.373 150.603 133.5 153.196 132.449C153.966 132.099 154.877 131.959 155.858 131.959C155.928 131.959 155.998 131.959 156.068 131.959C156.278 131.959 156.559 131.959 156.769 132.029C157.75 132.169 158.871 132.519 159.992 133.01C160.272 133.15 160.623 133.29 160.903 133.5C167.559 137.214 173.024 146.462 173.094 154.029C173.094 154.17 173.094 154.31 173.094 154.45C173.094 155.151 173.024 155.781 172.954 156.412C172.814 157.112 172.674 157.743 172.464 158.374C172.324 158.724 172.183 159.004 172.043 159.354C171.553 160.335 170.922 161.036 170.152 161.597Z" fill="#231F20" stroke="#231F20" stroke-width="0.225612" stroke-miterlimit="10" stroke-linecap="round" stroke-linejoin="round"/>
        <path d="M170.291 111.36C170.221 111.36 170.221 111.43 170.221 111.43C170.852 111.079 171.412 110.729 171.763 110.519L170.291 111.36ZM178.839 150.176C176.877 142.959 172.603 135.743 167.278 130.558C167.208 130.488 167.208 130.488 167.138 130.418V130.488C167.418 131.679 167.839 132.8 168.259 133.991C170.011 138.755 172.743 143.38 176.037 147.303C176.947 148.354 177.928 149.405 178.909 150.386C178.839 150.316 178.839 150.246 178.839 150.176ZM197.547 156.622C198.037 156.412 198.528 156.132 199.018 155.781L197.547 156.622Z" fill="#231F20" stroke="#231F20" stroke-width="0.225612" stroke-miterlimit="10" stroke-linecap="round" stroke-linejoin="round"/>
        <path d="M200.77 154.31C200.63 154.45 200.489 154.52 200.419 154.59C200.56 154.52 200.63 154.45 200.77 154.31Z" fill="url(#paint4_linear_1_19911)" stroke="#231F20" stroke-width="0.225612" stroke-miterlimit="10" stroke-linecap="round" stroke-linejoin="round"/>
        <path d="M203.643 144.01C203.643 145.341 203.573 146.603 203.362 147.724C203.222 148.845 202.942 149.826 202.592 150.737C201.821 152.909 200.56 154.59 198.948 155.711L197.477 156.552L175.196 169.584C176.808 168.463 177.999 166.782 178.839 164.61C179.19 163.699 179.47 162.648 179.61 161.527C179.82 160.406 179.89 159.144 179.89 157.813C179.89 155.361 179.47 152.839 178.769 150.246C178.769 150.176 178.769 150.176 178.699 150.106C176.737 142.889 172.463 135.672 167.138 130.488C167.068 130.417 167.068 130.417 166.998 130.347C165.037 128.456 162.935 126.914 160.762 125.653C160.272 125.373 159.782 125.163 159.361 124.952C157.61 124.112 155.928 123.551 154.316 123.341C152.285 123.061 150.393 123.271 148.781 123.901L170.362 111.29C170.291 111.29 170.291 111.36 170.291 111.36C170.922 111.009 171.483 110.659 171.833 110.449C171.903 110.449 171.903 110.379 171.973 110.379C172.043 110.379 172.113 110.309 172.113 110.309C172.183 110.239 172.253 110.239 172.253 110.239C172.323 110.239 172.323 110.168 172.393 110.168L172.463 110.098C174.145 109.398 176.037 109.188 178.069 109.538C179.68 109.748 181.362 110.309 183.113 111.149C183.604 111.36 184.024 111.64 184.515 111.85C186.757 113.111 188.929 114.723 190.891 116.685C196.286 121.869 200.56 129.156 202.452 136.303C203.222 138.895 203.643 141.558 203.643 144.01Z" fill="url(#paint5_linear_1_19911)" stroke="#231F20" stroke-width="0.225612" stroke-miterlimit="10" stroke-linecap="round" stroke-linejoin="round"/>
        <path d="M203.643 144.01C203.643 145.341 203.573 146.603 203.362 147.724C203.222 148.845 202.942 149.826 202.592 150.737C201.821 152.909 200.56 154.59 198.948 155.711L197.477 156.552L175.196 169.584C176.808 168.463 177.999 166.782 178.839 164.61C179.19 163.699 179.47 162.648 179.61 161.527C179.82 160.406 179.89 159.144 179.89 157.813C179.89 155.361 179.47 152.839 178.769 150.246C178.769 150.176 178.769 150.176 178.699 150.106C176.737 142.889 172.463 135.672 167.138 130.488C167.068 130.417 167.068 130.417 166.998 130.347C165.037 128.456 162.935 126.914 160.762 125.653C160.272 125.373 159.782 125.163 159.361 124.952C157.61 124.112 155.928 123.551 154.316 123.341C152.285 123.061 150.393 123.271 148.781 123.901L170.362 111.29C170.291 111.29 170.291 111.36 170.291 111.36C170.922 111.009 171.483 110.659 171.833 110.449C171.903 110.449 171.903 110.379 171.973 110.379C172.043 110.379 172.113 110.309 172.113 110.309C172.183 110.239 172.253 110.239 172.253 110.239C172.323 110.239 172.323 110.168 172.393 110.168L172.463 110.098C174.145 109.398 176.037 109.188 178.069 109.538C179.68 109.748 181.362 110.309 183.113 111.149C183.394 111.29 183.674 111.43 183.884 111.57L183.464 111.78L172.043 118.086L163.635 123.131V126.214L172.043 121.309L172.323 121.169L186.336 113.462L186.687 113.251C187.037 113.462 187.387 113.742 187.668 113.952C188.579 114.653 189.489 115.423 190.33 116.194C190.47 116.334 190.681 116.544 190.821 116.685C196.216 121.869 200.49 129.156 202.382 136.303C203.222 138.895 203.643 141.558 203.643 144.01Z" fill="url(#paint6_linear_1_19911)" stroke="#231F20" stroke-width="0.225612" stroke-miterlimit="10" stroke-linecap="round" stroke-linejoin="round"/>
        <path d="M186.757 113.181L186.407 113.391L172.394 121.099L172.113 121.239L163.706 126.143V123.06L172.113 118.016L183.534 111.71L183.955 111.5C184.165 111.64 184.375 111.71 184.585 111.85C185.286 112.27 186.057 112.691 186.757 113.181Z" fill="url(#paint7_linear_1_19911)" stroke="#231F20" stroke-width="0.225612" stroke-miterlimit="10" stroke-linecap="round" stroke-linejoin="round"/>
        <path d="M171.763 110.519C171.413 110.729 170.852 111.079 170.222 111.43L170.292 111.36L171.763 110.519Z" fill="#C49A6C" stroke="#231F20" stroke-width="0.225612" stroke-miterlimit="10" stroke-linecap="round" stroke-linejoin="round"/>
        <g opacity="0.2">
            <path opacity="0.2" d="M188.579 115.634L181.572 119.487L170.151 125.793L164.686 129.086L110.105 98.0472L115.57 94.6841L126.5 88.4482L133.997 84.1742L188.579 115.634Z" fill="black" stroke="#231F20" stroke-width="0.210688" stroke-miterlimit="10"/>
        </g>
        <path d="M190.54 107.856L183.534 111.71L172.113 118.016L163.705 123.061L109.054 92.0215L117.532 86.9067L128.462 80.6709L136.029 76.3268L190.54 107.856Z" fill="#F1F2F2" stroke="#231F20" stroke-width="0.201439" stroke-miterlimit="10" stroke-linecap="round" stroke-linejoin="round"/>
        <path d="M163.705 123.061V126.144L109.054 94.1935V92.0215L163.705 123.061Z" fill="#F1F2F2" stroke="#231F20" stroke-width="0.201439" stroke-miterlimit="10" stroke-linecap="round" stroke-linejoin="round"/>
        <path opacity="0.14" d="M163.705 123.061V126.144L109.054 94.1935V92.0215L163.705 123.061Z" fill="black" stroke="#231F20" stroke-width="0.201439" stroke-miterlimit="10"/>
        <path d="M190.54 107.856L190.4 116.194C189.559 115.353 188.648 114.653 187.738 113.952V112.691L186.757 113.251L186.406 113.462L172.393 121.169L172.113 121.309L163.705 126.214V123.131L172.113 118.086L183.534 111.78L183.954 111.57L190.54 107.856Z" fill="#F1F2F2" stroke="#231F20" stroke-width="0.201439" stroke-miterlimit="10" stroke-linecap="round" stroke-linejoin="round"/>
    </g>
    <defs>
        <linearGradient id="paint0_linear_1_19911" x1="117.885" y1="108.101" x2="127.455" y2="125.619" gradientUnits="userSpaceOnUse">
            <stop stop-color="#C2B59B"/>
            <stop offset="1" stop-color="#49443A"/>
        </linearGradient>
        <linearGradient id="paint1_linear_1_19911" x1="155.814" y1="128.262" x2="155.671" y2="128.532" gradientUnits="userSpaceOnUse">
            <stop stop-color="#58595B"/>
            <stop offset="1"/>
        </linearGradient>
        <linearGradient id="paint2_linear_1_19911" x1="133.65" y1="143.321" x2="130.125" y2="88.5171" gradientUnits="userSpaceOnUse">
            <stop/>
            <stop offset="1" stop-color="#58595B"/>
        </linearGradient>
        <linearGradient id="paint3_linear_1_19911" x1="162.734" y1="134.172" x2="172.303" y2="151.69" gradientUnits="userSpaceOnUse">
            <stop stop-color="#C2B59B"/>
            <stop offset="1" stop-color="#49443A"/>
        </linearGradient>
        <linearGradient id="paint4_linear_1_19911" x1="200.662" y1="154.333" x2="200.519" y2="154.603" gradientUnits="userSpaceOnUse">
            <stop stop-color="#58595B"/>
            <stop offset="1"/>
        </linearGradient>
        <linearGradient id="paint5_linear_1_19911" x1="178.902" y1="167.153" x2="174.518" y2="112.434" gradientUnits="userSpaceOnUse">
            <stop/>
            <stop offset="1" stop-color="#58595B"/>
        </linearGradient>
        <linearGradient id="paint6_linear_1_19911" x1="175.714" y1="163.106" x2="176.671" y2="108.219" gradientUnits="userSpaceOnUse">
            <stop/>
            <stop offset="1" stop-color="#58595B"/>
        </linearGradient>
        <linearGradient id="paint7_linear_1_19911" x1="175.626" y1="124.693" x2="174.68" y2="112.877" gradientUnits="userSpaceOnUse">
            <stop/>
            <stop offset="1" stop-color="#58595B"/>
        </linearGradient>
        <clipPath id="">
            <rect width="106.5" height="95.2894" fill="white" transform="translate(97.2832 76.2566)"/>
        </clipPath>
    </defs>


    <g clip-path="url(#)">
        <path d="M181.197 137.515L139.812 162.242L133.381 152.43L143.822 146.307L162.207 135.474L176.052 127.311L181.197 137.515Z" fill="#F9FAFA" stroke="#231F20" stroke-width="0.201439" stroke-miterlimit="10" stroke-linecap="round" stroke-linejoin="round"/>
        <path d="M181.197 137.516V151.959L139.812 177.785V162.242L181.197 137.516Z" fill="#F1F2F2" stroke="#231F20" stroke-width="0.201439" stroke-miterlimit="10" stroke-linecap="round" stroke-linejoin="round"/>
        <path d="M176.052 127.311L162.131 135.474L143.822 146.307L133.381 152.43L130.658 150.782L116.207 141.911C116.358 141.911 120.519 139.556 126.421 136.102L101.832 121.345L89.878 114.123L84.6577 117.184L80.0425 119.932L66.5754 111.689L77.1675 105.645L76.9406 105.488L72.7794 102.976L62.9438 96.4607L82.9932 85.157L92.9044 91.7508L93.207 91.9863L96.4603 94.1058L109.398 86.57L119.309 92.6143L122.941 94.8123L113.256 100.464L123.092 106.509L125.135 107.764L149.345 122.758C152.825 120.717 156.23 118.676 159.256 116.949L176.052 127.311Z" fill="#F1F2F2" stroke="#231F20" stroke-width="0.201439" stroke-miterlimit="10" stroke-linecap="round" stroke-linejoin="round"/>
        <path d="M77.1678 105.645L66.5757 111.69L50.6875 117.655L62.9441 110.591L76.9408 105.567L77.1678 105.645Z" fill="#F1F2F2" stroke="#231F20" stroke-width="0.201439" stroke-miterlimit="10" stroke-linecap="round" stroke-linejoin="round"/>
        <path d="M109.398 86.5701L96.4603 94.1059L93.207 91.9865L109.398 86.5701Z" fill="#F1F2F2" stroke="#231F20" stroke-width="0.201439" stroke-miterlimit="10" stroke-linecap="round" stroke-linejoin="round"/>
        <path d="M76.9406 105.567L62.9438 110.591V96.4608L72.7794 103.055L76.9406 105.567Z" fill="#F1F2F2" stroke="#231F20" stroke-width="0.201439" stroke-miterlimit="10" stroke-linecap="round" stroke-linejoin="round"/>
        <path d="M139.812 162.242V177.785L99.7138 181.631L50.6875 137.515V117.655L66.5757 111.689L80.0428 119.932V134.061L80.1184 134.14L116.207 155.727V141.911L130.658 150.782L133.382 152.43L139.812 162.242Z" fill="#F1F2F2" stroke="#231F20" stroke-width="0.201439" stroke-miterlimit="10" stroke-linecap="round" stroke-linejoin="round"/>
        <path opacity="0.14" d="M139.812 162.242V177.785L99.7138 181.631L50.6875 137.515V117.655L66.5757 111.689L80.0428 119.932V134.061L80.1184 134.14L116.207 155.727V141.911L130.658 150.782L133.382 152.43L139.812 162.242Z" fill="black" stroke="#231F20" stroke-width="0.0802954" stroke-miterlimit="10"/>
        <path d="M76.9406 105.567L62.9438 110.591V96.4608L72.7794 103.055L76.9406 105.567Z" fill="#F1F2F2" stroke="#231F20" stroke-width="0.201439" stroke-miterlimit="10" stroke-linecap="round" stroke-linejoin="round"/>
        <path opacity="0.14" d="M76.9406 105.567L62.9438 110.591V96.4608L72.7794 103.055L76.9406 105.567Z" fill="black" stroke="#231F20" stroke-width="0.0802954" stroke-miterlimit="10"/>
        <path d="M116.207 144.502V155.727L80.1182 134.14L89.878 128.41L116.207 144.502Z" fill="#F1F2F2" stroke="#231F20" stroke-width="0.201439" stroke-miterlimit="10" stroke-linecap="round" stroke-linejoin="round"/>
        <path d="M89.878 114.201V128.41L80.1181 134.14L80.0425 134.061V119.932L84.6576 117.184L89.878 114.201Z" fill="#F1F2F2" stroke="#231F20" stroke-width="0.201439" stroke-miterlimit="10" stroke-linecap="round" stroke-linejoin="round"/>
        <path d="M126.346 136.102C120.444 139.556 116.359 141.911 116.132 141.911V144.502L89.8784 128.41V114.201L101.832 121.423L126.346 136.102Z" fill="#F1F2F2" stroke="#231F20" stroke-width="0.201439" stroke-miterlimit="10" stroke-linecap="round" stroke-linejoin="round"/>
        <path d="M123.017 94.8909V106.509L113.181 100.464L122.865 94.8124L123.017 94.8909Z" fill="#F1F2F2" stroke="#231F20" stroke-width="0.201439" stroke-miterlimit="10" stroke-linecap="round" stroke-linejoin="round"/>
        <path d="M123.017 94.7339V94.8909L122.865 94.8124L123.017 94.7339Z" fill="#F1F2F2" stroke="#231F20" stroke-width="0.201439" stroke-miterlimit="10" stroke-linecap="round" stroke-linejoin="round"/>
        <path opacity="0.14" d="M89.878 114.201L85.6411 130.843L116.207 149.997V141.911L126.345 136.102L89.878 114.201Z" fill="black" stroke="#231F20" stroke-width="0.0802954" stroke-miterlimit="10"/>
        <path opacity="0.2" d="M154.793 166.324C154.793 166.324 147.53 169.386 147.53 163.42C147.53 157.532 147.53 157.611 147.53 157.611L151.994 154.942L154.793 166.324Z" fill="black" stroke="#231F20" stroke-width="0.0802954" stroke-miterlimit="10"/>
        <path opacity="0.2" d="M168.714 157.297C168.714 157.297 161.224 160.515 161.224 154.55C161.224 148.584 161.224 149.447 161.224 149.447L166.293 146.386L168.714 157.297Z" fill="black" stroke="#231F20" stroke-width="0.0802954" stroke-miterlimit="10"/>
        <path d="M173.556 136.966C173.481 136.966 173.481 137.045 173.405 137.123C173.329 137.123 173.329 137.202 173.254 137.202C171.211 138.85 169.773 142.225 170 144.894C170.152 146.15 170.606 147.014 171.287 147.406V155.256C171.287 155.806 170.908 156.355 170.227 156.826C168.79 157.69 166.444 157.69 165.007 156.826C164.326 156.434 163.948 155.884 163.948 155.256V144.502C163.948 134.768 169.698 135.396 173.556 136.966Z" fill="url(#paint0_linear_1_19911)" stroke="#231F20" stroke-width="0.190369" stroke-miterlimit="10" stroke-linecap="round" stroke-linejoin="round"/>
        <path opacity="0.2" d="M167.277 156.748C167.655 156.983 168.185 157.14 168.714 157.297C167.428 157.533 165.99 157.376 164.931 156.748C164.25 156.355 163.872 155.806 163.872 155.178V144.502C163.948 136.966 167.428 135.632 170.757 136.181C168.336 136.652 166.293 138.771 166.217 144.502V155.178C166.217 155.806 166.596 156.355 167.277 156.748Z" fill="black" stroke="#231F20" stroke-width="0.201439" stroke-miterlimit="10"/>
        <path d="M180.139 140.184C179.987 138.771 179.382 137.83 178.55 137.516C178.323 137.437 178.02 137.359 177.793 137.359C177.717 137.359 177.717 137.359 177.642 137.359C177.566 137.359 177.566 137.359 177.491 137.359C177.415 137.359 177.339 137.359 177.339 137.359C177.264 137.359 177.264 137.359 177.188 137.359C177.112 137.359 177.112 137.359 177.037 137.437C176.81 137.516 176.583 137.594 176.431 137.751C176.356 137.751 176.356 137.83 176.28 137.83C176.204 137.83 176.204 137.908 176.129 137.908C176.053 137.908 175.977 137.987 175.977 137.987L175.902 138.065C175.75 138.222 175.523 138.379 175.372 138.536C175.221 138.693 174.994 138.85 174.842 139.085C174.767 139.164 174.691 139.321 174.616 139.399C174.464 139.635 174.313 139.87 174.162 140.027C174.01 140.263 173.859 140.498 173.708 140.734C173.632 140.891 173.556 140.969 173.481 141.126C173.405 141.205 173.405 141.362 173.329 141.44C173.178 141.754 173.102 141.99 173.027 142.304C173.027 142.382 172.951 142.461 172.951 142.618L172.875 142.775C172.875 142.853 172.8 143.01 172.8 143.089C172.8 143.246 172.724 143.324 172.724 143.481C172.724 143.56 172.648 143.717 172.648 143.874V143.952C172.648 144.109 172.573 144.188 172.573 144.345C172.573 144.502 172.573 144.58 172.573 144.737C172.573 144.894 172.573 144.973 172.573 145.13V145.208C172.573 145.287 172.573 145.287 172.573 145.365C172.573 145.444 172.573 145.522 172.573 145.601C172.573 145.679 172.573 145.758 172.573 145.915C172.573 145.993 172.573 146.072 172.573 146.229C172.648 146.778 172.8 147.249 173.027 147.642C173.102 147.799 173.178 147.956 173.329 148.034C173.329 148.113 173.405 148.113 173.405 148.191C173.481 148.27 173.632 148.427 173.783 148.505C173.783 148.505 173.859 148.584 173.935 148.584C174.086 148.662 174.162 148.741 174.313 148.741C175.069 148.976 175.977 148.741 176.885 148.034C178.928 146.386 180.441 142.853 180.139 140.184ZM176.658 146.464C175.977 146.935 175.372 147.092 174.842 146.935C174.767 146.935 174.691 146.857 174.54 146.857C174.464 146.857 174.389 146.778 174.313 146.7C174.162 146.543 174.01 146.386 173.935 146.229C173.783 145.993 173.708 145.679 173.632 145.287C173.632 145.208 173.632 145.13 173.632 145.13C173.632 144.973 173.632 144.816 173.632 144.659C173.632 143.246 174.313 141.597 175.296 140.498C175.523 140.263 175.75 140.027 175.977 139.792C175.977 139.792 175.977 139.792 176.053 139.713C176.356 139.478 176.658 139.321 176.961 139.242C177.037 139.242 177.188 139.164 177.264 139.164C177.491 139.164 177.717 139.164 177.869 139.242C178.474 139.478 178.852 140.106 178.928 141.048C179.155 142.932 178.096 145.365 176.658 146.464Z" fill="#F1F2F2" stroke="#231F20" stroke-width="0.201439" stroke-miterlimit="10" stroke-linecap="round" stroke-linejoin="round"/>
        <path d="M176.658 146.464C175.977 146.935 175.372 147.092 174.842 146.935C174.766 146.935 174.691 146.857 174.539 146.857C174.464 146.857 174.388 146.778 174.312 146.7C174.691 146.7 175.145 146.543 175.599 146.15C177.036 145.051 178.095 142.696 177.944 140.812C177.868 140.027 177.641 139.478 177.188 139.164C177.414 139.164 177.641 139.164 177.793 139.242C178.398 139.478 178.776 140.106 178.852 141.048C179.155 142.932 178.095 145.365 176.658 146.464Z" fill="#797979" stroke="#231F20" stroke-width="0.201439" stroke-miterlimit="10" stroke-linecap="round" stroke-linejoin="round"/>
        <path d="M175.675 146.15C175.221 146.464 174.767 146.621 174.388 146.7C174.237 146.543 174.086 146.386 174.01 146.229C173.859 145.993 173.783 145.679 173.708 145.287C173.708 145.208 173.708 145.13 173.708 145.13C173.708 144.973 173.708 144.816 173.708 144.659C173.708 143.246 174.388 141.597 175.372 140.498C175.599 140.263 175.826 140.027 176.053 139.792C176.053 139.792 176.053 139.792 176.129 139.713C176.431 139.478 176.734 139.321 177.036 139.242C177.112 139.242 177.263 139.164 177.339 139.164C177.717 139.478 178.02 140.027 178.096 140.812C178.171 142.618 177.112 145.051 175.675 146.15Z" fill="#939598" stroke="#231F20" stroke-width="0.0802954" stroke-miterlimit="10"/>
        <path d="M178.626 137.516C178.399 137.437 178.096 137.359 177.869 137.359C177.793 137.359 177.793 137.359 177.718 137.359C177.642 137.359 177.642 137.359 177.566 137.359C177.491 137.359 177.415 137.359 177.415 137.359C177.339 137.359 177.339 137.359 177.264 137.359C177.188 137.359 177.188 137.359 177.112 137.437C176.886 137.516 176.659 137.594 176.507 137.751C176.432 137.751 176.432 137.829 176.356 137.829C176.28 137.829 176.28 137.908 176.205 137.908C176.129 137.908 176.053 137.986 176.053 137.986L175.978 138.065C175.826 138.222 175.599 138.379 175.448 138.536C175.297 138.693 175.07 138.85 174.918 139.085C174.843 139.164 174.767 139.321 174.691 139.399C174.54 139.635 174.389 139.87 174.237 140.027C174.086 140.263 173.935 140.498 173.784 140.734C173.708 140.891 173.632 140.969 173.557 141.126C173.481 141.205 173.481 141.362 173.405 141.44C173.254 141.754 173.178 141.99 173.103 142.304C173.103 142.382 173.027 142.461 173.027 142.618L172.951 142.775C172.951 142.853 172.876 143.01 172.876 143.089C172.876 143.246 172.8 143.324 172.8 143.481C172.8 143.56 172.724 143.717 172.724 143.874V143.952C172.724 144.109 172.649 144.188 172.649 144.345C172.649 144.502 172.649 144.58 172.649 144.737C172.649 144.894 172.649 144.973 172.649 145.13V145.208C172.649 145.287 172.649 145.287 172.649 145.365C172.649 145.444 172.649 145.522 172.649 145.601C172.649 145.679 172.649 145.758 172.649 145.915C172.649 145.993 172.649 146.072 172.649 146.229C172.724 146.778 172.876 147.249 173.103 147.642C173.178 147.799 173.254 147.956 173.405 148.034C173.405 148.113 173.481 148.113 173.481 148.191C173.557 148.27 173.708 148.427 173.859 148.505C173.859 148.505 173.935 148.584 174.011 148.584L171.816 147.642C171.741 147.642 171.665 147.563 171.514 147.485C171.514 147.485 171.438 147.485 171.438 147.406C170.757 147.014 170.303 146.15 170.152 144.894C169.925 142.225 171.363 138.85 173.405 137.202C173.481 137.123 173.481 137.123 173.557 137.123C173.632 137.045 173.632 137.045 173.708 136.966C174.54 136.417 175.372 136.181 176.053 136.338L176.583 136.574L178.626 137.516Z" fill="#F1F2F2" stroke="#231F20" stroke-width="0.201439" stroke-miterlimit="10" stroke-linecap="round" stroke-linejoin="round"/>
        <path d="M159.862 145.836C159.786 145.836 159.786 145.915 159.711 145.993C159.635 145.993 159.635 146.072 159.559 146.072C157.517 147.72 156.079 151.096 156.306 153.765C156.457 155.021 156.911 155.884 157.592 156.277V164.126C157.592 164.676 157.214 165.225 156.533 165.696C155.096 166.56 152.75 166.56 151.313 165.696C150.632 165.304 150.253 164.754 150.253 164.126V153.372C150.253 143.638 156.079 144.266 159.862 145.836Z" fill="url(#paint1_linear_1_19911)" stroke="#231F20" stroke-width="0.190369" stroke-miterlimit="10" stroke-linecap="round" stroke-linejoin="round"/>
        <path opacity="0.2" d="M153.582 165.618C153.961 165.854 154.49 166.011 155.02 166.168C153.734 166.403 152.296 166.246 151.237 165.618C150.556 165.226 150.178 164.676 150.178 164.048V153.372C150.253 145.836 153.734 144.502 157.063 145.051C154.642 145.522 152.599 147.642 152.523 153.372V164.048C152.523 164.676 152.901 165.226 153.582 165.618Z" fill="black" stroke="#231F20" stroke-width="0.201439" stroke-miterlimit="10"/>
        <path d="M166.52 149.055C166.369 147.642 165.763 146.7 164.931 146.386C164.704 146.307 164.401 146.229 164.174 146.229C164.099 146.229 164.099 146.229 164.023 146.229C163.948 146.229 163.948 146.229 163.872 146.229C163.796 146.229 163.721 146.229 163.721 146.229C163.645 146.229 163.645 146.229 163.569 146.229C163.494 146.229 163.494 146.229 163.418 146.307C163.191 146.386 162.964 146.464 162.813 146.621C162.737 146.621 162.737 146.7 162.661 146.7C162.586 146.7 162.586 146.778 162.51 146.778C162.434 146.778 162.359 146.857 162.359 146.857L162.283 146.935C162.132 147.092 161.905 147.249 161.753 147.406C161.602 147.563 161.375 147.72 161.224 147.956C161.148 148.034 161.073 148.191 160.997 148.27C160.846 148.505 160.694 148.741 160.543 148.898C160.392 149.133 160.24 149.369 160.089 149.604C160.013 149.761 159.938 149.84 159.862 149.997C159.786 150.075 159.786 150.232 159.711 150.311C159.559 150.625 159.484 150.86 159.408 151.174C159.408 151.253 159.332 151.331 159.332 151.488L159.257 151.645C159.257 151.724 159.181 151.881 159.181 151.959C159.181 152.116 159.105 152.195 159.105 152.352C159.105 152.43 159.03 152.587 159.03 152.744V152.823C159.03 152.98 158.954 153.058 158.954 153.215C158.954 153.372 158.954 153.451 158.954 153.608C158.954 153.765 158.954 153.843 158.954 154V154.079C158.954 154.157 158.954 154.157 158.954 154.236C158.954 154.314 158.954 154.393 158.954 154.471C158.954 154.55 158.954 154.628 158.954 154.785C158.954 154.864 158.954 154.942 158.954 155.099C159.03 155.649 159.181 156.12 159.408 156.512C159.484 156.669 159.559 156.826 159.711 156.905C159.711 156.983 159.786 156.983 159.786 157.062C159.862 157.14 160.013 157.297 160.165 157.376C160.165 157.376 160.24 157.454 160.316 157.454C160.467 157.533 160.543 157.611 160.694 157.611C161.451 157.847 162.359 157.611 163.267 156.905C165.234 155.256 166.747 151.802 166.52 149.055ZM162.964 155.335C162.283 155.806 161.678 155.963 161.148 155.806C161.073 155.806 160.997 155.727 160.846 155.727C160.77 155.727 160.694 155.649 160.619 155.57C160.467 155.413 160.316 155.256 160.24 155.099C160.089 154.864 160.013 154.55 159.938 154.157C159.938 154.079 159.938 154 159.938 154C159.938 153.843 159.938 153.686 159.938 153.529C159.938 152.116 160.619 150.468 161.602 149.369C161.829 149.133 162.056 148.898 162.283 148.662C162.283 148.662 162.283 148.662 162.359 148.584C162.661 148.348 162.964 148.191 163.267 148.113C163.342 148.113 163.494 148.034 163.569 148.034C163.796 148.034 164.023 148.034 164.174 148.113C164.78 148.348 165.158 148.976 165.234 149.918C165.461 151.802 164.401 154.236 162.964 155.335Z" fill="#F1F2F2" stroke="#231F20" stroke-width="0.201439" stroke-miterlimit="10" stroke-linecap="round" stroke-linejoin="round"/>
        <path d="M162.964 155.335C162.283 155.806 161.677 155.963 161.148 155.806C161.072 155.806 160.996 155.727 160.845 155.727C160.769 155.727 160.694 155.649 160.618 155.57C160.996 155.57 161.45 155.413 161.904 155.021C163.342 153.922 164.401 151.567 164.25 149.683C164.174 148.898 163.947 148.348 163.493 148.034C163.72 148.034 163.947 148.034 164.098 148.113C164.704 148.348 165.082 148.976 165.158 149.918C165.46 151.802 164.401 154.236 162.964 155.335Z" fill="#797979" stroke="#231F20" stroke-width="0.201439" stroke-miterlimit="10" stroke-linecap="round" stroke-linejoin="round"/>
        <path d="M161.98 155.021C161.526 155.335 161.072 155.492 160.694 155.57C160.543 155.413 160.391 155.256 160.316 155.099C160.164 154.864 160.089 154.55 160.013 154.157C160.013 154.079 160.013 154 160.013 154C160.013 153.843 160.013 153.686 160.013 153.529C160.013 152.116 160.694 150.468 161.678 149.369C161.905 149.133 162.132 148.898 162.359 148.662C162.359 148.662 162.359 148.662 162.434 148.584C162.737 148.348 163.039 148.191 163.342 148.113C163.418 148.113 163.569 148.034 163.645 148.034C164.023 148.348 164.326 148.898 164.401 149.683C164.477 151.488 163.418 153.922 161.98 155.021Z" fill="#939598" stroke="#231F20" stroke-width="0.0802954" stroke-miterlimit="10"/>
        <path d="M164.931 146.386C164.704 146.307 164.401 146.229 164.174 146.229C164.099 146.229 164.099 146.229 164.023 146.229C163.947 146.229 163.947 146.229 163.872 146.229C163.796 146.229 163.72 146.229 163.72 146.229C163.645 146.229 163.645 146.229 163.569 146.229C163.493 146.229 163.493 146.229 163.418 146.307C163.191 146.386 162.964 146.464 162.812 146.621C162.737 146.621 162.737 146.7 162.661 146.7C162.585 146.7 162.585 146.778 162.51 146.778C162.434 146.778 162.358 146.857 162.358 146.857L162.283 146.935C162.132 147.092 161.905 147.249 161.753 147.406C161.602 147.563 161.375 147.72 161.224 147.956C161.148 148.034 161.072 148.191 160.997 148.27C160.845 148.505 160.694 148.741 160.543 148.898C160.391 149.133 160.24 149.369 160.089 149.604C160.013 149.761 159.937 149.84 159.862 149.997C159.786 150.075 159.786 150.232 159.71 150.311C159.559 150.625 159.483 150.86 159.408 151.174C159.408 151.253 159.332 151.331 159.332 151.488L159.257 151.645C159.257 151.724 159.181 151.881 159.181 151.959C159.181 152.116 159.105 152.195 159.105 152.352C159.105 152.43 159.03 152.587 159.03 152.744V152.823C159.03 152.98 158.954 153.058 158.954 153.215C158.954 153.372 158.954 153.451 158.954 153.608C158.954 153.765 158.954 153.843 158.954 154V154.157C158.954 154.236 158.954 154.236 158.954 154.314C158.954 154.393 158.954 154.471 158.954 154.55C158.954 154.628 158.954 154.707 158.954 154.864C158.954 154.942 158.954 155.021 158.954 155.178C159.03 155.727 159.181 156.198 159.408 156.591C159.483 156.748 159.559 156.905 159.71 156.983C159.71 157.062 159.786 157.062 159.786 157.14C159.862 157.219 160.013 157.376 160.164 157.454C160.164 157.454 160.24 157.533 160.316 157.533L158.122 156.591C158.046 156.591 157.97 156.512 157.819 156.434C157.819 156.434 157.743 156.434 157.743 156.355C157.062 155.963 156.608 155.099 156.457 153.843C156.23 151.174 157.668 147.799 159.71 146.15C159.786 146.072 159.786 146.072 159.862 146.072C159.937 145.993 159.937 145.993 160.013 145.915C160.845 145.365 161.678 145.13 162.358 145.287L162.888 145.522L164.931 146.386Z" fill="#F1F2F2" stroke="#231F20" stroke-width="0.201439" stroke-miterlimit="10" stroke-linecap="round" stroke-linejoin="round"/>
    </g>
    <defs>
        <linearGradient id="paint0_linear_1_19911" x1="163.858" y1="146.721" x2="173.526" y2="146.721" gradientUnits="userSpaceOnUse">
            <stop stop-color="#D1D2D3"/>
            <stop offset="0.3636" stop-color="#D1D2D3"/>
            <stop offset="0.6738" stop-color="#F1F1F1"/>
            <stop offset="1" stop-color="#E5E6E6"/>
        </linearGradient>
        <linearGradient id="paint1_linear_1_19911" x1="150.187" y1="155.598" x2="159.855" y2="155.598" gradientUnits="userSpaceOnUse">
            <stop stop-color="#D1D2D3"/>
            <stop offset="0.3636" stop-color="#D1D2D3"/>
            <stop offset="0.6738" stop-color="#F1F1F1"/>
            <stop offset="1" stop-color="#E5E6E6"/>
        </linearGradient>
        <clipPath id="">
            <rect width="130.661" height="96.6314" fill="white" transform="translate(50.6118 85.0785)"/>
        </clipPath>
    </defs>


    <g clip-path="url(#)">
        <path d="M36.9557 145.762C36.9557 145.762 30.86 139.596 29.809 151.157C28.7581 162.718 28.688 162.648 28.688 162.648L40.2488 180.024L53.7715 181.425L54.7525 174.419L36.9557 145.762Z" fill="#49443A" stroke="#231F20" stroke-width="0.225612" stroke-miterlimit="10" stroke-linecap="round" stroke-linejoin="round"/>
        <path d="M61.1285 166.852C61.1285 167.692 61.0584 168.463 60.9884 169.234C60.8482 169.935 60.7081 170.565 60.4979 171.196C60.0074 172.597 59.1667 173.648 58.1857 174.349C57.2048 175.049 56.0137 175.4 54.6825 175.47C54.6124 175.47 54.4723 175.47 54.4022 175.47C52.9308 175.4 51.2492 174.979 49.4275 173.998C49.3575 173.998 49.3575 173.928 49.2874 173.928C42.5611 170.145 37.0959 160.896 37.0259 153.329C37.0259 152.979 37.0259 152.558 37.0259 152.208C37.0959 150.526 37.5163 149.125 38.0769 148.004C38.0769 147.934 38.1469 147.864 38.217 147.794C38.9177 146.533 39.8986 145.622 41.1598 145.131C42.2107 144.711 43.4019 144.571 44.7331 144.781C45.7841 144.921 46.8351 145.271 47.9561 145.832C48.2364 145.972 48.5867 146.112 48.867 146.322C49.0071 146.392 49.1473 146.462 49.3575 146.603C49.4275 146.603 49.4275 146.673 49.4976 146.673C54.8926 151.858 59.1667 159.144 61.0584 166.291C61.0584 166.361 61.0584 166.361 61.0584 166.431C61.1285 166.501 61.1285 166.641 61.1285 166.852Z" fill="#6E6657" stroke="#231F20" stroke-width="0.225612" stroke-miterlimit="10" stroke-linecap="round" stroke-linejoin="round"/>
        <path d="M35.064 157.603C35.134 163.278 39.1978 170.145 44.1725 172.947C46.835 174.419 49.1472 174.489 50.7587 173.298C51.5294 172.737 52.0899 171.966 52.5103 170.915C52.6505 170.495 52.7906 170.004 52.8607 169.444C52.9307 168.883 53.0008 168.323 53.0008 167.692C52.9307 162.017 48.8669 155.151 43.8923 152.348C43.6821 152.208 43.4719 152.138 43.1916 151.998C42.3508 151.577 41.51 151.367 40.8094 151.227C39.8284 151.087 38.9176 151.157 38.1469 151.507C36.2551 152.348 35.064 154.45 35.064 157.603Z" fill="#928874" stroke="#231F20" stroke-width="0.225612" stroke-miterlimit="10" stroke-linecap="round" stroke-linejoin="round"/>
        <path d="M38.2173 151.507C38.988 151.157 39.8989 151.087 40.8798 151.227C41.6505 151.367 42.4212 151.577 43.262 151.998C43.4722 152.138 43.6824 152.208 43.9627 152.348C48.9373 155.151 53.0012 162.017 53.0712 167.692C53.0712 168.323 53.0712 168.883 52.9311 169.444C52.861 169.934 52.7209 170.425 52.5808 170.915C52.2304 171.966 51.5998 172.737 50.8291 173.298L55.6637 170.425L55.7337 170.355C57.3452 169.444 58.3262 167.412 58.3262 164.539C58.2561 158.864 54.1923 151.998 49.2176 149.195C47.0456 148.004 45.0837 147.724 43.5423 148.354L42.2811 149.055L38.2173 151.507Z" fill="url(#paint0_linear_1_19911)" stroke="#231F20" stroke-width="0.225612" stroke-miterlimit="10" stroke-linecap="round" stroke-linejoin="round"/>
        <path d="M61.1285 166.431C61.1285 166.361 61.1285 166.361 61.0584 166.291C59.0966 159.074 54.8226 151.858 49.4976 146.673C49.4275 146.603 49.4275 146.603 49.3574 146.533C47.3956 144.641 45.2936 143.099 43.1216 141.838C42.6311 141.558 42.1407 141.348 41.7203 141.137C39.9686 140.297 38.287 139.736 36.6755 139.526C34.6436 139.246 32.7519 139.456 31.1403 140.086H31.0703C27.0065 141.768 24.4841 146.252 24.5542 152.838C24.6943 164.75 33.2423 179.183 43.6821 185.069C49.2173 188.152 54.192 188.222 57.6252 185.769C59.2367 184.648 60.4278 182.967 61.2686 180.795C61.6189 179.884 61.8992 178.833 62.0393 177.712C62.2495 176.591 62.3196 175.33 62.3196 173.998C62.1795 171.546 61.8291 168.954 61.1285 166.431ZM52.4403 177.642C50.2683 179.183 47.1153 179.183 43.542 177.151C36.8857 173.438 31.4206 164.259 31.3505 156.622C31.2805 152.418 32.892 149.545 35.4844 148.494C36.2551 148.144 37.166 148.004 38.1469 148.004C38.217 148.004 38.287 148.004 38.3571 148.004C38.5673 148.004 38.8476 148.074 39.0578 148.074C40.0387 148.214 41.1597 148.564 42.2808 149.055C42.5611 149.195 42.9114 149.335 43.1916 149.545C49.8479 153.329 55.313 162.508 55.3831 170.145C55.3831 170.285 55.3831 170.425 55.3831 170.565C55.3831 171.266 55.313 171.896 55.243 172.527C55.1028 173.228 54.9627 173.858 54.7525 174.489C54.6124 174.839 54.4722 175.119 54.3321 175.47C53.8416 176.381 53.2111 177.081 52.4403 177.642Z" fill="#231F20" stroke="#231F20" stroke-width="0.225612" stroke-miterlimit="10" stroke-linecap="round" stroke-linejoin="round"/>
        <path d="M79.836 172.667C80.3265 172.457 80.8169 172.177 81.3074 171.826L79.836 172.667ZM61.0584 166.221C59.0966 159.004 54.8226 151.787 49.4976 146.603C49.4275 146.532 49.4275 146.532 49.3574 146.462V146.532C49.6377 147.724 50.0581 148.845 50.4785 150.036C52.2301 154.8 54.9627 159.425 58.2558 163.348C59.1666 164.399 60.1476 165.45 61.1285 166.431C61.1285 166.361 61.1285 166.291 61.0584 166.221ZM52.5804 127.404L52.5104 127.475C53.211 127.054 53.8416 126.704 54.192 126.494C54.262 126.494 54.262 126.424 54.3321 126.424C54.4022 126.424 54.4722 126.354 54.4722 126.354C54.5423 126.354 54.5423 126.283 54.6124 126.283L54.6824 126.213C53.9818 126.424 53.2811 126.844 52.5804 127.404Z" fill="#231F20" stroke="#231F20" stroke-width="0.225612" stroke-miterlimit="10" stroke-linecap="round" stroke-linejoin="round"/>
        <path d="M83.0588 170.355C82.9187 170.495 82.7786 170.565 82.7085 170.635C82.8486 170.565 82.9187 170.495 83.0588 170.355Z" fill="url(#paint1_linear_1_19911)" stroke="#231F20" stroke-width="0.225612" stroke-miterlimit="10" stroke-linecap="round" stroke-linejoin="round"/>
        <path d="M85.9316 160.055C85.9316 161.386 85.8615 162.648 85.6513 163.769C85.5112 164.89 85.2309 165.871 84.8806 166.852C84.1098 169.024 82.8487 170.705 81.2371 171.826L79.7658 172.667L57.4849 185.699C59.0964 184.578 60.2875 182.897 61.1283 180.725C61.4786 179.814 61.7589 178.763 61.899 177.642C62.1092 176.521 62.1793 175.26 62.1793 173.928C62.1793 171.476 61.7589 168.954 61.0582 166.361C61.0582 166.291 61.0582 166.291 60.9881 166.221C59.0263 159.004 54.7523 151.787 49.4273 146.603C49.3572 146.533 49.3572 146.533 49.2872 146.462C47.3253 144.571 45.2233 143.029 43.0513 141.768C42.5609 141.488 42.0704 141.278 41.65 141.067C39.8984 140.227 38.2168 139.666 36.6053 139.456C34.5734 139.176 32.6816 139.386 31.0701 140.016H31L52.5803 127.405L52.5102 127.475C53.2108 127.054 53.8414 126.704 54.1918 126.494C54.2618 126.494 54.2618 126.424 54.3319 126.424C54.402 126.424 54.472 126.354 54.472 126.354C54.5421 126.354 54.5421 126.284 54.6122 126.284L54.6822 126.213C56.3638 125.513 58.2556 125.303 60.2875 125.583C61.899 125.793 63.5806 126.354 65.3322 127.194C65.8227 127.405 66.2431 127.685 66.7335 127.895C68.9756 129.156 71.1477 130.768 73.1095 132.73C78.5046 137.914 82.7786 145.201 84.6704 152.348C85.5112 154.94 85.9316 157.533 85.9316 160.055Z" fill="url(#paint2_linear_1_19911)" stroke="#231F20" stroke-width="0.225612" stroke-miterlimit="10" stroke-linecap="round" stroke-linejoin="round"/>
        <path d="M54.1918 126.494C53.7714 126.704 53.2109 127.054 52.5103 127.475L52.5803 127.405L54.1918 126.494Z" fill="#C49A6C" stroke="#231F20" stroke-width="0.225612" stroke-miterlimit="10" stroke-linecap="round" stroke-linejoin="round"/>
        <path d="M81.7983 171.826C81.7983 171.826 75.7026 165.66 74.6516 177.221C73.6006 188.782 73.6006 188.782 73.6006 188.782L85.1614 206.158L98.6841 207.56L99.6651 200.553L81.7983 171.826Z" fill="#49443A" stroke="#231F20" stroke-width="0.225612" stroke-miterlimit="10" stroke-linecap="round" stroke-linejoin="round"/>
        <path d="M105.971 192.916C105.971 193.757 105.901 194.528 105.831 195.298C105.691 195.999 105.551 196.63 105.34 197.26C104.85 198.661 104.009 199.712 103.028 200.413C102.047 201.114 100.856 201.534 99.525 201.534C99.4549 201.534 99.3148 201.534 99.2447 201.534C97.7733 201.534 96.0918 201.044 94.27 200.063C94.2 200.063 94.2 199.993 94.1299 199.993C87.4737 196.279 82.0085 187.031 81.9385 179.463C81.9385 179.113 81.9385 178.693 81.9385 178.342C82.0085 176.661 82.4289 175.259 82.9895 174.138C82.9895 174.068 83.0595 173.998 83.1296 173.928C83.8303 172.667 84.8112 171.756 86.0724 171.266C87.1233 170.845 88.3145 170.705 89.6457 170.915C90.6266 171.056 91.7477 171.406 92.8687 171.966C93.149 172.107 93.4993 172.247 93.7796 172.457C93.9197 172.527 94.0599 172.597 94.27 172.737C94.3401 172.737 94.3401 172.807 94.4102 172.807C99.8052 177.992 104.079 185.279 105.971 192.426C105.971 192.496 105.971 192.496 105.971 192.566C105.971 192.566 105.971 192.776 105.971 192.916Z" fill="#6E6657" stroke="#231F20" stroke-width="0.225612" stroke-miterlimit="10" stroke-linecap="round" stroke-linejoin="round"/>
        <path d="M79.9761 183.667C80.0461 189.343 84.11 196.209 89.0846 199.012C91.7471 200.483 94.0593 200.553 95.6708 199.362C96.4415 198.802 97.002 198.031 97.4224 196.98C97.5626 196.56 97.7027 196.069 97.7728 195.509C97.8428 194.948 97.9129 194.387 97.9129 193.757C97.8428 188.082 93.779 181.215 88.8044 178.412C88.5942 178.272 88.384 178.202 88.1037 178.062C87.2629 177.642 86.4221 177.432 85.7215 177.291C84.7405 177.151 83.8297 177.221 83.059 177.572C81.0971 178.412 79.906 180.514 79.9761 183.667Z" fill="#928874" stroke="#231F20" stroke-width="0.225612" stroke-miterlimit="10" stroke-linecap="round" stroke-linejoin="round"/>
        <path d="M83.0591 177.572C83.8298 177.221 84.7407 177.151 85.7216 177.292C86.4923 177.432 87.263 177.642 88.1038 178.062C88.314 178.202 88.5242 178.272 88.8045 178.413C93.7791 181.215 97.843 188.082 97.913 193.757C97.913 194.388 97.843 194.948 97.7729 195.509C97.7028 195.999 97.5627 196.49 97.4226 196.98C97.0722 198.031 96.4416 198.802 95.6709 199.362L100.505 196.49L100.576 196.42C102.187 195.509 103.168 193.477 103.168 190.604C103.098 184.929 99.0341 178.062 94.0594 175.26C91.8874 174.069 89.9255 173.788 88.3841 174.419L87.1229 175.12L83.0591 177.572Z" fill="url(#paint3_linear_1_19911)" stroke="#231F20" stroke-width="0.225612" stroke-miterlimit="10" stroke-linecap="round" stroke-linejoin="round"/>
        <path d="M105.971 192.496C105.971 192.426 105.971 192.426 105.901 192.356C103.939 185.139 99.6649 177.922 94.3399 172.737C94.2698 172.667 94.1997 172.667 94.1997 172.597C92.2379 170.705 90.1359 169.164 87.9639 167.903C87.4734 167.622 86.9829 167.412 86.5626 167.202C84.8109 166.361 83.1293 165.801 81.5178 165.59C79.4859 165.31 77.5941 165.52 75.9826 166.151H75.9126C71.8487 167.833 69.3264 172.317 69.3964 178.903C69.5366 190.814 78.0846 205.248 88.5244 211.133C94.0596 214.216 99.0343 214.286 102.467 211.834C104.079 210.713 105.27 209.031 106.111 206.859C106.461 205.948 106.741 204.897 106.882 203.776C107.092 202.655 107.162 201.394 107.162 200.063C107.022 197.61 106.671 195.018 105.971 192.496ZM97.2826 203.706C95.1106 205.248 91.9576 205.248 88.3843 203.216C81.728 199.502 76.2629 190.254 76.1928 182.686C76.1228 178.483 77.7343 175.61 80.3267 174.559C81.0974 174.209 82.0083 174.068 82.9892 174.068C83.0593 174.068 83.1293 174.068 83.1994 174.068C83.4096 174.068 83.6899 174.068 83.9001 174.138C84.881 174.279 86.002 174.629 87.1231 175.119C87.4033 175.26 87.7537 175.4 88.0339 175.61C94.6902 179.323 100.155 188.572 100.225 196.139C100.225 196.279 100.225 196.419 100.225 196.559C100.225 197.26 100.155 197.891 100.085 198.521C99.9451 199.222 99.805 199.853 99.5948 200.483C99.4547 200.834 99.3145 201.114 99.1744 201.464C98.6839 202.445 98.0533 203.146 97.2826 203.706Z" fill="#231F20" stroke="#231F20" stroke-width="0.225612" stroke-miterlimit="10" stroke-linecap="round" stroke-linejoin="round"/>
        <path d="M124.678 198.732C125.169 198.521 125.659 198.241 126.15 197.891L124.678 198.732ZM105.901 192.286C103.939 185.069 99.6648 177.852 94.3398 172.667C94.2698 172.597 94.1997 172.597 94.1997 172.527V172.597C94.48 173.788 94.9004 174.909 95.3208 176.1C97.0724 180.865 99.805 185.489 103.098 189.413C104.009 190.464 104.99 191.515 105.971 192.496C105.971 192.496 105.971 192.496 106.041 192.496C105.971 192.426 105.971 192.356 105.901 192.286ZM97.4227 153.469C97.3527 153.469 97.3527 153.539 97.3527 153.539C98.0533 153.119 98.6839 152.768 99.0342 152.558C99.1043 152.558 99.1043 152.488 99.1744 152.488C99.2444 152.418 99.3145 152.418 99.3145 152.418C99.3846 152.418 99.3846 152.348 99.4546 152.348L99.5247 152.278C98.824 152.558 98.1234 152.909 97.4227 153.469Z" fill="#231F20" stroke="#231F20" stroke-width="0.225612" stroke-miterlimit="10" stroke-linecap="round" stroke-linejoin="round"/>
        <path d="M127.901 196.419C127.761 196.559 127.621 196.63 127.551 196.7C127.691 196.63 127.761 196.559 127.901 196.419Z" fill="url(#paint4_linear_1_19911)" stroke="#231F20" stroke-width="0.225612" stroke-miterlimit="10" stroke-linecap="round" stroke-linejoin="round"/>
        <path d="M130.774 186.12C130.774 187.451 130.704 188.712 130.494 189.833C130.354 190.954 130.074 191.935 129.723 192.916C128.953 195.088 127.691 196.77 126.08 197.891L124.609 198.732L102.328 211.764C103.939 210.643 105.13 208.961 105.971 206.789C106.321 205.878 106.602 204.827 106.742 203.706C106.952 202.585 107.022 201.324 107.022 199.993C107.022 197.54 106.602 195.018 105.901 192.426C105.901 192.356 105.901 192.356 105.831 192.285C103.869 185.069 99.5951 177.852 94.2701 172.667C94.2 172.597 94.1299 172.597 94.1299 172.527C92.1681 170.635 90.0661 169.094 87.8941 167.833C87.4036 167.552 86.9132 167.342 86.4928 167.132C84.7411 166.291 83.0595 165.731 81.448 165.52C79.4161 165.24 77.5244 165.45 75.9128 166.081H75.8428L97.423 153.399C97.353 153.399 97.353 153.469 97.353 153.469C98.0536 153.049 98.6842 152.698 99.0345 152.488C99.1046 152.488 99.1046 152.418 99.1747 152.418C99.2447 152.348 99.3148 152.348 99.3148 152.348C99.3849 152.348 99.3849 152.278 99.4549 152.278L99.525 152.208C101.207 151.507 103.098 151.297 105.13 151.577C106.742 151.787 108.423 152.348 110.175 153.189C110.665 153.399 111.086 153.679 111.576 153.889C113.818 155.151 115.99 156.762 117.952 158.724C123.347 163.909 127.621 171.196 129.513 178.342C130.354 181.005 130.774 183.667 130.774 186.12Z" fill="url(#paint5_linear_1_19911)" stroke="#231F20" stroke-width="0.225612" stroke-miterlimit="10" stroke-linecap="round" stroke-linejoin="round"/>
        <path d="M99.0341 152.558C98.6137 152.768 98.0532 153.119 97.3525 153.539L97.4226 153.469L99.0341 152.558Z" fill="#C49A6C" stroke="#231F20" stroke-width="0.225612" stroke-miterlimit="10" stroke-linecap="round" stroke-linejoin="round"/>
        <path opacity="0.2" d="M112.487 154.66L94.0594 164.82L91.6772 166.221L49.2173 142.119L37.0259 135.182L39.4782 133.641L57.9055 123.131L112.487 154.66Z" fill="black" stroke="#231F20" stroke-width="0.210688" stroke-miterlimit="10"/>
        <path d="M114.378 147.093L94.0594 158.163L91.6772 159.565L49.2173 135.462L37.0259 128.526L39.4782 127.054L59.8673 115.563L114.378 147.093Z" fill="#F1F2F2" stroke="#231F20" stroke-width="0.201439" stroke-miterlimit="10" stroke-linecap="round" stroke-linejoin="round"/>
        <path d="M114.379 147.093V150.386L94.3397 161.176L94.0595 161.387V187.101L91.6772 188.362V159.565L94.0595 158.164L114.379 147.093Z" fill="#F1F2F2" stroke="#231F20" stroke-width="0.201439" stroke-miterlimit="10" stroke-linecap="round" stroke-linejoin="round"/>
        <path d="M91.6772 159.565V188.362L39.4782 158.514L37.0259 157.112V128.526L49.2173 135.462L91.6772 159.565Z" fill="#F1F2F2" stroke="#231F20" stroke-width="0.201439" stroke-miterlimit="10" stroke-linecap="round" stroke-linejoin="round"/>
        <path opacity="0.14" d="M91.6772 159.565V188.362L39.4782 158.514L37.0259 157.112V128.526L49.2173 135.462L91.6772 159.565Z" fill="black" stroke="#231F20" stroke-width="0.201439" stroke-miterlimit="10"/>
    </g>
    <defs>
        <linearGradient id="paint0_linear_1_19911" x1="45.0143" y1="150.209" x2="54.584" y2="167.727" gradientUnits="userSpaceOnUse">
            <stop stop-color="#C2B59B"/>
            <stop offset="1" stop-color="#49443A"/>
        </linearGradient>
        <linearGradient id="paint1_linear_1_19911" x1="82.9435" y1="170.37" x2="82.8004" y2="170.64" gradientUnits="userSpaceOnUse">
            <stop stop-color="#58595B"/>
            <stop offset="1"/>
        </linearGradient>
        <linearGradient id="paint2_linear_1_19911" x1="60.512" y1="175.121" x2="56.1537" y2="120.38" gradientUnits="userSpaceOnUse">
            <stop/>
            <stop offset="1" stop-color="#58595B"/>
        </linearGradient>
        <linearGradient id="paint3_linear_1_19911" x1="89.8624" y1="176.281" x2="99.432" y2="193.799" gradientUnits="userSpaceOnUse">
            <stop stop-color="#C2B59B"/>
            <stop offset="1" stop-color="#49443A"/>
        </linearGradient>
        <linearGradient id="paint4_linear_1_19911" x1="127.792" y1="196.442" x2="127.649" y2="196.711" gradientUnits="userSpaceOnUse">
            <stop stop-color="#58595B"/>
            <stop offset="1"/>
        </linearGradient>
        <linearGradient id="paint5_linear_1_19911" x1="105.08" y1="207.98" x2="102.096" y2="153.144" gradientUnits="userSpaceOnUse">
            <stop/>
            <stop offset="1" stop-color="#58595B"/>
        </linearGradient>
        <clipPath id="">
            <rect width="106.5" height="98.1621" fill="white" transform="translate(24.4141 115.493)"/>
        </clipPath>
    </defs>


    <g clip-path="url(#)">
        <path d="M84.1809 113.882C84.1108 113.882 84.0408 113.812 83.9707 113.812C83.9707 113.812 84.0408 113.812 84.0408 113.882C84.1108 113.882 84.1809 113.882 84.1809 113.882Z" fill="#F1F2F2" stroke="#231F20" stroke-width="0.201439" stroke-miterlimit="10" stroke-linecap="round" stroke-linejoin="round"/>
        <path d="M104.5 107.786C104.5 107.716 104.5 107.716 104.5 107.786L101.767 104.353L98.5444 100.219L91.2576 90.8304L91.0474 90.6903L88.8053 89.4291L65.8237 76.1166V91.531L76.2635 98.3274V108.487L78.0852 109.818L107.022 126.284V110.939L104.5 107.786Z" fill="#F1F2F2" stroke="#231F20" stroke-width="0.201439" stroke-miterlimit="10" stroke-linecap="round" stroke-linejoin="round"/>
        <path opacity="0.14" d="M104.5 107.786C104.5 107.716 104.5 107.716 104.5 107.786L101.767 104.353L98.5444 100.219L91.2576 90.8304L91.0474 90.6903L88.8053 89.4291L65.8237 76.1166V91.531L76.2635 98.3274V108.487L78.0852 109.818L107.022 126.284V110.939L104.5 107.786Z" fill="black" stroke="#231F20" stroke-width="0.201439" stroke-miterlimit="10"/>
        <path d="M117.042 105.264L107.233 110.799L107.023 110.939L104.5 107.786L91.2578 90.8303L92.3088 90.2698L92.519 90.1297L93.8502 89.429L94.2006 89.2188L95.8822 88.2379L99.2453 86.4162L100.857 85.5053L101.628 85.0849L102.749 84.4543L117.042 105.264Z" fill="#F1F2F2" stroke="#231F20" stroke-width="0.201439" stroke-miterlimit="10" stroke-linecap="round" stroke-linejoin="round"/>
        <path d="M93.8502 89.4291L92.519 90.1297L92.3088 90.2699L91.2578 90.8304L92.3088 90.2699L92.519 90.1297L93.8502 89.4291Z" fill="#F1F2F2" stroke="#231F20" stroke-width="0.201439" stroke-miterlimit="10" stroke-linecap="round" stroke-linejoin="round"/>
        <path d="M101.627 85.0851L100.857 85.5055L99.2451 86.4163L100.857 85.5055L101.627 85.0851Z" fill="#F1F2F2" stroke="#231F20" stroke-width="0.201439" stroke-miterlimit="10" stroke-linecap="round" stroke-linejoin="round"/>
        <path d="M145.769 89.0787L134.698 95.3146V82.4925L120.405 74.505L121.526 73.8745L122.437 73.384L126.641 71.0718L130.354 68.9698L130.424 69.0399L131.826 70.7916L134.768 74.5751L138.412 79.1994L139.533 80.6008L141.214 82.7728L143.947 86.2761C144.437 86.9067 144.928 87.6073 145.418 88.308C145.488 88.5182 145.628 88.7985 145.769 89.0787Z" fill="#F1F2F2" stroke="#231F20" stroke-width="0.201439" stroke-miterlimit="10" stroke-linecap="round" stroke-linejoin="round"/>
        <path d="M145.769 89.0787L134.698 95.3146L145.769 89.0787Z" fill="#F1F2F2" stroke="#231F20" stroke-width="0.201439" stroke-miterlimit="10" stroke-linecap="round" stroke-linejoin="round"/>
        <path d="M104.5 107.786V107.716L101.838 104.353L98.6147 100.219L91.2578 90.8303L104.5 107.786Z" fill="#F1F2F2" stroke="#231F20" stroke-width="0.201439" stroke-miterlimit="10" stroke-linecap="round" stroke-linejoin="round"/>
        <path d="M92.519 90.1298L92.3088 90.27L91.2578 90.8305L92.3088 90.27L92.519 90.1298L93.8502 89.4292L92.519 90.1298ZM100.857 85.5055L99.2453 86.4163L100.857 85.5055L101.557 85.0851L100.857 85.5055Z" fill="#F1F2F2"/>
        <path d="M92.519 90.1298L92.3088 90.27L91.2578 90.8305L92.3088 90.27L92.519 90.1298ZM92.519 90.1298L93.8502 89.4292L92.519 90.1298ZM100.857 85.5055L99.2453 86.4163L100.857 85.5055ZM100.857 85.5055L101.557 85.0851L100.857 85.5055Z" stroke="#231F20" stroke-width="0.201439" stroke-miterlimit="10" stroke-linecap="round" stroke-linejoin="round"/>
        <path d="M145.768 89.0789V104.774L107.022 126.214V110.939L107.232 110.799L117.041 105.264V91.9516L119.213 90.8305L134.698 82.4927V95.3147L145.768 89.0789Z" fill="#F1F2F2" stroke="#231F20" stroke-width="0.201439" stroke-miterlimit="10" stroke-linecap="round" stroke-linejoin="round"/>
        <path d="M145.768 89.0789L134.698 95.3147L145.768 89.0789Z" fill="#F1F2F2" stroke="#231F20" stroke-width="0.201439" stroke-miterlimit="10" stroke-linecap="round" stroke-linejoin="round"/>
        <path d="M117.041 91.9514V105.264L102.748 84.4543L117.041 91.9514Z" fill="#F1F2F2" stroke="#231F20" stroke-width="0.201439" stroke-miterlimit="10" stroke-linecap="round" stroke-linejoin="round"/>
        <path opacity="0.14" d="M117.041 91.9514V105.264L102.748 84.4543L117.041 91.9514Z" fill="black" stroke="#231F20" stroke-width="0.201439" stroke-miterlimit="10"/>
        <path d="M134.698 82.4925L119.213 90.8303L117.041 92.0214L102.748 84.4543L101.627 85.0849L100.926 85.5053L99.3147 86.4162L95.8815 88.2379L94.1298 89.2188L93.7795 89.429L92.4482 90.1296L92.3081 90.2698L91.2571 90.8303L91.0469 90.6902L88.8048 89.429L65.8232 76.1165C66.3838 76.3968 104.71 54.256 104.92 54.1859L115.85 60.5619L115.92 60.632L122.787 64.6257L130.354 68.9698L126.64 71.0718L122.436 73.3839L121.526 73.8744L120.404 74.505L134.698 82.4925Z" fill="#F1F2F2" stroke="#231F20" stroke-width="0.201439" stroke-miterlimit="10" stroke-linecap="round" stroke-linejoin="round"/>
        <path opacity="0.14" d="M124.609 106.945C123.768 107.716 122.927 108.137 122.156 108.137C122.016 108.137 121.876 108.137 121.736 108.137C121.596 108.137 121.386 108.067 121.246 107.996C121.175 107.996 121.175 107.926 121.105 107.926C120.965 107.856 120.825 107.786 120.685 107.646C120.615 107.576 120.615 107.576 120.545 107.506C120.405 107.366 120.265 107.226 120.124 107.086C119.984 106.875 119.844 106.665 119.704 106.385C119.564 106.175 119.494 105.894 119.424 105.614C119.424 105.544 119.354 105.404 119.354 105.334C119.354 105.264 119.284 105.124 119.284 104.984C119.284 104.914 119.284 104.843 119.214 104.773C119.214 104.703 119.214 104.703 119.214 104.633V104.563C119.214 104.423 119.214 104.283 119.144 104.143C119.144 104.003 119.144 103.863 119.144 103.722C119.144 103.582 119.144 103.442 119.144 103.302V103.232C119.144 103.092 119.144 102.952 119.144 102.812C119.144 102.671 119.144 102.531 119.214 102.321C119.214 102.181 119.214 102.041 119.284 101.971V101.761C119.284 101.62 119.354 101.55 119.354 101.41C119.424 101.06 119.494 100.71 119.634 100.429C119.704 100.289 119.704 100.149 119.774 100.009C119.844 99.8688 119.914 99.7287 119.914 99.5885C120.054 99.3083 120.124 99.028 120.265 98.7478C120.405 98.4675 120.545 98.1872 120.685 97.907C120.755 97.7668 120.825 97.6267 120.965 97.4866C121.105 97.2764 121.316 96.9961 121.456 96.856C121.526 96.7159 121.666 96.6458 121.736 96.5057C121.806 96.4356 121.876 96.3655 122.016 96.2254L122.086 96.1553C122.156 96.0853 122.226 96.0152 122.297 96.0152C122.367 95.9451 122.437 95.9451 122.437 95.8751C122.507 95.805 122.577 95.805 122.647 95.7349C122.857 95.5948 123.137 95.4547 123.348 95.3145C123.418 95.3145 123.488 95.2445 123.558 95.2445C123.628 95.2445 123.698 95.1744 123.768 95.1744C123.838 95.1744 123.908 95.1043 123.978 95.1043C124.048 95.1043 124.048 95.1043 124.118 95.0343C124.188 95.0343 124.258 95.0343 124.258 95.0343C124.609 94.9642 124.889 95.0343 125.169 95.1043C125.8 95.2445 126.29 95.5948 126.711 96.2254C126.991 96.6458 127.201 97.2063 127.411 97.8369C128.042 100.71 126.851 104.843 124.609 106.945Z" fill="black" stroke="#231F20" stroke-width="0.184343" stroke-miterlimit="10"/>
        <path d="M128.533 108.207C128.393 108.137 128.183 108.067 128.042 107.927L128.533 108.207Z" fill="white" stroke="#231F20" stroke-width="0.137539" stroke-miterlimit="10"/>
        <path d="M136.38 99.3786C136.38 102.462 134.278 106.175 131.686 107.716C130.495 108.417 129.444 108.557 128.603 108.207L128.113 107.927C127.342 107.366 126.921 106.385 126.921 104.984C126.921 101.901 129.023 98.1875 131.616 96.6461C132.737 96.0155 133.788 95.8053 134.629 96.0855C135.68 96.5059 136.38 97.627 136.38 99.3786Z" fill="#F1F2F2" stroke="#231F20" stroke-width="0.10685" stroke-miterlimit="10" stroke-linecap="round" stroke-linejoin="round"/>
        <path d="M128.533 108.207C128.603 108.207 128.603 108.207 128.533 108.207V108.207Z" fill="white" stroke="#231F20" stroke-width="0.137539" stroke-miterlimit="10"/>
        <path d="M134.559 96.1555C133.718 95.8753 132.737 96.0154 131.546 96.7161C128.953 98.2575 126.781 101.971 126.851 105.054C126.851 106.455 127.342 107.506 128.042 107.997L122.087 104.844C121.036 104.423 120.405 103.302 120.405 101.621C120.405 98.5378 122.507 94.8243 125.1 93.2828C126.361 92.5822 127.482 92.4421 128.323 92.8624L128.533 92.9325L134.559 96.1555Z" fill="url(#paint0_linear_1_19911)" stroke="#231F20" stroke-width="0.118481" stroke-miterlimit="10" stroke-linecap="round" stroke-linejoin="round"/>
        <path opacity="0.14" d="M128.042 107.927L122.087 104.774C121.036 104.353 120.405 103.232 120.405 101.551C120.405 99.869 121.036 98.0473 122.017 96.4358L128.533 99.7289C127.552 101.34 126.851 103.232 126.921 104.914C126.851 106.385 127.342 107.366 128.042 107.927Z" fill="black" stroke="#231F20" stroke-width="0.201439" stroke-miterlimit="10"/>
        <path d="M150.183 117.946C150.043 117.876 149.973 117.806 149.833 117.736L150.183 117.946Z" fill="#F1F2F2" stroke="#231F20" stroke-width="0.160941" stroke-miterlimit="10" stroke-linecap="round" stroke-linejoin="round"/>
        <path d="M155.788 111.71C155.788 113.882 154.247 116.474 152.425 117.596C151.584 118.086 150.814 118.156 150.253 117.946L149.903 117.736C149.342 117.385 149.062 116.615 149.062 115.634C149.062 113.462 150.603 110.869 152.425 109.748C153.196 109.258 153.967 109.188 154.527 109.398C155.228 109.678 155.788 110.519 155.788 111.71Z" fill="#F1F2F2" stroke="#231F20" stroke-width="0.160941" stroke-miterlimit="10" stroke-linecap="round" stroke-linejoin="round"/>
        <path d="M154.457 109.398C153.896 109.188 153.126 109.328 152.355 109.748C150.463 110.799 148.992 113.462 148.992 115.634C148.992 116.615 149.342 117.386 149.832 117.736L130.214 106.946C129.513 106.665 129.023 105.825 129.023 104.634C129.023 102.462 130.564 99.8691 132.386 98.748C133.297 98.2576 134.068 98.1875 134.698 98.4678L134.838 98.5378L154.457 109.398Z" fill="url(#paint1_linear_1_19911)" stroke="#231F20" stroke-width="0.160941" stroke-miterlimit="10" stroke-linecap="round" stroke-linejoin="round"/>
        <path d="M162.374 126.144C162.234 126.073 162.094 126.003 161.954 125.933L162.374 126.144Z" fill="#F1F2F2" stroke="#231F20" stroke-width="0.118411" stroke-miterlimit="10" stroke-linecap="round" stroke-linejoin="round"/>
        <path d="M169.31 118.787C169.24 121.379 167.349 124.602 165.036 125.863C163.985 126.424 163.075 126.494 162.374 126.214L161.954 126.003C161.323 125.513 160.973 124.672 160.973 123.411C161.043 120.819 162.934 117.596 165.177 116.334C166.158 115.774 167.068 115.704 167.769 115.914C168.75 116.264 169.31 117.245 169.31 118.787Z" fill="#58595B" stroke="#231F20" stroke-width="0.118411" stroke-miterlimit="10" stroke-linecap="round" stroke-linejoin="round"/>
        <path d="M168.399 119.277C168.329 121.309 166.858 123.831 165.106 124.812C164.336 125.233 163.565 125.303 163.004 125.093L162.654 124.882C162.164 124.532 161.883 123.831 161.883 122.85C161.953 120.818 163.425 118.296 165.176 117.315C165.947 116.895 166.648 116.825 167.208 117.035C167.979 117.315 168.399 118.086 168.399 119.277Z" fill="#231F20" stroke="#231F20" stroke-width="0.118411" stroke-miterlimit="10"/>
        <path d="M162.374 126.214C162.374 126.214 162.446 126.214 162.374 126.214V126.214Z" fill="#58595B" stroke="#231F20" stroke-width="0.118411" stroke-miterlimit="10" stroke-linecap="round" stroke-linejoin="round"/>
        <path d="M167.839 115.914C167.138 115.634 166.228 115.774 165.247 116.334C162.934 117.596 161.043 120.749 161.043 123.411C161.043 124.602 161.393 125.513 162.024 126.003L148.781 118.436C147.87 118.086 147.38 117.105 147.38 115.634C147.45 113.041 149.342 109.818 151.654 108.557C152.775 107.926 153.756 107.856 154.457 108.277L154.597 108.347L167.839 115.914Z" fill="url(#paint2_linear_1_19911)" stroke="#231F20" stroke-width="0.118411" stroke-miterlimit="10" stroke-linecap="round" stroke-linejoin="round"/>
        <path d="M183.044 136.653C182.904 136.583 182.834 136.513 182.694 136.443L183.044 136.653Z" fill="#F1F2F2" stroke="#231F20" stroke-width="0.160941" stroke-miterlimit="10" stroke-linecap="round" stroke-linejoin="round"/>
        <path d="M188.649 130.418C188.649 132.59 187.108 135.182 185.286 136.303C184.445 136.794 183.674 136.864 183.114 136.654L182.764 136.443C182.203 136.093 181.923 135.322 181.923 134.341C181.923 132.169 183.464 129.577 185.286 128.456C186.057 127.965 186.827 127.895 187.388 128.105C188.159 128.386 188.649 129.156 188.649 130.418Z" fill="#F1F2F2" stroke="#231F20" stroke-width="0.160941" stroke-miterlimit="10" stroke-linecap="round" stroke-linejoin="round"/>
        <path d="M187.388 128.105C186.827 127.895 186.057 128.035 185.286 128.456C183.394 129.507 181.923 132.169 181.923 134.341C181.923 135.322 182.273 136.093 182.764 136.443L163.145 125.583C162.445 125.303 161.954 124.462 161.954 123.271C161.954 121.099 163.496 118.506 165.317 117.385C166.228 116.895 166.999 116.825 167.629 117.105L167.77 117.175L187.388 128.105Z" fill="url(#paint3_linear_1_19911)" stroke="#231F20" stroke-width="0.160941" stroke-miterlimit="10" stroke-linecap="round" stroke-linejoin="round"/>
        <path d="M195.447 145.271C195.306 145.201 195.096 145.131 194.956 144.991L195.447 145.271Z" fill="white" stroke="#231F20" stroke-width="0.134877" stroke-miterlimit="10"/>
        <path d="M203.083 136.583C203.083 139.596 201.051 143.24 198.459 144.711C197.338 145.412 196.287 145.552 195.446 145.201L194.955 144.921C194.185 144.361 193.764 143.38 193.764 142.048C193.764 139.036 195.796 135.392 198.389 133.921C199.51 133.29 200.49 133.15 201.331 133.43C202.382 133.781 203.083 134.902 203.083 136.583Z" fill="#58595B" stroke="#231F20" stroke-width="0.134877" stroke-miterlimit="10" stroke-linecap="round" stroke-linejoin="round"/>
        <path d="M202.102 137.214C202.102 139.526 200.491 142.399 198.459 143.59C197.548 144.08 196.777 144.22 196.077 143.94L195.726 143.73C195.166 143.31 194.815 142.539 194.815 141.488C194.815 139.176 196.427 136.303 198.459 135.112C199.3 134.621 200.14 134.481 200.771 134.692C201.542 134.972 202.032 135.883 202.102 137.214Z" fill="#231F20" stroke="#231F20" stroke-width="0.134877" stroke-miterlimit="10"/>
        <path d="M201.331 133.43C200.561 133.15 199.51 133.29 198.389 133.921C195.796 135.462 193.764 139.106 193.764 142.048C193.764 143.45 194.255 144.431 194.955 144.921L179.681 136.723C178.7 136.303 178 135.182 178 133.571C178 130.558 180.031 126.914 182.624 125.443C183.885 124.742 184.936 124.602 185.777 125.022L185.987 125.093L201.331 133.43Z" fill="url(#paint4_linear_1_19911)" stroke="#231F20" stroke-width="0.134877" stroke-miterlimit="10" stroke-linecap="round" stroke-linejoin="round"/>
        <path opacity="0.2" d="M114.028 73.384C109.824 75.7662 103.098 75.7662 98.8942 73.384C94.6902 71.0018 94.6902 67.0781 98.8942 64.6959C103.098 62.3136 109.824 62.3136 114.028 64.6959C118.232 67.0781 118.232 71.0018 114.028 73.384Z" fill="black" stroke="#231F20" stroke-width="0.151903" stroke-miterlimit="10"/>
        <path d="M120.825 66.5876C120.825 66.938 120.755 67.2883 120.684 67.6386C120.614 67.9889 120.474 68.3393 120.264 68.6896C119.704 69.6005 118.863 70.4413 117.602 71.212C113.258 73.7343 106.181 73.7343 101.837 71.212C100.576 70.5113 99.6648 69.6005 99.1743 68.6896C98.9641 68.3393 98.824 67.9889 98.7539 67.6386C98.6838 67.2883 98.6138 66.938 98.6138 66.5876C98.6138 65.957 98.7539 65.3265 99.1042 64.6959C99.1743 64.4857 99.3144 64.3455 99.4546 64.1353C99.5246 64.0653 99.5246 63.9952 99.5947 63.9952L99.6648 64.0653L101.346 64.9761L103.168 63.9251V62.664L101.977 61.9633C102.187 61.8232 102.397 61.7531 102.608 61.613C102.818 61.5429 103.028 61.4028 103.238 61.3327C103.378 61.2626 103.518 61.2626 103.659 61.1926L105.901 62.3837L107.722 61.3327V60.2817C111.226 59.9314 114.939 60.4919 117.672 62.0334C119.704 63.2945 120.825 64.9761 120.825 66.5876Z" fill="#F1F2F2" stroke="#231F20" stroke-width="0.151903" stroke-miterlimit="10" stroke-linecap="round" stroke-linejoin="round"/>
        <path d="M120.825 66.5876V68.6196C120.825 70.3011 119.704 71.9126 117.532 73.1738C113.187 75.6962 106.111 75.6962 101.767 73.1738C99.5947 71.9126 98.4736 70.3011 98.4736 68.6196V66.5876C98.4736 66.938 98.5437 67.2883 98.6138 67.6386C98.6838 67.989 98.824 68.3393 99.0342 68.6896C99.5947 69.6005 100.435 70.4413 101.697 71.212C106.041 73.7344 113.117 73.7344 117.461 71.212C118.723 70.5113 119.633 69.6005 120.124 68.6896C120.334 68.3393 120.474 67.989 120.544 67.6386C120.755 67.2883 120.825 66.938 120.825 66.5876Z" fill="#F1F2F2" stroke="#231F20" stroke-width="0.151903" stroke-miterlimit="10" stroke-linecap="round" stroke-linejoin="round"/>
        <path d="M103.028 62.6639V63.9251L101.206 64.9761V63.7149L103.028 62.6639Z" fill="#F1F2F2" stroke="#231F20" stroke-width="0.151903" stroke-miterlimit="10" stroke-linecap="round" stroke-linejoin="round"/>
        <path d="M101.206 63.7149V64.9761L99.5246 63.9951H99.4545L98.6838 63.5747V64.5557L97.0723 63.6448V61.3326L99.8048 62.9442L100.225 63.1544L101.206 63.7149Z" fill="#F1F2F2" stroke="#231F20" stroke-width="0.151903" stroke-miterlimit="10" stroke-linecap="round" stroke-linejoin="round"/>
        <path d="M107.652 60.2116L107.512 60.2816L105.761 61.2626L104.92 60.7721L104.359 60.4218L101.697 58.8803L103.518 57.8293L106.251 59.4409L107.652 60.2116Z" fill="#F1F2F2" stroke="#231F20" stroke-width="0.151903" stroke-miterlimit="10" stroke-linecap="round" stroke-linejoin="round"/>
        <path d="M107.652 60.2817V61.3327L105.83 62.3837V61.2627L107.582 60.2817C107.512 60.2817 107.582 60.2817 107.652 60.2817Z" fill="#F1F2F2" stroke="#231F20" stroke-width="0.151903" stroke-miterlimit="10" stroke-linecap="round" stroke-linejoin="round"/>
        <path d="M107.652 60.2117C107.582 60.2817 107.582 60.2817 107.512 60.2817L107.652 60.2117Z" fill="#F1F2F2" stroke="#231F20" stroke-width="0.151903" stroke-miterlimit="10" stroke-linecap="round" stroke-linejoin="round"/>
        <path d="M103.519 61.1926C103.378 61.2627 103.238 61.2627 103.098 61.3328V60.9824L103.168 61.0525L103.519 61.1926Z" fill="#F1F2F2" stroke="#231F20" stroke-width="0.151903" stroke-miterlimit="10" stroke-linecap="round" stroke-linejoin="round"/>
        <path d="M103.028 62.664L101.206 63.715L100.225 63.1544L99.8048 62.9442L97.0723 61.3327L98.964 60.2817L101.697 61.8933L101.907 61.9633L103.028 62.664Z" fill="#F1F2F2" stroke="#231F20" stroke-width="0.151903" stroke-miterlimit="10" stroke-linecap="round" stroke-linejoin="round"/>
        <path d="M105.761 61.2626V62.3837L103.518 61.1925L103.238 61.0524L103.168 60.9823V61.3327C102.958 61.4027 102.748 61.5429 102.538 61.6129L102.327 61.5429L101.697 61.1925V58.8804L104.359 60.4218L104.92 60.7721L105.761 61.2626Z" fill="#F1F2F2" stroke="#231F20" stroke-width="0.151903" stroke-miterlimit="10" stroke-linecap="round" stroke-linejoin="round"/>
        <path opacity="0.2" d="M101.206 63.7149V64.9761L99.5246 63.9951H99.4545L98.6838 63.5747V64.5557L97.0723 63.6448V61.3326L99.8048 62.9442L100.225 63.1544L101.206 63.7149Z" fill="black" stroke="#231F20" stroke-width="0.151903" stroke-miterlimit="10"/>
        <path opacity="0.2" d="M105.761 61.2626V62.3837L103.518 61.1925L103.238 61.0524L103.168 60.9823V61.3327C102.958 61.4027 102.748 61.5429 102.538 61.6129L102.327 61.5429L101.697 61.1925V58.8804L104.359 60.4218L104.92 60.7721L105.761 61.2626Z" fill="black" stroke="#231F20" stroke-width="0.151903" stroke-miterlimit="10"/>
        <path d="M99.4543 63.9951C99.3843 64.0652 99.3843 64.1352 99.3142 64.1352L98.6836 64.5556V63.5747L99.4543 63.9951Z" fill="#F1F2F2" stroke="#231F20" stroke-width="0.151903" stroke-miterlimit="10" stroke-linecap="round" stroke-linejoin="round"/>
        <path opacity="0.2" d="M120.825 66.5876V68.6196C120.825 70.3011 119.704 71.9126 117.532 73.1738C113.187 75.6962 106.111 75.6962 101.767 73.1738C99.5947 71.9126 98.4736 70.3011 98.4736 68.6196V66.5876C98.4736 66.938 98.5437 67.2883 98.6138 67.6386C98.6838 67.989 98.824 68.3393 99.0342 68.6896C99.5947 69.6005 100.435 70.4413 101.697 71.212C106.041 73.7344 113.117 73.7344 117.461 71.212C118.723 70.5113 119.633 69.6005 120.124 68.6896C120.334 68.3393 120.474 67.989 120.544 67.6386C120.755 67.2883 120.825 66.938 120.825 66.5876Z" fill="black" stroke="#231F20" stroke-width="0.371769" stroke-miterlimit="10"/>
        <path opacity="0.14" d="M111.436 72.9636V74.9955C108.003 75.3459 104.429 74.7153 101.767 73.1738C99.5947 71.9126 98.4736 70.3011 98.4736 68.6196V66.5876C98.4736 66.938 98.5437 67.2883 98.6138 67.6386C98.6838 67.989 98.824 68.3393 99.0342 68.6896C99.5947 69.6005 100.435 70.4413 101.697 71.212C104.359 72.6834 108.003 73.314 111.436 72.9636Z" fill="black" stroke="#231F20" stroke-width="0.151903" stroke-miterlimit="10"/>
        <path opacity="0.2" d="M87.8238 85.7155C93.7057 85.7155 98.4738 82.955 98.4738 79.5497C98.4738 76.1444 93.7057 73.3839 87.8238 73.3839C81.942 73.3839 77.1738 76.1444 77.1738 79.5497C77.1738 82.955 81.942 85.7155 87.8238 85.7155Z" fill="black" stroke="#231F20" stroke-width="0.151903" stroke-miterlimit="10"/>
        <path d="M102.117 77.1673C102.117 77.5177 102.047 77.868 101.977 78.2183C101.907 78.5687 101.767 78.919 101.557 79.2693C100.996 80.1802 100.155 81.021 98.8941 81.7917C94.55 84.3141 87.4734 84.3141 83.1293 81.7917C81.8681 81.091 80.9572 80.1802 80.4668 79.2693C80.2566 78.919 80.1164 78.5687 80.0464 78.2183C79.9763 77.868 79.9062 77.5177 79.9062 77.1673C79.9062 76.5368 80.0464 75.9062 80.3967 75.2756C80.4668 75.0654 80.6069 74.9252 80.747 74.715C80.8171 74.645 80.8171 74.5749 80.8872 74.5749L80.9572 74.645L82.6388 75.5558L84.4605 74.5048V73.2437L83.2694 72.543C83.4796 72.4029 83.6898 72.3328 83.9 72.1927C84.1102 72.1226 84.3204 71.9825 84.5306 71.9124C84.6707 71.8423 84.8109 71.8423 84.951 71.7723L87.1931 72.9634L89.0148 71.9124V70.8614C92.5181 70.5111 96.2316 71.0716 98.9641 72.6131C101.066 73.8743 102.117 75.5558 102.117 77.1673Z" fill="#F1F2F2" stroke="#231F20" stroke-width="0.151903" stroke-miterlimit="10" stroke-linecap="round" stroke-linejoin="round"/>
        <path d="M102.117 77.1674V79.1993C102.117 80.8108 100.996 82.4924 98.824 83.7535C94.4799 86.2759 87.4033 86.2759 83.0592 83.7535C80.8872 82.4924 79.7661 80.8808 79.7661 79.1993V77.1674C79.7661 77.5177 79.8362 77.868 79.9062 78.2183C79.9763 78.5687 80.1164 78.919 80.3266 79.2693C80.8872 80.1802 81.728 81.021 82.9891 81.7917C87.3332 84.3141 94.4099 84.3141 98.7539 81.7917C100.015 81.091 100.926 80.1802 101.416 79.2693C101.627 78.919 101.767 78.5687 101.837 78.2183C102.047 77.868 102.117 77.5177 102.117 77.1674Z" fill="#F1F2F2" stroke="#231F20" stroke-width="0.151903" stroke-miterlimit="10" stroke-linecap="round" stroke-linejoin="round"/>
        <path d="M84.3908 73.2437V74.5048L82.499 75.4858V74.2946L84.3908 73.2437Z" fill="#F1F2F2" stroke="#231F20" stroke-width="0.151903" stroke-miterlimit="10" stroke-linecap="round" stroke-linejoin="round"/>
        <path d="M82.4989 74.2947V75.4858L80.8874 74.575H80.8173L80.0466 74.1546V75.1355L78.4351 74.2246V71.9125L81.1676 73.524L81.518 73.7342L82.4989 74.2947Z" fill="#F1F2F2" stroke="#231F20" stroke-width="0.151903" stroke-miterlimit="10" stroke-linecap="round" stroke-linejoin="round"/>
        <path d="M88.9453 70.7914L88.8052 70.8615L87.1236 71.8424L86.2128 71.3519L85.6522 71.0016L82.9897 69.4602L84.8115 68.4092L87.544 69.9506L88.9453 70.7914Z" fill="#F1F2F2" stroke="#231F20" stroke-width="0.151903" stroke-miterlimit="10" stroke-linecap="round" stroke-linejoin="round"/>
        <path d="M88.9448 70.8615V71.9124L87.123 72.9634V71.8424L88.8747 70.8615C88.8747 70.8615 88.8747 70.8615 88.9448 70.8615Z" fill="#F1F2F2" stroke="#231F20" stroke-width="0.151903" stroke-miterlimit="10" stroke-linecap="round" stroke-linejoin="round"/>
        <path d="M88.9448 70.7914C88.8748 70.8614 88.8748 70.8614 88.8047 70.8614L88.9448 70.7914Z" fill="#F1F2F2" stroke="#231F20" stroke-width="0.151903" stroke-miterlimit="10" stroke-linecap="round" stroke-linejoin="round"/>
        <path d="M84.8813 71.7723C84.7412 71.8424 84.6011 71.8424 84.4609 71.9125V71.5621L84.531 71.6322L84.8813 71.7723Z" fill="#F1F2F2" stroke="#231F20" stroke-width="0.151903" stroke-miterlimit="10" stroke-linecap="round" stroke-linejoin="round"/>
        <path d="M84.3906 73.2437L82.4989 74.2947L81.518 73.7341L81.1676 73.524L78.4351 71.9124L80.2568 70.8615L83.0594 72.473L83.1995 72.543L84.3906 73.2437Z" fill="#F1F2F2" stroke="#231F20" stroke-width="0.151903" stroke-miterlimit="10" stroke-linecap="round" stroke-linejoin="round"/>
        <path d="M87.1234 71.8423V72.9634L84.8813 71.7723L84.601 71.6321L84.531 71.5621V71.9124C84.3208 71.9825 84.1106 72.1226 83.9004 72.1926L83.6902 72.1226L83.0596 71.7723V69.4601L85.7221 71.0015L86.2826 71.3519L87.1234 71.8423Z" fill="#F1F2F2" stroke="#231F20" stroke-width="0.151903" stroke-miterlimit="10" stroke-linecap="round" stroke-linejoin="round"/>
        <path opacity="0.2" d="M82.4989 74.2947V75.4858L80.8874 74.575H80.8173L80.0466 74.1546V75.1355L78.4351 74.2246V71.9125L81.1676 73.524L81.518 73.7342L82.4989 74.2947Z" fill="black" stroke="#231F20" stroke-width="0.151903" stroke-miterlimit="10"/>
        <path opacity="0.2" d="M87.1234 71.8423V72.9634L84.8813 71.7723L84.601 71.6321L84.531 71.5621V71.9124C84.3208 71.9825 84.1106 72.1226 83.9004 72.1926L83.6902 72.1226L83.0596 71.7723V69.4601L85.7221 71.0015L86.2826 71.3519L87.1234 71.8423Z" fill="black" stroke="#231F20" stroke-width="0.151903" stroke-miterlimit="10"/>
        <path d="M80.8176 74.5749C80.7475 74.645 80.7475 74.7151 80.6775 74.7151L80.0469 75.1355V74.1545L80.8176 74.5749Z" fill="#F1F2F2" stroke="#231F20" stroke-width="0.151903" stroke-miterlimit="10" stroke-linecap="round" stroke-linejoin="round"/>
        <path opacity="0.2" d="M102.117 77.1675V79.1994C102.117 80.8109 100.996 82.4925 98.824 83.7537C94.4799 86.276 87.4033 86.276 83.0592 83.7537C80.8872 82.4925 79.7661 80.881 79.7661 79.1994V77.1675C79.7661 77.5178 79.8362 77.8681 79.9062 78.2185C79.9763 78.5688 80.1164 78.9191 80.3266 79.2695C80.8872 80.1803 81.728 81.0211 82.9891 81.7918C87.3332 84.3142 94.4099 84.3142 98.7539 81.7918C100.015 81.0912 100.926 80.1803 101.416 79.2695C101.627 78.9191 101.767 78.5688 101.837 78.2185C102.047 77.8681 102.117 77.5178 102.117 77.1675Z" fill="black" stroke="#231F20" stroke-width="0.371769" stroke-miterlimit="10"/>
        <path opacity="0.14" d="M92.7283 83.5435V85.5754C89.2951 85.9257 85.7217 85.2951 83.0592 83.7537C80.8872 82.4925 79.7661 80.881 79.7661 79.1994V77.1675C79.7661 77.5178 79.8362 77.8681 79.9062 78.2185C79.9763 78.5688 80.1164 78.9191 80.3266 79.2695C80.8872 80.1803 81.728 81.0211 82.9891 81.7918C85.7217 83.2632 89.3651 83.8237 92.7283 83.5435Z" fill="black" stroke="#231F20" stroke-width="0.151903" stroke-miterlimit="10"/>
        <path d="M123.277 54.3961C123.277 54.6763 123.067 54.9566 122.717 55.2369C121.946 55.6573 120.615 55.6573 119.844 55.2369C119.424 55.0267 119.284 54.6763 119.284 54.3961C119.284 54.1158 119.494 53.7655 119.844 53.5553C120.615 53.1349 121.946 53.1349 122.717 53.5553C123.067 53.8355 123.277 54.1158 123.277 54.3961Z" fill="#FCFCFC" stroke="#231F20" stroke-width="0.201439" stroke-miterlimit="10" stroke-linecap="round" stroke-linejoin="round"/>
        <path opacity="0.2" d="M123.207 81.2313C123.207 81.7918 122.787 82.3524 122.086 82.8428C120.545 83.7537 118.093 83.7537 116.551 82.8428C115.781 82.4224 115.43 81.7918 115.43 81.2313C115.43 80.6708 115.781 80.0402 116.551 79.6198C118.093 78.7089 120.545 78.7089 122.086 79.6198C122.857 80.0402 123.207 80.6708 123.207 81.2313Z" fill="black" stroke="#231F20" stroke-width="0.201439" stroke-miterlimit="10"/>
        <path d="M124.889 81.5816C124.889 82.1422 124.539 82.6326 123.838 83.053C122.437 83.8938 120.124 83.8938 118.653 83.053C117.952 82.6326 117.602 82.0721 117.602 81.5816V81.4415L119.214 54.326C119.214 54.6063 119.424 54.9566 119.774 55.1668C120.545 55.5872 121.876 55.5872 122.647 55.1668C123.067 54.9566 123.207 54.6764 123.207 54.326C123.347 55.0267 125.239 81.5116 124.889 81.5816Z" fill="url(#paint5_linear_1_19911)" stroke="#231F20" stroke-width="0.190369" stroke-miterlimit="10" stroke-linecap="round" stroke-linejoin="round"/>
        <path opacity="0.2" d="M120.965 55.5872L119.424 83.4734C119.143 83.4033 118.933 83.2632 118.653 83.1231C117.952 82.7027 117.602 82.1422 117.602 81.6517V81.5116L119.214 54.3961C119.214 54.6764 119.424 55.0267 119.774 55.2369C120.124 55.4471 120.545 55.5172 120.965 55.5872Z" fill="black" stroke="#231F20" stroke-width="0.201439" stroke-miterlimit="10"/>
        <path d="M121.806 70.2309C121.736 70.2309 121.736 70.301 121.666 70.3711C121.596 70.3711 121.596 70.4411 121.526 70.4411C119.634 71.9125 118.303 74.9253 118.513 77.3076C118.653 78.4286 119.073 79.1993 119.704 79.5497V86.5562C119.704 87.0467 119.354 87.5372 118.723 87.9576C117.392 88.7283 115.22 88.7283 113.889 87.9576C113.258 87.6072 112.908 87.1168 112.908 86.5562V76.9572C112.908 68.2691 118.233 68.8997 121.806 70.2309Z" fill="url(#paint6_linear_1_19911)" stroke="#231F20" stroke-width="0.190369" stroke-miterlimit="10" stroke-linecap="round" stroke-linejoin="round"/>
        <path opacity="0.2" d="M115.99 87.8876C116.341 88.0978 116.831 88.2379 117.322 88.378C116.13 88.5882 114.799 88.4481 113.818 87.8876C113.188 87.5372 112.837 87.0468 112.837 86.4863V76.9573C112.907 70.231 116.13 69.0399 119.213 69.5303C116.971 69.9507 115.08 71.8425 115.009 76.9573V86.4863C115.009 87.0468 115.36 87.5372 115.99 87.8876Z" fill="black" stroke="#231F20" stroke-width="0.201439" stroke-miterlimit="10"/>
        <path d="M127.902 73.1037C127.762 71.8425 127.201 71.0017 126.43 70.7214C126.22 70.6514 125.94 70.5813 125.73 70.5813C125.66 70.5813 125.66 70.5813 125.59 70.5813C125.52 70.5813 125.52 70.5813 125.45 70.5813C125.379 70.5813 125.309 70.5813 125.309 70.5813C125.239 70.5813 125.239 70.5813 125.169 70.6514C125.099 70.6514 125.099 70.6514 125.029 70.7214C124.819 70.7915 124.609 70.8616 124.469 71.0017C124.399 71.0017 124.399 71.0718 124.328 71.0718C124.258 71.0718 124.258 71.1418 124.188 71.1418C124.118 71.1418 124.048 71.2119 124.048 71.2119L123.978 71.282C123.838 71.4221 123.628 71.5622 123.488 71.7024C123.348 71.8425 123.137 71.9826 122.997 72.1928C122.927 72.2629 122.857 72.403 122.787 72.4731C122.647 72.6833 122.507 72.8935 122.367 73.0336C122.227 73.2438 122.086 73.454 121.946 73.6642C121.876 73.8043 121.806 73.8744 121.736 74.0145C121.666 74.0846 121.666 74.2247 121.596 74.2948C121.456 74.575 121.386 74.7852 121.316 75.0655C121.316 75.1356 121.246 75.2056 121.246 75.3458L121.105 75.4859C121.105 75.556 121.035 75.6961 121.035 75.7662C121.035 75.9063 120.965 75.9764 120.965 76.1165C120.965 76.1866 120.895 76.3267 120.895 76.4668V76.5369C120.895 76.677 120.825 76.7471 120.825 76.8872C120.825 77.0273 120.825 77.0974 120.825 77.2375C120.825 77.3777 120.825 77.4477 120.825 77.5879V77.6579C120.825 77.728 120.825 77.728 120.825 77.7981C120.825 77.8681 120.825 77.9382 120.825 78.0083C120.825 78.0783 120.825 78.1484 120.825 78.2885C120.825 78.3586 120.825 78.4287 120.825 78.5688C120.895 79.0593 121.035 79.4796 121.246 79.83C121.316 79.9701 121.386 80.1102 121.526 80.1803C121.526 80.2504 121.596 80.2504 121.596 80.3204C121.666 80.3905 121.806 80.5306 121.946 80.6007C121.946 80.6007 122.016 80.6708 122.086 80.6708C122.227 80.7408 122.297 80.8109 122.437 80.8109C123.137 81.0211 123.978 80.8109 124.819 80.1803C126.781 78.6389 128.182 75.556 127.902 73.1037ZM124.679 78.7089C124.048 79.1293 123.488 79.2695 122.997 79.1293C122.927 79.1293 122.857 79.0593 122.717 79.0593C122.647 79.0593 122.577 78.9892 122.507 78.9191C122.367 78.779 122.227 78.6389 122.156 78.4987C122.016 78.2885 121.946 78.0083 121.876 77.6579C121.876 77.5879 121.876 77.5178 121.876 77.5178C121.876 77.3777 121.876 77.2375 121.876 77.0974C121.876 75.8362 122.507 74.3648 123.418 73.3839C123.628 73.1737 123.838 72.9635 124.048 72.7533C124.048 72.7533 124.048 72.7533 124.118 72.6833C124.399 72.4731 124.679 72.3329 124.959 72.2629C125.029 72.2629 125.169 72.1928 125.239 72.1928C125.45 72.1928 125.66 72.1928 125.8 72.2629C126.36 72.4731 126.711 73.0336 126.781 73.8744C126.991 75.556 126.01 77.728 124.679 78.7089Z" fill="#F1F2F2" stroke="#231F20" stroke-width="0.201439" stroke-miterlimit="10" stroke-linecap="round" stroke-linejoin="round"/>
        <path d="M124.678 78.709C124.048 79.1294 123.487 79.2695 122.997 79.1294C122.927 79.1294 122.857 79.0593 122.717 79.0593C122.646 79.0593 122.576 78.9892 122.506 78.9192C122.857 78.9192 123.277 78.7791 123.697 78.4287C125.029 77.4478 126.01 75.3458 125.87 73.6643C125.799 72.9636 125.589 72.4731 125.169 72.1929C125.379 72.1929 125.589 72.1929 125.729 72.2629C126.29 72.4731 126.64 73.0337 126.71 73.8744C126.991 75.556 126.01 77.7281 124.678 78.709Z" fill="#797979" stroke="#231F20" stroke-width="0.201439" stroke-miterlimit="10" stroke-linecap="round" stroke-linejoin="round"/>
        <path d="M123.768 78.4287C123.347 78.709 122.927 78.8491 122.576 78.9192C122.436 78.7791 122.296 78.6389 122.226 78.4988C122.086 78.2886 122.016 78.0083 121.946 77.658C121.946 77.5879 121.946 77.5179 121.946 77.5179C121.946 77.3777 121.946 77.2376 121.946 77.0975C121.946 75.8363 122.576 74.3649 123.487 73.384C123.697 73.1738 123.908 72.9636 124.118 72.7534C124.118 72.7534 124.118 72.7534 124.188 72.6833C124.468 72.4731 124.748 72.333 125.029 72.2629C125.099 72.2629 125.239 72.1929 125.309 72.1929C125.659 72.4731 125.94 72.9636 126.01 73.6643C126.08 75.3458 125.099 77.4478 123.768 78.4287Z" fill="#F1F2F2" stroke="#231F20" stroke-width="0.201439" stroke-miterlimit="10" stroke-linecap="round" stroke-linejoin="round"/>
        <path opacity="0.64" d="M123.768 78.4287C123.347 78.709 122.927 78.8491 122.576 78.9192C122.436 78.7791 122.296 78.6389 122.226 78.4988C122.086 78.2886 122.016 78.0083 121.946 77.658C121.946 77.5879 121.946 77.5179 121.946 77.5179C121.946 77.3777 121.946 77.2376 121.946 77.0975C121.946 75.8363 122.576 74.3649 123.487 73.384C123.697 73.1738 123.908 72.9636 124.118 72.7534C124.118 72.7534 124.118 72.7534 124.188 72.6833C124.468 72.4731 124.748 72.333 125.029 72.2629C125.099 72.2629 125.239 72.1929 125.309 72.1929C125.659 72.4731 125.94 72.9636 126.01 73.6643C126.08 75.3458 125.099 77.4478 123.768 78.4287Z" fill="url(#paint7_linear_1_19911)" stroke="#231F20" stroke-width="0.201439" stroke-miterlimit="10" stroke-linecap="round" stroke-linejoin="round"/>
        <path d="M126.5 70.7214C126.29 70.6513 126.01 70.5813 125.799 70.5813C125.729 70.5813 125.729 70.5813 125.659 70.5813C125.589 70.5813 125.589 70.5813 125.519 70.5813C125.449 70.5813 125.379 70.5813 125.379 70.5813C125.309 70.5813 125.309 70.5813 125.239 70.5813C125.169 70.5813 125.169 70.5813 125.099 70.6513C124.889 70.7214 124.678 70.7915 124.538 70.9316C124.468 70.9316 124.468 71.0017 124.398 71.0017C124.328 71.0017 124.328 71.0717 124.258 71.0717C124.188 71.0717 124.118 71.1418 124.118 71.1418L124.048 71.2119C123.908 71.352 123.697 71.4921 123.557 71.6323C123.417 71.7724 123.207 71.9125 123.067 72.1227C122.997 72.1928 122.927 72.3329 122.857 72.403C122.716 72.6132 122.576 72.8234 122.436 72.9635C122.296 73.1737 122.156 73.3839 122.016 73.5941C121.946 73.7342 121.876 73.8043 121.806 73.9444C121.736 74.0145 121.736 74.1546 121.666 74.2247C121.525 74.505 121.455 74.7152 121.385 74.9954C121.385 75.0655 121.315 75.1356 121.315 75.2757L121.105 75.4859C121.105 75.556 121.035 75.6961 121.035 75.7661C121.035 75.9063 120.965 75.9763 120.965 76.1165C120.965 76.1865 120.895 76.3267 120.895 76.4668V76.5369C120.895 76.677 120.825 76.7471 120.825 76.8872C120.825 77.0273 120.825 77.0974 120.825 77.2375C120.825 77.3777 120.825 77.4477 120.825 77.5879V77.6579C120.825 77.728 120.825 77.728 120.825 77.7981C120.825 77.8681 120.825 77.9382 120.825 78.0083C120.825 78.0783 120.825 78.1484 120.825 78.2885C120.825 78.3586 120.825 78.4286 120.825 78.5688C120.895 79.0592 121.035 79.4796 121.245 79.83C121.315 79.9701 121.385 80.1102 121.525 80.1803C121.525 80.2504 121.595 80.2504 121.595 80.3204C121.665 80.3905 121.806 80.5306 121.946 80.6007C121.946 80.6007 122.016 80.6708 122.086 80.6708L120.054 79.83C119.984 79.83 119.914 79.7599 119.774 79.6898C119.774 79.6898 119.704 79.6898 119.704 79.6198C119.073 79.2694 118.653 78.4987 118.513 77.3777C118.302 74.9954 119.634 71.9826 121.525 70.5112C121.595 70.4412 121.595 70.4412 121.666 70.4412C121.736 70.3711 121.736 70.3711 121.806 70.301C122.576 69.8106 123.347 69.6004 123.978 69.7405L124.468 69.9507L126.5 70.7214Z" fill="#F1F2F2" stroke="#231F20" stroke-width="0.201439" stroke-miterlimit="10" stroke-linecap="round" stroke-linejoin="round"/>
    </g>
    <defs>
        <linearGradient id="paint0_linear_1_19911" x1="123.051" y1="105.707" x2="129.971" y2="93.3402" gradientUnits="userSpaceOnUse">
            <stop stop-color="#D1D2D3"/>
            <stop offset="0.3636" stop-color="#D1D2D3"/>
            <stop offset="0.6738" stop-color="#F1F1F1"/>
            <stop offset="1" stop-color="#E5E6E6"/>
        </linearGradient>
        <linearGradient id="paint1_linear_1_19911" x1="138.854" y1="111.621" x2="143.296" y2="103.419" gradientUnits="userSpaceOnUse">
            <stop stop-color="#59595C"/>
            <stop offset="0.3636" stop-color="#221F1F"/>
            <stop offset="0.6738" stop-color="#808184"/>
            <stop offset="1" stop-color="#424143"/>
        </linearGradient>
        <linearGradient id="paint2_linear_1_19911" x1="153.779" y1="121.286" x2="159.777" y2="111.326" gradientUnits="userSpaceOnUse">
            <stop stop-color="#59595C"/>
            <stop offset="0.3636" stop-color="#221F1F"/>
            <stop offset="0.6738" stop-color="#808184"/>
            <stop offset="1" stop-color="#424143"/>
        </linearGradient>
        <linearGradient id="paint3_linear_1_19911" x1="171.722" y1="130.32" x2="176.164" y2="122.118" gradientUnits="userSpaceOnUse">
            <stop stop-color="#59595C"/>
            <stop offset="0.3636" stop-color="#221F1F"/>
            <stop offset="0.6738" stop-color="#808184"/>
            <stop offset="1" stop-color="#424143"/>
        </linearGradient>
        <linearGradient id="paint4_linear_1_19911" x1="186.236" y1="138.952" x2="191.881" y2="128.246" gradientUnits="userSpaceOnUse">
            <stop stop-color="#59595C"/>
            <stop offset="0.3636" stop-color="#221F1F"/>
            <stop offset="0.6738" stop-color="#808184"/>
            <stop offset="1" stop-color="#424143"/>
        </linearGradient>
        <linearGradient id="paint5_linear_1_19911" x1="117.6" y1="69.0621" x2="124.935" y2="69.0621" gradientUnits="userSpaceOnUse">
            <stop stop-color="#D1D2D3"/>
            <stop offset="0.3636" stop-color="#D1D2D3"/>
            <stop offset="0.6738" stop-color="#F1F1F1"/>
            <stop offset="1" stop-color="#E5E6E6"/>
        </linearGradient>
        <linearGradient id="paint6_linear_1_19911" x1="112.823" y1="78.9638" x2="121.776" y2="78.9638" gradientUnits="userSpaceOnUse">
            <stop stop-color="#D1D2D3"/>
            <stop offset="0.3636" stop-color="#D1D2D3"/>
            <stop offset="0.6738" stop-color="#F1F1F1"/>
            <stop offset="1" stop-color="#E5E6E6"/>
        </linearGradient>
        <linearGradient id="paint7_linear_1_19911" x1="121.869" y1="75.5508" x2="125.921" y2="75.5508" gradientUnits="userSpaceOnUse">
            <stop offset="0.3262" stop-color="#84BCE6"/>
            <stop offset="1" stop-color="#1E75BB"/>
        </linearGradient>
        <clipPath id="">
            <rect width="137.399" height="92.3467" fill="white" transform="translate(65.7529 53.1348)"/>
        </clipPath>
    </defs>

</svg>
