<svg width="230" height="230" viewBox="0 0 230 230" fill="none"
    xmlns="http://www.w3.org/2000/svg">

    <g clip-path="url(#)">
        <path d="M183.044 137.774C183.044 139.176 182.623 140.157 181.923 140.717C181.012 141.418 179.68 141.418 178.209 140.577C177.929 140.437 177.649 140.227 177.438 140.017L132.947 109.888C130.214 108.347 128.042 104.563 128.042 101.41C128.042 99.939 128.532 98.888 129.303 98.3275L129.654 98.1173C130.494 97.7669 131.615 97.837 132.877 98.5377C133.157 98.6778 133.437 98.888 133.647 99.0982L134.418 99.5887L138.622 102.461L148.431 109.118C152.915 112.13 153.756 107.366 153.756 107.086L153.896 105.124L154.807 89.4992V89.289C154.877 88.0278 155.368 87.1169 156.068 86.6265L156.419 86.4163C157.329 86.066 158.451 86.2061 159.642 86.9068C160.062 87.187 160.482 87.4673 160.903 87.8176C162.304 89.0788 163.495 90.9005 164.056 92.7923C164.336 93.6331 164.476 94.4739 164.476 95.3146C164.476 95.3847 164.476 95.5248 164.476 95.5949L163.495 113.392C163.495 113.532 164.196 119.768 168.47 122.71L178.139 129.297C180.381 130.558 182.203 133.36 182.833 136.023C182.974 136.583 183.044 137.214 183.044 137.774Z" fill="#F1F2F2" stroke="#231F20" stroke-width="0.201439" stroke-miterlimit="10" stroke-linecap="round" stroke-linejoin="round"/>
        <path opacity="0.14" d="M183.044 137.774C183.044 139.176 182.623 140.157 181.923 140.717C181.012 141.418 179.68 141.418 178.209 140.577C177.929 140.437 177.649 140.227 177.438 140.017L132.947 109.888C130.214 108.347 128.042 104.563 128.042 101.41C128.042 99.939 128.532 98.888 129.303 98.3275L129.654 98.1173C130.494 97.7669 131.615 97.837 132.877 98.5377C133.157 98.6778 133.437 98.888 133.647 99.0982L134.418 99.5887L138.622 102.461L148.431 109.118C152.915 112.13 153.756 107.366 153.756 107.086L153.896 105.124L154.807 89.4992V89.289C154.877 88.0278 155.368 87.1169 156.068 86.6265L156.419 86.4163C157.329 86.066 158.451 86.2061 159.642 86.9068C160.062 87.187 160.482 87.4673 160.903 87.8176C162.304 89.0788 163.495 90.9005 164.056 92.7923C164.336 93.6331 164.476 94.4739 164.476 95.3146C164.476 95.3847 164.476 95.5248 164.476 95.5949L163.495 113.392C163.495 113.532 164.196 119.768 168.47 122.71L178.139 129.297C180.381 130.558 182.203 133.36 182.833 136.023C182.974 136.583 183.044 137.214 183.044 137.774Z" fill="black" stroke="#231F20" stroke-width="0.201439" stroke-miterlimit="10"/>
        <path d="M156.419 86.4163L156.068 86.6265C156.208 86.5564 156.349 86.4863 156.419 86.4163Z" fill="#F1F2F2" stroke="#231F20" stroke-width="0.201439" stroke-miterlimit="10" stroke-linecap="round" stroke-linejoin="round"/>
        <path d="M153.896 105.124L153.756 107.086C153.686 107.366 152.915 112.201 148.431 109.118L138.762 102.531L134.558 99.6588L133.717 99.1683C133.437 98.9581 133.227 98.818 132.947 98.6078C131.685 97.9071 130.564 97.767 129.724 98.1874L135.469 95.0344C136.38 94.3338 137.711 94.3338 139.183 95.1746C139.463 95.3147 139.743 95.5249 139.953 95.7351L153.896 105.124Z" fill="#F1F2F2" stroke="#231F20" stroke-width="0.201439" stroke-miterlimit="10" stroke-linecap="round" stroke-linejoin="round"/>
        <path d="M189.28 134.271C189.28 135.673 188.859 136.653 188.089 137.284L187.458 137.634L181.853 140.717C182.553 140.157 182.974 139.106 182.974 137.775C182.974 137.214 182.904 136.653 182.764 136.093C182.133 133.43 180.311 130.628 178.069 129.367L168.4 122.78C164.126 119.838 163.426 113.672 163.426 113.462L164.477 95.665C164.477 95.5949 164.477 95.4548 164.477 95.3847C164.477 94.5439 164.336 93.7031 164.056 92.8624C163.496 90.9706 162.304 89.1489 160.903 87.8877C160.483 87.5374 160.062 87.187 159.642 86.9768C158.451 86.2762 157.33 86.136 156.419 86.4864L162.304 83.2633C163.215 82.6328 164.477 82.7028 165.878 83.5436C168.54 85.0851 170.712 88.8686 170.712 91.9515C170.712 92.0216 170.712 92.1617 170.712 92.2318L169.661 110.028C169.661 110.169 170.362 116.404 174.636 119.347L184.305 125.933C187.108 127.405 189.28 131.188 189.28 134.271Z" fill="#F1F2F2" stroke="#231F20" stroke-width="0.201439" stroke-miterlimit="10" stroke-linecap="round" stroke-linejoin="round"/>
        <path d="M172.674 162.648C172.674 171.896 166.158 175.68 158.17 171.056L148.781 165.661L121.876 150.316L111.647 144.501C101.347 138.545 92.939 124.042 92.939 112.06C92.939 100.149 101.347 95.2445 111.647 101.27C112.908 101.971 114.169 102.882 115.36 103.863C115.57 104.073 115.85 104.213 116.061 104.423L118.163 106.105C120.685 116.124 127.692 126.354 135.889 131.118L146.119 136.934L169.311 150.176C170.011 151.577 170.572 152.979 171.062 154.38C172.113 157.113 172.674 159.985 172.674 162.648Z" fill="#58595B" stroke="#231F20" stroke-width="0.0802954" stroke-miterlimit="10" stroke-linecap="round" stroke-linejoin="round"/>
        <path d="M129.233 132.94C129.233 133.43 129.233 133.921 129.163 134.411C128.883 138.755 127.271 141.978 124.819 143.73C121.666 145.972 117.112 145.902 111.997 142.959C102.468 137.424 94.7607 124.042 94.7607 113.041C94.7607 107.926 96.4423 104.213 99.1749 102.321L100.646 101.48C103.379 100.289 106.952 100.499 110.876 102.461C111.296 102.671 111.647 102.882 112.067 103.092C121.526 108.557 129.233 121.94 129.233 132.94Z" fill="#231F20" stroke="#231F20" stroke-width="0.201439" stroke-miterlimit="10" stroke-linecap="round" stroke-linejoin="round"/>
        <path d="M145.278 123.831C145.278 129.787 142.966 133.851 139.393 135.392L124.819 143.73C127.271 141.978 128.883 138.825 129.163 134.411C129.163 133.921 129.233 133.43 129.233 132.94C129.233 121.939 121.526 108.557 111.997 103.092C111.576 102.882 111.226 102.671 110.806 102.461C106.882 100.499 103.379 100.289 100.576 101.48L115.15 93.1424C118.303 90.9704 122.857 91.0405 127.972 93.9832C137.571 99.4484 145.278 112.831 145.278 123.831Z" fill="url(#paint0_linear_1_19911)" stroke="#231F20" stroke-width="0.201439" stroke-miterlimit="10" stroke-linecap="round" stroke-linejoin="round"/>
        <path d="M161.884 165.801C161.674 165.941 161.533 166.081 161.323 166.151L161.884 165.801Z" fill="#F1F2F2" stroke="#231F20" stroke-width="0.201439" stroke-miterlimit="10" stroke-linecap="round" stroke-linejoin="round"/>
        <path d="M170.362 161.386C170.362 165.45 168.96 168.393 166.718 169.794L166.158 170.145C163.775 171.336 160.622 171.056 157.119 169.024C149.762 164.82 143.807 154.52 143.807 146.042C143.807 141.558 145.488 138.475 148.081 137.214C150.463 136.093 153.616 136.373 157.049 138.335C158.1 138.965 159.151 139.666 160.132 140.507C165.037 144.641 168.89 151.367 170.011 157.673C170.221 159.004 170.362 160.195 170.362 161.386Z" fill="#231F20" stroke="#231F20" stroke-width="0.201439" stroke-miterlimit="10" stroke-linecap="round" stroke-linejoin="round"/>
        <path d="M186.337 152.278C186.337 156.762 184.655 159.915 181.923 161.106L166.648 169.794C168.89 168.323 170.292 165.45 170.292 161.387C170.292 160.195 170.152 159.004 169.941 157.743C168.82 151.437 164.967 144.711 160.062 140.577C159.081 139.736 158.03 138.966 156.979 138.405C153.546 136.373 150.393 136.093 148.011 137.284L163.425 128.526C165.807 127.054 169.241 127.194 173.024 129.366C180.451 133.5 186.337 143.8 186.337 152.278Z" fill="url(#paint1_linear_1_19911)" stroke="#231F20" stroke-width="0.201439" stroke-miterlimit="10" stroke-linecap="round" stroke-linejoin="round"/>
        <path d="M199.789 150.807C199.789 156.972 197.407 161.106 193.624 162.578L171.062 175.049C173.795 173.088 175.477 169.374 175.477 164.259C175.477 161.597 175.056 158.864 174.215 156.132C173.795 154.8 173.375 153.469 172.814 152.138C170.222 145.902 165.948 140.017 160.973 136.163L160.763 136.023L117.532 102.531L116.761 101.901C116.131 101.34 115.5 100.85 114.87 100.359C113.819 99.5886 112.768 98.888 111.647 98.2574C106.182 95.1044 101.207 94.6139 97.4233 96.3656L119.704 84.2442C123.628 81.1613 129.443 81.1613 135.96 84.8748C137.711 85.8557 139.393 87.1169 141.004 88.5182L185.076 122.57L185.286 122.71C193.554 129.016 199.789 140.927 199.789 150.807Z" fill="#414042" stroke="#231F20" stroke-width="0.201439" stroke-miterlimit="10" stroke-linecap="round" stroke-linejoin="round"/>
        <path d="M133.718 101.48C133.648 101.55 133.578 101.55 133.438 101.62C133.578 101.62 133.648 101.55 133.718 101.48Z" fill="#F1F2F2" stroke="#231F20" stroke-width="0.201439" stroke-miterlimit="10" stroke-linecap="round" stroke-linejoin="round"/>
        <path d="M184.094 118.226L181.362 119.698L159.571 131.469L143.877 119.277L132.456 110.449L116.341 98.0472L121.526 95.2446L124.609 93.563L137.851 86.4163L140.864 84.8048L157.539 97.6969L166.788 104.984C166.858 104.984 166.858 104.914 166.928 104.914L184.094 118.226Z" fill="#F1F2F2" stroke="#231F20" stroke-width="0.201439" stroke-miterlimit="10" stroke-linecap="round" stroke-linejoin="round"/>
        <path d="M184.095 118.226V120.819L183.394 121.239L168.4 129.367L159.572 134.131V131.469L181.432 119.697L184.095 118.226Z" fill="#F1F2F2" stroke="#231F20" stroke-width="0.201439" stroke-miterlimit="10" stroke-linecap="round" stroke-linejoin="round"/>
        <path d="M159.571 131.469V133.851L159.431 133.921L147.66 124.882L143.737 121.8L130.424 111.57L121.526 104.703L116.341 100.71V98.0472L132.456 110.449L143.877 119.277L159.571 131.469Z" fill="#F1F2F2" stroke="#231F20" stroke-width="0.201439" stroke-miterlimit="10" stroke-linecap="round" stroke-linejoin="round"/>
        <path d="M159.572 133.851V134.131L159.432 133.921L159.572 133.851Z" fill="#F1F2F2" stroke="#231F20" stroke-width="0.201439" stroke-miterlimit="10" stroke-linecap="round" stroke-linejoin="round"/>
        <path d="M163.145 96.1552C163.145 97.3464 162.724 98.1871 162.094 98.6075C162.024 98.6075 162.024 98.6776 161.954 98.6776C161.883 98.7477 160.903 99.2381 159.431 100.149C155.017 102.671 146.049 107.786 141.284 110.238C140.443 110.659 139.743 111.009 139.252 111.289C139.883 110.869 140.303 109.958 140.303 108.837C140.303 106.315 138.552 103.232 136.38 101.971C135.399 101.41 134.488 101.27 133.787 101.62C134.558 101.2 135.469 100.71 136.45 100.149C140.513 97.977 145.838 95.1043 150.042 92.8622C151.023 92.3016 151.934 91.8112 152.775 91.3908C154.457 90.4799 155.718 89.7793 156.418 89.4289C156.699 89.2888 156.909 89.1487 156.909 89.1487C157.539 88.9385 158.38 89.0786 159.291 89.5691C161.463 90.6901 163.145 93.7029 163.145 96.1552Z" fill="url(#paint2_linear_1_19911)" stroke="#231F20" stroke-width="0.201439" stroke-miterlimit="10" stroke-linecap="round" stroke-linejoin="round"/>
        <path d="M140.303 108.697C140.303 109.888 139.883 110.729 139.252 111.149C138.552 111.64 137.501 111.64 136.309 110.939C134.137 109.678 132.386 106.595 132.386 104.073C132.386 103.162 132.596 102.461 133.016 101.971C133.156 101.831 133.297 101.691 133.507 101.55C133.577 101.48 133.647 101.48 133.787 101.41C134.488 101.13 135.399 101.2 136.379 101.761C138.552 103.162 140.303 106.175 140.303 108.697Z" fill="#58595B" stroke="#231F20" stroke-width="0.201439" stroke-miterlimit="10" stroke-linecap="round" stroke-linejoin="round"/>
        <path d="M174.285 156.132C173.865 154.8 173.445 153.469 172.884 152.138C170.292 145.902 166.018 140.017 161.043 136.163L160.833 136.023L117.532 102.531L116.761 101.901C116.131 101.34 115.5 100.85 114.87 100.359C113.819 99.5886 112.768 98.888 111.647 98.2574C106.182 95.1044 101.207 94.614 97.4233 96.3656C93.0792 98.3975 90.3467 103.372 90.3467 110.589C90.3467 124.182 99.8756 140.647 111.647 147.444L158.1 174.279C163.215 177.221 167.839 177.362 170.992 175.049C173.725 173.088 175.407 169.374 175.407 164.259C175.477 161.667 175.056 158.864 174.285 156.132ZM158.17 170.986L148.782 165.591L121.876 150.316L111.647 144.501C101.347 138.545 92.9391 124.042 92.9391 112.06C92.9391 100.149 101.347 95.2446 111.647 101.27C112.908 101.971 114.169 102.882 115.36 103.863C115.57 104.073 115.851 104.213 116.061 104.423L118.163 106.105L124.889 111.36L151.234 131.889L159.642 138.405C163.565 141.138 167.069 145.412 169.381 150.106C170.082 151.507 170.642 152.909 171.133 154.31C172.113 157.113 172.674 159.915 172.674 162.648C172.674 171.897 166.158 175.68 158.17 170.986Z" fill="#231F20" stroke="#231F20" stroke-width="0.201439" stroke-miterlimit="10" stroke-linecap="round" stroke-linejoin="round"/>
        <path d="M122.507 127.545C122.507 130.698 121.246 132.87 119.354 133.641C119.354 133.641 119.354 133.641 119.284 133.641C118.934 133.851 117.392 134.551 116.902 134.832C117.322 134.622 117.672 134.271 118.023 133.921C118.373 133.571 118.653 133.15 118.863 132.66C119.354 131.679 119.634 130.418 119.634 128.876C119.634 127.685 119.424 126.354 119.144 125.093C118.303 121.729 116.411 118.366 113.959 115.914C112.908 114.793 111.787 113.882 110.526 113.181C109.825 112.761 109.124 112.481 108.424 112.271C107.513 111.99 106.672 111.92 105.901 111.99C105.411 112.06 104.92 112.13 104.5 112.341L106.742 111.22L107.583 110.799C109.124 110.239 111.086 110.519 113.258 111.78C118.443 114.723 122.507 121.729 122.507 127.545Z" fill="#928874" stroke="#231F20" stroke-width="0.0802954" stroke-miterlimit="10"/>
        <path d="M119.144 125.163C118.303 121.8 116.411 118.436 113.959 115.984C112.908 114.863 111.787 113.952 110.526 113.252C109.825 112.831 109.124 112.551 108.424 112.341C107.513 112.06 106.672 111.99 105.901 112.06C105.411 112.13 104.92 112.201 104.5 112.411L104.29 112.551C102.608 113.462 101.557 115.564 101.557 118.436C101.557 124.252 105.621 131.258 110.596 134.131C112.978 135.462 115.08 135.673 116.761 134.902C116.761 134.902 116.831 134.902 116.972 134.832C117.392 134.622 117.742 134.271 118.093 133.921C118.443 133.571 118.723 133.15 118.933 132.66C119.424 131.679 119.704 130.418 119.704 128.876C119.634 127.685 119.494 126.424 119.144 125.163ZM116.061 129.647C115.991 129.787 115.921 129.927 115.78 130.067C115.71 130.207 115.57 130.348 115.43 130.488C115.22 130.698 114.94 130.908 114.659 131.048C114.589 131.118 114.519 131.118 114.519 131.118C113.468 131.609 111.997 131.469 110.455 130.628C107.162 128.736 104.43 124.042 104.43 120.258C104.43 118.296 105.13 116.965 106.252 116.334L106.462 116.264C106.742 116.124 107.022 116.054 107.373 116.054C107.513 116.054 107.653 116.054 107.723 116.054C108.143 116.054 108.564 116.124 108.984 116.264C109.404 116.405 109.895 116.615 110.385 116.895C113.679 118.787 116.411 123.481 116.411 127.265C116.551 128.176 116.411 128.946 116.061 129.647Z" fill="#928874" stroke="#231F20" stroke-width="0.0802954" stroke-miterlimit="10"/>
        <path d="M115.851 130.067C115.781 130.207 115.64 130.348 115.5 130.488C115.29 130.698 115.01 130.908 114.73 131.048C114.66 131.118 114.589 131.118 114.589 131.118C113.538 131.609 112.067 131.469 110.526 130.628C107.233 128.736 104.5 124.042 104.5 120.258C104.5 118.296 105.201 116.965 106.322 116.334L106.532 116.264C106.812 116.124 107.092 116.054 107.443 116.054C107.583 116.054 107.723 116.054 107.793 116.054C107.303 116.755 107.022 117.736 107.022 118.997C107.022 122.851 109.685 127.475 113.048 129.367C114.099 129.787 115.01 130.067 115.851 130.067Z" fill="#49443A" stroke="#231F20" stroke-width="0.0802954" stroke-miterlimit="10" stroke-linecap="round" stroke-linejoin="round"/>
        <path d="M116.551 127.195C116.551 128.176 116.341 129.016 116.061 129.647C115.991 129.787 115.921 129.927 115.78 130.067C115.01 130.067 114.099 129.787 113.118 129.227C109.825 127.335 107.092 122.64 107.092 118.857C107.092 117.666 107.373 116.615 107.863 115.914C108.283 115.914 108.704 115.984 109.124 116.124C109.545 116.264 110.035 116.475 110.526 116.755C113.889 118.717 116.551 123.341 116.551 127.195Z" fill="#6E6657" stroke="#231F20" stroke-width="0.0802954" stroke-miterlimit="10" stroke-linecap="round" stroke-linejoin="round"/>
        <path d="M167.559 158.234C167.559 161.387 166.297 163.559 164.406 164.329C164.406 164.329 164.406 164.329 164.336 164.329C163.985 164.54 162.444 165.24 161.953 165.52C162.374 165.31 162.724 164.96 163.074 164.61C163.425 164.259 163.705 163.839 163.915 163.348C164.406 162.368 164.686 161.106 164.686 159.565C164.686 158.374 164.476 157.043 164.196 155.781C163.355 152.418 161.463 149.055 159.011 146.603C157.96 145.482 156.839 144.571 155.577 143.87C154.877 143.45 154.176 143.17 153.475 142.959C152.565 142.679 151.724 142.609 150.953 142.679C150.463 142.749 149.972 142.819 149.552 143.029L151.794 141.908L152.635 141.488C154.176 140.927 156.138 141.208 158.31 142.469C163.495 145.412 167.559 152.488 167.559 158.234Z" fill="#928874" stroke="#231F20" stroke-width="0.0802954" stroke-miterlimit="10"/>
        <path d="M164.196 155.922C163.355 152.558 161.463 149.195 159.011 146.743C157.96 145.622 156.839 144.711 155.578 144.01C154.877 143.59 154.176 143.31 153.476 143.099C152.565 142.819 151.724 142.749 150.953 142.819C150.463 142.889 149.973 142.959 149.552 143.17L149.202 143.31C147.52 144.221 146.469 146.323 146.469 149.195C146.469 155.011 150.533 162.017 155.508 164.89C157.89 166.221 159.992 166.431 161.674 165.661C161.674 165.661 161.744 165.661 161.884 165.591C162.304 165.38 162.654 165.03 163.005 164.68C163.355 164.329 163.635 163.909 163.846 163.419C164.336 162.438 164.616 161.176 164.616 159.635C164.686 158.444 164.546 157.183 164.196 155.922ZM161.113 160.406C161.043 160.546 160.973 160.686 160.833 160.826C160.763 160.966 160.623 161.106 160.482 161.247C160.272 161.457 159.992 161.667 159.712 161.807C159.642 161.877 159.572 161.877 159.572 161.877C158.521 162.368 157.049 162.227 155.508 161.387C152.215 159.495 149.482 154.8 149.482 151.017C149.482 149.055 150.183 147.724 151.304 147.093L151.514 147.023C151.794 146.883 152.074 146.813 152.425 146.813C152.565 146.813 152.705 146.813 152.775 146.813C153.196 146.813 153.616 146.883 154.036 147.023C154.457 147.163 154.947 147.373 155.438 147.654C158.731 149.546 161.463 154.24 161.463 158.023C161.603 158.864 161.463 159.705 161.113 160.406Z" fill="#928874" stroke="#231F20" stroke-width="0.0802954" stroke-miterlimit="10"/>
        <path d="M160.902 160.826C160.832 160.966 160.692 161.106 160.552 161.247C160.342 161.457 160.062 161.667 159.781 161.807C159.711 161.877 159.641 161.877 159.641 161.877C158.59 162.368 157.119 162.227 155.577 161.387C152.284 159.495 149.552 154.8 149.552 151.017C149.552 149.055 150.252 147.724 151.373 147.093L151.584 147.023C151.864 146.883 152.144 146.813 152.495 146.813C152.635 146.813 152.775 146.813 152.845 146.813C152.354 147.514 152.074 148.495 152.074 149.756C152.074 153.609 154.737 158.234 158.1 160.125C159.151 160.546 160.062 160.826 160.902 160.826Z" fill="#49443A" stroke="#231F20" stroke-width="0.0802954" stroke-miterlimit="10" stroke-linecap="round" stroke-linejoin="round"/>
        <path d="M161.603 157.883C161.603 158.864 161.393 159.705 161.113 160.336C161.043 160.476 160.973 160.616 160.833 160.756C160.062 160.756 159.151 160.476 158.17 159.915C154.877 158.023 152.145 153.329 152.145 149.545C152.145 148.354 152.425 147.303 152.915 146.603C153.336 146.603 153.756 146.673 154.176 146.813C154.597 146.953 155.087 147.163 155.578 147.443C158.941 149.405 161.603 154.1 161.603 157.883Z" fill="#6E6657" stroke="#231F20" stroke-width="0.0802954" stroke-miterlimit="10" stroke-linecap="round" stroke-linejoin="round"/>
    </g>
    <defs>
        <linearGradient id="paint0_linear_1_19911" x1="119.864" y1="101.762" x2="133.609" y2="139.21" gradientUnits="userSpaceOnUse">
            <stop/>
            <stop offset="1" stop-color="#58595B"/>
        </linearGradient>
        <linearGradient id="paint1_linear_1_19911" x1="162.731" y1="133.606" x2="181.251" y2="167.119" gradientUnits="userSpaceOnUse">
            <stop stop-color="#58595B"/>
            <stop offset="1"/>
        </linearGradient>
        <linearGradient id="paint2_linear_1_19911" x1="146.115" y1="93.8442" x2="152.199" y2="104.473" gradientUnits="userSpaceOnUse">
            <stop stop-color="#59595C"/>
            <stop offset="0.3636" stop-color="#221F1F"/>
            <stop offset="0.6738" stop-color="#808184"/>
            <stop offset="1" stop-color="#424143"/>
        </linearGradient>
        <clipPath id="">
            <rect width="109.583" height="94.869" fill="white" transform="translate(90.2764 81.8618)"/>
        </clipPath>
    </defs>


    <g clip-path="url(#)">
        <path d="M167.768 124.602L129.442 146.743L123.487 137.914L163.004 115.493L167.768 124.602Z" fill="#F9FAFA" stroke="#231F20" stroke-width="0.201439" stroke-miterlimit="10" stroke-linecap="round" stroke-linejoin="round"/>
        <path d="M167.769 124.602V137.564L129.443 160.546V146.743L167.769 124.602Z" fill="#F1F2F2" stroke="#231F20" stroke-width="0.201439" stroke-miterlimit="10" stroke-linecap="round" stroke-linejoin="round"/>
        <path d="M129.443 146.743V160.546L92.3079 163.979L46.9053 124.672V106.945L61.479 101.62H61.6191L120.965 136.443L123.487 137.914L129.443 146.743Z" fill="#F1F2F2" stroke="#231F20" stroke-width="0.201439" stroke-miterlimit="10" stroke-linecap="round" stroke-linejoin="round"/>
        <path d="M163.004 115.493L150.182 122.85L133.156 132.449L123.487 137.914L120.965 136.443L61.6191 101.62H61.479L71.2882 96.1553L101.346 79.1293L163.004 115.493Z" fill="#F1F2F2" stroke="#231F20" stroke-width="0.201439" stroke-miterlimit="10" stroke-linecap="round" stroke-linejoin="round"/>
        <path d="M71.2882 96.1553L61.479 101.62L46.9053 106.945L88.2441 83.6135L101.346 79.1293L71.2882 96.1553Z" fill="#F1F2F2" stroke="#231F20" stroke-width="0.201439" stroke-miterlimit="10" stroke-linecap="round" stroke-linejoin="round"/>
        <path opacity="0.14" d="M129.443 146.743V160.546L92.3079 163.979L46.9053 124.672V106.945L61.479 101.62H61.6191L120.965 136.443L123.487 137.914L129.443 146.743Z" fill="black" stroke="#231F20" stroke-width="0.0802954" stroke-miterlimit="10"/>
        <path d="M123.136 94.1234L111.576 87.5372L107.302 89.9195L75.4917 108.417L87.9634 115.423L96.2312 120.048L99.1739 121.729L103.028 123.901L107.302 126.284V126.143L107.442 126.214L113.607 122.64L116.48 120.959L119.143 119.417L123.277 117.035L136.309 109.608L143.245 105.614L123.136 94.1234ZM133.646 108.137L120.614 115.564L116.48 117.946L113.818 119.487L113.678 119.557L108.072 122.78L107.372 122.36L106.601 121.94L102.747 119.697L99.8746 118.016L90.696 112.761L85.6512 109.818L82.3581 107.926L84.0397 106.945L96.091 100.079L96.3012 99.9389L102.957 96.0853L111.225 91.3208L118.022 95.2445L136.939 106.175L133.646 108.137Z" fill="#F1F2F2" stroke="#231F20" stroke-width="0.328328" stroke-miterlimit="10" stroke-linecap="round" stroke-linejoin="round"/>
        <path d="M136.939 106.245L133.646 108.136L113.187 96.2953L111.155 95.1743V91.3207L117.952 95.2444L136.939 106.245Z" fill="#F1F2F2" stroke="#231F20" stroke-width="0.328328" stroke-miterlimit="10" stroke-linecap="round" stroke-linejoin="round"/>
        <path d="M111.155 91.3207V95.1743L106.741 97.6967L96.3012 103.722L93.7789 105.194L90.6259 106.945L85.6512 109.818L82.2881 107.856L83.9697 106.945L96.091 100.079L96.3012 99.9388L102.957 96.0851L111.155 91.3207Z" fill="#F1F2F2" stroke="#231F20" stroke-width="0.328328" stroke-miterlimit="10" stroke-linecap="round" stroke-linejoin="round"/>
        <path d="M133.646 108.137L120.544 115.564L116.48 117.876L113.817 119.417L113.677 119.347V119.487L108.072 122.78L107.301 122.36L106.53 121.869L102.747 119.697L99.8742 118.016L90.6956 112.761L85.6509 109.818L90.6255 106.945L93.7785 105.194L96.3009 103.722L106.741 97.6968L111.155 95.1744L113.187 96.2955L133.646 108.137Z" fill="#F1F2F2" stroke="#231F20" stroke-width="0.328328" stroke-miterlimit="10" stroke-linecap="round" stroke-linejoin="round"/>
        <path opacity="0.2" d="M136.939 106.245L130.073 110.168L107.652 97.2062L111.155 91.3207L136.939 106.245Z" fill="black" stroke="#231F20" stroke-width="0.328328" stroke-miterlimit="10"/>
        <path d="M59.7271 93.843C59.7271 93.843 59.7977 93.843 59.7271 93.843C59.7977 93.843 59.7977 93.843 59.7271 93.843Z" fill="#F1F2F2" stroke="#231F20" stroke-width="0.201439" stroke-miterlimit="10" stroke-linecap="round" stroke-linejoin="round"/>
        <path d="M91.1868 84.3843L67.1543 97.907L59.7974 93.8431L83.1993 80.7408L91.1868 84.3843Z" fill="#F1F2F2" stroke="#231F20" stroke-width="0.201439" stroke-miterlimit="10" stroke-linecap="round" stroke-linejoin="round"/>
        <path d="M67.1543 97.9068L59.7974 100.569V93.843L67.1543 97.9068Z" fill="#F1F2F2" stroke="#231F20" stroke-width="0.201439" stroke-miterlimit="10" stroke-linecap="round" stroke-linejoin="round"/>
        <path opacity="0.14" d="M67.1543 97.9068L59.7974 100.569V93.843L67.1543 97.9068Z" fill="black" stroke="#231F20" stroke-width="0.201439" stroke-miterlimit="10"/>
        <path d="M130.634 115.774L130.074 115.493L140.443 109.468L141.074 109.818L130.634 115.774Z" fill="#6D6E71" stroke="#231F20" stroke-width="0.0125215" stroke-miterlimit="10" stroke-linecap="round" stroke-linejoin="round"/>
        <path d="M131.895 116.474L131.265 116.194L141.634 110.168L142.265 110.519L131.895 116.474Z" fill="#6D6E71" stroke="#231F20" stroke-width="0.0125215" stroke-miterlimit="10" stroke-linecap="round" stroke-linejoin="round"/>
        <path d="M133.086 117.175L132.456 116.825L142.895 110.869L143.456 111.219L133.086 117.175Z" fill="#6D6E71" stroke="#231F20" stroke-width="0.0125215" stroke-miterlimit="10" stroke-linecap="round" stroke-linejoin="round"/>
        <path d="M134.278 117.876L133.647 117.525L144.087 111.57L144.647 111.92L134.278 117.876Z" fill="#6D6E71" stroke="#231F20" stroke-width="0.0125215" stroke-miterlimit="10" stroke-linecap="round" stroke-linejoin="round"/>
        <path d="M135.469 118.576L134.908 118.226L145.278 112.27L145.838 112.621L135.469 118.576Z" fill="#6D6E71" stroke="#231F20" stroke-width="0.0125215" stroke-miterlimit="10" stroke-linecap="round" stroke-linejoin="round"/>
        <path d="M136.66 119.277L136.1 118.927L146.469 112.971L147.1 113.321L136.66 119.277Z" fill="#6D6E71" stroke="#231F20" stroke-width="0.0125215" stroke-miterlimit="10" stroke-linecap="round" stroke-linejoin="round"/>
        <path d="M137.921 119.978L137.29 119.627L147.66 113.672L148.29 113.952L137.921 119.978Z" fill="#6D6E71" stroke="#231F20" stroke-width="0.0125215" stroke-miterlimit="10" stroke-linecap="round" stroke-linejoin="round"/>
        <path d="M139.113 120.678L138.482 120.328L148.922 114.372L149.482 114.653L139.113 120.678Z" fill="#6D6E71" stroke="#231F20" stroke-width="0.0125215" stroke-miterlimit="10" stroke-linecap="round" stroke-linejoin="round"/>
        <path d="M140.303 121.379L139.742 121.029L150.112 115.003L150.672 115.353L140.303 121.379Z" fill="#6D6E71" stroke="#231F20" stroke-width="0.0125215" stroke-miterlimit="10" stroke-linecap="round" stroke-linejoin="round"/>
        <path d="M141.495 122.08L140.934 121.729L151.304 115.704L151.864 116.054L141.495 122.08Z" fill="#6D6E71" stroke="#231F20" stroke-width="0.0125215" stroke-miterlimit="10" stroke-linecap="round" stroke-linejoin="round"/>
        <path d="M142.686 122.78L142.125 122.43L152.495 116.404L153.125 116.755L142.686 122.78Z" fill="#6D6E71" stroke="#231F20" stroke-width="0.0125215" stroke-miterlimit="10" stroke-linecap="round" stroke-linejoin="round"/>
        <path d="M143.947 123.481L143.316 123.131L153.686 117.105L154.316 117.455L143.947 123.481Z" fill="#6D6E71" stroke="#231F20" stroke-width="0.0125215" stroke-miterlimit="10" stroke-linecap="round" stroke-linejoin="round"/>
        <path d="M154.316 117.455L153.686 117.806L139.883 109.818L140.443 109.468L154.316 117.455Z" fill="#6D6E71" stroke="#231F20" stroke-width="0.0125215" stroke-miterlimit="10" stroke-linecap="round" stroke-linejoin="round"/>
        <path d="M153.056 118.156L152.495 118.506L138.622 110.519L139.253 110.168L153.056 118.156Z" fill="#6D6E71" stroke="#231F20" stroke-width="0.0125215" stroke-miterlimit="10" stroke-linecap="round" stroke-linejoin="round"/>
        <path d="M151.864 118.857L151.233 119.207L137.43 111.219L137.991 110.869L151.864 118.857Z" fill="#6D6E71" stroke="#231F20" stroke-width="0.0125215" stroke-miterlimit="10" stroke-linecap="round" stroke-linejoin="round"/>
        <path d="M150.603 119.557L150.042 119.908L136.169 111.92L136.8 111.57L150.603 119.557Z" fill="#6D6E71" stroke="#231F20" stroke-width="0.0125215" stroke-miterlimit="10" stroke-linecap="round" stroke-linejoin="round"/>
        <path d="M149.412 120.258L148.851 120.608L134.978 112.621L135.539 112.27L149.412 120.258Z" fill="#6D6E71" stroke="#231F20" stroke-width="0.0125215" stroke-miterlimit="10" stroke-linecap="round" stroke-linejoin="round"/>
        <path d="M148.221 121.029L147.59 121.309L133.717 113.321L134.348 112.971L148.221 121.029Z" fill="#6D6E71" stroke="#231F20" stroke-width="0.0125215" stroke-miterlimit="10" stroke-linecap="round" stroke-linejoin="round"/>
        <path d="M146.959 121.729L146.399 122.08L132.526 114.022L133.086 113.742L146.959 121.729Z" fill="#6D6E71" stroke="#231F20" stroke-width="0.0125215" stroke-miterlimit="10" stroke-linecap="round" stroke-linejoin="round"/>
        <path d="M145.768 122.43L145.138 122.78L131.265 114.723L131.895 114.442L145.768 122.43Z" fill="#6D6E71" stroke="#231F20" stroke-width="0.0125215" stroke-miterlimit="10" stroke-linecap="round" stroke-linejoin="round"/>
        <path d="M144.507 123.131L143.947 123.481L130.074 115.493L130.634 115.143L144.507 123.131Z" fill="#6D6E71" stroke="#231F20" stroke-width="0.0125215" stroke-miterlimit="10" stroke-linecap="round" stroke-linejoin="round"/>
        <path d="M114.449 125.022L113.889 124.672L124.258 118.716L124.819 119.067L114.449 125.022Z" fill="#6D6E71" stroke="#231F20" stroke-width="0.0125215" stroke-miterlimit="10" stroke-linecap="round" stroke-linejoin="round"/>
        <path d="M115.64 125.723L115.08 125.373L125.449 119.417L126.08 119.767L115.64 125.723Z" fill="#6D6E71" stroke="#231F20" stroke-width="0.0125215" stroke-miterlimit="10" stroke-linecap="round" stroke-linejoin="round"/>
        <path d="M116.902 126.424L116.271 126.073L126.641 120.118L127.271 120.468L116.902 126.424Z" fill="#6D6E71" stroke="#231F20" stroke-width="0.0125215" stroke-miterlimit="10" stroke-linecap="round" stroke-linejoin="round"/>
        <path d="M118.093 127.124L117.462 126.774L127.902 120.818L128.462 121.099L118.093 127.124Z" fill="#6D6E71" stroke="#231F20" stroke-width="0.0125215" stroke-miterlimit="10" stroke-linecap="round" stroke-linejoin="round"/>
        <path d="M119.284 127.825L118.723 127.475L129.093 121.519L129.653 121.799L119.284 127.825Z" fill="#6D6E71" stroke="#231F20" stroke-width="0.0125215" stroke-miterlimit="10" stroke-linecap="round" stroke-linejoin="round"/>
        <path d="M120.475 128.526L119.915 128.175L130.284 122.15L130.915 122.5L120.475 128.526Z" fill="#6D6E71" stroke="#231F20" stroke-width="0.0125215" stroke-miterlimit="10" stroke-linecap="round" stroke-linejoin="round"/>
        <path d="M121.666 129.226L121.105 128.876L131.475 122.85L132.105 123.201L121.666 129.226Z" fill="#6D6E71" stroke="#231F20" stroke-width="0.0125215" stroke-miterlimit="10" stroke-linecap="round" stroke-linejoin="round"/>
        <path d="M122.927 129.927L122.297 129.577L132.667 123.551L133.297 123.901L122.927 129.927Z" fill="#6D6E71" stroke="#231F20" stroke-width="0.0125215" stroke-miterlimit="10" stroke-linecap="round" stroke-linejoin="round"/>
        <path d="M124.118 130.628L123.488 130.277L133.928 124.252L134.488 124.602L124.118 130.628Z" fill="#6D6E71" stroke="#231F20" stroke-width="0.0125215" stroke-miterlimit="10" stroke-linecap="round" stroke-linejoin="round"/>
        <path d="M125.31 131.328L124.749 130.978L135.119 124.952L135.679 125.303L125.31 131.328Z" fill="#6D6E71" stroke="#231F20" stroke-width="0.0125215" stroke-miterlimit="10" stroke-linecap="round" stroke-linejoin="round"/>
        <path d="M126.5 132.029L125.94 131.679L136.31 125.653L136.94 126.003L126.5 132.029Z" fill="#6D6E71" stroke="#231F20" stroke-width="0.0125215" stroke-miterlimit="10" stroke-linecap="round" stroke-linejoin="round"/>
        <path d="M127.691 132.73L127.131 132.379L137.501 126.354L138.131 126.704L127.691 132.73Z" fill="#6D6E71" stroke="#231F20" stroke-width="0.0125215" stroke-miterlimit="10" stroke-linecap="round" stroke-linejoin="round"/>
        <path d="M138.132 126.704L137.501 127.054L123.698 119.067L124.259 118.716L138.132 126.704Z" fill="#6D6E71" stroke="#231F20" stroke-width="0.0125215" stroke-miterlimit="10" stroke-linecap="round" stroke-linejoin="round"/>
        <path d="M136.871 127.405L136.31 127.755L122.437 119.767L123.068 119.417L136.871 127.405Z" fill="#6D6E71" stroke="#231F20" stroke-width="0.0125215" stroke-miterlimit="10" stroke-linecap="round" stroke-linejoin="round"/>
        <path d="M135.679 128.105L135.049 128.456L121.246 120.468L121.806 120.118L135.679 128.105Z" fill="#6D6E71" stroke="#231F20" stroke-width="0.0125215" stroke-miterlimit="10" stroke-linecap="round" stroke-linejoin="round"/>
        <path d="M134.418 128.806L133.858 129.156L119.985 121.169L120.615 120.818L134.418 128.806Z" fill="#6D6E71" stroke="#231F20" stroke-width="0.0125215" stroke-miterlimit="10" stroke-linecap="round" stroke-linejoin="round"/>
        <path d="M133.227 129.507L132.596 129.857L118.793 121.869L119.353 121.519L133.227 129.507Z" fill="#6D6E71" stroke="#231F20" stroke-width="0.0125215" stroke-miterlimit="10" stroke-linecap="round" stroke-linejoin="round"/>
        <path d="M131.966 130.207L131.405 130.558L117.532 122.57L118.163 122.22L131.966 130.207Z" fill="#6D6E71" stroke="#231F20" stroke-width="0.0125215" stroke-miterlimit="10" stroke-linecap="round" stroke-linejoin="round"/>
        <path d="M130.774 130.908L130.144 131.258L116.341 123.271L116.901 122.92L130.774 130.908Z" fill="#6D6E71" stroke="#231F20" stroke-width="0.0125215" stroke-miterlimit="10" stroke-linecap="round" stroke-linejoin="round"/>
        <path d="M129.513 131.679L128.953 131.959L115.08 123.971L115.71 123.621L129.513 131.679Z" fill="#6D6E71" stroke="#231F20" stroke-width="0.0125215" stroke-miterlimit="10" stroke-linecap="round" stroke-linejoin="round"/>
        <path d="M128.322 132.379L127.692 132.73L113.889 124.672L114.449 124.392L128.322 132.379Z" fill="#6D6E71" stroke="#231F20" stroke-width="0.0125215" stroke-miterlimit="10" stroke-linecap="round" stroke-linejoin="round"/>
    </g>
    <defs>
        <clipPath id="">
            <rect width="121.004" height="85.0598" fill="white" transform="translate(46.8359 79.0592)"/>
        </clipPath>
    </defs>


    <g clip-path="url(#)">
        <path d="M57.906 147.303L57.5557 147.513C57.6958 147.443 57.7659 147.373 57.906 147.303Z" fill="#F1F2F2" stroke="#231F20" stroke-width="0.201439" stroke-miterlimit="10" stroke-linecap="round" stroke-linejoin="round"/>
        <path d="M57.9769 147.303H57.9062H57.9769Z" fill="#F1F2F2" stroke="#231F20" stroke-width="0.201439" stroke-miterlimit="10" stroke-linecap="round" stroke-linejoin="round"/>
        <path d="M57.9757 147.303L57.9056 147.373C57.9757 147.303 57.9757 147.303 57.9757 147.303ZM57.5553 147.513L57.9056 147.303C57.7655 147.373 57.6955 147.443 57.5553 147.513ZM28.6182 133.29C28.9685 133.15 29.3889 133.01 29.7392 132.94C29.3188 133.01 28.9685 133.15 28.6182 133.29Z" fill="#F1F2F2" stroke="#231F20" stroke-width="0.201439" stroke-miterlimit="10" stroke-linecap="round" stroke-linejoin="round"/>
        <path d="M102.818 203.846C101.136 210.012 95.5308 211.974 88.8045 208.12L79.4157 202.725L52.5104 187.451L42.2808 181.635C31.9811 175.68 23.5732 161.176 23.5732 149.195C23.5732 139.876 28.688 134.901 35.8348 135.952L31.2104 138.615L29.739 139.456C27.0065 141.418 25.3249 145.061 25.3249 150.176C25.3249 161.176 33.0321 174.559 42.5611 180.024C45.7841 181.846 48.7969 182.616 51.3893 182.336L78.8551 200.973C79.1354 201.184 79.3456 201.324 79.6259 201.534C80.7469 202.165 81.7278 202.305 82.5686 202.095C84.1801 203.776 85.8617 205.177 87.6834 206.228C91.1867 208.26 94.4097 208.541 96.7219 207.349C96.9321 207.279 97.1423 207.139 97.2824 206.999L102.818 203.846Z" fill="#58595B" stroke="#231F20" stroke-width="0.0802954" stroke-miterlimit="10" stroke-linecap="round" stroke-linejoin="round"/>
        <path d="M31.2109 159.074L31.8415 158.724C31.8415 158.794 31.8415 158.794 31.8415 158.864C31.6313 158.934 31.4211 159.004 31.2109 159.074Z" fill="#F1F2F2" stroke="#231F20" stroke-width="0.201439" stroke-miterlimit="10" stroke-linecap="round" stroke-linejoin="round"/>
        <path d="M36.3252 148.985L35.7646 149.335C35.9748 149.195 36.185 149.055 36.3252 148.985Z" fill="#F1F2F2" stroke="#231F20" stroke-width="0.201439" stroke-miterlimit="10" stroke-linecap="round" stroke-linejoin="round"/>
        <path d="M78.0847 174.769C76.6834 175.68 75.5623 177.151 75.0018 179.183C72.6196 176.871 71.7087 173.508 71.3584 171.896C71.5686 171.756 71.8489 171.546 72.0591 171.336L76.8235 174.068L78.0847 174.769Z" fill="#58595B" stroke="#231F20" stroke-width="0.0802954" stroke-miterlimit="10" stroke-linecap="round" stroke-linejoin="round"/>
        <path d="M83.9001 201.324L83.4097 201.604C83.5498 201.464 83.6899 201.394 83.76 201.184C83.8301 201.254 83.8301 201.324 83.9001 201.324Z" fill="#F1F2F2" stroke="#231F20" stroke-width="0.201439" stroke-miterlimit="10" stroke-linecap="round" stroke-linejoin="round"/>
        <path d="M81.5879 183.457C81.728 183.387 81.8681 183.387 81.9382 183.387C81.7981 183.527 81.728 183.667 81.5879 183.878L81.1675 183.597C81.3076 183.527 81.4477 183.457 81.5879 183.457Z" fill="#F1F2F2" stroke="#231F20" stroke-width="0.201439" stroke-miterlimit="10" stroke-linecap="round" stroke-linejoin="round"/>
        <path d="M91.9575 203.286L92.518 202.935C92.3078 203.076 92.1677 203.216 91.9575 203.286Z" fill="#F1F2F2" stroke="#231F20" stroke-width="0.201439" stroke-miterlimit="10" stroke-linecap="round" stroke-linejoin="round"/>
        <path d="M97.3525 206.999C97.1423 207.139 96.9321 207.209 96.792 207.35L97.3525 206.999Z" fill="#F1F2F2" stroke="#231F20" stroke-width="0.201439" stroke-miterlimit="10" stroke-linecap="round" stroke-linejoin="round"/>
        <path d="M97.2124 185.629C97.4226 185.98 97.6328 186.4 97.843 186.75C97.6328 186.4 97.4226 186.05 97.2124 185.629Z" fill="#F1F2F2" stroke="#231F20" stroke-width="0.201439" stroke-miterlimit="10" stroke-linecap="round" stroke-linejoin="round"/>
        <path d="M98.0532 187.171C98.2634 187.521 98.4036 187.941 98.6138 188.362C98.4036 187.941 98.1934 187.591 98.0532 187.171Z" fill="#F1F2F2" stroke="#231F20" stroke-width="0.201439" stroke-miterlimit="10" stroke-linecap="round" stroke-linejoin="round"/>
        <path d="M36.3252 148.985L35.7646 149.335C35.9748 149.195 36.185 149.055 36.3252 148.985Z" fill="#F1F2F2" stroke="#231F20" stroke-width="0.201439" stroke-miterlimit="10" stroke-linecap="round" stroke-linejoin="round"/>
        <path d="M55.9437 155.221L55.8036 158.023L55.3131 166.011L51.5295 163.418C50.7588 158.093 47.0453 152.208 42.6312 149.615C41.1598 148.775 39.8286 148.354 38.5674 148.354C37.7266 148.354 37.0259 148.564 36.3253 148.915C36.1151 148.985 35.975 149.125 35.7648 149.265L34.2233 150.316L34.0832 150.386C32.5417 151.367 31.6309 153.329 31.6309 156.131C31.6309 156.972 31.7009 157.813 31.9111 158.724L31.2805 159.074L30.9302 159.284C30.1595 159.845 29.669 160.896 29.669 162.367C29.669 165.45 31.8411 169.234 34.5736 170.845L51.5996 182.406C49.0072 182.686 45.9944 181.986 42.7713 180.094C33.1023 174.559 25.395 161.176 25.395 150.176C25.395 145.061 27.0766 141.348 29.8092 139.456L31.2805 138.615C34.0131 137.424 37.5865 137.634 41.5101 139.596C41.9305 139.806 42.2809 140.016 42.7013 140.227C45.2236 141.698 47.5358 143.66 49.7078 145.972C49.7779 146.112 49.7779 146.252 49.848 146.462V146.182C52.2302 148.775 54.3322 151.857 55.9437 155.08C55.9437 155.08 55.9437 155.151 55.9437 155.221Z" fill="#231F20" stroke="#231F20" stroke-width="0.201439" stroke-miterlimit="10" stroke-linecap="round" stroke-linejoin="round"/>
        <path d="M31.2109 159.074L31.8415 158.724C31.8415 158.794 31.8415 158.794 31.8415 158.864C31.6313 158.934 31.4211 159.004 31.2109 159.074Z" fill="#F1F2F2" stroke="#231F20" stroke-width="0.201439" stroke-miterlimit="10" stroke-linecap="round" stroke-linejoin="round"/>
        <path d="M49.7778 146.112V146.392C49.7078 146.252 49.6377 146.112 49.6377 145.902C49.7078 145.972 49.7078 146.042 49.7778 146.112Z" fill="#F1F2F2" stroke="#231F20" stroke-width="0.201439" stroke-miterlimit="10" stroke-linecap="round" stroke-linejoin="round"/>
        <path d="M51.5296 163.418L49.2175 161.807C48.4467 158.023 45.7842 154.1 42.6313 152.278H42.5612C41.9306 151.787 41.3 151.297 40.5994 150.876C39.1981 150.106 37.9369 149.685 36.7458 149.615C36.1852 149.615 35.6247 149.685 35.1342 149.826C34.7839 149.896 34.4336 150.036 34.1533 150.246L35.7648 149.265L36.3254 148.915C36.956 148.564 37.7267 148.354 38.5675 148.354C39.7586 148.354 41.1599 148.775 42.6313 149.615C47.1155 152.208 50.829 158.093 51.5296 163.418Z" fill="url(#paint0_linear_1_19911)" stroke="#231F20" stroke-width="0.0802954" stroke-miterlimit="10" stroke-linecap="round" stroke-linejoin="round"/>
        <path d="M36.3252 148.985L35.7646 149.335C35.9748 149.195 36.185 149.055 36.3252 148.985Z" fill="#F1F2F2" stroke="#231F20" stroke-width="0.201439" stroke-miterlimit="10" stroke-linecap="round" stroke-linejoin="round"/>
        <path d="M75.6326 164.189C75.5626 164.469 75.5626 164.749 75.4925 165.03C74.932 167.762 73.6708 169.864 71.9892 171.266C71.779 171.476 71.4988 171.616 71.2886 171.826C71.1484 171.266 71.1484 170.845 71.1484 170.845L71.5688 163.068L71.709 161.106L75.6326 164.189Z" fill="url(#paint1_linear_1_19911)" stroke="#231F20" stroke-width="0.201439" stroke-miterlimit="10" stroke-linecap="round" stroke-linejoin="round"/>
        <path d="M106.111 201.394C106.111 201.604 106.111 201.744 106.111 201.955C106.111 202.235 106.111 202.585 106.041 202.865C106.041 203.006 106.041 203.216 105.971 203.356C105.971 203.426 105.971 203.496 105.971 203.566C105.971 203.706 105.971 203.846 105.901 203.986C105.901 204.056 105.901 204.197 105.831 204.267C105.831 204.477 105.761 204.617 105.761 204.827C105.761 204.967 105.69 205.178 105.69 205.318C105.69 205.458 105.62 205.528 105.62 205.668C105.55 205.948 105.48 206.229 105.41 206.439C105.41 206.509 105.34 206.649 105.34 206.719C105.27 206.929 105.2 207.139 105.13 207.28C105.13 207.35 105.06 207.42 105.06 207.49C104.99 207.63 104.99 207.7 104.92 207.84C104.92 207.91 104.85 207.98 104.85 208.05C104.85 208.12 104.78 208.19 104.78 208.26C104.78 208.331 104.71 208.401 104.639 208.541C104.639 208.611 104.569 208.681 104.569 208.681C104.499 208.821 104.429 209.031 104.289 209.171C104.219 209.241 104.219 209.311 104.149 209.452C104.149 209.522 104.079 209.522 104.079 209.592C104.079 209.662 104.009 209.662 104.009 209.732C103.939 209.802 103.939 209.872 103.869 209.942C103.799 210.082 103.729 210.152 103.659 210.292L103.588 210.362C103.518 210.432 103.448 210.573 103.378 210.643C103.308 210.713 103.238 210.853 103.168 210.923C102.958 211.203 102.748 211.413 102.467 211.624C102.397 211.694 102.327 211.764 102.187 211.834C102.047 211.974 101.837 212.114 101.697 212.184C98.5438 214.426 93.9194 214.356 88.8046 211.413L42.2809 184.578C30.5099 177.782 20.981 161.316 20.981 147.724C20.981 140.507 23.7135 135.532 28.0576 133.5C28.2678 133.43 28.4079 133.36 28.6181 133.29C28.9685 133.15 29.3888 133.01 29.7392 132.94C29.9494 132.87 30.1596 132.87 30.2997 132.8C30.3698 132.8 30.4398 132.8 30.5099 132.73C30.58 132.73 30.65 132.73 30.7201 132.659C31.0704 132.589 31.3507 132.589 31.701 132.519C32.1915 132.449 32.6819 132.449 33.2425 132.519C33.3125 132.519 33.4527 132.519 33.5227 132.519C33.5928 132.519 33.7329 132.519 33.803 132.519C34.0132 132.519 34.1533 132.519 34.3635 132.589C34.5737 132.589 34.7138 132.659 34.924 132.659C34.9941 132.659 35.0642 132.659 35.0642 132.659C35.2043 132.659 35.3444 132.73 35.4145 132.73C35.5546 132.73 35.6948 132.8 35.8349 132.8C35.975 132.8 36.1152 132.87 36.2553 132.87C36.3954 132.87 36.5356 132.94 36.6757 133.01L36.8859 133.08C36.956 133.08 37.026 133.15 37.0961 133.15C37.3763 133.22 37.6566 133.29 37.9369 133.43C38.077 133.5 38.2171 133.5 38.3573 133.57C38.4974 133.64 38.6375 133.64 38.7777 133.71C38.9178 133.781 39.0579 133.851 39.1981 133.851H39.2681C39.6185 133.991 39.9688 134.131 40.3191 134.341C40.3892 134.411 40.5293 134.411 40.5994 134.481C40.7395 134.551 40.8796 134.621 41.0198 134.691C41.1599 134.761 41.3 134.832 41.4402 134.902C41.5803 134.972 41.7204 135.042 41.8606 135.112C42.0007 135.182 42.1408 135.252 42.2809 135.322C43.402 135.953 44.453 136.653 45.504 137.424C46.1346 137.914 46.7652 138.405 47.3958 138.965L48.1665 139.596L49.778 140.857L57.9757 147.233L57.9056 147.303C57.7655 147.373 57.6954 147.443 57.5553 147.513C57.0648 147.864 56.6444 148.424 56.4342 149.125L55.5234 148.424L49.778 143.94L48.7971 143.169L46.6951 141.488C46.4849 141.278 46.2046 141.067 45.9944 140.927C44.8033 139.946 43.5421 139.106 42.2809 138.335C40.0388 137.004 37.7967 136.233 35.8349 135.953C28.6882 134.902 23.5734 139.876 23.5734 149.195C23.5734 161.106 31.9813 175.68 42.2809 181.635L52.5106 187.451L79.3457 202.795L88.7346 208.19C95.4609 212.044 101.066 210.082 102.748 203.916C103.098 202.725 103.238 201.324 103.238 199.853C103.238 197.19 102.678 194.317 101.767 191.515C101.276 190.113 100.646 188.712 100.015 187.311C97.6329 182.616 94.1997 178.342 90.276 175.61L84.5306 171.126L81.8681 169.024L79.2056 166.922L75.7023 164.189L71.7786 161.106L71.9888 158.023L75.9826 161.106L87.053 169.654L91.5372 173.087L91.7474 173.228C91.8875 173.368 92.0276 173.438 92.2378 173.578C92.378 173.718 92.5181 173.858 92.7283 173.928C93.3589 174.419 93.9194 174.979 94.55 175.54C94.6901 175.68 94.8303 175.82 94.9704 175.96C95.2507 176.24 95.5309 176.521 95.8112 176.871C95.9513 177.011 96.0915 177.151 96.2316 177.361C96.3717 177.502 96.5119 177.642 96.652 177.852C96.7921 177.992 96.9322 178.132 97.0724 178.342C97.3526 178.623 97.6329 178.973 97.8431 179.323C97.9832 179.463 98.1234 179.674 98.2635 179.814C98.5438 180.164 98.754 180.514 99.0342 180.795C99.1043 180.935 99.2444 181.075 99.3145 181.215C99.3846 181.285 99.3845 181.355 99.4546 181.425C99.5947 181.635 99.7349 181.846 99.875 182.056C99.875 182.126 99.9451 182.126 99.9451 182.196C100.085 182.406 100.225 182.616 100.365 182.897C100.506 183.107 100.576 183.247 100.716 183.457C100.996 183.878 101.206 184.298 101.487 184.718C101.627 184.929 101.767 185.209 101.837 185.419C101.977 185.629 102.117 185.909 102.187 186.12C102.257 186.26 102.327 186.4 102.397 186.47C102.538 186.75 102.678 187.101 102.818 187.381C102.958 187.661 103.028 187.941 103.168 188.152C103.238 188.292 103.308 188.432 103.378 188.642C103.448 188.782 103.518 188.922 103.588 189.132C104.149 190.464 104.639 191.795 104.99 193.126C105.69 195.999 106.111 198.802 106.111 201.394Z" fill="#231F20" stroke="#231F20" stroke-width="0.201439" stroke-miterlimit="10" stroke-linecap="round" stroke-linejoin="round"/>
        <path d="M56.4346 149.125C56.3645 149.405 56.2945 149.755 56.2945 150.106V150.316L56.0142 154.94L55.8741 154.87C54.2626 151.647 52.1606 148.564 49.7784 145.972C49.7083 145.902 49.7083 145.832 49.6382 145.832C47.5363 143.52 45.154 141.558 42.6317 140.086C42.2113 139.876 41.8609 139.666 41.4405 139.456C37.5169 137.494 34.0136 137.284 31.2109 138.475L35.7652 135.882C37.7971 136.163 39.9692 137.003 42.2113 138.265C43.4724 138.965 44.7336 139.876 45.9247 140.857C46.1349 141.067 46.4152 141.207 46.6254 141.418L48.7274 143.099L49.7083 143.87L55.4537 148.354L56.4346 149.125Z" fill="url(#paint2_linear_1_19911)" stroke="#231F20" stroke-width="0.201439" stroke-miterlimit="10" stroke-linecap="round" stroke-linejoin="round"/>
        <path d="M56.0139 155.08V155.221C56.0139 155.151 55.9438 155.08 55.9438 155.01L56.0139 155.08Z" fill="#F1F2F2" stroke="#231F20" stroke-width="0.201439" stroke-miterlimit="10" stroke-linecap="round" stroke-linejoin="round"/>
        <path d="M57.906 147.303L57.5557 147.513C57.6958 147.443 57.7659 147.373 57.906 147.303Z" fill="#F1F2F2" stroke="#231F20" stroke-width="0.201439" stroke-miterlimit="10" stroke-linecap="round" stroke-linejoin="round"/>
        <path d="M57.9764 147.303H57.9058H57.9764Z" fill="#F1F2F2" stroke="#231F20" stroke-width="0.201439" stroke-miterlimit="10" stroke-linecap="round" stroke-linejoin="round"/>
        <path d="M81.5879 183.457C81.728 183.387 81.8681 183.387 81.9382 183.387C81.7981 183.527 81.728 183.667 81.5879 183.878L81.1675 183.597C81.3076 183.527 81.4477 183.457 81.5879 183.457Z" fill="#F1F2F2" stroke="#231F20" stroke-width="0.201439" stroke-miterlimit="10" stroke-linecap="round" stroke-linejoin="round"/>
        <path d="M35.8346 156.272C35.8346 156.342 35.8346 156.412 35.8346 156.552L33.8027 157.673C33.8027 157.603 33.8027 157.533 33.8027 157.463C33.8027 155.361 34.5034 153.889 35.6945 153.119L35.8346 153.049C36.0448 152.909 36.3251 152.838 36.5353 152.768C36.6754 152.698 36.8156 152.698 36.8856 152.698C36.185 153.469 35.8346 154.66 35.8346 156.272Z" fill="#49443A" stroke="#231F20" stroke-width="0.0802954" stroke-miterlimit="10" stroke-linecap="round" stroke-linejoin="round"/>
        <path d="M81.5879 183.457C81.728 183.387 81.8681 183.387 81.9382 183.387C81.7981 183.527 81.728 183.667 81.5879 183.878L81.1675 183.597C81.3076 183.527 81.4477 183.457 81.5879 183.457Z" fill="#F1F2F2" stroke="#231F20" stroke-width="0.201439" stroke-miterlimit="10" stroke-linecap="round" stroke-linejoin="round"/>
        <path d="M81.5879 183.457C81.728 183.387 81.8681 183.387 81.9382 183.387C81.7981 183.527 81.728 183.667 81.5879 183.878L81.1675 183.597C81.3076 183.527 81.4477 183.457 81.5879 183.457Z" fill="#F1F2F2" stroke="#231F20" stroke-width="0.201439" stroke-miterlimit="10" stroke-linecap="round" stroke-linejoin="round"/>
        <path d="M49.2174 161.877L48.797 161.597L46.0644 159.705C44.8032 157.112 42.8414 154.8 40.6693 153.469C39.6184 152.838 38.6374 152.558 37.7966 152.558C37.5164 152.558 37.2361 152.558 36.9559 152.628C36.8157 152.628 36.6756 152.698 36.6055 152.698C36.3253 152.768 36.1151 152.908 35.9049 152.979L35.7647 153.049C34.6437 153.819 33.873 155.291 33.873 157.393C33.873 157.463 33.873 157.533 33.873 157.603L31.9111 158.724C31.771 157.883 31.6309 156.972 31.6309 156.131C31.6309 153.329 32.5417 151.367 34.0832 150.386L34.2233 150.316C34.5036 150.106 34.8539 149.966 35.2042 149.896C35.6947 149.755 36.2552 149.685 36.8157 149.685C38.0068 149.755 39.268 150.106 40.6693 150.947C41.37 151.367 42.0006 151.787 42.6312 152.348H42.7012C45.7841 154.1 48.4466 158.093 49.2174 161.877Z" fill="#928874" stroke="#231F20" stroke-width="0.0802954" stroke-miterlimit="10"/>
        <path d="M46.0646 159.705L41.4402 156.622C41.16 156.412 40.9498 156.272 40.6695 156.061C39.1981 155.221 37.7968 155.221 36.956 155.921L35.835 156.552C35.835 156.482 35.835 156.412 35.835 156.272C35.835 154.73 36.2554 153.469 36.8859 152.628C37.1662 152.558 37.4465 152.558 37.7267 152.558C38.5675 152.558 39.5484 152.908 40.5994 153.469C42.8415 154.8 44.8034 157.112 46.0646 159.705Z" fill="#6E6657" stroke="#231F20" stroke-width="0.0802954" stroke-miterlimit="10" stroke-linecap="round" stroke-linejoin="round"/>
        <path d="M92.518 202.935C92.3078 203.076 92.1677 203.216 91.9575 203.286L92.518 202.935Z" fill="#F1F2F2" stroke="#231F20" stroke-width="0.201439" stroke-miterlimit="10" stroke-linecap="round" stroke-linejoin="round"/>
        <path d="M100.996 198.521C100.996 202.585 99.5945 205.528 97.3524 206.929L96.7919 207.279C94.4097 208.471 91.2567 208.19 87.7534 206.158C85.9317 205.107 84.1801 203.706 82.6386 202.025C82.9189 201.954 83.1992 201.814 83.4794 201.604L83.9699 201.324C84.5304 201.814 85.161 202.235 85.7916 202.585C88.1738 203.986 90.4159 204.127 92.0274 203.286C92.2376 203.216 92.4478 203.076 92.588 202.935L94.0594 202.025C95.7409 201.114 96.7919 199.082 96.7919 196.069C96.7919 190.253 92.7281 183.247 87.7534 180.374C85.3011 178.973 83.1291 178.833 81.5176 179.674C81.3074 179.814 81.0972 179.884 80.9571 180.024L79.6959 180.865C79.4156 181.005 79.1353 181.215 78.8551 181.425C78.785 181.495 78.6449 181.565 78.5748 181.705L76.3327 180.164C75.9123 179.884 75.4919 179.533 75.1416 179.183C75.7722 177.151 76.8232 175.68 78.2245 174.769C78.4347 174.629 78.6449 174.489 78.8551 174.419C81.2373 173.298 84.3903 173.578 87.8235 175.54C88.8745 176.17 89.9255 176.871 90.9064 177.712C91.1166 177.852 91.3268 178.062 91.4669 178.202C91.6071 178.342 91.7472 178.482 91.8873 178.623C91.9574 178.693 92.0975 178.833 92.1676 178.903C92.2376 178.973 92.3778 179.113 92.4478 179.183C92.5179 179.253 92.658 179.393 92.7281 179.463C92.7982 179.533 92.9383 179.674 93.0084 179.814C93.0784 179.884 93.1485 180.024 93.2886 180.094C93.3587 180.234 93.4988 180.304 93.5689 180.444C93.7791 180.654 93.9893 180.935 94.1294 181.145C94.1995 181.215 94.2696 181.285 94.2696 181.355C94.4097 181.565 94.6199 181.776 94.76 181.986C94.9001 182.196 95.1103 182.406 95.2505 182.616C95.3906 182.756 95.4607 182.897 95.6008 183.037C95.6709 183.177 95.811 183.317 95.8811 183.457C95.9511 183.597 96.0913 183.737 96.1613 183.948C96.2314 184.088 96.3715 184.228 96.4416 184.368C96.5117 184.438 96.5117 184.508 96.5817 184.648C96.6518 184.788 96.7219 184.928 96.7919 185.069C96.9321 185.279 97.0021 185.419 97.1423 185.629C97.3524 185.979 97.5626 186.4 97.7728 186.75C97.8429 186.89 97.913 187.03 97.983 187.171C98.1932 187.521 98.3334 187.941 98.5436 188.362C98.6136 188.502 98.6837 188.642 98.6837 188.782C98.7538 188.922 98.7538 188.992 98.8238 189.132C98.964 189.413 99.034 189.623 99.1041 189.903C99.1742 190.043 99.2442 190.253 99.3143 190.394C99.3143 190.464 99.3844 190.534 99.3844 190.604C99.4544 190.814 99.5245 190.954 99.5946 191.164C99.5946 191.234 99.6646 191.304 99.6646 191.375C99.7347 191.585 99.8047 191.725 99.8047 191.935C99.8748 192.145 99.9449 192.355 99.9449 192.566C100.015 192.706 100.015 192.916 100.085 193.056C100.085 193.196 100.155 193.266 100.155 193.406C100.155 193.477 100.225 193.617 100.225 193.687C100.225 193.757 100.295 193.897 100.295 193.967C100.365 194.107 100.365 194.317 100.435 194.457C100.435 194.598 100.505 194.808 100.505 194.948C100.856 196.139 100.996 197.33 100.996 198.521Z" fill="#231F20" stroke="#231F20" stroke-width="0.201439" stroke-miterlimit="10" stroke-linecap="round" stroke-linejoin="round"/>
        <path d="M83.9001 201.324L83.4097 201.604C83.5498 201.464 83.6899 201.394 83.76 201.184C83.8301 201.254 83.8301 201.324 83.9001 201.324Z" fill="#F1F2F2" stroke="#231F20" stroke-width="0.201439" stroke-miterlimit="10" stroke-linecap="round" stroke-linejoin="round"/>
        <path d="M96.7223 196.069C96.7223 199.012 95.6713 201.044 93.9897 202.025L92.5183 202.935C92.7285 202.795 92.9387 202.585 93.1489 202.375C93.4992 202.025 93.7795 201.604 93.9897 201.184C94.4802 200.203 94.7604 198.872 94.7604 197.4C94.7604 197.26 94.7604 197.12 94.7604 196.98C94.7604 196.91 94.7604 196.91 94.7604 196.84C94.7604 196.77 94.7604 196.77 94.7604 196.7V196.629V196.559C94.7604 196.419 94.7604 196.349 94.7604 196.209C94.7604 196.069 94.7604 195.929 94.6904 195.789C94.6904 195.719 94.6904 195.649 94.6904 195.508C94.6904 195.438 94.6904 195.298 94.6203 195.228C94.6203 195.158 94.6203 195.088 94.5502 195.018C94.5502 194.878 94.4802 194.808 94.4802 194.668C94.4802 194.598 94.4802 194.528 94.4101 194.457C94.4101 194.317 94.34 194.247 94.34 194.107C94.34 194.037 94.34 194.037 94.34 193.967C94.34 193.827 94.27 193.687 94.27 193.547C94.27 193.477 94.1999 193.336 94.1999 193.266C94.1999 193.126 94.1298 193.056 94.1298 192.916C94.0598 192.776 94.0598 192.636 93.9897 192.496C93.7795 191.935 93.5693 191.375 93.3591 190.814C93.289 190.674 93.219 190.534 93.219 190.394C93.219 190.394 93.219 190.394 93.219 190.324C93.1489 190.183 93.0788 190.043 93.0788 189.973C93.0088 189.833 92.9387 189.763 92.8686 189.623C92.7986 189.553 92.7986 189.413 92.7285 189.343C92.7285 189.343 92.7285 189.273 92.6585 189.273C92.5884 189.203 92.5183 189.062 92.5183 188.922C92.4483 188.782 92.3782 188.712 92.3081 188.572C92.2381 188.432 92.168 188.362 92.0979 188.222C92.0279 188.081 91.9578 188.011 91.8877 187.871C91.7476 187.661 91.6075 187.381 91.4673 187.171C91.3272 186.96 91.1871 186.75 91.0469 186.54C90.9769 186.4 90.8367 186.33 90.7667 186.19C90.6966 186.05 90.5565 185.98 90.4864 185.839C90.4164 185.699 90.2762 185.629 90.2062 185.489C90.1361 185.349 89.996 185.279 89.9259 185.139C89.7157 184.929 89.5055 184.718 89.3654 184.508C89.2953 184.438 89.1552 184.298 89.0851 184.228C89.015 184.158 88.8749 184.018 88.8048 183.948C88.7348 183.878 88.5946 183.737 88.5246 183.667C88.4545 183.597 88.3144 183.457 88.2443 183.387C88.1042 183.317 88.0341 183.177 87.894 183.107C87.8239 183.037 87.6838 182.897 87.5437 182.827C87.4736 182.756 87.4035 182.686 87.3335 182.686C87.2634 182.616 87.2634 182.616 87.1933 182.546C87.1233 182.476 87.0532 182.406 86.9831 182.406C86.9131 182.336 86.843 182.266 86.7029 182.266C86.6328 182.196 86.5627 182.126 86.4226 182.126C86.3525 182.126 86.3525 182.056 86.2825 182.056C86.1423 181.986 86.0022 181.916 85.8621 181.846C84.4608 181.075 83.1996 180.655 82.0085 180.584C81.4479 180.584 80.8874 180.654 80.3969 180.795C80.1867 180.865 79.9065 180.935 79.6963 181.075L80.9575 180.234C81.1677 180.094 81.3078 179.954 81.518 179.884C83.1295 179.043 85.3716 179.183 87.7539 180.584C92.7285 183.317 96.7223 190.324 96.7223 196.069Z" fill="url(#paint3_linear_1_19911)" stroke="#231F20" stroke-width="0.0802954" stroke-miterlimit="10" stroke-linecap="round" stroke-linejoin="round"/>
        <path d="M94.7601 197.33C94.7601 198.872 94.4799 200.133 93.9894 201.114C93.7792 201.604 93.499 201.954 93.1486 202.305C92.9384 202.515 92.7282 202.725 92.518 202.865L91.9575 203.216C90.346 204.056 88.1039 203.916 85.7217 202.515C85.0911 202.165 84.5305 201.744 83.8999 201.254L86.0019 200.063C87.6835 200.973 89.2249 201.044 90.4161 200.413L90.8365 200.133C90.9766 199.993 91.1868 199.852 91.3269 199.712C91.397 199.642 91.397 199.642 91.467 199.572C91.6772 199.362 91.8174 199.082 91.9575 198.801C92.3078 198.031 92.518 197.05 92.518 195.929C92.518 191.585 89.4351 186.26 85.7217 184.088C84.6707 183.457 83.6898 183.177 82.849 183.177C82.5687 183.177 82.2884 183.177 82.0082 183.247C81.868 183.247 81.7279 183.317 81.6578 183.317C81.5177 183.317 81.4476 183.387 81.3075 183.457L78.5049 181.565C78.5749 181.495 78.7151 181.355 78.7851 181.285C79.0654 181.075 79.3457 180.935 79.6259 180.724C79.8361 180.654 80.0463 180.514 80.3266 180.444C80.8171 180.304 81.3776 180.234 81.9381 180.234C83.1292 180.304 84.3904 180.654 85.7917 181.495C85.9319 181.565 86.072 181.635 86.2121 181.705C86.2822 181.705 86.2822 181.775 86.3523 181.775C86.4223 181.846 86.4924 181.916 86.6325 181.916C86.7026 181.986 86.7726 182.056 86.9128 182.056C86.9828 182.126 87.0529 182.126 87.123 182.196C87.193 182.266 87.193 182.266 87.2631 182.336C87.3332 182.406 87.4032 182.476 87.4733 182.476C87.6134 182.546 87.6835 182.616 87.8236 182.756C87.9638 182.826 88.0338 182.967 88.174 183.037C88.244 183.107 88.3842 183.247 88.4542 183.317C88.5243 183.387 88.6644 183.527 88.7345 183.597C88.8046 183.667 88.9447 183.807 89.0147 183.877C89.0848 183.947 89.2249 184.088 89.295 184.158C89.5052 184.368 89.7154 184.578 89.8555 184.788C89.9256 184.928 90.0657 184.998 90.1358 185.139C90.2059 185.279 90.346 185.349 90.4161 185.489C90.4861 185.629 90.6263 185.699 90.6963 185.839C90.7664 185.979 90.9065 186.049 90.9766 186.19C91.1167 186.4 91.2569 186.61 91.397 186.82C91.5371 187.03 91.6772 187.241 91.8174 187.521C91.8874 187.661 91.9575 187.731 92.0276 187.871C92.0976 188.011 92.1677 188.081 92.2378 188.222C92.3078 188.362 92.3779 188.432 92.448 188.572C92.518 188.642 92.5881 188.782 92.5881 188.922C92.5881 188.922 92.5881 188.992 92.6582 188.992C92.7282 189.062 92.7282 189.202 92.7983 189.272C92.8684 189.413 92.9384 189.483 93.0085 189.623C93.0786 189.763 93.1486 189.903 93.1486 189.973C93.1486 189.973 93.1486 189.973 93.1486 190.043C93.2187 190.183 93.2888 190.323 93.2888 190.464C93.499 191.024 93.7092 191.585 93.9193 192.145C93.9894 192.285 93.9894 192.425 94.0595 192.566C94.0595 192.706 94.1295 192.776 94.1295 192.916C94.1295 192.986 94.1996 193.126 94.1996 193.196C94.2697 193.336 94.2697 193.476 94.2697 193.617C94.2697 193.687 94.2697 193.687 94.2697 193.757C94.2697 193.897 94.3397 193.967 94.3397 194.107C94.3397 194.177 94.3397 194.247 94.4098 194.317C94.4098 194.457 94.4799 194.527 94.4799 194.668C94.4799 194.738 94.4799 194.808 94.5499 194.878C94.5499 194.948 94.5499 195.088 94.62 195.158C94.62 195.228 94.62 195.298 94.62 195.438C94.62 195.578 94.62 195.719 94.6901 195.859C94.6901 195.999 94.6901 196.069 94.6901 196.209V196.279V196.349C94.6901 196.419 94.6901 196.419 94.6901 196.489C94.6901 196.559 94.6901 196.559 94.6901 196.629C94.7601 197.05 94.7601 197.19 94.7601 197.33Z" fill="#928874" stroke="#231F20" stroke-width="0.0802954" stroke-miterlimit="10"/>
        <path d="M92.5181 196.069C92.5181 197.19 92.308 198.171 91.9576 198.942C91.8175 199.222 91.6774 199.502 91.4672 199.712C90.4862 199.923 89.3652 199.712 88.104 199.012L89.0149 198.521L89.5754 198.171C90.276 197.61 90.7665 196.559 90.7665 195.158C90.7665 192.075 88.5945 188.222 85.8619 186.68L81.5879 183.807C81.658 183.667 81.7981 183.457 81.9382 183.317C82.2185 183.247 82.4987 183.247 82.779 183.247C83.6899 183.247 84.6708 183.597 85.6517 184.158C89.4353 186.4 92.5181 191.725 92.5181 196.069Z" fill="#6E6657" stroke="#231F20" stroke-width="0.0802954" stroke-miterlimit="10" stroke-linecap="round" stroke-linejoin="round"/>
        <path d="M81.5879 183.457C81.728 183.387 81.8681 183.387 81.9382 183.387C81.7981 183.527 81.728 183.667 81.5879 183.878L81.1675 183.597C81.3076 183.527 81.4477 183.457 81.5879 183.457Z" fill="#F1F2F2" stroke="#231F20" stroke-width="0.201439" stroke-miterlimit="10" stroke-linecap="round" stroke-linejoin="round"/>
        <path d="M91.4671 199.712C91.397 199.782 91.397 199.782 91.3269 199.853C91.1868 199.993 91.0467 200.133 90.8365 200.273L90.4161 200.553C89.225 201.184 87.6835 201.044 86.002 200.203L88.1039 199.082C89.295 199.642 90.4862 199.853 91.4671 199.712Z" fill="#49443A" stroke="#231F20" stroke-width="0.0802954" stroke-miterlimit="10" stroke-linecap="round" stroke-linejoin="round"/>
        <path d="M91.9575 203.286L92.518 202.935C92.3078 203.076 92.1677 203.216 91.9575 203.286Z" fill="#F1F2F2" stroke="#231F20" stroke-width="0.201439" stroke-miterlimit="10" stroke-linecap="round" stroke-linejoin="round"/>
        <path d="M98.5439 188.362C98.4038 187.941 98.1936 187.591 97.9834 187.171C98.1936 187.591 98.4038 187.941 98.5439 188.362Z" fill="#F1F2F2" stroke="#231F20" stroke-width="0.201439" stroke-miterlimit="10" stroke-linecap="round" stroke-linejoin="round"/>
        <path d="M97.3525 206.999C97.1423 207.139 96.9321 207.209 96.792 207.35L97.3525 206.999Z" fill="#F1F2F2" stroke="#231F20" stroke-width="0.201439" stroke-miterlimit="10" stroke-linecap="round" stroke-linejoin="round"/>
        <path d="M103.308 199.782C103.308 201.324 103.168 202.655 102.817 203.846L97.3523 206.929C99.5944 205.458 100.996 202.585 100.996 198.521C100.996 197.33 100.856 196.139 100.645 194.878C100.645 194.738 100.575 194.527 100.575 194.387C100.575 194.247 100.505 194.037 100.435 193.897C100.435 193.827 100.365 193.757 100.365 193.617C100.365 193.547 100.295 193.406 100.295 193.336C100.295 193.266 100.225 193.126 100.225 192.986C100.155 192.846 100.155 192.636 100.085 192.496C100.015 192.285 99.9448 192.075 99.9448 191.865C99.8747 191.655 99.8046 191.515 99.8046 191.304C99.8046 191.234 99.7346 191.164 99.7346 191.094C99.6645 190.884 99.5944 190.744 99.5244 190.534C99.5244 190.464 99.4543 190.394 99.4543 190.324C99.3843 190.183 99.3142 189.973 99.2441 189.833C99.1741 189.553 99.0339 189.343 98.9639 189.062C98.8938 188.922 98.8938 188.852 98.8237 188.712C98.7537 188.572 98.6836 188.432 98.6836 188.292C98.5435 187.871 98.3333 187.521 98.1231 187.1C98.053 186.96 97.9829 186.82 97.9129 186.68C97.7027 186.33 97.4925 185.909 97.2823 185.559C97.2122 185.349 97.0721 185.209 96.932 184.999C96.8619 184.858 96.7918 184.718 96.7218 184.578C96.6517 184.508 96.6517 184.438 96.5816 184.298C96.5116 184.158 96.3714 184.018 96.3014 183.877C96.2313 183.737 96.0912 183.597 96.0211 183.387C95.951 183.247 95.8109 183.107 95.7408 182.967C95.6708 182.826 95.5306 182.686 95.3905 182.546C95.2504 182.336 95.0402 182.126 94.9 181.916C94.7599 181.705 94.5497 181.495 94.4096 181.285C94.3395 181.215 94.3395 181.145 94.2694 181.075C94.0593 180.865 93.9191 180.584 93.7089 180.374C93.6389 180.234 93.4987 180.164 93.4287 180.024C93.3586 179.954 93.2885 179.814 93.1484 179.744C93.0783 179.603 92.9382 179.533 92.8681 179.393C92.7981 179.323 92.6579 179.183 92.5879 179.113C92.5178 179.043 92.3777 178.903 92.3076 178.833C92.2375 178.763 92.0974 178.623 92.0273 178.552C91.8872 178.412 91.7471 178.272 91.607 178.132C91.3968 177.922 91.1866 177.782 91.0464 177.642C90.0655 176.801 89.0145 176.03 87.9635 175.47C84.5303 173.438 81.3774 173.157 78.9951 174.349L84.8106 171.055L90.556 175.54C94.4797 178.272 97.9829 182.546 100.295 187.241C100.996 188.642 101.556 190.043 102.047 191.445C102.747 194.247 103.308 197.12 103.308 199.782Z" fill="url(#paint4_linear_1_19911)" stroke="#231F20" stroke-width="0.201439" stroke-miterlimit="10" stroke-linecap="round" stroke-linejoin="round"/>
        <path d="M98.5439 188.362C98.4038 187.941 98.1936 187.591 97.9834 187.171C98.1936 187.591 98.4038 187.941 98.5439 188.362Z" fill="#F1F2F2" stroke="#231F20" stroke-width="0.201439" stroke-miterlimit="10" stroke-linecap="round" stroke-linejoin="round"/>
        <path d="M87.8938 169.164V169.444L87.6836 169.304L87.8938 169.164Z" fill="#F1F2F2" stroke="#231F20" stroke-width="0.201439" stroke-miterlimit="10" stroke-linecap="round" stroke-linejoin="round"/>
        <path d="M29.7392 132.94C29.3188 133.01 28.9685 133.15 28.6182 133.29C28.9685 133.15 29.3188 133.01 29.7392 132.94Z" fill="#F1F2F2" stroke="#231F20" stroke-width="0.201439" stroke-miterlimit="10" stroke-linecap="round" stroke-linejoin="round"/>
        <path d="M49.778 140.016L58.6764 146.883L57.9757 147.303L49.778 140.927L48.1665 139.666L47.3958 139.035C46.7652 138.475 46.1346 137.984 45.504 137.494C44.453 136.723 43.402 136.023 42.281 135.392C42.1408 135.322 42.0007 135.252 41.8606 135.182C41.7204 135.112 41.5803 135.042 41.4402 134.972C41.3 134.902 41.1599 134.831 41.0198 134.761C40.8797 134.691 40.7395 134.621 40.5994 134.551C40.5293 134.481 40.3892 134.481 40.3191 134.411C39.9688 134.271 39.6185 134.061 39.2681 133.921H39.1981C39.0579 133.851 38.9178 133.78 38.7777 133.78C38.6375 133.71 38.4974 133.71 38.3573 133.64C38.2172 133.57 38.077 133.57 37.9369 133.5C37.6566 133.43 37.3764 133.29 37.0961 133.22C37.026 133.22 36.956 133.15 36.8859 133.15L36.6757 133.08C36.5356 133.01 36.3954 133.01 36.2553 132.94C36.1152 132.87 35.975 132.87 35.8349 132.87C35.6948 132.87 35.5547 132.8 35.4145 132.8C35.2744 132.8 35.1343 132.729 35.0642 132.729C34.9941 132.729 34.9241 132.729 34.9241 132.729C34.7139 132.729 34.5737 132.659 34.3635 132.659C34.1533 132.659 34.0132 132.589 33.803 132.589C33.7329 132.589 33.5928 132.589 33.5227 132.589C33.4527 132.589 33.3125 132.589 33.2425 132.589C32.752 132.589 32.2616 132.589 31.701 132.589C31.3507 132.589 31.0004 132.659 30.7201 132.729C30.6501 132.729 30.58 132.729 30.5099 132.8C30.4399 132.8 30.3698 132.8 30.2997 132.87C30.0895 132.94 29.8793 132.94 29.7392 133.01C29.3188 133.01 28.9685 133.15 28.6181 133.29C28.4079 133.36 28.2678 133.43 28.0576 133.5L50.3385 121.379C52.0902 119.978 54.1921 119.207 56.6444 119.137C56.8546 119.137 57.1349 119.137 57.3451 119.137C60.0076 119.207 63.0204 120.048 66.1734 121.799L52.931 128.876L49.8481 130.557L44.6632 133.36V136.023L49.778 140.016Z" fill="#414042" stroke="#231F20" stroke-width="0.201439" stroke-miterlimit="10" stroke-linecap="round" stroke-linejoin="round"/>
        <path d="M130.424 187.941C130.424 194.107 128.042 198.241 124.258 199.712L101.697 212.184C101.837 212.044 102.047 211.974 102.187 211.834C102.257 211.764 102.327 211.694 102.468 211.624C102.678 211.413 102.958 211.203 103.168 210.923C103.238 210.853 103.308 210.783 103.378 210.643C103.449 210.573 103.519 210.432 103.589 210.362L103.659 210.292C103.729 210.152 103.799 210.082 103.869 209.942C103.939 209.872 104.009 209.802 104.009 209.732C104.009 209.732 104.079 209.662 104.079 209.592C104.079 209.592 104.149 209.522 104.149 209.452C104.219 209.381 104.219 209.311 104.289 209.171C104.359 209.031 104.429 208.891 104.57 208.681C104.57 208.611 104.64 208.541 104.64 208.541C104.71 208.471 104.71 208.401 104.78 208.26C104.78 208.19 104.85 208.12 104.85 208.05C104.85 207.98 104.92 207.91 104.92 207.84C104.99 207.7 104.99 207.63 105.06 207.49C105.06 207.42 105.13 207.35 105.13 207.279C105.2 207.069 105.27 206.929 105.34 206.719C105.34 206.649 105.41 206.509 105.41 206.439C105.48 206.158 105.551 205.878 105.621 205.668C105.621 205.528 105.691 205.458 105.691 205.318C105.691 205.178 105.761 204.967 105.761 204.827C105.761 204.687 105.831 204.477 105.831 204.267C105.831 204.197 105.831 204.056 105.901 203.986C105.901 203.846 105.901 203.706 105.971 203.566C105.971 203.496 105.971 203.426 105.971 203.356C105.971 203.216 105.971 203.005 106.041 202.865C106.041 202.585 106.041 202.305 106.111 201.954C106.111 201.744 106.111 201.604 106.111 201.394C106.111 198.731 105.691 195.999 104.85 193.266C104.429 191.935 104.009 190.604 103.449 189.273C103.378 189.132 103.308 188.922 103.238 188.782C103.168 188.642 103.098 188.432 103.028 188.292C102.888 188.011 102.818 187.731 102.678 187.521C102.538 187.241 102.398 186.89 102.257 186.61C102.187 186.47 102.117 186.33 102.047 186.26C101.907 186.05 101.837 185.769 101.697 185.559C101.557 185.349 101.417 185.069 101.347 184.858C101.136 184.438 100.856 184.018 100.576 183.597C100.436 183.387 100.366 183.247 100.226 183.037C100.085 182.827 99.9452 182.546 99.8051 182.336C99.8051 182.266 99.7351 182.266 99.7351 182.196C99.5949 181.986 99.4548 181.776 99.3147 181.565C99.2446 181.495 99.2446 181.425 99.1745 181.355C99.1045 181.215 98.9643 181.075 98.8943 180.935C98.6841 180.584 98.4038 180.234 98.1235 179.954C97.9834 179.814 97.8433 179.604 97.7031 179.463C97.4229 179.113 97.2127 178.833 96.9324 178.482C96.7923 178.342 96.6522 178.132 96.512 177.992C96.3719 177.852 96.2318 177.712 96.0916 177.502C95.9515 177.361 95.8114 177.221 95.6712 177.011C95.391 176.731 95.1107 176.38 94.8304 176.1C94.6903 175.96 94.5502 175.82 94.4101 175.68C93.8495 175.119 93.2189 174.559 92.5883 174.068C92.4482 173.928 92.3081 173.788 92.0979 173.718C91.9577 173.578 91.8176 173.438 91.6074 173.368L91.3972 173.228L86.913 169.794L75.9127 161.106L71.9189 158.023L71.989 157.112L75.9127 160.125L87.6837 169.234L87.8939 169.374L96.7222 164.609L111.716 156.482L115.78 159.635L115.99 159.775C123.557 165.59 129.513 176.1 130.354 185.489C130.354 185.839 130.424 186.19 130.424 186.61C130.424 187.101 130.424 187.521 130.424 187.941Z" fill="#414042" stroke="#231F20" stroke-width="0.201439" stroke-miterlimit="10" stroke-linecap="round" stroke-linejoin="round"/>
        <path d="M87.8938 169.164V169.444L87.6836 169.304L87.8938 169.164Z" fill="#F1F2F2" stroke="#231F20" stroke-width="0.201439" stroke-miterlimit="10" stroke-linecap="round" stroke-linejoin="round"/>
        <path d="M84.5309 198.661C84.5309 198.872 84.5309 199.012 84.5309 199.222C84.4609 200.063 84.1806 200.763 83.7602 201.254C83.6201 201.394 83.55 201.534 83.4099 201.674C83.1296 201.884 82.8493 202.025 82.5691 202.095C81.7283 202.305 80.7474 202.165 79.6263 201.534C79.3461 201.394 79.0658 201.184 78.8556 200.974L51.4599 182.336L34.4339 170.775C31.7013 169.234 29.5293 165.45 29.5293 162.297C29.5293 160.826 30.0198 159.775 30.7905 159.214L31.1408 159.004C31.351 158.934 31.5612 158.864 31.7714 158.794C32.402 158.724 33.1027 158.864 33.8734 159.214C34.0135 159.284 34.1536 159.355 34.2938 159.425C34.574 159.565 34.8543 159.775 35.0645 159.985L35.8352 160.476L36.8161 161.106L40.1092 163.348L46.8355 167.903L47.4661 168.323L49.1477 169.444L49.7783 169.864C49.9184 169.934 49.9885 170.005 50.1286 170.075C54.3326 172.667 55.1033 168.113 55.1033 167.832L55.2434 165.871L55.7339 157.883L55.874 155.081V154.94L56.1543 150.316V150.106C56.1543 149.756 56.2244 149.405 56.2944 149.125C56.5046 148.354 56.925 147.864 57.4155 147.513L57.7658 147.303H57.8359C58.1161 147.163 58.4665 147.163 58.8168 147.163C59.4474 147.163 60.148 147.373 60.9188 147.794C61.3392 148.074 61.7595 148.354 62.1799 148.705C63.0207 149.475 63.7214 150.386 64.352 151.437C64.6322 151.928 64.8424 152.418 65.0526 152.908C65.1227 153.189 65.2628 153.399 65.3329 153.679C65.6132 154.52 65.7533 155.361 65.7533 156.202C65.7533 156.272 65.7533 156.412 65.7533 156.482V156.552V160.055L65.3329 167.412L64.9125 174.279C64.9125 174.349 64.9826 174.699 65.0526 175.33C65.473 177.221 66.5941 181.355 69.8872 183.597L74.7217 186.89L76.6836 188.222L78.9957 189.763L79.6263 190.183C80.6072 190.744 81.5882 191.655 82.3589 192.706C82.8493 193.406 83.3398 194.107 83.6901 194.948C83.9704 195.649 84.2507 196.279 84.3908 196.98C84.4608 197.54 84.5309 198.101 84.5309 198.661Z" fill="#F1F2F2" stroke="#231F20" stroke-width="0.201439" stroke-miterlimit="10" stroke-linecap="round" stroke-linejoin="round"/>
        <path opacity="0.14" d="M84.5309 198.661C84.5309 198.872 84.5309 199.012 84.5309 199.222C84.4609 200.063 84.1806 200.763 83.7602 201.254C83.6201 201.394 83.55 201.534 83.4099 201.674C83.1296 201.884 82.8493 202.025 82.5691 202.095C81.7283 202.305 80.7474 202.165 79.6263 201.534C79.3461 201.394 79.0658 201.184 78.8556 200.974L51.4599 182.336L34.4339 170.775C31.7013 169.234 29.5293 165.45 29.5293 162.297C29.5293 160.826 30.0198 159.775 30.7905 159.214L31.1408 159.004C31.351 158.934 31.5612 158.864 31.7714 158.794C32.402 158.724 33.1027 158.864 33.8734 159.214C34.0135 159.284 34.1536 159.355 34.2938 159.425C34.574 159.565 34.8543 159.775 35.0645 159.985L35.8352 160.476L36.8161 161.106L40.1092 163.348L46.8355 167.903L47.4661 168.323L49.1477 169.444L49.7783 169.864C49.9184 169.934 49.9885 170.005 50.1286 170.075C54.3326 172.667 55.1033 168.113 55.1033 167.832L55.2434 165.871L55.7339 157.883L55.874 155.081V154.94L56.1543 150.316V150.106C56.1543 149.756 56.2244 149.405 56.2944 149.125C56.5046 148.354 56.925 147.864 57.4155 147.513L57.7658 147.303H57.8359C58.1161 147.163 58.4665 147.163 58.8168 147.163C59.4474 147.163 60.148 147.373 60.9188 147.794C61.3392 148.074 61.7595 148.354 62.1799 148.705C63.0207 149.475 63.7214 150.386 64.352 151.437C64.6322 151.928 64.8424 152.418 65.0526 152.908C65.1227 153.189 65.2628 153.399 65.3329 153.679C65.6132 154.52 65.7533 155.361 65.7533 156.202C65.7533 156.272 65.7533 156.412 65.7533 156.482V156.552V160.055L65.3329 167.412L64.9125 174.279C64.9125 174.349 64.9826 174.699 65.0526 175.33C65.473 177.221 66.5941 181.355 69.8872 183.597L74.7217 186.89L76.6836 188.222L78.9957 189.763L79.6263 190.183C80.6072 190.744 81.5882 191.655 82.3589 192.706C82.8493 193.406 83.3398 194.107 83.6901 194.948C83.9704 195.649 84.2507 196.279 84.3908 196.98C84.4608 197.54 84.5309 198.101 84.5309 198.661Z" fill="black" stroke="#231F20" stroke-width="0.201439" stroke-miterlimit="10"/>
        <path d="M57.906 147.303L57.5557 147.513C57.6958 147.443 57.7659 147.373 57.906 147.303Z" fill="#F1F2F2" stroke="#231F20" stroke-width="0.201439" stroke-miterlimit="10" stroke-linecap="round" stroke-linejoin="round"/>
        <path d="M55.3136 166.011L55.2435 167.973C55.1735 168.253 54.4027 172.807 50.2689 170.215C50.1287 170.145 50.0587 170.075 49.9185 170.005L49.2879 169.584L47.6064 168.463L46.9758 168.043L40.2494 163.489L36.9564 161.246L35.9754 160.616L35.2047 160.125C34.9244 159.915 34.7143 159.775 34.434 159.565C34.2939 159.495 34.1537 159.425 34.0136 159.355C33.2429 159.004 32.4721 158.864 31.9116 158.934C31.9116 158.864 31.9116 158.864 31.9116 158.794L33.8735 157.673L35.9054 156.552L37.0264 155.921C37.9373 155.221 39.2685 155.221 40.7399 156.062C41.0202 156.202 41.3004 156.412 41.5106 156.622L46.135 159.705L48.8675 161.597L49.2879 161.877L51.6001 163.489L55.3136 166.011Z" fill="#F1F2F2" stroke="#231F20" stroke-width="0.201439" stroke-miterlimit="10" stroke-linecap="round" stroke-linejoin="round"/>
        <path opacity="0.08" d="M55.3136 166.011L55.2435 167.973C55.1735 168.253 54.4027 172.807 50.2689 170.215C50.1287 170.145 50.0587 170.075 49.9185 170.005L49.2879 169.584L47.6064 168.463L46.9758 168.043L40.2494 163.489L36.9564 161.246L35.9754 160.616L35.2047 160.125C34.9244 159.915 34.7143 159.775 34.434 159.565C34.2939 159.495 34.1537 159.425 34.0136 159.355C33.2429 159.004 32.4721 158.864 31.9116 158.934C31.9116 158.864 31.9116 158.864 31.9116 158.794L33.8735 157.673L35.9054 156.552L37.0264 155.921C37.9373 155.221 39.2685 155.221 40.7399 156.062C41.0202 156.202 41.3004 156.412 41.5106 156.622L46.135 159.705L48.8675 161.597L49.2879 161.877L51.6001 163.489L55.3136 166.011Z" fill="black" stroke="#231F20" stroke-width="0.201439" stroke-miterlimit="10"/>
        <path d="M31.8415 158.864C31.6313 158.864 31.4211 158.934 31.2109 159.074L31.8415 158.724C31.8415 158.794 31.8415 158.794 31.8415 158.864Z" fill="#F1F2F2" stroke="#231F20" stroke-width="0.201439" stroke-miterlimit="10" stroke-linecap="round" stroke-linejoin="round"/>
        <path d="M57.9769 147.303H57.9062H57.9769Z" fill="#F1F2F2" stroke="#231F20" stroke-width="0.201439" stroke-miterlimit="10" stroke-linecap="round" stroke-linejoin="round"/>
        <path d="M83.9001 201.324L83.4097 201.604C83.5498 201.464 83.6899 201.394 83.76 201.184C83.8301 201.254 83.8301 201.324 83.9001 201.324Z" fill="#F1F2F2" stroke="#231F20" stroke-width="0.201439" stroke-miterlimit="10" stroke-linecap="round" stroke-linejoin="round"/>
        <path d="M85.862 133.01C85.0212 133.43 84.1104 133.921 83.1294 134.481C78.9255 136.723 73.5304 139.596 69.5367 141.768C68.1354 142.539 66.8742 143.169 65.8933 143.73C65.0525 143.59 64.3518 143.66 63.7913 144.08L60.7084 145.832L49.7781 137.424L44.5933 133.43L49.7781 130.628L52.861 128.946L66.1035 121.729L69.1163 120.118L85.862 133.01Z" fill="#F7F7F7" stroke="#231F20" stroke-width="0.201439" stroke-miterlimit="10" stroke-linecap="round" stroke-linejoin="round"/>
        <path d="M112.347 153.539L109.614 155.01L87.8937 166.781L75.6322 157.393L72.1289 154.66L72.199 153.048V152.978C72.7595 152.698 73.4602 152.348 74.371 151.857C79.1355 149.335 88.174 144.22 92.518 141.768C93.9894 140.927 94.9703 140.367 95.0404 140.297C95.1105 140.297 95.1105 140.226 95.1805 140.226L112.347 153.539Z" fill="#F7F7F7" stroke="#231F20" stroke-width="0.201439" stroke-miterlimit="10" stroke-linecap="round" stroke-linejoin="round"/>
        <path d="M112.347 153.539V156.201L111.646 156.552L96.6518 164.679L87.8936 169.444V166.781L109.684 155.01L112.347 153.539Z" fill="white" stroke="#231F20" stroke-width="0.201439" stroke-miterlimit="10"/>
        <path d="M90.7666 195.158C90.7666 196.559 90.3462 197.54 89.5755 198.171L88.9449 198.521L88.034 199.012L85.9321 200.133L83.8301 201.324C83.76 201.324 83.76 201.254 83.69 201.254C84.1104 200.763 84.3206 200.063 84.4607 199.222C84.4607 199.082 84.4607 198.872 84.4607 198.661C84.4607 198.101 84.3906 197.54 84.2505 196.98C84.1104 196.279 83.9002 195.578 83.5498 194.948C83.1995 194.177 82.7791 193.406 82.2186 192.706C81.4479 191.655 80.537 190.744 79.486 190.183L78.8554 189.763L76.5433 188.222L74.5814 186.89L69.9571 183.597C66.664 181.355 65.5429 177.291 65.1225 175.329C64.9824 174.699 64.9824 174.349 64.9824 174.278L65.4028 167.412L65.7531 160.055L65.9633 156.622V156.552C65.9633 156.482 65.9633 156.342 65.9633 156.272C65.9633 155.431 65.8232 154.59 65.5429 153.749C65.4729 153.469 65.4028 153.259 65.2627 152.978C65.0525 152.488 64.8423 151.998 64.562 151.507C64.0015 150.456 63.2308 149.545 62.39 148.775C61.9696 148.424 61.5492 148.074 61.1288 147.864C60.3581 147.443 59.6574 147.233 59.0268 147.233C58.6765 147.233 58.3262 147.303 58.0459 147.373L58.7466 146.953L60.7084 145.832L63.7913 144.08C64.3518 143.66 65.0525 143.59 65.8933 143.73C66.3837 143.8 66.8742 144.01 67.3646 144.29C70.0271 145.832 72.1992 149.615 72.1992 152.698C72.1992 152.768 72.1992 152.838 72.1992 152.978V153.049L72.1291 154.66L71.989 157.182L71.9189 158.093L71.7087 161.176L71.5686 163.138L71.1482 170.845C71.1482 170.915 71.2183 171.266 71.2883 171.826C71.6387 173.508 72.5495 176.801 74.9317 179.113C75.2821 179.463 75.7025 179.814 76.1229 180.094L78.365 181.635L81.1676 183.527L81.588 183.807L85.862 186.68C88.5946 188.292 90.7666 192.075 90.7666 195.158Z" fill="#F1F2F2" stroke="#231F20" stroke-width="0.201439" stroke-miterlimit="10" stroke-linecap="round" stroke-linejoin="round"/>
        <path d="M60.7084 145.762L58.6765 146.883L49.7781 140.016L44.5933 136.022V133.36L49.7781 137.354L60.7084 145.762Z" fill="#F1F2F2" stroke="#231F20" stroke-width="0.201439" stroke-miterlimit="10" stroke-linecap="round" stroke-linejoin="round"/>
        <path d="M87.8942 166.781V169.164L87.684 169.304L75.9129 160.195L71.9893 157.182L72.1294 154.66L75.6327 157.393L87.8942 166.781Z" fill="#F1F2F2" stroke="#231F20" stroke-width="0.201439" stroke-miterlimit="10" stroke-linecap="round" stroke-linejoin="round"/>
        <path opacity="0.2" d="M60.7084 145.762L58.6765 146.883L49.7781 140.016L44.5933 136.022V133.36L49.7781 137.354L60.7084 145.762Z" fill="black" stroke="#231F20" stroke-width="0.201439" stroke-miterlimit="10"/>
        <path opacity="0.2" d="M87.8942 166.781V169.164L87.684 169.304L75.9129 160.195L71.9893 157.182L72.1294 154.66L75.6327 157.393L87.8942 166.781Z" fill="black" stroke="#231F20" stroke-width="0.201439" stroke-miterlimit="10"/>
        <path d="M87.8943 169.164V169.444L87.6841 169.304L87.8943 169.164Z" fill="#F1F2F2" stroke="#231F20" stroke-width="0.201439" stroke-miterlimit="10" stroke-linecap="round" stroke-linejoin="round"/>
        <path opacity="0.2" d="M57.9062 143.66L82.8497 130.698L87.9645 134.621L60.7089 146.182L57.9062 143.66Z" fill="black" stroke="#231F20" stroke-width="0.0802954" stroke-miterlimit="10"/>
        <path d="M96.232 137.844C96.232 139.035 95.8116 139.876 95.181 140.297C95.111 140.297 95.111 140.367 95.0409 140.367C94.9708 140.437 93.9899 140.927 92.5185 141.838C88.1745 144.29 79.136 149.405 74.3715 151.928C73.4607 152.418 72.76 152.768 72.1995 153.049C72.1995 152.979 72.1995 152.908 72.1995 152.768C72.1995 149.685 70.0274 145.902 67.3649 144.36C66.8745 144.08 66.384 143.87 65.8936 143.8C66.8745 143.239 68.1357 142.609 69.537 141.838C73.6008 139.666 78.9258 136.793 83.1297 134.551C84.1107 133.991 85.0215 133.5 85.8623 133.08C87.5439 132.169 88.8051 131.468 89.5057 131.118C89.786 130.978 89.9962 130.838 89.9962 130.838C90.6268 130.628 91.4676 130.768 92.3784 131.258C94.5505 132.449 96.232 135.392 96.232 137.844Z" fill="url(#paint5_linear_1_19911)" stroke="#231F20" stroke-width="0.201439" stroke-miterlimit="10" stroke-linecap="round" stroke-linejoin="round"/>
    </g>
    <defs>
        <linearGradient id="paint0_linear_1_19911" x1="34.2051" y1="155.931" x2="51.5612" y2="155.931" gradientUnits="userSpaceOnUse">
            <stop stop-color="#C2B59B"/>
            <stop offset="1" stop-color="#49443A"/>
        </linearGradient>
        <linearGradient id="paint1_linear_1_19911" x1="71.1732" y1="166.471" x2="75.6633" y2="166.471" gradientUnits="userSpaceOnUse">
            <stop stop-color="#58595B"/>
            <stop offset="1"/>
        </linearGradient>
        <linearGradient id="paint2_linear_1_19911" x1="31.2355" y1="145.522" x2="56.4464" y2="145.522" gradientUnits="userSpaceOnUse">
            <stop stop-color="#58595B"/>
            <stop offset="1"/>
        </linearGradient>
        <linearGradient id="paint3_linear_1_19911" x1="79.5501" y1="191.054" x2="96.7556" y2="191.054" gradientUnits="userSpaceOnUse">
            <stop stop-color="#C2B59B"/>
            <stop offset="1" stop-color="#49443A"/>
        </linearGradient>
        <linearGradient id="paint4_linear_1_19911" x1="78.7107" y1="189.024" x2="103.296" y2="189.024" gradientUnits="userSpaceOnUse">
            <stop stop-color="#58595B"/>
            <stop offset="1"/>
        </linearGradient>
        <linearGradient id="paint5_linear_1_19911" x1="79.1026" y1="136.323" x2="84.5325" y2="146.338" gradientUnits="userSpaceOnUse">
            <stop stop-color="#59595C"/>
            <stop offset="0.3636" stop-color="#221F1F"/>
            <stop offset="0.6738" stop-color="#808184"/>
            <stop offset="1" stop-color="#424143"/>
        </linearGradient>
        <clipPath id="">
            <rect width="109.583" height="94.869" fill="white" transform="translate(20.9111 118.997)"/>
        </clipPath>
    </defs>


    <g clip-path="url(#)">
        <path d="M147.31 106.455L140.233 110.449V110.519L112.347 126.284L107.933 128.806L107.513 127.335L98.4741 94.5438L97.9136 92.4418L107.302 87.327L112.908 84.3142L124.609 77.9382L138.552 70.301L139.953 75.9063L140.584 78.779L146.679 103.792L147.31 106.455Z" fill="#F1F2F2" stroke="#231F20" stroke-width="0.150992" stroke-miterlimit="10" stroke-linecap="round" stroke-linejoin="round"/>
        <path d="M140.233 110.519L112.347 126.283L107.933 128.806L106.461 127.965L72.8999 108.557L98.4739 94.5437L107.512 127.334L107.933 128.806L112.347 126.283L140.233 110.519Z" fill="#F1F2F2" stroke="#231F20" stroke-width="0.150992" stroke-miterlimit="10"/>
        <path d="M147.31 106.455L140.233 110.519V110.449L147.31 106.455Z" fill="#F1F2F2" stroke="#231F20" stroke-width="0.150992" stroke-miterlimit="10"/>
        <path d="M138.551 70.301L124.608 77.9382L112.907 84.3142L107.302 87.327L97.9132 92.4418L95.1806 91.1105L80.4668 83.6135L112.907 64.3454L119.844 60.2115L138.551 70.301Z" fill="#F1F2F2" stroke="#231F20" stroke-width="0.150992" stroke-miterlimit="10" stroke-linecap="round" stroke-linejoin="round"/>
        <path d="M113.679 102.181L114.03 115.423C115.571 114.443 129.164 106.805 136.24 102.882C138.833 101.41 140.584 100.499 140.584 100.499L140.304 88.3781L113.679 102.181ZM137.852 98.6077L137.782 98.6777C137.712 98.6777 137.642 98.7478 137.572 98.8179C137.502 98.8179 137.502 98.8879 137.431 98.8879C137.361 98.958 137.221 98.958 137.151 99.028C137.151 99.028 137.151 99.028 137.081 99.028C136.31 99.4484 134.979 100.219 133.298 101.13H133.228C132.737 101.41 132.247 101.691 131.756 101.971C131.406 102.181 131.056 102.391 130.705 102.531C130.635 102.531 130.635 102.601 130.565 102.601C129.164 103.372 127.622 104.213 126.151 105.054C125.941 105.194 125.801 105.264 125.59 105.404C123.558 106.525 121.667 107.646 119.985 108.557C119.845 108.627 119.775 108.697 119.635 108.767C119.495 108.837 119.355 108.907 119.214 108.977C119.074 109.047 118.934 109.118 118.794 109.258C118.654 109.328 118.514 109.398 118.374 109.538C117.813 109.888 117.323 110.169 116.832 110.379L116.692 104.633L128.253 98.2573L131.336 96.5757L133.368 95.4547L137.782 93.0725L137.852 98.6077Z" fill="#F1F2F2" stroke="#231F20" stroke-width="0.150992" stroke-miterlimit="10" stroke-linecap="round" stroke-linejoin="round"/>
        <path d="M137.851 98.6076C137.851 98.6076 122.157 107.366 116.761 110.449L116.691 105.684L133.367 96.4355L137.851 98.6076Z" fill="#939598" stroke="#231F20" stroke-width="0.150992" stroke-miterlimit="10"/>
        <path d="M137.712 93.1426L137.852 98.6077L133.297 96.4357V95.5248L137.712 93.1426Z" fill="#4F4C4D" stroke="#231F20" stroke-width="0.150992" stroke-miterlimit="10"/>
        <path d="M133.298 95.5247V96.4355L116.692 105.684L116.622 104.703L133.298 95.5247Z" fill="#231F20" stroke="#231F20" stroke-width="0.150992" stroke-miterlimit="10" stroke-linecap="round" stroke-linejoin="round"/>
        <path d="M140.234 88.3079L113.679 102.181V101.901L109.125 99.2381L135.329 85.7155L140.234 88.3079Z" fill="#F1F2F2" stroke="#231F20" stroke-width="0.150992" stroke-miterlimit="10" stroke-linecap="round" stroke-linejoin="round"/>
        <path d="M113.679 101.901L113.959 115.423L109.125 99.2383L113.679 101.901Z" fill="#F1F2F2" stroke="#231F20" stroke-width="0.150992" stroke-miterlimit="10" stroke-linecap="round" stroke-linejoin="round"/>
        <path opacity="0.2" d="M113.679 101.901L113.959 115.423L109.125 99.2383L113.679 101.901Z" fill="black" stroke="#231F20" stroke-width="0.150992" stroke-miterlimit="10"/>
        <path d="M107.933 128.806L106.461 127.965L72.8999 108.557L74.7216 102.531L80.467 83.6135L95.1808 91.1106L97.9134 92.4418L98.4739 94.5438L107.512 127.335L107.933 128.806Z" fill="#F1F2F2" stroke="#231F20" stroke-width="0.150992" stroke-miterlimit="10" stroke-linecap="round" stroke-linejoin="round"/>
        <path opacity="0.2" d="M107.933 128.806L106.461 127.965L72.8999 108.557L74.7216 102.531L80.467 83.6135L95.1808 91.1106L97.9134 92.4418L98.4739 94.5438L107.512 127.335L107.933 128.806Z" fill="black" stroke="#231F20" stroke-width="0.150992" stroke-miterlimit="10"/>
        <path d="M98.1939 108.977V113.111C98.1238 113.111 98.1238 113.041 98.0538 113.041C93.2192 110.308 80.0469 102.882 80.0469 102.882L83.6202 100.99L98.1939 108.977Z" fill="#939598" stroke="#231F20" stroke-width="0.150992" stroke-miterlimit="10"/>
        <path d="M83.6903 100.149L83.6202 100.92L80.0469 102.882V98.047L83.6903 100.149Z" fill="#4F4C4D" stroke="#231F20" stroke-width="0.150992" stroke-miterlimit="10"/>
        <path d="M98.1943 108.137V108.977L83.6206 100.92L83.6907 100.149L84.1811 100.499L98.1943 108.137Z" fill="#231F20" stroke="#231F20" stroke-width="0.150992" stroke-miterlimit="10" stroke-linecap="round" stroke-linejoin="round"/>
    </g>
    <defs>
        <clipPath id="">
            <rect width="74.62" height="68.8046" fill="white" transform="translate(72.7598 60.1414)"/>
        </clipPath>
    </defs>

</svg>
