<svg width="230" height="230" viewBox="0 0 230 230" fill="none"
    xmlns="http://www.w3.org/2000/svg">

    <g clip-path="url(#)">
        <path d="M140.303 114.583L173.304 133.851L190.54 124.812L136.379 91.6011L140.303 114.583Z" fill="#F1F2F2" stroke="#231F20" stroke-width="0.201439" stroke-miterlimit="10" stroke-linecap="round" stroke-linejoin="round"/>
        <path opacity="0.2" d="M140.303 114.583L173.304 133.851L190.54 124.812L136.379 91.6011L140.303 114.583Z" fill="black" stroke="#231F20" stroke-width="0.0802954" stroke-miterlimit="10"/>
        <path d="M109.824 103.652C109.824 103.652 103.729 97.4865 102.678 109.047C101.557 120.538 101.557 120.538 101.557 120.538L113.117 137.914L126.64 139.316L127.621 132.309L109.824 103.652Z" fill="#49443A" stroke="#231F20" stroke-width="0.225612" stroke-miterlimit="10" stroke-linecap="round" stroke-linejoin="round"/>
        <path d="M133.997 124.742C133.997 125.583 133.927 126.354 133.857 127.124C133.717 127.825 133.577 128.456 133.367 129.086C132.876 130.488 132.035 131.538 131.054 132.239C130.073 132.94 128.882 133.29 127.551 133.36C127.481 133.36 127.341 133.36 127.271 133.36C125.799 133.36 124.118 132.87 122.296 131.889C122.226 131.889 122.226 131.819 122.156 131.819C115.43 128.035 109.965 118.787 109.895 111.219C109.895 110.869 109.895 110.449 109.895 110.098C109.965 108.417 110.385 107.015 110.946 105.894C110.946 105.824 111.016 105.754 111.086 105.684C111.786 104.423 112.767 103.512 114.028 103.022C115.079 102.601 116.271 102.461 117.602 102.671C118.583 102.812 119.704 103.162 120.825 103.722C121.105 103.863 121.455 104.003 121.736 104.213C121.876 104.283 122.016 104.353 122.226 104.493C122.296 104.493 122.296 104.563 122.366 104.563C127.761 109.748 132.035 117.035 133.927 124.182C133.927 124.252 133.927 124.252 133.927 124.322C133.997 124.392 133.997 124.532 133.997 124.742Z" fill="#6E6657" stroke="#231F20" stroke-width="0.225612" stroke-miterlimit="10" stroke-linecap="round" stroke-linejoin="round"/>
        <path d="M107.933 115.493C108.003 121.169 112.066 128.035 117.041 130.838C119.704 132.309 122.016 132.379 123.627 131.188C124.398 130.628 124.959 129.857 125.379 128.806C125.519 128.385 125.659 127.895 125.729 127.334C125.799 126.774 125.869 126.213 125.869 125.583C125.799 119.907 121.736 113.041 116.761 110.238C116.551 110.098 116.341 110.028 116.06 109.888C115.219 109.468 114.379 109.257 113.678 109.117C112.697 108.977 111.786 109.047 111.016 109.398C109.124 110.238 107.933 112.34 107.933 115.493Z" fill="#928874" stroke="#231F20" stroke-width="0.225612" stroke-miterlimit="10" stroke-linecap="round" stroke-linejoin="round"/>
        <path d="M111.086 109.398C111.857 109.047 112.768 108.977 113.748 109.117C114.519 109.257 115.29 109.468 116.131 109.888C116.341 110.028 116.551 110.098 116.831 110.238C121.806 113.041 125.87 119.907 125.94 125.583C125.94 126.213 125.87 126.774 125.8 127.334C125.73 127.825 125.59 128.315 125.449 128.806C125.099 129.857 124.468 130.628 123.698 131.188L128.532 128.315L128.602 128.245C130.214 127.334 131.195 125.303 131.195 122.43C131.125 116.755 127.061 109.888 122.086 107.085C119.914 105.894 117.952 105.614 116.411 106.245L115.15 106.945L111.086 109.398Z" fill="url(#paint0_linear_1_19911)" stroke="#231F20" stroke-width="0.225612" stroke-miterlimit="10" stroke-linecap="round" stroke-linejoin="round"/>
        <path d="M133.997 124.322C133.997 124.252 133.997 124.252 133.927 124.181C131.965 116.965 127.691 109.748 122.366 104.563C122.296 104.493 122.296 104.493 122.226 104.423C120.264 102.531 118.162 100.99 115.99 99.7285C115.5 99.4483 115.009 99.2381 114.589 99.0279C112.837 98.1871 111.156 97.6266 109.544 97.4164C107.512 97.1361 105.621 97.3463 104.009 97.9769H103.939C99.8751 99.6585 97.3527 104.143 97.4228 110.729C97.5629 122.64 106.111 137.074 116.551 142.959C122.086 146.042 127.061 146.112 130.494 143.66C132.105 142.539 133.296 140.857 134.137 138.685C134.488 137.774 134.768 136.723 134.908 135.602C135.118 134.481 135.188 133.22 135.188 131.889C135.048 129.436 134.698 126.844 133.997 124.322ZM127.201 133.29C126.71 134.201 126.08 134.972 125.309 135.532C123.137 137.074 119.984 137.074 116.411 135.042C109.754 131.328 104.289 122.15 104.219 114.512C104.149 110.308 105.761 107.436 108.353 106.385C109.124 106.034 110.035 105.894 111.016 105.894C111.086 105.894 111.156 105.894 111.226 105.894C111.436 105.894 111.716 105.964 111.926 105.964C112.907 106.105 114.028 106.455 115.149 106.945C115.43 107.085 115.78 107.226 116.06 107.436C122.717 111.149 128.182 120.398 128.252 127.965C128.252 128.105 128.252 128.245 128.252 128.385C128.252 129.086 128.182 129.717 128.112 130.347C127.971 131.048 127.831 131.679 127.621 132.309C127.481 132.729 127.341 133.01 127.201 133.29Z" fill="#231F20" stroke="#231F20" stroke-width="0.225612" stroke-miterlimit="10" stroke-linecap="round" stroke-linejoin="round"/>
        <path d="M125.449 85.295L125.379 85.3651C126.01 85.0147 126.57 84.6644 126.92 84.4542L125.449 85.295ZM133.927 124.111C131.965 116.895 127.691 109.678 122.366 104.493C122.296 104.423 122.296 104.423 122.226 104.353V104.423C122.506 105.614 122.927 106.735 123.347 107.926C125.099 112.691 127.831 117.315 131.124 121.239C132.035 122.29 133.016 123.341 133.997 124.322C133.997 124.322 133.997 124.322 134.067 124.322C133.997 124.252 133.997 124.182 133.927 124.111ZM152.705 130.558C153.195 130.347 153.686 130.067 154.176 129.717L152.705 130.558Z" fill="#231F20" stroke="#231F20" stroke-width="0.225612" stroke-miterlimit="10" stroke-linecap="round" stroke-linejoin="round"/>
        <path d="M155.927 128.245C155.787 128.385 155.647 128.456 155.577 128.526C155.717 128.456 155.787 128.385 155.927 128.245Z" fill="url(#paint1_linear_1_19911)" stroke="#231F20" stroke-width="0.225612" stroke-miterlimit="10" stroke-linecap="round" stroke-linejoin="round"/>
        <path d="M158.801 117.946C158.801 119.277 158.731 120.538 158.521 121.659C158.381 122.78 158.1 123.761 157.75 124.672C156.979 126.844 155.718 128.526 154.107 129.647L152.635 130.488L130.424 143.59C132.036 142.469 133.227 140.787 134.068 138.615C134.418 137.704 134.698 136.653 134.838 135.532C135.049 134.411 135.119 133.15 135.119 131.819C135.119 129.366 134.698 126.844 133.998 124.252C133.998 124.182 133.998 124.182 133.928 124.112C131.966 116.895 127.692 109.678 122.367 104.493C122.297 104.423 122.297 104.423 122.227 104.353C120.265 102.461 118.163 100.92 115.991 99.6586C115.5 99.3783 115.01 99.1681 114.589 98.9579C112.838 98.1171 111.156 97.5566 109.545 97.3464C107.513 97.0661 105.621 97.2763 104.01 97.9069H103.939L125.52 85.225L125.45 85.2951C126.08 84.9448 126.641 84.5944 126.991 84.3842C127.061 84.3842 127.061 84.3142 127.131 84.3142C127.201 84.3142 127.271 84.2441 127.271 84.2441C127.341 84.2441 127.411 84.174 127.411 84.174C127.482 84.174 127.482 84.104 127.552 84.104L127.622 84.0339C129.303 83.3333 131.195 83.1231 133.227 83.4033C134.838 83.6135 136.52 84.174 138.272 85.0148C138.762 85.225 139.183 85.5053 139.673 85.7155C141.915 86.9767 144.087 88.5882 146.049 90.55C151.444 95.7349 155.718 103.022 157.61 110.168C158.381 112.831 158.801 115.423 158.801 117.946Z" fill="url(#paint2_linear_1_19911)" stroke="#231F20" stroke-width="0.225612" stroke-miterlimit="10" stroke-linecap="round" stroke-linejoin="round"/>
        <path d="M126.92 84.4542C126.5 84.6644 126.009 85.0147 125.379 85.3651L125.449 85.295L126.92 84.4542Z" fill="#C49A6C" stroke="#231F20" stroke-width="0.225612" stroke-miterlimit="10" stroke-linecap="round" stroke-linejoin="round"/>
        <path d="M154.667 129.717C154.667 129.717 148.571 123.551 147.52 135.112C146.469 146.673 146.469 146.673 146.469 146.673L158.03 164.049L171.553 165.45L172.534 158.444L154.667 129.717Z" fill="#49443A" stroke="#231F20" stroke-width="0.225612" stroke-miterlimit="10" stroke-linecap="round" stroke-linejoin="round"/>
        <path d="M178.839 150.807C178.839 151.647 178.769 152.418 178.699 153.189C178.559 153.889 178.419 154.52 178.209 155.151C177.718 156.552 176.878 157.603 175.897 158.304C174.916 159.004 173.725 159.425 172.393 159.425C172.323 159.425 172.183 159.425 172.113 159.425C170.642 159.355 168.96 158.934 167.138 157.953C167.068 157.953 167.068 157.883 166.998 157.883C160.272 154.1 154.807 144.921 154.737 137.284C154.737 136.934 154.737 136.513 154.737 136.163C154.807 134.481 155.227 133.08 155.788 131.959C155.788 131.889 155.858 131.819 155.928 131.749C156.629 130.487 157.61 129.577 158.871 129.086C159.922 128.666 161.113 128.526 162.444 128.736C163.495 128.876 164.546 129.226 165.667 129.787C165.947 129.927 166.298 130.067 166.578 130.277C166.718 130.347 166.858 130.417 167.068 130.558C167.138 130.558 167.138 130.628 167.209 130.628C172.604 135.812 176.878 143.099 178.769 150.246C178.769 150.316 178.769 150.316 178.769 150.386C178.839 150.456 178.839 150.666 178.839 150.807Z" fill="#6E6657" stroke="#231F20" stroke-width="0.225612" stroke-miterlimit="10" stroke-linecap="round" stroke-linejoin="round"/>
        <path d="M152.845 141.558C152.915 147.233 156.979 154.1 161.954 156.902C164.616 158.374 166.928 158.444 168.54 157.253C169.311 156.692 169.871 155.921 170.292 154.87C170.432 154.45 170.572 153.96 170.642 153.399C170.712 152.838 170.782 152.278 170.782 151.647C170.712 145.972 166.648 139.106 161.673 136.303C161.463 136.163 161.253 136.093 160.973 135.953C160.132 135.532 159.291 135.322 158.591 135.182C157.61 135.042 156.699 135.112 155.928 135.462C153.966 136.303 152.775 138.405 152.845 141.558Z" fill="#928874" stroke="#231F20" stroke-width="0.225612" stroke-miterlimit="10" stroke-linecap="round" stroke-linejoin="round"/>
        <path d="M155.928 135.462C156.699 135.112 157.61 135.042 158.591 135.182C159.361 135.322 160.132 135.532 160.973 135.953C161.183 136.093 161.393 136.163 161.674 136.303C166.648 139.106 170.712 145.972 170.782 151.647C170.782 152.278 170.712 152.839 170.642 153.399C170.572 153.889 170.432 154.38 170.292 154.87C169.941 155.921 169.311 156.692 168.54 157.253L173.375 154.38L173.445 154.31C175.056 153.399 176.037 151.367 176.037 148.494C175.967 142.819 171.903 135.953 166.929 133.15C164.757 131.959 162.795 131.679 161.253 132.309L159.992 133.01L155.928 135.462Z" fill="url(#paint3_linear_1_19911)" stroke="#231F20" stroke-width="0.225612" stroke-miterlimit="10" stroke-linecap="round" stroke-linejoin="round"/>
        <path d="M178.84 150.386C178.84 150.316 178.84 150.316 178.77 150.246C176.808 143.029 172.534 135.812 167.209 130.628C167.139 130.557 167.139 130.557 167.069 130.487C165.107 128.596 163.005 127.054 160.833 125.793C160.342 125.513 159.852 125.303 159.431 125.092C157.68 124.252 155.998 123.691 154.387 123.481C152.355 123.201 150.463 123.411 148.852 124.041C144.788 125.723 142.265 130.207 142.335 136.793C142.476 148.704 151.024 163.138 161.463 169.024C166.999 172.106 171.973 172.177 175.406 169.724C177.018 168.603 178.209 166.922 179.05 164.75C179.4 163.839 179.68 162.788 179.821 161.667C180.031 160.546 180.101 159.284 180.101 157.953C179.891 155.501 179.54 152.908 178.84 150.386ZM170.152 161.597C167.979 163.138 164.827 163.138 161.253 161.106C154.597 157.393 149.132 148.144 149.062 140.577C148.992 136.373 150.603 133.5 153.196 132.449C153.966 132.099 154.877 131.959 155.858 131.959C155.928 131.959 155.998 131.959 156.068 131.959C156.278 131.959 156.559 131.959 156.769 132.029C157.75 132.169 158.871 132.519 159.992 133.01C160.272 133.15 160.623 133.29 160.903 133.5C167.559 137.214 173.024 146.462 173.094 154.029C173.094 154.17 173.094 154.31 173.094 154.45C173.094 155.151 173.024 155.781 172.954 156.412C172.814 157.112 172.674 157.743 172.464 158.374C172.324 158.724 172.183 159.004 172.043 159.354C171.553 160.335 170.922 161.036 170.152 161.597Z" fill="#231F20" stroke="#231F20" stroke-width="0.225612" stroke-miterlimit="10" stroke-linecap="round" stroke-linejoin="round"/>
        <path d="M170.291 111.36C170.221 111.36 170.221 111.43 170.221 111.43C170.852 111.079 171.412 110.729 171.763 110.519L170.291 111.36ZM178.839 150.176C176.877 142.959 172.603 135.743 167.278 130.558C167.208 130.488 167.208 130.488 167.138 130.418V130.488C167.418 131.679 167.839 132.8 168.259 133.991C170.011 138.755 172.743 143.38 176.037 147.303C176.947 148.354 177.928 149.405 178.909 150.386C178.839 150.316 178.839 150.246 178.839 150.176ZM197.547 156.622C198.037 156.412 198.528 156.132 199.018 155.781L197.547 156.622Z" fill="#231F20" stroke="#231F20" stroke-width="0.225612" stroke-miterlimit="10" stroke-linecap="round" stroke-linejoin="round"/>
        <path d="M200.77 154.31C200.63 154.45 200.489 154.52 200.419 154.59C200.56 154.52 200.63 154.45 200.77 154.31Z" fill="url(#paint4_linear_1_19911)" stroke="#231F20" stroke-width="0.225612" stroke-miterlimit="10" stroke-linecap="round" stroke-linejoin="round"/>
        <path d="M203.643 144.01C203.643 145.341 203.573 146.603 203.362 147.724C203.222 148.845 202.942 149.826 202.592 150.737C201.821 152.909 200.56 154.59 198.948 155.711L197.477 156.552L175.196 169.584C176.808 168.463 177.999 166.782 178.839 164.61C179.19 163.699 179.47 162.648 179.61 161.527C179.82 160.406 179.89 159.144 179.89 157.813C179.89 155.361 179.47 152.839 178.769 150.246C178.769 150.176 178.769 150.176 178.699 150.106C176.737 142.889 172.463 135.672 167.138 130.488C167.068 130.417 167.068 130.417 166.998 130.347C165.037 128.456 162.935 126.914 160.762 125.653C160.272 125.373 159.782 125.163 159.361 124.952C157.61 124.112 155.928 123.551 154.316 123.341C152.285 123.061 150.393 123.271 148.781 123.901L170.362 111.29C170.291 111.29 170.291 111.36 170.291 111.36C170.922 111.009 171.483 110.659 171.833 110.449C171.903 110.449 171.903 110.379 171.973 110.379C172.043 110.379 172.113 110.309 172.113 110.309C172.183 110.239 172.253 110.239 172.253 110.239C172.323 110.239 172.323 110.168 172.393 110.168L172.463 110.098C174.145 109.398 176.037 109.188 178.069 109.538C179.68 109.748 181.362 110.309 183.113 111.149C183.604 111.36 184.024 111.64 184.515 111.85C186.757 113.111 188.929 114.723 190.891 116.685C196.286 121.869 200.56 129.156 202.452 136.303C203.222 138.895 203.643 141.558 203.643 144.01Z" fill="url(#paint5_linear_1_19911)" stroke="#231F20" stroke-width="0.225612" stroke-miterlimit="10" stroke-linecap="round" stroke-linejoin="round"/>
        <path d="M203.643 144.01C203.643 145.341 203.573 146.603 203.362 147.724C203.222 148.845 202.942 149.826 202.592 150.737C201.821 152.909 200.56 154.59 198.948 155.711L197.477 156.552L175.196 169.584C176.808 168.463 177.999 166.782 178.839 164.61C179.19 163.699 179.47 162.648 179.61 161.527C179.82 160.406 179.89 159.144 179.89 157.813C179.89 155.361 179.47 152.839 178.769 150.246C178.769 150.176 178.769 150.176 178.699 150.106C176.737 142.889 172.463 135.672 167.138 130.488C167.068 130.417 167.068 130.417 166.998 130.347C165.037 128.456 162.935 126.914 160.762 125.653C160.272 125.373 159.782 125.163 159.361 124.952C157.61 124.112 155.928 123.551 154.316 123.341C152.285 123.061 150.393 123.271 148.781 123.901L170.362 111.29C170.291 111.29 170.291 111.36 170.291 111.36C170.922 111.009 171.483 110.659 171.833 110.449C171.903 110.449 171.903 110.379 171.973 110.379C172.043 110.379 172.113 110.309 172.113 110.309C172.183 110.239 172.253 110.239 172.253 110.239C172.323 110.239 172.323 110.168 172.393 110.168L172.463 110.098C174.145 109.398 176.037 109.188 178.069 109.538C179.68 109.748 181.362 110.309 183.113 111.149C183.394 111.29 183.674 111.43 183.884 111.57L183.464 111.78L172.043 118.086L163.635 123.131V126.214L172.043 121.309L172.323 121.169L186.336 113.462L186.687 113.251C187.037 113.462 187.387 113.742 187.668 113.952C188.579 114.653 189.489 115.423 190.33 116.194C190.47 116.334 190.681 116.544 190.821 116.685C196.216 121.869 200.49 129.156 202.382 136.303C203.222 138.895 203.643 141.558 203.643 144.01Z" fill="url(#paint6_linear_1_19911)" stroke="#231F20" stroke-width="0.225612" stroke-miterlimit="10" stroke-linecap="round" stroke-linejoin="round"/>
        <path d="M186.757 113.181L186.407 113.391L172.394 121.099L172.113 121.239L163.706 126.143V123.06L172.113 118.016L183.534 111.71L183.955 111.5C184.165 111.64 184.375 111.71 184.585 111.85C185.286 112.27 186.057 112.691 186.757 113.181Z" fill="url(#paint7_linear_1_19911)" stroke="#231F20" stroke-width="0.225612" stroke-miterlimit="10" stroke-linecap="round" stroke-linejoin="round"/>
        <path d="M171.763 110.519C171.413 110.729 170.852 111.079 170.222 111.43L170.292 111.36L171.763 110.519Z" fill="#C49A6C" stroke="#231F20" stroke-width="0.225612" stroke-miterlimit="10" stroke-linecap="round" stroke-linejoin="round"/>
        <g opacity="0.2">
            <path opacity="0.2" d="M188.579 115.634L181.572 119.487L170.151 125.793L164.686 129.086L110.105 98.0472L115.57 94.6841L126.5 88.4482L133.997 84.1742L188.579 115.634Z" fill="black" stroke="#231F20" stroke-width="0.210688" stroke-miterlimit="10"/>
        </g>
        <path d="M190.54 107.856L183.534 111.71L172.113 118.016L163.705 123.061L109.054 92.0215L117.532 86.9067L128.462 80.6709L136.029 76.3268L190.54 107.856Z" fill="#F1F2F2" stroke="#231F20" stroke-width="0.201439" stroke-miterlimit="10" stroke-linecap="round" stroke-linejoin="round"/>
        <path d="M163.705 123.061V126.144L109.054 94.1935V92.0215L163.705 123.061Z" fill="#F1F2F2" stroke="#231F20" stroke-width="0.201439" stroke-miterlimit="10" stroke-linecap="round" stroke-linejoin="round"/>
        <path opacity="0.14" d="M163.705 123.061V126.144L109.054 94.1935V92.0215L163.705 123.061Z" fill="black" stroke="#231F20" stroke-width="0.201439" stroke-miterlimit="10"/>
        <path d="M190.54 107.856L190.4 116.194C189.559 115.353 188.648 114.653 187.738 113.952V112.691L186.757 113.251L186.406 113.462L172.393 121.169L172.113 121.309L163.705 126.214V123.131L172.113 118.086L183.534 111.78L183.954 111.57L190.54 107.856Z" fill="#F1F2F2" stroke="#231F20" stroke-width="0.201439" stroke-miterlimit="10" stroke-linecap="round" stroke-linejoin="round"/>
    </g>
    <defs>
        <linearGradient id="paint0_linear_1_19911" x1="117.885" y1="108.101" x2="127.455" y2="125.619" gradientUnits="userSpaceOnUse">
            <stop stop-color="#C2B59B"/>
            <stop offset="1" stop-color="#49443A"/>
        </linearGradient>
        <linearGradient id="paint1_linear_1_19911" x1="155.814" y1="128.262" x2="155.671" y2="128.532" gradientUnits="userSpaceOnUse">
            <stop stop-color="#58595B"/>
            <stop offset="1"/>
        </linearGradient>
        <linearGradient id="paint2_linear_1_19911" x1="133.65" y1="143.321" x2="130.125" y2="88.5171" gradientUnits="userSpaceOnUse">
            <stop/>
            <stop offset="1" stop-color="#58595B"/>
        </linearGradient>
        <linearGradient id="paint3_linear_1_19911" x1="162.734" y1="134.172" x2="172.303" y2="151.69" gradientUnits="userSpaceOnUse">
            <stop stop-color="#C2B59B"/>
            <stop offset="1" stop-color="#49443A"/>
        </linearGradient>
        <linearGradient id="paint4_linear_1_19911" x1="200.662" y1="154.333" x2="200.519" y2="154.603" gradientUnits="userSpaceOnUse">
            <stop stop-color="#58595B"/>
            <stop offset="1"/>
        </linearGradient>
        <linearGradient id="paint5_linear_1_19911" x1="178.902" y1="167.153" x2="174.518" y2="112.434" gradientUnits="userSpaceOnUse">
            <stop/>
            <stop offset="1" stop-color="#58595B"/>
        </linearGradient>
        <linearGradient id="paint6_linear_1_19911" x1="175.714" y1="163.106" x2="176.671" y2="108.219" gradientUnits="userSpaceOnUse">
            <stop/>
            <stop offset="1" stop-color="#58595B"/>
        </linearGradient>
        <linearGradient id="paint7_linear_1_19911" x1="175.626" y1="124.693" x2="174.68" y2="112.877" gradientUnits="userSpaceOnUse">
            <stop/>
            <stop offset="1" stop-color="#58595B"/>
        </linearGradient>
        <clipPath id="">
            <rect width="106.5" height="95.2894" fill="white" transform="translate(97.2832 76.2566)"/>
        </clipPath>
    </defs>


    <g clip-path="url(#)">
        <path d="M101.066 125.863C100.646 125.723 100.226 125.513 99.8051 125.233C99.3847 124.952 98.9643 124.672 98.5439 124.392L101.066 125.863Z" fill="#F1F2F2" stroke="#231F20" stroke-width="0.201439" stroke-miterlimit="10" stroke-linecap="round" stroke-linejoin="round"/>
        <path d="M89.0146 118.927L89.435 119.137L89.0146 118.927Z" fill="#F1F2F2" stroke="#231F20" stroke-width="0.201439" stroke-miterlimit="10" stroke-linecap="round" stroke-linejoin="round"/>
        <path d="M98.4736 124.392L101.066 125.863C100.646 125.723 100.225 125.513 99.8049 125.233C99.3144 124.952 98.894 124.672 98.4736 124.392Z" fill="#F1F2F2" stroke="#231F20" stroke-width="0.201439" stroke-miterlimit="10" stroke-linecap="round" stroke-linejoin="round"/>
        <path d="M111.997 124.392C112.067 124.392 112.067 124.392 112.137 124.392C112.137 124.322 112.067 124.392 111.997 124.392Z" fill="#F1F2F2" stroke="#231F20" stroke-width="0.201439" stroke-miterlimit="10" stroke-linecap="round" stroke-linejoin="round"/>
        <path d="M150.603 156.131L148.711 157.182L150.603 156.131Z" fill="#F7F7F7" stroke="#231F20" stroke-width="0.201439" stroke-miterlimit="10" stroke-linecap="round" stroke-linejoin="round"/>
        <path d="M89.0146 118.927L89.435 119.137L89.0146 118.927Z" fill="#F1F2F2" stroke="#231F20" stroke-width="0.201439" stroke-miterlimit="10" stroke-linecap="round" stroke-linejoin="round"/>
        <path d="M98.4736 124.392L101.066 125.863C100.646 125.723 100.225 125.513 99.8049 125.233C99.3144 124.952 98.894 124.672 98.4736 124.392Z" fill="#F1F2F2" stroke="#231F20" stroke-width="0.201439" stroke-miterlimit="10" stroke-linecap="round" stroke-linejoin="round"/>
        <path d="M111.997 124.392C112.067 124.392 112.067 124.392 112.137 124.392C112.137 124.322 112.067 124.392 111.997 124.392Z" fill="#F1F2F2" stroke="#231F20" stroke-width="0.201439" stroke-miterlimit="10" stroke-linecap="round" stroke-linejoin="round"/>
        <path d="M98.4736 124.392L101.066 125.863C100.646 125.723 100.225 125.513 99.8049 125.233C99.3144 124.952 98.894 124.672 98.4736 124.392Z" fill="#F1F2F2" stroke="#231F20" stroke-width="0.201439" stroke-miterlimit="10" stroke-linecap="round" stroke-linejoin="round"/>
        <path d="M150.603 156.131L148.711 157.182L150.603 156.131Z" fill="#F7F7F7" stroke="#231F20" stroke-width="0.201439" stroke-miterlimit="10" stroke-linecap="round" stroke-linejoin="round"/>
        <path d="M150.603 156.131L148.711 157.182L150.603 156.131Z" fill="#F7F7F7" stroke="#231F20" stroke-width="0.201439" stroke-miterlimit="10" stroke-linecap="round" stroke-linejoin="round"/>
        <path d="M150.603 156.131L148.711 157.182L150.603 156.131Z" fill="#F7F7F7" stroke="#231F20" stroke-width="0.201439" stroke-miterlimit="10" stroke-linecap="round" stroke-linejoin="round"/>
        <path d="M98.4736 124.392L101.066 125.863C100.646 125.723 100.225 125.513 99.8049 125.233C99.3144 124.952 98.894 124.672 98.4736 124.392Z" fill="#F1F2F2" stroke="#231F20" stroke-width="0.201439" stroke-miterlimit="10" stroke-linecap="round" stroke-linejoin="round"/>
        <path d="M148.641 104.143L143.456 101.13L132.105 94.5437L128.252 92.3016L125.169 90.5499L113.958 84.0338L108.073 87.3269L107.512 87.6072L103.308 89.9193L100.786 91.3207L99.1745 92.2315L84.811 100.149L84.3205 100.429L82.709 101.34L80.1866 102.741L70.3774 108.207L83.1995 115.633L84.3205 116.264L86.2824 117.385L88.5945 118.716L89.085 118.997L89.5054 119.207L98.5439 124.462L101.136 125.933L107.722 129.717L119.073 123.411L124.188 120.608L124.608 120.398L130.844 116.965L132.736 115.914L135.188 114.582L137.921 113.041L138.481 112.761L139.883 111.99L151.303 105.684L148.641 104.143Z" fill="#F7F7F7" stroke="#231F20" stroke-width="0.201439" stroke-miterlimit="10" stroke-linecap="round" stroke-linejoin="round"/>
        <path d="M169.45 131.328L167.418 132.449L159.641 136.793L157.609 137.914L156.138 138.685L155.928 138.825L153.125 140.367L151.514 141.278L151.023 141.488L149.482 142.399L148.08 143.169L141.844 146.603L141.774 146.673L139.742 147.794L139.532 147.864L138.131 148.705L137.15 149.195L133.437 151.297L131.615 152.278L128.882 153.819L125.94 155.431L121.946 149.826L118.232 144.641L113.188 137.494L111.786 135.532L109.754 132.66L107.652 129.717L119.003 123.411L124.118 120.538L124.468 120.328L130.704 116.895L132.596 115.844L135.048 114.512L137.781 113.041L138.341 112.691L139.742 111.92L151.163 105.614L158.52 116.054L159.921 117.946L160.412 118.646L169.45 131.328Z" fill="#F7F7F7" stroke="#231F20" stroke-width="0.201439" stroke-miterlimit="10" stroke-linecap="round" stroke-linejoin="round"/>
        <path d="M169.45 131.328V145.762L164.476 148.494L162.163 149.756L160.061 150.947L154.807 153.819L153.055 154.8L152.915 154.87L150.603 156.132L148.711 157.183L145.698 158.864L144.437 159.565L141.564 161.176L125.939 169.794V155.431L128.882 153.819L131.615 152.278L133.436 151.297L137.15 149.195L138.131 148.705L139.532 147.864L139.742 147.794L141.774 146.673L141.844 146.603L148.08 143.169L149.482 142.399L151.023 141.488L151.513 141.278L153.125 140.367L155.928 138.825L156.138 138.685L157.609 137.914L159.641 136.793L167.418 132.449L169.45 131.328Z" fill="#F7F7F7" stroke="#231F20" stroke-width="0.201439" stroke-miterlimit="10" stroke-linecap="round" stroke-linejoin="round"/>
        <path d="M169.451 145.762L164.896 152.838L164.406 153.609C163.985 154.38 163.425 155.01 162.794 155.501L161.883 155.991L161.043 156.482L158.52 157.883L152.074 161.456L149.832 162.718L146.749 164.399L121.175 178.552L125.94 169.864L141.564 161.176L144.437 159.565L145.698 158.864L148.711 157.182L150.603 156.131L152.915 154.87L153.055 154.8L154.807 153.819L160.062 150.877L162.164 149.755L164.476 148.424L169.451 145.762Z" fill="#F7F7F7" stroke="#231F20" stroke-width="0.201439" stroke-miterlimit="10" stroke-linecap="round" stroke-linejoin="round"/>
        <path d="M113.818 84.0338L107.933 87.3269L107.372 87.6072L103.168 89.9193L100.646 91.3207L99.0345 92.2315L84.8111 100.149L84.3207 100.429L82.7092 101.34L80.1868 102.741L70.3776 108.207L49.2878 110.729C49.1477 110.729 49.0075 110.729 48.9375 110.799C48.7973 110.799 48.7273 110.869 48.5871 110.869C48.5171 110.869 48.447 110.869 48.3769 110.939C48.1667 110.939 47.8865 110.939 47.6763 110.939L82.2187 91.8111L89.3654 87.8874H89.4355C90.4164 87.2568 91.6075 86.9065 92.8687 86.6963L95.4611 86.346L101.627 85.5753L112.277 84.244L113.818 84.0338Z" fill="#F1F2F2" stroke="#231F20" stroke-width="0.201439" stroke-miterlimit="10" stroke-linecap="round" stroke-linejoin="round"/>
        <path d="M139.953 130.137C139.182 129.857 138.201 129.927 137.22 130.558C136.94 130.698 136.66 130.908 136.379 131.118C136.309 131.188 136.239 131.258 136.169 131.258C136.029 131.398 135.889 131.468 135.749 131.609C135.679 131.679 135.679 131.679 135.609 131.749C135.538 131.819 135.538 131.819 135.468 131.889C135.188 132.239 134.838 132.589 134.628 133.01C134.558 133.08 134.487 133.15 134.487 133.29C134.417 133.43 134.277 133.57 134.207 133.781C134.207 133.851 134.137 133.851 134.137 133.921C134.067 133.991 134.067 134.061 133.997 134.131C133.927 134.271 133.857 134.411 133.787 134.481C133.717 134.551 133.717 134.621 133.647 134.761C133.577 134.832 133.577 134.972 133.507 135.042C133.366 135.322 133.296 135.672 133.226 135.953C133.226 136.023 133.156 136.093 133.156 136.233C133.086 136.583 133.016 136.863 133.016 137.214C133.016 137.284 133.016 137.284 133.016 137.354C133.016 137.424 133.016 137.494 133.016 137.564C133.016 137.634 133.016 137.704 133.016 137.844V145.552L141.564 140.577V132.94C141.424 131.468 140.793 130.487 139.953 130.137ZM140.303 139.806L134.067 143.45V137.844C134.137 135.883 135.468 133.5 137.15 132.519C137.5 132.309 137.851 132.169 138.131 132.169C138.481 132.099 138.832 132.099 139.112 132.239C139.742 132.519 140.163 133.22 140.233 134.271V139.806H140.303Z" fill="#F7F7F7" stroke="#231F20" stroke-width="0.201439" stroke-miterlimit="10" stroke-linecap="round" stroke-linejoin="round"/>
        <path d="M140.303 134.271V139.876L138.552 139.176V133.57C138.552 133.01 138.411 132.519 138.201 132.169C138.552 132.099 138.902 132.099 139.182 132.239C139.813 132.449 140.233 133.22 140.303 134.271Z" fill="#6D6E71" stroke="#231F20" stroke-width="0.0802954" stroke-miterlimit="10"/>
        <path d="M140.303 139.806L134.067 143.45V141.768L138.551 139.105L140.303 139.806Z" fill="#939598" stroke="#231F20" stroke-width="0.0802954" stroke-miterlimit="10"/>
        <path d="M138.551 133.57V139.176L134.067 141.838V137.914C134.137 135.952 135.468 133.57 137.15 132.589C137.5 132.379 137.85 132.239 138.131 132.239C138.411 132.519 138.551 133.01 138.551 133.57Z" fill="#939598" stroke="#231F20" stroke-width="0.0802954" stroke-miterlimit="10"/>
        <path d="M139.883 130.137C139.112 129.857 138.201 129.997 137.15 130.558C136.87 130.698 136.59 130.908 136.309 131.118C136.239 131.188 136.169 131.258 136.099 131.258C135.959 131.398 135.819 131.468 135.679 131.609C135.609 131.679 135.609 131.679 135.539 131.749C135.469 131.819 135.469 131.819 135.399 131.889C135.118 132.239 134.768 132.589 134.558 133.01C134.488 133.08 134.418 133.22 134.418 133.29C134.348 133.43 134.207 133.57 134.137 133.781C134.137 133.851 134.067 133.851 134.067 133.921C133.997 133.991 133.997 134.061 133.927 134.131C133.857 134.271 133.787 134.411 133.717 134.481C133.647 134.551 133.647 134.621 133.577 134.761C133.507 134.832 133.507 134.972 133.437 135.042C133.297 135.322 133.226 135.672 133.156 135.953C133.156 136.023 133.086 136.093 133.086 136.233C133.016 136.583 132.946 136.863 132.946 137.214C132.946 137.284 132.946 137.284 132.946 137.354C132.946 137.424 132.946 137.494 132.946 137.564C132.946 137.634 132.946 137.704 132.946 137.844V145.552L128.672 138.895L124.468 132.379C124.959 129.997 126.64 127.545 128.602 126.424C129.793 125.723 130.844 125.653 131.615 126.143L139.883 130.137Z" fill="#F7F7F7" stroke="#231F20" stroke-width="0.201439" stroke-miterlimit="10" stroke-linecap="round" stroke-linejoin="round"/>
        <path opacity="0.14" d="M133.997 134.061C133.997 134.131 133.927 134.131 133.927 134.201C133.857 134.341 133.787 134.481 133.717 134.551C133.647 134.621 133.647 134.691 133.577 134.831C133.507 134.901 133.507 135.042 133.437 135.112C133.297 135.392 133.226 135.742 133.156 136.023C133.156 136.093 133.086 136.163 133.086 136.303C133.016 136.653 132.946 136.933 132.946 137.284C132.946 137.354 132.946 137.354 132.946 137.424C132.946 137.494 132.946 137.564 132.946 137.634C132.946 137.704 132.946 137.774 132.946 137.914V145.622L128.672 138.965L124.468 132.449C124.749 131.118 125.449 129.717 126.29 128.526L133.997 134.061Z" fill="black" stroke="#231F20" stroke-width="0.201439" stroke-miterlimit="10"/>
        <path d="M156.208 121.449C155.437 121.169 154.456 121.239 153.475 121.869C153.195 122.01 152.915 122.22 152.635 122.43C152.565 122.5 152.495 122.57 152.424 122.57C152.284 122.71 152.144 122.78 152.004 122.92C151.934 122.99 151.934 122.99 151.864 123.061C151.794 123.131 151.794 123.131 151.724 123.201C151.444 123.551 151.093 123.901 150.883 124.322C150.813 124.392 150.743 124.462 150.743 124.602C150.673 124.742 150.533 124.882 150.463 125.092C150.463 125.163 150.393 125.163 150.393 125.233C150.322 125.303 150.322 125.373 150.252 125.443C150.182 125.583 150.112 125.723 150.042 125.793C149.972 125.863 149.972 125.933 149.902 126.073C149.832 126.143 149.832 126.284 149.762 126.354C149.622 126.634 149.552 126.984 149.482 127.264C149.482 127.335 149.412 127.405 149.412 127.545C149.342 127.895 149.271 128.175 149.271 128.526C149.271 128.596 149.271 128.596 149.271 128.666C149.271 128.736 149.271 128.806 149.271 128.876C149.271 128.946 149.271 129.016 149.271 129.156V136.863L157.82 131.889V124.182C157.679 122.78 157.119 121.799 156.208 121.449ZM156.558 131.118L150.322 134.762V129.156C150.393 127.194 151.724 124.812 153.405 123.831C153.756 123.621 154.106 123.481 154.386 123.481C154.737 123.411 155.087 123.411 155.367 123.551C155.998 123.831 156.418 124.532 156.488 125.583V131.118H156.558Z" fill="#F7F7F7" stroke="#231F20" stroke-width="0.201439" stroke-miterlimit="10" stroke-linecap="round" stroke-linejoin="round"/>
        <path d="M156.559 125.513V131.118L154.807 130.417V124.812C154.807 124.252 154.667 123.761 154.457 123.411C154.807 123.341 155.157 123.341 155.437 123.481C156.138 123.761 156.559 124.462 156.559 125.513Z" fill="#6D6E71" stroke="#231F20" stroke-width="0.0802954" stroke-miterlimit="10"/>
        <path d="M156.558 131.118L150.322 134.761V133.01L154.806 130.417L156.558 131.118Z" fill="#939598" stroke="#231F20" stroke-width="0.0802954" stroke-miterlimit="10"/>
        <path d="M154.806 124.812V130.417L150.322 133.08V129.156C150.392 127.194 151.724 124.812 153.405 123.831C153.755 123.621 154.106 123.481 154.386 123.481C154.666 123.761 154.806 124.252 154.806 124.812Z" fill="#939598" stroke="#231F20" stroke-width="0.0802954" stroke-miterlimit="10"/>
        <path d="M156.208 121.379C155.437 121.099 154.526 121.239 153.475 121.799C153.195 121.939 152.915 122.15 152.634 122.36C152.564 122.43 152.494 122.5 152.424 122.5C152.284 122.64 152.144 122.71 152.004 122.85C151.934 122.92 151.934 122.92 151.864 122.99C151.794 123.06 151.794 123.06 151.723 123.13C151.443 123.481 151.093 123.831 150.883 124.252C150.813 124.322 150.743 124.462 150.743 124.532C150.672 124.672 150.532 124.812 150.462 125.022C150.462 125.092 150.392 125.092 150.392 125.162C150.322 125.232 150.322 125.303 150.252 125.373C150.182 125.513 150.112 125.653 150.042 125.723C149.972 125.793 149.972 125.863 149.902 126.003C149.832 126.073 149.832 126.213 149.762 126.283C149.621 126.564 149.551 126.914 149.481 127.194C149.481 127.264 149.411 127.334 149.411 127.475C149.341 127.825 149.271 128.105 149.271 128.455C149.271 128.526 149.271 128.526 149.271 128.596C149.271 128.666 149.271 128.736 149.271 128.806C149.271 128.876 149.271 128.946 149.271 129.086V136.793L144.927 130.207L140.723 123.691C141.214 121.309 142.895 118.856 144.857 117.735C146.048 117.035 147.099 116.965 147.87 117.455L156.208 121.379Z" fill="#F7F7F7" stroke="#231F20" stroke-width="0.201439" stroke-miterlimit="10" stroke-linecap="round" stroke-linejoin="round"/>
        <path opacity="0.14" d="M150.392 125.092C150.322 125.162 150.322 125.232 150.252 125.303C150.182 125.373 150.182 125.443 150.112 125.513C150.042 125.653 149.972 125.793 149.902 125.863C149.832 125.933 149.832 126.003 149.762 126.143C149.692 126.213 149.692 126.354 149.621 126.424C149.481 126.704 149.411 127.054 149.341 127.334C149.341 127.405 149.271 127.475 149.271 127.615C149.201 127.965 149.131 128.245 149.131 128.596C149.131 128.666 149.131 128.666 149.131 128.736C149.131 128.806 149.131 128.876 149.131 128.946C149.131 129.016 149.131 129.086 149.131 129.226V136.933L144.927 130.207L140.723 123.691C141.003 122.43 141.634 121.099 142.405 119.978L150.392 125.092Z" fill="black" stroke="#231F20" stroke-width="0.201439" stroke-miterlimit="10"/>
        <path d="M125.939 155.431V169.794L121.175 178.482L54.8227 135.462L47.606 124.322V110.939C47.8162 110.939 48.0964 110.939 48.3066 110.939C48.3767 110.939 48.4467 110.869 48.5168 110.869C48.6569 110.869 48.727 110.799 48.8671 110.799C49.0073 110.799 49.1474 110.729 49.2175 110.729L70.3073 108.136L83.1293 115.563L84.2504 116.194L86.2122 117.315L88.5244 118.646L89.0148 118.927L89.4352 119.207L98.4737 124.462C98.8941 124.742 99.3145 125.022 99.7349 125.303C100.155 125.583 100.576 125.793 100.996 125.933L107.582 129.717L109.684 132.659L111.716 135.532L113.117 137.564L118.162 144.641L121.876 149.826L125.939 155.431Z" fill="#F1F2F2" stroke="#231F20" stroke-width="0.201439" stroke-miterlimit="10" stroke-linecap="round" stroke-linejoin="round"/>
        <path opacity="0.14" d="M125.939 155.431V169.794L121.175 178.482L54.8227 135.462L47.606 124.322V110.939C47.8162 110.939 48.0964 110.939 48.3066 110.939C48.3767 110.939 48.4467 110.869 48.5168 110.869C48.6569 110.869 48.727 110.799 48.8671 110.799C49.0073 110.799 49.1474 110.729 49.2175 110.729L70.3073 108.136L83.1293 115.563L84.2504 116.194L86.2122 117.315L88.5244 118.646L89.0148 118.927L89.4352 119.207L98.4737 124.462C98.8941 124.742 99.3145 125.022 99.7349 125.303C100.155 125.583 100.576 125.793 100.996 125.933L107.582 129.717L109.684 132.659L111.716 135.532L113.117 137.564L118.162 144.641L121.876 149.826L125.939 155.431Z" fill="black" stroke="#231F20" stroke-width="0.201439" stroke-miterlimit="10"/>
        <path d="M169.451 145.762L164.896 152.838L164.406 153.609C163.985 154.38 163.425 155.01 162.794 155.501L161.883 155.991L161.043 156.482L158.52 157.883L152.074 161.456L149.832 162.718L146.749 164.399L121.175 178.552L125.94 169.864L141.564 161.176L144.437 159.565L145.698 158.864L148.711 157.182L150.603 156.131L152.915 154.87L153.055 154.8L154.807 153.819L160.062 150.877L162.164 149.755L164.476 148.424L169.451 145.762Z" fill="#F7F7F7" stroke="#231F20" stroke-width="0.201439" stroke-miterlimit="10" stroke-linecap="round" stroke-linejoin="round"/>
        <path opacity="0.2" d="M169.451 145.762L164.896 152.838L164.406 153.609C163.985 154.38 163.425 155.01 162.794 155.501L161.883 155.991L161.043 156.482L158.52 157.883L152.074 161.456L149.832 162.718L146.749 164.399L121.175 178.552L125.94 169.864L141.564 161.176L144.437 159.565L145.698 158.864L148.711 157.182L150.603 156.131L152.915 154.87L153.055 154.8L154.807 153.819L160.062 150.877L162.164 149.755L164.476 148.424L169.451 145.762Z" fill="black" stroke="#231F20" stroke-width="0.0802954" stroke-miterlimit="10"/>
        <path opacity="0.2" d="M70.6576 105.544L66.2435 107.296L54.9629 108.627L62.8103 104.353L70.6576 105.544Z" fill="black" stroke="#231F20" stroke-width="0.0802954" stroke-miterlimit="10"/>
        <path d="M70.6576 105.544L60.8484 100.149C60.7783 100.079 60.9184 100.219 60.8484 100.149L84.2503 87.0466L95.3908 92.0213L70.6576 105.544Z" fill="#F1F2F2" stroke="#231F20" stroke-width="0.201439" stroke-miterlimit="10" stroke-linecap="round" stroke-linejoin="round"/>
        <path d="M70.6574 105.544L60.8481 106.875V100.149L70.6574 105.544Z" fill="#F1F2F2" stroke="#231F20" stroke-width="0.201439" stroke-miterlimit="10" stroke-linecap="round" stroke-linejoin="round"/>
        <path opacity="0.14" d="M70.6574 105.544L60.8481 106.875V100.149L70.6574 105.544Z" fill="black" stroke="#231F20" stroke-width="0.201439" stroke-miterlimit="10"/>
        <path opacity="0.2" d="M132.876 145.552L128.812 144.781L122.506 134.762L124.398 132.379L132.876 145.552Z" fill="black" stroke="#231F20" stroke-width="0.0802954" stroke-miterlimit="10"/>
        <path opacity="0.2" d="M149.202 136.863L145.068 136.093L138.832 126.003L140.724 123.691L149.202 136.863Z" fill="black" stroke="#231F20" stroke-width="0.0802954" stroke-miterlimit="10"/>
    </g>
    <defs>
        <clipPath id="">
            <rect width="121.984" height="94.7289" fill="white" transform="translate(47.5361 83.9639)"/>
        </clipPath>
    </defs>


    <g clip-path="url(#)">
        <path d="M36.9557 145.762C36.9557 145.762 30.86 139.596 29.809 151.157C28.7581 162.718 28.688 162.648 28.688 162.648L40.2488 180.024L53.7715 181.425L54.7525 174.419L36.9557 145.762Z" fill="#49443A" stroke="#231F20" stroke-width="0.225612" stroke-miterlimit="10" stroke-linecap="round" stroke-linejoin="round"/>
        <path d="M61.1285 166.852C61.1285 167.692 61.0584 168.463 60.9884 169.234C60.8482 169.935 60.7081 170.565 60.4979 171.196C60.0074 172.597 59.1667 173.648 58.1857 174.349C57.2048 175.049 56.0137 175.4 54.6825 175.47C54.6124 175.47 54.4723 175.47 54.4022 175.47C52.9308 175.4 51.2492 174.979 49.4275 173.998C49.3575 173.998 49.3575 173.928 49.2874 173.928C42.5611 170.145 37.0959 160.896 37.0259 153.329C37.0259 152.979 37.0259 152.558 37.0259 152.208C37.0959 150.526 37.5163 149.125 38.0769 148.004C38.0769 147.934 38.1469 147.864 38.217 147.794C38.9177 146.533 39.8986 145.622 41.1598 145.131C42.2107 144.711 43.4019 144.571 44.7331 144.781C45.7841 144.921 46.8351 145.271 47.9561 145.832C48.2364 145.972 48.5867 146.112 48.867 146.322C49.0071 146.392 49.1473 146.462 49.3575 146.603C49.4275 146.603 49.4275 146.673 49.4976 146.673C54.8926 151.858 59.1667 159.144 61.0584 166.291C61.0584 166.361 61.0584 166.361 61.0584 166.431C61.1285 166.501 61.1285 166.641 61.1285 166.852Z" fill="#6E6657" stroke="#231F20" stroke-width="0.225612" stroke-miterlimit="10" stroke-linecap="round" stroke-linejoin="round"/>
        <path d="M35.064 157.603C35.134 163.278 39.1978 170.145 44.1725 172.947C46.835 174.419 49.1472 174.489 50.7587 173.298C51.5294 172.737 52.0899 171.966 52.5103 170.915C52.6505 170.495 52.7906 170.004 52.8607 169.444C52.9307 168.883 53.0008 168.323 53.0008 167.692C52.9307 162.017 48.8669 155.151 43.8923 152.348C43.6821 152.208 43.4719 152.138 43.1916 151.998C42.3508 151.577 41.51 151.367 40.8094 151.227C39.8284 151.087 38.9176 151.157 38.1469 151.507C36.2551 152.348 35.064 154.45 35.064 157.603Z" fill="#928874" stroke="#231F20" stroke-width="0.225612" stroke-miterlimit="10" stroke-linecap="round" stroke-linejoin="round"/>
        <path d="M38.2173 151.507C38.988 151.157 39.8989 151.087 40.8798 151.227C41.6505 151.367 42.4212 151.577 43.262 151.998C43.4722 152.138 43.6824 152.208 43.9627 152.348C48.9373 155.151 53.0012 162.017 53.0712 167.692C53.0712 168.323 53.0712 168.883 52.9311 169.444C52.861 169.934 52.7209 170.425 52.5808 170.915C52.2304 171.966 51.5998 172.737 50.8291 173.298L55.6637 170.425L55.7337 170.355C57.3452 169.444 58.3262 167.412 58.3262 164.539C58.2561 158.864 54.1923 151.998 49.2176 149.195C47.0456 148.004 45.0837 147.724 43.5423 148.354L42.2811 149.055L38.2173 151.507Z" fill="url(#paint0_linear_1_19911)" stroke="#231F20" stroke-width="0.225612" stroke-miterlimit="10" stroke-linecap="round" stroke-linejoin="round"/>
        <path d="M61.1285 166.431C61.1285 166.361 61.1285 166.361 61.0584 166.291C59.0966 159.074 54.8226 151.858 49.4976 146.673C49.4275 146.603 49.4275 146.603 49.3574 146.533C47.3956 144.641 45.2936 143.099 43.1216 141.838C42.6311 141.558 42.1407 141.348 41.7203 141.137C39.9686 140.297 38.287 139.736 36.6755 139.526C34.6436 139.246 32.7519 139.456 31.1403 140.086H31.0703C27.0065 141.768 24.4841 146.252 24.5542 152.838C24.6943 164.75 33.2423 179.183 43.6821 185.069C49.2173 188.152 54.192 188.222 57.6252 185.769C59.2367 184.648 60.4278 182.967 61.2686 180.795C61.6189 179.884 61.8992 178.833 62.0393 177.712C62.2495 176.591 62.3196 175.33 62.3196 173.998C62.1795 171.546 61.8291 168.954 61.1285 166.431ZM52.4403 177.642C50.2683 179.183 47.1153 179.183 43.542 177.151C36.8857 173.438 31.4206 164.259 31.3505 156.622C31.2805 152.418 32.892 149.545 35.4844 148.494C36.2551 148.144 37.166 148.004 38.1469 148.004C38.217 148.004 38.287 148.004 38.3571 148.004C38.5673 148.004 38.8476 148.074 39.0578 148.074C40.0387 148.214 41.1597 148.564 42.2808 149.055C42.5611 149.195 42.9114 149.335 43.1916 149.545C49.8479 153.329 55.313 162.508 55.3831 170.145C55.3831 170.285 55.3831 170.425 55.3831 170.565C55.3831 171.266 55.313 171.896 55.243 172.527C55.1028 173.228 54.9627 173.858 54.7525 174.489C54.6124 174.839 54.4722 175.119 54.3321 175.47C53.8416 176.381 53.2111 177.081 52.4403 177.642Z" fill="#231F20" stroke="#231F20" stroke-width="0.225612" stroke-miterlimit="10" stroke-linecap="round" stroke-linejoin="round"/>
        <path d="M79.836 172.667C80.3265 172.457 80.8169 172.177 81.3074 171.826L79.836 172.667ZM61.0584 166.221C59.0966 159.004 54.8226 151.787 49.4976 146.603C49.4275 146.532 49.4275 146.532 49.3574 146.462V146.532C49.6377 147.724 50.0581 148.845 50.4785 150.036C52.2301 154.8 54.9627 159.425 58.2558 163.348C59.1666 164.399 60.1476 165.45 61.1285 166.431C61.1285 166.361 61.1285 166.291 61.0584 166.221ZM52.5804 127.404L52.5104 127.475C53.211 127.054 53.8416 126.704 54.192 126.494C54.262 126.494 54.262 126.424 54.3321 126.424C54.4022 126.424 54.4722 126.354 54.4722 126.354C54.5423 126.354 54.5423 126.283 54.6124 126.283L54.6824 126.213C53.9818 126.424 53.2811 126.844 52.5804 127.404Z" fill="#231F20" stroke="#231F20" stroke-width="0.225612" stroke-miterlimit="10" stroke-linecap="round" stroke-linejoin="round"/>
        <path d="M83.0588 170.355C82.9187 170.495 82.7786 170.565 82.7085 170.635C82.8486 170.565 82.9187 170.495 83.0588 170.355Z" fill="url(#paint1_linear_1_19911)" stroke="#231F20" stroke-width="0.225612" stroke-miterlimit="10" stroke-linecap="round" stroke-linejoin="round"/>
        <path d="M85.9316 160.055C85.9316 161.386 85.8615 162.648 85.6513 163.769C85.5112 164.89 85.2309 165.871 84.8806 166.852C84.1098 169.024 82.8487 170.705 81.2371 171.826L79.7658 172.667L57.4849 185.699C59.0964 184.578 60.2875 182.897 61.1283 180.725C61.4786 179.814 61.7589 178.763 61.899 177.642C62.1092 176.521 62.1793 175.26 62.1793 173.928C62.1793 171.476 61.7589 168.954 61.0582 166.361C61.0582 166.291 61.0582 166.291 60.9881 166.221C59.0263 159.004 54.7523 151.787 49.4273 146.603C49.3572 146.533 49.3572 146.533 49.2872 146.462C47.3253 144.571 45.2233 143.029 43.0513 141.768C42.5609 141.488 42.0704 141.278 41.65 141.067C39.8984 140.227 38.2168 139.666 36.6053 139.456C34.5734 139.176 32.6816 139.386 31.0701 140.016H31L52.5803 127.405L52.5102 127.475C53.2108 127.054 53.8414 126.704 54.1918 126.494C54.2618 126.494 54.2618 126.424 54.3319 126.424C54.402 126.424 54.472 126.354 54.472 126.354C54.5421 126.354 54.5421 126.284 54.6122 126.284L54.6822 126.213C56.3638 125.513 58.2556 125.303 60.2875 125.583C61.899 125.793 63.5806 126.354 65.3322 127.194C65.8227 127.405 66.2431 127.685 66.7335 127.895C68.9756 129.156 71.1477 130.768 73.1095 132.73C78.5046 137.914 82.7786 145.201 84.6704 152.348C85.5112 154.94 85.9316 157.533 85.9316 160.055Z" fill="url(#paint2_linear_1_19911)" stroke="#231F20" stroke-width="0.225612" stroke-miterlimit="10" stroke-linecap="round" stroke-linejoin="round"/>
        <path d="M54.1918 126.494C53.7714 126.704 53.2109 127.054 52.5103 127.475L52.5803 127.405L54.1918 126.494Z" fill="#C49A6C" stroke="#231F20" stroke-width="0.225612" stroke-miterlimit="10" stroke-linecap="round" stroke-linejoin="round"/>
        <path d="M81.7983 171.826C81.7983 171.826 75.7026 165.66 74.6516 177.221C73.6006 188.782 73.6006 188.782 73.6006 188.782L85.1614 206.158L98.6841 207.56L99.6651 200.553L81.7983 171.826Z" fill="#49443A" stroke="#231F20" stroke-width="0.225612" stroke-miterlimit="10" stroke-linecap="round" stroke-linejoin="round"/>
        <path d="M105.971 192.916C105.971 193.757 105.901 194.528 105.831 195.298C105.691 195.999 105.551 196.63 105.34 197.26C104.85 198.661 104.009 199.712 103.028 200.413C102.047 201.114 100.856 201.534 99.525 201.534C99.4549 201.534 99.3148 201.534 99.2447 201.534C97.7733 201.534 96.0918 201.044 94.27 200.063C94.2 200.063 94.2 199.993 94.1299 199.993C87.4737 196.279 82.0085 187.031 81.9385 179.463C81.9385 179.113 81.9385 178.693 81.9385 178.342C82.0085 176.661 82.4289 175.259 82.9895 174.138C82.9895 174.068 83.0595 173.998 83.1296 173.928C83.8303 172.667 84.8112 171.756 86.0724 171.266C87.1233 170.845 88.3145 170.705 89.6457 170.915C90.6266 171.056 91.7477 171.406 92.8687 171.966C93.149 172.107 93.4993 172.247 93.7796 172.457C93.9197 172.527 94.0599 172.597 94.27 172.737C94.3401 172.737 94.3401 172.807 94.4102 172.807C99.8052 177.992 104.079 185.279 105.971 192.426C105.971 192.496 105.971 192.496 105.971 192.566C105.971 192.566 105.971 192.776 105.971 192.916Z" fill="#6E6657" stroke="#231F20" stroke-width="0.225612" stroke-miterlimit="10" stroke-linecap="round" stroke-linejoin="round"/>
        <path d="M79.9761 183.667C80.0461 189.343 84.11 196.209 89.0846 199.012C91.7471 200.483 94.0593 200.553 95.6708 199.362C96.4415 198.802 97.002 198.031 97.4224 196.98C97.5626 196.56 97.7027 196.069 97.7728 195.509C97.8428 194.948 97.9129 194.387 97.9129 193.757C97.8428 188.082 93.779 181.215 88.8044 178.412C88.5942 178.272 88.384 178.202 88.1037 178.062C87.2629 177.642 86.4221 177.432 85.7215 177.291C84.7405 177.151 83.8297 177.221 83.059 177.572C81.0971 178.412 79.906 180.514 79.9761 183.667Z" fill="#928874" stroke="#231F20" stroke-width="0.225612" stroke-miterlimit="10" stroke-linecap="round" stroke-linejoin="round"/>
        <path d="M83.0591 177.572C83.8298 177.221 84.7407 177.151 85.7216 177.292C86.4923 177.432 87.263 177.642 88.1038 178.062C88.314 178.202 88.5242 178.272 88.8045 178.413C93.7791 181.215 97.843 188.082 97.913 193.757C97.913 194.388 97.843 194.948 97.7729 195.509C97.7028 195.999 97.5627 196.49 97.4226 196.98C97.0722 198.031 96.4416 198.802 95.6709 199.362L100.505 196.49L100.576 196.42C102.187 195.509 103.168 193.477 103.168 190.604C103.098 184.929 99.0341 178.062 94.0594 175.26C91.8874 174.069 89.9255 173.788 88.3841 174.419L87.1229 175.12L83.0591 177.572Z" fill="url(#paint3_linear_1_19911)" stroke="#231F20" stroke-width="0.225612" stroke-miterlimit="10" stroke-linecap="round" stroke-linejoin="round"/>
        <path d="M105.971 192.496C105.971 192.426 105.971 192.426 105.901 192.356C103.939 185.139 99.6649 177.922 94.3399 172.737C94.2698 172.667 94.1997 172.667 94.1997 172.597C92.2379 170.705 90.1359 169.164 87.9639 167.903C87.4734 167.622 86.9829 167.412 86.5626 167.202C84.8109 166.361 83.1293 165.801 81.5178 165.59C79.4859 165.31 77.5941 165.52 75.9826 166.151H75.9126C71.8487 167.833 69.3264 172.317 69.3964 178.903C69.5366 190.814 78.0846 205.248 88.5244 211.133C94.0596 214.216 99.0343 214.286 102.467 211.834C104.079 210.713 105.27 209.031 106.111 206.859C106.461 205.948 106.741 204.897 106.882 203.776C107.092 202.655 107.162 201.394 107.162 200.063C107.022 197.61 106.671 195.018 105.971 192.496ZM97.2826 203.706C95.1106 205.248 91.9576 205.248 88.3843 203.216C81.728 199.502 76.2629 190.254 76.1928 182.686C76.1228 178.483 77.7343 175.61 80.3267 174.559C81.0974 174.209 82.0083 174.068 82.9892 174.068C83.0593 174.068 83.1293 174.068 83.1994 174.068C83.4096 174.068 83.6899 174.068 83.9001 174.138C84.881 174.279 86.002 174.629 87.1231 175.119C87.4033 175.26 87.7537 175.4 88.0339 175.61C94.6902 179.323 100.155 188.572 100.225 196.139C100.225 196.279 100.225 196.419 100.225 196.559C100.225 197.26 100.155 197.891 100.085 198.521C99.9451 199.222 99.805 199.853 99.5948 200.483C99.4547 200.834 99.3145 201.114 99.1744 201.464C98.6839 202.445 98.0533 203.146 97.2826 203.706Z" fill="#231F20" stroke="#231F20" stroke-width="0.225612" stroke-miterlimit="10" stroke-linecap="round" stroke-linejoin="round"/>
        <path d="M124.678 198.732C125.169 198.521 125.659 198.241 126.15 197.891L124.678 198.732ZM105.901 192.286C103.939 185.069 99.6648 177.852 94.3398 172.667C94.2698 172.597 94.1997 172.597 94.1997 172.527V172.597C94.48 173.788 94.9004 174.909 95.3208 176.1C97.0724 180.865 99.805 185.489 103.098 189.413C104.009 190.464 104.99 191.515 105.971 192.496C105.971 192.496 105.971 192.496 106.041 192.496C105.971 192.426 105.971 192.356 105.901 192.286ZM97.4227 153.469C97.3527 153.469 97.3527 153.539 97.3527 153.539C98.0533 153.119 98.6839 152.768 99.0342 152.558C99.1043 152.558 99.1043 152.488 99.1744 152.488C99.2444 152.418 99.3145 152.418 99.3145 152.418C99.3846 152.418 99.3846 152.348 99.4546 152.348L99.5247 152.278C98.824 152.558 98.1234 152.909 97.4227 153.469Z" fill="#231F20" stroke="#231F20" stroke-width="0.225612" stroke-miterlimit="10" stroke-linecap="round" stroke-linejoin="round"/>
        <path d="M127.901 196.419C127.761 196.559 127.621 196.63 127.551 196.7C127.691 196.63 127.761 196.559 127.901 196.419Z" fill="url(#paint4_linear_1_19911)" stroke="#231F20" stroke-width="0.225612" stroke-miterlimit="10" stroke-linecap="round" stroke-linejoin="round"/>
        <path d="M130.774 186.12C130.774 187.451 130.704 188.712 130.494 189.833C130.354 190.954 130.074 191.935 129.723 192.916C128.953 195.088 127.691 196.77 126.08 197.891L124.609 198.732L102.328 211.764C103.939 210.643 105.13 208.961 105.971 206.789C106.321 205.878 106.602 204.827 106.742 203.706C106.952 202.585 107.022 201.324 107.022 199.993C107.022 197.54 106.602 195.018 105.901 192.426C105.901 192.356 105.901 192.356 105.831 192.285C103.869 185.069 99.5951 177.852 94.2701 172.667C94.2 172.597 94.1299 172.597 94.1299 172.527C92.1681 170.635 90.0661 169.094 87.8941 167.833C87.4036 167.552 86.9132 167.342 86.4928 167.132C84.7411 166.291 83.0595 165.731 81.448 165.52C79.4161 165.24 77.5244 165.45 75.9128 166.081H75.8428L97.423 153.399C97.353 153.399 97.353 153.469 97.353 153.469C98.0536 153.049 98.6842 152.698 99.0345 152.488C99.1046 152.488 99.1046 152.418 99.1747 152.418C99.2447 152.348 99.3148 152.348 99.3148 152.348C99.3849 152.348 99.3849 152.278 99.4549 152.278L99.525 152.208C101.207 151.507 103.098 151.297 105.13 151.577C106.742 151.787 108.423 152.348 110.175 153.189C110.665 153.399 111.086 153.679 111.576 153.889C113.818 155.151 115.99 156.762 117.952 158.724C123.347 163.909 127.621 171.196 129.513 178.342C130.354 181.005 130.774 183.667 130.774 186.12Z" fill="url(#paint5_linear_1_19911)" stroke="#231F20" stroke-width="0.225612" stroke-miterlimit="10" stroke-linecap="round" stroke-linejoin="round"/>
        <path d="M99.0341 152.558C98.6137 152.768 98.0532 153.119 97.3525 153.539L97.4226 153.469L99.0341 152.558Z" fill="#C49A6C" stroke="#231F20" stroke-width="0.225612" stroke-miterlimit="10" stroke-linecap="round" stroke-linejoin="round"/>
        <path opacity="0.2" d="M112.487 154.66L94.0594 164.82L91.6772 166.221L49.2173 142.119L37.0259 135.182L39.4782 133.641L57.9055 123.131L112.487 154.66Z" fill="black" stroke="#231F20" stroke-width="0.210688" stroke-miterlimit="10"/>
        <path d="M114.378 147.093L94.0594 158.163L91.6772 159.565L49.2173 135.462L37.0259 128.526L39.4782 127.054L59.8673 115.563L114.378 147.093Z" fill="#F1F2F2" stroke="#231F20" stroke-width="0.201439" stroke-miterlimit="10" stroke-linecap="round" stroke-linejoin="round"/>
        <path d="M114.379 147.093V150.386L94.3397 161.176L94.0595 161.387V187.101L91.6772 188.362V159.565L94.0595 158.164L114.379 147.093Z" fill="#F1F2F2" stroke="#231F20" stroke-width="0.201439" stroke-miterlimit="10" stroke-linecap="round" stroke-linejoin="round"/>
        <path d="M91.6772 159.565V188.362L39.4782 158.514L37.0259 157.112V128.526L49.2173 135.462L91.6772 159.565Z" fill="#F1F2F2" stroke="#231F20" stroke-width="0.201439" stroke-miterlimit="10" stroke-linecap="round" stroke-linejoin="round"/>
        <path opacity="0.14" d="M91.6772 159.565V188.362L39.4782 158.514L37.0259 157.112V128.526L49.2173 135.462L91.6772 159.565Z" fill="black" stroke="#231F20" stroke-width="0.201439" stroke-miterlimit="10"/>
    </g>
    <defs>
        <linearGradient id="paint0_linear_1_19911" x1="45.0143" y1="150.209" x2="54.584" y2="167.727" gradientUnits="userSpaceOnUse">
            <stop stop-color="#C2B59B"/>
            <stop offset="1" stop-color="#49443A"/>
        </linearGradient>
        <linearGradient id="paint1_linear_1_19911" x1="82.9435" y1="170.37" x2="82.8004" y2="170.64" gradientUnits="userSpaceOnUse">
            <stop stop-color="#58595B"/>
            <stop offset="1"/>
        </linearGradient>
        <linearGradient id="paint2_linear_1_19911" x1="60.512" y1="175.121" x2="56.1537" y2="120.38" gradientUnits="userSpaceOnUse">
            <stop/>
            <stop offset="1" stop-color="#58595B"/>
        </linearGradient>
        <linearGradient id="paint3_linear_1_19911" x1="89.8624" y1="176.281" x2="99.432" y2="193.799" gradientUnits="userSpaceOnUse">
            <stop stop-color="#C2B59B"/>
            <stop offset="1" stop-color="#49443A"/>
        </linearGradient>
        <linearGradient id="paint4_linear_1_19911" x1="127.792" y1="196.442" x2="127.649" y2="196.711" gradientUnits="userSpaceOnUse">
            <stop stop-color="#58595B"/>
            <stop offset="1"/>
        </linearGradient>
        <linearGradient id="paint5_linear_1_19911" x1="105.08" y1="207.98" x2="102.096" y2="153.144" gradientUnits="userSpaceOnUse">
            <stop/>
            <stop offset="1" stop-color="#58595B"/>
        </linearGradient>
        <clipPath id="">
            <rect width="106.5" height="98.1621" fill="white" transform="translate(24.4141 115.493)"/>
        </clipPath>
    </defs>


    <g clip-path="url(#)">
        <path d="M132.666 58.8801L98.4043 78.8489L58.1865 55.587L92.5888 35.6884L132.666 58.8801Z" fill="#F7F7F7" stroke="#231F20" stroke-width="0.17068" stroke-miterlimit="10" stroke-linecap="round" stroke-linejoin="round"/>
        <path d="M106.602 94.1933V127.755L75.773 109.888V99.0979L67.5053 94.3334L58.1865 88.8683V55.587L98.4043 78.8489L101.767 85.1548L106.602 94.1933Z" fill="#F7F7F7" stroke="#231F20" stroke-width="0.17068" stroke-miterlimit="10" stroke-linecap="round" stroke-linejoin="round"/>
        <path opacity="0.2" d="M106.602 94.1933V127.755L75.773 109.888V99.0979L67.5053 94.3334L58.1865 88.8683V55.587L98.4043 78.8489L101.767 85.1548L106.602 94.1933Z" fill="black" stroke="#231F20" stroke-width="0.210688" stroke-miterlimit="10"/>
        <path d="M141.074 74.5748V107.856L106.602 127.755V94.1932L112.067 91.1103L141.074 74.5748Z" fill="#F7F7F7" stroke="#231F20" stroke-width="0.17068" stroke-miterlimit="10" stroke-linecap="round" stroke-linejoin="round"/>
        <path d="M141.074 74.5749L112.067 91.1104L106.602 94.1933L101.767 85.1548L98.4043 78.8489L132.666 58.8801L136.59 66.3071L141.074 74.5749Z" fill="#F7F7F7" stroke="#231F20" stroke-width="0.17068" stroke-miterlimit="10" stroke-linecap="round" stroke-linejoin="round"/>
        <path opacity="0.2" d="M120.125 116.614L113.328 120.468L111.997 108.066C111.647 104.984 112.207 101.901 113.539 99.098L117.112 91.671L120.125 116.614Z" fill="black" stroke="#231F20" stroke-width="0.210688" stroke-miterlimit="10"/>
        <path d="M127.482 109.397C127.482 110.588 127.342 111.639 127.132 112.55C126.712 113.952 126.081 115.003 125.17 115.773C123.839 116.824 122.087 117.175 119.985 116.614C119.565 116.544 119.144 116.404 118.724 116.194C118.234 115.983 117.743 115.773 117.253 115.493L116.902 91.6707C117.393 91.9509 117.883 92.2312 118.374 92.5815C119.355 93.2822 120.265 94.123 121.176 95.0338C123.629 97.6262 125.59 100.919 126.641 104.282C127.132 106.034 127.482 107.716 127.482 109.397Z" fill="#F1F2F2" stroke="#231F20" stroke-width="0.210688" stroke-miterlimit="10" stroke-linecap="round" stroke-linejoin="round"/>
        <path opacity="0.2" d="M127.482 109.397C127.482 110.588 127.342 111.639 127.132 112.55C126.712 113.952 126.081 115.003 125.17 115.773C123.839 116.824 122.087 117.175 119.985 116.614C119.565 116.544 119.144 116.404 118.724 116.194C118.234 115.983 117.743 115.773 117.253 115.493L116.902 91.6707C117.393 91.9509 117.883 92.2312 118.374 92.5815C119.355 93.2822 120.265 94.123 121.176 95.0338C123.629 97.6262 125.59 100.919 126.641 104.282C127.132 106.034 127.482 107.716 127.482 109.397Z" fill="black" stroke="#231F20" stroke-width="0.210688" stroke-miterlimit="10"/>
        <path d="M138.412 108.136C138.202 108.276 137.922 108.416 137.711 108.557L138.412 108.136Z" fill="white" stroke="#231F20" stroke-width="0.210688" stroke-miterlimit="10"/>
        <path d="M141.075 101.55C141.075 102.741 140.935 103.862 140.654 104.773C140.234 106.244 139.463 107.365 138.412 108.136L137.712 108.557L133.368 111.009L130.915 112.41L125.1 115.703C126.011 115.003 126.711 113.882 127.062 112.48C127.342 111.569 127.482 110.518 127.412 109.327C127.412 107.716 127.062 105.964 126.501 104.283C126.361 103.932 126.291 103.582 126.151 103.232C125.03 100.219 123.208 97.3461 121.106 95.0339C120.265 94.123 119.284 93.2822 118.303 92.5816C117.813 92.2313 117.322 91.951 116.832 91.6707L118.303 90.8299L120.195 89.7089L130.425 83.8234C136.24 87.1165 140.935 95.0339 141.075 101.55Z" fill="#F1F2F2" stroke="#231F20" stroke-width="0.210688" stroke-miterlimit="10" stroke-linecap="round" stroke-linejoin="round"/>
        <path opacity="0.2" d="M133.367 111.009L130.915 112.41L125.1 115.703C126.01 115.003 126.711 113.882 127.061 112.48C127.342 111.57 127.482 110.519 127.412 109.327C127.412 107.716 127.061 105.964 126.501 104.283C126.361 103.932 126.291 103.582 126.151 103.232L127.412 100.639L133.367 111.009Z" fill="black" stroke="#231F20" stroke-width="0.210688" stroke-miterlimit="10"/>
        <path d="M136.17 115.003C135.959 114.933 135.749 114.793 135.539 114.652L136.17 115.003Z" fill="white" stroke="#231F20" stroke-width="0.175375" stroke-miterlimit="10"/>
        <path d="M146.189 103.792C146.189 107.646 143.526 112.41 140.163 114.372C138.692 115.213 137.29 115.423 136.239 115.003L135.609 114.652C134.628 113.952 134.067 112.69 134.067 110.869C134.067 107.015 136.73 102.251 140.093 100.289C141.564 99.448 142.826 99.2378 143.877 99.5882C145.278 100.079 146.189 101.55 146.189 103.792Z" fill="#58595B" stroke="#231F20" stroke-width="0.175375" stroke-miterlimit="10" stroke-linecap="round" stroke-linejoin="round"/>
        <path d="M143.877 99.5883C142.826 99.2379 141.495 99.4481 140.093 100.289C136.73 102.251 134.068 107.015 134.068 110.869C134.068 112.691 134.698 113.952 135.609 114.652L128.883 111.079C129.163 110.168 129.303 109.117 129.233 107.926C129.233 106.315 128.883 104.563 128.322 102.881C128.112 102.111 127.762 101.34 127.481 100.639C128.602 98.6774 130.144 96.9258 131.826 95.9448C133.437 95.034 134.908 94.8939 135.959 95.3843L136.17 95.5244L143.877 99.5883Z" fill="url(#paint0_linear_1_19911)" stroke="#231F20" stroke-width="0.175375" stroke-miterlimit="10" stroke-linecap="round" stroke-linejoin="round"/>
        <path d="M153.195 121.799C153.055 121.729 152.845 121.659 152.705 121.519L153.195 121.799Z" fill="white" stroke="#231F20" stroke-width="0.133826" stroke-miterlimit="10"/>
        <path d="M160.763 113.251C160.763 116.194 158.731 119.837 156.138 121.309C155.017 121.939 153.966 122.079 153.125 121.799L152.635 121.519C151.934 121.028 151.444 119.977 151.444 118.646C151.444 115.703 153.476 112.06 156.068 110.589C157.189 109.958 158.17 109.818 158.941 110.098C160.062 110.448 160.763 111.569 160.763 113.251Z" fill="#58595B" stroke="#231F20" stroke-width="0.133826" stroke-miterlimit="10" stroke-linecap="round" stroke-linejoin="round"/>
        <path d="M159.781 113.882C159.781 116.194 158.17 119.066 156.208 120.188C155.297 120.678 154.527 120.818 153.896 120.538L153.546 120.328C152.985 119.907 152.635 119.137 152.635 118.086C152.635 115.773 154.246 112.901 156.208 111.78C157.049 111.289 157.89 111.149 158.45 111.359C159.221 111.64 159.781 112.55 159.781 113.882Z" fill="#231F20" stroke="#231F20" stroke-width="0.133826" stroke-miterlimit="10"/>
        <path d="M159.011 110.098C158.24 109.818 157.189 109.958 156.138 110.589C153.616 112.06 151.514 115.703 151.514 118.646C151.514 120.047 152.004 121.028 152.705 121.519L137.571 113.391C136.59 112.971 135.959 111.92 135.889 110.238C135.889 107.295 137.921 103.652 140.513 102.181C141.705 101.48 142.826 101.34 143.666 101.76L143.877 101.83L159.011 110.098Z" fill="url(#paint1_linear_1_19911)" stroke="#231F20" stroke-width="0.133826" stroke-miterlimit="10" stroke-linecap="round" stroke-linejoin="round"/>
        <path opacity="0.2" d="M93.0091 69.3901C102.374 69.3901 109.965 64.9984 109.965 59.5809C109.965 54.1635 102.374 49.7717 93.0091 49.7717C83.6446 49.7717 76.0532 54.1635 76.0532 59.5809C76.0532 64.9984 83.6446 69.3901 93.0091 69.3901Z" fill="black" stroke="#231F20" stroke-width="0.201439" stroke-miterlimit="10"/>
        <path d="M115.711 55.7274C115.711 56.2879 115.641 56.8485 115.501 57.3389C115.361 57.8995 115.08 58.46 114.8 58.9504C113.959 60.4218 112.558 61.7531 110.526 62.9442C103.589 66.9379 92.449 66.9379 85.5125 62.9442C83.4806 61.8231 82.0793 60.4218 81.2385 58.9504C80.9582 58.3899 80.678 57.8995 80.5378 57.3389C80.3977 56.7784 80.3276 56.2879 80.3276 55.7274C80.3276 54.7465 80.6079 53.6955 81.0984 52.7146C81.2385 52.4343 81.4487 52.084 81.6589 51.8037C81.729 51.7337 81.799 51.5935 81.8691 51.5235L82.0092 51.5935L84.6717 53.135L87.6145 51.5235V49.5616L85.7928 48.5106C86.1431 48.3004 86.4234 48.1603 86.7737 48.0202C87.124 47.8801 87.4743 47.6699 87.8247 47.5297C88.0349 47.4597 88.2451 47.3896 88.4553 47.3195L91.9586 49.1412L94.9013 47.5297V45.8481C100.437 45.2876 106.322 46.1985 110.596 48.6508C114.029 50.5426 115.711 53.135 115.711 55.7274Z" fill="#F1F2F2" stroke="#231F20" stroke-width="0.201439" stroke-miterlimit="10" stroke-linecap="round" stroke-linejoin="round"/>
        <path d="M115.711 55.7274V58.9504C115.711 61.5429 113.959 64.2054 110.526 66.1672C103.589 70.161 92.449 70.161 85.5125 66.1672C82.0793 64.2054 80.3276 61.5429 80.3276 58.9504V55.7274C80.3276 56.2879 80.3977 56.8485 80.5378 57.3389C80.678 57.8995 80.8882 58.46 81.2385 58.9504C82.0793 60.4218 83.4806 61.7531 85.5125 62.9442C92.449 66.9379 103.589 66.9379 110.526 62.9442C112.558 61.8231 113.959 60.4218 114.8 58.9504C115.08 58.3899 115.361 57.8995 115.501 57.3389C115.641 56.8485 115.711 56.2879 115.711 55.7274Z" fill="#F1F2F2" stroke="#231F20" stroke-width="0.201439" stroke-miterlimit="10" stroke-linecap="round" stroke-linejoin="round"/>
        <path d="M87.6141 49.4916V51.4534L84.6714 53.135V51.1732L87.6141 49.4916Z" fill="#F1F2F2" stroke="#231F20" stroke-width="0.201439" stroke-miterlimit="10" stroke-linecap="round" stroke-linejoin="round"/>
        <path d="M84.6714 51.1731V53.1349L82.0089 51.6635L81.9388 51.5935L80.7477 50.8928V52.5043L78.1553 51.0329V47.3895L82.4994 49.9119L83.1299 50.2622L84.6714 51.1731Z" fill="#F1F2F2" stroke="#231F20" stroke-width="0.201439" stroke-miterlimit="10" stroke-linecap="round" stroke-linejoin="round"/>
        <path d="M94.8307 45.6379L94.6205 45.708L91.958 47.3195L90.5567 46.4787L89.6458 45.9883L85.4419 43.5359L88.3146 41.8544L92.6587 44.3067L94.8307 45.6379Z" fill="#F1F2F2" stroke="#231F20" stroke-width="0.201439" stroke-miterlimit="10" stroke-linecap="round" stroke-linejoin="round"/>
        <path d="M94.8309 45.7079V47.3895L91.8882 49.001V47.2493L94.6207 45.7079C94.6908 45.7079 94.7609 45.7079 94.8309 45.7079Z" fill="#F1F2F2" stroke="#231F20" stroke-width="0.201439" stroke-miterlimit="10" stroke-linecap="round" stroke-linejoin="round"/>
        <path d="M94.8313 45.6379V45.708C94.7612 45.708 94.6912 45.708 94.6211 45.708L94.8313 45.6379Z" fill="#F1F2F2" stroke="#231F20" stroke-width="0.201439" stroke-miterlimit="10" stroke-linecap="round" stroke-linejoin="round"/>
        <path d="M88.385 47.1793C88.1748 47.2494 87.9646 47.3194 87.7544 47.3895V46.829L87.8945 46.899L88.385 47.1793Z" fill="#F1F2F2" stroke="#231F20" stroke-width="0.201439" stroke-miterlimit="10" stroke-linecap="round" stroke-linejoin="round"/>
        <path d="M87.6142 49.4914L84.6714 51.173L83.1299 50.2622L82.4994 49.9118L78.1553 47.3895L81.098 45.7079L85.5122 48.3003L85.7224 48.4405L87.6142 49.4914Z" fill="#F1F2F2" stroke="#231F20" stroke-width="0.201439" stroke-miterlimit="10" stroke-linecap="round" stroke-linejoin="round"/>
        <path d="M91.9583 47.3194V49.0711L88.455 47.2494L87.9645 46.9691L87.7543 46.829V47.3895C87.404 47.5296 87.0536 47.6698 86.7033 47.88L86.4231 47.7398L85.3721 47.1092V43.4658L89.576 45.9181L90.4869 46.4086L91.9583 47.3194Z" fill="#F1F2F2" stroke="#231F20" stroke-width="0.201439" stroke-miterlimit="10" stroke-linecap="round" stroke-linejoin="round"/>
        <path opacity="0.2" d="M84.6714 51.1731V53.1349L82.0089 51.6635L81.9388 51.5935L80.7477 50.8928V52.5043L78.1553 51.0329V47.3895L82.4994 49.9119L83.1299 50.2622L84.6714 51.1731Z" fill="black" stroke="#231F20" stroke-width="0.201439" stroke-miterlimit="10"/>
        <path opacity="0.2" d="M91.9583 47.3194V49.0711L88.455 47.2494L87.9645 46.9691L87.7543 46.829V47.3895C87.404 47.5296 87.0536 47.6698 86.7033 47.88L86.4231 47.7398L85.3721 47.1092V43.4658L89.576 45.9181L90.4869 46.4086L91.9583 47.3194Z" fill="black" stroke="#231F20" stroke-width="0.201439" stroke-miterlimit="10"/>
        <path d="M81.9387 51.5935C81.8686 51.6635 81.7985 51.8037 81.7285 51.8737L80.7476 52.5043V50.8928L81.9387 51.5935Z" fill="#F1F2F2" stroke="#231F20" stroke-width="0.201439" stroke-miterlimit="10" stroke-linecap="round" stroke-linejoin="round"/>
        <path d="M115.71 55.7274V58.9504C115.71 61.5429 113.959 64.2054 110.525 66.1672C103.589 70.161 92.4485 70.161 85.512 66.1672C82.0788 64.2054 80.3271 61.5429 80.3271 58.9504V55.7274C80.3271 56.2879 80.3972 56.8485 80.5373 57.3389C80.6775 57.8995 80.8877 58.46 81.238 58.9504C82.0788 60.4218 83.4801 61.7531 85.512 62.9442C92.4485 66.9379 103.589 66.9379 110.525 62.9442C112.557 61.8231 113.959 60.4218 114.8 58.9504C115.08 58.3899 115.36 57.8995 115.5 57.3389C115.64 56.8485 115.71 56.2879 115.71 55.7274Z" fill="#F1F2F2" stroke="#231F20" stroke-width="0.201439" stroke-miterlimit="10" stroke-linecap="round" stroke-linejoin="round"/>
        <path opacity="0.14" d="M100.856 65.8169V69.0399C95.4614 69.5304 89.716 68.6195 85.512 66.1672C82.0788 64.2054 80.3271 61.5429 80.3271 58.9504V55.7274C80.3271 56.2879 80.3972 56.8485 80.5373 57.3389C80.6775 57.8995 80.8877 58.46 81.238 58.9504C82.0788 60.4218 83.4801 61.7531 85.512 62.9442C89.716 65.3965 95.4614 66.3073 100.856 65.8169Z" fill="black" stroke="#231F20" stroke-width="0.201439" stroke-miterlimit="10"/>
        <path d="M106.602 99.6585V107.366L58.1865 79.3394V71.7023L106.602 99.6585Z" fill="#939598" stroke="#231F20" stroke-width="0.17068" stroke-miterlimit="10"/>
    </g>
    <defs>
        <linearGradient id="paint0_linear_1_19911" x1="130.223" y1="109.983" x2="137.877" y2="96.2737" gradientUnits="userSpaceOnUse">
            <stop stop-color="#59595C"/>
            <stop offset="0.3636" stop-color="#221F1F"/>
            <stop offset="0.6738" stop-color="#808184"/>
            <stop offset="1" stop-color="#424143"/>
        </linearGradient>
        <linearGradient id="paint1_linear_1_19911" x1="144.066" y1="115.585" x2="149.667" y2="104.963" gradientUnits="userSpaceOnUse">
            <stop stop-color="#59595C"/>
            <stop offset="0.3636" stop-color="#221F1F"/>
            <stop offset="0.6738" stop-color="#808184"/>
            <stop offset="1" stop-color="#424143"/>
        </linearGradient>
        <clipPath id="">
            <rect width="102.786" height="92.2766" fill="white" transform="translate(58.0459 35.6184)"/>
        </clipPath>
    </defs>

</svg>
