<svg width="230" height="230" viewBox="0 0 230 230" fill="none"
    xmlns="http://www.w3.org/2000/svg">

    <g clip-path="url(#)">
        <path d="M108.774 114.372C108.774 114.372 104.36 109.958 103.589 118.226C102.889 126.564 102.889 126.564 102.889 126.564L111.156 139.035L120.896 140.086L121.596 135.042L108.774 114.372Z" fill="#49443A" stroke="#231F20" stroke-width="0.162342" stroke-miterlimit="10" stroke-linecap="round" stroke-linejoin="round"/>
        <path d="M126.221 129.576C126.221 130.207 126.221 130.767 126.081 131.258C126.011 131.748 125.871 132.239 125.731 132.659C125.38 133.64 124.82 134.411 124.049 134.971C123.348 135.462 122.508 135.742 121.527 135.742C121.457 135.742 121.386 135.742 121.316 135.742C120.265 135.742 119.004 135.392 117.743 134.691C117.743 134.691 117.673 134.691 117.673 134.621C112.838 131.959 108.915 125.302 108.845 119.837C108.845 119.557 108.845 119.277 108.845 119.066C108.915 117.875 109.195 116.894 109.615 116.054C109.615 115.984 109.686 115.984 109.686 115.914C110.176 115.003 110.947 114.372 111.787 114.022C112.558 113.741 113.399 113.601 114.38 113.741C115.081 113.812 115.921 114.092 116.692 114.442C116.902 114.512 117.112 114.652 117.323 114.792C117.463 114.863 117.533 114.933 117.673 115.003L117.743 115.073C121.597 118.786 124.68 124.041 126.081 129.226V129.296C126.151 129.366 126.221 129.436 126.221 129.576Z" fill="#6E6657" stroke="#231F20" stroke-width="0.162342" stroke-miterlimit="10" stroke-linecap="round" stroke-linejoin="round"/>
        <path d="M107.443 122.92C107.513 126.984 110.456 131.959 113.959 133.92C115.851 134.971 117.533 134.971 118.724 134.201C119.284 133.78 119.705 133.22 119.985 132.519C120.125 132.169 120.195 131.818 120.265 131.468C120.335 131.048 120.335 130.627 120.335 130.207C120.265 126.143 117.323 121.168 113.819 119.207C113.679 119.136 113.469 119.066 113.329 118.926C112.698 118.646 112.138 118.436 111.577 118.366C110.877 118.296 110.246 118.366 109.685 118.576C108.284 119.136 107.443 120.678 107.443 122.92Z" fill="#928874" stroke="#231F20" stroke-width="0.162342" stroke-miterlimit="10" stroke-linecap="round" stroke-linejoin="round"/>
        <path d="M109.686 118.576C110.246 118.366 110.877 118.296 111.577 118.366C112.138 118.436 112.698 118.646 113.329 118.926C113.469 118.996 113.679 119.067 113.819 119.207C117.393 121.239 120.336 126.143 120.336 130.207C120.336 130.627 120.336 131.118 120.265 131.468C120.195 131.819 120.125 132.169 119.985 132.519C119.705 133.29 119.285 133.85 118.724 134.201L122.227 132.099H122.297C123.489 131.398 124.189 129.997 124.119 127.895C124.119 123.831 121.176 118.926 117.603 116.894C116.062 116.054 114.66 115.844 113.539 116.264L112.698 116.824L109.686 118.576Z" fill="url(#paint0_linear_1_19911)" stroke="#231F20" stroke-width="0.162342" stroke-miterlimit="10" stroke-linecap="round" stroke-linejoin="round"/>
        <path d="M126.221 129.296C126.221 129.226 126.221 129.226 126.221 129.156C124.82 123.971 121.737 118.786 117.883 115.003C117.813 114.933 117.813 114.933 117.743 114.863C116.342 113.531 114.8 112.34 113.259 111.499C112.908 111.289 112.558 111.149 112.208 110.939C110.947 110.308 109.685 109.958 108.564 109.818C107.093 109.608 105.762 109.748 104.571 110.238C104.571 110.238 104.571 110.238 104.501 110.238C101.558 111.429 99.8062 114.652 99.8062 119.417C99.9463 128.105 106.112 138.475 113.609 142.679C117.603 144.921 121.176 144.921 123.629 143.169C124.75 142.328 125.66 141.137 126.221 139.596C126.501 138.895 126.641 138.194 126.781 137.424C126.922 136.583 126.992 135.742 126.992 134.761C126.992 132.94 126.711 131.118 126.221 129.296ZM119.915 137.354C118.374 138.475 116.061 138.475 113.539 137.003C108.775 134.341 104.851 127.685 104.781 122.219C104.711 119.207 105.902 117.105 107.794 116.334C108.354 116.124 108.985 115.984 109.685 115.984C109.755 115.984 109.826 115.984 109.826 115.984C109.966 115.984 110.176 115.984 110.316 116.054C111.017 116.124 111.787 116.404 112.628 116.754C112.838 116.824 113.049 116.965 113.259 117.105C118.023 119.767 121.947 126.423 122.017 131.889C122.017 131.959 122.017 132.099 122.017 132.169C122.017 132.659 121.947 133.15 121.877 133.57C121.807 134.061 121.667 134.551 121.527 134.971C121.456 135.252 121.316 135.462 121.246 135.672C120.966 136.443 120.476 137.003 119.915 137.354Z" fill="#231F20" stroke="#231F20" stroke-width="0.162342" stroke-miterlimit="10" stroke-linecap="round" stroke-linejoin="round"/>
        <path d="M133.088 137.704C133.438 137.564 133.788 137.354 134.139 137.073L133.088 137.704ZM126.151 129.156C124.75 123.971 121.667 118.786 117.813 115.003C117.743 114.933 117.743 114.933 117.673 114.863C117.673 114.863 117.673 114.863 117.673 114.933C117.883 115.773 118.164 116.614 118.444 117.455C119.705 120.888 121.667 124.181 124.049 126.984C124.68 127.755 125.38 128.525 126.081 129.156C126.221 129.226 126.221 129.226 126.151 129.156ZM113.539 105.124L113.469 105.194C113.96 104.913 114.38 104.633 114.66 104.493C114.73 104.493 114.73 104.423 114.8 104.423C114.871 104.423 114.871 104.353 114.941 104.353L115.011 104.283L115.081 104.213C114.52 104.423 113.96 104.703 113.539 105.124Z" fill="#231F20" stroke="#231F20" stroke-width="0.162342" stroke-miterlimit="10" stroke-linecap="round" stroke-linejoin="round"/>
        <path d="M135.399 136.022C135.329 136.093 135.189 136.163 135.189 136.233C135.259 136.163 135.329 136.093 135.399 136.022Z" fill="url(#paint1_linear_1_19911)" stroke="#231F20" stroke-width="0.162342" stroke-miterlimit="10" stroke-linecap="round" stroke-linejoin="round"/>
        <path d="M137.502 128.595C137.502 129.576 137.432 130.417 137.292 131.258C137.152 132.029 136.941 132.799 136.731 133.43C136.171 134.971 135.26 136.233 134.139 137.003L133.088 137.634L123.629 143.169C124.75 142.328 125.661 141.137 126.221 139.596C126.502 138.895 126.642 138.195 126.782 137.424C126.922 136.583 126.992 135.742 126.992 134.761C126.992 133.01 126.712 131.188 126.221 129.296C126.221 129.226 126.221 129.226 126.221 129.156C124.82 123.971 121.737 118.786 117.884 115.003C117.813 114.933 117.813 114.933 117.743 114.863C116.342 113.531 114.801 112.34 113.259 111.499C112.909 111.289 112.559 111.149 112.208 110.939C110.947 110.308 109.686 109.958 108.565 109.818C107.093 109.608 105.762 109.748 104.571 110.238C104.571 110.238 104.571 110.238 104.501 110.238L113.469 105.053L113.399 105.123C113.89 104.843 114.31 104.563 114.59 104.423C114.661 104.423 114.661 104.353 114.731 104.353C114.801 104.353 114.801 104.283 114.871 104.283L114.941 104.213L115.011 104.143C116.202 103.652 117.533 103.512 119.075 103.722C120.196 103.862 121.457 104.283 122.718 104.843C123.068 104.983 123.419 105.194 123.769 105.404C125.381 106.315 126.922 107.506 128.393 108.907C132.247 112.621 135.33 117.875 136.731 123.06C137.222 124.952 137.502 126.774 137.502 128.595Z" fill="url(#paint2_linear_1_19911)" stroke="#231F20" stroke-width="0.162342" stroke-miterlimit="10" stroke-linecap="round" stroke-linejoin="round"/>
        <path d="M114.66 104.423C114.38 104.563 113.96 104.843 113.469 105.124L113.539 105.053L114.66 104.423Z" fill="#C49A6C" stroke="#231F20" stroke-width="0.162342" stroke-miterlimit="10" stroke-linecap="round" stroke-linejoin="round"/>
        <path d="M128.463 135.742C128.463 136.653 128.393 137.494 128.322 138.335L94.0603 118.997C93.9202 117.875 93.8501 116.824 93.8501 115.773C93.8501 110.238 95.8119 106.315 98.9649 104.563L99.105 104.493C101.277 103.302 104.01 103.092 107.093 104.002C108.424 104.423 109.755 104.983 111.156 105.824C116.902 109.117 122.017 115.353 125.169 122.149C127.271 126.634 128.463 131.398 128.463 135.742Z" fill="#F1F2F2" stroke="#231F20" stroke-width="0.120163" stroke-miterlimit="10" stroke-linecap="round" stroke-linejoin="round"/>
        <path d="M141.215 128.525C141.215 129.436 141.144 130.277 141.074 131.118L128.322 138.335C128.392 137.494 128.463 136.653 128.463 135.742C128.463 131.328 127.271 126.634 125.169 122.15C122.016 115.353 116.902 109.117 111.156 105.824C109.755 105.053 108.424 104.423 107.092 104.002C104.01 103.092 101.277 103.302 99.105 104.493L111.296 97.5564L112.207 97.066C115.29 95.5946 119.354 95.9449 123.908 98.5373C133.437 104.073 141.215 117.525 141.215 128.525Z" fill="#F1F2F2" stroke="#231F20" stroke-width="0.120163" stroke-miterlimit="10" stroke-linecap="round" stroke-linejoin="round"/>
        <path d="M128.463 135.742C128.463 136.653 128.393 137.494 128.322 138.335L94.0603 118.997C93.9202 117.875 93.8501 116.824 93.8501 115.773C93.8501 110.238 95.8119 106.315 98.9649 104.563L99.105 104.493C101.277 103.302 104.01 103.092 107.093 104.002C108.424 104.423 109.755 104.983 111.156 105.824C116.902 109.117 122.017 115.353 125.169 122.149C127.271 126.634 128.463 131.398 128.463 135.742Z" fill="#F1F2F2" stroke="#231F20" stroke-width="0.120163" stroke-miterlimit="10" stroke-linecap="round" stroke-linejoin="round"/>
        <path opacity="0.14" d="M128.463 135.742C128.463 136.653 128.393 137.494 128.322 138.335L94.0603 118.997C93.9202 117.875 93.8501 116.824 93.8501 115.773C93.8501 110.238 95.8119 106.315 98.9649 104.563L99.105 104.493C101.277 103.302 104.01 103.092 107.093 104.002C108.424 104.423 109.755 104.983 111.156 105.824C116.902 109.117 122.017 115.353 125.169 122.149C127.271 126.634 128.463 131.398 128.463 135.742Z" fill="black" stroke="#231F20" stroke-width="0.163954" stroke-miterlimit="10"/>
        <path d="M158.169 142.259C158.169 142.259 153.755 137.844 152.985 146.112C152.214 154.38 152.214 154.45 152.214 154.45L160.482 166.922L170.221 167.973L170.921 162.928L158.169 142.259Z" fill="#49443A" stroke="#231F20" stroke-width="0.162342" stroke-miterlimit="10" stroke-linecap="round" stroke-linejoin="round"/>
        <path d="M175.546 157.393C175.546 158.023 175.546 158.584 175.406 159.074C175.336 159.565 175.195 160.055 175.055 160.476C174.705 161.457 174.144 162.227 173.374 162.788C172.673 163.278 171.832 163.559 170.851 163.559C170.781 163.559 170.711 163.559 170.641 163.559C169.59 163.559 168.329 163.208 167.068 162.508C167.068 162.508 166.998 162.508 166.998 162.438C162.233 159.775 158.239 153.189 158.169 147.724C158.169 147.443 158.169 147.163 158.169 146.953C158.239 145.762 158.52 144.781 158.94 143.94C158.94 143.87 159.01 143.87 159.01 143.8C159.501 142.889 160.271 142.259 161.112 141.908C161.883 141.628 162.724 141.488 163.705 141.628C164.405 141.698 165.246 141.978 166.017 142.329C166.227 142.399 166.437 142.539 166.647 142.679C166.788 142.749 166.858 142.819 166.998 142.889L167.068 142.959C170.921 146.673 174.004 151.928 175.406 157.113V157.183C175.546 157.183 175.546 157.323 175.546 157.393Z" fill="#6E6657" stroke="#231F20" stroke-width="0.162342" stroke-miterlimit="10" stroke-linecap="round" stroke-linejoin="round"/>
        <path d="M156.838 150.807C156.908 154.871 159.851 159.845 163.354 161.807C165.246 162.858 166.927 162.858 168.118 162.087C168.679 161.667 169.099 161.106 169.38 160.406C169.52 160.055 169.59 159.705 169.66 159.355C169.73 158.934 169.73 158.514 169.73 158.094C169.66 154.03 166.717 149.055 163.214 147.093C163.074 147.023 162.863 146.953 162.723 146.813C162.093 146.533 161.532 146.323 160.972 146.252C160.271 146.182 159.64 146.252 159.08 146.463C157.679 146.953 156.768 148.495 156.838 150.807Z" fill="#928874" stroke="#231F20" stroke-width="0.162342" stroke-miterlimit="10" stroke-linecap="round" stroke-linejoin="round"/>
        <path d="M159.01 146.392C159.57 146.182 160.201 146.112 160.902 146.182C161.462 146.252 162.023 146.463 162.653 146.743C162.793 146.813 163.004 146.883 163.144 147.023C166.717 149.055 169.66 153.96 169.66 158.023C169.66 158.444 169.66 158.934 169.59 159.285C169.52 159.635 169.45 159.985 169.309 160.336C169.029 161.106 168.609 161.667 168.048 162.017L171.552 159.915H171.622C172.813 159.215 173.513 157.813 173.443 155.711C173.373 151.647 170.43 146.673 166.927 144.711C165.386 143.87 163.984 143.66 162.863 144.08L161.953 144.641L159.01 146.392Z" fill="url(#paint3_linear_1_19911)" stroke="#231F20" stroke-width="0.162342" stroke-miterlimit="10" stroke-linecap="round" stroke-linejoin="round"/>
        <path d="M175.546 157.113C175.546 157.042 175.546 157.042 175.546 156.972C174.144 151.788 171.061 146.603 167.208 142.819C167.138 142.749 167.138 142.749 167.068 142.679C165.666 141.348 164.125 140.157 162.583 139.316C162.233 139.106 161.883 138.966 161.532 138.755C160.271 138.125 159.01 137.774 157.889 137.634C156.418 137.424 155.086 137.564 153.895 138.055C153.895 138.055 153.895 138.055 153.825 138.055C150.883 139.246 149.131 142.469 149.131 147.233C149.201 155.851 155.367 166.221 162.864 170.425C166.857 172.667 170.431 172.737 172.883 170.915C174.004 170.075 174.915 168.884 175.476 167.342C175.756 166.641 175.896 165.941 176.036 165.17C176.176 164.329 176.246 163.489 176.246 162.508C176.316 160.826 176.036 158.934 175.546 157.113ZM169.31 165.24C167.768 166.361 165.456 166.361 162.934 164.89C158.169 162.227 154.246 155.571 154.176 150.106C154.106 147.093 155.297 144.991 157.188 144.22C157.749 144.01 158.38 143.87 159.08 143.87C159.15 143.87 159.22 143.87 159.22 143.87C159.36 143.87 159.571 143.87 159.711 143.94C160.411 144.01 161.182 144.291 162.023 144.641C162.233 144.711 162.443 144.851 162.654 144.991C167.418 147.654 171.342 154.31 171.412 159.775C171.412 159.845 171.412 159.985 171.412 160.055C171.412 160.546 171.342 161.036 171.272 161.457C171.202 161.947 171.061 162.438 170.921 162.858C170.851 163.138 170.711 163.348 170.641 163.559C170.291 164.259 169.8 164.82 169.31 165.24Z" fill="#231F20" stroke="#231F20" stroke-width="0.162342" stroke-miterlimit="10" stroke-linecap="round" stroke-linejoin="round"/>
        <path d="M182.412 165.52C182.763 165.38 183.113 165.17 183.463 164.89L182.412 165.52ZM175.546 157.042C174.145 151.858 171.062 146.673 167.208 142.889C167.138 142.819 167.138 142.819 167.068 142.749C167.068 142.749 167.068 142.749 167.068 142.819C167.278 143.66 167.558 144.501 167.839 145.341C169.1 148.775 171.062 152.068 173.444 154.87C174.075 155.641 174.775 156.412 175.476 157.042C175.546 157.112 175.546 157.042 175.546 157.042ZM162.864 132.94L162.794 133.01C163.284 132.73 163.705 132.449 163.985 132.309C164.055 132.309 164.055 132.239 164.125 132.239C164.195 132.239 164.195 132.169 164.265 132.169L164.335 132.099L164.405 132.029C163.845 132.239 163.284 132.589 162.864 132.94Z" fill="#231F20" stroke="#231F20" stroke-width="0.162342" stroke-miterlimit="10" stroke-linecap="round" stroke-linejoin="round"/>
        <path d="M184.724 163.839C184.654 163.909 184.514 163.979 184.514 164.049C184.584 163.979 184.654 163.909 184.724 163.839Z" fill="url(#paint4_linear_1_19911)" stroke="#231F20" stroke-width="0.162342" stroke-miterlimit="10" stroke-linecap="round" stroke-linejoin="round"/>
        <path d="M186.827 156.482C186.827 157.463 186.757 158.304 186.616 159.144C186.476 159.915 186.266 160.686 186.056 161.317C185.495 162.858 184.585 164.119 183.464 164.89L182.413 165.52L172.954 171.056C174.075 170.215 174.986 169.024 175.546 167.482C175.826 166.782 175.966 166.081 176.107 165.31C176.247 164.469 176.317 163.629 176.317 162.648C176.317 160.896 176.037 159.074 175.546 157.183C175.546 157.113 175.546 157.113 175.546 157.043C174.145 151.858 171.062 146.673 167.208 142.889C167.138 142.819 167.138 142.819 167.068 142.749C165.667 141.418 164.125 140.227 162.584 139.386C162.234 139.176 161.883 139.036 161.533 138.825C160.272 138.195 159.011 137.844 157.889 137.704C156.418 137.494 155.087 137.634 153.896 138.125C153.896 138.125 153.896 138.125 153.826 138.125L162.794 132.94L162.724 133.01C163.214 132.73 163.635 132.449 163.915 132.309C163.985 132.309 163.985 132.239 164.055 132.239C164.125 132.239 164.125 132.169 164.195 132.169L164.265 132.099L164.336 132.029C165.527 131.539 166.858 131.398 168.399 131.609C169.52 131.749 170.782 132.169 172.043 132.73C172.393 132.87 172.743 133.08 173.094 133.29C174.705 134.201 176.247 135.392 177.718 136.793C181.572 140.507 184.655 145.762 186.056 150.947C186.546 152.768 186.827 154.66 186.827 156.482Z" fill="url(#paint5_linear_1_19911)" stroke="#231F20" stroke-width="0.162342" stroke-miterlimit="10" stroke-linecap="round" stroke-linejoin="round"/>
        <path d="M163.985 132.239C163.705 132.379 163.284 132.66 162.794 132.94L162.864 132.87L163.985 132.239Z" fill="#C49A6C" stroke="#231F20" stroke-width="0.162342" stroke-miterlimit="10" stroke-linecap="round" stroke-linejoin="round"/>
        <path d="M177.788 163.629C177.788 164.539 177.718 165.38 177.648 166.221L143.386 146.883C143.246 145.762 143.176 144.711 143.176 143.66C143.176 138.125 145.138 134.201 148.291 132.449L148.431 132.309C150.603 131.118 153.335 130.908 156.418 131.819C157.749 132.239 159.081 132.8 160.482 133.64C166.227 136.934 171.342 143.169 174.495 149.966C176.597 154.45 177.788 159.214 177.788 163.629Z" fill="#F1F2F2" stroke="#231F20" stroke-width="0.120163" stroke-miterlimit="10" stroke-linecap="round" stroke-linejoin="round"/>
        <path d="M177.788 163.629C177.788 164.539 177.718 165.38 177.648 166.221L143.386 146.883C143.246 145.762 143.176 144.711 143.176 143.66C143.176 138.125 145.138 134.201 148.291 132.449L148.431 132.309C150.603 131.118 153.335 130.908 156.418 131.819C157.749 132.239 159.081 132.8 160.482 133.64C166.227 136.934 171.342 143.169 174.495 149.966C176.597 154.45 177.788 159.214 177.788 163.629Z" fill="#F1F2F2" stroke="#231F20" stroke-width="0.120163" stroke-miterlimit="10" stroke-linecap="round" stroke-linejoin="round"/>
        <path opacity="0.14" d="M177.788 163.629C177.788 164.539 177.718 165.38 177.648 166.221L143.386 146.883C143.246 145.762 143.176 144.711 143.176 143.66C143.176 138.125 145.138 134.201 148.291 132.449L148.431 132.309C150.603 131.118 153.335 130.908 156.418 131.819C157.749 132.239 159.081 132.8 160.482 133.64C166.227 136.934 171.342 143.169 174.495 149.966C176.597 154.45 177.788 159.214 177.788 163.629Z" fill="black" stroke="#231F20" stroke-width="0.163954" stroke-miterlimit="10"/>
        <path d="M190.54 156.342C190.54 157.253 190.47 158.093 190.4 158.934L177.648 166.151C177.718 165.31 177.788 164.469 177.788 163.559C177.788 159.144 176.597 154.45 174.495 149.966C171.342 143.169 166.227 136.934 160.482 133.64C159.081 132.8 157.749 132.239 156.418 131.819C153.335 130.908 150.603 131.118 148.431 132.309L160.622 125.443L161.533 124.952C164.616 123.481 168.75 123.831 173.234 126.424C182.763 131.959 190.54 145.341 190.54 156.342Z" fill="#F1F2F2" stroke="#231F20" stroke-width="0.120163" stroke-miterlimit="10" stroke-linecap="round" stroke-linejoin="round"/>
        <path d="M176.738 159.705L176.177 160.055C176.107 160.055 176.107 160.055 176.037 160.055C176.317 159.915 176.528 159.845 176.738 159.705Z" fill="#F1F2F2" stroke="#231F20" stroke-width="0.227924" stroke-miterlimit="10" stroke-linecap="round" stroke-linejoin="round"/>
        <path d="M176.738 159.705L176.177 160.055C176.107 160.055 176.107 160.055 176.037 160.055C176.317 159.915 176.528 159.845 176.738 159.705Z" fill="#F1F2F2" stroke="#231F20" stroke-width="0.227924" stroke-miterlimit="10" stroke-linecap="round" stroke-linejoin="round"/>
        <path d="M176.738 159.705L176.177 160.055C176.107 160.055 176.107 160.055 176.037 160.055C176.317 159.915 176.528 159.845 176.738 159.705Z" fill="#F1F2F2" stroke="#231F20" stroke-width="0.227924" stroke-miterlimit="10" stroke-linecap="round" stroke-linejoin="round"/>
        <path d="M176.738 159.705L176.177 160.055C176.107 160.055 176.107 160.055 176.037 160.055C176.317 159.915 176.528 159.845 176.738 159.705Z" fill="#F1F2F2" stroke="#231F20" stroke-width="0.227924" stroke-miterlimit="10" stroke-linecap="round" stroke-linejoin="round"/>
        <path d="M176.738 159.705L176.177 160.055C176.107 160.055 176.107 160.055 176.037 160.055C176.317 159.915 176.528 159.845 176.738 159.705Z" fill="#F1F2F2" stroke="#231F20" stroke-width="0.227924" stroke-miterlimit="10" stroke-linecap="round" stroke-linejoin="round"/>
        <path d="M171.623 156.342C171.623 157.253 171.553 158.163 171.412 159.004C171.342 159.495 171.202 159.915 171.132 160.335C170.992 160.896 170.782 161.386 170.572 161.877C170.431 162.157 170.291 162.437 170.151 162.718C169.941 163.138 169.661 163.488 169.381 163.839C168.96 164.329 168.4 164.75 167.839 165.1L167.699 165.17C165.247 166.571 161.954 166.361 158.24 164.189C157.75 163.909 157.329 163.629 156.909 163.348L108.633 135.462C108.353 135.322 108.073 135.182 107.793 134.972C100.296 130.698 94.27 120.258 94.27 111.71C94.27 109.958 94.4802 108.487 94.9707 107.226C95.6013 105.334 96.7223 103.932 98.1236 103.092C98.1937 103.092 98.1937 103.022 98.2638 103.022C98.8944 102.671 99.525 102.461 100.226 102.321C100.366 102.181 100.576 102.181 100.786 102.111C100.996 102.111 101.207 102.041 101.417 102.041L103.589 101.83L104.079 101.76L110.946 101.2L111.436 101.13L115.29 100.78H117.111L120.405 100.499L126.08 100.079C126.43 100.009 126.71 100.009 127.061 100.009C127.201 100.009 127.411 100.009 127.621 100.009C128.602 100.009 129.583 100.219 130.704 100.639C131.545 100.92 132.456 101.34 133.367 101.83C134.628 102.601 135.889 103.512 137.08 104.563C138.061 105.474 138.972 106.455 139.883 107.506L139.953 107.576C140.163 107.856 140.443 108.136 140.654 108.417L152.284 123.13L152.985 124.041L154.737 126.213L155.087 126.634L157.609 129.857L160.062 132.94L163.705 137.564C164.336 138.195 164.896 138.895 165.457 139.666C165.877 140.156 166.228 140.717 166.578 141.207C169.451 145.481 171.412 150.526 171.693 155.151C171.553 155.501 171.623 155.921 171.623 156.342Z" fill="#F1F2F2" stroke="#231F20" stroke-width="0.227924" stroke-miterlimit="10" stroke-linecap="round" stroke-linejoin="round"/>
        <path opacity="0.14" d="M171.623 156.342C171.623 157.253 171.553 158.163 171.412 159.004C171.342 159.495 171.202 159.915 171.132 160.335C170.992 160.896 170.782 161.386 170.572 161.877C170.431 162.157 170.291 162.437 170.151 162.718C169.941 163.138 169.661 163.488 169.381 163.839C168.96 164.329 168.4 164.75 167.839 165.1L167.699 165.17C165.247 166.571 161.954 166.361 158.24 164.189C157.75 163.909 157.329 163.629 156.909 163.348L108.633 135.462C108.353 135.322 108.073 135.182 107.793 134.972C100.296 130.698 94.27 120.258 94.27 111.71C94.27 109.958 94.4802 108.487 94.9707 107.226C95.6013 105.334 96.7223 103.932 98.1236 103.092C98.1937 103.092 98.1937 103.022 98.2638 103.022C98.8944 102.671 99.525 102.461 100.226 102.321C100.366 102.181 100.576 102.181 100.786 102.111C100.996 102.111 101.207 102.041 101.417 102.041L103.589 101.83L104.079 101.76L110.946 101.2L111.436 101.13L115.29 100.78H117.111L120.405 100.499L126.08 100.079C126.43 100.009 126.71 100.009 127.061 100.009C127.201 100.009 127.411 100.009 127.621 100.009C128.602 100.009 129.583 100.219 130.704 100.639C131.545 100.92 132.456 101.34 133.367 101.83C134.628 102.601 135.889 103.512 137.08 104.563C138.061 105.474 138.972 106.455 139.883 107.506L139.953 107.576C140.163 107.856 140.443 108.136 140.654 108.417L152.284 123.13L152.985 124.041L154.737 126.213L155.087 126.634L157.609 129.857L160.062 132.94L163.705 137.564C164.336 138.195 164.896 138.895 165.457 139.666C165.877 140.156 166.228 140.717 166.578 141.207C169.451 145.481 171.412 150.526 171.693 155.151C171.553 155.501 171.623 155.921 171.623 156.342Z" fill="black" stroke="#231F20" stroke-width="0.227924" stroke-miterlimit="10"/>
        <path d="M180.731 151.017C180.731 155.291 179.26 158.233 176.878 159.705L176.738 159.775C176.527 159.915 176.317 159.985 176.037 160.125C176.107 160.125 176.107 160.125 176.177 160.125L171.903 162.648L170.922 163.208L169.591 163.979L167.769 165.03C168.33 164.68 168.82 164.259 169.311 163.769C169.591 163.418 169.871 163.068 170.081 162.648C170.221 162.367 170.362 162.087 170.502 161.807C170.712 161.316 170.922 160.826 171.062 160.265C171.202 159.845 171.272 159.425 171.343 158.934C171.483 158.093 171.553 157.253 171.553 156.272C171.553 155.851 171.553 155.431 171.483 155.01C171.202 150.386 169.241 145.341 166.368 141.067C166.018 140.507 165.597 140.016 165.247 139.526C164.686 138.825 164.126 138.125 163.495 137.424L159.852 132.8L157.399 129.717L154.877 126.494L154.527 126.073L152.775 123.901L152.074 122.99L140.444 108.277C140.233 107.996 140.023 107.716 139.743 107.436L139.673 107.366C138.832 106.315 137.851 105.334 136.87 104.423C135.679 103.372 134.488 102.461 133.157 101.69C132.246 101.2 131.405 100.78 130.494 100.499C129.443 100.149 128.392 99.9388 127.411 99.8687C127.201 99.8687 127.061 99.8687 126.851 99.8687C126.5 99.8687 126.22 99.9388 125.87 99.9388L120.194 100.429L117.112 100.78L115.22 100.92L111.366 101.27L110.876 101.34L104.009 101.901L103.519 101.971L101.347 102.181C101.137 102.181 100.926 102.181 100.716 102.251C100.506 102.251 100.366 102.321 100.156 102.321C99.455 102.461 98.8244 102.741 98.1938 103.022L100.226 101.831L107.302 97.6266C108.073 97.2062 108.914 96.926 109.825 96.7858C110.035 96.7858 110.245 96.7158 110.455 96.7158L111.086 96.6457L113.889 96.4355L115.5 96.2954L126.08 95.4546L129.163 95.1743L130.424 95.1042L135.189 94.6838C135.539 94.6138 135.819 94.6138 136.169 94.6138C138.061 94.5437 140.163 95.1743 142.405 96.4355C144.718 97.7667 146.96 99.7286 148.851 102.111L148.921 102.181C149.132 102.461 149.412 102.741 149.622 103.022L154.667 109.398L161.954 118.646L163.705 120.888L165.877 123.621L168.89 127.475L172.604 132.169C173.655 133.29 174.636 134.551 175.476 135.812C175.546 135.883 175.546 135.953 175.617 135.953C176.037 136.583 176.387 137.144 176.738 137.774C178.699 141.137 180.031 144.851 180.451 148.354C180.661 149.265 180.731 150.106 180.731 151.017Z" fill="#F1F2F2" stroke="#231F20" stroke-width="0.227924" stroke-miterlimit="10" stroke-linecap="round" stroke-linejoin="round"/>
    </g>
    <defs>
        <linearGradient id="paint0_linear_1_19911" x1="114.611" y1="117.625" x2="121.497" y2="130.231" gradientUnits="userSpaceOnUse">
            <stop stop-color="#C2B59B"/>
            <stop offset="1" stop-color="#49443A"/>
        </linearGradient>
        <linearGradient id="paint1_linear_1_19911" x1="135.337" y1="136.023" x2="135.234" y2="136.217" gradientUnits="userSpaceOnUse">
            <stop stop-color="#58595B"/>
            <stop offset="1"/>
        </linearGradient>
        <linearGradient id="paint2_linear_1_19911" x1="122.194" y1="140.834" x2="120.221" y2="104.589" gradientUnits="userSpaceOnUse">
            <stop/>
            <stop offset="1" stop-color="#58595B"/>
        </linearGradient>
        <linearGradient id="paint3_linear_1_19911" x1="163.948" y1="145.468" x2="170.834" y2="158.074" gradientUnits="userSpaceOnUse">
            <stop stop-color="#C2B59B"/>
            <stop offset="1" stop-color="#49443A"/>
        </linearGradient>
        <linearGradient id="paint4_linear_1_19911" x1="184.675" y1="163.866" x2="184.572" y2="164.06" gradientUnits="userSpaceOnUse">
            <stop stop-color="#58595B"/>
            <stop offset="1"/>
        </linearGradient>
        <linearGradient id="paint5_linear_1_19911" x1="171.531" y1="168.677" x2="169.559" y2="132.432" gradientUnits="userSpaceOnUse">
            <stop/>
            <stop offset="1" stop-color="#58595B"/>
        </linearGradient>
        <clipPath id="">
            <rect width="96.8309" height="77.9131" fill="white" transform="translate(93.7793 94.4736)"/>
        </clipPath>
    </defs>


    <g clip-path="url(#)">
        <path d="M95.9521 163.138C95.8821 163.068 95.7419 163.068 95.6719 162.998C95.7419 162.998 95.7419 163.068 95.812 163.068C95.8821 163.068 95.8821 163.068 95.9521 163.138Z" fill="#F1F2F2" stroke="#231F20" stroke-width="0.201439" stroke-miterlimit="10" stroke-linecap="round" stroke-linejoin="round"/>
        <path d="M125.73 154.17L125.66 154.1L121.806 149.125L117.112 143.099L106.322 129.366L105.971 129.156L102.678 127.264L71.1488 109.047L53.9126 113.391V127.755L58.7471 136.443L122.647 183.177L129.373 172.036V158.794L125.73 154.17ZM95.6718 162.998C95.7419 162.998 95.7419 163.068 95.8119 163.068C95.882 163.068 95.882 163.138 95.9521 163.138C95.882 163.068 95.7419 162.998 95.6718 162.998Z" fill="#F1F2F2" stroke="#231F20" stroke-width="0.201439" stroke-miterlimit="10" stroke-linecap="round" stroke-linejoin="round"/>
        <path opacity="0.14" d="M125.73 154.17L125.66 154.1L121.806 149.125L117.112 143.099L106.322 129.366L105.971 129.156L102.678 127.264L71.1488 109.047L53.9126 113.391V127.755L58.7471 136.443L122.647 183.177L129.373 172.036V158.794L125.73 154.17ZM95.6718 162.998C95.7419 162.998 95.7419 163.068 95.8119 163.068C95.882 163.068 95.882 163.138 95.9521 163.138C95.882 163.068 95.7419 162.998 95.6718 162.998Z" fill="black" stroke="#231F20" stroke-width="0.0802954" stroke-miterlimit="10"/>
        <path d="M172.533 134.551L129.653 158.584L129.373 158.724L125.73 154.1L106.321 129.366L107.793 128.526L108.143 128.315L110.035 127.264L110.525 126.984L113.118 125.583L118.022 122.85L120.405 121.519L123.137 119.977L126.29 118.226L131.825 115.143L132.666 114.652L133.857 114.022L135.329 113.251L137.01 112.34L138.341 111.64L144.507 108.206L149.972 105.194L150.112 105.334L152.144 107.926L161.813 120.258L163.425 122.29L165.877 125.443L169.871 130.557C170.642 131.538 171.342 132.519 171.973 133.57C172.043 133.851 172.323 134.201 172.533 134.551Z" fill="#F7F7F7" stroke="#231F20" stroke-width="0.201439" stroke-miterlimit="10" stroke-linecap="round" stroke-linejoin="round"/>
        <path d="M125.73 154.17L125.659 154.1L121.806 149.125L117.111 143.099L106.321 129.366L125.73 154.17Z" fill="#F1F2F2" stroke="#231F20" stroke-width="0.201439" stroke-miterlimit="10" stroke-linecap="round" stroke-linejoin="round"/>
        <path d="M138.762 98.6776L128.672 92.8621L128.532 92.7921L114.659 84.7345C114.379 84.8746 106.462 89.569 97.4231 94.824C85.582 101.69 71.9192 109.398 71.1484 108.977L102.678 127.194L105.971 129.086L106.321 129.296L107.793 128.456L108.143 128.245L110.035 127.194L110.525 126.914L113.118 125.513L118.022 122.78L120.405 121.449L123.137 119.908L126.29 118.156L131.825 115.073L132.666 114.583L133.857 113.952L135.329 113.181L137.01 112.27L138.341 111.57L144.507 108.136L149.972 105.124L138.762 98.6776Z" fill="#F1F2F2" stroke="#231F20" stroke-width="0.201439" stroke-miterlimit="10" stroke-linecap="round" stroke-linejoin="round"/>
        <path d="M114.66 84.7345C114.379 84.8746 106.462 89.569 97.4234 94.824C85.5823 101.69 71.9195 109.398 71.1488 108.977L53.9126 113.391L97.4234 89.1486L114.66 84.7345Z" fill="#F1F2F2" stroke="#231F20" stroke-width="0.201439" stroke-miterlimit="10" stroke-linecap="round" stroke-linejoin="round"/>
        <path d="M136.169 138.055L136.239 150.947C138.341 149.685 162.374 136.863 162.374 136.863L162.304 125.022L136.169 138.055ZM159.782 135.042C159.782 135.042 144.297 143.31 139.042 146.182L138.972 140.577L155.438 131.959L159.782 129.717V135.042Z" fill="#F1F2F2" stroke="#231F20" stroke-width="0.201439" stroke-miterlimit="10" stroke-linecap="round" stroke-linejoin="round"/>
        <path d="M159.781 135.042C159.781 135.042 144.297 143.31 139.042 146.182V141.558L155.437 132.8L159.781 135.042Z" fill="#939598" stroke="#231F20" stroke-width="0.0802954" stroke-miterlimit="10"/>
        <path d="M159.711 129.647L159.781 135.042L155.437 132.8V131.959L159.711 129.647Z" fill="#4F4C4D" stroke="#231F20" stroke-width="0.0802954" stroke-miterlimit="10"/>
        <path d="M155.438 131.959V132.8L138.972 141.558V140.577L155.438 131.959Z" fill="#231F20" stroke="#231F20" stroke-width="0.0802954" stroke-miterlimit="10" stroke-linecap="round" stroke-linejoin="round"/>
        <path d="M136.169 138.055V137.774L120.264 128.105C120.194 128.035 120.124 127.965 120.054 127.895L144.017 115.073L162.304 125.022L136.169 138.055Z" fill="#F1F2F2" stroke="#231F20" stroke-width="0.201439" stroke-miterlimit="10" stroke-linecap="round" stroke-linejoin="round"/>
        <path d="M136.17 137.774L136.24 150.947C136.24 150.947 124.609 133.22 120.265 128.105L136.17 137.774Z" fill="#F1F2F2" stroke="#231F20" stroke-width="0.201439" stroke-miterlimit="10" stroke-linecap="round" stroke-linejoin="round"/>
        <path opacity="0.14" d="M136.17 137.774L136.24 150.947C136.24 150.947 124.609 133.22 120.265 128.105L136.17 137.774Z" fill="black" stroke="#231F20" stroke-width="0.0802954" stroke-miterlimit="10"/>
        <path d="M79.697 100.079C79.697 100.009 79.697 100.009 79.697 100.079C78.9963 99.7986 78.2256 99.9388 77.3148 100.429C77.0345 100.569 76.8243 100.78 76.544 100.92C76.474 100.99 76.4039 100.99 76.3338 101.06C76.1937 101.13 76.1236 101.27 75.9835 101.34C75.9134 101.41 75.9134 101.41 75.8434 101.48C75.7733 101.55 75.7733 101.55 75.7032 101.62C75.423 101.901 75.1427 102.251 74.9325 102.601C74.8625 102.671 74.8625 102.741 74.7924 102.811C74.7223 102.952 74.6523 103.092 74.5121 103.232C74.5121 103.302 74.4421 103.302 74.4421 103.372C74.372 103.442 74.372 103.512 74.372 103.582C74.3019 103.722 74.2319 103.792 74.2319 103.933C74.1618 104.003 74.1618 104.073 74.1618 104.143C74.2319 104.213 74.1618 104.283 74.1618 104.353C74.0217 104.633 73.9516 104.913 73.8815 105.124C73.8815 105.194 73.8115 105.264 73.8115 105.334C73.8115 105.474 73.7414 105.544 73.7414 105.684C73.7414 105.684 73.7414 105.684 73.6713 105.684L65.7539 108.207V101.48C65.7539 101.41 65.7539 101.34 65.7539 101.27C65.7539 101.2 65.7539 101.13 65.7539 101.13C65.7539 101.06 65.7539 101.06 65.7539 100.99C65.7539 100.71 65.824 100.429 65.894 100.149C65.894 100.079 65.9641 100.009 65.9641 99.9388C66.0342 99.6585 66.1042 99.3783 66.2444 99.1681C66.2444 99.098 66.3144 99.0279 66.3144 98.8878C66.3144 98.8177 66.3845 98.7477 66.3845 98.6776C66.4546 98.5375 66.5246 98.4674 66.5246 98.3273C66.5246 98.2572 66.5947 98.1871 66.5947 98.1171C66.5947 98.047 66.6648 98.047 66.6648 97.9769C66.7348 97.8368 66.8049 97.6967 66.945 97.5565C67.0151 97.4865 67.0151 97.4164 67.0852 97.3463C67.2954 96.996 67.5756 96.6457 67.8559 96.3654C67.9259 96.2954 67.9259 96.2954 67.996 96.2253C68.0661 96.1552 68.0661 96.1552 68.1361 96.0852C68.2763 95.945 68.3463 95.875 68.4865 95.8049C68.5565 95.7348 68.6266 95.6648 68.6967 95.6648C68.9069 95.4546 69.1871 95.3144 69.4674 95.1743C69.6776 95.0342 69.9579 94.894 70.168 94.824C70.2381 94.824 70.3082 94.7539 70.3782 94.7539C70.9388 94.6138 71.4292 94.6138 71.8496 94.824L72.4102 95.2444L79.697 100.079Z" fill="#F1F2F2" stroke="#231F20" stroke-width="0.201439" stroke-miterlimit="10" stroke-linecap="round" stroke-linejoin="round"/>
        <path d="M70.168 94.824C70.238 94.824 70.3081 94.7539 70.3782 94.7539C70.3081 94.7539 70.238 94.824 70.168 94.824Z" fill="#F1F2F2" stroke="#231F20" stroke-width="0.201439" stroke-miterlimit="10" stroke-linecap="round" stroke-linejoin="round"/>
        <path d="M80.958 101.76L79.7669 102.461L75.0024 105.054L73.7412 105.754C73.7412 105.614 73.8113 105.544 73.8113 105.404C73.8113 105.334 73.8813 105.264 73.8813 105.194C73.9514 104.913 74.0215 104.633 74.1616 104.423C74.1616 104.353 74.2317 104.283 74.2317 104.213C74.2317 104.143 74.3017 104.073 74.3017 104.003C74.3718 103.862 74.4419 103.792 74.4419 103.652C74.4419 103.582 74.5119 103.512 74.5119 103.442C74.5119 103.372 74.582 103.372 74.582 103.302C74.6521 103.162 74.7221 103.022 74.8623 102.881C74.9323 102.811 74.9323 102.741 75.0024 102.671C75.2126 102.321 75.4929 101.971 75.7731 101.69C75.8432 101.62 75.8432 101.62 75.9132 101.55C75.9833 101.48 75.9833 101.48 76.0534 101.41C76.1935 101.27 76.2636 101.2 76.4037 101.13C76.4738 101.06 76.5438 100.99 76.6139 100.99C76.8241 100.779 77.1044 100.639 77.3846 100.499C78.2955 100.009 79.0662 99.8686 79.6968 100.079C79.6968 100.079 79.6968 100.079 79.7669 100.079C79.8369 100.079 79.907 100.149 79.9771 100.149L80.1873 100.289C80.5376 100.639 80.8179 101.13 80.958 101.76Z" fill="#F1F2F2" stroke="#231F20" stroke-width="0.201439" stroke-miterlimit="10" stroke-linecap="round" stroke-linejoin="round"/>
        <path opacity="0.14" d="M75.0021 102.671C74.932 102.741 74.932 102.811 74.862 102.811C74.7919 102.952 74.7218 103.092 74.5817 103.232C74.5817 103.302 74.5116 103.302 74.5116 103.372C74.5116 103.442 74.4416 103.512 74.4416 103.582C74.3715 103.722 74.3715 103.792 74.3014 103.932C74.3014 104.003 74.2314 104.073 74.2314 104.143C74.2314 104.213 74.1613 104.283 74.1613 104.353C74.0212 104.633 73.9511 104.913 73.881 105.124C73.881 105.194 73.811 105.264 73.811 105.334C73.811 105.474 73.7409 105.544 73.7409 105.684C73.7409 105.684 73.7409 105.684 73.6708 105.684L65.7534 108.207V101.48C65.7534 101.41 65.7534 101.34 65.7534 101.27C65.7534 101.2 65.7534 101.2 65.7534 101.13C65.7534 101.13 65.7534 101.06 65.7534 100.99C65.7534 100.709 65.8235 100.429 65.8936 100.149C65.8936 100.079 65.8935 100.009 65.9636 99.9387C66.0337 99.6585 66.1037 99.3782 66.2439 99.168C66.2439 99.098 66.3139 99.0279 66.3139 98.8878C66.3139 98.8177 66.384 98.7476 66.384 98.6776C66.4541 98.5374 66.4541 98.4674 66.5241 98.3272C66.5241 98.2572 66.5942 98.1871 66.5942 98.117C66.5942 98.047 66.6643 98.047 66.6643 97.9769C66.7343 97.8368 66.8044 97.6966 66.9445 97.5565C66.9445 97.5565 67.0146 97.4864 67.0146 97.4164L75.0021 102.671Z" fill="black" stroke="#231F20" stroke-width="0.0802954" stroke-miterlimit="10"/>
        <path d="M70.168 94.824C70.238 94.824 70.3081 94.7539 70.3782 94.7539C70.3081 94.7539 70.238 94.824 70.168 94.824Z" fill="#F1F2F2" stroke="#231F20" stroke-width="0.201439" stroke-miterlimit="10" stroke-linecap="round" stroke-linejoin="round"/>
        <path d="M80.9577 101.76L79.7666 102.461L76.964 103.932L74.9321 105.054L73.6709 105.754C73.6709 105.614 73.741 105.544 73.741 105.404C73.741 105.334 73.811 105.264 73.811 105.194C73.8811 104.913 73.9512 104.633 74.0913 104.423C74.0913 104.353 74.1614 104.283 74.1614 104.213C74.1614 104.143 74.2314 104.073 74.2314 104.003C74.3015 103.862 74.3015 103.792 74.3716 103.652C74.3716 103.582 74.4416 103.512 74.4416 103.442C74.4416 103.372 74.5117 103.372 74.5117 103.302C74.5818 103.162 74.6518 103.022 74.792 102.881C74.862 102.811 74.862 102.741 74.9321 102.741C74.9321 102.741 74.9321 102.741 74.9321 102.671C75.1423 102.321 75.4225 101.971 75.7028 101.69C75.7028 101.62 75.7729 101.62 75.8429 101.55C75.913 101.48 75.913 101.48 75.9831 101.41C76.1232 101.34 76.1933 101.2 76.3334 101.13C76.4035 101.06 76.4735 101.06 76.4735 100.99C76.6837 100.779 76.964 100.639 77.2443 100.499C78.1551 100.009 78.9258 99.8686 79.5564 100.079C79.5564 100.079 79.5564 100.079 79.6265 100.079C79.6966 100.079 79.7666 100.149 79.8367 100.149L80.0469 100.289C80.5373 100.639 80.8176 101.13 80.9577 101.76Z" fill="#F1F2F2" stroke="#231F20" stroke-width="0.201439" stroke-miterlimit="10" stroke-linecap="round" stroke-linejoin="round"/>
        <path d="M97.4236 90.2697C96.7229 89.9894 95.9522 90.1296 95.0413 90.62C94.7611 90.7602 94.5509 90.9704 94.2706 91.1105C94.2005 91.1806 94.1305 91.1806 94.0604 91.2506C93.9203 91.3207 93.8502 91.4608 93.7101 91.5309C93.7801 91.671 93.7101 91.671 93.64 91.7411C93.5699 91.8112 93.5699 91.8112 93.4999 91.8812C93.2196 92.1615 92.9393 92.5118 92.7291 92.8621C92.6591 92.9322 92.6591 93.0023 92.589 93.0723C92.519 93.2125 92.4489 93.3526 92.3088 93.4927C92.3088 93.5628 92.2387 93.5628 92.2387 93.6329C92.1686 93.7029 92.1686 93.773 92.1686 93.8431C92.0986 93.9832 92.0285 94.0533 92.0285 94.1934C91.9584 94.2635 91.9584 94.3335 91.9584 94.4036C91.8884 94.4736 91.8884 94.5437 91.8884 94.6138C91.7482 94.894 91.6782 95.1743 91.6081 95.3845C91.6081 95.4546 91.538 95.5246 91.538 95.5947C91.538 95.7348 91.468 95.8049 91.468 95.945C91.468 95.945 91.468 95.945 91.3979 95.945L83.4805 98.3973V91.671C83.4805 91.601 83.4805 91.5309 83.4805 91.4608C83.4805 91.3908 83.4805 91.3207 83.4805 91.3207C83.4805 91.2506 83.4805 91.2506 83.4805 91.1806C83.4805 90.9003 83.5505 90.62 83.6206 90.3398C83.6206 90.2697 83.6907 90.1996 83.6907 90.1296C83.7607 89.8493 83.9009 89.569 83.9709 89.2888C83.9709 89.2187 84.041 89.1487 84.041 89.0085C84.041 88.9385 84.1111 88.8684 84.1111 88.7983C84.1811 88.6582 84.2512 88.5881 84.2512 88.448C84.2512 88.3779 84.3213 88.3079 84.3213 88.2378C84.3213 88.1677 84.3913 88.1677 84.3913 88.0977C84.4614 87.9575 84.5315 87.8174 84.6716 87.6773C84.7417 87.6072 84.7417 87.5371 84.8117 87.4671C85.0219 87.1167 85.3022 86.7664 85.5824 86.4862C85.6525 86.4161 85.6525 86.4161 85.7226 86.346C85.7926 86.276 85.7926 86.276 85.8627 86.2059C86.0028 86.0658 86.0729 85.9957 86.213 85.9256C86.2831 85.8556 86.3532 85.7855 86.4232 85.7855C86.6334 85.5753 86.9137 85.4352 87.194 85.295C87.4042 85.1549 87.6844 85.0148 87.8946 84.9447C87.9647 84.9447 88.0347 84.8746 88.1048 84.8746C88.6653 84.7345 89.1558 84.7345 89.5762 84.9447L90.1367 85.3651L97.4236 90.2697Z" fill="#F1F2F2" stroke="#231F20" stroke-width="0.201439" stroke-miterlimit="10" stroke-linecap="round" stroke-linejoin="round"/>
        <path d="M87.8945 85.0148C87.9646 85.0148 88.0347 84.9447 88.1047 84.9447C88.0347 84.9447 87.9646 85.0148 87.8945 85.0148Z" fill="#F1F2F2" stroke="#231F20" stroke-width="0.201439" stroke-miterlimit="10" stroke-linecap="round" stroke-linejoin="round"/>
        <path d="M98.6845 91.9513L97.4934 92.652L92.729 95.2444L91.4678 95.9451C91.4678 95.805 91.5378 95.7349 91.5378 95.5948C91.5378 95.5247 91.6079 95.4546 91.6079 95.3846C91.678 95.1043 91.748 94.824 91.8882 94.6138C91.8882 94.5438 91.9582 94.4737 91.9582 94.4036C91.9582 94.3336 92.0283 94.2635 92.0283 94.1934C92.0984 94.0533 92.1684 93.9832 92.1684 93.8431C92.1684 93.773 92.2385 93.703 92.2385 93.6329C92.2385 93.5629 92.3086 93.5629 92.3086 93.4928C92.3786 93.3527 92.4487 93.2125 92.5888 93.0724C92.6589 93.0023 92.6589 92.9323 92.729 92.8622C92.9392 92.5119 93.2194 92.1615 93.4997 91.8813C93.5697 91.8112 93.5697 91.8112 93.6398 91.7411C93.7099 91.6711 93.7799 91.6711 93.7799 91.601C93.9201 91.4609 93.9901 91.3908 94.1303 91.3207C94.2003 91.2507 94.2704 91.1806 94.3405 91.1806C94.5507 90.9704 94.8309 90.8303 95.1112 90.6902C96.022 90.1997 96.7928 90.0596 97.4234 90.2698H97.4934C97.5635 90.2698 97.6336 90.3398 97.7036 90.3398L97.9138 90.48C98.2642 90.8303 98.5444 91.3207 98.6845 91.9513Z" fill="#F1F2F2" stroke="#231F20" stroke-width="0.201439" stroke-miterlimit="10" stroke-linecap="round" stroke-linejoin="round"/>
        <path opacity="0.14" d="M93.0795 92.3716C92.9393 92.5118 92.8693 92.6519 92.7291 92.792C92.6591 92.8621 92.6591 92.9322 92.589 93.0022C92.519 93.1424 92.4489 93.2825 92.3088 93.4226C92.3088 93.4927 92.2387 93.4927 92.2387 93.5628C92.2387 93.6328 92.1686 93.7029 92.1686 93.773C92.0986 93.9131 92.0986 93.9832 92.0285 94.1233C92.0285 94.1934 91.9584 94.2634 91.9584 94.3335C91.9584 94.4036 91.8884 94.4736 91.8884 94.5437C91.7482 94.8239 91.6782 95.1042 91.6081 95.3144C91.6081 95.3845 91.538 95.4545 91.538 95.5246C91.538 95.6647 91.468 95.7348 91.468 95.8749C91.468 95.8749 91.468 95.8749 91.3979 95.8749L83.4805 98.3272V91.671C83.4805 91.6009 83.4805 91.5309 83.4805 91.4608C83.4805 91.3907 83.4805 91.3907 83.4805 91.3207C83.4805 91.3207 83.4805 91.2506 83.4805 91.1805C83.4805 90.9003 83.5505 90.62 83.6206 90.3397C83.6206 90.2697 83.6206 90.1996 83.6907 90.1295C83.7607 89.8493 83.9009 89.569 83.9709 89.2888C83.9709 89.2187 84.041 89.1486 84.041 89.0085C84.041 88.9384 84.1111 88.8684 84.1111 88.7983C84.1811 88.6582 84.1811 88.5881 84.2512 88.448C84.2512 88.3779 84.3213 88.3078 84.3213 88.2378C84.3213 88.1677 84.3913 88.1677 84.3913 88.0976C84.4614 87.9575 84.5315 87.8174 84.6716 87.6772C84.6716 87.6072 84.7417 87.6072 84.7417 87.5371L93.0795 92.3716Z" fill="black" stroke="#231F20" stroke-width="0.0802954" stroke-miterlimit="10"/>
        <path d="M87.894 85.0148C87.9641 85.0148 88.0342 84.9447 88.1042 84.9447C88.0342 84.9447 87.9641 85.0148 87.894 85.0148Z" fill="#F1F2F2" stroke="#231F20" stroke-width="0.201439" stroke-miterlimit="10" stroke-linecap="round" stroke-linejoin="round"/>
        <path d="M98.6845 91.9513L97.4934 92.652L95.4615 93.773L92.729 95.3145L91.4678 96.0152C91.4678 95.875 91.5378 95.805 91.5378 95.6648C91.5378 95.5948 91.6079 95.5247 91.6079 95.4546C91.678 95.1744 91.748 94.8941 91.8882 94.6839C91.8882 94.6138 91.9582 94.5438 91.9582 94.4737C91.9582 94.4036 92.0283 94.3336 92.0283 94.2635C92.0984 94.1234 92.0984 94.0533 92.1684 93.9132C92.1684 93.8431 92.2385 93.773 92.2385 93.703C92.2385 93.6329 92.3086 93.6329 92.3086 93.5629C92.3786 93.4227 92.4487 93.2826 92.5888 93.1425C92.6589 93.0724 92.6589 93.0023 92.729 92.9323C92.799 92.7921 92.9392 92.652 93.0793 92.5119C93.2194 92.3017 93.3595 92.1615 93.4997 91.9513C93.4997 91.8813 93.5697 91.8813 93.6398 91.8112C93.7099 91.6711 93.7799 91.6711 93.7799 91.601C93.9201 91.5309 93.9901 91.3908 94.1303 91.3207C94.2003 91.2507 94.2704 91.2507 94.2704 91.1806C94.4806 90.9704 94.7609 90.8303 95.0411 90.6902C95.952 90.1997 96.7227 90.0596 97.3533 90.2698C97.3533 90.2698 97.3533 90.2698 97.4234 90.2698C97.4934 90.2698 97.5635 90.3398 97.6336 90.3398L97.8438 90.48C98.2642 90.8303 98.5444 91.3207 98.6845 91.9513Z" fill="#F1F2F2" stroke="#231F20" stroke-width="0.201439" stroke-miterlimit="10" stroke-linecap="round" stroke-linejoin="round"/>
        <path opacity="0.14" d="M80.9577 101.76L79.7666 102.461L76.964 103.932L74.9321 105.054L73.6709 105.754C73.6709 105.614 73.741 105.544 73.741 105.404C73.741 105.334 73.811 105.264 73.811 105.194C73.8811 104.913 73.9512 104.633 74.0913 104.423C74.0913 104.353 74.1614 104.283 74.1614 104.213C74.1614 104.143 74.2314 104.073 74.2314 104.003C74.3015 103.862 74.3015 103.792 74.3716 103.652C74.3716 103.582 74.4416 103.512 74.4416 103.442C74.4416 103.372 74.5117 103.372 74.5117 103.302C74.5818 103.162 74.6518 103.022 74.792 102.881C74.862 102.811 74.862 102.741 74.9321 102.741C74.9321 102.741 74.9321 102.741 74.9321 102.671C75.1423 102.321 75.4225 101.971 75.7028 101.69C75.7028 101.62 75.7729 101.62 75.8429 101.55C75.913 101.48 75.913 101.48 75.9831 101.41C76.1232 101.34 76.1933 101.2 76.3334 101.13C76.4035 101.06 76.4735 101.06 76.4735 100.99C76.6837 100.779 76.964 100.639 77.2443 100.499C78.1551 100.009 78.9258 99.8686 79.5564 100.079C79.5564 100.079 79.5564 100.079 79.6265 100.079C79.6966 100.079 79.7666 100.149 79.8367 100.149L80.0469 100.289C80.5373 100.639 80.8176 101.13 80.9577 101.76Z" fill="black" stroke="#231F20" stroke-width="0.0802954" stroke-miterlimit="10"/>
        <path opacity="0.14" d="M98.6845 91.9513L97.4934 92.652L95.4615 93.773L92.729 95.3145L91.4678 96.0152C91.4678 95.875 91.5378 95.805 91.5378 95.6648C91.5378 95.5948 91.6079 95.5247 91.6079 95.4546C91.678 95.1744 91.748 94.8941 91.8882 94.6839C91.8882 94.6138 91.9582 94.5438 91.9582 94.4737C91.9582 94.4036 92.0283 94.3336 92.0283 94.2635C92.0984 94.1234 92.0984 94.0533 92.1684 93.9132C92.1684 93.8431 92.2385 93.773 92.2385 93.703C92.2385 93.6329 92.3086 93.6329 92.3086 93.5629C92.3786 93.4227 92.4487 93.2826 92.5888 93.1425C92.6589 93.0724 92.6589 93.0023 92.729 92.9323C92.799 92.7921 92.9392 92.652 93.0793 92.5119C93.2194 92.3017 93.3595 92.1615 93.4997 91.9513C93.4997 91.8813 93.5697 91.8813 93.6398 91.8112C93.7099 91.6711 93.7799 91.6711 93.7799 91.601C93.9201 91.5309 93.9901 91.3908 94.1303 91.3207C94.2003 91.2507 94.2704 91.2507 94.2704 91.1806C94.4806 90.9704 94.7609 90.8303 95.0411 90.6902C95.952 90.1997 96.7227 90.0596 97.3533 90.2698C97.3533 90.2698 97.3533 90.2698 97.4234 90.2698C97.4934 90.2698 97.5635 90.3398 97.6336 90.3398L97.8438 90.48C98.2642 90.8303 98.5444 91.3207 98.6845 91.9513Z" fill="black" stroke="#231F20" stroke-width="0.0802954" stroke-miterlimit="10"/>
        <path d="M172.534 134.551V147.794L135.679 168.533L129.373 172.036V158.794L129.653 158.584L172.534 134.551Z" fill="#F7F7F7" stroke="#231F20" stroke-width="0.201439" stroke-miterlimit="10" stroke-linecap="round" stroke-linejoin="round"/>
        <path d="M172.534 147.794V147.864L165.457 159.144L137.991 174.559L122.647 183.177L129.373 172.036L135.679 168.533L172.534 147.794Z" fill="#F7F7F7" stroke="#231F20" stroke-width="0.201439" stroke-miterlimit="10" stroke-linecap="round" stroke-linejoin="round"/>
        <path d="M172.534 147.794V147.864L165.457 159.144L137.991 174.559L122.647 183.177L129.373 172.036L135.679 168.533L172.534 147.794Z" fill="#F7F7F7" stroke="#231F20" stroke-width="0.201439" stroke-miterlimit="10" stroke-linecap="round" stroke-linejoin="round"/>
        <path opacity="0.2" d="M172.534 147.794V147.864L165.457 159.144L137.991 174.559L122.647 183.177L129.373 172.036L135.679 168.533L172.534 147.794Z" fill="black" stroke="#231F20" stroke-width="0.0802954" stroke-miterlimit="10"/>
        <path opacity="0.2" d="M136.239 150.947L129.373 149.896L118.373 132.8L120.264 128.105L136.239 150.947Z" fill="black" stroke="#231F20" stroke-width="0.0802954" stroke-miterlimit="10"/>
    </g>
    <defs>
        <clipPath id="">
            <rect width="118.761" height="98.6526" fill="white" transform="translate(53.8418 84.6644)"/>
        </clipPath>
    </defs>


    <g clip-path="url(#)">
        <path d="M123.487 191.935L122.927 192.285C122.857 192.285 122.857 192.285 122.787 192.285C123.067 192.145 123.277 192.075 123.487 191.935Z" fill="#F1F2F2" stroke="#231F20" stroke-width="0.227924" stroke-miterlimit="10" stroke-linecap="round" stroke-linejoin="round"/>
        <path d="M123.487 191.935L122.927 192.285C122.857 192.285 122.857 192.285 122.787 192.285C123.067 192.145 123.277 192.075 123.487 191.935Z" fill="#F1F2F2" stroke="#231F20" stroke-width="0.227924" stroke-miterlimit="10" stroke-linecap="round" stroke-linejoin="round"/>
        <path d="M123.487 191.935L122.927 192.285C122.857 192.285 122.857 192.285 122.787 192.285C123.067 192.145 123.277 192.075 123.487 191.935Z" fill="#F1F2F2" stroke="#231F20" stroke-width="0.227924" stroke-miterlimit="10" stroke-linecap="round" stroke-linejoin="round"/>
        <path d="M123.487 191.935L122.927 192.285C122.857 192.285 122.857 192.285 122.787 192.285C123.067 192.145 123.277 192.075 123.487 191.935Z" fill="#F1F2F2" stroke="#231F20" stroke-width="0.227924" stroke-miterlimit="10" stroke-linecap="round" stroke-linejoin="round"/>
        <path d="M123.487 191.935L122.927 192.285C122.857 192.285 122.857 192.285 122.787 192.285C123.067 192.145 123.277 192.075 123.487 191.935Z" fill="#F1F2F2" stroke="#231F20" stroke-width="0.227924" stroke-miterlimit="10" stroke-linecap="round" stroke-linejoin="round"/>
        <path d="M118.372 188.572C118.372 189.483 118.302 190.394 118.162 191.234C118.092 191.725 117.952 192.145 117.882 192.566C117.742 193.126 117.532 193.617 117.321 194.107C117.181 194.387 117.041 194.668 116.901 194.948C116.691 195.368 116.411 195.719 116.13 196.069C115.71 196.559 115.149 196.98 114.589 197.33L114.449 197.4C111.996 198.801 108.703 198.591 104.99 196.419C104.499 196.139 104.079 195.859 103.659 195.578L55.3833 167.692C55.103 167.552 54.8227 167.412 54.5425 167.202C47.1155 162.928 41.0898 152.488 41.0898 143.94C41.0898 142.188 41.3 140.717 41.7905 139.456C42.4211 137.564 43.5421 136.163 44.9435 135.322C45.0135 135.322 45.0135 135.252 45.0836 135.252C45.7142 134.902 46.3448 134.691 47.0454 134.551C47.2556 134.481 47.3958 134.481 47.606 134.481C47.8162 134.481 48.0264 134.411 48.2366 134.411L50.4086 134.201L50.899 134.131L57.7655 133.57L58.256 133.5L62.1096 133.15L63.8612 133.01L67.1543 132.729L72.8997 132.309C73.25 132.239 73.5303 132.239 73.8806 132.239C74.0207 132.239 74.2309 132.239 74.4411 132.239C75.4221 132.239 76.403 132.449 77.524 132.87C78.3648 133.15 79.2757 133.57 80.1865 134.061C81.4477 134.831 82.7089 135.742 83.9 136.793C84.8809 137.704 85.7918 138.685 86.7027 139.736L86.7727 139.806C86.9829 140.086 87.2632 140.367 87.4734 140.647L99.1043 155.361L99.8049 156.272L101.557 158.444L101.907 158.864L104.429 162.087L106.882 165.17L110.525 169.794C111.156 170.425 111.716 171.126 112.277 171.896C112.697 172.387 113.047 172.947 113.398 173.438C116.27 177.712 118.232 182.756 118.513 187.381C118.372 187.731 118.372 188.151 118.372 188.572Z" fill="#F1F2F2" stroke="#231F20" stroke-width="0.227924" stroke-miterlimit="10" stroke-linecap="round" stroke-linejoin="round"/>
        <path opacity="0.14" d="M118.372 188.572C118.372 189.483 118.302 190.394 118.162 191.234C118.092 191.725 117.952 192.145 117.882 192.566C117.742 193.126 117.532 193.617 117.321 194.107C117.181 194.387 117.041 194.668 116.901 194.948C116.691 195.368 116.411 195.719 116.13 196.069C115.71 196.559 115.149 196.98 114.589 197.33L114.449 197.4C111.996 198.801 108.703 198.591 104.99 196.419C104.499 196.139 104.079 195.859 103.659 195.578L55.3833 167.692C55.103 167.552 54.8227 167.412 54.5425 167.202C47.1155 162.928 41.0898 152.488 41.0898 143.94C41.0898 142.188 41.3 140.717 41.7905 139.456C42.4211 137.564 43.5421 136.163 44.9435 135.322C45.0135 135.322 45.0135 135.252 45.0836 135.252C45.7142 134.902 46.3448 134.691 47.0454 134.551C47.2556 134.481 47.3958 134.481 47.606 134.481C47.8162 134.481 48.0264 134.411 48.2366 134.411L50.4086 134.201L50.899 134.131L57.7655 133.57L58.256 133.5L62.1096 133.15L63.8612 133.01L67.1543 132.729L72.8997 132.309C73.25 132.239 73.5303 132.239 73.8806 132.239C74.0207 132.239 74.2309 132.239 74.4411 132.239C75.4221 132.239 76.403 132.449 77.524 132.87C78.3648 133.15 79.2757 133.57 80.1865 134.061C81.4477 134.831 82.7089 135.742 83.9 136.793C84.8809 137.704 85.7918 138.685 86.7027 139.736L86.7727 139.806C86.9829 140.086 87.2632 140.367 87.4734 140.647L99.1043 155.361L99.8049 156.272L101.557 158.444L101.907 158.864L104.429 162.087L106.882 165.17L110.525 169.794C111.156 170.425 111.716 171.126 112.277 171.896C112.697 172.387 113.047 172.947 113.398 173.438C116.27 177.712 118.232 182.756 118.513 187.381C118.372 187.731 118.372 188.151 118.372 188.572Z" fill="black" stroke="#231F20" stroke-width="0.227924" stroke-miterlimit="10"/>
        <path d="M127.481 183.247C127.481 187.521 126.01 190.464 123.627 191.935L123.487 192.005C123.277 192.145 123.067 192.215 122.787 192.355C122.857 192.355 122.857 192.355 122.927 192.355L118.653 194.878L117.672 195.438L116.341 196.209L114.519 197.26C115.079 196.91 115.57 196.489 116.06 195.999C116.341 195.649 116.621 195.298 116.831 194.878C116.971 194.598 117.111 194.317 117.251 194.037C117.462 193.547 117.672 193.056 117.812 192.496C117.952 192.075 118.022 191.655 118.092 191.164C118.232 190.324 118.302 189.483 118.302 188.502C118.302 188.081 118.302 187.661 118.232 187.241C117.952 182.616 115.99 177.572 113.118 173.298C112.767 172.737 112.347 172.247 111.997 171.756C111.436 171.056 110.875 170.355 110.245 169.654L106.601 165.03L104.149 161.947L101.627 158.724L101.276 158.304L99.5248 156.131L98.8242 155.221L87.1933 140.507C86.9831 140.227 86.7729 139.946 86.4926 139.666L86.4225 139.596C85.5817 138.545 84.6008 137.564 83.6199 136.653C82.4288 135.602 81.2377 134.691 79.9064 133.921C78.9956 133.43 78.1548 133.01 77.2439 132.73C76.1929 132.379 75.1419 132.169 74.161 132.099C73.9508 132.099 73.8107 132.099 73.6005 132.099C73.2502 132.099 72.9699 132.169 72.6196 132.169L66.9442 132.659L63.8614 133.01L61.9696 133.15L58.116 133.5L57.6255 133.57L50.7591 134.131H50.3387L48.1666 134.341C47.9564 134.341 47.7462 134.341 47.536 134.411C47.3258 134.411 47.1857 134.481 46.9755 134.481C46.2749 134.621 45.6443 134.902 45.0137 135.182L47.0456 133.991L54.1222 129.787C54.8929 129.366 55.7337 129.086 56.6446 128.946C56.8548 128.946 57.065 128.876 57.2752 128.876L57.9058 128.806L60.7084 128.596L62.2498 128.526L72.8298 127.685L75.9127 127.405L77.1739 127.334L81.9383 126.914C82.2887 126.844 82.5689 126.844 82.9192 126.844C84.811 126.774 86.913 127.405 89.1551 128.666C91.4673 129.997 93.7094 131.959 95.6011 134.341L95.6712 134.411C95.8814 134.691 96.1617 134.972 96.3719 135.252L101.417 141.628L108.703 150.877L110.455 153.119L112.627 155.851L115.64 159.705L119.353 164.399C120.404 165.52 121.385 166.781 122.226 168.043C122.296 168.113 122.296 168.183 122.366 168.183C122.787 168.813 123.137 169.374 123.487 170.005C125.449 173.368 126.78 177.081 127.201 180.584C127.411 181.495 127.481 182.336 127.481 183.247Z" fill="#F1F2F2" stroke="#231F20" stroke-width="0.227924" stroke-miterlimit="10" stroke-linecap="round" stroke-linejoin="round"/>
        <path d="M36.6053 155.991C36.6053 155.991 32.1911 151.577 31.4204 159.845C30.7197 168.183 30.7197 168.183 30.7197 168.183L38.9875 180.654L48.7266 181.705L49.4273 176.661L36.6053 155.991Z" fill="#49443A" stroke="#231F20" stroke-width="0.162342" stroke-miterlimit="10" stroke-linecap="round" stroke-linejoin="round"/>
        <path d="M54.0514 171.126C54.0514 171.756 54.0514 172.317 53.9112 172.807C53.8412 173.298 53.701 173.788 53.5609 174.208C53.2106 175.189 52.65 175.96 51.8793 176.521C51.1787 177.011 50.3379 177.291 49.357 177.291C49.2869 177.291 49.2168 177.291 49.1468 177.291C48.0958 177.291 46.8346 176.941 45.5734 176.24C45.5734 176.24 45.5033 176.24 45.5033 176.17C40.7389 173.508 36.8152 166.852 36.7451 161.386C36.7451 161.106 36.7451 160.826 36.7451 160.616C36.8152 159.425 37.0954 158.444 37.5158 157.603C37.5158 157.533 37.5859 157.533 37.5859 157.463C38.0764 156.552 38.8471 155.921 39.6879 155.571C40.4586 155.291 41.2994 155.151 42.2803 155.291C42.981 155.361 43.8218 155.641 44.5925 155.991C44.8027 156.061 45.0129 156.202 45.2231 156.342C45.3632 156.412 45.4333 156.482 45.5734 156.552L45.6435 156.622C49.4971 160.335 52.58 165.59 53.9813 170.775V170.845C53.9813 170.915 54.0514 171.055 54.0514 171.126Z" fill="#6E6657" stroke="#231F20" stroke-width="0.162342" stroke-miterlimit="10" stroke-linecap="round" stroke-linejoin="round"/>
        <path d="M35.2739 164.469C35.344 168.533 38.2868 173.508 41.79 175.469C43.6818 176.52 45.3634 176.52 46.5545 175.75C47.115 175.329 47.5354 174.769 47.8157 174.068C47.9558 173.718 48.0259 173.367 48.096 173.017C48.166 172.597 48.166 172.176 48.166 171.756C48.096 167.692 45.1532 162.717 41.6499 160.756C41.5098 160.686 41.2996 160.615 41.1594 160.475C40.5289 160.195 39.9683 159.985 39.4078 159.915C38.7071 159.845 38.0766 159.915 37.516 160.125C36.1147 160.686 35.2739 162.227 35.2739 164.469Z" fill="#928874" stroke="#231F20" stroke-width="0.162342" stroke-miterlimit="10" stroke-linecap="round" stroke-linejoin="round"/>
        <path d="M37.5161 160.125C38.0766 159.915 38.7072 159.845 39.4079 159.915C39.9684 159.985 40.5289 160.195 41.1595 160.475C41.2997 160.546 41.5099 160.616 41.65 160.756C45.2233 162.788 48.1661 167.692 48.1661 171.756C48.1661 172.176 48.1661 172.667 48.096 173.017C48.026 173.368 47.9559 173.718 47.8158 174.068C47.5355 174.839 47.1151 175.399 46.5546 175.75L50.0579 173.648H50.128C51.3191 172.947 52.0197 171.546 51.9497 169.444C51.8796 165.38 48.9368 160.405 45.4335 158.444C43.8921 157.603 42.4908 157.393 41.3697 157.813L40.5289 158.374L37.5161 160.125Z" fill="url(#paint0_linear_1_19911)" stroke="#231F20" stroke-width="0.162342" stroke-miterlimit="10" stroke-linecap="round" stroke-linejoin="round"/>
        <path d="M54.0515 170.845C54.0515 170.775 54.0515 170.775 54.0515 170.705C52.6502 165.52 49.5673 160.335 45.7137 156.552C45.6436 156.482 45.6436 156.482 45.5736 156.412C44.1722 155.08 42.6308 153.889 41.0893 153.049C40.739 152.838 40.3887 152.698 40.0384 152.488C38.7772 151.857 37.516 151.507 36.3949 151.367C34.9236 151.157 33.5923 151.297 32.4012 151.787C32.4012 151.787 32.4012 151.787 32.3311 151.787C29.3884 152.978 27.6367 156.201 27.6367 160.966C27.7068 169.584 33.8726 179.954 41.3696 184.158C45.3634 186.4 48.9367 186.47 51.389 184.648C52.5101 183.807 53.4209 182.616 53.9814 181.075C54.2617 180.374 54.4018 179.673 54.542 178.903C54.6821 178.062 54.7522 177.221 54.7522 176.24C54.8222 174.489 54.542 172.667 54.0515 170.845ZM47.7456 178.903C46.2041 180.024 43.892 180.024 41.3696 178.552C36.6051 175.89 32.6815 169.234 32.6114 163.769C32.5413 160.756 33.7324 158.654 35.6242 157.883C36.1847 157.673 36.8153 157.533 37.516 157.533C37.5861 157.533 37.6561 157.533 37.6561 157.533C37.7963 157.533 38.0065 157.533 38.1466 157.603C38.8472 157.673 39.618 157.953 40.4588 158.303C40.6689 158.374 40.8791 158.514 41.0893 158.654C45.8538 161.316 49.7775 167.973 49.8476 173.438C49.8476 173.508 49.8476 173.648 49.8476 173.718C49.8476 174.208 49.7775 174.699 49.7074 175.119C49.6374 175.61 49.4972 176.1 49.3571 176.521C49.287 176.801 49.1469 177.011 49.0768 177.221C48.7966 177.992 48.3061 178.552 47.7456 178.903Z" fill="#231F20" stroke="#231F20" stroke-width="0.162342" stroke-miterlimit="10" stroke-linecap="round" stroke-linejoin="round"/>
        <path d="M60.9182 179.253C61.2685 179.113 61.6189 178.903 61.9692 178.622L60.9182 179.253ZM53.9817 170.705C52.5804 165.52 49.4975 160.335 45.6439 156.552C45.5738 156.482 45.5738 156.482 45.5037 156.412C45.5037 156.412 45.5037 156.412 45.5037 156.482C45.7139 157.322 45.9942 158.163 46.2745 159.004C47.5357 162.437 49.4975 165.73 51.8797 168.533C52.5103 169.304 53.211 170.074 53.9116 170.705C54.0518 170.775 54.0518 170.775 53.9817 170.705ZM41.3699 146.672L41.2998 146.743C41.7903 146.462 42.2107 146.182 42.4909 146.042C42.561 146.042 42.561 145.972 42.6311 145.972C42.7011 145.972 42.7011 145.902 42.7712 145.902L42.8413 145.832L42.9113 145.762C42.3508 145.972 41.7903 146.252 41.3699 146.672Z" fill="#231F20" stroke="#231F20" stroke-width="0.162342" stroke-miterlimit="10" stroke-linecap="round" stroke-linejoin="round"/>
        <path d="M63.2302 177.572C63.1602 177.642 63.02 177.712 63.02 177.782C63.0901 177.712 63.1602 177.642 63.2302 177.572Z" fill="url(#paint1_linear_1_19911)" stroke="#231F20" stroke-width="0.162342" stroke-miterlimit="10" stroke-linecap="round" stroke-linejoin="round"/>
        <path d="M65.3325 170.145C65.3325 171.125 65.2625 171.966 65.1223 172.807C64.9822 173.648 64.8421 174.349 64.5618 175.049C64.0013 176.591 63.0904 177.852 61.9694 178.623L60.9184 179.253L51.4595 184.788C52.5805 183.948 53.4914 182.756 54.0519 181.215C54.3322 180.514 54.4723 179.814 54.6125 179.043C54.7526 178.202 54.8227 177.361 54.8227 176.38C54.8227 174.629 54.5424 172.807 54.0519 170.915C54.0519 170.845 54.0519 170.845 54.0519 170.775C52.6506 165.59 49.5677 160.405 45.7141 156.622C45.644 156.552 45.644 156.552 45.574 156.482C44.1727 155.15 42.6312 153.959 41.0898 153.119C40.7394 152.908 40.3891 152.768 40.0388 152.558C38.7776 151.927 37.5164 151.577 36.3954 151.437C34.924 151.227 33.5927 151.367 32.4016 151.857C32.4016 151.857 32.4016 151.857 32.3315 151.857L41.3 146.673L41.2299 146.743C41.7204 146.462 42.1408 146.182 42.421 146.042C42.4911 146.042 42.4911 145.972 42.5611 145.972C42.6312 145.972 42.6312 145.902 42.7013 145.902L42.7713 145.832L42.8414 145.762C44.0325 145.271 45.3638 145.131 46.9052 145.341C48.0263 145.481 49.2875 145.902 50.5486 146.462C50.899 146.602 51.2493 146.813 51.5996 147.023C53.2111 147.934 54.7526 149.125 56.224 150.526C60.0776 154.24 63.1605 159.495 64.5618 164.679C65.0523 166.501 65.3325 168.393 65.3325 170.145Z" fill="url(#paint2_linear_1_19911)" stroke="#231F20" stroke-width="0.162342" stroke-miterlimit="10" stroke-linecap="round" stroke-linejoin="round"/>
        <path d="M42.4909 145.972C42.2107 146.112 41.7903 146.392 41.2998 146.673L41.3699 146.603L42.4909 145.972Z" fill="#C49A6C" stroke="#231F20" stroke-width="0.162342" stroke-miterlimit="10" stroke-linecap="round" stroke-linejoin="round"/>
        <path d="M56.2936 177.291C56.2936 178.202 56.2236 179.043 56.1535 179.884L21.8913 160.546C21.7512 159.495 21.6812 158.374 21.6812 157.323C21.6812 151.787 23.643 147.864 26.796 146.112L26.9361 146.042C29.1081 144.851 31.8407 144.641 34.9236 145.552C36.2548 145.972 37.5861 146.533 38.9874 147.373C44.7328 150.666 49.8476 156.902 53.0005 163.699C55.1025 168.183 56.2936 172.947 56.2936 177.291Z" fill="#F1F2F2" stroke="#231F20" stroke-width="0.120163" stroke-miterlimit="10" stroke-linecap="round" stroke-linejoin="round"/>
        <path d="M69.0456 170.075C69.0456 170.985 68.9755 171.826 68.9054 172.667L56.1535 179.884C56.2235 179.043 56.2936 178.202 56.2936 177.291C56.2936 172.877 55.1025 168.183 53.0005 163.699C49.8475 156.902 44.7327 150.666 38.9873 147.373C37.586 146.603 36.2548 145.972 34.9235 145.552C31.8406 144.641 29.1081 144.851 26.936 146.042L39.1275 139.105L40.0383 138.615C43.1212 137.144 47.2551 137.494 51.7393 140.086C61.2683 145.622 69.0456 159.074 69.0456 170.075Z" fill="#F1F2F2" stroke="#231F20" stroke-width="0.120163" stroke-miterlimit="10" stroke-linecap="round" stroke-linejoin="round"/>
        <path d="M56.2936 177.291C56.2936 178.202 56.2236 179.043 56.1535 179.884L21.8913 160.546C21.7512 159.495 21.6812 158.374 21.6812 157.323C21.6812 151.787 23.643 147.864 26.796 146.112L26.9361 146.042C29.1081 144.851 31.8407 144.641 34.9236 145.552C36.2548 145.972 37.5861 146.533 38.9874 147.373C44.7328 150.666 49.8476 156.902 53.0005 163.699C55.1025 168.183 56.2936 172.947 56.2936 177.291Z" fill="#F1F2F2" stroke="#231F20" stroke-width="0.120163" stroke-miterlimit="10" stroke-linecap="round" stroke-linejoin="round"/>
        <path opacity="0.14" d="M56.2936 177.291C56.2936 178.202 56.2236 179.043 56.1535 179.884L21.8913 160.546C21.7512 159.495 21.6812 158.374 21.6812 157.323C21.6812 151.787 23.643 147.864 26.796 146.112L26.9361 146.042C29.1081 144.851 31.8407 144.641 34.9236 145.552C36.2548 145.972 37.5861 146.533 38.9874 147.373C44.7328 150.666 49.8476 156.902 53.0005 163.699C55.1025 168.183 56.2936 172.947 56.2936 177.291Z" fill="black" stroke="#231F20" stroke-width="0.163954" stroke-miterlimit="10"/>
        <path d="M86.002 183.807C86.002 183.807 81.5878 179.393 80.8171 187.661C80.0464 195.999 80.0464 195.999 80.0464 195.999L88.3141 208.471L98.0533 209.522L98.7539 204.477L86.002 183.807Z" fill="#49443A" stroke="#231F20" stroke-width="0.162342" stroke-miterlimit="10" stroke-linecap="round" stroke-linejoin="round"/>
        <path d="M103.379 198.942C103.379 199.572 103.379 200.133 103.238 200.623C103.168 201.114 103.028 201.604 102.888 202.025C102.538 203.006 101.977 203.776 101.206 204.337C100.506 204.827 99.665 205.108 98.6841 205.108C98.614 205.108 98.544 205.108 98.4739 205.108C97.4229 205.108 96.1617 204.757 94.9006 204.057C94.9006 204.057 94.8305 204.057 94.8305 203.987C90.066 201.324 86.1423 194.668 86.0723 189.203C86.0723 188.922 86.0723 188.642 86.0723 188.432C86.1423 187.241 86.4226 186.26 86.843 185.419C86.843 185.349 86.9131 185.349 86.9131 185.279C87.4035 184.368 88.1742 183.738 89.015 183.387C89.7857 183.107 90.6265 182.967 91.6075 183.107C92.3081 183.177 93.1489 183.457 93.9196 183.808C94.1298 183.878 94.34 184.018 94.5502 184.158C94.6904 184.228 94.7604 184.298 94.9006 184.368L94.9706 184.438C98.8242 188.152 101.907 193.407 103.308 198.592V198.662C103.379 198.732 103.379 198.872 103.379 198.942Z" fill="#6E6657" stroke="#231F20" stroke-width="0.162342" stroke-miterlimit="10" stroke-linecap="round" stroke-linejoin="round"/>
        <path d="M84.6713 192.356C84.7413 196.419 87.6841 201.394 91.1874 203.356C93.0791 204.407 94.7607 204.407 95.9518 203.636C96.5124 203.216 96.9328 202.655 97.213 201.955C97.3532 201.604 97.4232 201.254 97.4933 200.904C97.5634 200.483 97.5634 200.063 97.5634 199.642C97.4933 195.579 94.5505 190.604 91.0472 188.642C90.9071 188.572 90.6969 188.502 90.5568 188.362C89.9262 188.082 89.3657 187.871 88.8051 187.801C88.1045 187.731 87.4739 187.801 86.9134 188.011C85.512 188.572 84.6012 190.043 84.6713 192.356Z" fill="#928874" stroke="#231F20" stroke-width="0.162342" stroke-miterlimit="10" stroke-linecap="round" stroke-linejoin="round"/>
        <path d="M86.8433 187.941C87.4038 187.731 88.0344 187.661 88.735 187.731C89.2956 187.801 89.8561 188.011 90.4867 188.292C90.6268 188.362 90.837 188.432 90.9771 188.572C94.5505 190.604 97.4933 195.508 97.4933 199.572C97.4933 199.993 97.4933 200.483 97.4232 200.833C97.3531 201.184 97.2831 201.534 97.1429 201.884C96.8627 202.655 96.4423 203.216 95.8817 203.566L99.385 201.464H99.4551C100.646 200.763 101.347 199.362 101.277 197.26C101.207 193.196 98.264 188.222 94.7607 186.26C93.2192 185.419 91.8179 185.209 90.6969 185.629L89.786 186.19L86.8433 187.941Z" fill="url(#paint3_linear_1_19911)" stroke="#231F20" stroke-width="0.162342" stroke-miterlimit="10" stroke-linecap="round" stroke-linejoin="round"/>
        <path d="M103.379 198.661C103.379 198.591 103.379 198.591 103.379 198.521C101.977 193.336 98.8945 188.152 95.0408 184.368C94.9708 184.298 94.9708 184.298 94.9007 184.228C93.4994 182.897 91.9579 181.705 90.4165 180.865C90.0662 180.654 89.7158 180.514 89.3655 180.304C88.1043 179.674 86.8431 179.323 85.7221 179.183C84.2507 178.973 82.9195 179.113 81.7283 179.603C81.7283 179.603 81.7283 179.603 81.6583 179.603C78.7155 180.795 76.9639 184.018 76.9639 188.782C77.0339 197.4 83.1997 207.77 90.6968 211.974C94.6905 214.216 98.2639 214.286 100.716 212.464C101.837 211.624 102.748 210.432 103.309 208.891C103.589 208.19 103.729 207.49 103.869 206.719C104.009 205.878 104.079 205.037 104.079 204.056C104.149 202.375 103.869 200.483 103.379 198.661ZM97.1428 206.789C95.6014 207.91 93.2892 207.91 90.7668 206.439C86.0023 203.776 82.0787 197.12 82.0086 191.655C81.9385 188.642 83.1297 186.54 85.0214 185.769C85.582 185.559 86.2125 185.419 86.9132 185.419C86.9833 185.419 87.0533 185.419 87.0533 185.419C87.1935 185.419 87.4037 185.419 87.5438 185.489C88.2445 185.559 89.0152 185.839 89.856 186.19C90.0662 186.26 90.2764 186.4 90.4866 186.54C95.251 189.202 99.1747 195.859 99.2448 201.324C99.2448 201.394 99.2448 201.534 99.2448 201.604C99.2448 202.095 99.1747 202.585 99.1046 203.005C99.0346 203.496 98.8945 203.986 98.7543 204.407C98.6843 204.687 98.5441 204.897 98.4741 205.107C98.1237 205.808 97.6333 206.369 97.1428 206.789Z" fill="#231F20" stroke="#231F20" stroke-width="0.162342" stroke-miterlimit="10" stroke-linecap="round" stroke-linejoin="round"/>
        <path d="M110.245 207.069C110.596 206.929 110.946 206.719 111.296 206.439L110.245 207.069ZM103.379 198.591C101.978 193.406 98.8947 188.222 95.0411 184.438C94.971 184.368 94.971 184.368 94.901 184.298C94.901 184.298 94.901 184.298 94.901 184.368C95.1112 185.209 95.3914 186.05 95.6717 186.89C96.9329 190.324 98.8947 193.617 101.277 196.419C101.908 197.19 102.608 197.961 103.309 198.591C103.379 198.661 103.379 198.591 103.379 198.591ZM90.697 174.489L90.627 174.559C91.1174 174.279 91.5378 173.998 91.8181 173.858C91.8881 173.858 91.8881 173.788 91.9582 173.788C92.0283 173.788 92.0283 173.718 92.0983 173.718L92.1684 173.648L92.2385 173.578C91.6779 173.788 91.1174 174.138 90.697 174.489Z" fill="#231F20" stroke="#231F20" stroke-width="0.162342" stroke-miterlimit="10" stroke-linecap="round" stroke-linejoin="round"/>
        <path d="M112.557 205.458C112.487 205.528 112.347 205.598 112.347 205.668C112.417 205.528 112.487 205.458 112.557 205.458Z" fill="url(#paint4_linear_1_19911)" stroke="#231F20" stroke-width="0.162342" stroke-miterlimit="10" stroke-linecap="round" stroke-linejoin="round"/>
        <path d="M114.66 198.031C114.66 199.012 114.59 199.853 114.449 200.693C114.309 201.464 114.099 202.235 113.889 202.865C113.328 204.407 112.418 205.668 111.297 206.439L110.246 207.069L100.787 212.605C101.908 211.764 102.819 210.573 103.379 209.031C103.659 208.331 103.799 207.63 103.94 206.859C104.08 206.018 104.15 205.178 104.15 204.197C104.15 202.445 103.87 200.623 103.379 198.732C103.379 198.662 103.379 198.662 103.379 198.591C101.978 193.407 98.8949 188.222 95.0413 184.438C94.9712 184.368 94.9712 184.368 94.9011 184.298C93.4998 182.967 91.9584 181.776 90.4169 180.935C90.0666 180.725 89.7163 180.585 89.3659 180.374C88.1047 179.744 86.8436 179.393 85.7225 179.253C84.2511 179.043 82.9199 179.183 81.7288 179.674C81.7288 179.674 81.7288 179.674 81.6587 179.674L90.6271 174.489L90.557 174.559C91.0475 174.279 91.4679 173.998 91.7482 173.858C91.8182 173.858 91.8182 173.788 91.8883 173.788C91.9584 173.788 91.9584 173.718 92.0284 173.718L92.0985 173.648L92.1686 173.578C93.3597 173.088 94.6909 172.947 96.2324 173.158C97.3534 173.298 98.6146 173.718 99.8758 174.279C100.226 174.419 100.576 174.629 100.927 174.839C102.538 175.75 104.08 176.941 105.551 178.342C109.405 182.056 112.488 187.311 113.889 192.496C114.379 194.317 114.66 196.209 114.66 198.031Z" fill="url(#paint5_linear_1_19911)" stroke="#231F20" stroke-width="0.162342" stroke-miterlimit="10" stroke-linecap="round" stroke-linejoin="round"/>
        <path d="M91.8181 173.858C91.5378 173.998 91.1174 174.279 90.627 174.559L90.697 174.489L91.8181 173.858Z" fill="#C49A6C" stroke="#231F20" stroke-width="0.162342" stroke-miterlimit="10" stroke-linecap="round" stroke-linejoin="round"/>
        <path d="M105.621 205.178C105.621 206.088 105.551 206.929 105.481 207.77L71.2185 188.432C71.0784 187.311 71.0083 186.26 71.0083 185.209C71.0083 179.674 72.9701 175.75 76.1231 173.998L76.2632 173.928C78.4353 172.737 81.1678 172.527 84.2507 173.438C85.582 173.858 86.9132 174.419 88.3145 175.259C94.0599 178.553 99.1747 184.788 102.328 191.585C104.43 195.999 105.621 200.763 105.621 205.178Z" fill="#F1F2F2" stroke="#231F20" stroke-width="0.120163" stroke-miterlimit="10" stroke-linecap="round" stroke-linejoin="round"/>
        <path d="M105.621 205.178C105.621 206.088 105.551 206.929 105.481 207.77L71.2185 188.432C71.0784 187.311 71.0083 186.26 71.0083 185.209C71.0083 179.674 72.9701 175.75 76.1231 173.998L76.2632 173.928C78.4353 172.737 81.1678 172.527 84.2507 173.438C85.582 173.858 86.9132 174.419 88.3145 175.259C94.0599 178.553 99.1747 184.788 102.328 191.585C104.43 195.999 105.621 200.763 105.621 205.178Z" fill="#F1F2F2" stroke="#231F20" stroke-width="0.120163" stroke-miterlimit="10" stroke-linecap="round" stroke-linejoin="round"/>
        <path opacity="0.14" d="M105.621 205.178C105.621 206.088 105.551 206.929 105.481 207.77L71.2185 188.432C71.0784 187.311 71.0083 186.26 71.0083 185.209C71.0083 179.674 72.9701 175.75 76.1231 173.998L76.2632 173.928C78.4353 172.737 81.1678 172.527 84.2507 173.438C85.582 173.858 86.9132 174.419 88.3145 175.259C94.0599 178.553 99.1747 184.788 102.328 191.585C104.43 195.999 105.621 200.763 105.621 205.178Z" fill="black" stroke="#231F20" stroke-width="0.163954" stroke-miterlimit="10"/>
        <path d="M118.373 197.961C118.373 198.872 118.303 199.712 118.233 200.553L105.481 207.77C105.551 206.929 105.621 206.088 105.621 205.178C105.621 200.763 104.43 196.069 102.328 191.585C99.1747 184.788 94.0599 178.553 88.3145 175.259C86.9132 174.419 85.5819 173.858 84.2507 173.438C81.1678 172.527 78.4352 172.737 76.2632 173.928L88.4546 167.062L89.3655 166.571C92.4484 165.1 96.5823 165.45 101.066 168.043C110.595 173.508 118.373 186.89 118.373 197.961Z" fill="#F1F2F2" stroke="#231F20" stroke-width="0.120163" stroke-miterlimit="10" stroke-linecap="round" stroke-linejoin="round"/>
    </g>
    <defs>
        <linearGradient id="paint0_linear_1_19911" x1="42.4414" y1="159.18" x2="49.3272" y2="171.785" gradientUnits="userSpaceOnUse">
            <stop stop-color="#C2B59B"/>
            <stop offset="1" stop-color="#49443A"/>
        </linearGradient>
        <linearGradient id="paint1_linear_1_19911" x1="63.1684" y1="177.578" x2="63.0654" y2="177.772" gradientUnits="userSpaceOnUse">
            <stop stop-color="#58595B"/>
            <stop offset="1"/>
        </linearGradient>
        <linearGradient id="paint2_linear_1_19911" x1="50.0243" y1="182.388" x2="48.0518" y2="146.144" gradientUnits="userSpaceOnUse">
            <stop/>
            <stop offset="1" stop-color="#58595B"/>
        </linearGradient>
        <linearGradient id="paint3_linear_1_19911" x1="91.7812" y1="187.023" x2="98.6673" y2="199.628" gradientUnits="userSpaceOnUse">
            <stop stop-color="#C2B59B"/>
            <stop offset="1" stop-color="#49443A"/>
        </linearGradient>
        <linearGradient id="paint4_linear_1_19911" x1="112.508" y1="205.42" x2="112.405" y2="205.614" gradientUnits="userSpaceOnUse">
            <stop stop-color="#58595B"/>
            <stop offset="1"/>
        </linearGradient>
        <linearGradient id="paint5_linear_1_19911" x1="99.3642" y1="210.231" x2="97.3918" y2="173.987" gradientUnits="userSpaceOnUse">
            <stop/>
            <stop offset="1" stop-color="#58595B"/>
        </linearGradient>
        <clipPath id="">
            <rect width="105.939" height="87.2319" fill="white" transform="translate(21.6118 126.704)"/>
        </clipPath>
    </defs>


    <g clip-path="url(#)">
        <path d="M105.691 91.2505V125.302L74.0908 107.015L65.8932 93.7028L61.6191 91.2505V69.2499L72.3392 71.9824L105.691 91.2505Z" fill="#F1F2F2" stroke="#231F20" stroke-width="0.201439" stroke-miterlimit="10" stroke-linecap="round" stroke-linejoin="round"/>
        <path d="M119.143 102.811V129.156L105.69 125.303V91.2506L119.143 102.811Z" fill="#F1F2F2" stroke="#231F20" stroke-width="0.201439" stroke-miterlimit="10" stroke-linecap="round" stroke-linejoin="round"/>
        <path opacity="0.14" d="M105.691 91.2505V125.302L74.0908 107.015L65.8932 93.7028L61.6191 91.2505V69.2499L72.3392 71.9824L105.691 91.2505Z" fill="black" stroke="#231F20" stroke-width="0.201439" stroke-miterlimit="10"/>
        <path opacity="0.14" d="M119.143 102.811V129.156L105.69 125.303V91.2506L119.143 102.811Z" fill="black" stroke="#231F20" stroke-width="0.201439" stroke-miterlimit="10"/>
        <path d="M158.03 81.9318V108.276L153.896 110.519C154.176 109.608 154.316 108.627 154.316 107.436C154.386 101.13 150.042 93.4926 144.577 90.2696L134.698 95.6647L132.806 96.6456L131.405 97.4163L131.195 120.188C131.685 120.468 132.105 120.678 132.596 120.888C133.016 121.028 133.367 121.169 133.787 121.309L119.073 129.226V102.811L130.914 96.4354L144.507 89.0785L158.03 81.9318Z" fill="#F7F7F7" stroke="#231F20" stroke-width="0.201439" stroke-miterlimit="10" stroke-linecap="round" stroke-linejoin="round"/>
        <path d="M158.03 81.9318L144.577 89.1486L130.984 96.4354L119.143 102.811L105.69 91.2506L114.098 86.6963L144.577 70.3009L158.03 81.9318Z" fill="#F1F2F2" stroke="#231F20" stroke-width="0.201439" stroke-miterlimit="10" stroke-linecap="round" stroke-linejoin="round"/>
        <path opacity="0.2" d="M131.545 97.3462L127.271 105.544L127.341 124.742L136.239 119.977L131.545 97.3462Z" fill="black" stroke="#231F20" stroke-width="0.201439" stroke-miterlimit="10"/>
        <path d="M144.577 70.3009L114.099 86.6963L105.691 91.1805L72.3394 71.9825C73.3903 71.7022 89.3653 63.0141 100.506 56.9184C106.602 53.5552 111.296 51.0328 111.296 51.0328L144.577 70.3009Z" fill="#F1F2F2" stroke="#231F20" stroke-width="0.201439" stroke-miterlimit="10" stroke-linecap="round" stroke-linejoin="round"/>
        <path d="M111.296 51.0327C111.296 51.0327 106.671 53.5551 100.576 56.9183C89.4352 63.014 73.4603 71.7021 72.4093 71.9824L61.6191 69.2498L100.576 48.3002L111.296 51.0327Z" fill="#F1F2F2" stroke="#231F20" stroke-width="0.201439" stroke-miterlimit="10" stroke-linecap="round" stroke-linejoin="round"/>
        <path d="M141.214 114.512C141.214 115.633 141.074 116.614 140.794 117.525C140.373 118.856 139.743 119.837 138.832 120.538C137.571 121.519 135.819 121.799 133.857 121.238C133.507 121.168 133.086 121.028 132.666 120.818C132.246 120.608 131.755 120.398 131.265 120.117L131.475 97.3461C131.965 97.6263 132.386 97.9066 132.876 98.2569C133.787 98.9576 134.698 99.7283 135.469 100.639C137.711 103.162 139.532 106.385 140.443 109.608C141.004 111.289 141.214 112.971 141.214 114.512Z" fill="#F1F2F2" stroke="#231F20" stroke-width="0.201439" stroke-miterlimit="10" stroke-linecap="round" stroke-linejoin="round"/>
        <path opacity="0.2" d="M141.214 114.512C141.214 115.633 141.074 116.614 140.794 117.525C140.373 118.856 139.743 119.837 138.832 120.538C137.571 121.519 135.819 121.799 133.857 121.238C133.507 121.168 133.086 121.028 132.666 120.818C132.246 120.608 131.755 120.398 131.265 120.117L131.475 97.3461C131.965 97.6263 132.386 97.9066 132.876 98.2569C133.787 98.9576 134.698 99.7283 135.469 100.639C137.711 103.162 139.532 106.385 140.443 109.608C141.004 111.289 141.214 112.971 141.214 114.512Z" fill="black" stroke="#231F20" stroke-width="0.201439" stroke-miterlimit="10"/>
        <path d="M151.724 113.531C151.513 113.672 151.303 113.812 151.023 113.882L151.724 113.531Z" fill="#F1F2F2" stroke="#231F20" stroke-width="0.201439" stroke-miterlimit="10" stroke-linecap="round" stroke-linejoin="round"/>
        <path d="M154.386 107.366C154.386 108.487 154.246 109.538 153.966 110.448C153.546 111.85 152.775 112.901 151.724 113.601L151.023 113.952L144.437 117.525L138.832 120.538C139.743 119.837 140.373 118.856 140.794 117.525C141.074 116.684 141.214 115.633 141.214 114.512C141.214 112.971 140.934 111.289 140.513 109.608C139.602 106.385 137.781 103.162 135.539 100.639C134.698 99.7284 133.857 98.8876 132.946 98.257C132.526 97.9067 132.035 97.6264 131.545 97.3462L132.946 96.5754L134.838 95.5945L144.717 90.1995C150.112 93.4225 154.456 101.06 154.386 107.366Z" fill="#F1F2F2" stroke="#231F20" stroke-width="0.201439" stroke-miterlimit="10" stroke-linecap="round" stroke-linejoin="round"/>
        <path d="M189.279 139.176C189.139 139.105 188.999 139.035 188.859 138.965L189.279 139.176Z" fill="#F1F2F2" stroke="#231F20" stroke-width="0.201439" stroke-miterlimit="10" stroke-linecap="round" stroke-linejoin="round"/>
        <path d="M196.215 131.398C196.215 134.131 194.323 137.424 191.941 138.755C190.89 139.386 189.979 139.456 189.209 139.175L188.788 138.965C188.158 138.475 187.737 137.564 187.737 136.303C187.737 133.57 189.629 130.277 192.011 128.946C192.992 128.385 193.973 128.245 194.674 128.525C195.655 128.876 196.215 129.857 196.215 131.398Z" fill="#F1F2F2" stroke="#231F20" stroke-width="0.201439" stroke-miterlimit="10" stroke-linecap="round" stroke-linejoin="round"/>
        <path d="M194.674 128.525C193.973 128.245 192.993 128.385 192.012 128.946C189.699 130.277 187.738 133.57 187.738 136.303C187.738 137.564 188.158 138.475 188.789 138.965L144.367 114.442C143.456 114.092 142.896 113.041 142.896 111.57C142.896 108.837 144.787 105.544 147.17 104.213C148.291 103.582 149.271 103.512 150.042 103.862L150.182 103.932L194.674 128.525Z" fill="url(#paint0_linear_1_19911)" stroke="#231F20" stroke-width="0.201439" stroke-miterlimit="10" stroke-linecap="round" stroke-linejoin="round"/>
        <path d="M201.611 150.806C201.331 150.736 201.12 150.596 200.91 150.386L201.611 150.806Z" fill="#F1F2F2" stroke="#231F20" stroke-width="0.201439" stroke-miterlimit="10" stroke-linecap="round" stroke-linejoin="round"/>
        <path d="M213.312 138.195C213.242 142.679 210.019 148.004 206.095 150.176C204.343 151.157 202.802 151.297 201.611 150.807L200.91 150.386C199.859 149.545 199.158 148.074 199.228 146.042C199.299 141.558 202.522 136.233 206.445 134.061C208.127 133.15 209.668 132.94 210.859 133.36C212.401 133.991 213.382 135.672 213.312 138.195Z" fill="#58595B" stroke="#231F20" stroke-width="0.201439" stroke-miterlimit="10" stroke-linecap="round" stroke-linejoin="round"/>
        <path d="M211.77 139.035C211.7 142.539 209.178 146.743 206.095 148.424C204.764 149.195 203.502 149.335 202.591 148.915L202.031 148.634C201.19 148.004 200.7 146.813 200.7 145.201C200.77 141.698 203.292 137.494 206.305 135.812C207.636 135.112 208.827 134.972 209.738 135.252C211.069 135.742 211.84 137.074 211.77 139.035Z" fill="#231F20" stroke="#231F20" stroke-width="0.201439" stroke-miterlimit="10"/>
        <path d="M210.789 133.36C209.598 132.94 208.057 133.08 206.375 134.061C202.452 136.233 199.229 141.558 199.159 146.042C199.088 148.074 199.789 149.615 200.84 150.386L178.349 137.564C176.878 136.933 175.967 135.252 175.967 132.8C176.037 128.315 179.26 122.99 183.184 120.818C185.005 119.767 186.687 119.697 187.948 120.328L188.228 120.468L210.789 133.36Z" fill="url(#paint1_linear_1_19911)" stroke="#231F20" stroke-width="0.201439" stroke-miterlimit="10" stroke-linecap="round" stroke-linejoin="round"/>
        <path opacity="0.2" d="M104.57 83.1229C113.934 83.1229 121.526 78.7312 121.526 73.3137C121.526 67.8962 113.934 63.5045 104.57 63.5045C95.2052 63.5045 87.6138 67.8962 87.6138 73.3137C87.6138 78.7312 95.2052 83.1229 104.57 83.1229Z" fill="black" stroke="#231F20" stroke-width="0.201439" stroke-miterlimit="10"/>
        <path d="M127.271 69.4601C127.271 70.0206 127.201 70.5811 127.061 71.0716C126.921 71.6321 126.64 72.1926 126.36 72.6831C125.519 74.1545 124.118 75.4857 122.086 76.6769C115.15 80.6706 104.009 80.6706 97.0726 76.6769C95.0407 75.5558 93.6393 74.1545 92.7985 72.6831C92.5183 72.1226 92.238 71.6321 92.0979 71.0716C91.9578 70.5111 91.8877 70.0206 91.8877 69.4601C91.8877 68.4792 92.168 67.4282 92.6584 66.4473C92.7986 66.167 93.0087 65.8167 93.2189 65.5364C93.289 65.4663 93.3591 65.3262 93.4291 65.2561L93.5693 65.3262L96.2318 66.7976L99.1745 65.1861V63.2242L97.2828 62.1732C97.6331 61.963 97.9134 61.8229 98.2637 61.6828C98.614 61.5426 98.9643 61.3325 99.3147 61.1923C99.5249 61.1223 99.7351 61.0522 99.9453 60.9821L103.449 62.8038L106.391 61.1923V59.4407C111.927 58.8801 117.812 59.791 122.086 62.2433C125.519 64.2752 127.271 66.8676 127.271 69.4601Z" fill="#F1F2F2" stroke="#231F20" stroke-width="0.201439" stroke-miterlimit="10" stroke-linecap="round" stroke-linejoin="round"/>
        <path d="M127.271 69.4601V72.7532C127.271 75.3456 125.519 78.0081 122.086 79.9699C115.15 83.9637 104.009 83.9637 97.0726 79.9699C93.6393 78.0081 91.8877 75.3456 91.8877 72.7532V69.5301C91.8877 70.0907 91.9578 70.6512 92.0979 71.1417C92.238 71.7022 92.4482 72.2627 92.7985 72.7532C93.6393 74.2246 95.0407 75.5558 97.0726 76.7469C104.009 80.7407 115.15 80.7407 122.086 76.7469C124.118 75.6259 125.519 74.2246 126.36 72.7532C126.64 72.1926 126.921 71.7022 127.061 71.1417C127.201 70.5811 127.271 70.0206 127.271 69.4601Z" fill="#F1F2F2" stroke="#231F20" stroke-width="0.201439" stroke-miterlimit="10" stroke-linecap="round" stroke-linejoin="round"/>
        <path d="M99.1041 63.2242V65.2561L96.2314 66.8677V64.9058L99.1041 63.2242Z" fill="#F1F2F2" stroke="#231F20" stroke-width="0.201439" stroke-miterlimit="10" stroke-linecap="round" stroke-linejoin="round"/>
        <path d="M96.2314 64.9059V66.8677L93.5689 65.3963L93.4288 65.3263L92.2377 64.6957V66.2371L89.7153 64.7657V61.1223L94.0594 63.6447L94.6199 64.0651L96.2314 64.9059Z" fill="#F1F2F2" stroke="#231F20" stroke-width="0.201439" stroke-miterlimit="10" stroke-linecap="round" stroke-linejoin="round"/>
        <path d="M106.391 59.3706L106.18 59.4407L103.448 61.0522L102.046 60.2114L101.206 59.7209L96.9316 57.2686L99.8744 55.587L104.148 58.1094L106.391 59.3706Z" fill="#F1F2F2" stroke="#231F20" stroke-width="0.201439" stroke-miterlimit="10" stroke-linecap="round" stroke-linejoin="round"/>
        <path d="M106.391 59.4406V61.1221L103.448 62.7336V60.982L106.181 59.4406C106.251 59.4406 106.321 59.4406 106.391 59.4406Z" fill="#F1F2F2" stroke="#231F20" stroke-width="0.201439" stroke-miterlimit="10" stroke-linecap="round" stroke-linejoin="round"/>
        <path d="M106.391 59.3706V59.4407C106.321 59.4407 106.251 59.4407 106.181 59.4407L106.391 59.3706Z" fill="#F1F2F2" stroke="#231F20" stroke-width="0.201439" stroke-miterlimit="10" stroke-linecap="round" stroke-linejoin="round"/>
        <path d="M99.945 60.912C99.7348 60.982 99.5247 61.0521 99.3145 61.1222V60.5616L99.4546 60.6317L99.945 60.912Z" fill="#F1F2F2" stroke="#231F20" stroke-width="0.201439" stroke-miterlimit="10" stroke-linecap="round" stroke-linejoin="round"/>
        <path d="M99.1041 63.2241L96.2314 64.9057L94.6199 64.0649L94.0594 63.6445L89.7153 61.1221L92.588 59.4406L97.0022 62.033L97.2824 62.1731L99.1041 63.2241Z" fill="#F1F2F2" stroke="#231F20" stroke-width="0.201439" stroke-miterlimit="10" stroke-linecap="round" stroke-linejoin="round"/>
        <path d="M103.448 61.0521V62.8037L99.9445 60.982L99.454 60.7018L99.3139 60.6317V61.1922C98.9635 61.3324 98.6132 61.4725 98.2629 61.6827L97.9826 61.4725L96.9316 60.8419V57.1985L101.136 59.6508L102.046 60.1412L103.448 61.0521Z" fill="#F1F2F2" stroke="#231F20" stroke-width="0.201439" stroke-miterlimit="10" stroke-linecap="round" stroke-linejoin="round"/>
        <path opacity="0.2" d="M96.2314 64.9059V66.8677L93.5689 65.3963L93.4288 65.3263L92.2377 64.6957V66.2371L89.7153 64.7657V61.1223L94.0594 63.6447L94.6199 64.0651L96.2314 64.9059Z" fill="black" stroke="#231F20" stroke-width="0.201439" stroke-miterlimit="10"/>
        <path opacity="0.2" d="M103.448 61.0521V62.8037L99.9445 60.982L99.454 60.7018L99.3139 60.6317V61.1922C98.9635 61.3324 98.6132 61.4725 98.2629 61.6827L97.9826 61.4725L96.9316 60.8419V57.1985L101.136 59.6508L102.046 60.1412L103.448 61.0521Z" fill="black" stroke="#231F20" stroke-width="0.201439" stroke-miterlimit="10"/>
        <path d="M93.4289 65.3261C93.3588 65.3962 93.2888 65.5363 93.2187 65.6064L92.2378 66.237V64.6255L93.4289 65.3261Z" fill="#F1F2F2" stroke="#231F20" stroke-width="0.201439" stroke-miterlimit="10" stroke-linecap="round" stroke-linejoin="round"/>
        <path d="M127.271 69.4601V72.7532C127.271 75.3456 125.52 78.0081 122.087 79.9699C115.15 83.9637 104.01 83.9637 97.0731 79.9699C93.6398 78.0081 91.8882 75.3456 91.8882 72.7532V69.5301C91.8882 70.0907 91.9582 70.6512 92.0984 71.1417C92.2385 71.7022 92.4487 72.2627 92.799 72.7532C93.6398 74.2246 95.0411 75.5558 97.0731 76.7469C104.01 80.7407 115.15 80.7407 122.087 76.7469C124.118 75.6259 125.52 74.2246 126.361 72.7532C126.641 72.1926 126.921 71.7022 127.061 71.1417C127.201 70.5811 127.271 70.0206 127.271 69.4601Z" fill="#F1F2F2" stroke="#231F20" stroke-width="0.201439" stroke-miterlimit="10" stroke-linecap="round" stroke-linejoin="round"/>
        <path opacity="0.14" d="M112.417 79.5496V82.7726C107.022 83.263 101.277 82.3522 97.0731 79.8999C93.6398 77.938 91.8882 75.2755 91.8882 72.6831V69.4601C91.8882 70.0206 91.9582 70.5811 92.0984 71.0716C92.2385 71.6321 92.4487 72.1926 92.799 72.6831C93.6398 74.1545 95.0411 75.4857 97.0731 76.6769C101.277 79.1292 107.022 80.04 112.417 79.5496Z" fill="black" stroke="#231F20" stroke-width="0.201439" stroke-miterlimit="10"/>
    </g>
    <defs>
        <linearGradient id="paint0_linear_1_19911" x1="165.123" y1="125.885" x2="170.764" y2="115.469" gradientUnits="userSpaceOnUse">
            <stop stop-color="#59595C"/>
            <stop offset="0.3636" stop-color="#221F1F"/>
            <stop offset="0.6738" stop-color="#808184"/>
            <stop offset="1" stop-color="#424143"/>
        </linearGradient>
        <linearGradient id="paint1_linear_1_19911" x1="186.924" y1="142.494" x2="197.123" y2="125.557" gradientUnits="userSpaceOnUse">
            <stop stop-color="#59595C"/>
            <stop offset="0.3636" stop-color="#221F1F"/>
            <stop offset="0.6738" stop-color="#808184"/>
            <stop offset="1" stop-color="#424143"/>
        </linearGradient>
        <clipPath id="">
            <rect width="151.903" height="102.997" fill="white" transform="translate(61.5493 48.2302)"/>
        </clipPath>
    </defs>

</svg>
