<svg width="230" height="230" viewBox="0 0 230 230" fill="none"
    xmlns="http://www.w3.org/2000/svg">

    <g clip-path="url(#)">
        <path d="M176.528 153.329L176.037 153.609C175.967 153.609 175.967 153.609 175.897 153.609C176.177 153.539 176.387 153.399 176.528 153.329Z" fill="#F1F2F2" stroke="#231F20" stroke-width="0.201439" stroke-miterlimit="10" stroke-linecap="round" stroke-linejoin="round"/>
        <path d="M180.592 155.571C180.452 155.711 180.241 155.781 180.101 155.921L180.031 155.991L180.592 155.571Z" fill="#F1F2F2" stroke="#231F20" stroke-width="0.201439" stroke-miterlimit="10" stroke-linecap="round" stroke-linejoin="round"/>
        <path d="M176.528 153.329L176.037 153.609C175.967 153.609 175.967 153.609 175.897 153.609C176.177 153.539 176.387 153.399 176.528 153.329Z" fill="#F1F2F2" stroke="#231F20" stroke-width="0.201439" stroke-miterlimit="10" stroke-linecap="round" stroke-linejoin="round"/>
        <path d="M176.528 153.329L176.037 153.609C175.967 153.609 175.967 153.609 175.897 153.609C176.177 153.539 176.387 153.399 176.528 153.329Z" fill="#F1F2F2" stroke="#231F20" stroke-width="0.201439" stroke-miterlimit="10" stroke-linecap="round" stroke-linejoin="round"/>
        <path d="M180.592 155.571C180.452 155.711 180.241 155.781 180.101 155.921L180.031 155.991L180.592 155.571Z" fill="#F1F2F2" stroke="#231F20" stroke-width="0.201439" stroke-miterlimit="10" stroke-linecap="round" stroke-linejoin="round"/>
        <path d="M183.884 153.469C183.184 155.15 182.203 156.342 180.871 157.112L180.731 157.182C178.349 158.584 175.056 158.373 171.413 156.342L172.323 155.781C175.336 157.112 177.999 157.112 180.031 155.991L180.101 155.921C180.311 155.781 180.451 155.711 180.591 155.571L183.884 153.469Z" fill="#414042" stroke="#231F20" stroke-width="0.201439" stroke-miterlimit="10" stroke-linecap="round" stroke-linejoin="round"/>
        <path d="M176.528 153.329L176.037 153.609C175.967 153.609 175.967 153.609 175.897 153.609C176.177 153.539 176.387 153.399 176.528 153.329Z" fill="#F1F2F2" stroke="#231F20" stroke-width="0.201439" stroke-miterlimit="10" stroke-linecap="round" stroke-linejoin="round"/>
        <path d="M180.592 155.571C180.452 155.711 180.241 155.781 180.101 155.921L180.031 155.991L180.592 155.571Z" fill="#F1F2F2" stroke="#231F20" stroke-width="0.201439" stroke-miterlimit="10" stroke-linecap="round" stroke-linejoin="round"/>
        <path d="M176.528 153.329L176.037 153.609C175.967 153.609 175.967 153.609 175.897 153.609C176.177 153.539 176.387 153.399 176.528 153.329Z" fill="#F1F2F2" stroke="#231F20" stroke-width="0.201439" stroke-miterlimit="10" stroke-linecap="round" stroke-linejoin="round"/>
        <path d="M155.438 121.729L154.597 121.239C154.667 121.169 154.737 121.028 154.807 120.958L155.438 121.729Z" fill="#F1F2F2" stroke="#231F20" stroke-width="0.201439" stroke-miterlimit="10" stroke-linecap="round" stroke-linejoin="round"/>
        <path d="M137.781 93.5626L136.87 93.983C137.15 93.7728 137.431 93.6327 137.781 93.5626Z" fill="#F1F2F2" stroke="#231F20" stroke-width="0.201439" stroke-miterlimit="10" stroke-linecap="round" stroke-linejoin="round"/>
        <path d="M120.405 93.3524H120.334C120.334 93.2823 120.405 93.2823 120.405 93.2123C120.405 93.2823 120.405 93.3524 120.405 93.3524Z" fill="#F1F2F2" stroke="#231F20" stroke-width="0.201439" stroke-miterlimit="10" stroke-linecap="round" stroke-linejoin="round"/>
        <path d="M172.043 150.316C172.043 151.157 171.973 151.928 171.833 152.628C171.763 153.049 171.693 153.399 171.553 153.819C171.413 154.31 171.273 154.73 171.062 155.151C170.922 155.431 170.782 155.641 170.642 155.851C170.432 156.202 170.222 156.552 169.941 156.832C169.521 157.253 169.101 157.673 168.61 157.953L168.47 158.023C166.298 159.214 163.355 159.074 160.062 157.182C159.642 156.972 159.221 156.692 158.871 156.412L116.341 131.889C116.061 131.749 115.851 131.608 115.57 131.468C108.984 127.685 103.659 118.436 103.659 110.869C103.659 109.328 103.869 107.996 104.29 106.875C104.85 105.194 105.831 104.003 107.022 103.232C107.092 103.232 107.092 103.162 107.162 103.162C107.723 102.882 108.284 102.671 108.914 102.531C109.054 102.531 109.264 102.461 109.405 102.461C109.545 102.461 109.755 102.391 109.965 102.391L111.857 102.251L112.277 102.181L118.373 101.69L118.793 101.62L122.157 101.34L123.768 101.2L126.711 100.99L131.685 100.569C131.966 100.499 132.246 100.499 132.526 100.499C132.666 100.499 132.807 100.499 133.017 100.499C133.858 100.499 134.768 100.709 135.749 101.06C136.52 101.34 137.291 101.69 138.061 102.111C139.183 102.741 140.304 103.582 141.284 104.493C142.125 105.264 142.966 106.175 143.737 107.085L143.807 107.156C144.017 107.436 144.227 107.646 144.437 107.926L154.737 120.888C154.667 120.958 154.597 121.099 154.527 121.169L155.368 121.659L156.909 123.621L157.189 123.971L159.432 126.844L161.604 129.577L164.827 133.64C165.387 134.201 165.878 134.831 166.368 135.462C166.718 135.882 167.069 136.373 167.349 136.863C169.871 140.647 171.623 145.061 171.903 149.195C171.973 149.615 172.043 149.966 172.043 150.316Z" fill="#F1F2F2" stroke="#231F20" stroke-width="0.201439" stroke-miterlimit="10" stroke-linecap="round" stroke-linejoin="round"/>
        <path opacity="0.14" d="M172.043 150.316C172.043 151.157 171.973 151.928 171.833 152.628C171.763 153.049 171.693 153.399 171.553 153.819C171.413 154.31 171.273 154.73 171.062 155.151C170.922 155.431 170.782 155.641 170.642 155.851C170.432 156.202 170.222 156.552 169.941 156.832C169.521 157.253 169.101 157.673 168.61 157.953L168.47 158.023C166.298 159.214 163.355 159.074 160.062 157.182C159.642 156.972 159.221 156.692 158.871 156.412L116.341 131.889C116.061 131.749 115.851 131.608 115.57 131.468C108.984 127.685 103.659 118.436 103.659 110.869C103.659 109.328 103.869 107.996 104.29 106.875C104.85 105.194 105.831 104.003 107.022 103.232C107.092 103.232 107.092 103.162 107.162 103.162C107.723 102.882 108.284 102.671 108.914 102.531C109.054 102.531 109.264 102.461 109.405 102.461C109.545 102.461 109.755 102.391 109.965 102.391L111.857 102.251L112.277 102.181L118.373 101.69L118.793 101.62L122.157 101.34L123.768 101.2L126.711 100.99L131.685 100.569C131.966 100.499 132.246 100.499 132.526 100.499C132.666 100.499 132.807 100.499 133.017 100.499C133.858 100.499 134.768 100.709 135.749 101.06C136.52 101.34 137.291 101.69 138.061 102.111C139.183 102.741 140.304 103.582 141.284 104.493C142.125 105.264 142.966 106.175 143.737 107.085L143.807 107.156C144.017 107.436 144.227 107.646 144.437 107.926L154.737 120.888C154.667 120.958 154.597 121.099 154.527 121.169L155.368 121.659L156.909 123.621L157.189 123.971L159.432 126.844L161.604 129.577L164.827 133.64C165.387 134.201 165.878 134.831 166.368 135.462C166.718 135.882 167.069 136.373 167.349 136.863C169.871 140.647 171.623 145.061 171.903 149.195C171.973 149.615 172.043 149.966 172.043 150.316Z" fill="black" stroke="#231F20" stroke-width="0.0802954" stroke-miterlimit="10"/>
        <path d="M155.438 121.729L154.597 121.239C154.667 121.169 154.737 121.028 154.807 120.958L155.438 121.729Z" fill="#F1F2F2" stroke="#231F20" stroke-width="0.201439" stroke-miterlimit="10" stroke-linecap="round" stroke-linejoin="round"/>
        <path d="M188.088 150.456C188.088 155.08 186.477 158.374 183.884 159.915L183.744 159.985C181.082 161.526 177.438 161.246 173.375 158.934C172.884 158.654 172.394 158.303 171.903 158.023L170.222 157.042L171.413 156.342C175.056 158.374 178.349 158.584 180.732 157.182L180.872 157.112C182.203 156.342 183.184 155.08 183.884 153.469C184.445 152.068 184.795 150.386 184.795 148.424C184.795 147.653 184.725 146.813 184.655 145.972C184.305 142.959 183.254 139.876 181.782 136.863C181.152 135.602 180.381 134.341 179.61 133.15C178.7 131.819 177.719 130.627 176.738 129.506L172.043 123.551L169.661 120.538L169.311 120.118L167.279 117.595L161.183 109.888L159.221 107.436L153.546 100.219C153.336 99.9387 153.126 99.6584 152.845 99.3782L152.775 99.3081C151.794 98.117 150.743 97.066 149.692 96.0851C148.571 95.1041 147.45 94.2634 146.259 93.6328C144.508 92.6518 142.896 92.0913 141.425 91.8811C141.284 91.8811 141.144 91.8111 140.934 91.8111C140.514 91.8111 140.163 91.741 139.813 91.8111C139.533 91.8111 139.253 91.8811 139.042 91.8811L131.756 92.5117L130.845 92.5818L120.335 93.4226C120.335 93.3525 120.335 93.3525 120.335 93.2824C120.335 93.3525 120.265 93.3525 120.265 93.4226L117.953 93.6328L114.169 93.913C113.959 93.913 113.749 93.913 113.538 93.9831C112.628 94.1232 111.787 94.4035 111.016 94.8239C108.634 96.2252 107.092 99.0979 107.022 103.302C105.761 104.073 104.85 105.264 104.29 106.945C103.869 105.194 103.659 103.442 103.659 101.76C103.659 97.066 105.341 93.7729 108.003 92.2314H108.073C108.494 92.0212 108.914 91.8111 109.335 91.6709C109.825 91.5308 110.245 91.3907 110.806 91.3206C111.016 91.3206 111.226 91.2505 111.436 91.2505L120.405 90.4798L132.596 89.4989L137.921 89.0785L138.482 89.0084C138.902 88.9384 139.323 88.9384 139.743 88.9384C141.355 88.9384 143.106 89.3587 144.998 90.1995C145.418 90.4097 145.909 90.6199 146.329 90.9002C148.922 92.3716 151.304 94.5436 153.406 97.066L153.476 97.136C153.756 97.4163 153.966 97.7666 154.247 98.0469L160.833 106.385L168.89 116.614L168.82 116.684L169.311 117.105L170.852 119.067L173.655 122.57L173.935 122.92L179.4 129.787C180.521 130.978 181.572 132.379 182.553 133.78C183.674 135.392 184.585 137.144 185.426 138.895C186.757 141.838 187.668 144.921 188.018 147.864C188.018 148.775 188.088 149.615 188.088 150.456Z" fill="#231F20" stroke="#231F20" stroke-width="0.201439" stroke-miterlimit="10" stroke-linecap="round" stroke-linejoin="round"/>
        <path d="M169.241 117.035L168.68 116.614L168.82 116.544L169.241 117.035Z" fill="#F1F2F2" stroke="#231F20" stroke-width="0.201439" stroke-miterlimit="10" stroke-linecap="round" stroke-linejoin="round"/>
        <path d="M137.781 93.5626L136.87 93.983C137.15 93.7728 137.431 93.6327 137.781 93.5626Z" fill="#F1F2F2" stroke="#231F20" stroke-width="0.201439" stroke-miterlimit="10" stroke-linecap="round" stroke-linejoin="round"/>
        <path d="M141.425 91.811L141.144 91.9512L140.934 91.811C141.144 91.811 141.284 91.811 141.425 91.811Z" fill="#F1F2F2" stroke="#231F20" stroke-width="0.201439" stroke-miterlimit="10" stroke-linecap="round" stroke-linejoin="round"/>
        <path d="M169.521 120.468L168.96 120.118L169.171 120.048L169.521 120.468Z" fill="#F1F2F2" stroke="#231F20" stroke-width="0.201439" stroke-miterlimit="10" stroke-linecap="round" stroke-linejoin="round"/>
        <path d="M155.438 121.729L154.597 121.239C154.667 121.169 154.737 121.028 154.807 120.958L155.438 121.729Z" fill="#F1F2F2" stroke="#231F20" stroke-width="0.201439" stroke-miterlimit="10" stroke-linecap="round" stroke-linejoin="round"/>
        <path d="M122.437 97.2761L121.036 97.4163L118.583 97.6264L118.023 97.6965C117.813 97.6965 117.673 97.6965 117.462 97.7666C116.622 97.8366 115.921 98.1169 115.22 98.4672L108.984 102.181C109.405 99.1679 110.736 97.0659 112.628 96.0149C113.048 95.8047 113.399 95.5945 113.889 95.4544C115.43 94.9639 117.182 95.034 119.074 95.7347C119.634 95.9449 120.195 96.1551 120.755 96.4353C121.036 96.5755 121.386 96.7156 121.666 96.9258C121.947 96.9258 122.157 97.136 122.437 97.2761Z" fill="#928874" stroke="#231F20" stroke-width="0.201439" stroke-miterlimit="10"/>
        <path d="M134.978 95.5946C134.768 95.8048 134.628 96.0851 134.488 96.2953L131.755 96.5055L122.437 97.2762C122.156 97.1361 121.946 96.9959 121.666 96.8558C121.386 96.6456 121.035 96.5055 120.755 96.3653C120.195 96.0851 119.634 95.8048 119.074 95.6647C117.112 95.0341 115.36 94.964 113.889 95.3844L118.023 93.6328L120.335 93.4226H120.405L130.915 92.5818C131.055 92.6519 131.125 92.7219 131.265 92.792C131.405 92.8621 131.615 93.0022 131.755 93.0722C132.806 93.7028 133.927 94.6137 134.978 95.5946Z" fill="url(#paint0_linear_1_19911)" stroke="#231F20" stroke-width="0.201439" stroke-miterlimit="10" stroke-linecap="round" stroke-linejoin="round"/>
        <path d="M117.952 93.5626L113.818 95.3143C113.398 95.4544 112.978 95.5945 112.557 95.8748C110.665 96.9958 109.334 99.0978 108.914 102.041L107.162 103.092C107.092 103.092 107.092 103.162 107.022 103.162C107.092 99.0278 108.563 96.085 111.016 94.6837C111.786 94.2633 112.627 93.983 113.538 93.8429C113.748 93.8429 113.958 93.7728 114.169 93.7728L117.952 93.5626Z" fill="#414042" stroke="#231F20" stroke-width="0.201439" stroke-miterlimit="10" stroke-linecap="round" stroke-linejoin="round"/>
        <path d="M137.781 93.5626L136.87 93.983C137.15 93.7728 137.431 93.6327 137.781 93.5626Z" fill="#F1F2F2" stroke="#231F20" stroke-width="0.201439" stroke-miterlimit="10" stroke-linecap="round" stroke-linejoin="round"/>
        <path d="M184.725 148.424C184.725 150.386 184.445 152.068 183.814 153.469L180.591 155.571C182.553 154.1 183.744 151.367 183.744 147.654C183.744 146.883 183.674 146.182 183.604 145.411C183.254 142.399 182.203 139.246 180.661 136.303C178.279 131.749 174.776 127.685 170.852 125.443C170.432 125.232 170.011 124.952 169.591 124.812L166.928 121.379L168.96 120.118L169.521 120.398L171.903 123.411L176.597 129.366C177.648 130.487 178.629 131.749 179.47 133.01C180.311 134.201 181.011 135.462 181.642 136.723C183.113 139.666 184.094 142.819 184.515 145.832C184.655 146.813 184.725 147.654 184.725 148.424Z" fill="url(#paint1_linear_1_19911)" stroke="#231F20" stroke-width="0.201439" stroke-miterlimit="10" stroke-linecap="round" stroke-linejoin="round"/>
        <path d="M183.744 147.653C183.744 151.367 182.553 154.099 180.591 155.571L179.961 155.991C177.929 157.112 175.266 157.112 172.253 155.781L176.037 153.539L176.527 153.259L176.597 153.189C178.699 151.927 180.031 149.265 180.031 145.551C180.031 144.781 179.961 144.01 179.89 143.239C179.47 140.156 178.279 136.863 176.597 133.921C176.247 133.36 175.967 132.8 175.616 132.309C175.616 132.239 175.546 132.239 175.546 132.169C174.776 131.048 173.935 129.927 173.024 128.946L169.731 124.812C170.151 125.022 170.572 125.232 170.992 125.443C174.916 127.685 178.419 131.749 180.801 136.303C182.343 139.246 183.394 142.399 183.744 145.411C183.744 146.182 183.744 146.953 183.744 147.653Z" fill="#928874" stroke="#231F20" stroke-width="0.201439" stroke-miterlimit="10"/>
        <path d="M141.425 91.811L141.144 91.9512L140.934 91.811C141.144 91.811 141.284 91.811 141.425 91.811Z" fill="#F1F2F2" stroke="#231F20" stroke-width="0.201439" stroke-miterlimit="10" stroke-linecap="round" stroke-linejoin="round"/>
        <path d="M169.521 120.468L168.96 120.118L169.171 120.048L169.521 120.468Z" fill="#F1F2F2" stroke="#231F20" stroke-width="0.201439" stroke-miterlimit="10" stroke-linecap="round" stroke-linejoin="round"/>
        <path d="M155.438 121.729L154.597 121.239C154.667 121.169 154.737 121.028 154.807 120.958L155.438 121.729Z" fill="#F1F2F2" stroke="#231F20" stroke-width="0.201439" stroke-miterlimit="10" stroke-linecap="round" stroke-linejoin="round"/>
        <path d="M155.438 121.729L154.597 121.239C154.667 121.169 154.737 121.028 154.807 120.958L155.438 121.729Z" fill="#F1F2F2" stroke="#231F20" stroke-width="0.201439" stroke-miterlimit="10" stroke-linecap="round" stroke-linejoin="round"/>
        <path d="M180.031 145.622C180.031 149.405 178.699 151.998 176.598 153.259L176.527 153.329C176.317 153.469 176.107 153.539 175.897 153.609C175.967 153.609 175.967 153.609 176.037 153.609L172.253 155.851L171.343 156.412L170.151 157.112L168.54 158.093C169.03 157.813 169.451 157.393 169.871 156.972C170.151 156.692 170.362 156.342 170.572 155.991C170.712 155.781 170.852 155.501 170.992 155.291C171.202 154.87 171.343 154.45 171.483 153.959C171.623 153.609 171.693 153.189 171.763 152.768C171.903 152.068 171.973 151.297 171.973 150.456C171.973 150.106 171.973 149.685 171.903 149.335C171.623 145.271 169.941 140.787 167.349 137.003C166.999 136.513 166.718 136.093 166.368 135.602C165.877 134.972 165.387 134.341 164.826 133.78L161.603 129.717L159.431 126.984L157.189 124.111L156.909 123.761L155.438 121.729L154.807 120.958L144.577 107.926C144.367 107.646 144.157 107.436 143.947 107.155L143.877 107.085C143.106 106.175 142.265 105.264 141.425 104.493C140.374 103.582 139.323 102.741 138.201 102.111C137.431 101.62 136.59 101.27 135.889 101.06C134.908 100.709 133.998 100.569 133.157 100.499C133.017 100.499 132.806 100.499 132.666 100.499C132.386 100.499 132.106 100.499 131.826 100.569L126.851 100.99L123.908 101.2L122.297 101.34L118.933 101.62L118.513 101.69L112.347 102.181L111.927 102.251L110.035 102.391C109.825 102.391 109.685 102.391 109.475 102.461C109.334 102.461 109.124 102.531 108.984 102.531C108.353 102.671 107.793 102.881 107.232 103.162L108.984 102.111L115.22 98.3972C115.921 98.0469 116.621 97.7666 117.462 97.6966C117.602 97.6966 117.812 97.6265 118.023 97.6265L118.583 97.5564L121.035 97.3462L122.437 97.2061L131.755 96.4354L134.488 96.2252L135.609 96.1551L139.813 95.8048C140.093 95.7347 140.374 95.7347 140.654 95.7347C142.335 95.6647 144.157 96.2252 146.189 97.3462C148.291 98.5374 150.183 100.289 151.934 102.321L152.004 102.391C152.215 102.671 152.425 102.881 152.635 103.162L157.119 108.837L163.565 116.965L165.107 118.927L166.999 121.309L169.661 124.742L172.954 128.876C173.865 129.857 174.706 130.978 175.476 132.099C175.476 132.169 175.547 132.169 175.547 132.239C175.897 132.8 176.247 133.29 176.527 133.851C178.209 136.793 179.4 140.086 179.821 143.169C180.031 144.08 180.031 144.851 180.031 145.622Z" fill="#F1F2F2" stroke="#231F20" stroke-width="0.201439" stroke-miterlimit="10" stroke-linecap="round" stroke-linejoin="round"/>
        <path d="M155.438 121.729L154.597 121.239C154.667 121.169 154.737 121.028 154.807 120.958L155.438 121.729Z" fill="#F1F2F2" stroke="#231F20" stroke-width="0.201439" stroke-miterlimit="10" stroke-linecap="round" stroke-linejoin="round"/>
        <path d="M169.241 117.035L168.68 116.614L168.82 116.544L169.241 117.035Z" fill="#F1F2F2" stroke="#231F20" stroke-width="0.201439" stroke-miterlimit="10" stroke-linecap="round" stroke-linejoin="round"/>
        <path d="M137.781 93.5626L136.87 93.983C137.15 93.7728 137.431 93.6327 137.781 93.5626Z" fill="#F1F2F2" stroke="#231F20" stroke-width="0.201439" stroke-miterlimit="10" stroke-linecap="round" stroke-linejoin="round"/>
        <path d="M141.425 91.811L141.144 91.9512L140.934 91.811C141.144 91.811 141.284 91.811 141.425 91.811Z" fill="#F1F2F2" stroke="#231F20" stroke-width="0.201439" stroke-miterlimit="10" stroke-linecap="round" stroke-linejoin="round"/>
        <path d="M169.521 120.468L168.96 120.118L169.171 120.048L169.521 120.468Z" fill="#F1F2F2" stroke="#231F20" stroke-width="0.201439" stroke-miterlimit="10" stroke-linecap="round" stroke-linejoin="round"/>
        <path d="M141.425 91.811L141.144 91.9512L140.934 91.811C141.144 91.811 141.284 91.811 141.425 91.811Z" fill="#F1F2F2" stroke="#231F20" stroke-width="0.201439" stroke-miterlimit="10" stroke-linecap="round" stroke-linejoin="round"/>
        <path d="M169.521 120.468L168.96 120.118L169.171 120.048L169.521 120.468Z" fill="#F1F2F2" stroke="#231F20" stroke-width="0.201439" stroke-miterlimit="10" stroke-linecap="round" stroke-linejoin="round"/>
        <path d="M169.241 117.035L168.68 116.614L168.82 116.544L169.241 117.035Z" fill="#F1F2F2" stroke="#231F20" stroke-width="0.201439" stroke-miterlimit="10" stroke-linecap="round" stroke-linejoin="round"/>
        <path d="M207.987 129.016C207.987 132.799 206.656 135.392 204.554 136.653L204.484 136.723L204.344 136.583C203.573 132.309 201.682 127.965 199.089 124.111C198.108 122.71 197.057 121.379 195.936 120.118L170.853 88.3077C170.642 87.9574 170.362 87.6771 170.082 87.3969L170.012 87.3268C167.91 84.8044 165.528 82.6324 162.935 81.161C161.954 80.6005 161.043 80.1801 160.203 79.8298L167.77 79.1992C169.591 78.9189 171.834 79.4094 174.146 80.7406C176.248 81.9318 178.139 83.6834 179.891 85.7153L179.961 85.7854C180.171 86.0656 180.382 86.2758 180.592 86.5561L200.911 112.27C201.822 113.251 202.662 114.372 203.433 115.493C206.236 119.697 207.987 124.602 207.987 129.016Z" fill="#F1F2F2" stroke="#231F20" stroke-width="0.201439" stroke-miterlimit="10" stroke-linecap="round" stroke-linejoin="round"/>
        <path d="M204.484 136.723L204.414 136.793C204.414 136.723 204.414 136.653 204.414 136.583L204.484 136.723Z" fill="#F1F2F2" stroke="#231F20" stroke-width="0.201439" stroke-miterlimit="10" stroke-linecap="round" stroke-linejoin="round"/>
        <path d="M169.241 117.035L168.68 116.614L168.82 116.544L169.241 117.035Z" fill="#F1F2F2" stroke="#231F20" stroke-width="0.201439" stroke-miterlimit="10" stroke-linecap="round" stroke-linejoin="round"/>
        <path d="M141.144 91.9512L139.953 92.5117L137.781 93.5627C137.431 93.7028 137.15 93.8429 136.87 93.9831C136.169 94.4035 135.539 94.8939 135.048 95.5946C133.997 94.6137 132.876 93.7729 131.755 93.0021C131.615 92.9321 131.405 92.792 131.265 92.7219C131.125 92.6518 131.055 92.5818 130.915 92.5117L131.825 92.4416L139.112 91.811C139.393 91.741 139.603 91.741 139.883 91.741C140.233 91.741 140.654 91.741 141.004 91.741L141.144 91.9512Z" fill="#414042" stroke="#231F20" stroke-width="0.201439" stroke-miterlimit="10" stroke-linecap="round" stroke-linejoin="round"/>
        <path d="M157.049 108.837L152.565 103.162C152.355 102.881 152.145 102.671 151.935 102.391V102.391C150.253 100.359 148.291 98.6075 146.189 97.4163C144.227 96.2953 142.336 95.7348 140.654 95.8048C140.374 95.8048 140.094 95.8048 139.813 95.8749L135.609 96.2252L134.488 96.2953C134.628 96.015 134.769 95.8048 134.979 95.5946C135.469 94.964 136.1 94.4035 136.8 93.9831L137.711 93.5627C138.412 93.2825 139.183 93.1423 140.023 93.1423C140.934 93.1423 141.915 93.2825 142.966 93.5627C143.877 93.843 144.858 94.2634 145.909 94.894C149.342 96.9259 152.495 100.289 154.807 104.213C155.718 105.684 156.419 107.226 157.049 108.837Z" fill="#928874" stroke="#231F20" stroke-width="0.201439" stroke-miterlimit="10"/>
        <path d="M137.781 93.5626L136.87 93.983C137.15 93.7728 137.431 93.6327 137.781 93.5626Z" fill="#F1F2F2" stroke="#231F20" stroke-width="0.201439" stroke-miterlimit="10" stroke-linecap="round" stroke-linejoin="round"/>
        <path d="M141.425 91.811L141.144 91.9512L140.934 91.811C141.144 91.811 141.284 91.811 141.425 91.811Z" fill="#F1F2F2" stroke="#231F20" stroke-width="0.201439" stroke-miterlimit="10" stroke-linecap="round" stroke-linejoin="round"/>
        <path d="M169.171 120.048L168.961 120.118L166.999 121.379L165.107 118.926L165.948 118.366L167.279 117.595L169.171 120.048Z" fill="#414042" stroke="#231F20" stroke-width="0.201439" stroke-miterlimit="10" stroke-linecap="round" stroke-linejoin="round"/>
        <path d="M169.521 120.468L168.96 120.118L169.171 120.048L169.521 120.468Z" fill="#F1F2F2" stroke="#231F20" stroke-width="0.201439" stroke-miterlimit="10" stroke-linecap="round" stroke-linejoin="round"/>
        <path d="M167.279 117.595L165.948 118.366L165.037 118.926L163.496 116.965L157.05 108.837C156.419 107.226 155.648 105.684 154.807 104.213C152.495 100.289 149.342 96.9258 145.909 94.8939C144.928 94.3334 143.947 93.913 142.966 93.5627C141.915 93.2124 140.934 93.0722 140.024 93.1423C139.183 93.1423 138.412 93.2824 137.711 93.5627L139.883 92.5117L141.075 91.9512L141.355 91.811C142.896 92.0212 144.508 92.5818 146.189 93.5627C147.381 94.2633 148.502 95.1041 149.623 96.015C150.744 96.9959 151.725 98.0469 152.705 99.238L152.776 99.3081C152.986 99.5883 153.266 99.8686 153.476 100.149L159.152 107.366L161.113 109.818L167.279 117.595Z" fill="url(#paint2_linear_1_19911)" stroke="#231F20" stroke-width="0.201439" stroke-miterlimit="10" stroke-linecap="round" stroke-linejoin="round"/>
        <path d="M141.425 91.811L141.144 91.9512L140.934 91.811C141.144 91.811 141.284 91.811 141.425 91.811Z" fill="#F1F2F2" stroke="#231F20" stroke-width="0.201439" stroke-miterlimit="10" stroke-linecap="round" stroke-linejoin="round"/>
        <path d="M169.241 117.035L168.68 116.614L168.82 116.544L169.241 117.035Z" fill="#F1F2F2" stroke="#231F20" stroke-width="0.201439" stroke-miterlimit="10" stroke-linecap="round" stroke-linejoin="round"/>
        <path d="M204.484 136.723L204.414 136.793C204.414 136.723 204.414 136.653 204.414 136.583L204.484 136.723Z" fill="#F1F2F2" stroke="#231F20" stroke-width="0.201439" stroke-miterlimit="10" stroke-linecap="round" stroke-linejoin="round"/>
        <path d="M204.764 140.717C204.764 145.341 203.152 148.634 200.56 150.176L200.42 150.246L183.884 159.915C186.477 158.374 188.088 155.08 188.088 150.456C188.088 149.615 188.018 148.774 187.948 147.934C187.598 144.991 186.687 141.908 185.356 138.965C184.515 137.214 183.604 135.462 182.483 133.85C181.502 132.449 180.451 131.118 179.33 129.857L173.865 122.99L173.585 122.64L170.782 119.137L169.241 117.175L168.82 116.684L160.763 106.315L154.177 97.9768C153.966 97.6265 153.686 97.3462 153.406 97.066L153.336 96.9959C151.234 94.4735 148.852 92.3015 146.259 90.8301C145.769 90.5498 145.348 90.3396 144.928 90.1294C143.036 89.2186 141.284 88.7982 139.673 88.8683C139.253 88.8683 138.832 88.9383 138.412 88.9383L137.851 89.0084L132.526 89.4288L120.405 90.4798L111.436 91.2505C111.226 91.2505 111.016 91.2505 110.806 91.3206C110.315 91.3906 109.825 91.4607 109.334 91.6709C108.914 91.811 108.494 92.0212 108.073 92.2314L124.679 82.4222C125.099 82.212 125.52 82.0018 126.01 81.8617C126.501 81.7216 126.921 81.5814 127.481 81.5114C127.692 81.5114 127.902 81.4413 128.112 81.4413L155.157 79.1992C156.699 78.989 158.451 79.1291 160.272 79.8298C161.183 80.1801 162.094 80.6005 163.005 81.161C165.597 82.6324 167.979 84.8044 170.081 87.3268L170.152 87.3969C170.432 87.6771 170.642 88.0275 170.922 88.3077L196.006 120.118C197.127 121.309 198.178 122.71 199.159 124.111C201.751 127.895 203.643 132.309 204.414 136.583C204.414 136.653 204.414 136.723 204.414 136.793C204.624 138.124 204.764 139.456 204.764 140.717Z" fill="#414042" stroke="#231F20" stroke-width="0.201439" stroke-miterlimit="10" stroke-linecap="round" stroke-linejoin="round"/>
    </g>
    <defs>
        <linearGradient id="paint0_linear_1_19911" x1="113.864" y1="94.8909" x2="135.002" y2="94.8909" gradientUnits="userSpaceOnUse">
            <stop stop-color="#58595B"/>
            <stop offset="1"/>
        </linearGradient>
        <linearGradient id="paint1_linear_1_19911" x1="166.975" y1="137.864" x2="184.739" y2="137.864" gradientUnits="userSpaceOnUse">
            <stop stop-color="#58595B"/>
            <stop offset="1"/>
        </linearGradient>
        <linearGradient id="paint2_linear_1_19911" x1="137.753" y1="105.395" x2="167.244" y2="105.395" gradientUnits="userSpaceOnUse">
            <stop stop-color="#58595B"/>
            <stop offset="1"/>
        </linearGradient>
        <clipPath id="">
            <rect width="104.538" height="81.9769" fill="white" transform="translate(103.589 79.0592)"/>
        </clipPath>
    </defs>


    <g clip-path="url(#)">
        <path d="M167.768 124.602L129.442 146.743L123.487 137.914L163.004 115.493L167.768 124.602Z" fill="#F9FAFA" stroke="#231F20" stroke-width="0.201439" stroke-miterlimit="10" stroke-linecap="round" stroke-linejoin="round"/>
        <path d="M167.769 124.602V137.564L129.443 160.546V146.743L167.769 124.602Z" fill="#F1F2F2" stroke="#231F20" stroke-width="0.201439" stroke-miterlimit="10" stroke-linecap="round" stroke-linejoin="round"/>
        <path d="M129.443 146.743V160.546L92.3079 163.979L46.9053 124.672V106.945L61.479 101.62H61.6191L120.965 136.443L123.487 137.914L129.443 146.743Z" fill="#F1F2F2" stroke="#231F20" stroke-width="0.201439" stroke-miterlimit="10" stroke-linecap="round" stroke-linejoin="round"/>
        <path d="M163.004 115.493L150.182 122.85L133.156 132.449L123.487 137.914L120.965 136.443L61.6191 101.62H61.479L71.2882 96.1553L101.346 79.1293L163.004 115.493Z" fill="#F1F2F2" stroke="#231F20" stroke-width="0.201439" stroke-miterlimit="10" stroke-linecap="round" stroke-linejoin="round"/>
        <path d="M71.2882 96.1553L61.479 101.62L46.9053 106.945L88.2441 83.6135L101.346 79.1293L71.2882 96.1553Z" fill="#F1F2F2" stroke="#231F20" stroke-width="0.201439" stroke-miterlimit="10" stroke-linecap="round" stroke-linejoin="round"/>
        <path opacity="0.14" d="M129.443 146.743V160.546L92.3079 163.979L46.9053 124.672V106.945L61.479 101.62H61.6191L120.965 136.443L123.487 137.914L129.443 146.743Z" fill="black" stroke="#231F20" stroke-width="0.0802954" stroke-miterlimit="10"/>
        <path d="M123.136 94.1234L111.576 87.5372L107.302 89.9195L75.4917 108.417L87.9634 115.423L96.2312 120.048L99.1739 121.729L103.028 123.901L107.302 126.284V126.143L107.442 126.214L113.607 122.64L116.48 120.959L119.143 119.417L123.277 117.035L136.309 109.608L143.245 105.614L123.136 94.1234ZM133.646 108.137L120.614 115.564L116.48 117.946L113.818 119.487L113.678 119.557L108.072 122.78L107.372 122.36L106.601 121.94L102.747 119.697L99.8746 118.016L90.696 112.761L85.6512 109.818L82.3581 107.926L84.0397 106.945L96.091 100.079L96.3012 99.9389L102.957 96.0853L111.225 91.3208L118.022 95.2445L136.939 106.175L133.646 108.137Z" fill="#F1F2F2" stroke="#231F20" stroke-width="0.328328" stroke-miterlimit="10" stroke-linecap="round" stroke-linejoin="round"/>
        <path d="M136.939 106.245L133.646 108.136L113.187 96.2953L111.155 95.1743V91.3207L117.952 95.2444L136.939 106.245Z" fill="#F1F2F2" stroke="#231F20" stroke-width="0.328328" stroke-miterlimit="10" stroke-linecap="round" stroke-linejoin="round"/>
        <path d="M111.155 91.3207V95.1743L106.741 97.6967L96.3012 103.722L93.7789 105.194L90.6259 106.945L85.6512 109.818L82.2881 107.856L83.9697 106.945L96.091 100.079L96.3012 99.9388L102.957 96.0851L111.155 91.3207Z" fill="#F1F2F2" stroke="#231F20" stroke-width="0.328328" stroke-miterlimit="10" stroke-linecap="round" stroke-linejoin="round"/>
        <path d="M133.646 108.137L120.544 115.564L116.48 117.876L113.817 119.417L113.677 119.347V119.487L108.072 122.78L107.301 122.36L106.53 121.869L102.747 119.697L99.8742 118.016L90.6956 112.761L85.6509 109.818L90.6255 106.945L93.7785 105.194L96.3009 103.722L106.741 97.6968L111.155 95.1744L113.187 96.2955L133.646 108.137Z" fill="#F1F2F2" stroke="#231F20" stroke-width="0.328328" stroke-miterlimit="10" stroke-linecap="round" stroke-linejoin="round"/>
        <path opacity="0.2" d="M136.939 106.245L130.073 110.168L107.652 97.2062L111.155 91.3207L136.939 106.245Z" fill="black" stroke="#231F20" stroke-width="0.328328" stroke-miterlimit="10"/>
        <path d="M59.7271 93.843C59.7271 93.843 59.7977 93.843 59.7271 93.843C59.7977 93.843 59.7977 93.843 59.7271 93.843Z" fill="#F1F2F2" stroke="#231F20" stroke-width="0.201439" stroke-miterlimit="10" stroke-linecap="round" stroke-linejoin="round"/>
        <path d="M91.1868 84.3843L67.1543 97.907L59.7974 93.8431L83.1993 80.7408L91.1868 84.3843Z" fill="#F1F2F2" stroke="#231F20" stroke-width="0.201439" stroke-miterlimit="10" stroke-linecap="round" stroke-linejoin="round"/>
        <path d="M67.1543 97.9068L59.7974 100.569V93.843L67.1543 97.9068Z" fill="#F1F2F2" stroke="#231F20" stroke-width="0.201439" stroke-miterlimit="10" stroke-linecap="round" stroke-linejoin="round"/>
        <path opacity="0.14" d="M67.1543 97.9068L59.7974 100.569V93.843L67.1543 97.9068Z" fill="black" stroke="#231F20" stroke-width="0.201439" stroke-miterlimit="10"/>
        <path d="M130.634 115.774L130.074 115.493L140.443 109.468L141.074 109.818L130.634 115.774Z" fill="#6D6E71" stroke="#231F20" stroke-width="0.0125215" stroke-miterlimit="10" stroke-linecap="round" stroke-linejoin="round"/>
        <path d="M131.895 116.474L131.265 116.194L141.634 110.168L142.265 110.519L131.895 116.474Z" fill="#6D6E71" stroke="#231F20" stroke-width="0.0125215" stroke-miterlimit="10" stroke-linecap="round" stroke-linejoin="round"/>
        <path d="M133.086 117.175L132.456 116.825L142.895 110.869L143.456 111.219L133.086 117.175Z" fill="#6D6E71" stroke="#231F20" stroke-width="0.0125215" stroke-miterlimit="10" stroke-linecap="round" stroke-linejoin="round"/>
        <path d="M134.278 117.876L133.647 117.525L144.087 111.57L144.647 111.92L134.278 117.876Z" fill="#6D6E71" stroke="#231F20" stroke-width="0.0125215" stroke-miterlimit="10" stroke-linecap="round" stroke-linejoin="round"/>
        <path d="M135.469 118.576L134.908 118.226L145.278 112.27L145.838 112.621L135.469 118.576Z" fill="#6D6E71" stroke="#231F20" stroke-width="0.0125215" stroke-miterlimit="10" stroke-linecap="round" stroke-linejoin="round"/>
        <path d="M136.66 119.277L136.1 118.927L146.469 112.971L147.1 113.321L136.66 119.277Z" fill="#6D6E71" stroke="#231F20" stroke-width="0.0125215" stroke-miterlimit="10" stroke-linecap="round" stroke-linejoin="round"/>
        <path d="M137.921 119.978L137.29 119.627L147.66 113.672L148.29 113.952L137.921 119.978Z" fill="#6D6E71" stroke="#231F20" stroke-width="0.0125215" stroke-miterlimit="10" stroke-linecap="round" stroke-linejoin="round"/>
        <path d="M139.113 120.678L138.482 120.328L148.922 114.372L149.482 114.653L139.113 120.678Z" fill="#6D6E71" stroke="#231F20" stroke-width="0.0125215" stroke-miterlimit="10" stroke-linecap="round" stroke-linejoin="round"/>
        <path d="M140.303 121.379L139.742 121.029L150.112 115.003L150.672 115.353L140.303 121.379Z" fill="#6D6E71" stroke="#231F20" stroke-width="0.0125215" stroke-miterlimit="10" stroke-linecap="round" stroke-linejoin="round"/>
        <path d="M141.495 122.08L140.934 121.729L151.304 115.704L151.864 116.054L141.495 122.08Z" fill="#6D6E71" stroke="#231F20" stroke-width="0.0125215" stroke-miterlimit="10" stroke-linecap="round" stroke-linejoin="round"/>
        <path d="M142.686 122.78L142.125 122.43L152.495 116.404L153.125 116.755L142.686 122.78Z" fill="#6D6E71" stroke="#231F20" stroke-width="0.0125215" stroke-miterlimit="10" stroke-linecap="round" stroke-linejoin="round"/>
        <path d="M143.947 123.481L143.316 123.131L153.686 117.105L154.316 117.455L143.947 123.481Z" fill="#6D6E71" stroke="#231F20" stroke-width="0.0125215" stroke-miterlimit="10" stroke-linecap="round" stroke-linejoin="round"/>
        <path d="M154.316 117.455L153.686 117.806L139.883 109.818L140.443 109.468L154.316 117.455Z" fill="#6D6E71" stroke="#231F20" stroke-width="0.0125215" stroke-miterlimit="10" stroke-linecap="round" stroke-linejoin="round"/>
        <path d="M153.056 118.156L152.495 118.506L138.622 110.519L139.253 110.168L153.056 118.156Z" fill="#6D6E71" stroke="#231F20" stroke-width="0.0125215" stroke-miterlimit="10" stroke-linecap="round" stroke-linejoin="round"/>
        <path d="M151.864 118.857L151.233 119.207L137.43 111.219L137.991 110.869L151.864 118.857Z" fill="#6D6E71" stroke="#231F20" stroke-width="0.0125215" stroke-miterlimit="10" stroke-linecap="round" stroke-linejoin="round"/>
        <path d="M150.603 119.557L150.042 119.908L136.169 111.92L136.8 111.57L150.603 119.557Z" fill="#6D6E71" stroke="#231F20" stroke-width="0.0125215" stroke-miterlimit="10" stroke-linecap="round" stroke-linejoin="round"/>
        <path d="M149.412 120.258L148.851 120.608L134.978 112.621L135.539 112.27L149.412 120.258Z" fill="#6D6E71" stroke="#231F20" stroke-width="0.0125215" stroke-miterlimit="10" stroke-linecap="round" stroke-linejoin="round"/>
        <path d="M148.221 121.029L147.59 121.309L133.717 113.321L134.348 112.971L148.221 121.029Z" fill="#6D6E71" stroke="#231F20" stroke-width="0.0125215" stroke-miterlimit="10" stroke-linecap="round" stroke-linejoin="round"/>
        <path d="M146.959 121.729L146.399 122.08L132.526 114.022L133.086 113.742L146.959 121.729Z" fill="#6D6E71" stroke="#231F20" stroke-width="0.0125215" stroke-miterlimit="10" stroke-linecap="round" stroke-linejoin="round"/>
        <path d="M145.768 122.43L145.138 122.78L131.265 114.723L131.895 114.442L145.768 122.43Z" fill="#6D6E71" stroke="#231F20" stroke-width="0.0125215" stroke-miterlimit="10" stroke-linecap="round" stroke-linejoin="round"/>
        <path d="M144.507 123.131L143.947 123.481L130.074 115.493L130.634 115.143L144.507 123.131Z" fill="#6D6E71" stroke="#231F20" stroke-width="0.0125215" stroke-miterlimit="10" stroke-linecap="round" stroke-linejoin="round"/>
        <path d="M114.449 125.022L113.889 124.672L124.258 118.716L124.819 119.067L114.449 125.022Z" fill="#6D6E71" stroke="#231F20" stroke-width="0.0125215" stroke-miterlimit="10" stroke-linecap="round" stroke-linejoin="round"/>
        <path d="M115.64 125.723L115.08 125.373L125.449 119.417L126.08 119.767L115.64 125.723Z" fill="#6D6E71" stroke="#231F20" stroke-width="0.0125215" stroke-miterlimit="10" stroke-linecap="round" stroke-linejoin="round"/>
        <path d="M116.902 126.424L116.271 126.073L126.641 120.118L127.271 120.468L116.902 126.424Z" fill="#6D6E71" stroke="#231F20" stroke-width="0.0125215" stroke-miterlimit="10" stroke-linecap="round" stroke-linejoin="round"/>
        <path d="M118.093 127.124L117.462 126.774L127.902 120.818L128.462 121.099L118.093 127.124Z" fill="#6D6E71" stroke="#231F20" stroke-width="0.0125215" stroke-miterlimit="10" stroke-linecap="round" stroke-linejoin="round"/>
        <path d="M119.284 127.825L118.723 127.475L129.093 121.519L129.653 121.799L119.284 127.825Z" fill="#6D6E71" stroke="#231F20" stroke-width="0.0125215" stroke-miterlimit="10" stroke-linecap="round" stroke-linejoin="round"/>
        <path d="M120.475 128.526L119.915 128.175L130.284 122.15L130.915 122.5L120.475 128.526Z" fill="#6D6E71" stroke="#231F20" stroke-width="0.0125215" stroke-miterlimit="10" stroke-linecap="round" stroke-linejoin="round"/>
        <path d="M121.666 129.226L121.105 128.876L131.475 122.85L132.105 123.201L121.666 129.226Z" fill="#6D6E71" stroke="#231F20" stroke-width="0.0125215" stroke-miterlimit="10" stroke-linecap="round" stroke-linejoin="round"/>
        <path d="M122.927 129.927L122.297 129.577L132.667 123.551L133.297 123.901L122.927 129.927Z" fill="#6D6E71" stroke="#231F20" stroke-width="0.0125215" stroke-miterlimit="10" stroke-linecap="round" stroke-linejoin="round"/>
        <path d="M124.118 130.628L123.488 130.277L133.928 124.252L134.488 124.602L124.118 130.628Z" fill="#6D6E71" stroke="#231F20" stroke-width="0.0125215" stroke-miterlimit="10" stroke-linecap="round" stroke-linejoin="round"/>
        <path d="M125.31 131.328L124.749 130.978L135.119 124.952L135.679 125.303L125.31 131.328Z" fill="#6D6E71" stroke="#231F20" stroke-width="0.0125215" stroke-miterlimit="10" stroke-linecap="round" stroke-linejoin="round"/>
        <path d="M126.5 132.029L125.94 131.679L136.31 125.653L136.94 126.003L126.5 132.029Z" fill="#6D6E71" stroke="#231F20" stroke-width="0.0125215" stroke-miterlimit="10" stroke-linecap="round" stroke-linejoin="round"/>
        <path d="M127.691 132.73L127.131 132.379L137.501 126.354L138.131 126.704L127.691 132.73Z" fill="#6D6E71" stroke="#231F20" stroke-width="0.0125215" stroke-miterlimit="10" stroke-linecap="round" stroke-linejoin="round"/>
        <path d="M138.132 126.704L137.501 127.054L123.698 119.067L124.259 118.716L138.132 126.704Z" fill="#6D6E71" stroke="#231F20" stroke-width="0.0125215" stroke-miterlimit="10" stroke-linecap="round" stroke-linejoin="round"/>
        <path d="M136.871 127.405L136.31 127.755L122.437 119.767L123.068 119.417L136.871 127.405Z" fill="#6D6E71" stroke="#231F20" stroke-width="0.0125215" stroke-miterlimit="10" stroke-linecap="round" stroke-linejoin="round"/>
        <path d="M135.679 128.105L135.049 128.456L121.246 120.468L121.806 120.118L135.679 128.105Z" fill="#6D6E71" stroke="#231F20" stroke-width="0.0125215" stroke-miterlimit="10" stroke-linecap="round" stroke-linejoin="round"/>
        <path d="M134.418 128.806L133.858 129.156L119.985 121.169L120.615 120.818L134.418 128.806Z" fill="#6D6E71" stroke="#231F20" stroke-width="0.0125215" stroke-miterlimit="10" stroke-linecap="round" stroke-linejoin="round"/>
        <path d="M133.227 129.507L132.596 129.857L118.793 121.869L119.353 121.519L133.227 129.507Z" fill="#6D6E71" stroke="#231F20" stroke-width="0.0125215" stroke-miterlimit="10" stroke-linecap="round" stroke-linejoin="round"/>
        <path d="M131.966 130.207L131.405 130.558L117.532 122.57L118.163 122.22L131.966 130.207Z" fill="#6D6E71" stroke="#231F20" stroke-width="0.0125215" stroke-miterlimit="10" stroke-linecap="round" stroke-linejoin="round"/>
        <path d="M130.774 130.908L130.144 131.258L116.341 123.271L116.901 122.92L130.774 130.908Z" fill="#6D6E71" stroke="#231F20" stroke-width="0.0125215" stroke-miterlimit="10" stroke-linecap="round" stroke-linejoin="round"/>
        <path d="M129.513 131.679L128.953 131.959L115.08 123.971L115.71 123.621L129.513 131.679Z" fill="#6D6E71" stroke="#231F20" stroke-width="0.0125215" stroke-miterlimit="10" stroke-linecap="round" stroke-linejoin="round"/>
        <path d="M128.322 132.379L127.692 132.73L113.889 124.672L114.449 124.392L128.322 132.379Z" fill="#6D6E71" stroke="#231F20" stroke-width="0.0125215" stroke-miterlimit="10" stroke-linecap="round" stroke-linejoin="round"/>
    </g>
    <defs>
        <clipPath id="">
            <rect width="121.004" height="85.0598" fill="white" transform="translate(46.8359 79.0592)"/>
        </clipPath>
    </defs>


    <g clip-path="url(#)">
        <path d="M91.7473 199.572L91.2568 199.853C91.1868 199.853 91.1868 199.853 91.1167 199.853C91.397 199.782 91.6072 199.642 91.7473 199.572Z" fill="#F1F2F2" stroke="#231F20" stroke-width="0.201439" stroke-miterlimit="10" stroke-linecap="round" stroke-linejoin="round"/>
        <path d="M95.8115 201.814C95.6714 201.954 95.4612 202.025 95.321 202.165L95.251 202.235L95.8115 201.814Z" fill="#F1F2F2" stroke="#231F20" stroke-width="0.201439" stroke-miterlimit="10" stroke-linecap="round" stroke-linejoin="round"/>
        <path d="M91.7473 199.572L91.2568 199.853C91.1868 199.853 91.1868 199.853 91.1167 199.853C91.397 199.782 91.6072 199.642 91.7473 199.572Z" fill="#F1F2F2" stroke="#231F20" stroke-width="0.201439" stroke-miterlimit="10" stroke-linecap="round" stroke-linejoin="round"/>
        <path d="M91.7473 199.572L91.2568 199.853C91.1868 199.853 91.1868 199.853 91.1167 199.853C91.397 199.782 91.6072 199.642 91.7473 199.572Z" fill="#F1F2F2" stroke="#231F20" stroke-width="0.201439" stroke-miterlimit="10" stroke-linecap="round" stroke-linejoin="round"/>
        <path d="M95.8115 201.814C95.6714 201.954 95.4612 202.025 95.321 202.165L95.251 202.235L95.8115 201.814Z" fill="#F1F2F2" stroke="#231F20" stroke-width="0.201439" stroke-miterlimit="10" stroke-linecap="round" stroke-linejoin="round"/>
        <path d="M99.104 199.712C98.4034 201.394 97.4225 202.585 96.0912 203.356L95.9511 203.426C93.5688 204.827 90.2757 204.617 86.6323 202.585L87.5432 202.025C90.556 203.356 93.2185 203.356 95.2504 202.235L95.3205 202.165C95.5307 202.025 95.6708 201.955 95.8109 201.814L99.104 199.712Z" fill="#414042" stroke="#231F20" stroke-width="0.201439" stroke-miterlimit="10" stroke-linecap="round" stroke-linejoin="round"/>
        <path d="M91.7473 199.572L91.2568 199.853C91.1868 199.853 91.1868 199.853 91.1167 199.853C91.397 199.782 91.6072 199.642 91.7473 199.572Z" fill="#F1F2F2" stroke="#231F20" stroke-width="0.201439" stroke-miterlimit="10" stroke-linecap="round" stroke-linejoin="round"/>
        <path d="M95.8115 201.814C95.6714 201.954 95.4612 202.025 95.321 202.165L95.251 202.235L95.8115 201.814Z" fill="#F1F2F2" stroke="#231F20" stroke-width="0.201439" stroke-miterlimit="10" stroke-linecap="round" stroke-linejoin="round"/>
        <path d="M91.7473 199.572L91.2568 199.853C91.1868 199.853 91.1868 199.853 91.1167 199.853C91.397 199.782 91.6072 199.642 91.7473 199.572Z" fill="#F1F2F2" stroke="#231F20" stroke-width="0.201439" stroke-miterlimit="10" stroke-linecap="round" stroke-linejoin="round"/>
        <path d="M70.6577 167.973L69.8169 167.482C69.887 167.412 69.957 167.272 70.0271 167.202L70.6577 167.973Z" fill="#F1F2F2" stroke="#231F20" stroke-width="0.201439" stroke-miterlimit="10" stroke-linecap="round" stroke-linejoin="round"/>
        <path d="M53.0007 139.806L52.0898 140.227C52.3701 140.016 52.6504 139.876 53.0007 139.806Z" fill="#F1F2F2" stroke="#231F20" stroke-width="0.201439" stroke-miterlimit="10" stroke-linecap="round" stroke-linejoin="round"/>
        <path d="M35.6243 139.596H35.5542C35.5542 139.526 35.6243 139.526 35.6243 139.456C35.6243 139.526 35.6243 139.596 35.6243 139.596Z" fill="#F1F2F2" stroke="#231F20" stroke-width="0.201439" stroke-miterlimit="10" stroke-linecap="round" stroke-linejoin="round"/>
        <path d="M87.2631 196.559C87.2631 197.4 87.193 198.171 87.0529 198.872C86.9828 199.292 86.9128 199.642 86.7726 200.063C86.6325 200.553 86.4924 200.974 86.2822 201.394C86.142 201.674 86.0019 201.884 85.8618 202.095C85.6516 202.445 85.4414 202.795 85.1611 203.076C84.7407 203.496 84.3203 203.916 83.8299 204.197L83.6897 204.267C81.5177 205.458 78.5749 205.318 75.2818 203.426C74.8614 203.216 74.4411 202.935 74.0907 202.655L31.5608 178.132C31.2805 177.992 31.0703 177.852 30.7901 177.712C24.2039 173.928 18.8789 164.68 18.8789 157.112C18.8789 155.571 19.0891 154.24 19.5095 153.119C20.07 151.437 21.0509 150.246 22.2421 149.475C22.3121 149.475 22.3121 149.405 22.3822 149.405C22.9427 149.125 23.5032 148.915 24.1338 148.775C24.274 148.775 24.4842 148.705 24.6243 148.705C24.7644 148.705 24.9746 148.634 25.1848 148.634L27.0766 148.494L27.497 148.424L33.5927 147.934L34.0131 147.864L37.3763 147.583L38.9878 147.443L41.9305 147.233L46.9052 146.813C47.1855 146.743 47.4657 146.743 47.746 146.743C47.8861 146.743 48.0263 146.743 48.2365 146.743C49.0772 146.743 49.9881 146.953 50.969 147.303C51.7397 147.583 52.5105 147.934 53.2812 148.354C54.4022 148.985 55.5233 149.826 56.5042 150.736C57.345 151.507 58.1858 152.418 58.9565 153.329L59.0266 153.399C59.2368 153.679 59.447 153.889 59.6572 154.17L69.9568 167.132C69.8868 167.202 69.8167 167.342 69.7466 167.412L70.5874 167.903L72.1289 169.864L72.4091 170.215L74.6512 173.087L76.8233 175.82L80.0463 179.884C80.6068 180.444 81.0973 181.075 81.5878 181.705C81.9381 182.126 82.2884 182.616 82.5687 183.107C85.091 186.89 86.8427 191.304 87.123 195.438C87.193 195.859 87.2631 196.209 87.2631 196.559Z" fill="#F1F2F2" stroke="#231F20" stroke-width="0.201439" stroke-miterlimit="10" stroke-linecap="round" stroke-linejoin="round"/>
        <path opacity="0.14" d="M87.2631 196.559C87.2631 197.4 87.193 198.171 87.0529 198.872C86.9828 199.292 86.9128 199.642 86.7726 200.063C86.6325 200.553 86.4924 200.974 86.2822 201.394C86.142 201.674 86.0019 201.884 85.8618 202.095C85.6516 202.445 85.4414 202.795 85.1611 203.076C84.7407 203.496 84.3203 203.916 83.8299 204.197L83.6897 204.267C81.5177 205.458 78.5749 205.318 75.2818 203.426C74.8614 203.216 74.4411 202.935 74.0907 202.655L31.5608 178.132C31.2805 177.992 31.0703 177.852 30.7901 177.712C24.2039 173.928 18.8789 164.68 18.8789 157.112C18.8789 155.571 19.0891 154.24 19.5095 153.119C20.07 151.437 21.0509 150.246 22.2421 149.475C22.3121 149.475 22.3121 149.405 22.3822 149.405C22.9427 149.125 23.5032 148.915 24.1338 148.775C24.274 148.775 24.4842 148.705 24.6243 148.705C24.7644 148.705 24.9746 148.634 25.1848 148.634L27.0766 148.494L27.497 148.424L33.5927 147.934L34.0131 147.864L37.3763 147.583L38.9878 147.443L41.9305 147.233L46.9052 146.813C47.1855 146.743 47.4657 146.743 47.746 146.743C47.8861 146.743 48.0263 146.743 48.2365 146.743C49.0772 146.743 49.9881 146.953 50.969 147.303C51.7397 147.583 52.5105 147.934 53.2812 148.354C54.4022 148.985 55.5233 149.826 56.5042 150.736C57.345 151.507 58.1858 152.418 58.9565 153.329L59.0266 153.399C59.2368 153.679 59.447 153.889 59.6572 154.17L69.9568 167.132C69.8868 167.202 69.8167 167.342 69.7466 167.412L70.5874 167.903L72.1289 169.864L72.4091 170.215L74.6512 173.087L76.8233 175.82L80.0463 179.884C80.6068 180.444 81.0973 181.075 81.5878 181.705C81.9381 182.126 82.2884 182.616 82.5687 183.107C85.091 186.89 86.8427 191.304 87.123 195.438C87.193 195.859 87.2631 196.209 87.2631 196.559Z" fill="black" stroke="#231F20" stroke-width="0.0802954" stroke-miterlimit="10"/>
        <path d="M70.6577 167.973L69.8169 167.482C69.887 167.412 69.957 167.272 70.0271 167.202L70.6577 167.973Z" fill="#F1F2F2" stroke="#231F20" stroke-width="0.201439" stroke-miterlimit="10" stroke-linecap="round" stroke-linejoin="round"/>
        <path d="M103.308 196.7C103.308 201.324 101.697 204.617 99.1042 206.159L98.9641 206.229C96.3016 207.77 92.6581 207.49 88.5943 205.178C88.1039 204.897 87.6134 204.547 87.123 204.267L85.4414 203.286L86.6325 202.585C90.2759 204.617 93.569 204.827 95.9512 203.426L96.0914 203.356C97.4226 202.585 98.4035 201.324 99.1042 199.712C99.6647 198.311 100.015 196.63 100.015 194.668C100.015 193.897 99.945 193.056 99.8749 192.215C99.5246 189.203 98.4736 186.12 97.0022 183.107C96.3716 181.846 95.6009 180.585 94.8302 179.393C93.9193 178.062 92.9384 176.871 91.9575 175.75L87.2631 169.794L84.8809 166.782L84.5305 166.361L82.4986 163.839L76.4029 156.132L74.4411 153.679L68.7657 146.462C68.5555 146.182 68.3453 145.902 68.0651 145.622L67.995 145.552C67.0141 144.36 65.9631 143.31 64.9121 142.329C63.7911 141.348 62.67 140.507 61.4789 139.876C59.7272 138.895 58.1157 138.335 56.6443 138.125C56.5042 138.125 56.3641 138.055 56.1539 138.055C55.7335 138.055 55.3832 137.985 55.0328 138.055C54.7526 138.055 54.4723 138.125 54.2621 138.125L46.9753 138.755L46.0644 138.825L35.5546 139.666C35.5546 139.596 35.5546 139.596 35.5546 139.526C35.5546 139.596 35.4845 139.596 35.4845 139.666L33.1723 139.876L29.3888 140.157C29.1786 140.157 28.9684 140.157 28.7582 140.227C27.8473 140.367 27.0065 140.647 26.2358 141.067C23.8536 142.469 22.3121 145.341 22.2421 149.545C20.9809 150.316 20.07 151.507 19.5095 153.189C19.0891 151.437 18.8789 149.685 18.8789 148.004C18.8789 143.31 20.5605 140.016 23.223 138.475H23.293C23.7134 138.265 24.1338 138.055 24.5542 137.914C25.0447 137.774 25.4651 137.634 26.0256 137.564C26.2358 137.564 26.446 137.494 26.6562 137.494L35.6246 136.723L47.8161 135.742L53.1411 135.322L53.7016 135.252C54.122 135.182 54.5424 135.182 54.9628 135.182C56.5743 135.182 58.3259 135.602 60.2177 136.443C60.6381 136.653 61.1286 136.863 61.549 137.144C64.1414 138.615 66.5236 140.787 68.6256 143.31L68.6957 143.38C68.9759 143.66 69.1861 144.01 69.4664 144.29L76.0526 152.628L84.1101 162.858L84.0401 162.928L84.5305 163.348L86.072 165.31L88.8746 168.813L89.1549 169.164L94.62 176.03C95.741 177.221 96.792 178.623 97.7729 180.024C98.894 181.635 99.8049 183.387 100.646 185.139C101.977 188.082 102.888 191.164 103.238 194.107C103.238 195.018 103.308 195.859 103.308 196.7Z" fill="#231F20" stroke="#231F20" stroke-width="0.201439" stroke-miterlimit="10" stroke-linecap="round" stroke-linejoin="round"/>
        <path d="M84.4604 163.278L83.8999 162.858L84.04 162.788L84.4604 163.278Z" fill="#F1F2F2" stroke="#231F20" stroke-width="0.201439" stroke-miterlimit="10" stroke-linecap="round" stroke-linejoin="round"/>
        <path d="M53.0007 139.806L52.0898 140.227C52.3701 140.016 52.6504 139.876 53.0007 139.806Z" fill="#F1F2F2" stroke="#231F20" stroke-width="0.201439" stroke-miterlimit="10" stroke-linecap="round" stroke-linejoin="round"/>
        <path d="M56.6443 138.055L56.364 138.195L56.1538 138.055C56.364 138.055 56.5041 138.055 56.6443 138.055Z" fill="#F1F2F2" stroke="#231F20" stroke-width="0.201439" stroke-miterlimit="10" stroke-linecap="round" stroke-linejoin="round"/>
        <path d="M84.7407 166.712L84.1802 166.361L84.3904 166.291L84.7407 166.712Z" fill="#F1F2F2" stroke="#231F20" stroke-width="0.201439" stroke-miterlimit="10" stroke-linecap="round" stroke-linejoin="round"/>
        <path d="M70.6577 167.973L69.8169 167.482C69.887 167.412 69.957 167.272 70.0271 167.202L70.6577 167.973Z" fill="#F1F2F2" stroke="#231F20" stroke-width="0.201439" stroke-miterlimit="10" stroke-linecap="round" stroke-linejoin="round"/>
        <path d="M37.6567 143.52L36.2554 143.66L33.8031 143.87L33.2426 143.94C33.0324 143.94 32.8923 143.94 32.6821 144.01C31.8413 144.08 31.1406 144.36 30.44 144.711L24.2041 148.424C24.6245 145.411 25.9557 143.309 27.8475 142.258C28.2679 142.048 28.6182 141.838 29.1087 141.698C30.6502 141.207 32.4018 141.278 34.2936 141.978C34.8541 142.188 35.4146 142.399 35.9751 142.679C36.2554 142.819 36.6057 142.959 36.886 143.169C37.1663 143.169 37.3765 143.38 37.6567 143.52Z" fill="#928874" stroke="#231F20" stroke-width="0.201439" stroke-miterlimit="10"/>
        <path d="M50.1982 141.838C49.988 142.048 49.8479 142.329 49.7077 142.539L46.9752 142.749L37.6564 143.52C37.3762 143.38 37.166 143.239 36.8857 143.099C36.6054 142.889 36.2551 142.749 35.9748 142.609C35.4143 142.329 34.8538 142.048 34.2933 141.908C32.3314 141.278 30.5798 141.208 29.1084 141.628L33.2423 139.876L35.5544 139.666H35.6245L46.1344 138.825C46.2745 138.895 46.3446 138.965 46.4847 139.036C46.6248 139.106 46.835 139.246 46.9752 139.316C48.0262 139.946 49.1472 140.857 50.1982 141.838Z" fill="url(#paint0_linear_1_19911)" stroke="#231F20" stroke-width="0.201439" stroke-miterlimit="10" stroke-linecap="round" stroke-linejoin="round"/>
        <path d="M33.172 139.806L29.0381 141.558C28.6177 141.698 28.1973 141.838 27.7769 142.118C25.8851 143.239 24.5539 145.341 24.1335 148.284L22.3818 149.335C22.3118 149.335 22.3118 149.405 22.2417 149.405C22.3118 145.271 23.7831 142.329 26.2354 140.927C27.0062 140.507 27.847 140.227 28.7578 140.086C28.968 140.086 29.1782 140.016 29.3884 140.016L33.172 139.806Z" fill="#414042" stroke="#231F20" stroke-width="0.201439" stroke-miterlimit="10" stroke-linecap="round" stroke-linejoin="round"/>
        <path d="M53.0007 139.806L52.0898 140.227C52.3701 140.016 52.6504 139.876 53.0007 139.806Z" fill="#F1F2F2" stroke="#231F20" stroke-width="0.201439" stroke-miterlimit="10" stroke-linecap="round" stroke-linejoin="round"/>
        <path d="M99.9447 194.668C99.9447 196.629 99.6644 198.311 99.0338 199.712L95.8108 201.814C97.7726 200.343 98.9637 197.61 98.9637 193.897C98.9637 193.126 98.8937 192.426 98.8236 191.655C98.4733 188.642 97.4223 185.489 95.8808 182.546C93.4986 177.992 89.9953 173.928 86.0716 171.686C85.6512 171.476 85.2308 171.196 84.8104 171.055L82.1479 167.622L84.1799 166.361L84.7404 166.641L87.1226 169.654L91.817 175.61C92.868 176.731 93.8489 177.992 94.6897 179.253C95.5305 180.444 96.2312 181.705 96.8618 182.967C98.3331 185.909 99.3141 189.062 99.7345 192.075C99.8746 193.056 99.9447 193.897 99.9447 194.668Z" fill="url(#paint1_linear_1_19911)" stroke="#231F20" stroke-width="0.201439" stroke-miterlimit="10" stroke-linecap="round" stroke-linejoin="round"/>
        <path d="M98.9638 193.897C98.9638 197.61 97.7727 200.343 95.8109 201.814L95.1803 202.235C93.1484 203.356 90.4859 203.356 87.473 202.025L91.2566 199.783L91.7471 199.502L91.8171 199.432C93.9191 198.171 95.2503 195.508 95.2503 191.795C95.2503 191.024 95.1803 190.254 95.1102 189.483C94.6898 186.4 93.4987 183.107 91.8171 180.164C91.4668 179.604 91.1865 179.043 90.8362 178.553C90.8362 178.483 90.7661 178.483 90.7661 178.412C89.9954 177.291 89.1546 176.17 88.2438 175.189L84.9507 171.056C85.3711 171.266 85.7915 171.476 86.2119 171.686C90.1355 173.928 93.6388 177.992 96.0211 182.546C97.5625 185.489 98.6135 188.642 98.9638 191.655C98.9638 192.426 98.9638 193.196 98.9638 193.897Z" fill="#928874" stroke="#231F20" stroke-width="0.201439" stroke-miterlimit="10"/>
        <path d="M56.6443 138.055L56.364 138.195L56.1538 138.055C56.364 138.055 56.5041 138.055 56.6443 138.055Z" fill="#F1F2F2" stroke="#231F20" stroke-width="0.201439" stroke-miterlimit="10" stroke-linecap="round" stroke-linejoin="round"/>
        <path d="M84.7407 166.712L84.1802 166.361L84.3904 166.291L84.7407 166.712Z" fill="#F1F2F2" stroke="#231F20" stroke-width="0.201439" stroke-miterlimit="10" stroke-linecap="round" stroke-linejoin="round"/>
        <path d="M70.6577 167.973L69.8169 167.482C69.887 167.412 69.957 167.272 70.0271 167.202L70.6577 167.973Z" fill="#F1F2F2" stroke="#231F20" stroke-width="0.201439" stroke-miterlimit="10" stroke-linecap="round" stroke-linejoin="round"/>
        <path d="M70.6577 167.973L69.8169 167.482C69.887 167.412 69.957 167.272 70.0271 167.202L70.6577 167.973Z" fill="#F1F2F2" stroke="#231F20" stroke-width="0.201439" stroke-miterlimit="10" stroke-linecap="round" stroke-linejoin="round"/>
        <path d="M95.2505 191.865C95.2505 195.649 93.9192 198.241 91.8173 199.502L91.7472 199.572C91.537 199.712 91.3268 199.783 91.1166 199.853C91.1867 199.853 91.1867 199.853 91.2567 199.853L87.4732 202.095L86.5623 202.655L85.3712 203.356L83.7597 204.337C84.2501 204.057 84.6705 203.636 85.0909 203.216C85.3712 202.935 85.5814 202.585 85.7916 202.235C85.9317 202.025 86.0719 201.744 86.212 201.534C86.4222 201.114 86.5623 200.693 86.7025 200.203C86.8426 199.853 86.9127 199.432 86.9827 199.012C87.1228 198.311 87.1929 197.54 87.1929 196.7C87.1929 196.349 87.1929 195.929 87.1228 195.579C86.8426 191.515 85.161 187.031 82.5686 183.247C82.2182 182.757 81.938 182.336 81.5877 181.846C81.0972 181.215 80.6067 180.584 80.0462 180.024L76.8232 175.96L74.6511 173.228L72.409 170.355L72.1288 170.005L70.6574 167.973L70.0268 167.202L59.7972 154.17C59.587 153.889 59.3768 153.679 59.1666 153.399L59.0965 153.329C58.3258 152.418 57.485 151.507 56.6442 150.736C55.5933 149.826 54.5423 148.985 53.4212 148.354C52.6505 147.864 51.8097 147.513 51.109 147.303C50.1281 146.953 49.2173 146.813 48.3765 146.743C48.2363 146.743 48.0262 146.743 47.886 146.743C47.6058 146.743 47.3255 146.743 47.0452 146.813L42.0706 147.233L39.1278 147.443L37.5163 147.584L34.1531 147.864L33.7327 147.934L27.5669 148.424L27.1466 148.494L25.2548 148.635C25.0446 148.635 24.9044 148.635 24.6943 148.705C24.5541 148.705 24.3439 148.775 24.2038 148.775C23.5732 148.915 23.0127 149.125 22.4521 149.405L24.2038 148.354L30.4396 144.641C31.1403 144.29 31.841 144.01 32.6817 143.94C32.8219 143.94 33.0321 143.87 33.2423 143.87L33.8028 143.8L36.2551 143.59L37.6564 143.45L46.9752 142.679L49.7077 142.469L50.8288 142.399L55.0327 142.048C55.313 141.978 55.5933 141.978 55.8735 141.978C57.5551 141.908 59.3768 142.469 61.4087 143.59C63.5107 144.781 65.4025 146.533 67.1541 148.564L67.2242 148.635C67.4344 148.915 67.6446 149.125 67.8548 149.405L72.339 155.081L78.785 163.208L80.3265 165.17L82.2182 167.552L84.8807 170.985L88.1738 175.119C89.0847 176.1 89.9255 177.221 90.6962 178.342C90.6962 178.412 90.7663 178.412 90.7663 178.483C91.1166 179.043 91.4669 179.534 91.7472 180.094C93.4288 183.037 94.6199 186.33 95.0403 189.413C95.2505 190.324 95.2505 191.094 95.2505 191.865Z" fill="#F1F2F2" stroke="#231F20" stroke-width="0.201439" stroke-miterlimit="10" stroke-linecap="round" stroke-linejoin="round"/>
        <path d="M70.6577 167.973L69.8169 167.482C69.887 167.412 69.957 167.272 70.0271 167.202L70.6577 167.973Z" fill="#F1F2F2" stroke="#231F20" stroke-width="0.201439" stroke-miterlimit="10" stroke-linecap="round" stroke-linejoin="round"/>
        <path d="M84.4604 163.278L83.8999 162.858L84.04 162.788L84.4604 163.278Z" fill="#F1F2F2" stroke="#231F20" stroke-width="0.201439" stroke-miterlimit="10" stroke-linecap="round" stroke-linejoin="round"/>
        <path d="M53.0007 139.806L52.0898 140.227C52.3701 140.016 52.6504 139.876 53.0007 139.806Z" fill="#F1F2F2" stroke="#231F20" stroke-width="0.201439" stroke-miterlimit="10" stroke-linecap="round" stroke-linejoin="round"/>
        <path d="M56.6443 138.055L56.364 138.195L56.1538 138.055C56.364 138.055 56.5041 138.055 56.6443 138.055Z" fill="#F1F2F2" stroke="#231F20" stroke-width="0.201439" stroke-miterlimit="10" stroke-linecap="round" stroke-linejoin="round"/>
        <path d="M84.7407 166.712L84.1802 166.361L84.3904 166.291L84.7407 166.712Z" fill="#F1F2F2" stroke="#231F20" stroke-width="0.201439" stroke-miterlimit="10" stroke-linecap="round" stroke-linejoin="round"/>
        <path d="M56.6443 138.055L56.364 138.195L56.1538 138.055C56.364 138.055 56.5041 138.055 56.6443 138.055Z" fill="#F1F2F2" stroke="#231F20" stroke-width="0.201439" stroke-miterlimit="10" stroke-linecap="round" stroke-linejoin="round"/>
        <path d="M84.7407 166.712L84.1802 166.361L84.3904 166.291L84.7407 166.712Z" fill="#F1F2F2" stroke="#231F20" stroke-width="0.201439" stroke-miterlimit="10" stroke-linecap="round" stroke-linejoin="round"/>
        <path d="M84.4604 163.278L83.8999 162.858L84.04 162.788L84.4604 163.278Z" fill="#F1F2F2" stroke="#231F20" stroke-width="0.201439" stroke-miterlimit="10" stroke-linecap="round" stroke-linejoin="round"/>
        <path d="M123.207 175.259C123.207 179.043 121.876 181.635 119.774 182.897L119.704 182.967L119.564 182.827C118.793 178.553 116.901 174.208 114.309 170.355C113.328 168.954 112.277 167.622 111.156 166.361L86.0724 134.551C85.8622 134.201 85.5819 133.921 85.3016 133.64L85.2316 133.57C83.1296 131.048 80.7474 128.876 78.1549 127.405C77.174 126.844 76.2632 126.424 75.4224 126.073L82.9895 125.443C84.8112 125.162 87.0533 125.653 89.3654 126.984C91.4674 128.175 93.3592 129.927 95.1108 131.959L95.1809 132.029C95.3911 132.309 95.6013 132.519 95.8115 132.8L116.131 158.514C117.041 159.495 117.882 160.616 118.653 161.737C121.456 165.941 123.207 170.845 123.207 175.259Z" fill="#F1F2F2" stroke="#231F20" stroke-width="0.201439" stroke-miterlimit="10" stroke-linecap="round" stroke-linejoin="round"/>
        <path d="M119.703 182.967L119.633 183.037C119.633 182.967 119.633 182.897 119.633 182.827L119.703 182.967Z" fill="#F1F2F2" stroke="#231F20" stroke-width="0.201439" stroke-miterlimit="10" stroke-linecap="round" stroke-linejoin="round"/>
        <path d="M84.4604 163.278L83.8999 162.858L84.04 162.788L84.4604 163.278Z" fill="#F1F2F2" stroke="#231F20" stroke-width="0.201439" stroke-miterlimit="10" stroke-linecap="round" stroke-linejoin="round"/>
        <path d="M56.3639 138.195L55.1728 138.755L53.0007 139.806C52.6504 139.946 52.3701 140.086 52.0899 140.227C51.3892 140.647 50.7586 141.137 50.2682 141.838C49.2172 140.857 48.0961 140.016 46.9751 139.246C46.8349 139.176 46.6247 139.035 46.4846 138.965C46.3445 138.895 46.2744 138.825 46.1343 138.755L47.0451 138.685L54.332 138.055C54.6122 137.984 54.8224 137.984 55.1027 137.984C55.453 137.984 55.8734 137.984 56.2237 137.984L56.3639 138.195Z" fill="#414042" stroke="#231F20" stroke-width="0.201439" stroke-miterlimit="10" stroke-linecap="round" stroke-linejoin="round"/>
        <path d="M72.2692 155.08L67.785 149.405C67.5748 149.125 67.3646 148.915 67.1544 148.634V148.634C65.4728 146.603 63.511 144.851 61.409 143.66C59.4471 142.539 57.5554 141.978 55.8738 142.048C55.5935 142.048 55.3133 142.048 55.033 142.118L50.8291 142.469L49.708 142.539C49.8481 142.258 49.9883 142.048 50.1985 141.838C50.6889 141.207 51.3195 140.647 52.0202 140.227L52.931 139.806C53.6317 139.526 54.4024 139.386 55.2432 139.386C56.1541 139.386 57.135 139.526 58.186 139.806C59.0968 140.086 60.0777 140.507 61.1287 141.137C64.562 143.169 67.7149 146.532 70.0271 150.456C70.9379 151.928 71.6386 153.469 72.2692 155.08Z" fill="#928874" stroke="#231F20" stroke-width="0.201439" stroke-miterlimit="10"/>
        <path d="M53.0007 139.806L52.0898 140.227C52.3701 140.016 52.6504 139.876 53.0007 139.806Z" fill="#F1F2F2" stroke="#231F20" stroke-width="0.201439" stroke-miterlimit="10" stroke-linecap="round" stroke-linejoin="round"/>
        <path d="M56.6443 138.055L56.364 138.195L56.1538 138.055C56.364 138.055 56.5041 138.055 56.6443 138.055Z" fill="#F1F2F2" stroke="#231F20" stroke-width="0.201439" stroke-miterlimit="10" stroke-linecap="round" stroke-linejoin="round"/>
        <path d="M84.3905 166.291L84.1803 166.361L82.2184 167.622L80.3267 165.17L81.1674 164.609L82.4987 163.839L84.3905 166.291Z" fill="#414042" stroke="#231F20" stroke-width="0.201439" stroke-miterlimit="10" stroke-linecap="round" stroke-linejoin="round"/>
        <path d="M84.7407 166.712L84.1802 166.361L84.3904 166.291L84.7407 166.712Z" fill="#F1F2F2" stroke="#231F20" stroke-width="0.201439" stroke-miterlimit="10" stroke-linecap="round" stroke-linejoin="round"/>
        <path d="M82.4989 163.839L81.1677 164.609L80.2568 165.17L78.7154 163.208L72.2693 155.081C71.6387 153.469 70.868 151.928 70.0272 150.456C67.715 146.533 64.5621 143.169 61.1288 141.137C60.1479 140.577 59.167 140.157 58.1861 139.806C57.1351 139.456 56.1542 139.316 55.2433 139.386C54.4025 139.386 53.6318 139.526 52.9312 139.806L55.1032 138.755L56.2943 138.195L56.5746 138.055C58.116 138.265 59.7275 138.825 61.4091 139.806C62.6002 140.507 63.7213 141.348 64.8423 142.259C65.9634 143.239 66.9443 144.29 67.9252 145.482L67.9953 145.552C68.2055 145.832 68.4857 146.112 68.6959 146.392L74.3713 153.609L76.3331 156.061L82.4989 163.839Z" fill="url(#paint2_linear_1_19911)" stroke="#231F20" stroke-width="0.201439" stroke-miterlimit="10" stroke-linecap="round" stroke-linejoin="round"/>
        <path d="M56.6443 138.055L56.364 138.195L56.1538 138.055C56.364 138.055 56.5041 138.055 56.6443 138.055Z" fill="#F1F2F2" stroke="#231F20" stroke-width="0.201439" stroke-miterlimit="10" stroke-linecap="round" stroke-linejoin="round"/>
        <path d="M84.4604 163.278L83.8999 162.858L84.04 162.788L84.4604 163.278Z" fill="#F1F2F2" stroke="#231F20" stroke-width="0.201439" stroke-miterlimit="10" stroke-linecap="round" stroke-linejoin="round"/>
        <path d="M119.703 182.967L119.633 183.037C119.633 182.967 119.633 182.897 119.633 182.827L119.703 182.967Z" fill="#F1F2F2" stroke="#231F20" stroke-width="0.201439" stroke-miterlimit="10" stroke-linecap="round" stroke-linejoin="round"/>
        <path d="M119.984 186.96C119.984 191.585 118.372 194.878 115.78 196.419L115.64 196.489L99.1041 206.158C101.697 204.617 103.308 201.324 103.308 196.7C103.308 195.859 103.238 195.018 103.168 194.177C102.818 191.234 101.907 188.152 100.575 185.209C99.7347 183.457 98.8239 181.706 97.7028 180.094C96.7219 178.693 95.6709 177.361 94.5498 176.1L89.0847 169.234L88.8045 168.883L86.0018 165.38L84.4604 163.418L84.04 162.928L75.9824 152.558L69.3962 144.22C69.186 143.87 68.9058 143.59 68.6255 143.309L68.5554 143.239C66.4535 140.717 64.0712 138.545 61.4788 137.074C60.9883 136.793 60.568 136.583 60.1476 136.373C58.2558 135.462 56.5041 135.042 54.8926 135.112C54.4722 135.112 54.0518 135.182 53.6314 135.182L53.0709 135.252L47.7459 135.672L35.6245 136.723L26.6561 137.494C26.4459 137.494 26.2357 137.494 26.0255 137.564C25.5351 137.634 25.0446 137.704 24.5542 137.914C24.1338 138.055 23.7134 138.265 23.293 138.475L39.8986 128.666C40.3189 128.456 40.7393 128.245 41.2298 128.105C41.7203 127.965 42.1407 127.825 42.7012 127.755C42.9114 127.755 43.1216 127.685 43.3318 127.685L70.3772 125.443C71.9186 125.233 73.6703 125.373 75.492 126.073C76.4028 126.424 77.3137 126.844 78.2245 127.405C80.817 128.876 83.1992 131.048 85.3012 133.57L85.3712 133.64C85.6515 133.921 85.8617 134.271 86.142 134.551L111.225 166.361C112.347 167.552 113.398 168.954 114.378 170.355C116.971 174.138 118.863 178.553 119.633 182.827C119.633 182.897 119.633 182.967 119.633 183.037C119.844 184.368 119.984 185.699 119.984 186.96Z" fill="#414042" stroke="#231F20" stroke-width="0.201439" stroke-miterlimit="10" stroke-linecap="round" stroke-linejoin="round"/>
    </g>
    <defs>
        <linearGradient id="paint0_linear_1_19911" x1="29.0842" y1="141.134" x2="50.2221" y2="141.134" gradientUnits="userSpaceOnUse">
            <stop stop-color="#58595B"/>
            <stop offset="1"/>
        </linearGradient>
        <linearGradient id="paint1_linear_1_19911" x1="82.1947" y1="184.107" x2="99.9584" y2="184.107" gradientUnits="userSpaceOnUse">
            <stop stop-color="#58595B"/>
            <stop offset="1"/>
        </linearGradient>
        <linearGradient id="paint2_linear_1_19911" x1="52.9729" y1="151.638" x2="82.4641" y2="151.638" gradientUnits="userSpaceOnUse">
            <stop stop-color="#58595B"/>
            <stop offset="1"/>
        </linearGradient>
        <clipPath id="">
            <rect width="104.538" height="81.9769" fill="white" transform="translate(18.8096 125.303)"/>
        </clipPath>
    </defs>


    <g clip-path="url(#)">
        <path d="M105.691 91.2505V125.302L74.0908 107.015L65.8932 93.7028L61.6191 91.2505V69.2499L72.3392 71.9824L105.691 91.2505Z" fill="#F1F2F2" stroke="#231F20" stroke-width="0.201439" stroke-miterlimit="10" stroke-linecap="round" stroke-linejoin="round"/>
        <path d="M119.143 102.811V129.156L105.69 125.303V91.2506L119.143 102.811Z" fill="#F1F2F2" stroke="#231F20" stroke-width="0.201439" stroke-miterlimit="10" stroke-linecap="round" stroke-linejoin="round"/>
        <path opacity="0.14" d="M105.691 91.2505V125.302L74.0908 107.015L65.8932 93.7028L61.6191 91.2505V69.2499L72.3392 71.9824L105.691 91.2505Z" fill="black" stroke="#231F20" stroke-width="0.201439" stroke-miterlimit="10"/>
        <path opacity="0.14" d="M119.143 102.811V129.156L105.69 125.303V91.2506L119.143 102.811Z" fill="black" stroke="#231F20" stroke-width="0.201439" stroke-miterlimit="10"/>
        <path d="M158.03 81.9318V108.276L153.896 110.519C154.176 109.608 154.316 108.627 154.316 107.436C154.386 101.13 150.042 93.4926 144.577 90.2696L134.698 95.6647L132.806 96.6456L131.405 97.4163L131.195 120.188C131.685 120.468 132.105 120.678 132.596 120.888C133.016 121.028 133.367 121.169 133.787 121.309L119.073 129.226V102.811L130.914 96.4354L144.507 89.0785L158.03 81.9318Z" fill="#F7F7F7" stroke="#231F20" stroke-width="0.201439" stroke-miterlimit="10" stroke-linecap="round" stroke-linejoin="round"/>
        <path d="M158.03 81.9318L144.577 89.1486L130.984 96.4354L119.143 102.811L105.69 91.2506L114.098 86.6963L144.577 70.3009L158.03 81.9318Z" fill="#F1F2F2" stroke="#231F20" stroke-width="0.201439" stroke-miterlimit="10" stroke-linecap="round" stroke-linejoin="round"/>
        <path opacity="0.2" d="M131.545 97.3462L127.271 105.544L127.341 124.742L136.239 119.977L131.545 97.3462Z" fill="black" stroke="#231F20" stroke-width="0.201439" stroke-miterlimit="10"/>
        <path d="M144.577 70.3009L114.099 86.6963L105.691 91.1805L72.3394 71.9825C73.3903 71.7022 89.3653 63.0141 100.506 56.9184C106.602 53.5552 111.296 51.0328 111.296 51.0328L144.577 70.3009Z" fill="#F1F2F2" stroke="#231F20" stroke-width="0.201439" stroke-miterlimit="10" stroke-linecap="round" stroke-linejoin="round"/>
        <path d="M111.296 51.0327C111.296 51.0327 106.671 53.5551 100.576 56.9183C89.4352 63.014 73.4603 71.7021 72.4093 71.9824L61.6191 69.2498L100.576 48.3002L111.296 51.0327Z" fill="#F1F2F2" stroke="#231F20" stroke-width="0.201439" stroke-miterlimit="10" stroke-linecap="round" stroke-linejoin="round"/>
        <path d="M141.214 114.512C141.214 115.633 141.074 116.614 140.794 117.525C140.373 118.856 139.743 119.837 138.832 120.538C137.571 121.519 135.819 121.799 133.857 121.238C133.507 121.168 133.086 121.028 132.666 120.818C132.246 120.608 131.755 120.398 131.265 120.117L131.475 97.3461C131.965 97.6263 132.386 97.9066 132.876 98.2569C133.787 98.9576 134.698 99.7283 135.469 100.639C137.711 103.162 139.532 106.385 140.443 109.608C141.004 111.289 141.214 112.971 141.214 114.512Z" fill="#F1F2F2" stroke="#231F20" stroke-width="0.201439" stroke-miterlimit="10" stroke-linecap="round" stroke-linejoin="round"/>
        <path opacity="0.2" d="M141.214 114.512C141.214 115.633 141.074 116.614 140.794 117.525C140.373 118.856 139.743 119.837 138.832 120.538C137.571 121.519 135.819 121.799 133.857 121.238C133.507 121.168 133.086 121.028 132.666 120.818C132.246 120.608 131.755 120.398 131.265 120.117L131.475 97.3461C131.965 97.6263 132.386 97.9066 132.876 98.2569C133.787 98.9576 134.698 99.7283 135.469 100.639C137.711 103.162 139.532 106.385 140.443 109.608C141.004 111.289 141.214 112.971 141.214 114.512Z" fill="black" stroke="#231F20" stroke-width="0.201439" stroke-miterlimit="10"/>
        <path d="M151.724 113.531C151.513 113.672 151.303 113.812 151.023 113.882L151.724 113.531Z" fill="#F1F2F2" stroke="#231F20" stroke-width="0.201439" stroke-miterlimit="10" stroke-linecap="round" stroke-linejoin="round"/>
        <path d="M154.386 107.366C154.386 108.487 154.246 109.538 153.966 110.448C153.546 111.85 152.775 112.901 151.724 113.601L151.023 113.952L144.437 117.525L138.832 120.538C139.743 119.837 140.373 118.856 140.794 117.525C141.074 116.684 141.214 115.633 141.214 114.512C141.214 112.971 140.934 111.289 140.513 109.608C139.602 106.385 137.781 103.162 135.539 100.639C134.698 99.7284 133.857 98.8876 132.946 98.257C132.526 97.9067 132.035 97.6264 131.545 97.3462L132.946 96.5754L134.838 95.5945L144.717 90.1995C150.112 93.4225 154.456 101.06 154.386 107.366Z" fill="#F1F2F2" stroke="#231F20" stroke-width="0.201439" stroke-miterlimit="10" stroke-linecap="round" stroke-linejoin="round"/>
        <path d="M189.279 139.176C189.139 139.105 188.999 139.035 188.859 138.965L189.279 139.176Z" fill="#F1F2F2" stroke="#231F20" stroke-width="0.201439" stroke-miterlimit="10" stroke-linecap="round" stroke-linejoin="round"/>
        <path d="M196.215 131.398C196.215 134.131 194.323 137.424 191.941 138.755C190.89 139.386 189.979 139.456 189.209 139.175L188.788 138.965C188.158 138.475 187.737 137.564 187.737 136.303C187.737 133.57 189.629 130.277 192.011 128.946C192.992 128.385 193.973 128.245 194.674 128.525C195.655 128.876 196.215 129.857 196.215 131.398Z" fill="#F1F2F2" stroke="#231F20" stroke-width="0.201439" stroke-miterlimit="10" stroke-linecap="round" stroke-linejoin="round"/>
        <path d="M194.674 128.525C193.973 128.245 192.993 128.385 192.012 128.946C189.699 130.277 187.738 133.57 187.738 136.303C187.738 137.564 188.158 138.475 188.789 138.965L144.367 114.442C143.456 114.092 142.896 113.041 142.896 111.57C142.896 108.837 144.787 105.544 147.17 104.213C148.291 103.582 149.271 103.512 150.042 103.862L150.182 103.932L194.674 128.525Z" fill="url(#paint0_linear_1_19911)" stroke="#231F20" stroke-width="0.201439" stroke-miterlimit="10" stroke-linecap="round" stroke-linejoin="round"/>
        <path d="M201.611 150.806C201.331 150.736 201.12 150.596 200.91 150.386L201.611 150.806Z" fill="#F1F2F2" stroke="#231F20" stroke-width="0.201439" stroke-miterlimit="10" stroke-linecap="round" stroke-linejoin="round"/>
        <path d="M213.312 138.195C213.242 142.679 210.019 148.004 206.095 150.176C204.343 151.157 202.802 151.297 201.611 150.807L200.91 150.386C199.859 149.545 199.158 148.074 199.228 146.042C199.299 141.558 202.522 136.233 206.445 134.061C208.127 133.15 209.668 132.94 210.859 133.36C212.401 133.991 213.382 135.672 213.312 138.195Z" fill="#58595B" stroke="#231F20" stroke-width="0.201439" stroke-miterlimit="10" stroke-linecap="round" stroke-linejoin="round"/>
        <path d="M211.77 139.035C211.7 142.539 209.178 146.743 206.095 148.424C204.764 149.195 203.502 149.335 202.591 148.915L202.031 148.634C201.19 148.004 200.7 146.813 200.7 145.201C200.77 141.698 203.292 137.494 206.305 135.812C207.636 135.112 208.827 134.972 209.738 135.252C211.069 135.742 211.84 137.074 211.77 139.035Z" fill="#231F20" stroke="#231F20" stroke-width="0.201439" stroke-miterlimit="10"/>
        <path d="M210.789 133.36C209.598 132.94 208.057 133.08 206.375 134.061C202.452 136.233 199.229 141.558 199.159 146.042C199.088 148.074 199.789 149.615 200.84 150.386L178.349 137.564C176.878 136.933 175.967 135.252 175.967 132.8C176.037 128.315 179.26 122.99 183.184 120.818C185.005 119.767 186.687 119.697 187.948 120.328L188.228 120.468L210.789 133.36Z" fill="url(#paint1_linear_1_19911)" stroke="#231F20" stroke-width="0.201439" stroke-miterlimit="10" stroke-linecap="round" stroke-linejoin="round"/>
        <path opacity="0.2" d="M104.57 83.1229C113.934 83.1229 121.526 78.7312 121.526 73.3137C121.526 67.8962 113.934 63.5045 104.57 63.5045C95.2052 63.5045 87.6138 67.8962 87.6138 73.3137C87.6138 78.7312 95.2052 83.1229 104.57 83.1229Z" fill="black" stroke="#231F20" stroke-width="0.201439" stroke-miterlimit="10"/>
        <path d="M127.271 69.4601C127.271 70.0206 127.201 70.5811 127.061 71.0716C126.921 71.6321 126.64 72.1926 126.36 72.6831C125.519 74.1545 124.118 75.4857 122.086 76.6769C115.15 80.6706 104.009 80.6706 97.0726 76.6769C95.0407 75.5558 93.6393 74.1545 92.7985 72.6831C92.5183 72.1226 92.238 71.6321 92.0979 71.0716C91.9578 70.5111 91.8877 70.0206 91.8877 69.4601C91.8877 68.4792 92.168 67.4282 92.6584 66.4473C92.7986 66.167 93.0087 65.8167 93.2189 65.5364C93.289 65.4663 93.3591 65.3262 93.4291 65.2561L93.5693 65.3262L96.2318 66.7976L99.1745 65.1861V63.2242L97.2828 62.1732C97.6331 61.963 97.9134 61.8229 98.2637 61.6828C98.614 61.5426 98.9643 61.3325 99.3147 61.1923C99.5249 61.1223 99.7351 61.0522 99.9453 60.9821L103.449 62.8038L106.391 61.1923V59.4407C111.927 58.8801 117.812 59.791 122.086 62.2433C125.519 64.2752 127.271 66.8676 127.271 69.4601Z" fill="#F1F2F2" stroke="#231F20" stroke-width="0.201439" stroke-miterlimit="10" stroke-linecap="round" stroke-linejoin="round"/>
        <path d="M127.271 69.4601V72.7532C127.271 75.3456 125.519 78.0081 122.086 79.9699C115.15 83.9637 104.009 83.9637 97.0726 79.9699C93.6393 78.0081 91.8877 75.3456 91.8877 72.7532V69.5301C91.8877 70.0907 91.9578 70.6512 92.0979 71.1417C92.238 71.7022 92.4482 72.2627 92.7985 72.7532C93.6393 74.2246 95.0407 75.5558 97.0726 76.7469C104.009 80.7407 115.15 80.7407 122.086 76.7469C124.118 75.6259 125.519 74.2246 126.36 72.7532C126.64 72.1926 126.921 71.7022 127.061 71.1417C127.201 70.5811 127.271 70.0206 127.271 69.4601Z" fill="#F1F2F2" stroke="#231F20" stroke-width="0.201439" stroke-miterlimit="10" stroke-linecap="round" stroke-linejoin="round"/>
        <path d="M99.1041 63.2242V65.2561L96.2314 66.8677V64.9058L99.1041 63.2242Z" fill="#F1F2F2" stroke="#231F20" stroke-width="0.201439" stroke-miterlimit="10" stroke-linecap="round" stroke-linejoin="round"/>
        <path d="M96.2314 64.9059V66.8677L93.5689 65.3963L93.4288 65.3263L92.2377 64.6957V66.2371L89.7153 64.7657V61.1223L94.0594 63.6447L94.6199 64.0651L96.2314 64.9059Z" fill="#F1F2F2" stroke="#231F20" stroke-width="0.201439" stroke-miterlimit="10" stroke-linecap="round" stroke-linejoin="round"/>
        <path d="M106.391 59.3706L106.18 59.4407L103.448 61.0522L102.046 60.2114L101.206 59.7209L96.9316 57.2686L99.8744 55.587L104.148 58.1094L106.391 59.3706Z" fill="#F1F2F2" stroke="#231F20" stroke-width="0.201439" stroke-miterlimit="10" stroke-linecap="round" stroke-linejoin="round"/>
        <path d="M106.391 59.4406V61.1221L103.448 62.7336V60.982L106.181 59.4406C106.251 59.4406 106.321 59.4406 106.391 59.4406Z" fill="#F1F2F2" stroke="#231F20" stroke-width="0.201439" stroke-miterlimit="10" stroke-linecap="round" stroke-linejoin="round"/>
        <path d="M106.391 59.3706V59.4407C106.321 59.4407 106.251 59.4407 106.181 59.4407L106.391 59.3706Z" fill="#F1F2F2" stroke="#231F20" stroke-width="0.201439" stroke-miterlimit="10" stroke-linecap="round" stroke-linejoin="round"/>
        <path d="M99.945 60.912C99.7348 60.982 99.5247 61.0521 99.3145 61.1222V60.5616L99.4546 60.6317L99.945 60.912Z" fill="#F1F2F2" stroke="#231F20" stroke-width="0.201439" stroke-miterlimit="10" stroke-linecap="round" stroke-linejoin="round"/>
        <path d="M99.1041 63.2241L96.2314 64.9057L94.6199 64.0649L94.0594 63.6445L89.7153 61.1221L92.588 59.4406L97.0022 62.033L97.2824 62.1731L99.1041 63.2241Z" fill="#F1F2F2" stroke="#231F20" stroke-width="0.201439" stroke-miterlimit="10" stroke-linecap="round" stroke-linejoin="round"/>
        <path d="M103.448 61.0521V62.8037L99.9445 60.982L99.454 60.7018L99.3139 60.6317V61.1922C98.9635 61.3324 98.6132 61.4725 98.2629 61.6827L97.9826 61.4725L96.9316 60.8419V57.1985L101.136 59.6508L102.046 60.1412L103.448 61.0521Z" fill="#F1F2F2" stroke="#231F20" stroke-width="0.201439" stroke-miterlimit="10" stroke-linecap="round" stroke-linejoin="round"/>
        <path opacity="0.2" d="M96.2314 64.9059V66.8677L93.5689 65.3963L93.4288 65.3263L92.2377 64.6957V66.2371L89.7153 64.7657V61.1223L94.0594 63.6447L94.6199 64.0651L96.2314 64.9059Z" fill="black" stroke="#231F20" stroke-width="0.201439" stroke-miterlimit="10"/>
        <path opacity="0.2" d="M103.448 61.0521V62.8037L99.9445 60.982L99.454 60.7018L99.3139 60.6317V61.1922C98.9635 61.3324 98.6132 61.4725 98.2629 61.6827L97.9826 61.4725L96.9316 60.8419V57.1985L101.136 59.6508L102.046 60.1412L103.448 61.0521Z" fill="black" stroke="#231F20" stroke-width="0.201439" stroke-miterlimit="10"/>
        <path d="M93.4289 65.3261C93.3588 65.3962 93.2888 65.5363 93.2187 65.6064L92.2378 66.237V64.6255L93.4289 65.3261Z" fill="#F1F2F2" stroke="#231F20" stroke-width="0.201439" stroke-miterlimit="10" stroke-linecap="round" stroke-linejoin="round"/>
        <path d="M127.271 69.4601V72.7532C127.271 75.3456 125.52 78.0081 122.087 79.9699C115.15 83.9637 104.01 83.9637 97.0731 79.9699C93.6398 78.0081 91.8882 75.3456 91.8882 72.7532V69.5301C91.8882 70.0907 91.9582 70.6512 92.0984 71.1417C92.2385 71.7022 92.4487 72.2627 92.799 72.7532C93.6398 74.2246 95.0411 75.5558 97.0731 76.7469C104.01 80.7407 115.15 80.7407 122.087 76.7469C124.118 75.6259 125.52 74.2246 126.361 72.7532C126.641 72.1926 126.921 71.7022 127.061 71.1417C127.201 70.5811 127.271 70.0206 127.271 69.4601Z" fill="#F1F2F2" stroke="#231F20" stroke-width="0.201439" stroke-miterlimit="10" stroke-linecap="round" stroke-linejoin="round"/>
        <path opacity="0.14" d="M112.417 79.5496V82.7726C107.022 83.263 101.277 82.3522 97.0731 79.8999C93.6398 77.938 91.8882 75.2755 91.8882 72.6831V69.4601C91.8882 70.0206 91.9582 70.5811 92.0984 71.0716C92.2385 71.6321 92.4487 72.1926 92.799 72.6831C93.6398 74.1545 95.0411 75.4857 97.0731 76.6769C101.277 79.1292 107.022 80.04 112.417 79.5496Z" fill="black" stroke="#231F20" stroke-width="0.201439" stroke-miterlimit="10"/>
    </g>
    <defs>
        <linearGradient id="paint0_linear_1_19911" x1="165.123" y1="125.885" x2="170.764" y2="115.469" gradientUnits="userSpaceOnUse">
            <stop stop-color="#59595C"/>
            <stop offset="0.3636" stop-color="#221F1F"/>
            <stop offset="0.6738" stop-color="#808184"/>
            <stop offset="1" stop-color="#424143"/>
        </linearGradient>
        <linearGradient id="paint1_linear_1_19911" x1="186.924" y1="142.494" x2="197.123" y2="125.557" gradientUnits="userSpaceOnUse">
            <stop stop-color="#59595C"/>
            <stop offset="0.3636" stop-color="#221F1F"/>
            <stop offset="0.6738" stop-color="#808184"/>
            <stop offset="1" stop-color="#424143"/>
        </linearGradient>
        <clipPath id="">
            <rect width="151.903" height="102.997" fill="white" transform="translate(61.5493 48.2302)"/>
        </clipPath>
    </defs>

</svg>
