<svg width="230" height="230" viewBox="0 0 230 230" fill="none"
    xmlns="http://www.w3.org/2000/svg">

    <g clip-path="url(#)">
        <path d="M140.303 114.583L173.304 133.851L190.54 124.812L136.379 91.6011L140.303 114.583Z" fill="#F1F2F2" stroke="#231F20" stroke-width="0.201439" stroke-miterlimit="10" stroke-linecap="round" stroke-linejoin="round"/>
        <path opacity="0.2" d="M140.303 114.583L173.304 133.851L190.54 124.812L136.379 91.6011L140.303 114.583Z" fill="black" stroke="#231F20" stroke-width="0.0802954" stroke-miterlimit="10"/>
        <path d="M109.824 103.652C109.824 103.652 103.729 97.4865 102.678 109.047C101.557 120.538 101.557 120.538 101.557 120.538L113.117 137.914L126.64 139.316L127.621 132.309L109.824 103.652Z" fill="#49443A" stroke="#231F20" stroke-width="0.225612" stroke-miterlimit="10" stroke-linecap="round" stroke-linejoin="round"/>
        <path d="M133.997 124.742C133.997 125.583 133.927 126.354 133.857 127.124C133.717 127.825 133.577 128.456 133.367 129.086C132.876 130.488 132.035 131.538 131.054 132.239C130.073 132.94 128.882 133.29 127.551 133.36C127.481 133.36 127.341 133.36 127.271 133.36C125.799 133.36 124.118 132.87 122.296 131.889C122.226 131.889 122.226 131.819 122.156 131.819C115.43 128.035 109.965 118.787 109.895 111.219C109.895 110.869 109.895 110.449 109.895 110.098C109.965 108.417 110.385 107.015 110.946 105.894C110.946 105.824 111.016 105.754 111.086 105.684C111.786 104.423 112.767 103.512 114.028 103.022C115.079 102.601 116.271 102.461 117.602 102.671C118.583 102.812 119.704 103.162 120.825 103.722C121.105 103.863 121.455 104.003 121.736 104.213C121.876 104.283 122.016 104.353 122.226 104.493C122.296 104.493 122.296 104.563 122.366 104.563C127.761 109.748 132.035 117.035 133.927 124.182C133.927 124.252 133.927 124.252 133.927 124.322C133.997 124.392 133.997 124.532 133.997 124.742Z" fill="#6E6657" stroke="#231F20" stroke-width="0.225612" stroke-miterlimit="10" stroke-linecap="round" stroke-linejoin="round"/>
        <path d="M107.933 115.493C108.003 121.169 112.066 128.035 117.041 130.838C119.704 132.309 122.016 132.379 123.627 131.188C124.398 130.628 124.959 129.857 125.379 128.806C125.519 128.385 125.659 127.895 125.729 127.334C125.799 126.774 125.869 126.213 125.869 125.583C125.799 119.907 121.736 113.041 116.761 110.238C116.551 110.098 116.341 110.028 116.06 109.888C115.219 109.468 114.379 109.257 113.678 109.117C112.697 108.977 111.786 109.047 111.016 109.398C109.124 110.238 107.933 112.34 107.933 115.493Z" fill="#928874" stroke="#231F20" stroke-width="0.225612" stroke-miterlimit="10" stroke-linecap="round" stroke-linejoin="round"/>
        <path d="M111.086 109.398C111.857 109.047 112.768 108.977 113.748 109.117C114.519 109.257 115.29 109.468 116.131 109.888C116.341 110.028 116.551 110.098 116.831 110.238C121.806 113.041 125.87 119.907 125.94 125.583C125.94 126.213 125.87 126.774 125.8 127.334C125.73 127.825 125.59 128.315 125.449 128.806C125.099 129.857 124.468 130.628 123.698 131.188L128.532 128.315L128.602 128.245C130.214 127.334 131.195 125.303 131.195 122.43C131.125 116.755 127.061 109.888 122.086 107.085C119.914 105.894 117.952 105.614 116.411 106.245L115.15 106.945L111.086 109.398Z" fill="url(#paint0_linear_1_19911)" stroke="#231F20" stroke-width="0.225612" stroke-miterlimit="10" stroke-linecap="round" stroke-linejoin="round"/>
        <path d="M133.997 124.322C133.997 124.252 133.997 124.252 133.927 124.181C131.965 116.965 127.691 109.748 122.366 104.563C122.296 104.493 122.296 104.493 122.226 104.423C120.264 102.531 118.162 100.99 115.99 99.7285C115.5 99.4483 115.009 99.2381 114.589 99.0279C112.837 98.1871 111.156 97.6266 109.544 97.4164C107.512 97.1361 105.621 97.3463 104.009 97.9769H103.939C99.8751 99.6585 97.3527 104.143 97.4228 110.729C97.5629 122.64 106.111 137.074 116.551 142.959C122.086 146.042 127.061 146.112 130.494 143.66C132.105 142.539 133.296 140.857 134.137 138.685C134.488 137.774 134.768 136.723 134.908 135.602C135.118 134.481 135.188 133.22 135.188 131.889C135.048 129.436 134.698 126.844 133.997 124.322ZM127.201 133.29C126.71 134.201 126.08 134.972 125.309 135.532C123.137 137.074 119.984 137.074 116.411 135.042C109.754 131.328 104.289 122.15 104.219 114.512C104.149 110.308 105.761 107.436 108.353 106.385C109.124 106.034 110.035 105.894 111.016 105.894C111.086 105.894 111.156 105.894 111.226 105.894C111.436 105.894 111.716 105.964 111.926 105.964C112.907 106.105 114.028 106.455 115.149 106.945C115.43 107.085 115.78 107.226 116.06 107.436C122.717 111.149 128.182 120.398 128.252 127.965C128.252 128.105 128.252 128.245 128.252 128.385C128.252 129.086 128.182 129.717 128.112 130.347C127.971 131.048 127.831 131.679 127.621 132.309C127.481 132.729 127.341 133.01 127.201 133.29Z" fill="#231F20" stroke="#231F20" stroke-width="0.225612" stroke-miterlimit="10" stroke-linecap="round" stroke-linejoin="round"/>
        <path d="M125.449 85.295L125.379 85.3651C126.01 85.0147 126.57 84.6644 126.92 84.4542L125.449 85.295ZM133.927 124.111C131.965 116.895 127.691 109.678 122.366 104.493C122.296 104.423 122.296 104.423 122.226 104.353V104.423C122.506 105.614 122.927 106.735 123.347 107.926C125.099 112.691 127.831 117.315 131.124 121.239C132.035 122.29 133.016 123.341 133.997 124.322C133.997 124.322 133.997 124.322 134.067 124.322C133.997 124.252 133.997 124.182 133.927 124.111ZM152.705 130.558C153.195 130.347 153.686 130.067 154.176 129.717L152.705 130.558Z" fill="#231F20" stroke="#231F20" stroke-width="0.225612" stroke-miterlimit="10" stroke-linecap="round" stroke-linejoin="round"/>
        <path d="M155.927 128.245C155.787 128.385 155.647 128.456 155.577 128.526C155.717 128.456 155.787 128.385 155.927 128.245Z" fill="url(#paint1_linear_1_19911)" stroke="#231F20" stroke-width="0.225612" stroke-miterlimit="10" stroke-linecap="round" stroke-linejoin="round"/>
        <path d="M158.801 117.946C158.801 119.277 158.731 120.538 158.521 121.659C158.381 122.78 158.1 123.761 157.75 124.672C156.979 126.844 155.718 128.526 154.107 129.647L152.635 130.488L130.424 143.59C132.036 142.469 133.227 140.787 134.068 138.615C134.418 137.704 134.698 136.653 134.838 135.532C135.049 134.411 135.119 133.15 135.119 131.819C135.119 129.366 134.698 126.844 133.998 124.252C133.998 124.182 133.998 124.182 133.928 124.112C131.966 116.895 127.692 109.678 122.367 104.493C122.297 104.423 122.297 104.423 122.227 104.353C120.265 102.461 118.163 100.92 115.991 99.6586C115.5 99.3783 115.01 99.1681 114.589 98.9579C112.838 98.1171 111.156 97.5566 109.545 97.3464C107.513 97.0661 105.621 97.2763 104.01 97.9069H103.939L125.52 85.225L125.45 85.2951C126.08 84.9448 126.641 84.5944 126.991 84.3842C127.061 84.3842 127.061 84.3142 127.131 84.3142C127.201 84.3142 127.271 84.2441 127.271 84.2441C127.341 84.2441 127.411 84.174 127.411 84.174C127.482 84.174 127.482 84.104 127.552 84.104L127.622 84.0339C129.303 83.3333 131.195 83.1231 133.227 83.4033C134.838 83.6135 136.52 84.174 138.272 85.0148C138.762 85.225 139.183 85.5053 139.673 85.7155C141.915 86.9767 144.087 88.5882 146.049 90.55C151.444 95.7349 155.718 103.022 157.61 110.168C158.381 112.831 158.801 115.423 158.801 117.946Z" fill="url(#paint2_linear_1_19911)" stroke="#231F20" stroke-width="0.225612" stroke-miterlimit="10" stroke-linecap="round" stroke-linejoin="round"/>
        <path d="M126.92 84.4542C126.5 84.6644 126.009 85.0147 125.379 85.3651L125.449 85.295L126.92 84.4542Z" fill="#C49A6C" stroke="#231F20" stroke-width="0.225612" stroke-miterlimit="10" stroke-linecap="round" stroke-linejoin="round"/>
        <path d="M154.667 129.717C154.667 129.717 148.571 123.551 147.52 135.112C146.469 146.673 146.469 146.673 146.469 146.673L158.03 164.049L171.553 165.45L172.534 158.444L154.667 129.717Z" fill="#49443A" stroke="#231F20" stroke-width="0.225612" stroke-miterlimit="10" stroke-linecap="round" stroke-linejoin="round"/>
        <path d="M178.839 150.807C178.839 151.647 178.769 152.418 178.699 153.189C178.559 153.889 178.419 154.52 178.209 155.151C177.718 156.552 176.878 157.603 175.897 158.304C174.916 159.004 173.725 159.425 172.393 159.425C172.323 159.425 172.183 159.425 172.113 159.425C170.642 159.355 168.96 158.934 167.138 157.953C167.068 157.953 167.068 157.883 166.998 157.883C160.272 154.1 154.807 144.921 154.737 137.284C154.737 136.934 154.737 136.513 154.737 136.163C154.807 134.481 155.227 133.08 155.788 131.959C155.788 131.889 155.858 131.819 155.928 131.749C156.629 130.487 157.61 129.577 158.871 129.086C159.922 128.666 161.113 128.526 162.444 128.736C163.495 128.876 164.546 129.226 165.667 129.787C165.947 129.927 166.298 130.067 166.578 130.277C166.718 130.347 166.858 130.417 167.068 130.558C167.138 130.558 167.138 130.628 167.209 130.628C172.604 135.812 176.878 143.099 178.769 150.246C178.769 150.316 178.769 150.316 178.769 150.386C178.839 150.456 178.839 150.666 178.839 150.807Z" fill="#6E6657" stroke="#231F20" stroke-width="0.225612" stroke-miterlimit="10" stroke-linecap="round" stroke-linejoin="round"/>
        <path d="M152.845 141.558C152.915 147.233 156.979 154.1 161.954 156.902C164.616 158.374 166.928 158.444 168.54 157.253C169.311 156.692 169.871 155.921 170.292 154.87C170.432 154.45 170.572 153.96 170.642 153.399C170.712 152.838 170.782 152.278 170.782 151.647C170.712 145.972 166.648 139.106 161.673 136.303C161.463 136.163 161.253 136.093 160.973 135.953C160.132 135.532 159.291 135.322 158.591 135.182C157.61 135.042 156.699 135.112 155.928 135.462C153.966 136.303 152.775 138.405 152.845 141.558Z" fill="#928874" stroke="#231F20" stroke-width="0.225612" stroke-miterlimit="10" stroke-linecap="round" stroke-linejoin="round"/>
        <path d="M155.928 135.462C156.699 135.112 157.61 135.042 158.591 135.182C159.361 135.322 160.132 135.532 160.973 135.953C161.183 136.093 161.393 136.163 161.674 136.303C166.648 139.106 170.712 145.972 170.782 151.647C170.782 152.278 170.712 152.839 170.642 153.399C170.572 153.889 170.432 154.38 170.292 154.87C169.941 155.921 169.311 156.692 168.54 157.253L173.375 154.38L173.445 154.31C175.056 153.399 176.037 151.367 176.037 148.494C175.967 142.819 171.903 135.953 166.929 133.15C164.757 131.959 162.795 131.679 161.253 132.309L159.992 133.01L155.928 135.462Z" fill="url(#paint3_linear_1_19911)" stroke="#231F20" stroke-width="0.225612" stroke-miterlimit="10" stroke-linecap="round" stroke-linejoin="round"/>
        <path d="M178.84 150.386C178.84 150.316 178.84 150.316 178.77 150.246C176.808 143.029 172.534 135.812 167.209 130.628C167.139 130.557 167.139 130.557 167.069 130.487C165.107 128.596 163.005 127.054 160.833 125.793C160.342 125.513 159.852 125.303 159.431 125.092C157.68 124.252 155.998 123.691 154.387 123.481C152.355 123.201 150.463 123.411 148.852 124.041C144.788 125.723 142.265 130.207 142.335 136.793C142.476 148.704 151.024 163.138 161.463 169.024C166.999 172.106 171.973 172.177 175.406 169.724C177.018 168.603 178.209 166.922 179.05 164.75C179.4 163.839 179.68 162.788 179.821 161.667C180.031 160.546 180.101 159.284 180.101 157.953C179.891 155.501 179.54 152.908 178.84 150.386ZM170.152 161.597C167.979 163.138 164.827 163.138 161.253 161.106C154.597 157.393 149.132 148.144 149.062 140.577C148.992 136.373 150.603 133.5 153.196 132.449C153.966 132.099 154.877 131.959 155.858 131.959C155.928 131.959 155.998 131.959 156.068 131.959C156.278 131.959 156.559 131.959 156.769 132.029C157.75 132.169 158.871 132.519 159.992 133.01C160.272 133.15 160.623 133.29 160.903 133.5C167.559 137.214 173.024 146.462 173.094 154.029C173.094 154.17 173.094 154.31 173.094 154.45C173.094 155.151 173.024 155.781 172.954 156.412C172.814 157.112 172.674 157.743 172.464 158.374C172.324 158.724 172.183 159.004 172.043 159.354C171.553 160.335 170.922 161.036 170.152 161.597Z" fill="#231F20" stroke="#231F20" stroke-width="0.225612" stroke-miterlimit="10" stroke-linecap="round" stroke-linejoin="round"/>
        <path d="M170.291 111.36C170.221 111.36 170.221 111.43 170.221 111.43C170.852 111.079 171.412 110.729 171.763 110.519L170.291 111.36ZM178.839 150.176C176.877 142.959 172.603 135.743 167.278 130.558C167.208 130.488 167.208 130.488 167.138 130.418V130.488C167.418 131.679 167.839 132.8 168.259 133.991C170.011 138.755 172.743 143.38 176.037 147.303C176.947 148.354 177.928 149.405 178.909 150.386C178.839 150.316 178.839 150.246 178.839 150.176ZM197.547 156.622C198.037 156.412 198.528 156.132 199.018 155.781L197.547 156.622Z" fill="#231F20" stroke="#231F20" stroke-width="0.225612" stroke-miterlimit="10" stroke-linecap="round" stroke-linejoin="round"/>
        <path d="M200.77 154.31C200.63 154.45 200.489 154.52 200.419 154.59C200.56 154.52 200.63 154.45 200.77 154.31Z" fill="url(#paint4_linear_1_19911)" stroke="#231F20" stroke-width="0.225612" stroke-miterlimit="10" stroke-linecap="round" stroke-linejoin="round"/>
        <path d="M203.643 144.01C203.643 145.341 203.573 146.603 203.362 147.724C203.222 148.845 202.942 149.826 202.592 150.737C201.821 152.909 200.56 154.59 198.948 155.711L197.477 156.552L175.196 169.584C176.808 168.463 177.999 166.782 178.839 164.61C179.19 163.699 179.47 162.648 179.61 161.527C179.82 160.406 179.89 159.144 179.89 157.813C179.89 155.361 179.47 152.839 178.769 150.246C178.769 150.176 178.769 150.176 178.699 150.106C176.737 142.889 172.463 135.672 167.138 130.488C167.068 130.417 167.068 130.417 166.998 130.347C165.037 128.456 162.935 126.914 160.762 125.653C160.272 125.373 159.782 125.163 159.361 124.952C157.61 124.112 155.928 123.551 154.316 123.341C152.285 123.061 150.393 123.271 148.781 123.901L170.362 111.29C170.291 111.29 170.291 111.36 170.291 111.36C170.922 111.009 171.483 110.659 171.833 110.449C171.903 110.449 171.903 110.379 171.973 110.379C172.043 110.379 172.113 110.309 172.113 110.309C172.183 110.239 172.253 110.239 172.253 110.239C172.323 110.239 172.323 110.168 172.393 110.168L172.463 110.098C174.145 109.398 176.037 109.188 178.069 109.538C179.68 109.748 181.362 110.309 183.113 111.149C183.604 111.36 184.024 111.64 184.515 111.85C186.757 113.111 188.929 114.723 190.891 116.685C196.286 121.869 200.56 129.156 202.452 136.303C203.222 138.895 203.643 141.558 203.643 144.01Z" fill="url(#paint5_linear_1_19911)" stroke="#231F20" stroke-width="0.225612" stroke-miterlimit="10" stroke-linecap="round" stroke-linejoin="round"/>
        <path d="M203.643 144.01C203.643 145.341 203.573 146.603 203.362 147.724C203.222 148.845 202.942 149.826 202.592 150.737C201.821 152.909 200.56 154.59 198.948 155.711L197.477 156.552L175.196 169.584C176.808 168.463 177.999 166.782 178.839 164.61C179.19 163.699 179.47 162.648 179.61 161.527C179.82 160.406 179.89 159.144 179.89 157.813C179.89 155.361 179.47 152.839 178.769 150.246C178.769 150.176 178.769 150.176 178.699 150.106C176.737 142.889 172.463 135.672 167.138 130.488C167.068 130.417 167.068 130.417 166.998 130.347C165.037 128.456 162.935 126.914 160.762 125.653C160.272 125.373 159.782 125.163 159.361 124.952C157.61 124.112 155.928 123.551 154.316 123.341C152.285 123.061 150.393 123.271 148.781 123.901L170.362 111.29C170.291 111.29 170.291 111.36 170.291 111.36C170.922 111.009 171.483 110.659 171.833 110.449C171.903 110.449 171.903 110.379 171.973 110.379C172.043 110.379 172.113 110.309 172.113 110.309C172.183 110.239 172.253 110.239 172.253 110.239C172.323 110.239 172.323 110.168 172.393 110.168L172.463 110.098C174.145 109.398 176.037 109.188 178.069 109.538C179.68 109.748 181.362 110.309 183.113 111.149C183.394 111.29 183.674 111.43 183.884 111.57L183.464 111.78L172.043 118.086L163.635 123.131V126.214L172.043 121.309L172.323 121.169L186.336 113.462L186.687 113.251C187.037 113.462 187.387 113.742 187.668 113.952C188.579 114.653 189.489 115.423 190.33 116.194C190.47 116.334 190.681 116.544 190.821 116.685C196.216 121.869 200.49 129.156 202.382 136.303C203.222 138.895 203.643 141.558 203.643 144.01Z" fill="url(#paint6_linear_1_19911)" stroke="#231F20" stroke-width="0.225612" stroke-miterlimit="10" stroke-linecap="round" stroke-linejoin="round"/>
        <path d="M186.757 113.181L186.407 113.391L172.394 121.099L172.113 121.239L163.706 126.143V123.06L172.113 118.016L183.534 111.71L183.955 111.5C184.165 111.64 184.375 111.71 184.585 111.85C185.286 112.27 186.057 112.691 186.757 113.181Z" fill="url(#paint7_linear_1_19911)" stroke="#231F20" stroke-width="0.225612" stroke-miterlimit="10" stroke-linecap="round" stroke-linejoin="round"/>
        <path d="M171.763 110.519C171.413 110.729 170.852 111.079 170.222 111.43L170.292 111.36L171.763 110.519Z" fill="#C49A6C" stroke="#231F20" stroke-width="0.225612" stroke-miterlimit="10" stroke-linecap="round" stroke-linejoin="round"/>
        <g opacity="0.2">
            <path opacity="0.2" d="M188.579 115.634L181.572 119.487L170.151 125.793L164.686 129.086L110.105 98.0472L115.57 94.6841L126.5 88.4482L133.997 84.1742L188.579 115.634Z" fill="black" stroke="#231F20" stroke-width="0.210688" stroke-miterlimit="10"/>
        </g>
        <path d="M190.54 107.856L183.534 111.71L172.113 118.016L163.705 123.061L109.054 92.0215L117.532 86.9067L128.462 80.6709L136.029 76.3268L190.54 107.856Z" fill="#F1F2F2" stroke="#231F20" stroke-width="0.201439" stroke-miterlimit="10" stroke-linecap="round" stroke-linejoin="round"/>
        <path d="M163.705 123.061V126.144L109.054 94.1935V92.0215L163.705 123.061Z" fill="#F1F2F2" stroke="#231F20" stroke-width="0.201439" stroke-miterlimit="10" stroke-linecap="round" stroke-linejoin="round"/>
        <path opacity="0.14" d="M163.705 123.061V126.144L109.054 94.1935V92.0215L163.705 123.061Z" fill="black" stroke="#231F20" stroke-width="0.201439" stroke-miterlimit="10"/>
        <path d="M190.54 107.856L190.4 116.194C189.559 115.353 188.648 114.653 187.738 113.952V112.691L186.757 113.251L186.406 113.462L172.393 121.169L172.113 121.309L163.705 126.214V123.131L172.113 118.086L183.534 111.78L183.954 111.57L190.54 107.856Z" fill="#F1F2F2" stroke="#231F20" stroke-width="0.201439" stroke-miterlimit="10" stroke-linecap="round" stroke-linejoin="round"/>
    </g>
    <defs>
        <linearGradient id="paint0_linear_1_19911" x1="117.885" y1="108.101" x2="127.455" y2="125.619" gradientUnits="userSpaceOnUse">
            <stop stop-color="#C2B59B"/>
            <stop offset="1" stop-color="#49443A"/>
        </linearGradient>
        <linearGradient id="paint1_linear_1_19911" x1="155.814" y1="128.262" x2="155.671" y2="128.532" gradientUnits="userSpaceOnUse">
            <stop stop-color="#58595B"/>
            <stop offset="1"/>
        </linearGradient>
        <linearGradient id="paint2_linear_1_19911" x1="133.65" y1="143.321" x2="130.125" y2="88.5171" gradientUnits="userSpaceOnUse">
            <stop/>
            <stop offset="1" stop-color="#58595B"/>
        </linearGradient>
        <linearGradient id="paint3_linear_1_19911" x1="162.734" y1="134.172" x2="172.303" y2="151.69" gradientUnits="userSpaceOnUse">
            <stop stop-color="#C2B59B"/>
            <stop offset="1" stop-color="#49443A"/>
        </linearGradient>
        <linearGradient id="paint4_linear_1_19911" x1="200.662" y1="154.333" x2="200.519" y2="154.603" gradientUnits="userSpaceOnUse">
            <stop stop-color="#58595B"/>
            <stop offset="1"/>
        </linearGradient>
        <linearGradient id="paint5_linear_1_19911" x1="178.902" y1="167.153" x2="174.518" y2="112.434" gradientUnits="userSpaceOnUse">
            <stop/>
            <stop offset="1" stop-color="#58595B"/>
        </linearGradient>
        <linearGradient id="paint6_linear_1_19911" x1="175.714" y1="163.106" x2="176.671" y2="108.219" gradientUnits="userSpaceOnUse">
            <stop/>
            <stop offset="1" stop-color="#58595B"/>
        </linearGradient>
        <linearGradient id="paint7_linear_1_19911" x1="175.626" y1="124.693" x2="174.68" y2="112.877" gradientUnits="userSpaceOnUse">
            <stop/>
            <stop offset="1" stop-color="#58595B"/>
        </linearGradient>
        <clipPath id="">
            <rect width="106.5" height="95.2894" fill="white" transform="translate(97.2832 76.2566)"/>
        </clipPath>
    </defs>


    <g clip-path="url(#)">
        <path d="M158.521 112.13L119.004 134.551L57.0654 98.2572L96.3023 75.626L158.521 112.13Z" fill="#F1F2F2" stroke="#231F20" stroke-width="0.201439" stroke-miterlimit="10" stroke-linecap="round" stroke-linejoin="round"/>
        <path d="M169.03 130.067L130.704 152.698L119.003 134.551L158.521 112.13L169.03 130.067Z" fill="#F1F2F2" stroke="#231F20" stroke-width="0.201439" stroke-miterlimit="10" stroke-linecap="round" stroke-linejoin="round"/>
        <path d="M169.031 130.067V148.354L130.705 170.635V152.698L169.031 130.067Z" fill="#F1F2F2" stroke="#231F20" stroke-width="0.201439" stroke-miterlimit="10" stroke-linecap="round" stroke-linejoin="round"/>
        <path d="M130.705 152.698V170.635L65.4733 145.552L51.1099 121.589V107.506L57.0655 98.2572L119.004 134.551L130.705 152.698Z" fill="#F1F2F2" stroke="#231F20" stroke-width="0.201439" stroke-miterlimit="10" stroke-linecap="round" stroke-linejoin="round"/>
        <path opacity="0.14" d="M130.705 152.698V170.635L65.4733 145.552L51.1099 121.589V107.506L57.0655 98.2572L119.004 134.551L130.705 152.698Z" fill="black" stroke="#231F20" stroke-width="0.0802954" stroke-miterlimit="10"/>
        <path d="M158.31 125.583L138.832 136.233L139.252 146.042C140.794 144.991 158.661 134.551 158.661 134.551L158.31 125.583ZM156.699 133.29C156.629 133.29 156.629 133.29 156.629 133.36C156.559 133.36 156.559 133.43 156.489 133.43C156.419 133.43 156.419 133.5 156.348 133.5C156.278 133.57 156.138 133.64 156.068 133.64C156.068 133.64 155.998 133.711 155.928 133.711C155.788 133.781 155.718 133.851 155.578 133.921C155.368 134.061 155.087 134.201 154.807 134.341C154.597 134.411 154.457 134.551 154.246 134.691C153.896 134.902 153.546 135.112 153.125 135.322C152.915 135.462 152.775 135.532 152.565 135.672C152.355 135.812 152.215 135.883 152.004 136.023C151.794 136.163 151.584 136.233 151.374 136.373C151.164 136.513 151.023 136.583 150.813 136.723C150.673 136.793 150.533 136.863 150.463 136.934C149.972 137.214 149.552 137.494 149.062 137.774C148.992 137.774 148.922 137.844 148.851 137.844C148.501 138.055 148.221 138.195 147.871 138.405C147.66 138.545 147.38 138.685 147.17 138.825C146.749 139.036 146.329 139.316 145.979 139.526C145.909 139.596 145.769 139.666 145.698 139.736C145.138 140.086 144.577 140.367 144.087 140.717C143.947 140.787 143.807 140.857 143.667 140.927C143.106 141.278 142.546 141.558 142.125 141.838C142.055 141.908 141.915 141.978 141.845 141.978C141.705 142.048 141.495 142.188 141.354 142.259L141.214 138.755V137.985L153.406 130.978L156.629 129.156L156.699 133.29Z" fill="#F1F2F2" stroke="#231F20" stroke-width="0.153094" stroke-miterlimit="10" stroke-linecap="round" stroke-linejoin="round"/>
        <path d="M156.699 133.29C156.699 133.29 145.208 140.016 141.284 142.399L141.144 138.895L153.335 131.679L156.699 133.29Z" fill="#939598" stroke="#231F20" stroke-width="0.0610168" stroke-miterlimit="10"/>
        <path d="M156.489 129.226L156.699 133.29L153.336 131.678L153.266 131.048L156.489 129.226Z" fill="#4F4C4D" stroke="#231F20" stroke-width="0.0610168" stroke-miterlimit="10"/>
        <path d="M153.266 131.048L153.336 131.679L141.144 138.825L141.074 138.055L153.266 131.048Z" fill="#231F20" stroke="#231F20" stroke-width="0.0610168" stroke-miterlimit="10" stroke-linecap="round" stroke-linejoin="round"/>
        <path d="M158.311 125.583L152.635 122.78L158.311 125.583Z" fill="#F1F2F2" stroke="#231F20" stroke-width="0.153094" stroke-miterlimit="10" stroke-linecap="round" stroke-linejoin="round"/>
        <path d="M129.303 130.557L138.832 136.233L139.323 146.042L129.303 130.557Z" stroke="#231F20" stroke-width="0.268562" stroke-miterlimit="10"/>
        <path opacity="0.14" d="M129.303 130.557L138.832 136.233L139.323 146.042L129.303 130.557Z" fill="black" stroke="#231F20" stroke-width="0.0802954" stroke-miterlimit="10"/>
        <path d="M158.31 125.583L138.832 136.233L129.303 130.557L147.52 120.258L152.635 122.78L158.31 125.583Z" stroke="#231F20" stroke-width="0.268562" stroke-miterlimit="10"/>
        <path d="M124.958 94.3336L113.397 87.7474L109.123 90.1297L77.3135 108.627L89.7852 115.634L98.0529 120.258L100.996 121.94L104.849 124.112L109.123 126.494V126.354L109.263 126.424L115.429 122.85L118.302 121.169L120.964 119.627L125.098 117.245L138.131 109.888L145.067 105.894L124.958 94.3336ZM135.468 108.347L122.436 115.774L118.302 118.086L115.639 119.627L115.499 119.767L109.894 122.991L109.193 122.57L108.423 122.15L104.639 119.978L101.766 118.296L92.5878 113.041L87.473 110.028L84.1799 108.137L85.8615 107.156L97.9829 100.289L98.1931 100.149L104.849 96.2955L113.117 91.531L119.913 95.4547L138.831 106.385L135.468 108.347Z" fill="#F1F2F2" stroke="#231F20" stroke-width="0.328328" stroke-miterlimit="10" stroke-linecap="round" stroke-linejoin="round"/>
        <path d="M138.761 106.455L135.468 108.347L115.009 96.5057L112.977 95.3846V91.531L119.773 95.4547L138.761 106.455Z" fill="#F1F2F2" stroke="#231F20" stroke-width="0.328328" stroke-miterlimit="10" stroke-linecap="round" stroke-linejoin="round"/>
        <path d="M112.977 91.531V95.3846L108.563 97.907L98.123 104.003L95.6006 105.404V105.474L92.3776 107.156L87.473 110.028L84.1099 108.137L85.7914 107.156L97.9128 100.289L98.123 100.149L104.779 96.2955L112.977 91.531Z" fill="#F1F2F2" stroke="#231F20" stroke-width="0.328328" stroke-miterlimit="10" stroke-linecap="round" stroke-linejoin="round"/>
        <path d="M135.468 108.347L122.365 115.774L118.302 118.086L115.639 119.627L115.499 119.557V119.768L109.894 122.991L109.123 122.57L108.352 122.08L104.569 119.908L101.696 118.226L92.5174 112.971L87.4727 110.028L92.3773 107.156L95.6003 105.474V105.404L98.1227 104.003L108.562 97.907L112.977 95.3846L115.009 96.5057L135.468 108.347Z" fill="#F1F2F2" stroke="#231F20" stroke-width="0.328328" stroke-miterlimit="10" stroke-linecap="round" stroke-linejoin="round"/>
        <path opacity="0.2" d="M138.761 106.455L131.895 110.379L109.474 97.4165L112.977 91.531L138.761 106.455Z" fill="black" stroke="#231F20" stroke-width="0.328328" stroke-miterlimit="10"/>
        <path d="M83.2702 86.9766L82.6396 86.6262L93.0794 80.6006L93.64 80.9509L83.2702 86.9766Z" fill="#6D6E71" stroke="#231F20" stroke-width="0.0125215" stroke-miterlimit="10" stroke-linecap="round" stroke-linejoin="round"/>
        <path d="M84.4612 87.6773L83.8306 87.3269L94.2704 81.3013L94.8309 81.6516L84.4612 87.6773Z" fill="#6D6E71" stroke="#231F20" stroke-width="0.0125215" stroke-miterlimit="10" stroke-linecap="round" stroke-linejoin="round"/>
        <path d="M85.6523 88.3779L85.0918 88.0276L95.4615 82.002L96.0221 82.3523L85.6523 88.3779Z" fill="#6D6E71" stroke="#231F20" stroke-width="0.0125215" stroke-miterlimit="10" stroke-linecap="round" stroke-linejoin="round"/>
        <path d="M86.8437 89.0786L86.2832 88.7283L96.6529 82.7026L97.2835 83.053L86.8437 89.0786Z" fill="#6D6E71" stroke="#231F20" stroke-width="0.0125215" stroke-miterlimit="10" stroke-linecap="round" stroke-linejoin="round"/>
        <path d="M88.1047 89.7793L87.4741 89.429L97.8439 83.4033L98.4744 83.7536L88.1047 89.7793Z" fill="#6D6E71" stroke="#231F20" stroke-width="0.0125215" stroke-miterlimit="10" stroke-linecap="round" stroke-linejoin="round"/>
        <path d="M89.2961 90.4799L88.6655 90.1295L99.1053 84.1039L99.6659 84.4542L89.2961 90.4799Z" fill="#6D6E71" stroke="#231F20" stroke-width="0.0125215" stroke-miterlimit="10" stroke-linecap="round" stroke-linejoin="round"/>
        <path d="M90.4865 91.1104L89.856 90.8301L100.296 84.8044L100.856 85.1548L90.4865 91.1104Z" fill="#6D6E71" stroke="#231F20" stroke-width="0.0125215" stroke-miterlimit="10" stroke-linecap="round" stroke-linejoin="round"/>
        <path d="M91.6782 91.811L91.1177 91.5308L101.487 85.5051L102.048 85.8555L91.6782 91.811Z" fill="#6D6E71" stroke="#231F20" stroke-width="0.0125215" stroke-miterlimit="10" stroke-linecap="round" stroke-linejoin="round"/>
        <path d="M92.8691 92.5117L92.3086 92.1614L102.678 86.2058L103.309 86.5561L92.8691 92.5117Z" fill="#6D6E71" stroke="#231F20" stroke-width="0.0125215" stroke-miterlimit="10" stroke-linecap="round" stroke-linejoin="round"/>
        <path d="M94.1306 93.2124L93.5 92.8621L103.87 86.9065L104.5 87.2568L94.1306 93.2124Z" fill="#6D6E71" stroke="#231F20" stroke-width="0.0125215" stroke-miterlimit="10" stroke-linecap="round" stroke-linejoin="round"/>
        <path d="M95.3215 93.9131L94.6909 93.5628L105.131 87.6072L105.691 87.9575L95.3215 93.9131Z" fill="#6D6E71" stroke="#231F20" stroke-width="0.0125215" stroke-miterlimit="10" stroke-linecap="round" stroke-linejoin="round"/>
        <path d="M96.5124 94.6138L95.8818 94.2635L106.322 88.3079L106.882 88.6582L96.5124 94.6138Z" fill="#6D6E71" stroke="#231F20" stroke-width="0.0125215" stroke-miterlimit="10" stroke-linecap="round" stroke-linejoin="round"/>
        <path d="M106.883 88.6581L106.322 88.9384L92.4492 80.9509L93.0798 80.6006L106.883 88.6581Z" fill="#6D6E71" stroke="#231F20" stroke-width="0.0125215" stroke-miterlimit="10" stroke-linecap="round" stroke-linejoin="round"/>
        <path d="M105.691 89.3588L105.06 89.6391L91.2573 81.6516L91.8178 81.3013L105.691 89.3588Z" fill="#6D6E71" stroke="#231F20" stroke-width="0.0125215" stroke-miterlimit="10" stroke-linecap="round" stroke-linejoin="round"/>
        <path d="M104.43 90.0594L103.87 90.4097L89.9966 82.3522L90.6272 82.0719L104.43 90.0594Z" fill="#6D6E71" stroke="#231F20" stroke-width="0.0125215" stroke-miterlimit="10" stroke-linecap="round" stroke-linejoin="round"/>
        <path d="M103.239 90.7601L102.608 91.1104L88.8052 83.1229L89.3657 82.7726L103.239 90.7601Z" fill="#6D6E71" stroke="#231F20" stroke-width="0.0125215" stroke-miterlimit="10" stroke-linecap="round" stroke-linejoin="round"/>
        <path d="M101.977 91.4608L101.417 91.8111L87.5439 83.8236L88.1745 83.4733L101.977 91.4608Z" fill="#6D6E71" stroke="#231F20" stroke-width="0.0125215" stroke-miterlimit="10" stroke-linecap="round" stroke-linejoin="round"/>
        <path d="M100.787 92.1614L100.156 92.5118L86.353 84.5243L86.9136 84.174L100.787 92.1614Z" fill="#6D6E71" stroke="#231F20" stroke-width="0.0125215" stroke-miterlimit="10" stroke-linecap="round" stroke-linejoin="round"/>
        <path d="M99.5253 92.8621L98.9648 93.2125L85.0918 85.225L85.7224 84.8746L99.5253 92.8621Z" fill="#6D6E71" stroke="#231F20" stroke-width="0.0125215" stroke-miterlimit="10" stroke-linecap="round" stroke-linejoin="round"/>
        <path d="M98.3344 93.5627L97.7038 93.913L83.9009 85.9255L84.4614 85.5752L98.3344 93.5627Z" fill="#6D6E71" stroke="#231F20" stroke-width="0.0125215" stroke-miterlimit="10" stroke-linecap="round" stroke-linejoin="round"/>
        <path d="M97.0732 94.2634L96.5127 94.6137L82.6396 86.6262L83.2702 86.2759L97.0732 94.2634Z" fill="#6D6E71" stroke="#231F20" stroke-width="0.0125215" stroke-miterlimit="10" stroke-linecap="round" stroke-linejoin="round"/>
        <path d="M67.0847 96.2253L66.4541 95.875L76.8238 89.8494L77.4544 90.1997L67.0847 96.2253Z" fill="#6D6E71" stroke="#231F20" stroke-width="0.0125215" stroke-miterlimit="10" stroke-linecap="round" stroke-linejoin="round"/>
        <path d="M68.2756 96.926L67.645 96.5757L78.0848 90.55L78.6453 90.9004L68.2756 96.926Z" fill="#6D6E71" stroke="#231F20" stroke-width="0.0125215" stroke-miterlimit="10" stroke-linecap="round" stroke-linejoin="round"/>
        <path d="M69.4665 97.6266L68.8359 97.2763L79.2757 91.2506L79.8363 91.6009L69.4665 97.6266Z" fill="#6D6E71" stroke="#231F20" stroke-width="0.0125215" stroke-miterlimit="10" stroke-linecap="round" stroke-linejoin="round"/>
        <path d="M70.6582 98.2572L70.0977 97.977L80.4674 91.9513L81.0279 92.3016L70.6582 98.2572Z" fill="#6D6E71" stroke="#231F20" stroke-width="0.0125215" stroke-miterlimit="10" stroke-linecap="round" stroke-linejoin="round"/>
        <path d="M71.8491 98.9579L71.2886 98.6776L81.6583 92.652L82.2889 93.0023L71.8491 98.9579Z" fill="#6D6E71" stroke="#231F20" stroke-width="0.0125215" stroke-miterlimit="10" stroke-linecap="round" stroke-linejoin="round"/>
        <path d="M73.1106 99.6585L72.48 99.3081L82.8497 93.3525L83.4803 93.7029L73.1106 99.6585Z" fill="#6D6E71" stroke="#231F20" stroke-width="0.0125215" stroke-miterlimit="10" stroke-linecap="round" stroke-linejoin="round"/>
        <path d="M74.301 100.359L73.6704 100.009L84.1102 94.0532L84.6707 94.4036L74.301 100.359Z" fill="#6D6E71" stroke="#231F20" stroke-width="0.0125215" stroke-miterlimit="10" stroke-linecap="round" stroke-linejoin="round"/>
        <path d="M75.4927 101.06L74.9321 100.709L85.3019 94.7539L85.8624 95.1042L75.4927 101.06Z" fill="#6D6E71" stroke="#231F20" stroke-width="0.0125215" stroke-miterlimit="10" stroke-linecap="round" stroke-linejoin="round"/>
        <path d="M76.6831 101.761L76.1226 101.41L86.4923 95.4546L87.0528 95.8049L76.6831 101.761Z" fill="#6D6E71" stroke="#231F20" stroke-width="0.0125215" stroke-miterlimit="10" stroke-linecap="round" stroke-linejoin="round"/>
        <path d="M77.875 102.461L77.3145 102.111L87.6842 96.1553L88.3148 96.4355L77.875 102.461Z" fill="#6D6E71" stroke="#231F20" stroke-width="0.0125215" stroke-miterlimit="10" stroke-linecap="round" stroke-linejoin="round"/>
        <path d="M79.136 103.162L78.5054 102.812L88.8751 96.856L89.5057 97.1362L79.136 103.162Z" fill="#6D6E71" stroke="#231F20" stroke-width="0.0125215" stroke-miterlimit="10" stroke-linecap="round" stroke-linejoin="round"/>
        <path d="M80.3269 103.862L79.6963 103.512L90.1361 97.4865L90.6966 97.8368L80.3269 103.862Z" fill="#6D6E71" stroke="#231F20" stroke-width="0.0125215" stroke-miterlimit="10" stroke-linecap="round" stroke-linejoin="round"/>
        <path d="M90.6967 97.8369L90.1362 98.1872L76.2632 90.1997L76.8237 89.8494L90.6967 97.8369Z" fill="#6D6E71" stroke="#231F20" stroke-width="0.0125215" stroke-miterlimit="10" stroke-linecap="round" stroke-linejoin="round"/>
        <path d="M89.5061 98.5375L88.8755 98.8879L75.0024 90.9004L75.633 90.55L89.5061 98.5375Z" fill="#6D6E71" stroke="#231F20" stroke-width="0.0125215" stroke-miterlimit="10" stroke-linecap="round" stroke-linejoin="round"/>
        <path d="M88.2441 99.3082L87.6836 99.5884L73.8105 91.6009L74.3711 91.2506L88.2441 99.3082Z" fill="#6D6E71" stroke="#231F20" stroke-width="0.0125215" stroke-miterlimit="10" stroke-linecap="round" stroke-linejoin="round"/>
        <path d="M87.0534 100.009L86.4228 100.289L72.5498 92.3016L73.1804 91.9513L87.0534 100.009Z" fill="#6D6E71" stroke="#231F20" stroke-width="0.0125215" stroke-miterlimit="10" stroke-linecap="round" stroke-linejoin="round"/>
        <path d="M85.7919 100.71L85.2314 101.06L71.3584 93.0023L71.9189 92.722L85.7919 100.71Z" fill="#6D6E71" stroke="#231F20" stroke-width="0.0125215" stroke-miterlimit="10" stroke-linecap="round" stroke-linejoin="round"/>
        <path d="M84.601 101.41L83.9704 101.76L70.1675 93.7729L70.728 93.4226L84.601 101.41Z" fill="#6D6E71" stroke="#231F20" stroke-width="0.0125215" stroke-miterlimit="10" stroke-linecap="round" stroke-linejoin="round"/>
        <path d="M83.3398 102.111L82.7793 102.461L68.9062 94.4736L69.4668 94.1233L83.3398 102.111Z" fill="#6D6E71" stroke="#231F20" stroke-width="0.0125215" stroke-miterlimit="10" stroke-linecap="round" stroke-linejoin="round"/>
        <path d="M82.1489 102.811L81.5183 103.162L67.7153 95.1743L68.2759 94.824L82.1489 102.811Z" fill="#6D6E71" stroke="#231F20" stroke-width="0.0125215" stroke-miterlimit="10" stroke-linecap="round" stroke-linejoin="round"/>
        <path d="M80.8876 103.512L80.3271 103.862L66.4541 95.875L67.0847 95.5247L80.8876 103.512Z" fill="#6D6E71" stroke="#231F20" stroke-width="0.0125215" stroke-miterlimit="10" stroke-linecap="round" stroke-linejoin="round"/>
        <path opacity="0.2" d="M129.303 130.557V141.558L139.323 146.042L129.303 130.557Z" fill="black" stroke="#231F20" stroke-width="0.328328" stroke-miterlimit="10"/>
    </g>
    <defs>
        <clipPath id="">
            <rect width="118.061" height="95.1493" fill="white" transform="translate(51.0391 75.5559)"/>
        </clipPath>
    </defs>


    <g clip-path="url(#)">
        <path d="M36.9557 145.762C36.9557 145.762 30.86 139.596 29.809 151.157C28.7581 162.718 28.688 162.648 28.688 162.648L40.2488 180.024L53.7715 181.425L54.7525 174.419L36.9557 145.762Z" fill="#49443A" stroke="#231F20" stroke-width="0.225612" stroke-miterlimit="10" stroke-linecap="round" stroke-linejoin="round"/>
        <path d="M61.1285 166.852C61.1285 167.692 61.0584 168.463 60.9884 169.234C60.8482 169.935 60.7081 170.565 60.4979 171.196C60.0074 172.597 59.1667 173.648 58.1857 174.349C57.2048 175.049 56.0137 175.4 54.6825 175.47C54.6124 175.47 54.4723 175.47 54.4022 175.47C52.9308 175.4 51.2492 174.979 49.4275 173.998C49.3575 173.998 49.3575 173.928 49.2874 173.928C42.5611 170.145 37.0959 160.896 37.0259 153.329C37.0259 152.979 37.0259 152.558 37.0259 152.208C37.0959 150.526 37.5163 149.125 38.0769 148.004C38.0769 147.934 38.1469 147.864 38.217 147.794C38.9177 146.533 39.8986 145.622 41.1598 145.131C42.2107 144.711 43.4019 144.571 44.7331 144.781C45.7841 144.921 46.8351 145.271 47.9561 145.832C48.2364 145.972 48.5867 146.112 48.867 146.322C49.0071 146.392 49.1473 146.462 49.3575 146.603C49.4275 146.603 49.4275 146.673 49.4976 146.673C54.8926 151.858 59.1667 159.144 61.0584 166.291C61.0584 166.361 61.0584 166.361 61.0584 166.431C61.1285 166.501 61.1285 166.641 61.1285 166.852Z" fill="#6E6657" stroke="#231F20" stroke-width="0.225612" stroke-miterlimit="10" stroke-linecap="round" stroke-linejoin="round"/>
        <path d="M35.064 157.603C35.134 163.278 39.1978 170.145 44.1725 172.947C46.835 174.419 49.1472 174.489 50.7587 173.298C51.5294 172.737 52.0899 171.966 52.5103 170.915C52.6505 170.495 52.7906 170.004 52.8607 169.444C52.9307 168.883 53.0008 168.323 53.0008 167.692C52.9307 162.017 48.8669 155.151 43.8923 152.348C43.6821 152.208 43.4719 152.138 43.1916 151.998C42.3508 151.577 41.51 151.367 40.8094 151.227C39.8284 151.087 38.9176 151.157 38.1469 151.507C36.2551 152.348 35.064 154.45 35.064 157.603Z" fill="#928874" stroke="#231F20" stroke-width="0.225612" stroke-miterlimit="10" stroke-linecap="round" stroke-linejoin="round"/>
        <path d="M38.2173 151.507C38.988 151.157 39.8989 151.087 40.8798 151.227C41.6505 151.367 42.4212 151.577 43.262 151.998C43.4722 152.138 43.6824 152.208 43.9627 152.348C48.9373 155.151 53.0012 162.017 53.0712 167.692C53.0712 168.323 53.0712 168.883 52.9311 169.444C52.861 169.934 52.7209 170.425 52.5808 170.915C52.2304 171.966 51.5998 172.737 50.8291 173.298L55.6637 170.425L55.7337 170.355C57.3452 169.444 58.3262 167.412 58.3262 164.539C58.2561 158.864 54.1923 151.998 49.2176 149.195C47.0456 148.004 45.0837 147.724 43.5423 148.354L42.2811 149.055L38.2173 151.507Z" fill="url(#paint0_linear_1_19911)" stroke="#231F20" stroke-width="0.225612" stroke-miterlimit="10" stroke-linecap="round" stroke-linejoin="round"/>
        <path d="M61.1285 166.431C61.1285 166.361 61.1285 166.361 61.0584 166.291C59.0966 159.074 54.8226 151.858 49.4976 146.673C49.4275 146.603 49.4275 146.603 49.3574 146.533C47.3956 144.641 45.2936 143.099 43.1216 141.838C42.6311 141.558 42.1407 141.348 41.7203 141.137C39.9686 140.297 38.287 139.736 36.6755 139.526C34.6436 139.246 32.7519 139.456 31.1403 140.086H31.0703C27.0065 141.768 24.4841 146.252 24.5542 152.838C24.6943 164.75 33.2423 179.183 43.6821 185.069C49.2173 188.152 54.192 188.222 57.6252 185.769C59.2367 184.648 60.4278 182.967 61.2686 180.795C61.6189 179.884 61.8992 178.833 62.0393 177.712C62.2495 176.591 62.3196 175.33 62.3196 173.998C62.1795 171.546 61.8291 168.954 61.1285 166.431ZM52.4403 177.642C50.2683 179.183 47.1153 179.183 43.542 177.151C36.8857 173.438 31.4206 164.259 31.3505 156.622C31.2805 152.418 32.892 149.545 35.4844 148.494C36.2551 148.144 37.166 148.004 38.1469 148.004C38.217 148.004 38.287 148.004 38.3571 148.004C38.5673 148.004 38.8476 148.074 39.0578 148.074C40.0387 148.214 41.1597 148.564 42.2808 149.055C42.5611 149.195 42.9114 149.335 43.1916 149.545C49.8479 153.329 55.313 162.508 55.3831 170.145C55.3831 170.285 55.3831 170.425 55.3831 170.565C55.3831 171.266 55.313 171.896 55.243 172.527C55.1028 173.228 54.9627 173.858 54.7525 174.489C54.6124 174.839 54.4722 175.119 54.3321 175.47C53.8416 176.381 53.2111 177.081 52.4403 177.642Z" fill="#231F20" stroke="#231F20" stroke-width="0.225612" stroke-miterlimit="10" stroke-linecap="round" stroke-linejoin="round"/>
        <path d="M79.836 172.667C80.3265 172.457 80.8169 172.177 81.3074 171.826L79.836 172.667ZM61.0584 166.221C59.0966 159.004 54.8226 151.787 49.4976 146.603C49.4275 146.532 49.4275 146.532 49.3574 146.462V146.532C49.6377 147.724 50.0581 148.845 50.4785 150.036C52.2301 154.8 54.9627 159.425 58.2558 163.348C59.1666 164.399 60.1476 165.45 61.1285 166.431C61.1285 166.361 61.1285 166.291 61.0584 166.221ZM52.5804 127.404L52.5104 127.475C53.211 127.054 53.8416 126.704 54.192 126.494C54.262 126.494 54.262 126.424 54.3321 126.424C54.4022 126.424 54.4722 126.354 54.4722 126.354C54.5423 126.354 54.5423 126.283 54.6124 126.283L54.6824 126.213C53.9818 126.424 53.2811 126.844 52.5804 127.404Z" fill="#231F20" stroke="#231F20" stroke-width="0.225612" stroke-miterlimit="10" stroke-linecap="round" stroke-linejoin="round"/>
        <path d="M83.0588 170.355C82.9187 170.495 82.7786 170.565 82.7085 170.635C82.8486 170.565 82.9187 170.495 83.0588 170.355Z" fill="url(#paint1_linear_1_19911)" stroke="#231F20" stroke-width="0.225612" stroke-miterlimit="10" stroke-linecap="round" stroke-linejoin="round"/>
        <path d="M85.9316 160.055C85.9316 161.386 85.8615 162.648 85.6513 163.769C85.5112 164.89 85.2309 165.871 84.8806 166.852C84.1098 169.024 82.8487 170.705 81.2371 171.826L79.7658 172.667L57.4849 185.699C59.0964 184.578 60.2875 182.897 61.1283 180.725C61.4786 179.814 61.7589 178.763 61.899 177.642C62.1092 176.521 62.1793 175.26 62.1793 173.928C62.1793 171.476 61.7589 168.954 61.0582 166.361C61.0582 166.291 61.0582 166.291 60.9881 166.221C59.0263 159.004 54.7523 151.787 49.4273 146.603C49.3572 146.533 49.3572 146.533 49.2872 146.462C47.3253 144.571 45.2233 143.029 43.0513 141.768C42.5609 141.488 42.0704 141.278 41.65 141.067C39.8984 140.227 38.2168 139.666 36.6053 139.456C34.5734 139.176 32.6816 139.386 31.0701 140.016H31L52.5803 127.405L52.5102 127.475C53.2108 127.054 53.8414 126.704 54.1918 126.494C54.2618 126.494 54.2618 126.424 54.3319 126.424C54.402 126.424 54.472 126.354 54.472 126.354C54.5421 126.354 54.5421 126.284 54.6122 126.284L54.6822 126.213C56.3638 125.513 58.2556 125.303 60.2875 125.583C61.899 125.793 63.5806 126.354 65.3322 127.194C65.8227 127.405 66.2431 127.685 66.7335 127.895C68.9756 129.156 71.1477 130.768 73.1095 132.73C78.5046 137.914 82.7786 145.201 84.6704 152.348C85.5112 154.94 85.9316 157.533 85.9316 160.055Z" fill="url(#paint2_linear_1_19911)" stroke="#231F20" stroke-width="0.225612" stroke-miterlimit="10" stroke-linecap="round" stroke-linejoin="round"/>
        <path d="M54.1918 126.494C53.7714 126.704 53.2109 127.054 52.5103 127.475L52.5803 127.405L54.1918 126.494Z" fill="#C49A6C" stroke="#231F20" stroke-width="0.225612" stroke-miterlimit="10" stroke-linecap="round" stroke-linejoin="round"/>
        <path d="M81.7983 171.826C81.7983 171.826 75.7026 165.66 74.6516 177.221C73.6006 188.782 73.6006 188.782 73.6006 188.782L85.1614 206.158L98.6841 207.56L99.6651 200.553L81.7983 171.826Z" fill="#49443A" stroke="#231F20" stroke-width="0.225612" stroke-miterlimit="10" stroke-linecap="round" stroke-linejoin="round"/>
        <path d="M105.971 192.916C105.971 193.757 105.901 194.528 105.831 195.298C105.691 195.999 105.551 196.63 105.34 197.26C104.85 198.661 104.009 199.712 103.028 200.413C102.047 201.114 100.856 201.534 99.525 201.534C99.4549 201.534 99.3148 201.534 99.2447 201.534C97.7733 201.534 96.0918 201.044 94.27 200.063C94.2 200.063 94.2 199.993 94.1299 199.993C87.4737 196.279 82.0085 187.031 81.9385 179.463C81.9385 179.113 81.9385 178.693 81.9385 178.342C82.0085 176.661 82.4289 175.259 82.9895 174.138C82.9895 174.068 83.0595 173.998 83.1296 173.928C83.8303 172.667 84.8112 171.756 86.0724 171.266C87.1233 170.845 88.3145 170.705 89.6457 170.915C90.6266 171.056 91.7477 171.406 92.8687 171.966C93.149 172.107 93.4993 172.247 93.7796 172.457C93.9197 172.527 94.0599 172.597 94.27 172.737C94.3401 172.737 94.3401 172.807 94.4102 172.807C99.8052 177.992 104.079 185.279 105.971 192.426C105.971 192.496 105.971 192.496 105.971 192.566C105.971 192.566 105.971 192.776 105.971 192.916Z" fill="#6E6657" stroke="#231F20" stroke-width="0.225612" stroke-miterlimit="10" stroke-linecap="round" stroke-linejoin="round"/>
        <path d="M79.9761 183.667C80.0461 189.343 84.11 196.209 89.0846 199.012C91.7471 200.483 94.0593 200.553 95.6708 199.362C96.4415 198.802 97.002 198.031 97.4224 196.98C97.5626 196.56 97.7027 196.069 97.7728 195.509C97.8428 194.948 97.9129 194.387 97.9129 193.757C97.8428 188.082 93.779 181.215 88.8044 178.412C88.5942 178.272 88.384 178.202 88.1037 178.062C87.2629 177.642 86.4221 177.432 85.7215 177.291C84.7405 177.151 83.8297 177.221 83.059 177.572C81.0971 178.412 79.906 180.514 79.9761 183.667Z" fill="#928874" stroke="#231F20" stroke-width="0.225612" stroke-miterlimit="10" stroke-linecap="round" stroke-linejoin="round"/>
        <path d="M83.0591 177.572C83.8298 177.221 84.7407 177.151 85.7216 177.292C86.4923 177.432 87.263 177.642 88.1038 178.062C88.314 178.202 88.5242 178.272 88.8045 178.413C93.7791 181.215 97.843 188.082 97.913 193.757C97.913 194.388 97.843 194.948 97.7729 195.509C97.7028 195.999 97.5627 196.49 97.4226 196.98C97.0722 198.031 96.4416 198.802 95.6709 199.362L100.505 196.49L100.576 196.42C102.187 195.509 103.168 193.477 103.168 190.604C103.098 184.929 99.0341 178.062 94.0594 175.26C91.8874 174.069 89.9255 173.788 88.3841 174.419L87.1229 175.12L83.0591 177.572Z" fill="url(#paint3_linear_1_19911)" stroke="#231F20" stroke-width="0.225612" stroke-miterlimit="10" stroke-linecap="round" stroke-linejoin="round"/>
        <path d="M105.971 192.496C105.971 192.426 105.971 192.426 105.901 192.356C103.939 185.139 99.6649 177.922 94.3399 172.737C94.2698 172.667 94.1997 172.667 94.1997 172.597C92.2379 170.705 90.1359 169.164 87.9639 167.903C87.4734 167.622 86.9829 167.412 86.5626 167.202C84.8109 166.361 83.1293 165.801 81.5178 165.59C79.4859 165.31 77.5941 165.52 75.9826 166.151H75.9126C71.8487 167.833 69.3264 172.317 69.3964 178.903C69.5366 190.814 78.0846 205.248 88.5244 211.133C94.0596 214.216 99.0343 214.286 102.467 211.834C104.079 210.713 105.27 209.031 106.111 206.859C106.461 205.948 106.741 204.897 106.882 203.776C107.092 202.655 107.162 201.394 107.162 200.063C107.022 197.61 106.671 195.018 105.971 192.496ZM97.2826 203.706C95.1106 205.248 91.9576 205.248 88.3843 203.216C81.728 199.502 76.2629 190.254 76.1928 182.686C76.1228 178.483 77.7343 175.61 80.3267 174.559C81.0974 174.209 82.0083 174.068 82.9892 174.068C83.0593 174.068 83.1293 174.068 83.1994 174.068C83.4096 174.068 83.6899 174.068 83.9001 174.138C84.881 174.279 86.002 174.629 87.1231 175.119C87.4033 175.26 87.7537 175.4 88.0339 175.61C94.6902 179.323 100.155 188.572 100.225 196.139C100.225 196.279 100.225 196.419 100.225 196.559C100.225 197.26 100.155 197.891 100.085 198.521C99.9451 199.222 99.805 199.853 99.5948 200.483C99.4547 200.834 99.3145 201.114 99.1744 201.464C98.6839 202.445 98.0533 203.146 97.2826 203.706Z" fill="#231F20" stroke="#231F20" stroke-width="0.225612" stroke-miterlimit="10" stroke-linecap="round" stroke-linejoin="round"/>
        <path d="M124.678 198.732C125.169 198.521 125.659 198.241 126.15 197.891L124.678 198.732ZM105.901 192.286C103.939 185.069 99.6648 177.852 94.3398 172.667C94.2698 172.597 94.1997 172.597 94.1997 172.527V172.597C94.48 173.788 94.9004 174.909 95.3208 176.1C97.0724 180.865 99.805 185.489 103.098 189.413C104.009 190.464 104.99 191.515 105.971 192.496C105.971 192.496 105.971 192.496 106.041 192.496C105.971 192.426 105.971 192.356 105.901 192.286ZM97.4227 153.469C97.3527 153.469 97.3527 153.539 97.3527 153.539C98.0533 153.119 98.6839 152.768 99.0342 152.558C99.1043 152.558 99.1043 152.488 99.1744 152.488C99.2444 152.418 99.3145 152.418 99.3145 152.418C99.3846 152.418 99.3846 152.348 99.4546 152.348L99.5247 152.278C98.824 152.558 98.1234 152.909 97.4227 153.469Z" fill="#231F20" stroke="#231F20" stroke-width="0.225612" stroke-miterlimit="10" stroke-linecap="round" stroke-linejoin="round"/>
        <path d="M127.901 196.419C127.761 196.559 127.621 196.63 127.551 196.7C127.691 196.63 127.761 196.559 127.901 196.419Z" fill="url(#paint4_linear_1_19911)" stroke="#231F20" stroke-width="0.225612" stroke-miterlimit="10" stroke-linecap="round" stroke-linejoin="round"/>
        <path d="M130.774 186.12C130.774 187.451 130.704 188.712 130.494 189.833C130.354 190.954 130.074 191.935 129.723 192.916C128.953 195.088 127.691 196.77 126.08 197.891L124.609 198.732L102.328 211.764C103.939 210.643 105.13 208.961 105.971 206.789C106.321 205.878 106.602 204.827 106.742 203.706C106.952 202.585 107.022 201.324 107.022 199.993C107.022 197.54 106.602 195.018 105.901 192.426C105.901 192.356 105.901 192.356 105.831 192.285C103.869 185.069 99.5951 177.852 94.2701 172.667C94.2 172.597 94.1299 172.597 94.1299 172.527C92.1681 170.635 90.0661 169.094 87.8941 167.833C87.4036 167.552 86.9132 167.342 86.4928 167.132C84.7411 166.291 83.0595 165.731 81.448 165.52C79.4161 165.24 77.5244 165.45 75.9128 166.081H75.8428L97.423 153.399C97.353 153.399 97.353 153.469 97.353 153.469C98.0536 153.049 98.6842 152.698 99.0345 152.488C99.1046 152.488 99.1046 152.418 99.1747 152.418C99.2447 152.348 99.3148 152.348 99.3148 152.348C99.3849 152.348 99.3849 152.278 99.4549 152.278L99.525 152.208C101.207 151.507 103.098 151.297 105.13 151.577C106.742 151.787 108.423 152.348 110.175 153.189C110.665 153.399 111.086 153.679 111.576 153.889C113.818 155.151 115.99 156.762 117.952 158.724C123.347 163.909 127.621 171.196 129.513 178.342C130.354 181.005 130.774 183.667 130.774 186.12Z" fill="url(#paint5_linear_1_19911)" stroke="#231F20" stroke-width="0.225612" stroke-miterlimit="10" stroke-linecap="round" stroke-linejoin="round"/>
        <path d="M99.0341 152.558C98.6137 152.768 98.0532 153.119 97.3525 153.539L97.4226 153.469L99.0341 152.558Z" fill="#C49A6C" stroke="#231F20" stroke-width="0.225612" stroke-miterlimit="10" stroke-linecap="round" stroke-linejoin="round"/>
        <path opacity="0.2" d="M112.487 154.66L94.0594 164.82L91.6772 166.221L49.2173 142.119L37.0259 135.182L39.4782 133.641L57.9055 123.131L112.487 154.66Z" fill="black" stroke="#231F20" stroke-width="0.210688" stroke-miterlimit="10"/>
        <path d="M114.378 147.093L94.0594 158.163L91.6772 159.565L49.2173 135.462L37.0259 128.526L39.4782 127.054L59.8673 115.563L114.378 147.093Z" fill="#F1F2F2" stroke="#231F20" stroke-width="0.201439" stroke-miterlimit="10" stroke-linecap="round" stroke-linejoin="round"/>
        <path d="M114.379 147.093V150.386L94.3397 161.176L94.0595 161.387V187.101L91.6772 188.362V159.565L94.0595 158.164L114.379 147.093Z" fill="#F1F2F2" stroke="#231F20" stroke-width="0.201439" stroke-miterlimit="10" stroke-linecap="round" stroke-linejoin="round"/>
        <path d="M91.6772 159.565V188.362L39.4782 158.514L37.0259 157.112V128.526L49.2173 135.462L91.6772 159.565Z" fill="#F1F2F2" stroke="#231F20" stroke-width="0.201439" stroke-miterlimit="10" stroke-linecap="round" stroke-linejoin="round"/>
        <path opacity="0.14" d="M91.6772 159.565V188.362L39.4782 158.514L37.0259 157.112V128.526L49.2173 135.462L91.6772 159.565Z" fill="black" stroke="#231F20" stroke-width="0.201439" stroke-miterlimit="10"/>
    </g>
    <defs>
        <linearGradient id="paint0_linear_1_19911" x1="45.0143" y1="150.209" x2="54.584" y2="167.727" gradientUnits="userSpaceOnUse">
            <stop stop-color="#C2B59B"/>
            <stop offset="1" stop-color="#49443A"/>
        </linearGradient>
        <linearGradient id="paint1_linear_1_19911" x1="82.9435" y1="170.37" x2="82.8004" y2="170.64" gradientUnits="userSpaceOnUse">
            <stop stop-color="#58595B"/>
            <stop offset="1"/>
        </linearGradient>
        <linearGradient id="paint2_linear_1_19911" x1="60.512" y1="175.121" x2="56.1537" y2="120.38" gradientUnits="userSpaceOnUse">
            <stop/>
            <stop offset="1" stop-color="#58595B"/>
        </linearGradient>
        <linearGradient id="paint3_linear_1_19911" x1="89.8624" y1="176.281" x2="99.432" y2="193.799" gradientUnits="userSpaceOnUse">
            <stop stop-color="#C2B59B"/>
            <stop offset="1" stop-color="#49443A"/>
        </linearGradient>
        <linearGradient id="paint4_linear_1_19911" x1="127.792" y1="196.442" x2="127.649" y2="196.711" gradientUnits="userSpaceOnUse">
            <stop stop-color="#58595B"/>
            <stop offset="1"/>
        </linearGradient>
        <linearGradient id="paint5_linear_1_19911" x1="105.08" y1="207.98" x2="102.096" y2="153.144" gradientUnits="userSpaceOnUse">
            <stop/>
            <stop offset="1" stop-color="#58595B"/>
        </linearGradient>
        <clipPath id="">
            <rect width="106.5" height="98.1621" fill="white" transform="translate(24.4141 115.493)"/>
        </clipPath>
    </defs>


    <g clip-path="url(#)">
        <path d="M105.691 91.2505V125.302L74.0908 107.015L65.8932 93.7028L61.6191 91.2505V69.2499L72.3392 71.9824L105.691 91.2505Z" fill="#F1F2F2" stroke="#231F20" stroke-width="0.201439" stroke-miterlimit="10" stroke-linecap="round" stroke-linejoin="round"/>
        <path d="M119.143 102.811V129.156L105.69 125.303V91.2506L119.143 102.811Z" fill="#F1F2F2" stroke="#231F20" stroke-width="0.201439" stroke-miterlimit="10" stroke-linecap="round" stroke-linejoin="round"/>
        <path opacity="0.14" d="M105.691 91.2505V125.302L74.0908 107.015L65.8932 93.7028L61.6191 91.2505V69.2499L72.3392 71.9824L105.691 91.2505Z" fill="black" stroke="#231F20" stroke-width="0.201439" stroke-miterlimit="10"/>
        <path opacity="0.14" d="M119.143 102.811V129.156L105.69 125.303V91.2506L119.143 102.811Z" fill="black" stroke="#231F20" stroke-width="0.201439" stroke-miterlimit="10"/>
        <path d="M158.03 81.9318V108.276L153.896 110.519C154.176 109.608 154.316 108.627 154.316 107.436C154.386 101.13 150.042 93.4926 144.577 90.2696L134.698 95.6647L132.806 96.6456L131.405 97.4163L131.195 120.188C131.685 120.468 132.105 120.678 132.596 120.888C133.016 121.028 133.367 121.169 133.787 121.309L119.073 129.226V102.811L130.914 96.4354L144.507 89.0785L158.03 81.9318Z" fill="#F7F7F7" stroke="#231F20" stroke-width="0.201439" stroke-miterlimit="10" stroke-linecap="round" stroke-linejoin="round"/>
        <path d="M158.03 81.9318L144.577 89.1486L130.984 96.4354L119.143 102.811L105.69 91.2506L114.098 86.6963L144.577 70.3009L158.03 81.9318Z" fill="#F1F2F2" stroke="#231F20" stroke-width="0.201439" stroke-miterlimit="10" stroke-linecap="round" stroke-linejoin="round"/>
        <path opacity="0.2" d="M131.545 97.3462L127.271 105.544L127.341 124.742L136.239 119.977L131.545 97.3462Z" fill="black" stroke="#231F20" stroke-width="0.201439" stroke-miterlimit="10"/>
        <path d="M144.577 70.3009L114.099 86.6963L105.691 91.1805L72.3394 71.9825C73.3903 71.7022 89.3653 63.0141 100.506 56.9184C106.602 53.5552 111.296 51.0328 111.296 51.0328L144.577 70.3009Z" fill="#F1F2F2" stroke="#231F20" stroke-width="0.201439" stroke-miterlimit="10" stroke-linecap="round" stroke-linejoin="round"/>
        <path d="M111.296 51.0327C111.296 51.0327 106.671 53.5551 100.576 56.9183C89.4352 63.014 73.4603 71.7021 72.4093 71.9824L61.6191 69.2498L100.576 48.3002L111.296 51.0327Z" fill="#F1F2F2" stroke="#231F20" stroke-width="0.201439" stroke-miterlimit="10" stroke-linecap="round" stroke-linejoin="round"/>
        <path d="M141.214 114.512C141.214 115.633 141.074 116.614 140.794 117.525C140.373 118.856 139.743 119.837 138.832 120.538C137.571 121.519 135.819 121.799 133.857 121.238C133.507 121.168 133.086 121.028 132.666 120.818C132.246 120.608 131.755 120.398 131.265 120.117L131.475 97.3461C131.965 97.6263 132.386 97.9066 132.876 98.2569C133.787 98.9576 134.698 99.7283 135.469 100.639C137.711 103.162 139.532 106.385 140.443 109.608C141.004 111.289 141.214 112.971 141.214 114.512Z" fill="#F1F2F2" stroke="#231F20" stroke-width="0.201439" stroke-miterlimit="10" stroke-linecap="round" stroke-linejoin="round"/>
        <path opacity="0.2" d="M141.214 114.512C141.214 115.633 141.074 116.614 140.794 117.525C140.373 118.856 139.743 119.837 138.832 120.538C137.571 121.519 135.819 121.799 133.857 121.238C133.507 121.168 133.086 121.028 132.666 120.818C132.246 120.608 131.755 120.398 131.265 120.117L131.475 97.3461C131.965 97.6263 132.386 97.9066 132.876 98.2569C133.787 98.9576 134.698 99.7283 135.469 100.639C137.711 103.162 139.532 106.385 140.443 109.608C141.004 111.289 141.214 112.971 141.214 114.512Z" fill="black" stroke="#231F20" stroke-width="0.201439" stroke-miterlimit="10"/>
        <path d="M151.724 113.531C151.513 113.672 151.303 113.812 151.023 113.882L151.724 113.531Z" fill="#F1F2F2" stroke="#231F20" stroke-width="0.201439" stroke-miterlimit="10" stroke-linecap="round" stroke-linejoin="round"/>
        <path d="M154.386 107.366C154.386 108.487 154.246 109.538 153.966 110.448C153.546 111.85 152.775 112.901 151.724 113.601L151.023 113.952L144.437 117.525L138.832 120.538C139.743 119.837 140.373 118.856 140.794 117.525C141.074 116.684 141.214 115.633 141.214 114.512C141.214 112.971 140.934 111.289 140.513 109.608C139.602 106.385 137.781 103.162 135.539 100.639C134.698 99.7284 133.857 98.8876 132.946 98.257C132.526 97.9067 132.035 97.6264 131.545 97.3462L132.946 96.5754L134.838 95.5945L144.717 90.1995C150.112 93.4225 154.456 101.06 154.386 107.366Z" fill="#F1F2F2" stroke="#231F20" stroke-width="0.201439" stroke-miterlimit="10" stroke-linecap="round" stroke-linejoin="round"/>
        <path d="M189.279 139.176C189.139 139.105 188.999 139.035 188.859 138.965L189.279 139.176Z" fill="#F1F2F2" stroke="#231F20" stroke-width="0.201439" stroke-miterlimit="10" stroke-linecap="round" stroke-linejoin="round"/>
        <path d="M196.215 131.398C196.215 134.131 194.323 137.424 191.941 138.755C190.89 139.386 189.979 139.456 189.209 139.175L188.788 138.965C188.158 138.475 187.737 137.564 187.737 136.303C187.737 133.57 189.629 130.277 192.011 128.946C192.992 128.385 193.973 128.245 194.674 128.525C195.655 128.876 196.215 129.857 196.215 131.398Z" fill="#F1F2F2" stroke="#231F20" stroke-width="0.201439" stroke-miterlimit="10" stroke-linecap="round" stroke-linejoin="round"/>
        <path d="M194.674 128.525C193.973 128.245 192.993 128.385 192.012 128.946C189.699 130.277 187.738 133.57 187.738 136.303C187.738 137.564 188.158 138.475 188.789 138.965L144.367 114.442C143.456 114.092 142.896 113.041 142.896 111.57C142.896 108.837 144.787 105.544 147.17 104.213C148.291 103.582 149.271 103.512 150.042 103.862L150.182 103.932L194.674 128.525Z" fill="url(#paint0_linear_1_19911)" stroke="#231F20" stroke-width="0.201439" stroke-miterlimit="10" stroke-linecap="round" stroke-linejoin="round"/>
        <path d="M201.611 150.806C201.331 150.736 201.12 150.596 200.91 150.386L201.611 150.806Z" fill="#F1F2F2" stroke="#231F20" stroke-width="0.201439" stroke-miterlimit="10" stroke-linecap="round" stroke-linejoin="round"/>
        <path d="M213.312 138.195C213.242 142.679 210.019 148.004 206.095 150.176C204.343 151.157 202.802 151.297 201.611 150.807L200.91 150.386C199.859 149.545 199.158 148.074 199.228 146.042C199.299 141.558 202.522 136.233 206.445 134.061C208.127 133.15 209.668 132.94 210.859 133.36C212.401 133.991 213.382 135.672 213.312 138.195Z" fill="#58595B" stroke="#231F20" stroke-width="0.201439" stroke-miterlimit="10" stroke-linecap="round" stroke-linejoin="round"/>
        <path d="M211.77 139.035C211.7 142.539 209.178 146.743 206.095 148.424C204.764 149.195 203.502 149.335 202.591 148.915L202.031 148.634C201.19 148.004 200.7 146.813 200.7 145.201C200.77 141.698 203.292 137.494 206.305 135.812C207.636 135.112 208.827 134.972 209.738 135.252C211.069 135.742 211.84 137.074 211.77 139.035Z" fill="#231F20" stroke="#231F20" stroke-width="0.201439" stroke-miterlimit="10"/>
        <path d="M210.789 133.36C209.598 132.94 208.057 133.08 206.375 134.061C202.452 136.233 199.229 141.558 199.159 146.042C199.088 148.074 199.789 149.615 200.84 150.386L178.349 137.564C176.878 136.933 175.967 135.252 175.967 132.8C176.037 128.315 179.26 122.99 183.184 120.818C185.005 119.767 186.687 119.697 187.948 120.328L188.228 120.468L210.789 133.36Z" fill="url(#paint1_linear_1_19911)" stroke="#231F20" stroke-width="0.201439" stroke-miterlimit="10" stroke-linecap="round" stroke-linejoin="round"/>
        <path opacity="0.2" d="M104.57 83.1229C113.934 83.1229 121.526 78.7312 121.526 73.3137C121.526 67.8962 113.934 63.5045 104.57 63.5045C95.2052 63.5045 87.6138 67.8962 87.6138 73.3137C87.6138 78.7312 95.2052 83.1229 104.57 83.1229Z" fill="black" stroke="#231F20" stroke-width="0.201439" stroke-miterlimit="10"/>
        <path d="M127.271 69.4601C127.271 70.0206 127.201 70.5811 127.061 71.0716C126.921 71.6321 126.64 72.1926 126.36 72.6831C125.519 74.1545 124.118 75.4857 122.086 76.6769C115.15 80.6706 104.009 80.6706 97.0726 76.6769C95.0407 75.5558 93.6393 74.1545 92.7985 72.6831C92.5183 72.1226 92.238 71.6321 92.0979 71.0716C91.9578 70.5111 91.8877 70.0206 91.8877 69.4601C91.8877 68.4792 92.168 67.4282 92.6584 66.4473C92.7986 66.167 93.0087 65.8167 93.2189 65.5364C93.289 65.4663 93.3591 65.3262 93.4291 65.2561L93.5693 65.3262L96.2318 66.7976L99.1745 65.1861V63.2242L97.2828 62.1732C97.6331 61.963 97.9134 61.8229 98.2637 61.6828C98.614 61.5426 98.9643 61.3325 99.3147 61.1923C99.5249 61.1223 99.7351 61.0522 99.9453 60.9821L103.449 62.8038L106.391 61.1923V59.4407C111.927 58.8801 117.812 59.791 122.086 62.2433C125.519 64.2752 127.271 66.8676 127.271 69.4601Z" fill="#F1F2F2" stroke="#231F20" stroke-width="0.201439" stroke-miterlimit="10" stroke-linecap="round" stroke-linejoin="round"/>
        <path d="M127.271 69.4601V72.7532C127.271 75.3456 125.519 78.0081 122.086 79.9699C115.15 83.9637 104.009 83.9637 97.0726 79.9699C93.6393 78.0081 91.8877 75.3456 91.8877 72.7532V69.5301C91.8877 70.0907 91.9578 70.6512 92.0979 71.1417C92.238 71.7022 92.4482 72.2627 92.7985 72.7532C93.6393 74.2246 95.0407 75.5558 97.0726 76.7469C104.009 80.7407 115.15 80.7407 122.086 76.7469C124.118 75.6259 125.519 74.2246 126.36 72.7532C126.64 72.1926 126.921 71.7022 127.061 71.1417C127.201 70.5811 127.271 70.0206 127.271 69.4601Z" fill="#F1F2F2" stroke="#231F20" stroke-width="0.201439" stroke-miterlimit="10" stroke-linecap="round" stroke-linejoin="round"/>
        <path d="M99.1041 63.2242V65.2561L96.2314 66.8677V64.9058L99.1041 63.2242Z" fill="#F1F2F2" stroke="#231F20" stroke-width="0.201439" stroke-miterlimit="10" stroke-linecap="round" stroke-linejoin="round"/>
        <path d="M96.2314 64.9059V66.8677L93.5689 65.3963L93.4288 65.3263L92.2377 64.6957V66.2371L89.7153 64.7657V61.1223L94.0594 63.6447L94.6199 64.0651L96.2314 64.9059Z" fill="#F1F2F2" stroke="#231F20" stroke-width="0.201439" stroke-miterlimit="10" stroke-linecap="round" stroke-linejoin="round"/>
        <path d="M106.391 59.3706L106.18 59.4407L103.448 61.0522L102.046 60.2114L101.206 59.7209L96.9316 57.2686L99.8744 55.587L104.148 58.1094L106.391 59.3706Z" fill="#F1F2F2" stroke="#231F20" stroke-width="0.201439" stroke-miterlimit="10" stroke-linecap="round" stroke-linejoin="round"/>
        <path d="M106.391 59.4406V61.1221L103.448 62.7336V60.982L106.181 59.4406C106.251 59.4406 106.321 59.4406 106.391 59.4406Z" fill="#F1F2F2" stroke="#231F20" stroke-width="0.201439" stroke-miterlimit="10" stroke-linecap="round" stroke-linejoin="round"/>
        <path d="M106.391 59.3706V59.4407C106.321 59.4407 106.251 59.4407 106.181 59.4407L106.391 59.3706Z" fill="#F1F2F2" stroke="#231F20" stroke-width="0.201439" stroke-miterlimit="10" stroke-linecap="round" stroke-linejoin="round"/>
        <path d="M99.945 60.912C99.7348 60.982 99.5247 61.0521 99.3145 61.1222V60.5616L99.4546 60.6317L99.945 60.912Z" fill="#F1F2F2" stroke="#231F20" stroke-width="0.201439" stroke-miterlimit="10" stroke-linecap="round" stroke-linejoin="round"/>
        <path d="M99.1041 63.2241L96.2314 64.9057L94.6199 64.0649L94.0594 63.6445L89.7153 61.1221L92.588 59.4406L97.0022 62.033L97.2824 62.1731L99.1041 63.2241Z" fill="#F1F2F2" stroke="#231F20" stroke-width="0.201439" stroke-miterlimit="10" stroke-linecap="round" stroke-linejoin="round"/>
        <path d="M103.448 61.0521V62.8037L99.9445 60.982L99.454 60.7018L99.3139 60.6317V61.1922C98.9635 61.3324 98.6132 61.4725 98.2629 61.6827L97.9826 61.4725L96.9316 60.8419V57.1985L101.136 59.6508L102.046 60.1412L103.448 61.0521Z" fill="#F1F2F2" stroke="#231F20" stroke-width="0.201439" stroke-miterlimit="10" stroke-linecap="round" stroke-linejoin="round"/>
        <path opacity="0.2" d="M96.2314 64.9059V66.8677L93.5689 65.3963L93.4288 65.3263L92.2377 64.6957V66.2371L89.7153 64.7657V61.1223L94.0594 63.6447L94.6199 64.0651L96.2314 64.9059Z" fill="black" stroke="#231F20" stroke-width="0.201439" stroke-miterlimit="10"/>
        <path opacity="0.2" d="M103.448 61.0521V62.8037L99.9445 60.982L99.454 60.7018L99.3139 60.6317V61.1922C98.9635 61.3324 98.6132 61.4725 98.2629 61.6827L97.9826 61.4725L96.9316 60.8419V57.1985L101.136 59.6508L102.046 60.1412L103.448 61.0521Z" fill="black" stroke="#231F20" stroke-width="0.201439" stroke-miterlimit="10"/>
        <path d="M93.4289 65.3261C93.3588 65.3962 93.2888 65.5363 93.2187 65.6064L92.2378 66.237V64.6255L93.4289 65.3261Z" fill="#F1F2F2" stroke="#231F20" stroke-width="0.201439" stroke-miterlimit="10" stroke-linecap="round" stroke-linejoin="round"/>
        <path d="M127.271 69.4601V72.7532C127.271 75.3456 125.52 78.0081 122.087 79.9699C115.15 83.9637 104.01 83.9637 97.0731 79.9699C93.6398 78.0081 91.8882 75.3456 91.8882 72.7532V69.5301C91.8882 70.0907 91.9582 70.6512 92.0984 71.1417C92.2385 71.7022 92.4487 72.2627 92.799 72.7532C93.6398 74.2246 95.0411 75.5558 97.0731 76.7469C104.01 80.7407 115.15 80.7407 122.087 76.7469C124.118 75.6259 125.52 74.2246 126.361 72.7532C126.641 72.1926 126.921 71.7022 127.061 71.1417C127.201 70.5811 127.271 70.0206 127.271 69.4601Z" fill="#F1F2F2" stroke="#231F20" stroke-width="0.201439" stroke-miterlimit="10" stroke-linecap="round" stroke-linejoin="round"/>
        <path opacity="0.14" d="M112.417 79.5496V82.7726C107.022 83.263 101.277 82.3522 97.0731 79.8999C93.6398 77.938 91.8882 75.2755 91.8882 72.6831V69.4601C91.8882 70.0206 91.9582 70.5811 92.0984 71.0716C92.2385 71.6321 92.4487 72.1926 92.799 72.6831C93.6398 74.1545 95.0411 75.4857 97.0731 76.6769C101.277 79.1292 107.022 80.04 112.417 79.5496Z" fill="black" stroke="#231F20" stroke-width="0.201439" stroke-miterlimit="10"/>
    </g>
    <defs>
        <linearGradient id="paint0_linear_1_19911" x1="165.123" y1="125.885" x2="170.764" y2="115.469" gradientUnits="userSpaceOnUse">
            <stop stop-color="#59595C"/>
            <stop offset="0.3636" stop-color="#221F1F"/>
            <stop offset="0.6738" stop-color="#808184"/>
            <stop offset="1" stop-color="#424143"/>
        </linearGradient>
        <linearGradient id="paint1_linear_1_19911" x1="186.924" y1="142.494" x2="197.123" y2="125.557" gradientUnits="userSpaceOnUse">
            <stop stop-color="#59595C"/>
            <stop offset="0.3636" stop-color="#221F1F"/>
            <stop offset="0.6738" stop-color="#808184"/>
            <stop offset="1" stop-color="#424143"/>
        </linearGradient>
        <clipPath id="">
            <rect width="151.903" height="102.997" fill="white" transform="translate(61.5493 48.2302)"/>
        </clipPath>
    </defs>

</svg>
