<svg width="230" height="230" viewBox="0 0 230 230" fill="none"
    xmlns="http://www.w3.org/2000/svg">
    <g clip-path="url(#)">
        <path d="M167.768 124.602L129.442 146.743L123.487 137.914L163.004 115.493L167.768 124.602Z" fill="#F9FAFA" stroke="#231F20" stroke-width="0.201439" stroke-miterlimit="10" stroke-linecap="round" stroke-linejoin="round"/>
        <path d="M167.769 124.602V137.564L129.443 160.546V146.743L167.769 124.602Z" fill="#F1F2F2" stroke="#231F20" stroke-width="0.201439" stroke-miterlimit="10" stroke-linecap="round" stroke-linejoin="round"/>
        <path d="M129.443 146.743V160.546L92.3079 163.979L46.9053 124.672V106.945L61.479 101.62H61.6191L120.965 136.443L123.487 137.914L129.443 146.743Z" fill="#F1F2F2" stroke="#231F20" stroke-width="0.201439" stroke-miterlimit="10" stroke-linecap="round" stroke-linejoin="round"/>
        <path d="M163.004 115.493L150.182 122.85L133.156 132.449L123.487 137.914L120.965 136.443L61.6191 101.62H61.479L71.2882 96.1553L101.346 79.1293L163.004 115.493Z" fill="#F1F2F2" stroke="#231F20" stroke-width="0.201439" stroke-miterlimit="10" stroke-linecap="round" stroke-linejoin="round"/>
        <path d="M71.2882 96.1553L61.479 101.62L46.9053 106.945L88.2441 83.6135L101.346 79.1293L71.2882 96.1553Z" fill="#F1F2F2" stroke="#231F20" stroke-width="0.201439" stroke-miterlimit="10" stroke-linecap="round" stroke-linejoin="round"/>
        <path opacity="0.14" d="M129.443 146.743V160.546L92.3079 163.979L46.9053 124.672V106.945L61.479 101.62H61.6191L120.965 136.443L123.487 137.914L129.443 146.743Z" fill="black" stroke="#231F20" stroke-width="0.0802954" stroke-miterlimit="10"/>
        <path d="M123.136 94.1234L111.576 87.5372L107.302 89.9195L75.4917 108.417L87.9634 115.423L96.2312 120.048L99.1739 121.729L103.028 123.901L107.302 126.284V126.143L107.442 126.214L113.607 122.64L116.48 120.959L119.143 119.417L123.277 117.035L136.309 109.608L143.245 105.614L123.136 94.1234ZM133.646 108.137L120.614 115.564L116.48 117.946L113.818 119.487L113.678 119.557L108.072 122.78L107.372 122.36L106.601 121.94L102.747 119.697L99.8746 118.016L90.696 112.761L85.6512 109.818L82.3581 107.926L84.0397 106.945L96.091 100.079L96.3012 99.9389L102.957 96.0853L111.225 91.3208L118.022 95.2445L136.939 106.175L133.646 108.137Z" fill="#F1F2F2" stroke="#231F20" stroke-width="0.328328" stroke-miterlimit="10" stroke-linecap="round" stroke-linejoin="round"/>
        <path d="M136.939 106.245L133.646 108.136L113.187 96.2953L111.155 95.1743V91.3207L117.952 95.2444L136.939 106.245Z" fill="#F1F2F2" stroke="#231F20" stroke-width="0.328328" stroke-miterlimit="10" stroke-linecap="round" stroke-linejoin="round"/>
        <path d="M111.155 91.3207V95.1743L106.741 97.6967L96.3012 103.722L93.7789 105.194L90.6259 106.945L85.6512 109.818L82.2881 107.856L83.9697 106.945L96.091 100.079L96.3012 99.9388L102.957 96.0851L111.155 91.3207Z" fill="#F1F2F2" stroke="#231F20" stroke-width="0.328328" stroke-miterlimit="10" stroke-linecap="round" stroke-linejoin="round"/>
        <path d="M133.646 108.137L120.544 115.564L116.48 117.876L113.817 119.417L113.677 119.347V119.487L108.072 122.78L107.301 122.36L106.53 121.869L102.747 119.697L99.8742 118.016L90.6956 112.761L85.6509 109.818L90.6255 106.945L93.7785 105.194L96.3009 103.722L106.741 97.6968L111.155 95.1744L113.187 96.2955L133.646 108.137Z" fill="#F1F2F2" stroke="#231F20" stroke-width="0.328328" stroke-miterlimit="10" stroke-linecap="round" stroke-linejoin="round"/>
        <path opacity="0.2" d="M136.939 106.245L130.073 110.168L107.652 97.2062L111.155 91.3207L136.939 106.245Z" fill="black" stroke="#231F20" stroke-width="0.328328" stroke-miterlimit="10"/>
        <path d="M59.7271 93.843C59.7271 93.843 59.7977 93.843 59.7271 93.843C59.7977 93.843 59.7977 93.843 59.7271 93.843Z" fill="#F1F2F2" stroke="#231F20" stroke-width="0.201439" stroke-miterlimit="10" stroke-linecap="round" stroke-linejoin="round"/>
        <path d="M91.1868 84.3843L67.1543 97.907L59.7974 93.8431L83.1993 80.7408L91.1868 84.3843Z" fill="#F1F2F2" stroke="#231F20" stroke-width="0.201439" stroke-miterlimit="10" stroke-linecap="round" stroke-linejoin="round"/>
        <path d="M67.1543 97.9068L59.7974 100.569V93.843L67.1543 97.9068Z" fill="#F1F2F2" stroke="#231F20" stroke-width="0.201439" stroke-miterlimit="10" stroke-linecap="round" stroke-linejoin="round"/>
        <path opacity="0.14" d="M67.1543 97.9068L59.7974 100.569V93.843L67.1543 97.9068Z" fill="black" stroke="#231F20" stroke-width="0.201439" stroke-miterlimit="10"/>
        <path d="M130.634 115.774L130.074 115.493L140.443 109.468L141.074 109.818L130.634 115.774Z" fill="#6D6E71" stroke="#231F20" stroke-width="0.0125215" stroke-miterlimit="10" stroke-linecap="round" stroke-linejoin="round"/>
        <path d="M131.895 116.474L131.265 116.194L141.634 110.168L142.265 110.519L131.895 116.474Z" fill="#6D6E71" stroke="#231F20" stroke-width="0.0125215" stroke-miterlimit="10" stroke-linecap="round" stroke-linejoin="round"/>
        <path d="M133.086 117.175L132.456 116.825L142.895 110.869L143.456 111.219L133.086 117.175Z" fill="#6D6E71" stroke="#231F20" stroke-width="0.0125215" stroke-miterlimit="10" stroke-linecap="round" stroke-linejoin="round"/>
        <path d="M134.278 117.876L133.647 117.525L144.087 111.57L144.647 111.92L134.278 117.876Z" fill="#6D6E71" stroke="#231F20" stroke-width="0.0125215" stroke-miterlimit="10" stroke-linecap="round" stroke-linejoin="round"/>
        <path d="M135.469 118.576L134.908 118.226L145.278 112.27L145.838 112.621L135.469 118.576Z" fill="#6D6E71" stroke="#231F20" stroke-width="0.0125215" stroke-miterlimit="10" stroke-linecap="round" stroke-linejoin="round"/>
        <path d="M136.66 119.277L136.1 118.927L146.469 112.971L147.1 113.321L136.66 119.277Z" fill="#6D6E71" stroke="#231F20" stroke-width="0.0125215" stroke-miterlimit="10" stroke-linecap="round" stroke-linejoin="round"/>
        <path d="M137.921 119.978L137.29 119.627L147.66 113.672L148.29 113.952L137.921 119.978Z" fill="#6D6E71" stroke="#231F20" stroke-width="0.0125215" stroke-miterlimit="10" stroke-linecap="round" stroke-linejoin="round"/>
        <path d="M139.113 120.678L138.482 120.328L148.922 114.372L149.482 114.653L139.113 120.678Z" fill="#6D6E71" stroke="#231F20" stroke-width="0.0125215" stroke-miterlimit="10" stroke-linecap="round" stroke-linejoin="round"/>
        <path d="M140.303 121.379L139.742 121.029L150.112 115.003L150.672 115.353L140.303 121.379Z" fill="#6D6E71" stroke="#231F20" stroke-width="0.0125215" stroke-miterlimit="10" stroke-linecap="round" stroke-linejoin="round"/>
        <path d="M141.495 122.08L140.934 121.729L151.304 115.704L151.864 116.054L141.495 122.08Z" fill="#6D6E71" stroke="#231F20" stroke-width="0.0125215" stroke-miterlimit="10" stroke-linecap="round" stroke-linejoin="round"/>
        <path d="M142.686 122.78L142.125 122.43L152.495 116.404L153.125 116.755L142.686 122.78Z" fill="#6D6E71" stroke="#231F20" stroke-width="0.0125215" stroke-miterlimit="10" stroke-linecap="round" stroke-linejoin="round"/>
        <path d="M143.947 123.481L143.316 123.131L153.686 117.105L154.316 117.455L143.947 123.481Z" fill="#6D6E71" stroke="#231F20" stroke-width="0.0125215" stroke-miterlimit="10" stroke-linecap="round" stroke-linejoin="round"/>
        <path d="M154.316 117.455L153.686 117.806L139.883 109.818L140.443 109.468L154.316 117.455Z" fill="#6D6E71" stroke="#231F20" stroke-width="0.0125215" stroke-miterlimit="10" stroke-linecap="round" stroke-linejoin="round"/>
        <path d="M153.056 118.156L152.495 118.506L138.622 110.519L139.253 110.168L153.056 118.156Z" fill="#6D6E71" stroke="#231F20" stroke-width="0.0125215" stroke-miterlimit="10" stroke-linecap="round" stroke-linejoin="round"/>
        <path d="M151.864 118.857L151.233 119.207L137.43 111.219L137.991 110.869L151.864 118.857Z" fill="#6D6E71" stroke="#231F20" stroke-width="0.0125215" stroke-miterlimit="10" stroke-linecap="round" stroke-linejoin="round"/>
        <path d="M150.603 119.557L150.042 119.908L136.169 111.92L136.8 111.57L150.603 119.557Z" fill="#6D6E71" stroke="#231F20" stroke-width="0.0125215" stroke-miterlimit="10" stroke-linecap="round" stroke-linejoin="round"/>
        <path d="M149.412 120.258L148.851 120.608L134.978 112.621L135.539 112.27L149.412 120.258Z" fill="#6D6E71" stroke="#231F20" stroke-width="0.0125215" stroke-miterlimit="10" stroke-linecap="round" stroke-linejoin="round"/>
        <path d="M148.221 121.029L147.59 121.309L133.717 113.321L134.348 112.971L148.221 121.029Z" fill="#6D6E71" stroke="#231F20" stroke-width="0.0125215" stroke-miterlimit="10" stroke-linecap="round" stroke-linejoin="round"/>
        <path d="M146.959 121.729L146.399 122.08L132.526 114.022L133.086 113.742L146.959 121.729Z" fill="#6D6E71" stroke="#231F20" stroke-width="0.0125215" stroke-miterlimit="10" stroke-linecap="round" stroke-linejoin="round"/>
        <path d="M145.768 122.43L145.138 122.78L131.265 114.723L131.895 114.442L145.768 122.43Z" fill="#6D6E71" stroke="#231F20" stroke-width="0.0125215" stroke-miterlimit="10" stroke-linecap="round" stroke-linejoin="round"/>
        <path d="M144.507 123.131L143.947 123.481L130.074 115.493L130.634 115.143L144.507 123.131Z" fill="#6D6E71" stroke="#231F20" stroke-width="0.0125215" stroke-miterlimit="10" stroke-linecap="round" stroke-linejoin="round"/>
        <path d="M114.449 125.022L113.889 124.672L124.258 118.716L124.819 119.067L114.449 125.022Z" fill="#6D6E71" stroke="#231F20" stroke-width="0.0125215" stroke-miterlimit="10" stroke-linecap="round" stroke-linejoin="round"/>
        <path d="M115.64 125.723L115.08 125.373L125.449 119.417L126.08 119.767L115.64 125.723Z" fill="#6D6E71" stroke="#231F20" stroke-width="0.0125215" stroke-miterlimit="10" stroke-linecap="round" stroke-linejoin="round"/>
        <path d="M116.902 126.424L116.271 126.073L126.641 120.118L127.271 120.468L116.902 126.424Z" fill="#6D6E71" stroke="#231F20" stroke-width="0.0125215" stroke-miterlimit="10" stroke-linecap="round" stroke-linejoin="round"/>
        <path d="M118.093 127.124L117.462 126.774L127.902 120.818L128.462 121.099L118.093 127.124Z" fill="#6D6E71" stroke="#231F20" stroke-width="0.0125215" stroke-miterlimit="10" stroke-linecap="round" stroke-linejoin="round"/>
        <path d="M119.284 127.825L118.723 127.475L129.093 121.519L129.653 121.799L119.284 127.825Z" fill="#6D6E71" stroke="#231F20" stroke-width="0.0125215" stroke-miterlimit="10" stroke-linecap="round" stroke-linejoin="round"/>
        <path d="M120.475 128.526L119.915 128.175L130.284 122.15L130.915 122.5L120.475 128.526Z" fill="#6D6E71" stroke="#231F20" stroke-width="0.0125215" stroke-miterlimit="10" stroke-linecap="round" stroke-linejoin="round"/>
        <path d="M121.666 129.226L121.105 128.876L131.475 122.85L132.105 123.201L121.666 129.226Z" fill="#6D6E71" stroke="#231F20" stroke-width="0.0125215" stroke-miterlimit="10" stroke-linecap="round" stroke-linejoin="round"/>
        <path d="M122.927 129.927L122.297 129.577L132.667 123.551L133.297 123.901L122.927 129.927Z" fill="#6D6E71" stroke="#231F20" stroke-width="0.0125215" stroke-miterlimit="10" stroke-linecap="round" stroke-linejoin="round"/>
        <path d="M124.118 130.628L123.488 130.277L133.928 124.252L134.488 124.602L124.118 130.628Z" fill="#6D6E71" stroke="#231F20" stroke-width="0.0125215" stroke-miterlimit="10" stroke-linecap="round" stroke-linejoin="round"/>
        <path d="M125.31 131.328L124.749 130.978L135.119 124.952L135.679 125.303L125.31 131.328Z" fill="#6D6E71" stroke="#231F20" stroke-width="0.0125215" stroke-miterlimit="10" stroke-linecap="round" stroke-linejoin="round"/>
        <path d="M126.5 132.029L125.94 131.679L136.31 125.653L136.94 126.003L126.5 132.029Z" fill="#6D6E71" stroke="#231F20" stroke-width="0.0125215" stroke-miterlimit="10" stroke-linecap="round" stroke-linejoin="round"/>
        <path d="M127.691 132.73L127.131 132.379L137.501 126.354L138.131 126.704L127.691 132.73Z" fill="#6D6E71" stroke="#231F20" stroke-width="0.0125215" stroke-miterlimit="10" stroke-linecap="round" stroke-linejoin="round"/>
        <path d="M138.132 126.704L137.501 127.054L123.698 119.067L124.259 118.716L138.132 126.704Z" fill="#6D6E71" stroke="#231F20" stroke-width="0.0125215" stroke-miterlimit="10" stroke-linecap="round" stroke-linejoin="round"/>
        <path d="M136.871 127.405L136.31 127.755L122.437 119.767L123.068 119.417L136.871 127.405Z" fill="#6D6E71" stroke="#231F20" stroke-width="0.0125215" stroke-miterlimit="10" stroke-linecap="round" stroke-linejoin="round"/>
        <path d="M135.679 128.105L135.049 128.456L121.246 120.468L121.806 120.118L135.679 128.105Z" fill="#6D6E71" stroke="#231F20" stroke-width="0.0125215" stroke-miterlimit="10" stroke-linecap="round" stroke-linejoin="round"/>
        <path d="M134.418 128.806L133.858 129.156L119.985 121.169L120.615 120.818L134.418 128.806Z" fill="#6D6E71" stroke="#231F20" stroke-width="0.0125215" stroke-miterlimit="10" stroke-linecap="round" stroke-linejoin="round"/>
        <path d="M133.227 129.507L132.596 129.857L118.793 121.869L119.353 121.519L133.227 129.507Z" fill="#6D6E71" stroke="#231F20" stroke-width="0.0125215" stroke-miterlimit="10" stroke-linecap="round" stroke-linejoin="round"/>
        <path d="M131.966 130.207L131.405 130.558L117.532 122.57L118.163 122.22L131.966 130.207Z" fill="#6D6E71" stroke="#231F20" stroke-width="0.0125215" stroke-miterlimit="10" stroke-linecap="round" stroke-linejoin="round"/>
        <path d="M130.774 130.908L130.144 131.258L116.341 123.271L116.901 122.92L130.774 130.908Z" fill="#6D6E71" stroke="#231F20" stroke-width="0.0125215" stroke-miterlimit="10" stroke-linecap="round" stroke-linejoin="round"/>
        <path d="M129.513 131.679L128.953 131.959L115.08 123.971L115.71 123.621L129.513 131.679Z" fill="#6D6E71" stroke="#231F20" stroke-width="0.0125215" stroke-miterlimit="10" stroke-linecap="round" stroke-linejoin="round"/>
        <path d="M128.322 132.379L127.692 132.73L113.889 124.672L114.449 124.392L128.322 132.379Z" fill="#6D6E71" stroke="#231F20" stroke-width="0.0125215" stroke-miterlimit="10" stroke-linecap="round" stroke-linejoin="round"/>
    </g>
    <defs>
        <clipPath id="">
            <rect width="121.004" height="85.0598" fill="white" transform="translate(46.8359 79.0592)"/>
        </clipPath>
    </defs>
</svg>
