<svg width="230" height="230" viewBox="0 0 230 230" fill="none"
    xmlns="http://www.w3.org/2000/svg">
    <g clip-path="url(#)">
        <path d="M158.521 112.13L119.004 134.551L57.0654 98.2572L96.3023 75.626L158.521 112.13Z" fill="#F1F2F2" stroke="#231F20" stroke-width="0.201439" stroke-miterlimit="10" stroke-linecap="round" stroke-linejoin="round"/>
        <path d="M169.03 130.067L130.704 152.698L119.003 134.551L158.521 112.13L169.03 130.067Z" fill="#F1F2F2" stroke="#231F20" stroke-width="0.201439" stroke-miterlimit="10" stroke-linecap="round" stroke-linejoin="round"/>
        <path d="M169.031 130.067V148.354L130.705 170.635V152.698L169.031 130.067Z" fill="#F1F2F2" stroke="#231F20" stroke-width="0.201439" stroke-miterlimit="10" stroke-linecap="round" stroke-linejoin="round"/>
        <path d="M130.705 152.698V170.635L65.4733 145.552L51.1099 121.589V107.506L57.0655 98.2572L119.004 134.551L130.705 152.698Z" fill="#F1F2F2" stroke="#231F20" stroke-width="0.201439" stroke-miterlimit="10" stroke-linecap="round" stroke-linejoin="round"/>
        <path opacity="0.14" d="M130.705 152.698V170.635L65.4733 145.552L51.1099 121.589V107.506L57.0655 98.2572L119.004 134.551L130.705 152.698Z" fill="black" stroke="#231F20" stroke-width="0.0802954" stroke-miterlimit="10"/>
        <path d="M158.31 125.583L138.832 136.233L139.252 146.042C140.794 144.991 158.661 134.551 158.661 134.551L158.31 125.583ZM156.699 133.29C156.629 133.29 156.629 133.29 156.629 133.36C156.559 133.36 156.559 133.43 156.489 133.43C156.419 133.43 156.419 133.5 156.348 133.5C156.278 133.57 156.138 133.64 156.068 133.64C156.068 133.64 155.998 133.711 155.928 133.711C155.788 133.781 155.718 133.851 155.578 133.921C155.368 134.061 155.087 134.201 154.807 134.341C154.597 134.411 154.457 134.551 154.246 134.691C153.896 134.902 153.546 135.112 153.125 135.322C152.915 135.462 152.775 135.532 152.565 135.672C152.355 135.812 152.215 135.883 152.004 136.023C151.794 136.163 151.584 136.233 151.374 136.373C151.164 136.513 151.023 136.583 150.813 136.723C150.673 136.793 150.533 136.863 150.463 136.934C149.972 137.214 149.552 137.494 149.062 137.774C148.992 137.774 148.922 137.844 148.851 137.844C148.501 138.055 148.221 138.195 147.871 138.405C147.66 138.545 147.38 138.685 147.17 138.825C146.749 139.036 146.329 139.316 145.979 139.526C145.909 139.596 145.769 139.666 145.698 139.736C145.138 140.086 144.577 140.367 144.087 140.717C143.947 140.787 143.807 140.857 143.667 140.927C143.106 141.278 142.546 141.558 142.125 141.838C142.055 141.908 141.915 141.978 141.845 141.978C141.705 142.048 141.495 142.188 141.354 142.259L141.214 138.755V137.985L153.406 130.978L156.629 129.156L156.699 133.29Z" fill="#F1F2F2" stroke="#231F20" stroke-width="0.153094" stroke-miterlimit="10" stroke-linecap="round" stroke-linejoin="round"/>
        <path d="M156.699 133.29C156.699 133.29 145.208 140.016 141.284 142.399L141.144 138.895L153.335 131.679L156.699 133.29Z" fill="#939598" stroke="#231F20" stroke-width="0.0610168" stroke-miterlimit="10"/>
        <path d="M156.489 129.226L156.699 133.29L153.336 131.678L153.266 131.048L156.489 129.226Z" fill="#4F4C4D" stroke="#231F20" stroke-width="0.0610168" stroke-miterlimit="10"/>
        <path d="M153.266 131.048L153.336 131.679L141.144 138.825L141.074 138.055L153.266 131.048Z" fill="#231F20" stroke="#231F20" stroke-width="0.0610168" stroke-miterlimit="10" stroke-linecap="round" stroke-linejoin="round"/>
        <path d="M158.311 125.583L152.635 122.78L158.311 125.583Z" fill="#F1F2F2" stroke="#231F20" stroke-width="0.153094" stroke-miterlimit="10" stroke-linecap="round" stroke-linejoin="round"/>
        <path d="M129.303 130.557L138.832 136.233L139.323 146.042L129.303 130.557Z" stroke="#231F20" stroke-width="0.268562" stroke-miterlimit="10"/>
        <path opacity="0.14" d="M129.303 130.557L138.832 136.233L139.323 146.042L129.303 130.557Z" fill="black" stroke="#231F20" stroke-width="0.0802954" stroke-miterlimit="10"/>
        <path d="M158.31 125.583L138.832 136.233L129.303 130.557L147.52 120.258L152.635 122.78L158.31 125.583Z" stroke="#231F20" stroke-width="0.268562" stroke-miterlimit="10"/>
        <path d="M124.958 94.3336L113.397 87.7474L109.123 90.1297L77.3135 108.627L89.7852 115.634L98.0529 120.258L100.996 121.94L104.849 124.112L109.123 126.494V126.354L109.263 126.424L115.429 122.85L118.302 121.169L120.964 119.627L125.098 117.245L138.131 109.888L145.067 105.894L124.958 94.3336ZM135.468 108.347L122.436 115.774L118.302 118.086L115.639 119.627L115.499 119.767L109.894 122.991L109.193 122.57L108.423 122.15L104.639 119.978L101.766 118.296L92.5878 113.041L87.473 110.028L84.1799 108.137L85.8615 107.156L97.9829 100.289L98.1931 100.149L104.849 96.2955L113.117 91.531L119.913 95.4547L138.831 106.385L135.468 108.347Z" fill="#F1F2F2" stroke="#231F20" stroke-width="0.328328" stroke-miterlimit="10" stroke-linecap="round" stroke-linejoin="round"/>
        <path d="M138.761 106.455L135.468 108.347L115.009 96.5057L112.977 95.3846V91.531L119.773 95.4547L138.761 106.455Z" fill="#F1F2F2" stroke="#231F20" stroke-width="0.328328" stroke-miterlimit="10" stroke-linecap="round" stroke-linejoin="round"/>
        <path d="M112.977 91.531V95.3846L108.563 97.907L98.123 104.003L95.6006 105.404V105.474L92.3776 107.156L87.473 110.028L84.1099 108.137L85.7914 107.156L97.9128 100.289L98.123 100.149L104.779 96.2955L112.977 91.531Z" fill="#F1F2F2" stroke="#231F20" stroke-width="0.328328" stroke-miterlimit="10" stroke-linecap="round" stroke-linejoin="round"/>
        <path d="M135.468 108.347L122.365 115.774L118.302 118.086L115.639 119.627L115.499 119.557V119.768L109.894 122.991L109.123 122.57L108.352 122.08L104.569 119.908L101.696 118.226L92.5174 112.971L87.4727 110.028L92.3773 107.156L95.6003 105.474V105.404L98.1227 104.003L108.562 97.907L112.977 95.3846L115.009 96.5057L135.468 108.347Z" fill="#F1F2F2" stroke="#231F20" stroke-width="0.328328" stroke-miterlimit="10" stroke-linecap="round" stroke-linejoin="round"/>
        <path opacity="0.2" d="M138.761 106.455L131.895 110.379L109.474 97.4165L112.977 91.531L138.761 106.455Z" fill="black" stroke="#231F20" stroke-width="0.328328" stroke-miterlimit="10"/>
        <path d="M83.2702 86.9766L82.6396 86.6262L93.0794 80.6006L93.64 80.9509L83.2702 86.9766Z" fill="#6D6E71" stroke="#231F20" stroke-width="0.0125215" stroke-miterlimit="10" stroke-linecap="round" stroke-linejoin="round"/>
        <path d="M84.4612 87.6773L83.8306 87.3269L94.2704 81.3013L94.8309 81.6516L84.4612 87.6773Z" fill="#6D6E71" stroke="#231F20" stroke-width="0.0125215" stroke-miterlimit="10" stroke-linecap="round" stroke-linejoin="round"/>
        <path d="M85.6523 88.3779L85.0918 88.0276L95.4615 82.002L96.0221 82.3523L85.6523 88.3779Z" fill="#6D6E71" stroke="#231F20" stroke-width="0.0125215" stroke-miterlimit="10" stroke-linecap="round" stroke-linejoin="round"/>
        <path d="M86.8437 89.0786L86.2832 88.7283L96.6529 82.7026L97.2835 83.053L86.8437 89.0786Z" fill="#6D6E71" stroke="#231F20" stroke-width="0.0125215" stroke-miterlimit="10" stroke-linecap="round" stroke-linejoin="round"/>
        <path d="M88.1047 89.7793L87.4741 89.429L97.8439 83.4033L98.4744 83.7536L88.1047 89.7793Z" fill="#6D6E71" stroke="#231F20" stroke-width="0.0125215" stroke-miterlimit="10" stroke-linecap="round" stroke-linejoin="round"/>
        <path d="M89.2961 90.4799L88.6655 90.1295L99.1053 84.1039L99.6659 84.4542L89.2961 90.4799Z" fill="#6D6E71" stroke="#231F20" stroke-width="0.0125215" stroke-miterlimit="10" stroke-linecap="round" stroke-linejoin="round"/>
        <path d="M90.4865 91.1104L89.856 90.8301L100.296 84.8044L100.856 85.1548L90.4865 91.1104Z" fill="#6D6E71" stroke="#231F20" stroke-width="0.0125215" stroke-miterlimit="10" stroke-linecap="round" stroke-linejoin="round"/>
        <path d="M91.6782 91.811L91.1177 91.5308L101.487 85.5051L102.048 85.8555L91.6782 91.811Z" fill="#6D6E71" stroke="#231F20" stroke-width="0.0125215" stroke-miterlimit="10" stroke-linecap="round" stroke-linejoin="round"/>
        <path d="M92.8691 92.5117L92.3086 92.1614L102.678 86.2058L103.309 86.5561L92.8691 92.5117Z" fill="#6D6E71" stroke="#231F20" stroke-width="0.0125215" stroke-miterlimit="10" stroke-linecap="round" stroke-linejoin="round"/>
        <path d="M94.1306 93.2124L93.5 92.8621L103.87 86.9065L104.5 87.2568L94.1306 93.2124Z" fill="#6D6E71" stroke="#231F20" stroke-width="0.0125215" stroke-miterlimit="10" stroke-linecap="round" stroke-linejoin="round"/>
        <path d="M95.3215 93.9131L94.6909 93.5628L105.131 87.6072L105.691 87.9575L95.3215 93.9131Z" fill="#6D6E71" stroke="#231F20" stroke-width="0.0125215" stroke-miterlimit="10" stroke-linecap="round" stroke-linejoin="round"/>
        <path d="M96.5124 94.6138L95.8818 94.2635L106.322 88.3079L106.882 88.6582L96.5124 94.6138Z" fill="#6D6E71" stroke="#231F20" stroke-width="0.0125215" stroke-miterlimit="10" stroke-linecap="round" stroke-linejoin="round"/>
        <path d="M106.883 88.6581L106.322 88.9384L92.4492 80.9509L93.0798 80.6006L106.883 88.6581Z" fill="#6D6E71" stroke="#231F20" stroke-width="0.0125215" stroke-miterlimit="10" stroke-linecap="round" stroke-linejoin="round"/>
        <path d="M105.691 89.3588L105.06 89.6391L91.2573 81.6516L91.8178 81.3013L105.691 89.3588Z" fill="#6D6E71" stroke="#231F20" stroke-width="0.0125215" stroke-miterlimit="10" stroke-linecap="round" stroke-linejoin="round"/>
        <path d="M104.43 90.0594L103.87 90.4097L89.9966 82.3522L90.6272 82.0719L104.43 90.0594Z" fill="#6D6E71" stroke="#231F20" stroke-width="0.0125215" stroke-miterlimit="10" stroke-linecap="round" stroke-linejoin="round"/>
        <path d="M103.239 90.7601L102.608 91.1104L88.8052 83.1229L89.3657 82.7726L103.239 90.7601Z" fill="#6D6E71" stroke="#231F20" stroke-width="0.0125215" stroke-miterlimit="10" stroke-linecap="round" stroke-linejoin="round"/>
        <path d="M101.977 91.4608L101.417 91.8111L87.5439 83.8236L88.1745 83.4733L101.977 91.4608Z" fill="#6D6E71" stroke="#231F20" stroke-width="0.0125215" stroke-miterlimit="10" stroke-linecap="round" stroke-linejoin="round"/>
        <path d="M100.787 92.1614L100.156 92.5118L86.353 84.5243L86.9136 84.174L100.787 92.1614Z" fill="#6D6E71" stroke="#231F20" stroke-width="0.0125215" stroke-miterlimit="10" stroke-linecap="round" stroke-linejoin="round"/>
        <path d="M99.5253 92.8621L98.9648 93.2125L85.0918 85.225L85.7224 84.8746L99.5253 92.8621Z" fill="#6D6E71" stroke="#231F20" stroke-width="0.0125215" stroke-miterlimit="10" stroke-linecap="round" stroke-linejoin="round"/>
        <path d="M98.3344 93.5627L97.7038 93.913L83.9009 85.9255L84.4614 85.5752L98.3344 93.5627Z" fill="#6D6E71" stroke="#231F20" stroke-width="0.0125215" stroke-miterlimit="10" stroke-linecap="round" stroke-linejoin="round"/>
        <path d="M97.0732 94.2634L96.5127 94.6137L82.6396 86.6262L83.2702 86.2759L97.0732 94.2634Z" fill="#6D6E71" stroke="#231F20" stroke-width="0.0125215" stroke-miterlimit="10" stroke-linecap="round" stroke-linejoin="round"/>
        <path d="M67.0847 96.2253L66.4541 95.875L76.8238 89.8494L77.4544 90.1997L67.0847 96.2253Z" fill="#6D6E71" stroke="#231F20" stroke-width="0.0125215" stroke-miterlimit="10" stroke-linecap="round" stroke-linejoin="round"/>
        <path d="M68.2756 96.926L67.645 96.5757L78.0848 90.55L78.6453 90.9004L68.2756 96.926Z" fill="#6D6E71" stroke="#231F20" stroke-width="0.0125215" stroke-miterlimit="10" stroke-linecap="round" stroke-linejoin="round"/>
        <path d="M69.4665 97.6266L68.8359 97.2763L79.2757 91.2506L79.8363 91.6009L69.4665 97.6266Z" fill="#6D6E71" stroke="#231F20" stroke-width="0.0125215" stroke-miterlimit="10" stroke-linecap="round" stroke-linejoin="round"/>
        <path d="M70.6582 98.2572L70.0977 97.977L80.4674 91.9513L81.0279 92.3016L70.6582 98.2572Z" fill="#6D6E71" stroke="#231F20" stroke-width="0.0125215" stroke-miterlimit="10" stroke-linecap="round" stroke-linejoin="round"/>
        <path d="M71.8491 98.9579L71.2886 98.6776L81.6583 92.652L82.2889 93.0023L71.8491 98.9579Z" fill="#6D6E71" stroke="#231F20" stroke-width="0.0125215" stroke-miterlimit="10" stroke-linecap="round" stroke-linejoin="round"/>
        <path d="M73.1106 99.6585L72.48 99.3081L82.8497 93.3525L83.4803 93.7029L73.1106 99.6585Z" fill="#6D6E71" stroke="#231F20" stroke-width="0.0125215" stroke-miterlimit="10" stroke-linecap="round" stroke-linejoin="round"/>
        <path d="M74.301 100.359L73.6704 100.009L84.1102 94.0532L84.6707 94.4036L74.301 100.359Z" fill="#6D6E71" stroke="#231F20" stroke-width="0.0125215" stroke-miterlimit="10" stroke-linecap="round" stroke-linejoin="round"/>
        <path d="M75.4927 101.06L74.9321 100.709L85.3019 94.7539L85.8624 95.1042L75.4927 101.06Z" fill="#6D6E71" stroke="#231F20" stroke-width="0.0125215" stroke-miterlimit="10" stroke-linecap="round" stroke-linejoin="round"/>
        <path d="M76.6831 101.761L76.1226 101.41L86.4923 95.4546L87.0528 95.8049L76.6831 101.761Z" fill="#6D6E71" stroke="#231F20" stroke-width="0.0125215" stroke-miterlimit="10" stroke-linecap="round" stroke-linejoin="round"/>
        <path d="M77.875 102.461L77.3145 102.111L87.6842 96.1553L88.3148 96.4355L77.875 102.461Z" fill="#6D6E71" stroke="#231F20" stroke-width="0.0125215" stroke-miterlimit="10" stroke-linecap="round" stroke-linejoin="round"/>
        <path d="M79.136 103.162L78.5054 102.812L88.8751 96.856L89.5057 97.1362L79.136 103.162Z" fill="#6D6E71" stroke="#231F20" stroke-width="0.0125215" stroke-miterlimit="10" stroke-linecap="round" stroke-linejoin="round"/>
        <path d="M80.3269 103.862L79.6963 103.512L90.1361 97.4865L90.6966 97.8368L80.3269 103.862Z" fill="#6D6E71" stroke="#231F20" stroke-width="0.0125215" stroke-miterlimit="10" stroke-linecap="round" stroke-linejoin="round"/>
        <path d="M90.6967 97.8369L90.1362 98.1872L76.2632 90.1997L76.8237 89.8494L90.6967 97.8369Z" fill="#6D6E71" stroke="#231F20" stroke-width="0.0125215" stroke-miterlimit="10" stroke-linecap="round" stroke-linejoin="round"/>
        <path d="M89.5061 98.5375L88.8755 98.8879L75.0024 90.9004L75.633 90.55L89.5061 98.5375Z" fill="#6D6E71" stroke="#231F20" stroke-width="0.0125215" stroke-miterlimit="10" stroke-linecap="round" stroke-linejoin="round"/>
        <path d="M88.2441 99.3082L87.6836 99.5884L73.8105 91.6009L74.3711 91.2506L88.2441 99.3082Z" fill="#6D6E71" stroke="#231F20" stroke-width="0.0125215" stroke-miterlimit="10" stroke-linecap="round" stroke-linejoin="round"/>
        <path d="M87.0534 100.009L86.4228 100.289L72.5498 92.3016L73.1804 91.9513L87.0534 100.009Z" fill="#6D6E71" stroke="#231F20" stroke-width="0.0125215" stroke-miterlimit="10" stroke-linecap="round" stroke-linejoin="round"/>
        <path d="M85.7919 100.71L85.2314 101.06L71.3584 93.0023L71.9189 92.722L85.7919 100.71Z" fill="#6D6E71" stroke="#231F20" stroke-width="0.0125215" stroke-miterlimit="10" stroke-linecap="round" stroke-linejoin="round"/>
        <path d="M84.601 101.41L83.9704 101.76L70.1675 93.7729L70.728 93.4226L84.601 101.41Z" fill="#6D6E71" stroke="#231F20" stroke-width="0.0125215" stroke-miterlimit="10" stroke-linecap="round" stroke-linejoin="round"/>
        <path d="M83.3398 102.111L82.7793 102.461L68.9062 94.4736L69.4668 94.1233L83.3398 102.111Z" fill="#6D6E71" stroke="#231F20" stroke-width="0.0125215" stroke-miterlimit="10" stroke-linecap="round" stroke-linejoin="round"/>
        <path d="M82.1489 102.811L81.5183 103.162L67.7153 95.1743L68.2759 94.824L82.1489 102.811Z" fill="#6D6E71" stroke="#231F20" stroke-width="0.0125215" stroke-miterlimit="10" stroke-linecap="round" stroke-linejoin="round"/>
        <path d="M80.8876 103.512L80.3271 103.862L66.4541 95.875L67.0847 95.5247L80.8876 103.512Z" fill="#6D6E71" stroke="#231F20" stroke-width="0.0125215" stroke-miterlimit="10" stroke-linecap="round" stroke-linejoin="round"/>
        <path opacity="0.2" d="M129.303 130.557V141.558L139.323 146.042L129.303 130.557Z" fill="black" stroke="#231F20" stroke-width="0.328328" stroke-miterlimit="10"/>
    </g>
    <defs>
        <clipPath id="">
            <rect width="118.061" height="95.1493" fill="white" transform="translate(51.0391 75.5559)"/>
        </clipPath>
    </defs>
</svg>
