<svg width="230" height="230" viewBox="0 0 230 230" fill="none"
    xmlns="http://www.w3.org/2000/svg">
    <g clip-path="url(#)">
        <path d="M101.066 125.863C100.646 125.723 100.226 125.513 99.8051 125.233C99.3847 124.952 98.9643 124.672 98.5439 124.392L101.066 125.863Z" fill="#F1F2F2" stroke="#231F20" stroke-width="0.201439" stroke-miterlimit="10" stroke-linecap="round" stroke-linejoin="round"/>
        <path d="M89.0146 118.927L89.435 119.137L89.0146 118.927Z" fill="#F1F2F2" stroke="#231F20" stroke-width="0.201439" stroke-miterlimit="10" stroke-linecap="round" stroke-linejoin="round"/>
        <path d="M98.4736 124.392L101.066 125.863C100.646 125.723 100.225 125.513 99.8049 125.233C99.3144 124.952 98.894 124.672 98.4736 124.392Z" fill="#F1F2F2" stroke="#231F20" stroke-width="0.201439" stroke-miterlimit="10" stroke-linecap="round" stroke-linejoin="round"/>
        <path d="M111.997 124.392C112.067 124.392 112.067 124.392 112.137 124.392C112.137 124.322 112.067 124.392 111.997 124.392Z" fill="#F1F2F2" stroke="#231F20" stroke-width="0.201439" stroke-miterlimit="10" stroke-linecap="round" stroke-linejoin="round"/>
        <path d="M150.603 156.131L148.711 157.182L150.603 156.131Z" fill="#F7F7F7" stroke="#231F20" stroke-width="0.201439" stroke-miterlimit="10" stroke-linecap="round" stroke-linejoin="round"/>
        <path d="M89.0146 118.927L89.435 119.137L89.0146 118.927Z" fill="#F1F2F2" stroke="#231F20" stroke-width="0.201439" stroke-miterlimit="10" stroke-linecap="round" stroke-linejoin="round"/>
        <path d="M98.4736 124.392L101.066 125.863C100.646 125.723 100.225 125.513 99.8049 125.233C99.3144 124.952 98.894 124.672 98.4736 124.392Z" fill="#F1F2F2" stroke="#231F20" stroke-width="0.201439" stroke-miterlimit="10" stroke-linecap="round" stroke-linejoin="round"/>
        <path d="M111.997 124.392C112.067 124.392 112.067 124.392 112.137 124.392C112.137 124.322 112.067 124.392 111.997 124.392Z" fill="#F1F2F2" stroke="#231F20" stroke-width="0.201439" stroke-miterlimit="10" stroke-linecap="round" stroke-linejoin="round"/>
        <path d="M98.4736 124.392L101.066 125.863C100.646 125.723 100.225 125.513 99.8049 125.233C99.3144 124.952 98.894 124.672 98.4736 124.392Z" fill="#F1F2F2" stroke="#231F20" stroke-width="0.201439" stroke-miterlimit="10" stroke-linecap="round" stroke-linejoin="round"/>
        <path d="M150.603 156.131L148.711 157.182L150.603 156.131Z" fill="#F7F7F7" stroke="#231F20" stroke-width="0.201439" stroke-miterlimit="10" stroke-linecap="round" stroke-linejoin="round"/>
        <path d="M150.603 156.131L148.711 157.182L150.603 156.131Z" fill="#F7F7F7" stroke="#231F20" stroke-width="0.201439" stroke-miterlimit="10" stroke-linecap="round" stroke-linejoin="round"/>
        <path d="M150.603 156.131L148.711 157.182L150.603 156.131Z" fill="#F7F7F7" stroke="#231F20" stroke-width="0.201439" stroke-miterlimit="10" stroke-linecap="round" stroke-linejoin="round"/>
        <path d="M98.4736 124.392L101.066 125.863C100.646 125.723 100.225 125.513 99.8049 125.233C99.3144 124.952 98.894 124.672 98.4736 124.392Z" fill="#F1F2F2" stroke="#231F20" stroke-width="0.201439" stroke-miterlimit="10" stroke-linecap="round" stroke-linejoin="round"/>
        <path d="M148.641 104.143L143.456 101.13L132.105 94.5437L128.252 92.3016L125.169 90.5499L113.958 84.0338L108.073 87.3269L107.512 87.6072L103.308 89.9193L100.786 91.3207L99.1745 92.2315L84.811 100.149L84.3205 100.429L82.709 101.34L80.1866 102.741L70.3774 108.207L83.1995 115.633L84.3205 116.264L86.2824 117.385L88.5945 118.716L89.085 118.997L89.5054 119.207L98.5439 124.462L101.136 125.933L107.722 129.717L119.073 123.411L124.188 120.608L124.608 120.398L130.844 116.965L132.736 115.914L135.188 114.582L137.921 113.041L138.481 112.761L139.883 111.99L151.303 105.684L148.641 104.143Z" fill="#F7F7F7" stroke="#231F20" stroke-width="0.201439" stroke-miterlimit="10" stroke-linecap="round" stroke-linejoin="round"/>
        <path d="M169.45 131.328L167.418 132.449L159.641 136.793L157.609 137.914L156.138 138.685L155.928 138.825L153.125 140.367L151.514 141.278L151.023 141.488L149.482 142.399L148.08 143.169L141.844 146.603L141.774 146.673L139.742 147.794L139.532 147.864L138.131 148.705L137.15 149.195L133.437 151.297L131.615 152.278L128.882 153.819L125.94 155.431L121.946 149.826L118.232 144.641L113.188 137.494L111.786 135.532L109.754 132.66L107.652 129.717L119.003 123.411L124.118 120.538L124.468 120.328L130.704 116.895L132.596 115.844L135.048 114.512L137.781 113.041L138.341 112.691L139.742 111.92L151.163 105.614L158.52 116.054L159.921 117.946L160.412 118.646L169.45 131.328Z" fill="#F7F7F7" stroke="#231F20" stroke-width="0.201439" stroke-miterlimit="10" stroke-linecap="round" stroke-linejoin="round"/>
        <path d="M169.45 131.328V145.762L164.476 148.494L162.163 149.756L160.061 150.947L154.807 153.819L153.055 154.8L152.915 154.87L150.603 156.132L148.711 157.183L145.698 158.864L144.437 159.565L141.564 161.176L125.939 169.794V155.431L128.882 153.819L131.615 152.278L133.436 151.297L137.15 149.195L138.131 148.705L139.532 147.864L139.742 147.794L141.774 146.673L141.844 146.603L148.08 143.169L149.482 142.399L151.023 141.488L151.513 141.278L153.125 140.367L155.928 138.825L156.138 138.685L157.609 137.914L159.641 136.793L167.418 132.449L169.45 131.328Z" fill="#F7F7F7" stroke="#231F20" stroke-width="0.201439" stroke-miterlimit="10" stroke-linecap="round" stroke-linejoin="round"/>
        <path d="M169.451 145.762L164.896 152.838L164.406 153.609C163.985 154.38 163.425 155.01 162.794 155.501L161.883 155.991L161.043 156.482L158.52 157.883L152.074 161.456L149.832 162.718L146.749 164.399L121.175 178.552L125.94 169.864L141.564 161.176L144.437 159.565L145.698 158.864L148.711 157.182L150.603 156.131L152.915 154.87L153.055 154.8L154.807 153.819L160.062 150.877L162.164 149.755L164.476 148.424L169.451 145.762Z" fill="#F7F7F7" stroke="#231F20" stroke-width="0.201439" stroke-miterlimit="10" stroke-linecap="round" stroke-linejoin="round"/>
        <path d="M113.818 84.0338L107.933 87.3269L107.372 87.6072L103.168 89.9193L100.646 91.3207L99.0345 92.2315L84.8111 100.149L84.3207 100.429L82.7092 101.34L80.1868 102.741L70.3776 108.207L49.2878 110.729C49.1477 110.729 49.0075 110.729 48.9375 110.799C48.7973 110.799 48.7273 110.869 48.5871 110.869C48.5171 110.869 48.447 110.869 48.3769 110.939C48.1667 110.939 47.8865 110.939 47.6763 110.939L82.2187 91.8111L89.3654 87.8874H89.4355C90.4164 87.2568 91.6075 86.9065 92.8687 86.6963L95.4611 86.346L101.627 85.5753L112.277 84.244L113.818 84.0338Z" fill="#F1F2F2" stroke="#231F20" stroke-width="0.201439" stroke-miterlimit="10" stroke-linecap="round" stroke-linejoin="round"/>
        <path d="M139.953 130.137C139.182 129.857 138.201 129.927 137.22 130.558C136.94 130.698 136.66 130.908 136.379 131.118C136.309 131.188 136.239 131.258 136.169 131.258C136.029 131.398 135.889 131.468 135.749 131.609C135.679 131.679 135.679 131.679 135.609 131.749C135.538 131.819 135.538 131.819 135.468 131.889C135.188 132.239 134.838 132.589 134.628 133.01C134.558 133.08 134.487 133.15 134.487 133.29C134.417 133.43 134.277 133.57 134.207 133.781C134.207 133.851 134.137 133.851 134.137 133.921C134.067 133.991 134.067 134.061 133.997 134.131C133.927 134.271 133.857 134.411 133.787 134.481C133.717 134.551 133.717 134.621 133.647 134.761C133.577 134.832 133.577 134.972 133.507 135.042C133.366 135.322 133.296 135.672 133.226 135.953C133.226 136.023 133.156 136.093 133.156 136.233C133.086 136.583 133.016 136.863 133.016 137.214C133.016 137.284 133.016 137.284 133.016 137.354C133.016 137.424 133.016 137.494 133.016 137.564C133.016 137.634 133.016 137.704 133.016 137.844V145.552L141.564 140.577V132.94C141.424 131.468 140.793 130.487 139.953 130.137ZM140.303 139.806L134.067 143.45V137.844C134.137 135.883 135.468 133.5 137.15 132.519C137.5 132.309 137.851 132.169 138.131 132.169C138.481 132.099 138.832 132.099 139.112 132.239C139.742 132.519 140.163 133.22 140.233 134.271V139.806H140.303Z" fill="#F7F7F7" stroke="#231F20" stroke-width="0.201439" stroke-miterlimit="10" stroke-linecap="round" stroke-linejoin="round"/>
        <path d="M140.303 134.271V139.876L138.552 139.176V133.57C138.552 133.01 138.411 132.519 138.201 132.169C138.552 132.099 138.902 132.099 139.182 132.239C139.813 132.449 140.233 133.22 140.303 134.271Z" fill="#6D6E71" stroke="#231F20" stroke-width="0.0802954" stroke-miterlimit="10"/>
        <path d="M140.303 139.806L134.067 143.45V141.768L138.551 139.105L140.303 139.806Z" fill="#939598" stroke="#231F20" stroke-width="0.0802954" stroke-miterlimit="10"/>
        <path d="M138.551 133.57V139.176L134.067 141.838V137.914C134.137 135.952 135.468 133.57 137.15 132.589C137.5 132.379 137.85 132.239 138.131 132.239C138.411 132.519 138.551 133.01 138.551 133.57Z" fill="#939598" stroke="#231F20" stroke-width="0.0802954" stroke-miterlimit="10"/>
        <path d="M139.883 130.137C139.112 129.857 138.201 129.997 137.15 130.558C136.87 130.698 136.59 130.908 136.309 131.118C136.239 131.188 136.169 131.258 136.099 131.258C135.959 131.398 135.819 131.468 135.679 131.609C135.609 131.679 135.609 131.679 135.539 131.749C135.469 131.819 135.469 131.819 135.399 131.889C135.118 132.239 134.768 132.589 134.558 133.01C134.488 133.08 134.418 133.22 134.418 133.29C134.348 133.43 134.207 133.57 134.137 133.781C134.137 133.851 134.067 133.851 134.067 133.921C133.997 133.991 133.997 134.061 133.927 134.131C133.857 134.271 133.787 134.411 133.717 134.481C133.647 134.551 133.647 134.621 133.577 134.761C133.507 134.832 133.507 134.972 133.437 135.042C133.297 135.322 133.226 135.672 133.156 135.953C133.156 136.023 133.086 136.093 133.086 136.233C133.016 136.583 132.946 136.863 132.946 137.214C132.946 137.284 132.946 137.284 132.946 137.354C132.946 137.424 132.946 137.494 132.946 137.564C132.946 137.634 132.946 137.704 132.946 137.844V145.552L128.672 138.895L124.468 132.379C124.959 129.997 126.64 127.545 128.602 126.424C129.793 125.723 130.844 125.653 131.615 126.143L139.883 130.137Z" fill="#F7F7F7" stroke="#231F20" stroke-width="0.201439" stroke-miterlimit="10" stroke-linecap="round" stroke-linejoin="round"/>
        <path opacity="0.14" d="M133.997 134.061C133.997 134.131 133.927 134.131 133.927 134.201C133.857 134.341 133.787 134.481 133.717 134.551C133.647 134.621 133.647 134.691 133.577 134.831C133.507 134.901 133.507 135.042 133.437 135.112C133.297 135.392 133.226 135.742 133.156 136.023C133.156 136.093 133.086 136.163 133.086 136.303C133.016 136.653 132.946 136.933 132.946 137.284C132.946 137.354 132.946 137.354 132.946 137.424C132.946 137.494 132.946 137.564 132.946 137.634C132.946 137.704 132.946 137.774 132.946 137.914V145.622L128.672 138.965L124.468 132.449C124.749 131.118 125.449 129.717 126.29 128.526L133.997 134.061Z" fill="black" stroke="#231F20" stroke-width="0.201439" stroke-miterlimit="10"/>
        <path d="M156.208 121.449C155.437 121.169 154.456 121.239 153.475 121.869C153.195 122.01 152.915 122.22 152.635 122.43C152.565 122.5 152.495 122.57 152.424 122.57C152.284 122.71 152.144 122.78 152.004 122.92C151.934 122.99 151.934 122.99 151.864 123.061C151.794 123.131 151.794 123.131 151.724 123.201C151.444 123.551 151.093 123.901 150.883 124.322C150.813 124.392 150.743 124.462 150.743 124.602C150.673 124.742 150.533 124.882 150.463 125.092C150.463 125.163 150.393 125.163 150.393 125.233C150.322 125.303 150.322 125.373 150.252 125.443C150.182 125.583 150.112 125.723 150.042 125.793C149.972 125.863 149.972 125.933 149.902 126.073C149.832 126.143 149.832 126.284 149.762 126.354C149.622 126.634 149.552 126.984 149.482 127.264C149.482 127.335 149.412 127.405 149.412 127.545C149.342 127.895 149.271 128.175 149.271 128.526C149.271 128.596 149.271 128.596 149.271 128.666C149.271 128.736 149.271 128.806 149.271 128.876C149.271 128.946 149.271 129.016 149.271 129.156V136.863L157.82 131.889V124.182C157.679 122.78 157.119 121.799 156.208 121.449ZM156.558 131.118L150.322 134.762V129.156C150.393 127.194 151.724 124.812 153.405 123.831C153.756 123.621 154.106 123.481 154.386 123.481C154.737 123.411 155.087 123.411 155.367 123.551C155.998 123.831 156.418 124.532 156.488 125.583V131.118H156.558Z" fill="#F7F7F7" stroke="#231F20" stroke-width="0.201439" stroke-miterlimit="10" stroke-linecap="round" stroke-linejoin="round"/>
        <path d="M156.559 125.513V131.118L154.807 130.417V124.812C154.807 124.252 154.667 123.761 154.457 123.411C154.807 123.341 155.157 123.341 155.437 123.481C156.138 123.761 156.559 124.462 156.559 125.513Z" fill="#6D6E71" stroke="#231F20" stroke-width="0.0802954" stroke-miterlimit="10"/>
        <path d="M156.558 131.118L150.322 134.761V133.01L154.806 130.417L156.558 131.118Z" fill="#939598" stroke="#231F20" stroke-width="0.0802954" stroke-miterlimit="10"/>
        <path d="M154.806 124.812V130.417L150.322 133.08V129.156C150.392 127.194 151.724 124.812 153.405 123.831C153.755 123.621 154.106 123.481 154.386 123.481C154.666 123.761 154.806 124.252 154.806 124.812Z" fill="#939598" stroke="#231F20" stroke-width="0.0802954" stroke-miterlimit="10"/>
        <path d="M156.208 121.379C155.437 121.099 154.526 121.239 153.475 121.799C153.195 121.939 152.915 122.15 152.634 122.36C152.564 122.43 152.494 122.5 152.424 122.5C152.284 122.64 152.144 122.71 152.004 122.85C151.934 122.92 151.934 122.92 151.864 122.99C151.794 123.06 151.794 123.06 151.723 123.13C151.443 123.481 151.093 123.831 150.883 124.252C150.813 124.322 150.743 124.462 150.743 124.532C150.672 124.672 150.532 124.812 150.462 125.022C150.462 125.092 150.392 125.092 150.392 125.162C150.322 125.232 150.322 125.303 150.252 125.373C150.182 125.513 150.112 125.653 150.042 125.723C149.972 125.793 149.972 125.863 149.902 126.003C149.832 126.073 149.832 126.213 149.762 126.283C149.621 126.564 149.551 126.914 149.481 127.194C149.481 127.264 149.411 127.334 149.411 127.475C149.341 127.825 149.271 128.105 149.271 128.455C149.271 128.526 149.271 128.526 149.271 128.596C149.271 128.666 149.271 128.736 149.271 128.806C149.271 128.876 149.271 128.946 149.271 129.086V136.793L144.927 130.207L140.723 123.691C141.214 121.309 142.895 118.856 144.857 117.735C146.048 117.035 147.099 116.965 147.87 117.455L156.208 121.379Z" fill="#F7F7F7" stroke="#231F20" stroke-width="0.201439" stroke-miterlimit="10" stroke-linecap="round" stroke-linejoin="round"/>
        <path opacity="0.14" d="M150.392 125.092C150.322 125.162 150.322 125.232 150.252 125.303C150.182 125.373 150.182 125.443 150.112 125.513C150.042 125.653 149.972 125.793 149.902 125.863C149.832 125.933 149.832 126.003 149.762 126.143C149.692 126.213 149.692 126.354 149.621 126.424C149.481 126.704 149.411 127.054 149.341 127.334C149.341 127.405 149.271 127.475 149.271 127.615C149.201 127.965 149.131 128.245 149.131 128.596C149.131 128.666 149.131 128.666 149.131 128.736C149.131 128.806 149.131 128.876 149.131 128.946C149.131 129.016 149.131 129.086 149.131 129.226V136.933L144.927 130.207L140.723 123.691C141.003 122.43 141.634 121.099 142.405 119.978L150.392 125.092Z" fill="black" stroke="#231F20" stroke-width="0.201439" stroke-miterlimit="10"/>
        <path d="M125.939 155.431V169.794L121.175 178.482L54.8227 135.462L47.606 124.322V110.939C47.8162 110.939 48.0964 110.939 48.3066 110.939C48.3767 110.939 48.4467 110.869 48.5168 110.869C48.6569 110.869 48.727 110.799 48.8671 110.799C49.0073 110.799 49.1474 110.729 49.2175 110.729L70.3073 108.136L83.1293 115.563L84.2504 116.194L86.2122 117.315L88.5244 118.646L89.0148 118.927L89.4352 119.207L98.4737 124.462C98.8941 124.742 99.3145 125.022 99.7349 125.303C100.155 125.583 100.576 125.793 100.996 125.933L107.582 129.717L109.684 132.659L111.716 135.532L113.117 137.564L118.162 144.641L121.876 149.826L125.939 155.431Z" fill="#F1F2F2" stroke="#231F20" stroke-width="0.201439" stroke-miterlimit="10" stroke-linecap="round" stroke-linejoin="round"/>
        <path opacity="0.14" d="M125.939 155.431V169.794L121.175 178.482L54.8227 135.462L47.606 124.322V110.939C47.8162 110.939 48.0964 110.939 48.3066 110.939C48.3767 110.939 48.4467 110.869 48.5168 110.869C48.6569 110.869 48.727 110.799 48.8671 110.799C49.0073 110.799 49.1474 110.729 49.2175 110.729L70.3073 108.136L83.1293 115.563L84.2504 116.194L86.2122 117.315L88.5244 118.646L89.0148 118.927L89.4352 119.207L98.4737 124.462C98.8941 124.742 99.3145 125.022 99.7349 125.303C100.155 125.583 100.576 125.793 100.996 125.933L107.582 129.717L109.684 132.659L111.716 135.532L113.117 137.564L118.162 144.641L121.876 149.826L125.939 155.431Z" fill="black" stroke="#231F20" stroke-width="0.201439" stroke-miterlimit="10"/>
        <path d="M169.451 145.762L164.896 152.838L164.406 153.609C163.985 154.38 163.425 155.01 162.794 155.501L161.883 155.991L161.043 156.482L158.52 157.883L152.074 161.456L149.832 162.718L146.749 164.399L121.175 178.552L125.94 169.864L141.564 161.176L144.437 159.565L145.698 158.864L148.711 157.182L150.603 156.131L152.915 154.87L153.055 154.8L154.807 153.819L160.062 150.877L162.164 149.755L164.476 148.424L169.451 145.762Z" fill="#F7F7F7" stroke="#231F20" stroke-width="0.201439" stroke-miterlimit="10" stroke-linecap="round" stroke-linejoin="round"/>
        <path opacity="0.2" d="M169.451 145.762L164.896 152.838L164.406 153.609C163.985 154.38 163.425 155.01 162.794 155.501L161.883 155.991L161.043 156.482L158.52 157.883L152.074 161.456L149.832 162.718L146.749 164.399L121.175 178.552L125.94 169.864L141.564 161.176L144.437 159.565L145.698 158.864L148.711 157.182L150.603 156.131L152.915 154.87L153.055 154.8L154.807 153.819L160.062 150.877L162.164 149.755L164.476 148.424L169.451 145.762Z" fill="black" stroke="#231F20" stroke-width="0.0802954" stroke-miterlimit="10"/>
        <path opacity="0.2" d="M70.6576 105.544L66.2435 107.296L54.9629 108.627L62.8103 104.353L70.6576 105.544Z" fill="black" stroke="#231F20" stroke-width="0.0802954" stroke-miterlimit="10"/>
        <path d="M70.6576 105.544L60.8484 100.149C60.7783 100.079 60.9184 100.219 60.8484 100.149L84.2503 87.0466L95.3908 92.0213L70.6576 105.544Z" fill="#F1F2F2" stroke="#231F20" stroke-width="0.201439" stroke-miterlimit="10" stroke-linecap="round" stroke-linejoin="round"/>
        <path d="M70.6574 105.544L60.8481 106.875V100.149L70.6574 105.544Z" fill="#F1F2F2" stroke="#231F20" stroke-width="0.201439" stroke-miterlimit="10" stroke-linecap="round" stroke-linejoin="round"/>
        <path opacity="0.14" d="M70.6574 105.544L60.8481 106.875V100.149L70.6574 105.544Z" fill="black" stroke="#231F20" stroke-width="0.201439" stroke-miterlimit="10"/>
        <path opacity="0.2" d="M132.876 145.552L128.812 144.781L122.506 134.762L124.398 132.379L132.876 145.552Z" fill="black" stroke="#231F20" stroke-width="0.0802954" stroke-miterlimit="10"/>
        <path opacity="0.2" d="M149.202 136.863L145.068 136.093L138.832 126.003L140.724 123.691L149.202 136.863Z" fill="black" stroke="#231F20" stroke-width="0.0802954" stroke-miterlimit="10"/>
    </g>
    <defs>
        <clipPath id="">
            <rect width="121.984" height="94.7289" fill="white" transform="translate(47.5361 83.9639)"/>
        </clipPath>
    </defs>
</svg>
