<svg width="230" height="230" viewBox="0 0 230 230" fill="none"
    xmlns="http://www.w3.org/2000/svg">
    <g clip-path="url(#)">
        <path d="M95.9521 163.138C95.8821 163.068 95.7419 163.068 95.6719 162.998C95.7419 162.998 95.7419 163.068 95.812 163.068C95.8821 163.068 95.8821 163.068 95.9521 163.138Z" fill="#F1F2F2" stroke="#231F20" stroke-width="0.201439" stroke-miterlimit="10" stroke-linecap="round" stroke-linejoin="round"/>
        <path d="M125.73 154.17L125.66 154.1L121.806 149.125L117.112 143.099L106.322 129.366L105.971 129.156L102.678 127.264L71.1488 109.047L53.9126 113.391V127.755L58.7471 136.443L122.647 183.177L129.373 172.036V158.794L125.73 154.17ZM95.6718 162.998C95.7419 162.998 95.7419 163.068 95.8119 163.068C95.882 163.068 95.882 163.138 95.9521 163.138C95.882 163.068 95.7419 162.998 95.6718 162.998Z" fill="#F1F2F2" stroke="#231F20" stroke-width="0.201439" stroke-miterlimit="10" stroke-linecap="round" stroke-linejoin="round"/>
        <path opacity="0.14" d="M125.73 154.17L125.66 154.1L121.806 149.125L117.112 143.099L106.322 129.366L105.971 129.156L102.678 127.264L71.1488 109.047L53.9126 113.391V127.755L58.7471 136.443L122.647 183.177L129.373 172.036V158.794L125.73 154.17ZM95.6718 162.998C95.7419 162.998 95.7419 163.068 95.8119 163.068C95.882 163.068 95.882 163.138 95.9521 163.138C95.882 163.068 95.7419 162.998 95.6718 162.998Z" fill="black" stroke="#231F20" stroke-width="0.0802954" stroke-miterlimit="10"/>
        <path d="M172.533 134.551L129.653 158.584L129.373 158.724L125.73 154.1L106.321 129.366L107.793 128.526L108.143 128.315L110.035 127.264L110.525 126.984L113.118 125.583L118.022 122.85L120.405 121.519L123.137 119.977L126.29 118.226L131.825 115.143L132.666 114.652L133.857 114.022L135.329 113.251L137.01 112.34L138.341 111.64L144.507 108.206L149.972 105.194L150.112 105.334L152.144 107.926L161.813 120.258L163.425 122.29L165.877 125.443L169.871 130.557C170.642 131.538 171.342 132.519 171.973 133.57C172.043 133.851 172.323 134.201 172.533 134.551Z" fill="#F7F7F7" stroke="#231F20" stroke-width="0.201439" stroke-miterlimit="10" stroke-linecap="round" stroke-linejoin="round"/>
        <path d="M125.73 154.17L125.659 154.1L121.806 149.125L117.111 143.099L106.321 129.366L125.73 154.17Z" fill="#F1F2F2" stroke="#231F20" stroke-width="0.201439" stroke-miterlimit="10" stroke-linecap="round" stroke-linejoin="round"/>
        <path d="M138.762 98.6776L128.672 92.8621L128.532 92.7921L114.659 84.7345C114.379 84.8746 106.462 89.569 97.4231 94.824C85.582 101.69 71.9192 109.398 71.1484 108.977L102.678 127.194L105.971 129.086L106.321 129.296L107.793 128.456L108.143 128.245L110.035 127.194L110.525 126.914L113.118 125.513L118.022 122.78L120.405 121.449L123.137 119.908L126.29 118.156L131.825 115.073L132.666 114.583L133.857 113.952L135.329 113.181L137.01 112.27L138.341 111.57L144.507 108.136L149.972 105.124L138.762 98.6776Z" fill="#F1F2F2" stroke="#231F20" stroke-width="0.201439" stroke-miterlimit="10" stroke-linecap="round" stroke-linejoin="round"/>
        <path d="M114.66 84.7345C114.379 84.8746 106.462 89.569 97.4234 94.824C85.5823 101.69 71.9195 109.398 71.1488 108.977L53.9126 113.391L97.4234 89.1486L114.66 84.7345Z" fill="#F1F2F2" stroke="#231F20" stroke-width="0.201439" stroke-miterlimit="10" stroke-linecap="round" stroke-linejoin="round"/>
        <path d="M136.169 138.055L136.239 150.947C138.341 149.685 162.374 136.863 162.374 136.863L162.304 125.022L136.169 138.055ZM159.782 135.042C159.782 135.042 144.297 143.31 139.042 146.182L138.972 140.577L155.438 131.959L159.782 129.717V135.042Z" fill="#F1F2F2" stroke="#231F20" stroke-width="0.201439" stroke-miterlimit="10" stroke-linecap="round" stroke-linejoin="round"/>
        <path d="M159.781 135.042C159.781 135.042 144.297 143.31 139.042 146.182V141.558L155.437 132.8L159.781 135.042Z" fill="#939598" stroke="#231F20" stroke-width="0.0802954" stroke-miterlimit="10"/>
        <path d="M159.711 129.647L159.781 135.042L155.437 132.8V131.959L159.711 129.647Z" fill="#4F4C4D" stroke="#231F20" stroke-width="0.0802954" stroke-miterlimit="10"/>
        <path d="M155.438 131.959V132.8L138.972 141.558V140.577L155.438 131.959Z" fill="#231F20" stroke="#231F20" stroke-width="0.0802954" stroke-miterlimit="10" stroke-linecap="round" stroke-linejoin="round"/>
        <path d="M136.169 138.055V137.774L120.264 128.105C120.194 128.035 120.124 127.965 120.054 127.895L144.017 115.073L162.304 125.022L136.169 138.055Z" fill="#F1F2F2" stroke="#231F20" stroke-width="0.201439" stroke-miterlimit="10" stroke-linecap="round" stroke-linejoin="round"/>
        <path d="M136.17 137.774L136.24 150.947C136.24 150.947 124.609 133.22 120.265 128.105L136.17 137.774Z" fill="#F1F2F2" stroke="#231F20" stroke-width="0.201439" stroke-miterlimit="10" stroke-linecap="round" stroke-linejoin="round"/>
        <path opacity="0.14" d="M136.17 137.774L136.24 150.947C136.24 150.947 124.609 133.22 120.265 128.105L136.17 137.774Z" fill="black" stroke="#231F20" stroke-width="0.0802954" stroke-miterlimit="10"/>
        <path d="M79.697 100.079C79.697 100.009 79.697 100.009 79.697 100.079C78.9963 99.7986 78.2256 99.9388 77.3148 100.429C77.0345 100.569 76.8243 100.78 76.544 100.92C76.474 100.99 76.4039 100.99 76.3338 101.06C76.1937 101.13 76.1236 101.27 75.9835 101.34C75.9134 101.41 75.9134 101.41 75.8434 101.48C75.7733 101.55 75.7733 101.55 75.7032 101.62C75.423 101.901 75.1427 102.251 74.9325 102.601C74.8625 102.671 74.8625 102.741 74.7924 102.811C74.7223 102.952 74.6523 103.092 74.5121 103.232C74.5121 103.302 74.4421 103.302 74.4421 103.372C74.372 103.442 74.372 103.512 74.372 103.582C74.3019 103.722 74.2319 103.792 74.2319 103.933C74.1618 104.003 74.1618 104.073 74.1618 104.143C74.2319 104.213 74.1618 104.283 74.1618 104.353C74.0217 104.633 73.9516 104.913 73.8815 105.124C73.8815 105.194 73.8115 105.264 73.8115 105.334C73.8115 105.474 73.7414 105.544 73.7414 105.684C73.7414 105.684 73.7414 105.684 73.6713 105.684L65.7539 108.207V101.48C65.7539 101.41 65.7539 101.34 65.7539 101.27C65.7539 101.2 65.7539 101.13 65.7539 101.13C65.7539 101.06 65.7539 101.06 65.7539 100.99C65.7539 100.71 65.824 100.429 65.894 100.149C65.894 100.079 65.9641 100.009 65.9641 99.9388C66.0342 99.6585 66.1042 99.3783 66.2444 99.1681C66.2444 99.098 66.3144 99.0279 66.3144 98.8878C66.3144 98.8177 66.3845 98.7477 66.3845 98.6776C66.4546 98.5375 66.5246 98.4674 66.5246 98.3273C66.5246 98.2572 66.5947 98.1871 66.5947 98.1171C66.5947 98.047 66.6648 98.047 66.6648 97.9769C66.7348 97.8368 66.8049 97.6967 66.945 97.5565C67.0151 97.4865 67.0151 97.4164 67.0852 97.3463C67.2954 96.996 67.5756 96.6457 67.8559 96.3654C67.9259 96.2954 67.9259 96.2954 67.996 96.2253C68.0661 96.1552 68.0661 96.1552 68.1361 96.0852C68.2763 95.945 68.3463 95.875 68.4865 95.8049C68.5565 95.7348 68.6266 95.6648 68.6967 95.6648C68.9069 95.4546 69.1871 95.3144 69.4674 95.1743C69.6776 95.0342 69.9579 94.894 70.168 94.824C70.2381 94.824 70.3082 94.7539 70.3782 94.7539C70.9388 94.6138 71.4292 94.6138 71.8496 94.824L72.4102 95.2444L79.697 100.079Z" fill="#F1F2F2" stroke="#231F20" stroke-width="0.201439" stroke-miterlimit="10" stroke-linecap="round" stroke-linejoin="round"/>
        <path d="M70.168 94.824C70.238 94.824 70.3081 94.7539 70.3782 94.7539C70.3081 94.7539 70.238 94.824 70.168 94.824Z" fill="#F1F2F2" stroke="#231F20" stroke-width="0.201439" stroke-miterlimit="10" stroke-linecap="round" stroke-linejoin="round"/>
        <path d="M80.958 101.76L79.7669 102.461L75.0024 105.054L73.7412 105.754C73.7412 105.614 73.8113 105.544 73.8113 105.404C73.8113 105.334 73.8813 105.264 73.8813 105.194C73.9514 104.913 74.0215 104.633 74.1616 104.423C74.1616 104.353 74.2317 104.283 74.2317 104.213C74.2317 104.143 74.3017 104.073 74.3017 104.003C74.3718 103.862 74.4419 103.792 74.4419 103.652C74.4419 103.582 74.5119 103.512 74.5119 103.442C74.5119 103.372 74.582 103.372 74.582 103.302C74.6521 103.162 74.7221 103.022 74.8623 102.881C74.9323 102.811 74.9323 102.741 75.0024 102.671C75.2126 102.321 75.4929 101.971 75.7731 101.69C75.8432 101.62 75.8432 101.62 75.9132 101.55C75.9833 101.48 75.9833 101.48 76.0534 101.41C76.1935 101.27 76.2636 101.2 76.4037 101.13C76.4738 101.06 76.5438 100.99 76.6139 100.99C76.8241 100.779 77.1044 100.639 77.3846 100.499C78.2955 100.009 79.0662 99.8686 79.6968 100.079C79.6968 100.079 79.6968 100.079 79.7669 100.079C79.8369 100.079 79.907 100.149 79.9771 100.149L80.1873 100.289C80.5376 100.639 80.8179 101.13 80.958 101.76Z" fill="#F1F2F2" stroke="#231F20" stroke-width="0.201439" stroke-miterlimit="10" stroke-linecap="round" stroke-linejoin="round"/>
        <path opacity="0.14" d="M75.0021 102.671C74.932 102.741 74.932 102.811 74.862 102.811C74.7919 102.952 74.7218 103.092 74.5817 103.232C74.5817 103.302 74.5116 103.302 74.5116 103.372C74.5116 103.442 74.4416 103.512 74.4416 103.582C74.3715 103.722 74.3715 103.792 74.3014 103.932C74.3014 104.003 74.2314 104.073 74.2314 104.143C74.2314 104.213 74.1613 104.283 74.1613 104.353C74.0212 104.633 73.9511 104.913 73.881 105.124C73.881 105.194 73.811 105.264 73.811 105.334C73.811 105.474 73.7409 105.544 73.7409 105.684C73.7409 105.684 73.7409 105.684 73.6708 105.684L65.7534 108.207V101.48C65.7534 101.41 65.7534 101.34 65.7534 101.27C65.7534 101.2 65.7534 101.2 65.7534 101.13C65.7534 101.13 65.7534 101.06 65.7534 100.99C65.7534 100.709 65.8235 100.429 65.8936 100.149C65.8936 100.079 65.8935 100.009 65.9636 99.9387C66.0337 99.6585 66.1037 99.3782 66.2439 99.168C66.2439 99.098 66.3139 99.0279 66.3139 98.8878C66.3139 98.8177 66.384 98.7476 66.384 98.6776C66.4541 98.5374 66.4541 98.4674 66.5241 98.3272C66.5241 98.2572 66.5942 98.1871 66.5942 98.117C66.5942 98.047 66.6643 98.047 66.6643 97.9769C66.7343 97.8368 66.8044 97.6966 66.9445 97.5565C66.9445 97.5565 67.0146 97.4864 67.0146 97.4164L75.0021 102.671Z" fill="black" stroke="#231F20" stroke-width="0.0802954" stroke-miterlimit="10"/>
        <path d="M70.168 94.824C70.238 94.824 70.3081 94.7539 70.3782 94.7539C70.3081 94.7539 70.238 94.824 70.168 94.824Z" fill="#F1F2F2" stroke="#231F20" stroke-width="0.201439" stroke-miterlimit="10" stroke-linecap="round" stroke-linejoin="round"/>
        <path d="M80.9577 101.76L79.7666 102.461L76.964 103.932L74.9321 105.054L73.6709 105.754C73.6709 105.614 73.741 105.544 73.741 105.404C73.741 105.334 73.811 105.264 73.811 105.194C73.8811 104.913 73.9512 104.633 74.0913 104.423C74.0913 104.353 74.1614 104.283 74.1614 104.213C74.1614 104.143 74.2314 104.073 74.2314 104.003C74.3015 103.862 74.3015 103.792 74.3716 103.652C74.3716 103.582 74.4416 103.512 74.4416 103.442C74.4416 103.372 74.5117 103.372 74.5117 103.302C74.5818 103.162 74.6518 103.022 74.792 102.881C74.862 102.811 74.862 102.741 74.9321 102.741C74.9321 102.741 74.9321 102.741 74.9321 102.671C75.1423 102.321 75.4225 101.971 75.7028 101.69C75.7028 101.62 75.7729 101.62 75.8429 101.55C75.913 101.48 75.913 101.48 75.9831 101.41C76.1232 101.34 76.1933 101.2 76.3334 101.13C76.4035 101.06 76.4735 101.06 76.4735 100.99C76.6837 100.779 76.964 100.639 77.2443 100.499C78.1551 100.009 78.9258 99.8686 79.5564 100.079C79.5564 100.079 79.5564 100.079 79.6265 100.079C79.6966 100.079 79.7666 100.149 79.8367 100.149L80.0469 100.289C80.5373 100.639 80.8176 101.13 80.9577 101.76Z" fill="#F1F2F2" stroke="#231F20" stroke-width="0.201439" stroke-miterlimit="10" stroke-linecap="round" stroke-linejoin="round"/>
        <path d="M97.4236 90.2697C96.7229 89.9894 95.9522 90.1296 95.0413 90.62C94.7611 90.7602 94.5509 90.9704 94.2706 91.1105C94.2005 91.1806 94.1305 91.1806 94.0604 91.2506C93.9203 91.3207 93.8502 91.4608 93.7101 91.5309C93.7801 91.671 93.7101 91.671 93.64 91.7411C93.5699 91.8112 93.5699 91.8112 93.4999 91.8812C93.2196 92.1615 92.9393 92.5118 92.7291 92.8621C92.6591 92.9322 92.6591 93.0023 92.589 93.0723C92.519 93.2125 92.4489 93.3526 92.3088 93.4927C92.3088 93.5628 92.2387 93.5628 92.2387 93.6329C92.1686 93.7029 92.1686 93.773 92.1686 93.8431C92.0986 93.9832 92.0285 94.0533 92.0285 94.1934C91.9584 94.2635 91.9584 94.3335 91.9584 94.4036C91.8884 94.4736 91.8884 94.5437 91.8884 94.6138C91.7482 94.894 91.6782 95.1743 91.6081 95.3845C91.6081 95.4546 91.538 95.5246 91.538 95.5947C91.538 95.7348 91.468 95.8049 91.468 95.945C91.468 95.945 91.468 95.945 91.3979 95.945L83.4805 98.3973V91.671C83.4805 91.601 83.4805 91.5309 83.4805 91.4608C83.4805 91.3908 83.4805 91.3207 83.4805 91.3207C83.4805 91.2506 83.4805 91.2506 83.4805 91.1806C83.4805 90.9003 83.5505 90.62 83.6206 90.3398C83.6206 90.2697 83.6907 90.1996 83.6907 90.1296C83.7607 89.8493 83.9009 89.569 83.9709 89.2888C83.9709 89.2187 84.041 89.1487 84.041 89.0085C84.041 88.9385 84.1111 88.8684 84.1111 88.7983C84.1811 88.6582 84.2512 88.5881 84.2512 88.448C84.2512 88.3779 84.3213 88.3079 84.3213 88.2378C84.3213 88.1677 84.3913 88.1677 84.3913 88.0977C84.4614 87.9575 84.5315 87.8174 84.6716 87.6773C84.7417 87.6072 84.7417 87.5371 84.8117 87.4671C85.0219 87.1167 85.3022 86.7664 85.5824 86.4862C85.6525 86.4161 85.6525 86.4161 85.7226 86.346C85.7926 86.276 85.7926 86.276 85.8627 86.2059C86.0028 86.0658 86.0729 85.9957 86.213 85.9256C86.2831 85.8556 86.3532 85.7855 86.4232 85.7855C86.6334 85.5753 86.9137 85.4352 87.194 85.295C87.4042 85.1549 87.6844 85.0148 87.8946 84.9447C87.9647 84.9447 88.0347 84.8746 88.1048 84.8746C88.6653 84.7345 89.1558 84.7345 89.5762 84.9447L90.1367 85.3651L97.4236 90.2697Z" fill="#F1F2F2" stroke="#231F20" stroke-width="0.201439" stroke-miterlimit="10" stroke-linecap="round" stroke-linejoin="round"/>
        <path d="M87.8945 85.0148C87.9646 85.0148 88.0347 84.9447 88.1047 84.9447C88.0347 84.9447 87.9646 85.0148 87.8945 85.0148Z" fill="#F1F2F2" stroke="#231F20" stroke-width="0.201439" stroke-miterlimit="10" stroke-linecap="round" stroke-linejoin="round"/>
        <path d="M98.6845 91.9513L97.4934 92.652L92.729 95.2444L91.4678 95.9451C91.4678 95.805 91.5378 95.7349 91.5378 95.5948C91.5378 95.5247 91.6079 95.4546 91.6079 95.3846C91.678 95.1043 91.748 94.824 91.8882 94.6138C91.8882 94.5438 91.9582 94.4737 91.9582 94.4036C91.9582 94.3336 92.0283 94.2635 92.0283 94.1934C92.0984 94.0533 92.1684 93.9832 92.1684 93.8431C92.1684 93.773 92.2385 93.703 92.2385 93.6329C92.2385 93.5629 92.3086 93.5629 92.3086 93.4928C92.3786 93.3527 92.4487 93.2125 92.5888 93.0724C92.6589 93.0023 92.6589 92.9323 92.729 92.8622C92.9392 92.5119 93.2194 92.1615 93.4997 91.8813C93.5697 91.8112 93.5697 91.8112 93.6398 91.7411C93.7099 91.6711 93.7799 91.6711 93.7799 91.601C93.9201 91.4609 93.9901 91.3908 94.1303 91.3207C94.2003 91.2507 94.2704 91.1806 94.3405 91.1806C94.5507 90.9704 94.8309 90.8303 95.1112 90.6902C96.022 90.1997 96.7928 90.0596 97.4234 90.2698H97.4934C97.5635 90.2698 97.6336 90.3398 97.7036 90.3398L97.9138 90.48C98.2642 90.8303 98.5444 91.3207 98.6845 91.9513Z" fill="#F1F2F2" stroke="#231F20" stroke-width="0.201439" stroke-miterlimit="10" stroke-linecap="round" stroke-linejoin="round"/>
        <path opacity="0.14" d="M93.0795 92.3716C92.9393 92.5118 92.8693 92.6519 92.7291 92.792C92.6591 92.8621 92.6591 92.9322 92.589 93.0022C92.519 93.1424 92.4489 93.2825 92.3088 93.4226C92.3088 93.4927 92.2387 93.4927 92.2387 93.5628C92.2387 93.6328 92.1686 93.7029 92.1686 93.773C92.0986 93.9131 92.0986 93.9832 92.0285 94.1233C92.0285 94.1934 91.9584 94.2634 91.9584 94.3335C91.9584 94.4036 91.8884 94.4736 91.8884 94.5437C91.7482 94.8239 91.6782 95.1042 91.6081 95.3144C91.6081 95.3845 91.538 95.4545 91.538 95.5246C91.538 95.6647 91.468 95.7348 91.468 95.8749C91.468 95.8749 91.468 95.8749 91.3979 95.8749L83.4805 98.3272V91.671C83.4805 91.6009 83.4805 91.5309 83.4805 91.4608C83.4805 91.3907 83.4805 91.3907 83.4805 91.3207C83.4805 91.3207 83.4805 91.2506 83.4805 91.1805C83.4805 90.9003 83.5505 90.62 83.6206 90.3397C83.6206 90.2697 83.6206 90.1996 83.6907 90.1295C83.7607 89.8493 83.9009 89.569 83.9709 89.2888C83.9709 89.2187 84.041 89.1486 84.041 89.0085C84.041 88.9384 84.1111 88.8684 84.1111 88.7983C84.1811 88.6582 84.1811 88.5881 84.2512 88.448C84.2512 88.3779 84.3213 88.3078 84.3213 88.2378C84.3213 88.1677 84.3913 88.1677 84.3913 88.0976C84.4614 87.9575 84.5315 87.8174 84.6716 87.6772C84.6716 87.6072 84.7417 87.6072 84.7417 87.5371L93.0795 92.3716Z" fill="black" stroke="#231F20" stroke-width="0.0802954" stroke-miterlimit="10"/>
        <path d="M87.894 85.0148C87.9641 85.0148 88.0342 84.9447 88.1042 84.9447C88.0342 84.9447 87.9641 85.0148 87.894 85.0148Z" fill="#F1F2F2" stroke="#231F20" stroke-width="0.201439" stroke-miterlimit="10" stroke-linecap="round" stroke-linejoin="round"/>
        <path d="M98.6845 91.9513L97.4934 92.652L95.4615 93.773L92.729 95.3145L91.4678 96.0152C91.4678 95.875 91.5378 95.805 91.5378 95.6648C91.5378 95.5948 91.6079 95.5247 91.6079 95.4546C91.678 95.1744 91.748 94.8941 91.8882 94.6839C91.8882 94.6138 91.9582 94.5438 91.9582 94.4737C91.9582 94.4036 92.0283 94.3336 92.0283 94.2635C92.0984 94.1234 92.0984 94.0533 92.1684 93.9132C92.1684 93.8431 92.2385 93.773 92.2385 93.703C92.2385 93.6329 92.3086 93.6329 92.3086 93.5629C92.3786 93.4227 92.4487 93.2826 92.5888 93.1425C92.6589 93.0724 92.6589 93.0023 92.729 92.9323C92.799 92.7921 92.9392 92.652 93.0793 92.5119C93.2194 92.3017 93.3595 92.1615 93.4997 91.9513C93.4997 91.8813 93.5697 91.8813 93.6398 91.8112C93.7099 91.6711 93.7799 91.6711 93.7799 91.601C93.9201 91.5309 93.9901 91.3908 94.1303 91.3207C94.2003 91.2507 94.2704 91.2507 94.2704 91.1806C94.4806 90.9704 94.7609 90.8303 95.0411 90.6902C95.952 90.1997 96.7227 90.0596 97.3533 90.2698C97.3533 90.2698 97.3533 90.2698 97.4234 90.2698C97.4934 90.2698 97.5635 90.3398 97.6336 90.3398L97.8438 90.48C98.2642 90.8303 98.5444 91.3207 98.6845 91.9513Z" fill="#F1F2F2" stroke="#231F20" stroke-width="0.201439" stroke-miterlimit="10" stroke-linecap="round" stroke-linejoin="round"/>
        <path opacity="0.14" d="M80.9577 101.76L79.7666 102.461L76.964 103.932L74.9321 105.054L73.6709 105.754C73.6709 105.614 73.741 105.544 73.741 105.404C73.741 105.334 73.811 105.264 73.811 105.194C73.8811 104.913 73.9512 104.633 74.0913 104.423C74.0913 104.353 74.1614 104.283 74.1614 104.213C74.1614 104.143 74.2314 104.073 74.2314 104.003C74.3015 103.862 74.3015 103.792 74.3716 103.652C74.3716 103.582 74.4416 103.512 74.4416 103.442C74.4416 103.372 74.5117 103.372 74.5117 103.302C74.5818 103.162 74.6518 103.022 74.792 102.881C74.862 102.811 74.862 102.741 74.9321 102.741C74.9321 102.741 74.9321 102.741 74.9321 102.671C75.1423 102.321 75.4225 101.971 75.7028 101.69C75.7028 101.62 75.7729 101.62 75.8429 101.55C75.913 101.48 75.913 101.48 75.9831 101.41C76.1232 101.34 76.1933 101.2 76.3334 101.13C76.4035 101.06 76.4735 101.06 76.4735 100.99C76.6837 100.779 76.964 100.639 77.2443 100.499C78.1551 100.009 78.9258 99.8686 79.5564 100.079C79.5564 100.079 79.5564 100.079 79.6265 100.079C79.6966 100.079 79.7666 100.149 79.8367 100.149L80.0469 100.289C80.5373 100.639 80.8176 101.13 80.9577 101.76Z" fill="black" stroke="#231F20" stroke-width="0.0802954" stroke-miterlimit="10"/>
        <path opacity="0.14" d="M98.6845 91.9513L97.4934 92.652L95.4615 93.773L92.729 95.3145L91.4678 96.0152C91.4678 95.875 91.5378 95.805 91.5378 95.6648C91.5378 95.5948 91.6079 95.5247 91.6079 95.4546C91.678 95.1744 91.748 94.8941 91.8882 94.6839C91.8882 94.6138 91.9582 94.5438 91.9582 94.4737C91.9582 94.4036 92.0283 94.3336 92.0283 94.2635C92.0984 94.1234 92.0984 94.0533 92.1684 93.9132C92.1684 93.8431 92.2385 93.773 92.2385 93.703C92.2385 93.6329 92.3086 93.6329 92.3086 93.5629C92.3786 93.4227 92.4487 93.2826 92.5888 93.1425C92.6589 93.0724 92.6589 93.0023 92.729 92.9323C92.799 92.7921 92.9392 92.652 93.0793 92.5119C93.2194 92.3017 93.3595 92.1615 93.4997 91.9513C93.4997 91.8813 93.5697 91.8813 93.6398 91.8112C93.7099 91.6711 93.7799 91.6711 93.7799 91.601C93.9201 91.5309 93.9901 91.3908 94.1303 91.3207C94.2003 91.2507 94.2704 91.2507 94.2704 91.1806C94.4806 90.9704 94.7609 90.8303 95.0411 90.6902C95.952 90.1997 96.7227 90.0596 97.3533 90.2698C97.3533 90.2698 97.3533 90.2698 97.4234 90.2698C97.4934 90.2698 97.5635 90.3398 97.6336 90.3398L97.8438 90.48C98.2642 90.8303 98.5444 91.3207 98.6845 91.9513Z" fill="black" stroke="#231F20" stroke-width="0.0802954" stroke-miterlimit="10"/>
        <path d="M172.534 134.551V147.794L135.679 168.533L129.373 172.036V158.794L129.653 158.584L172.534 134.551Z" fill="#F7F7F7" stroke="#231F20" stroke-width="0.201439" stroke-miterlimit="10" stroke-linecap="round" stroke-linejoin="round"/>
        <path d="M172.534 147.794V147.864L165.457 159.144L137.991 174.559L122.647 183.177L129.373 172.036L135.679 168.533L172.534 147.794Z" fill="#F7F7F7" stroke="#231F20" stroke-width="0.201439" stroke-miterlimit="10" stroke-linecap="round" stroke-linejoin="round"/>
        <path d="M172.534 147.794V147.864L165.457 159.144L137.991 174.559L122.647 183.177L129.373 172.036L135.679 168.533L172.534 147.794Z" fill="#F7F7F7" stroke="#231F20" stroke-width="0.201439" stroke-miterlimit="10" stroke-linecap="round" stroke-linejoin="round"/>
        <path opacity="0.2" d="M172.534 147.794V147.864L165.457 159.144L137.991 174.559L122.647 183.177L129.373 172.036L135.679 168.533L172.534 147.794Z" fill="black" stroke="#231F20" stroke-width="0.0802954" stroke-miterlimit="10"/>
        <path opacity="0.2" d="M136.239 150.947L129.373 149.896L118.373 132.8L120.264 128.105L136.239 150.947Z" fill="black" stroke="#231F20" stroke-width="0.0802954" stroke-miterlimit="10"/>
    </g>
    <defs>
        <clipPath id="">
            <rect width="118.761" height="98.6526" fill="white" transform="translate(53.8418 84.6644)"/>
        </clipPath>
    </defs>
</svg>
