<svg width="230" height="230" viewBox="0 0 230 230" fill="none"
    xmlns="http://www.w3.org/2000/svg">
    <g clip-path="url(#)">
        <path d="M181.197 137.515L139.812 162.242L133.381 152.43L143.822 146.307L162.207 135.474L176.052 127.311L181.197 137.515Z" fill="#F9FAFA" stroke="#231F20" stroke-width="0.201439" stroke-miterlimit="10" stroke-linecap="round" stroke-linejoin="round"/>
        <path d="M181.197 137.516V151.959L139.812 177.785V162.242L181.197 137.516Z" fill="#F1F2F2" stroke="#231F20" stroke-width="0.201439" stroke-miterlimit="10" stroke-linecap="round" stroke-linejoin="round"/>
        <path d="M176.052 127.311L162.131 135.474L143.822 146.307L133.381 152.43L130.658 150.782L116.207 141.911C116.358 141.911 120.519 139.556 126.421 136.102L101.832 121.345L89.878 114.123L84.6577 117.184L80.0425 119.932L66.5754 111.689L77.1675 105.645L76.9406 105.488L72.7794 102.976L62.9438 96.4607L82.9932 85.157L92.9044 91.7508L93.207 91.9863L96.4603 94.1058L109.398 86.57L119.309 92.6143L122.941 94.8123L113.256 100.464L123.092 106.509L125.135 107.764L149.345 122.758C152.825 120.717 156.23 118.676 159.256 116.949L176.052 127.311Z" fill="#F1F2F2" stroke="#231F20" stroke-width="0.201439" stroke-miterlimit="10" stroke-linecap="round" stroke-linejoin="round"/>
        <path d="M77.1678 105.645L66.5757 111.69L50.6875 117.655L62.9441 110.591L76.9408 105.567L77.1678 105.645Z" fill="#F1F2F2" stroke="#231F20" stroke-width="0.201439" stroke-miterlimit="10" stroke-linecap="round" stroke-linejoin="round"/>
        <path d="M109.398 86.5701L96.4603 94.1059L93.207 91.9865L109.398 86.5701Z" fill="#F1F2F2" stroke="#231F20" stroke-width="0.201439" stroke-miterlimit="10" stroke-linecap="round" stroke-linejoin="round"/>
        <path d="M76.9406 105.567L62.9438 110.591V96.4608L72.7794 103.055L76.9406 105.567Z" fill="#F1F2F2" stroke="#231F20" stroke-width="0.201439" stroke-miterlimit="10" stroke-linecap="round" stroke-linejoin="round"/>
        <path d="M139.812 162.242V177.785L99.7138 181.631L50.6875 137.515V117.655L66.5757 111.689L80.0428 119.932V134.061L80.1184 134.14L116.207 155.727V141.911L130.658 150.782L133.382 152.43L139.812 162.242Z" fill="#F1F2F2" stroke="#231F20" stroke-width="0.201439" stroke-miterlimit="10" stroke-linecap="round" stroke-linejoin="round"/>
        <path opacity="0.14" d="M139.812 162.242V177.785L99.7138 181.631L50.6875 137.515V117.655L66.5757 111.689L80.0428 119.932V134.061L80.1184 134.14L116.207 155.727V141.911L130.658 150.782L133.382 152.43L139.812 162.242Z" fill="black" stroke="#231F20" stroke-width="0.0802954" stroke-miterlimit="10"/>
        <path d="M76.9406 105.567L62.9438 110.591V96.4608L72.7794 103.055L76.9406 105.567Z" fill="#F1F2F2" stroke="#231F20" stroke-width="0.201439" stroke-miterlimit="10" stroke-linecap="round" stroke-linejoin="round"/>
        <path opacity="0.14" d="M76.9406 105.567L62.9438 110.591V96.4608L72.7794 103.055L76.9406 105.567Z" fill="black" stroke="#231F20" stroke-width="0.0802954" stroke-miterlimit="10"/>
        <path d="M116.207 144.502V155.727L80.1182 134.14L89.878 128.41L116.207 144.502Z" fill="#F1F2F2" stroke="#231F20" stroke-width="0.201439" stroke-miterlimit="10" stroke-linecap="round" stroke-linejoin="round"/>
        <path d="M89.878 114.201V128.41L80.1181 134.14L80.0425 134.061V119.932L84.6576 117.184L89.878 114.201Z" fill="#F1F2F2" stroke="#231F20" stroke-width="0.201439" stroke-miterlimit="10" stroke-linecap="round" stroke-linejoin="round"/>
        <path d="M126.346 136.102C120.444 139.556 116.359 141.911 116.132 141.911V144.502L89.8784 128.41V114.201L101.832 121.423L126.346 136.102Z" fill="#F1F2F2" stroke="#231F20" stroke-width="0.201439" stroke-miterlimit="10" stroke-linecap="round" stroke-linejoin="round"/>
        <path d="M123.017 94.8909V106.509L113.181 100.464L122.865 94.8124L123.017 94.8909Z" fill="#F1F2F2" stroke="#231F20" stroke-width="0.201439" stroke-miterlimit="10" stroke-linecap="round" stroke-linejoin="round"/>
        <path d="M123.017 94.7339V94.8909L122.865 94.8124L123.017 94.7339Z" fill="#F1F2F2" stroke="#231F20" stroke-width="0.201439" stroke-miterlimit="10" stroke-linecap="round" stroke-linejoin="round"/>
        <path opacity="0.14" d="M89.878 114.201L85.6411 130.843L116.207 149.997V141.911L126.345 136.102L89.878 114.201Z" fill="black" stroke="#231F20" stroke-width="0.0802954" stroke-miterlimit="10"/>
        <path opacity="0.2" d="M154.793 166.324C154.793 166.324 147.53 169.386 147.53 163.42C147.53 157.532 147.53 157.611 147.53 157.611L151.994 154.942L154.793 166.324Z" fill="black" stroke="#231F20" stroke-width="0.0802954" stroke-miterlimit="10"/>
        <path opacity="0.2" d="M168.714 157.297C168.714 157.297 161.224 160.515 161.224 154.55C161.224 148.584 161.224 149.447 161.224 149.447L166.293 146.386L168.714 157.297Z" fill="black" stroke="#231F20" stroke-width="0.0802954" stroke-miterlimit="10"/>
        <path d="M173.556 136.966C173.481 136.966 173.481 137.045 173.405 137.123C173.329 137.123 173.329 137.202 173.254 137.202C171.211 138.85 169.773 142.225 170 144.894C170.152 146.15 170.606 147.014 171.287 147.406V155.256C171.287 155.806 170.908 156.355 170.227 156.826C168.79 157.69 166.444 157.69 165.007 156.826C164.326 156.434 163.948 155.884 163.948 155.256V144.502C163.948 134.768 169.698 135.396 173.556 136.966Z" fill="url(#paint0_linear_1_19911)" stroke="#231F20" stroke-width="0.190369" stroke-miterlimit="10" stroke-linecap="round" stroke-linejoin="round"/>
        <path opacity="0.2" d="M167.277 156.748C167.655 156.983 168.185 157.14 168.714 157.297C167.428 157.533 165.99 157.376 164.931 156.748C164.25 156.355 163.872 155.806 163.872 155.178V144.502C163.948 136.966 167.428 135.632 170.757 136.181C168.336 136.652 166.293 138.771 166.217 144.502V155.178C166.217 155.806 166.596 156.355 167.277 156.748Z" fill="black" stroke="#231F20" stroke-width="0.201439" stroke-miterlimit="10"/>
        <path d="M180.139 140.184C179.987 138.771 179.382 137.83 178.55 137.516C178.323 137.437 178.02 137.359 177.793 137.359C177.717 137.359 177.717 137.359 177.642 137.359C177.566 137.359 177.566 137.359 177.491 137.359C177.415 137.359 177.339 137.359 177.339 137.359C177.264 137.359 177.264 137.359 177.188 137.359C177.112 137.359 177.112 137.359 177.037 137.437C176.81 137.516 176.583 137.594 176.431 137.751C176.356 137.751 176.356 137.83 176.28 137.83C176.204 137.83 176.204 137.908 176.129 137.908C176.053 137.908 175.977 137.987 175.977 137.987L175.902 138.065C175.75 138.222 175.523 138.379 175.372 138.536C175.221 138.693 174.994 138.85 174.842 139.085C174.767 139.164 174.691 139.321 174.616 139.399C174.464 139.635 174.313 139.87 174.162 140.027C174.01 140.263 173.859 140.498 173.708 140.734C173.632 140.891 173.556 140.969 173.481 141.126C173.405 141.205 173.405 141.362 173.329 141.44C173.178 141.754 173.102 141.99 173.027 142.304C173.027 142.382 172.951 142.461 172.951 142.618L172.875 142.775C172.875 142.853 172.8 143.01 172.8 143.089C172.8 143.246 172.724 143.324 172.724 143.481C172.724 143.56 172.648 143.717 172.648 143.874V143.952C172.648 144.109 172.573 144.188 172.573 144.345C172.573 144.502 172.573 144.58 172.573 144.737C172.573 144.894 172.573 144.973 172.573 145.13V145.208C172.573 145.287 172.573 145.287 172.573 145.365C172.573 145.444 172.573 145.522 172.573 145.601C172.573 145.679 172.573 145.758 172.573 145.915C172.573 145.993 172.573 146.072 172.573 146.229C172.648 146.778 172.8 147.249 173.027 147.642C173.102 147.799 173.178 147.956 173.329 148.034C173.329 148.113 173.405 148.113 173.405 148.191C173.481 148.27 173.632 148.427 173.783 148.505C173.783 148.505 173.859 148.584 173.935 148.584C174.086 148.662 174.162 148.741 174.313 148.741C175.069 148.976 175.977 148.741 176.885 148.034C178.928 146.386 180.441 142.853 180.139 140.184ZM176.658 146.464C175.977 146.935 175.372 147.092 174.842 146.935C174.767 146.935 174.691 146.857 174.54 146.857C174.464 146.857 174.389 146.778 174.313 146.7C174.162 146.543 174.01 146.386 173.935 146.229C173.783 145.993 173.708 145.679 173.632 145.287C173.632 145.208 173.632 145.13 173.632 145.13C173.632 144.973 173.632 144.816 173.632 144.659C173.632 143.246 174.313 141.597 175.296 140.498C175.523 140.263 175.75 140.027 175.977 139.792C175.977 139.792 175.977 139.792 176.053 139.713C176.356 139.478 176.658 139.321 176.961 139.242C177.037 139.242 177.188 139.164 177.264 139.164C177.491 139.164 177.717 139.164 177.869 139.242C178.474 139.478 178.852 140.106 178.928 141.048C179.155 142.932 178.096 145.365 176.658 146.464Z" fill="#F1F2F2" stroke="#231F20" stroke-width="0.201439" stroke-miterlimit="10" stroke-linecap="round" stroke-linejoin="round"/>
        <path d="M176.658 146.464C175.977 146.935 175.372 147.092 174.842 146.935C174.766 146.935 174.691 146.857 174.539 146.857C174.464 146.857 174.388 146.778 174.312 146.7C174.691 146.7 175.145 146.543 175.599 146.15C177.036 145.051 178.095 142.696 177.944 140.812C177.868 140.027 177.641 139.478 177.188 139.164C177.414 139.164 177.641 139.164 177.793 139.242C178.398 139.478 178.776 140.106 178.852 141.048C179.155 142.932 178.095 145.365 176.658 146.464Z" fill="#797979" stroke="#231F20" stroke-width="0.201439" stroke-miterlimit="10" stroke-linecap="round" stroke-linejoin="round"/>
        <path d="M175.675 146.15C175.221 146.464 174.767 146.621 174.388 146.7C174.237 146.543 174.086 146.386 174.01 146.229C173.859 145.993 173.783 145.679 173.708 145.287C173.708 145.208 173.708 145.13 173.708 145.13C173.708 144.973 173.708 144.816 173.708 144.659C173.708 143.246 174.388 141.597 175.372 140.498C175.599 140.263 175.826 140.027 176.053 139.792C176.053 139.792 176.053 139.792 176.129 139.713C176.431 139.478 176.734 139.321 177.036 139.242C177.112 139.242 177.263 139.164 177.339 139.164C177.717 139.478 178.02 140.027 178.096 140.812C178.171 142.618 177.112 145.051 175.675 146.15Z" fill="#939598" stroke="#231F20" stroke-width="0.0802954" stroke-miterlimit="10"/>
        <path d="M178.626 137.516C178.399 137.437 178.096 137.359 177.869 137.359C177.793 137.359 177.793 137.359 177.718 137.359C177.642 137.359 177.642 137.359 177.566 137.359C177.491 137.359 177.415 137.359 177.415 137.359C177.339 137.359 177.339 137.359 177.264 137.359C177.188 137.359 177.188 137.359 177.112 137.437C176.886 137.516 176.659 137.594 176.507 137.751C176.432 137.751 176.432 137.829 176.356 137.829C176.28 137.829 176.28 137.908 176.205 137.908C176.129 137.908 176.053 137.986 176.053 137.986L175.978 138.065C175.826 138.222 175.599 138.379 175.448 138.536C175.297 138.693 175.07 138.85 174.918 139.085C174.843 139.164 174.767 139.321 174.691 139.399C174.54 139.635 174.389 139.87 174.237 140.027C174.086 140.263 173.935 140.498 173.784 140.734C173.708 140.891 173.632 140.969 173.557 141.126C173.481 141.205 173.481 141.362 173.405 141.44C173.254 141.754 173.178 141.99 173.103 142.304C173.103 142.382 173.027 142.461 173.027 142.618L172.951 142.775C172.951 142.853 172.876 143.01 172.876 143.089C172.876 143.246 172.8 143.324 172.8 143.481C172.8 143.56 172.724 143.717 172.724 143.874V143.952C172.724 144.109 172.649 144.188 172.649 144.345C172.649 144.502 172.649 144.58 172.649 144.737C172.649 144.894 172.649 144.973 172.649 145.13V145.208C172.649 145.287 172.649 145.287 172.649 145.365C172.649 145.444 172.649 145.522 172.649 145.601C172.649 145.679 172.649 145.758 172.649 145.915C172.649 145.993 172.649 146.072 172.649 146.229C172.724 146.778 172.876 147.249 173.103 147.642C173.178 147.799 173.254 147.956 173.405 148.034C173.405 148.113 173.481 148.113 173.481 148.191C173.557 148.27 173.708 148.427 173.859 148.505C173.859 148.505 173.935 148.584 174.011 148.584L171.816 147.642C171.741 147.642 171.665 147.563 171.514 147.485C171.514 147.485 171.438 147.485 171.438 147.406C170.757 147.014 170.303 146.15 170.152 144.894C169.925 142.225 171.363 138.85 173.405 137.202C173.481 137.123 173.481 137.123 173.557 137.123C173.632 137.045 173.632 137.045 173.708 136.966C174.54 136.417 175.372 136.181 176.053 136.338L176.583 136.574L178.626 137.516Z" fill="#F1F2F2" stroke="#231F20" stroke-width="0.201439" stroke-miterlimit="10" stroke-linecap="round" stroke-linejoin="round"/>
        <path d="M159.862 145.836C159.786 145.836 159.786 145.915 159.711 145.993C159.635 145.993 159.635 146.072 159.559 146.072C157.517 147.72 156.079 151.096 156.306 153.765C156.457 155.021 156.911 155.884 157.592 156.277V164.126C157.592 164.676 157.214 165.225 156.533 165.696C155.096 166.56 152.75 166.56 151.313 165.696C150.632 165.304 150.253 164.754 150.253 164.126V153.372C150.253 143.638 156.079 144.266 159.862 145.836Z" fill="url(#paint1_linear_1_19911)" stroke="#231F20" stroke-width="0.190369" stroke-miterlimit="10" stroke-linecap="round" stroke-linejoin="round"/>
        <path opacity="0.2" d="M153.582 165.618C153.961 165.854 154.49 166.011 155.02 166.168C153.734 166.403 152.296 166.246 151.237 165.618C150.556 165.226 150.178 164.676 150.178 164.048V153.372C150.253 145.836 153.734 144.502 157.063 145.051C154.642 145.522 152.599 147.642 152.523 153.372V164.048C152.523 164.676 152.901 165.226 153.582 165.618Z" fill="black" stroke="#231F20" stroke-width="0.201439" stroke-miterlimit="10"/>
        <path d="M166.52 149.055C166.369 147.642 165.763 146.7 164.931 146.386C164.704 146.307 164.401 146.229 164.174 146.229C164.099 146.229 164.099 146.229 164.023 146.229C163.948 146.229 163.948 146.229 163.872 146.229C163.796 146.229 163.721 146.229 163.721 146.229C163.645 146.229 163.645 146.229 163.569 146.229C163.494 146.229 163.494 146.229 163.418 146.307C163.191 146.386 162.964 146.464 162.813 146.621C162.737 146.621 162.737 146.7 162.661 146.7C162.586 146.7 162.586 146.778 162.51 146.778C162.434 146.778 162.359 146.857 162.359 146.857L162.283 146.935C162.132 147.092 161.905 147.249 161.753 147.406C161.602 147.563 161.375 147.72 161.224 147.956C161.148 148.034 161.073 148.191 160.997 148.27C160.846 148.505 160.694 148.741 160.543 148.898C160.392 149.133 160.24 149.369 160.089 149.604C160.013 149.761 159.938 149.84 159.862 149.997C159.786 150.075 159.786 150.232 159.711 150.311C159.559 150.625 159.484 150.86 159.408 151.174C159.408 151.253 159.332 151.331 159.332 151.488L159.257 151.645C159.257 151.724 159.181 151.881 159.181 151.959C159.181 152.116 159.105 152.195 159.105 152.352C159.105 152.43 159.03 152.587 159.03 152.744V152.823C159.03 152.98 158.954 153.058 158.954 153.215C158.954 153.372 158.954 153.451 158.954 153.608C158.954 153.765 158.954 153.843 158.954 154V154.079C158.954 154.157 158.954 154.157 158.954 154.236C158.954 154.314 158.954 154.393 158.954 154.471C158.954 154.55 158.954 154.628 158.954 154.785C158.954 154.864 158.954 154.942 158.954 155.099C159.03 155.649 159.181 156.12 159.408 156.512C159.484 156.669 159.559 156.826 159.711 156.905C159.711 156.983 159.786 156.983 159.786 157.062C159.862 157.14 160.013 157.297 160.165 157.376C160.165 157.376 160.24 157.454 160.316 157.454C160.467 157.533 160.543 157.611 160.694 157.611C161.451 157.847 162.359 157.611 163.267 156.905C165.234 155.256 166.747 151.802 166.52 149.055ZM162.964 155.335C162.283 155.806 161.678 155.963 161.148 155.806C161.073 155.806 160.997 155.727 160.846 155.727C160.77 155.727 160.694 155.649 160.619 155.57C160.467 155.413 160.316 155.256 160.24 155.099C160.089 154.864 160.013 154.55 159.938 154.157C159.938 154.079 159.938 154 159.938 154C159.938 153.843 159.938 153.686 159.938 153.529C159.938 152.116 160.619 150.468 161.602 149.369C161.829 149.133 162.056 148.898 162.283 148.662C162.283 148.662 162.283 148.662 162.359 148.584C162.661 148.348 162.964 148.191 163.267 148.113C163.342 148.113 163.494 148.034 163.569 148.034C163.796 148.034 164.023 148.034 164.174 148.113C164.78 148.348 165.158 148.976 165.234 149.918C165.461 151.802 164.401 154.236 162.964 155.335Z" fill="#F1F2F2" stroke="#231F20" stroke-width="0.201439" stroke-miterlimit="10" stroke-linecap="round" stroke-linejoin="round"/>
        <path d="M162.964 155.335C162.283 155.806 161.677 155.963 161.148 155.806C161.072 155.806 160.996 155.727 160.845 155.727C160.769 155.727 160.694 155.649 160.618 155.57C160.996 155.57 161.45 155.413 161.904 155.021C163.342 153.922 164.401 151.567 164.25 149.683C164.174 148.898 163.947 148.348 163.493 148.034C163.72 148.034 163.947 148.034 164.098 148.113C164.704 148.348 165.082 148.976 165.158 149.918C165.46 151.802 164.401 154.236 162.964 155.335Z" fill="#797979" stroke="#231F20" stroke-width="0.201439" stroke-miterlimit="10" stroke-linecap="round" stroke-linejoin="round"/>
        <path d="M161.98 155.021C161.526 155.335 161.072 155.492 160.694 155.57C160.543 155.413 160.391 155.256 160.316 155.099C160.164 154.864 160.089 154.55 160.013 154.157C160.013 154.079 160.013 154 160.013 154C160.013 153.843 160.013 153.686 160.013 153.529C160.013 152.116 160.694 150.468 161.678 149.369C161.905 149.133 162.132 148.898 162.359 148.662C162.359 148.662 162.359 148.662 162.434 148.584C162.737 148.348 163.039 148.191 163.342 148.113C163.418 148.113 163.569 148.034 163.645 148.034C164.023 148.348 164.326 148.898 164.401 149.683C164.477 151.488 163.418 153.922 161.98 155.021Z" fill="#939598" stroke="#231F20" stroke-width="0.0802954" stroke-miterlimit="10"/>
        <path d="M164.931 146.386C164.704 146.307 164.401 146.229 164.174 146.229C164.099 146.229 164.099 146.229 164.023 146.229C163.947 146.229 163.947 146.229 163.872 146.229C163.796 146.229 163.72 146.229 163.72 146.229C163.645 146.229 163.645 146.229 163.569 146.229C163.493 146.229 163.493 146.229 163.418 146.307C163.191 146.386 162.964 146.464 162.812 146.621C162.737 146.621 162.737 146.7 162.661 146.7C162.585 146.7 162.585 146.778 162.51 146.778C162.434 146.778 162.358 146.857 162.358 146.857L162.283 146.935C162.132 147.092 161.905 147.249 161.753 147.406C161.602 147.563 161.375 147.72 161.224 147.956C161.148 148.034 161.072 148.191 160.997 148.27C160.845 148.505 160.694 148.741 160.543 148.898C160.391 149.133 160.24 149.369 160.089 149.604C160.013 149.761 159.937 149.84 159.862 149.997C159.786 150.075 159.786 150.232 159.71 150.311C159.559 150.625 159.483 150.86 159.408 151.174C159.408 151.253 159.332 151.331 159.332 151.488L159.257 151.645C159.257 151.724 159.181 151.881 159.181 151.959C159.181 152.116 159.105 152.195 159.105 152.352C159.105 152.43 159.03 152.587 159.03 152.744V152.823C159.03 152.98 158.954 153.058 158.954 153.215C158.954 153.372 158.954 153.451 158.954 153.608C158.954 153.765 158.954 153.843 158.954 154V154.157C158.954 154.236 158.954 154.236 158.954 154.314C158.954 154.393 158.954 154.471 158.954 154.55C158.954 154.628 158.954 154.707 158.954 154.864C158.954 154.942 158.954 155.021 158.954 155.178C159.03 155.727 159.181 156.198 159.408 156.591C159.483 156.748 159.559 156.905 159.71 156.983C159.71 157.062 159.786 157.062 159.786 157.14C159.862 157.219 160.013 157.376 160.164 157.454C160.164 157.454 160.24 157.533 160.316 157.533L158.122 156.591C158.046 156.591 157.97 156.512 157.819 156.434C157.819 156.434 157.743 156.434 157.743 156.355C157.062 155.963 156.608 155.099 156.457 153.843C156.23 151.174 157.668 147.799 159.71 146.15C159.786 146.072 159.786 146.072 159.862 146.072C159.937 145.993 159.937 145.993 160.013 145.915C160.845 145.365 161.678 145.13 162.358 145.287L162.888 145.522L164.931 146.386Z" fill="#F1F2F2" stroke="#231F20" stroke-width="0.201439" stroke-miterlimit="10" stroke-linecap="round" stroke-linejoin="round"/>
    </g>
    <defs>
        <linearGradient id="paint0_linear_1_19911" x1="163.858" y1="146.721" x2="173.526" y2="146.721" gradientUnits="userSpaceOnUse">
            <stop stop-color="#D1D2D3"/>
            <stop offset="0.3636" stop-color="#D1D2D3"/>
            <stop offset="0.6738" stop-color="#F1F1F1"/>
            <stop offset="1" stop-color="#E5E6E6"/>
        </linearGradient>
        <linearGradient id="paint1_linear_1_19911" x1="150.187" y1="155.598" x2="159.855" y2="155.598" gradientUnits="userSpaceOnUse">
            <stop stop-color="#D1D2D3"/>
            <stop offset="0.3636" stop-color="#D1D2D3"/>
            <stop offset="0.6738" stop-color="#F1F1F1"/>
            <stop offset="1" stop-color="#E5E6E6"/>
        </linearGradient>
        <clipPath id="">
            <rect width="130.661" height="96.6314" fill="white" transform="translate(50.6118 85.0785)"/>
        </clipPath>
    </defs>
</svg>
