<svg width="230" height="230" viewBox="0 0 230 230" fill="none"
    xmlns="http://www.w3.org/2000/svg">
    <g clip-path="url(#)">
        <path d="M65.8939 95.805C65.1232 96.5757 64.3524 96.8559 63.6518 96.7859C63.5117 96.7859 63.3715 96.7158 63.3015 96.7158C63.2314 96.7158 63.2314 96.7158 63.1613 96.6457C63.0212 96.5757 62.9511 96.5056 62.811 96.4355C62.7409 96.4355 62.7409 96.3655 62.6709 96.3655C62.5307 96.2954 62.4607 96.1553 62.3906 96.0152C62.1804 95.7349 61.9702 95.3145 61.8301 94.824C61.8301 94.754 61.76 94.6839 61.76 94.6138C61.76 94.5438 61.6899 94.4737 61.6899 94.3336C61.6899 94.2635 61.6899 94.1934 61.6899 94.1234C61.6899 94.0533 61.6899 94.0533 61.6899 93.9832V93.9132C61.6899 93.773 61.6899 93.703 61.6899 93.5629C61.6899 93.4227 61.6899 93.3527 61.6899 93.2125C61.6899 93.0724 61.6899 93.0023 61.6899 92.8622V92.7921C61.6899 92.652 61.6899 92.5819 61.6899 92.4418C61.6899 92.3017 61.6899 92.1615 61.76 92.0915C61.76 92.0214 61.76 91.8813 61.8301 91.8112V91.6711C61.8301 91.601 61.8301 91.4609 61.9001 91.3908C61.9702 91.1106 62.0403 90.8303 62.1103 90.6201C62.1103 90.48 62.1804 90.4099 62.1804 90.2698C62.2505 90.1296 62.2505 90.0596 62.3205 89.9194C62.3906 89.7092 62.5307 89.429 62.6008 89.2188C62.7409 89.0086 62.811 88.7984 62.9511 88.5882C63.0212 88.5181 63.0913 88.378 63.1613 88.3079C63.3015 88.0977 63.4416 87.9576 63.5817 87.7474C63.7218 87.6073 63.862 87.3971 64.0021 87.2569L64.0722 87.1869C64.1422 87.1168 64.1422 87.1168 64.2123 87.0467C64.2824 86.9767 64.2824 86.9767 64.3524 86.9066C64.4225 86.8365 64.4225 86.8365 64.4926 86.8365C64.7028 86.6964 64.8429 86.6263 65.0531 86.4862C65.1232 86.4862 65.1232 86.4161 65.1932 86.4161C65.2633 86.4161 65.2633 86.3461 65.3334 86.3461C65.4034 86.3461 65.4735 86.276 65.4735 86.276C65.5436 86.276 65.5436 86.276 65.6136 86.276C65.6837 86.276 65.6837 86.276 65.7538 86.276C66.034 86.2059 66.2442 86.276 66.4544 86.276C67.2952 86.4862 67.9258 87.1869 68.2061 88.4481C68.6265 90.8303 67.6455 94.1234 65.8939 95.805Z" fill="#F1F2F2" stroke="#231F20" stroke-width="0.201439" stroke-miterlimit="10" stroke-linecap="round" stroke-linejoin="round"/>
        <path opacity="0.2" d="M65.8939 95.805C65.1232 96.5757 64.3524 96.8559 63.6518 96.7859C63.5117 96.7859 63.3715 96.7158 63.3015 96.7158C63.2314 96.7158 63.2314 96.7158 63.1613 96.6457C63.0212 96.5757 62.9511 96.5056 62.811 96.4355C62.7409 96.4355 62.7409 96.3655 62.6709 96.3655C62.5307 96.2954 62.4607 96.1553 62.3906 96.0152C62.1804 95.7349 61.9702 95.3145 61.8301 94.824C61.8301 94.754 61.76 94.6839 61.76 94.6138C61.76 94.5438 61.6899 94.4737 61.6899 94.3336C61.6899 94.2635 61.6899 94.1934 61.6899 94.1234C61.6899 94.0533 61.6899 94.0533 61.6899 93.9832V93.9132C61.6899 93.773 61.6899 93.703 61.6899 93.5629C61.6899 93.4227 61.6899 93.3527 61.6899 93.2125C61.6899 93.0724 61.6899 93.0023 61.6899 92.8622V92.7921C61.6899 92.652 61.6899 92.5819 61.6899 92.4418C61.6899 92.3017 61.6899 92.1615 61.76 92.0915C61.76 92.0214 61.76 91.8813 61.8301 91.8112V91.6711C61.8301 91.601 61.8301 91.4609 61.9001 91.3908C61.9702 91.1106 62.0403 90.8303 62.1103 90.6201C62.1103 90.48 62.1804 90.4099 62.1804 90.2698C62.2505 90.1296 62.2505 90.0596 62.3205 89.9194C62.3906 89.7092 62.5307 89.429 62.6008 89.2188C62.7409 89.0086 62.811 88.7984 62.9511 88.5882C63.0212 88.5181 63.0913 88.378 63.1613 88.3079C63.3015 88.0977 63.4416 87.9576 63.5817 87.7474C63.7218 87.6073 63.862 87.3971 64.0021 87.2569L64.0722 87.1869C64.1422 87.1168 64.1422 87.1168 64.2123 87.0467C64.2824 86.9767 64.2824 86.9767 64.3524 86.9066C64.4225 86.8365 64.4225 86.8365 64.4926 86.8365C64.7028 86.6964 64.8429 86.6263 65.0531 86.4862C65.1232 86.4862 65.1232 86.4161 65.1932 86.4161C65.2633 86.4161 65.2633 86.3461 65.3334 86.3461C65.4034 86.3461 65.4735 86.276 65.4735 86.276C65.5436 86.276 65.5436 86.276 65.6136 86.276C65.6837 86.276 65.6837 86.276 65.7538 86.276C66.034 86.2059 66.2442 86.276 66.4544 86.276C67.2952 86.4862 67.9258 87.1869 68.2061 88.4481C68.6265 90.8303 67.6455 94.1234 65.8939 95.805Z" fill="black" stroke="#231F20" stroke-width="0.209427" stroke-miterlimit="10"/>
        <path d="M66.3143 86.3459C66.1041 86.2759 65.8238 86.2759 65.6136 86.3459C65.5435 86.3459 65.5435 86.3459 65.4735 86.3459C65.4034 86.3459 65.4034 86.3459 65.3333 86.3459C65.2633 86.3459 65.1932 86.3459 65.1932 86.416C65.1231 86.416 65.1231 86.416 65.0531 86.4861C64.983 86.4861 64.983 86.5561 64.9129 86.5561C64.7028 86.6262 64.5626 86.7663 64.3524 86.9065C64.2824 86.9065 64.2824 86.9765 64.2123 86.9765C64.1422 86.9765 64.1422 87.0466 64.0722 87.1167C64.0021 87.1867 64.0021 87.1867 63.932 87.2568L63.862 87.3269C63.7218 87.467 63.5817 87.6071 63.4416 87.8173C63.3014 87.9574 63.1613 88.1676 63.0212 88.3778C62.9511 88.4479 62.881 88.588 62.811 88.6581C62.6708 88.8683 62.5307 89.0785 62.4606 89.2887C62.3205 89.4989 62.2504 89.7792 62.1804 89.9894C62.1103 90.1295 62.1103 90.1996 62.0403 90.3397C61.9702 90.4798 61.9702 90.5499 61.9702 90.69C61.9001 90.9703 61.8301 91.2505 61.76 91.4607C61.76 91.5308 61.6899 91.6709 61.6899 91.741V91.8811C61.6899 91.9512 61.6899 92.0913 61.6199 92.1614C61.6199 92.3015 61.6199 92.4417 61.5498 92.5117C61.5498 92.6519 61.5498 92.7219 61.5498 92.862V92.9321C61.5498 93.0722 61.5498 93.1423 61.5498 93.2824C61.5498 93.4226 61.5498 93.4926 61.5498 93.6328C61.5498 93.7729 61.5498 93.843 61.5498 93.9831V94.0532C61.5498 94.1232 61.5498 94.1232 61.5498 94.1933C61.5498 94.2634 61.5498 94.3334 61.5498 94.4035C61.5498 94.4736 61.6199 94.5436 61.6199 94.6838C61.6199 94.7538 61.6899 94.8239 61.6899 94.894C61.8301 95.3844 62.0403 95.7347 62.2504 96.0851C62.3205 96.2252 62.4606 96.2953 62.5307 96.4354C62.6008 96.4354 62.6008 96.5055 62.6708 96.5055C62.811 96.5755 62.881 96.6456 63.0212 96.7157C63.0912 96.7157 63.0912 96.7157 63.1613 96.7857L61.0593 96.2252C60.9893 96.2252 60.8491 96.1551 60.7791 96.1551H60.709C60.0083 95.8749 59.5179 95.1742 59.2376 94.1232C58.6771 91.6709 59.5879 88.4479 61.2695 86.7663C61.3396 86.6963 61.3396 86.6963 61.4097 86.6262C61.4797 86.5561 61.4797 86.5561 61.5498 86.4861C62.2504 85.8555 63.0212 85.5752 63.6518 85.6453L64.1422 85.7854L66.3143 86.3459Z" fill="#F1F2F2" stroke="#231F20" stroke-width="0.201439" stroke-miterlimit="10" stroke-linecap="round" stroke-linejoin="round"/>
        <path d="M72.6205 94.6838V104.213C72.6205 104.703 72.2702 105.194 71.6396 105.614C70.8688 106.034 69.8179 106.245 68.8369 106.175C68.1363 106.105 67.4356 105.964 66.8751 105.614C66.2445 105.264 65.8942 104.703 65.8942 104.213V98.7476C65.8942 98.7476 65.8942 98.5374 65.8942 98.2572C65.8241 97.9068 65.684 97.3463 65.2636 96.8558C64.9133 96.4354 64.4929 96.0851 63.7221 95.7348C63.3718 95.5947 63.1616 95.3144 63.0215 94.9641C63.0215 94.9641 63.0215 94.9641 63.0215 94.894C63.0215 94.8239 62.9514 94.7539 62.9514 94.6838C62.9514 94.6137 62.8813 94.5437 62.8813 94.4035C62.8813 94.3335 62.8813 94.2634 62.8813 94.1933C62.8813 94.1233 62.8813 94.1233 62.8813 94.0532V93.9831C62.8813 93.843 62.8813 93.7729 62.8813 93.6328C62.8813 93.4927 62.8813 93.3526 62.8813 93.2825C62.8813 93.2124 62.8813 93.0723 62.8813 92.9322V92.8621C62.8813 92.792 62.8813 92.6519 62.8813 92.5118C62.8813 92.3716 62.8813 92.2315 62.9514 92.1614C62.9514 92.0914 62.9514 91.9512 63.0215 91.8812V91.741C63.0215 91.671 63.0215 91.5308 63.0915 91.4608C63.1616 91.1805 63.2317 90.9003 63.3017 90.6901C63.3017 90.5499 63.3718 90.4799 63.3718 90.3397C63.4419 90.1996 63.4419 90.1295 63.5119 89.9894C63.582 89.7792 63.7221 89.4989 63.7922 89.2887C63.9323 89.0785 64.0024 88.8683 64.1425 88.6581C64.2126 88.5881 64.2827 88.448 64.3527 88.3779C64.3527 88.3078 64.4228 88.3078 64.4228 88.2378C64.9133 87.6072 65.5438 87.397 65.684 87.397C66.3846 87.2568 67.0853 87.1868 67.7159 87.1868C68.0662 87.1868 68.4165 87.2568 68.7669 87.3269C69.4675 87.467 70.0281 87.8174 70.5886 88.3078C70.7287 88.518 70.9389 88.6581 71.079 88.7983C71.7096 89.6391 72.2001 90.8302 72.4804 92.5118C72.6205 93.1424 72.6205 93.843 72.6205 94.6838Z" fill="#F1F2F2" stroke="#231F20" stroke-width="0.201439" stroke-miterlimit="10" stroke-linecap="round" stroke-linejoin="round"/>
        <path d="M65.8242 98.2572C65.8242 98.5375 65.8242 98.7477 65.8242 98.7477V98.2572Z" fill="url(#paint0_linear_1_19911)" stroke="#231F20" stroke-width="0.190369" stroke-miterlimit="10" stroke-linecap="round" stroke-linejoin="round"/>
        <path d="M71.0788 88.7983C70.9387 88.6582 70.7986 88.448 70.5884 88.3079C70.7986 88.3779 70.9387 88.5881 71.0788 88.7983Z" fill="url(#paint1_linear_1_19911)" stroke="#231F20" stroke-width="0.190369" stroke-miterlimit="10" stroke-linecap="round" stroke-linejoin="round"/>
        <path opacity="0.2" d="M72.6199 94.6838V104.213C72.6199 104.703 72.2696 105.194 71.639 105.614C70.8683 106.034 69.8173 106.245 68.8364 106.175C69.1166 106.105 69.3969 105.964 69.6772 105.824C70.3778 105.404 70.7282 104.913 70.7282 104.423V94.4035C70.7282 90.1295 69.467 87.9575 67.7153 87.1167C68.0657 87.1167 68.416 87.1868 68.7663 87.2568C69.467 87.397 70.0275 87.7473 70.588 88.2378C70.7282 88.4479 70.9384 88.5881 71.0785 88.7282C71.7091 89.569 72.1995 90.7601 72.4798 92.4417C72.6199 93.1424 72.6199 93.843 72.6199 94.6838Z" fill="black" stroke="#231F20" stroke-width="0.209427" stroke-miterlimit="10"/>
        <path d="M64.0723 88.588C64.1423 88.4479 64.2124 88.3077 64.3525 88.1676C64.3525 88.2377 64.2825 88.2377 64.2825 88.3077C64.2124 88.3778 64.1423 88.5179 64.0723 88.588Z" fill="url(#paint2_linear_1_19911)" stroke="#231F20" stroke-width="0.190369" stroke-miterlimit="10" stroke-linecap="round" stroke-linejoin="round"/>
        <path d="M80.6075 87.2569C79.8368 88.0276 78.996 88.3078 78.2953 88.2378C78.1552 88.2378 78.0151 88.1677 77.945 88.1677C77.8749 88.1677 77.8749 88.1677 77.8049 88.0977C77.6647 88.0276 77.5947 87.9575 77.4545 87.8875C77.3845 87.8875 77.3845 87.8174 77.3144 87.8174C77.1743 87.7473 77.1042 87.6072 77.0342 87.4671C76.824 87.1868 76.6138 86.7664 76.4736 86.2759C76.4736 86.2059 76.4036 86.1358 76.4036 86.0657C76.4036 85.9957 76.3335 85.9256 76.3335 85.7855C76.3335 85.7154 76.3335 85.6453 76.3335 85.5753C76.3335 85.5052 76.3335 85.5052 76.3335 85.4352V85.3651C76.3335 85.225 76.3335 85.1549 76.3335 85.0148C76.3335 84.8746 76.3335 84.8046 76.3335 84.6644C76.3335 84.5243 76.3335 84.4542 76.3335 84.3141V84.244C76.3335 84.1039 76.3335 84.0338 76.3335 83.8937C76.3335 83.7536 76.3335 83.6134 76.4036 83.5434C76.4036 83.4733 76.4036 83.3332 76.4736 83.2631V83.123C76.4736 83.0529 76.4736 82.9128 76.5437 82.8427C76.6138 82.5625 76.6838 82.2822 76.7539 82.072C76.7539 81.9319 76.824 81.8618 76.824 81.7217C76.894 81.5815 76.894 81.5115 76.9641 81.3713C77.0342 81.1611 77.1743 80.8809 77.2444 80.6707C77.3845 80.4605 77.4546 80.2503 77.5947 80.0401C77.5246 79.8299 77.5947 79.7598 77.6647 79.6197C77.8049 79.4095 77.945 79.2694 78.0851 79.0592C78.2253 78.919 78.3654 78.7088 78.5055 78.5687L78.5756 78.4986C78.6457 78.4286 78.6457 78.4286 78.7157 78.3585C78.7858 78.4286 78.7858 78.3585 78.8559 78.3585C78.9259 78.2884 78.9259 78.2884 78.996 78.2884C79.2062 78.1483 79.3463 78.0782 79.5565 77.9381C79.6266 77.9381 79.6266 77.868 79.6967 77.868C79.7667 77.868 79.7667 77.798 79.8368 77.798C79.9068 77.798 79.9769 77.7279 79.9769 77.7279C80.047 77.7279 80.047 77.7279 80.117 77.7279C80.1871 77.7279 80.1871 77.7279 80.2572 77.7279C80.5374 77.6579 80.7476 77.7279 80.9578 77.7279C81.7986 77.9381 82.4292 78.6388 82.7095 79.9C83.3401 82.2822 82.3592 85.5753 80.6075 87.2569Z" fill="#F1F2F2" stroke="#231F20" stroke-width="0.201439" stroke-miterlimit="10" stroke-linecap="round" stroke-linejoin="round"/>
        <path opacity="0.2" d="M80.6075 87.2569C79.8368 88.0276 78.996 88.3078 78.2953 88.2378C78.1552 88.2378 78.0151 88.1677 77.945 88.1677C77.8749 88.1677 77.8749 88.1677 77.8049 88.0977C77.6647 88.0276 77.5947 87.9575 77.4545 87.8875C77.3845 87.8875 77.3845 87.8174 77.3144 87.8174C77.1743 87.7473 77.1042 87.6072 77.0342 87.4671C76.824 87.1868 76.6138 86.7664 76.4736 86.2759C76.4736 86.2059 76.4036 86.1358 76.4036 86.0657C76.4036 85.9957 76.3335 85.9256 76.3335 85.7855C76.3335 85.7154 76.3335 85.6453 76.3335 85.5753C76.3335 85.5052 76.3335 85.5052 76.3335 85.4352V85.3651C76.3335 85.225 76.3335 85.1549 76.3335 85.0148C76.3335 84.8746 76.3335 84.8046 76.3335 84.6644C76.3335 84.5243 76.3335 84.4542 76.3335 84.3141V84.244C76.3335 84.1039 76.3335 84.0338 76.3335 83.8937C76.3335 83.7536 76.3335 83.6134 76.4036 83.5434C76.4036 83.4733 76.4036 83.3332 76.4736 83.2631V83.123C76.4736 83.0529 76.4736 82.9128 76.5437 82.8427C76.6138 82.5625 76.6838 82.2822 76.7539 82.072C76.7539 81.9319 76.824 81.8618 76.824 81.7217C76.894 81.5815 76.894 81.5115 76.9641 81.3713C77.0342 81.1611 77.1743 80.8809 77.2444 80.6707C77.3845 80.4605 77.4546 80.2503 77.5947 80.0401C77.5246 79.8299 77.5947 79.7598 77.6647 79.6197C77.8049 79.4095 77.945 79.2694 78.0851 79.0592C78.2253 78.919 78.3654 78.7088 78.5055 78.5687L78.5756 78.4986C78.6457 78.4286 78.6457 78.4286 78.7157 78.3585C78.7858 78.4286 78.7858 78.3585 78.8559 78.3585C78.9259 78.2884 78.9259 78.2884 78.996 78.2884C79.2062 78.1483 79.3463 78.0782 79.5565 77.9381C79.6266 77.9381 79.6266 77.868 79.6967 77.868C79.7667 77.868 79.7667 77.798 79.8368 77.798C79.9068 77.798 79.9769 77.7279 79.9769 77.7279C80.047 77.7279 80.047 77.7279 80.117 77.7279C80.1871 77.7279 80.1871 77.7279 80.2572 77.7279C80.5374 77.6579 80.7476 77.7279 80.9578 77.7279C81.7986 77.9381 82.4292 78.6388 82.7095 79.9C83.3401 82.2822 82.3592 85.5753 80.6075 87.2569Z" fill="black" stroke="#231F20" stroke-width="0.209427" stroke-miterlimit="10"/>
        <path d="M80.9578 77.7279C80.7476 77.6578 80.4674 77.6578 80.2572 77.7279C80.1871 77.7279 80.1871 77.7279 80.117 77.7279C80.047 77.7279 80.047 77.7279 79.9769 77.7279C79.9068 77.7279 79.8368 77.7279 79.8368 77.798C79.7667 77.798 79.7667 77.798 79.6966 77.868C79.6266 77.868 79.6266 77.9381 79.5565 77.9381C79.3463 78.0082 79.2062 78.1483 78.996 78.2884C78.9259 78.2884 78.9259 78.3585 78.8558 78.3585C78.7858 78.3585 78.7858 78.4286 78.7157 78.4986C78.6456 78.5687 78.6456 78.5687 78.5756 78.6388L78.5055 78.7088C78.3654 78.8489 78.2253 78.9891 78.0851 79.1993C77.945 79.3394 77.8049 79.5496 77.6647 79.7598C77.5947 79.8299 77.5246 79.97 77.4545 80.0401C77.3144 80.2503 77.1743 80.4605 77.1042 80.6707C76.9641 80.8809 76.894 81.1611 76.8239 81.3713C76.7539 81.5114 76.7539 81.5815 76.6838 81.7216C76.6137 81.8618 76.6137 81.9318 76.6137 82.072C76.5437 82.3522 76.4736 82.6325 76.4035 82.8427C76.4035 82.9128 76.3335 83.0529 76.3335 83.123V83.2631C76.3335 83.3332 76.3335 83.4733 76.2634 83.5434C76.2634 83.6835 76.2634 83.8236 76.1933 83.8937C76.1933 84.0338 76.1933 84.1039 76.1933 84.244V84.3141C76.1933 84.4542 76.1933 84.5243 76.1933 84.6644C76.1933 84.8045 76.1933 84.8746 76.1933 85.0147C76.1933 85.1549 76.1933 85.2249 76.1933 85.3651V85.4351C76.1933 85.5052 76.1933 85.5052 76.1933 85.5753C76.1933 85.6453 76.1933 85.7154 76.1933 85.7855C76.1933 85.8555 76.2634 85.9256 76.2634 86.0657C76.2634 86.1358 76.3335 86.2059 76.3335 86.2759C76.4736 86.7664 76.6838 87.1167 76.894 87.467C76.9641 87.6072 77.1042 87.6772 77.1743 87.8174C77.2443 87.8174 77.2443 87.8874 77.3144 87.8874C77.4545 87.9575 77.5246 88.0276 77.6647 88.0976C77.7348 88.0976 77.7348 88.0976 77.8049 88.1677L75.7029 87.6072C75.6328 87.6072 75.4927 87.5371 75.4226 87.5371H75.3526C74.6519 87.2568 74.1614 86.5562 73.8812 85.5052C73.3206 83.193 74.2315 80.0401 75.9131 78.2884C75.9831 78.2184 75.9831 78.2184 76.0532 78.1483C76.1233 78.0782 76.1233 78.0782 76.1933 78.0082C76.894 77.3776 77.6647 77.0973 78.2953 77.1674L78.7858 77.3075L80.9578 77.7279Z" fill="#F1F2F2" stroke="#231F20" stroke-width="0.201439" stroke-miterlimit="10" stroke-linecap="round" stroke-linejoin="round"/>
        <path d="M87.3336 86.0658V95.5947C87.3336 96.0852 86.9833 96.5756 86.3527 96.996C85.582 97.4164 84.531 97.6266 83.5501 97.5565C82.8494 97.4865 82.1488 97.3464 81.5882 96.996C80.9576 96.6457 80.6073 96.0852 80.6073 95.5947V90.1296C80.6073 90.1296 80.6073 89.9194 80.6073 89.6391C80.5372 89.2888 80.3971 88.7283 79.9767 88.2378C79.5563 87.8875 79.0659 87.4671 78.3652 87.1167C78.0149 86.9766 77.8047 86.6964 77.6645 86.346C77.6645 86.346 77.6645 86.346 77.6645 86.276C77.6645 86.2059 77.5945 86.1358 77.5945 86.0658C77.5945 85.9957 77.5244 85.9256 77.5244 85.7855C77.5244 85.7154 77.5244 85.6454 77.5244 85.5753C77.5244 85.5052 77.5244 85.5052 77.5244 85.4352V85.3651C77.5244 85.225 77.5244 85.1549 77.5244 85.0148C77.5244 84.8746 77.5244 84.7345 77.5244 84.6644C77.5244 84.5944 77.5244 84.4542 77.5244 84.3141V84.2441C77.5244 84.174 77.5244 84.0339 77.5244 83.8937C77.5244 83.7536 77.5244 83.6135 77.5945 83.5434C77.5945 83.4733 77.5945 83.3332 77.6645 83.2631V83.123C77.6645 83.0529 77.6645 82.9128 77.7346 82.8427C77.6645 82.5625 77.7346 82.2822 77.8047 82.072C77.8047 81.9319 77.8747 81.8618 77.8747 81.7217C77.9448 81.5816 77.9448 81.5115 78.0149 81.3714C78.0849 81.1612 78.2251 80.8809 78.2951 80.6707C78.4353 80.4605 78.5053 80.2503 78.6455 80.0401C78.7155 79.97 78.7856 79.8299 78.8557 79.7598C78.8557 79.6898 78.9257 79.6898 78.9257 79.6197C79.4162 78.9891 80.0468 78.7789 80.1869 78.7789C80.8876 78.6388 81.5882 78.5687 82.2188 78.5687C82.5691 78.5687 82.9195 78.6388 83.2698 78.7089C83.9705 78.849 84.531 79.1993 85.0915 79.6898C85.2316 79.9 85.4418 80.0401 85.582 80.1802C86.2126 81.021 86.703 82.2121 86.9833 83.8937C87.2636 84.5243 87.3336 85.295 87.3336 86.0658Z" fill="#F1F2F2" stroke="#231F20" stroke-width="0.201439" stroke-miterlimit="10" stroke-linecap="round" stroke-linejoin="round"/>
        <path d="M80.5376 89.639C80.5376 89.9193 80.5376 90.1295 80.5376 90.1295V89.639Z" fill="url(#paint3_linear_1_19911)" stroke="#231F20" stroke-width="0.190369" stroke-miterlimit="10" stroke-linecap="round" stroke-linejoin="round"/>
        <path d="M85.7922 80.1803C85.6521 80.0401 85.512 79.83 85.3018 79.6898C85.4419 79.83 85.6521 79.9701 85.7922 80.1803Z" fill="url(#paint4_linear_1_19911)" stroke="#231F20" stroke-width="0.190369" stroke-miterlimit="10" stroke-linecap="round" stroke-linejoin="round"/>
        <path opacity="0.2" d="M87.3338 86.0658V95.5947C87.3338 96.0852 86.9835 96.5756 86.3529 96.996C85.5822 97.4164 84.5312 97.6266 83.5503 97.5565C83.8305 97.4865 84.1108 97.3463 84.391 97.2062C85.0917 96.7858 85.442 96.2954 85.442 95.8049V85.8556C85.442 81.5816 84.1808 79.4095 82.4292 78.5687C82.7795 78.5687 83.1299 78.6388 83.4802 78.7089C84.1808 78.849 84.7414 79.1993 85.3019 79.6898C85.442 79.9 85.6522 80.0401 85.7924 80.1802C86.4229 81.021 86.9134 82.2121 87.1937 83.8937C87.2637 84.5243 87.3338 85.295 87.3338 86.0658Z" fill="black" stroke="#231F20" stroke-width="0.209427" stroke-miterlimit="10"/>
        <path d="M78.7163 80.0401C78.7864 79.9 78.8564 79.7599 78.9966 79.6198C78.9966 79.6898 78.9265 79.6898 78.9265 79.7599C78.8564 79.8299 78.7864 79.9 78.7163 80.0401Z" fill="url(#paint5_linear_1_19911)" stroke="#231F20" stroke-width="0.190369" stroke-miterlimit="10" stroke-linecap="round" stroke-linejoin="round"/>
        <path d="M133.647 129.296L133.577 129.366L133.507 129.226L133.647 129.296Z" fill="#F1F2F2" stroke="#231F20" stroke-width="0.201439" stroke-miterlimit="10" stroke-linecap="round" stroke-linejoin="round"/>
        <path d="M144.788 147.514L133.507 154.17L121.806 136.023L133.507 129.367H133.577L144.788 147.514Z" fill="#F9FAFA" stroke="#231F20" stroke-width="0.201439" stroke-miterlimit="10" stroke-linecap="round" stroke-linejoin="round"/>
        <path d="M162.865 136.864V125.793L151.725 119.067L161.324 113.602L171.833 131.539L162.865 136.864Z" fill="#F9FAFA" stroke="#231F20" stroke-width="0.201439" stroke-miterlimit="10" stroke-linecap="round" stroke-linejoin="round"/>
        <path d="M171.833 131.538V149.826L133.507 172.107V154.17L144.788 147.513L144.928 147.654V136.093L162.865 125.793V136.863L171.833 131.538Z" fill="#F1F2F2" stroke="#231F20" stroke-width="0.201439" stroke-miterlimit="10" stroke-linecap="round" stroke-linejoin="round"/>
        <path d="M144.928 147.443V147.654L144.788 147.514L144.928 147.443Z" fill="#F1F2F2" stroke="#231F20" stroke-width="0.201439" stroke-miterlimit="10" stroke-linecap="round" stroke-linejoin="round"/>
        <path d="M133.507 154.17V172.107L68.2761 147.023L53.9126 123.061V108.977L59.8682 99.7286L74.582 108.347V121.729L108.073 141.067V128.245L108.284 128.105L119.284 134.621L121.806 136.023L133.507 154.17Z" fill="#F1F2F2" stroke="#231F20" stroke-width="0.201439" stroke-miterlimit="10" stroke-linecap="round" stroke-linejoin="round"/>
        <path opacity="0.14" d="M133.507 154.17V172.107L68.2761 147.023L53.9126 123.061V108.977L59.8682 99.7286L74.582 108.347V121.729L108.073 141.067V128.245L108.284 128.105L119.284 134.621L121.806 136.023L133.507 154.17Z" fill="black" stroke="#231F20" stroke-width="0.0802954" stroke-miterlimit="10"/>
        <path d="M160.272 135.252C160.272 135.252 151.374 140.297 148.361 142.048L148.291 139.316L157.75 133.991L160.272 135.252Z" fill="#939598" stroke="#231F20" stroke-width="0.0468579" stroke-miterlimit="10"/>
        <path d="M160.203 132.099L160.273 135.252L157.75 134.061L157.68 133.5L160.203 132.099Z" fill="#4F4C4D" stroke="#231F20" stroke-width="0.0468579" stroke-miterlimit="10"/>
        <path d="M157.68 133.5L157.75 134.061L148.291 139.386V138.825L157.68 133.5Z" fill="#231F20" stroke="#231F20" stroke-width="0.0468579" stroke-miterlimit="10" stroke-linecap="round" stroke-linejoin="round"/>
        <path d="M113.819 85.7855V95.3145L108.844 92.3717L105.691 90.4799L106.812 89.7793L113.819 85.7855Z" fill="#F1F2F2" stroke="#231F20" stroke-width="0.201439" stroke-miterlimit="10" stroke-linecap="round" stroke-linejoin="round"/>
        <path d="M105.692 90.48H105.621H105.692Z" fill="#F1F2F2" stroke="#231F20" stroke-width="0.201439" stroke-miterlimit="10" stroke-linecap="round" stroke-linejoin="round"/>
        <path d="M162.865 125.793L144.928 136.093L133.647 129.296L133.507 129.226L133.577 129.366H133.507L121.806 136.023L119.284 134.621L158.591 112.06L161.323 113.602L151.724 119.067L162.865 125.793Z" fill="#F1F2F2" stroke="#231F20" stroke-width="0.201439" stroke-miterlimit="10" stroke-linecap="round" stroke-linejoin="round"/>
        <path d="M144.928 136.093V147.443L144.788 147.513L133.577 129.366L133.647 129.296L144.928 136.093Z" fill="#F1F2F2" stroke="#231F20" stroke-width="0.201439" stroke-miterlimit="10" stroke-linecap="round" stroke-linejoin="round"/>
        <path opacity="0.14" d="M144.928 136.093V147.443L144.788 147.513L133.577 129.366L133.647 129.296L144.928 136.093Z" fill="black" stroke="#231F20" stroke-width="0.0802954" stroke-miterlimit="10"/>
        <path d="M133.647 129.296L133.577 129.366L133.507 129.226L133.647 129.296Z" fill="#F1F2F2" stroke="#231F20" stroke-width="0.201439" stroke-miterlimit="10" stroke-linecap="round" stroke-linejoin="round"/>
        <path d="M144.928 147.443V147.654L144.788 147.513L144.928 147.443Z" fill="#F1F2F2" stroke="#231F20" stroke-width="0.201439" stroke-miterlimit="10" stroke-linecap="round" stroke-linejoin="round"/>
        <path opacity="0.2" d="M144.788 147.513L133.647 142.328L133.507 129.226L144.788 147.513Z" fill="black" stroke="#231F20" stroke-width="0.0802954" stroke-miterlimit="10"/>
        <path d="M108.073 130.838V141.067L74.582 121.729V121.589L83.6205 116.404L108.073 130.838Z" fill="#F1F2F2" stroke="#231F20" stroke-width="0.201439" stroke-miterlimit="10" stroke-linecap="round" stroke-linejoin="round"/>
        <path d="M83.6205 103.092V116.404L74.582 121.589V108.277L78.1554 106.245L83.6205 103.092Z" fill="#F1F2F2" stroke="#231F20" stroke-width="0.201439" stroke-miterlimit="10" stroke-linecap="round" stroke-linejoin="round"/>
        <path d="M158.591 112.06L119.284 134.621L108.284 128.105L117.883 122.64L95.2514 109.748L87.0537 105.054L83.6205 103.092L78.1553 106.245L74.582 108.277V108.347L59.8682 99.7287L99.105 77.1675L113.819 85.7856L106.812 89.7793L105.691 90.48H105.621H105.691L108.844 92.3718L113.819 95.3145L117.112 97.2063L139.253 110.379L147.59 105.614L158.591 112.06Z" fill="#F1F2F2" stroke="#231F20" stroke-width="0.201439" stroke-miterlimit="10" stroke-linecap="round" stroke-linejoin="round"/>
        <path d="M117.882 122.64L108.283 128.105L108.073 128.245V130.838L83.6201 116.404V103.092L87.0533 105.054L95.251 109.748L117.882 122.64Z" fill="#F1F2F2" stroke="#231F20" stroke-width="0.201439" stroke-miterlimit="10" stroke-linecap="round" stroke-linejoin="round"/>
        <path d="M105.692 90.48H105.621H105.692Z" fill="black" stroke="#231F20" stroke-width="0.201439" stroke-miterlimit="10"/>
        <path opacity="0.14" d="M83.6205 103.092L80.5376 118.156L108.073 134.621V128.245L117.883 122.64L83.6205 103.092Z" fill="black" stroke="#231F20" stroke-width="0.0802954" stroke-miterlimit="10"/>
    </g>
    <defs>
        <linearGradient id="paint0_linear_1_19911" x1="-nan" y1="-nan" x2="-nan" y2="-nan" gradientUnits="userSpaceOnUse">
            <stop stop-color="#D1D2D3"/>
            <stop offset="0.3636" stop-color="#D1D2D3"/>
            <stop offset="0.6738" stop-color="#F1F1F1"/>
            <stop offset="1" stop-color="#E5E6E6"/>
        </linearGradient>
        <linearGradient id="paint1_linear_1_19911" x1="70.6065" y1="88.5007" x2="71.1032" y2="88.5007" gradientUnits="userSpaceOnUse">
            <stop stop-color="#D1D2D3"/>
            <stop offset="0.3636" stop-color="#D1D2D3"/>
            <stop offset="0.6738" stop-color="#F1F1F1"/>
            <stop offset="1" stop-color="#E5E6E6"/>
        </linearGradient>
        <linearGradient id="paint2_linear_1_19911" x1="64.0486" y1="88.3998" x2="64.3225" y2="88.3998" gradientUnits="userSpaceOnUse">
            <stop stop-color="#D1D2D3"/>
            <stop offset="0.3636" stop-color="#D1D2D3"/>
            <stop offset="0.6738" stop-color="#F1F1F1"/>
            <stop offset="1" stop-color="#E5E6E6"/>
        </linearGradient>
        <linearGradient id="paint3_linear_1_19911" x1="-nan" y1="-nan" x2="-nan" y2="-nan" gradientUnits="userSpaceOnUse">
            <stop stop-color="#D1D2D3"/>
            <stop offset="0.3636" stop-color="#D1D2D3"/>
            <stop offset="0.6738" stop-color="#F1F1F1"/>
            <stop offset="1" stop-color="#E5E6E6"/>
        </linearGradient>
        <linearGradient id="paint4_linear_1_19911" x1="85.2797" y1="79.9124" x2="85.7765" y2="79.9124" gradientUnits="userSpaceOnUse">
            <stop stop-color="#D1D2D3"/>
            <stop offset="0.3636" stop-color="#D1D2D3"/>
            <stop offset="0.6738" stop-color="#F1F1F1"/>
            <stop offset="1" stop-color="#E5E6E6"/>
        </linearGradient>
        <linearGradient id="paint5_linear_1_19911" x1="78.7225" y1="79.8117" x2="78.9964" y2="79.8117" gradientUnits="userSpaceOnUse">
            <stop stop-color="#D1D2D3"/>
            <stop offset="0.3636" stop-color="#D1D2D3"/>
            <stop offset="0.6738" stop-color="#F1F1F1"/>
            <stop offset="1" stop-color="#E5E6E6"/>
        </linearGradient>
        <clipPath id="">
            <rect width="118.061" height="95.2894" fill="white" transform="translate(53.8418 76.9573)"/>
        </clipPath>
    </defs>
</svg>
