<svg width="230" height="230" viewBox="0 0 230 230" fill="none"
    xmlns="http://www.w3.org/2000/svg">
    <g clip-path="url(#)">
        <path d="M91.7473 199.572L91.2568 199.853C91.1868 199.853 91.1868 199.853 91.1167 199.853C91.397 199.782 91.6072 199.642 91.7473 199.572Z" fill="#F1F2F2" stroke="#231F20" stroke-width="0.201439" stroke-miterlimit="10" stroke-linecap="round" stroke-linejoin="round"/>
        <path d="M95.8115 201.814C95.6714 201.954 95.4612 202.025 95.321 202.165L95.251 202.235L95.8115 201.814Z" fill="#F1F2F2" stroke="#231F20" stroke-width="0.201439" stroke-miterlimit="10" stroke-linecap="round" stroke-linejoin="round"/>
        <path d="M91.7473 199.572L91.2568 199.853C91.1868 199.853 91.1868 199.853 91.1167 199.853C91.397 199.782 91.6072 199.642 91.7473 199.572Z" fill="#F1F2F2" stroke="#231F20" stroke-width="0.201439" stroke-miterlimit="10" stroke-linecap="round" stroke-linejoin="round"/>
        <path d="M91.7473 199.572L91.2568 199.853C91.1868 199.853 91.1868 199.853 91.1167 199.853C91.397 199.782 91.6072 199.642 91.7473 199.572Z" fill="#F1F2F2" stroke="#231F20" stroke-width="0.201439" stroke-miterlimit="10" stroke-linecap="round" stroke-linejoin="round"/>
        <path d="M95.8115 201.814C95.6714 201.954 95.4612 202.025 95.321 202.165L95.251 202.235L95.8115 201.814Z" fill="#F1F2F2" stroke="#231F20" stroke-width="0.201439" stroke-miterlimit="10" stroke-linecap="round" stroke-linejoin="round"/>
        <path d="M99.104 199.712C98.4034 201.394 97.4225 202.585 96.0912 203.356L95.9511 203.426C93.5688 204.827 90.2757 204.617 86.6323 202.585L87.5432 202.025C90.556 203.356 93.2185 203.356 95.2504 202.235L95.3205 202.165C95.5307 202.025 95.6708 201.955 95.8109 201.814L99.104 199.712Z" fill="#414042" stroke="#231F20" stroke-width="0.201439" stroke-miterlimit="10" stroke-linecap="round" stroke-linejoin="round"/>
        <path d="M91.7473 199.572L91.2568 199.853C91.1868 199.853 91.1868 199.853 91.1167 199.853C91.397 199.782 91.6072 199.642 91.7473 199.572Z" fill="#F1F2F2" stroke="#231F20" stroke-width="0.201439" stroke-miterlimit="10" stroke-linecap="round" stroke-linejoin="round"/>
        <path d="M95.8115 201.814C95.6714 201.954 95.4612 202.025 95.321 202.165L95.251 202.235L95.8115 201.814Z" fill="#F1F2F2" stroke="#231F20" stroke-width="0.201439" stroke-miterlimit="10" stroke-linecap="round" stroke-linejoin="round"/>
        <path d="M91.7473 199.572L91.2568 199.853C91.1868 199.853 91.1868 199.853 91.1167 199.853C91.397 199.782 91.6072 199.642 91.7473 199.572Z" fill="#F1F2F2" stroke="#231F20" stroke-width="0.201439" stroke-miterlimit="10" stroke-linecap="round" stroke-linejoin="round"/>
        <path d="M70.6577 167.973L69.8169 167.482C69.887 167.412 69.957 167.272 70.0271 167.202L70.6577 167.973Z" fill="#F1F2F2" stroke="#231F20" stroke-width="0.201439" stroke-miterlimit="10" stroke-linecap="round" stroke-linejoin="round"/>
        <path d="M53.0007 139.806L52.0898 140.227C52.3701 140.016 52.6504 139.876 53.0007 139.806Z" fill="#F1F2F2" stroke="#231F20" stroke-width="0.201439" stroke-miterlimit="10" stroke-linecap="round" stroke-linejoin="round"/>
        <path d="M35.6243 139.596H35.5542C35.5542 139.526 35.6243 139.526 35.6243 139.456C35.6243 139.526 35.6243 139.596 35.6243 139.596Z" fill="#F1F2F2" stroke="#231F20" stroke-width="0.201439" stroke-miterlimit="10" stroke-linecap="round" stroke-linejoin="round"/>
        <path d="M87.2631 196.559C87.2631 197.4 87.193 198.171 87.0529 198.872C86.9828 199.292 86.9128 199.642 86.7726 200.063C86.6325 200.553 86.4924 200.974 86.2822 201.394C86.142 201.674 86.0019 201.884 85.8618 202.095C85.6516 202.445 85.4414 202.795 85.1611 203.076C84.7407 203.496 84.3203 203.916 83.8299 204.197L83.6897 204.267C81.5177 205.458 78.5749 205.318 75.2818 203.426C74.8614 203.216 74.4411 202.935 74.0907 202.655L31.5608 178.132C31.2805 177.992 31.0703 177.852 30.7901 177.712C24.2039 173.928 18.8789 164.68 18.8789 157.112C18.8789 155.571 19.0891 154.24 19.5095 153.119C20.07 151.437 21.0509 150.246 22.2421 149.475C22.3121 149.475 22.3121 149.405 22.3822 149.405C22.9427 149.125 23.5032 148.915 24.1338 148.775C24.274 148.775 24.4842 148.705 24.6243 148.705C24.7644 148.705 24.9746 148.634 25.1848 148.634L27.0766 148.494L27.497 148.424L33.5927 147.934L34.0131 147.864L37.3763 147.583L38.9878 147.443L41.9305 147.233L46.9052 146.813C47.1855 146.743 47.4657 146.743 47.746 146.743C47.8861 146.743 48.0263 146.743 48.2365 146.743C49.0772 146.743 49.9881 146.953 50.969 147.303C51.7397 147.583 52.5105 147.934 53.2812 148.354C54.4022 148.985 55.5233 149.826 56.5042 150.736C57.345 151.507 58.1858 152.418 58.9565 153.329L59.0266 153.399C59.2368 153.679 59.447 153.889 59.6572 154.17L69.9568 167.132C69.8868 167.202 69.8167 167.342 69.7466 167.412L70.5874 167.903L72.1289 169.864L72.4091 170.215L74.6512 173.087L76.8233 175.82L80.0463 179.884C80.6068 180.444 81.0973 181.075 81.5878 181.705C81.9381 182.126 82.2884 182.616 82.5687 183.107C85.091 186.89 86.8427 191.304 87.123 195.438C87.193 195.859 87.2631 196.209 87.2631 196.559Z" fill="#F1F2F2" stroke="#231F20" stroke-width="0.201439" stroke-miterlimit="10" stroke-linecap="round" stroke-linejoin="round"/>
        <path opacity="0.14" d="M87.2631 196.559C87.2631 197.4 87.193 198.171 87.0529 198.872C86.9828 199.292 86.9128 199.642 86.7726 200.063C86.6325 200.553 86.4924 200.974 86.2822 201.394C86.142 201.674 86.0019 201.884 85.8618 202.095C85.6516 202.445 85.4414 202.795 85.1611 203.076C84.7407 203.496 84.3203 203.916 83.8299 204.197L83.6897 204.267C81.5177 205.458 78.5749 205.318 75.2818 203.426C74.8614 203.216 74.4411 202.935 74.0907 202.655L31.5608 178.132C31.2805 177.992 31.0703 177.852 30.7901 177.712C24.2039 173.928 18.8789 164.68 18.8789 157.112C18.8789 155.571 19.0891 154.24 19.5095 153.119C20.07 151.437 21.0509 150.246 22.2421 149.475C22.3121 149.475 22.3121 149.405 22.3822 149.405C22.9427 149.125 23.5032 148.915 24.1338 148.775C24.274 148.775 24.4842 148.705 24.6243 148.705C24.7644 148.705 24.9746 148.634 25.1848 148.634L27.0766 148.494L27.497 148.424L33.5927 147.934L34.0131 147.864L37.3763 147.583L38.9878 147.443L41.9305 147.233L46.9052 146.813C47.1855 146.743 47.4657 146.743 47.746 146.743C47.8861 146.743 48.0263 146.743 48.2365 146.743C49.0772 146.743 49.9881 146.953 50.969 147.303C51.7397 147.583 52.5105 147.934 53.2812 148.354C54.4022 148.985 55.5233 149.826 56.5042 150.736C57.345 151.507 58.1858 152.418 58.9565 153.329L59.0266 153.399C59.2368 153.679 59.447 153.889 59.6572 154.17L69.9568 167.132C69.8868 167.202 69.8167 167.342 69.7466 167.412L70.5874 167.903L72.1289 169.864L72.4091 170.215L74.6512 173.087L76.8233 175.82L80.0463 179.884C80.6068 180.444 81.0973 181.075 81.5878 181.705C81.9381 182.126 82.2884 182.616 82.5687 183.107C85.091 186.89 86.8427 191.304 87.123 195.438C87.193 195.859 87.2631 196.209 87.2631 196.559Z" fill="black" stroke="#231F20" stroke-width="0.0802954" stroke-miterlimit="10"/>
        <path d="M70.6577 167.973L69.8169 167.482C69.887 167.412 69.957 167.272 70.0271 167.202L70.6577 167.973Z" fill="#F1F2F2" stroke="#231F20" stroke-width="0.201439" stroke-miterlimit="10" stroke-linecap="round" stroke-linejoin="round"/>
        <path d="M103.308 196.7C103.308 201.324 101.697 204.617 99.1042 206.159L98.9641 206.229C96.3016 207.77 92.6581 207.49 88.5943 205.178C88.1039 204.897 87.6134 204.547 87.123 204.267L85.4414 203.286L86.6325 202.585C90.2759 204.617 93.569 204.827 95.9512 203.426L96.0914 203.356C97.4226 202.585 98.4035 201.324 99.1042 199.712C99.6647 198.311 100.015 196.63 100.015 194.668C100.015 193.897 99.945 193.056 99.8749 192.215C99.5246 189.203 98.4736 186.12 97.0022 183.107C96.3716 181.846 95.6009 180.585 94.8302 179.393C93.9193 178.062 92.9384 176.871 91.9575 175.75L87.2631 169.794L84.8809 166.782L84.5305 166.361L82.4986 163.839L76.4029 156.132L74.4411 153.679L68.7657 146.462C68.5555 146.182 68.3453 145.902 68.0651 145.622L67.995 145.552C67.0141 144.36 65.9631 143.31 64.9121 142.329C63.7911 141.348 62.67 140.507 61.4789 139.876C59.7272 138.895 58.1157 138.335 56.6443 138.125C56.5042 138.125 56.3641 138.055 56.1539 138.055C55.7335 138.055 55.3832 137.985 55.0328 138.055C54.7526 138.055 54.4723 138.125 54.2621 138.125L46.9753 138.755L46.0644 138.825L35.5546 139.666C35.5546 139.596 35.5546 139.596 35.5546 139.526C35.5546 139.596 35.4845 139.596 35.4845 139.666L33.1723 139.876L29.3888 140.157C29.1786 140.157 28.9684 140.157 28.7582 140.227C27.8473 140.367 27.0065 140.647 26.2358 141.067C23.8536 142.469 22.3121 145.341 22.2421 149.545C20.9809 150.316 20.07 151.507 19.5095 153.189C19.0891 151.437 18.8789 149.685 18.8789 148.004C18.8789 143.31 20.5605 140.016 23.223 138.475H23.293C23.7134 138.265 24.1338 138.055 24.5542 137.914C25.0447 137.774 25.4651 137.634 26.0256 137.564C26.2358 137.564 26.446 137.494 26.6562 137.494L35.6246 136.723L47.8161 135.742L53.1411 135.322L53.7016 135.252C54.122 135.182 54.5424 135.182 54.9628 135.182C56.5743 135.182 58.3259 135.602 60.2177 136.443C60.6381 136.653 61.1286 136.863 61.549 137.144C64.1414 138.615 66.5236 140.787 68.6256 143.31L68.6957 143.38C68.9759 143.66 69.1861 144.01 69.4664 144.29L76.0526 152.628L84.1101 162.858L84.0401 162.928L84.5305 163.348L86.072 165.31L88.8746 168.813L89.1549 169.164L94.62 176.03C95.741 177.221 96.792 178.623 97.7729 180.024C98.894 181.635 99.8049 183.387 100.646 185.139C101.977 188.082 102.888 191.164 103.238 194.107C103.238 195.018 103.308 195.859 103.308 196.7Z" fill="#231F20" stroke="#231F20" stroke-width="0.201439" stroke-miterlimit="10" stroke-linecap="round" stroke-linejoin="round"/>
        <path d="M84.4604 163.278L83.8999 162.858L84.04 162.788L84.4604 163.278Z" fill="#F1F2F2" stroke="#231F20" stroke-width="0.201439" stroke-miterlimit="10" stroke-linecap="round" stroke-linejoin="round"/>
        <path d="M53.0007 139.806L52.0898 140.227C52.3701 140.016 52.6504 139.876 53.0007 139.806Z" fill="#F1F2F2" stroke="#231F20" stroke-width="0.201439" stroke-miterlimit="10" stroke-linecap="round" stroke-linejoin="round"/>
        <path d="M56.6443 138.055L56.364 138.195L56.1538 138.055C56.364 138.055 56.5041 138.055 56.6443 138.055Z" fill="#F1F2F2" stroke="#231F20" stroke-width="0.201439" stroke-miterlimit="10" stroke-linecap="round" stroke-linejoin="round"/>
        <path d="M84.7407 166.712L84.1802 166.361L84.3904 166.291L84.7407 166.712Z" fill="#F1F2F2" stroke="#231F20" stroke-width="0.201439" stroke-miterlimit="10" stroke-linecap="round" stroke-linejoin="round"/>
        <path d="M70.6577 167.973L69.8169 167.482C69.887 167.412 69.957 167.272 70.0271 167.202L70.6577 167.973Z" fill="#F1F2F2" stroke="#231F20" stroke-width="0.201439" stroke-miterlimit="10" stroke-linecap="round" stroke-linejoin="round"/>
        <path d="M37.6567 143.52L36.2554 143.66L33.8031 143.87L33.2426 143.94C33.0324 143.94 32.8923 143.94 32.6821 144.01C31.8413 144.08 31.1406 144.36 30.44 144.711L24.2041 148.424C24.6245 145.411 25.9557 143.309 27.8475 142.258C28.2679 142.048 28.6182 141.838 29.1087 141.698C30.6502 141.207 32.4018 141.278 34.2936 141.978C34.8541 142.188 35.4146 142.399 35.9751 142.679C36.2554 142.819 36.6057 142.959 36.886 143.169C37.1663 143.169 37.3765 143.38 37.6567 143.52Z" fill="#928874" stroke="#231F20" stroke-width="0.201439" stroke-miterlimit="10"/>
        <path d="M50.1982 141.838C49.988 142.048 49.8479 142.329 49.7077 142.539L46.9752 142.749L37.6564 143.52C37.3762 143.38 37.166 143.239 36.8857 143.099C36.6054 142.889 36.2551 142.749 35.9748 142.609C35.4143 142.329 34.8538 142.048 34.2933 141.908C32.3314 141.278 30.5798 141.208 29.1084 141.628L33.2423 139.876L35.5544 139.666H35.6245L46.1344 138.825C46.2745 138.895 46.3446 138.965 46.4847 139.036C46.6248 139.106 46.835 139.246 46.9752 139.316C48.0262 139.946 49.1472 140.857 50.1982 141.838Z" fill="url(#paint0_linear_1_19911)" stroke="#231F20" stroke-width="0.201439" stroke-miterlimit="10" stroke-linecap="round" stroke-linejoin="round"/>
        <path d="M33.172 139.806L29.0381 141.558C28.6177 141.698 28.1973 141.838 27.7769 142.118C25.8851 143.239 24.5539 145.341 24.1335 148.284L22.3818 149.335C22.3118 149.335 22.3118 149.405 22.2417 149.405C22.3118 145.271 23.7831 142.329 26.2354 140.927C27.0062 140.507 27.847 140.227 28.7578 140.086C28.968 140.086 29.1782 140.016 29.3884 140.016L33.172 139.806Z" fill="#414042" stroke="#231F20" stroke-width="0.201439" stroke-miterlimit="10" stroke-linecap="round" stroke-linejoin="round"/>
        <path d="M53.0007 139.806L52.0898 140.227C52.3701 140.016 52.6504 139.876 53.0007 139.806Z" fill="#F1F2F2" stroke="#231F20" stroke-width="0.201439" stroke-miterlimit="10" stroke-linecap="round" stroke-linejoin="round"/>
        <path d="M99.9447 194.668C99.9447 196.629 99.6644 198.311 99.0338 199.712L95.8108 201.814C97.7726 200.343 98.9637 197.61 98.9637 193.897C98.9637 193.126 98.8937 192.426 98.8236 191.655C98.4733 188.642 97.4223 185.489 95.8808 182.546C93.4986 177.992 89.9953 173.928 86.0716 171.686C85.6512 171.476 85.2308 171.196 84.8104 171.055L82.1479 167.622L84.1799 166.361L84.7404 166.641L87.1226 169.654L91.817 175.61C92.868 176.731 93.8489 177.992 94.6897 179.253C95.5305 180.444 96.2312 181.705 96.8618 182.967C98.3331 185.909 99.3141 189.062 99.7345 192.075C99.8746 193.056 99.9447 193.897 99.9447 194.668Z" fill="url(#paint1_linear_1_19911)" stroke="#231F20" stroke-width="0.201439" stroke-miterlimit="10" stroke-linecap="round" stroke-linejoin="round"/>
        <path d="M98.9638 193.897C98.9638 197.61 97.7727 200.343 95.8109 201.814L95.1803 202.235C93.1484 203.356 90.4859 203.356 87.473 202.025L91.2566 199.783L91.7471 199.502L91.8171 199.432C93.9191 198.171 95.2503 195.508 95.2503 191.795C95.2503 191.024 95.1803 190.254 95.1102 189.483C94.6898 186.4 93.4987 183.107 91.8171 180.164C91.4668 179.604 91.1865 179.043 90.8362 178.553C90.8362 178.483 90.7661 178.483 90.7661 178.412C89.9954 177.291 89.1546 176.17 88.2438 175.189L84.9507 171.056C85.3711 171.266 85.7915 171.476 86.2119 171.686C90.1355 173.928 93.6388 177.992 96.0211 182.546C97.5625 185.489 98.6135 188.642 98.9638 191.655C98.9638 192.426 98.9638 193.196 98.9638 193.897Z" fill="#928874" stroke="#231F20" stroke-width="0.201439" stroke-miterlimit="10"/>
        <path d="M56.6443 138.055L56.364 138.195L56.1538 138.055C56.364 138.055 56.5041 138.055 56.6443 138.055Z" fill="#F1F2F2" stroke="#231F20" stroke-width="0.201439" stroke-miterlimit="10" stroke-linecap="round" stroke-linejoin="round"/>
        <path d="M84.7407 166.712L84.1802 166.361L84.3904 166.291L84.7407 166.712Z" fill="#F1F2F2" stroke="#231F20" stroke-width="0.201439" stroke-miterlimit="10" stroke-linecap="round" stroke-linejoin="round"/>
        <path d="M70.6577 167.973L69.8169 167.482C69.887 167.412 69.957 167.272 70.0271 167.202L70.6577 167.973Z" fill="#F1F2F2" stroke="#231F20" stroke-width="0.201439" stroke-miterlimit="10" stroke-linecap="round" stroke-linejoin="round"/>
        <path d="M70.6577 167.973L69.8169 167.482C69.887 167.412 69.957 167.272 70.0271 167.202L70.6577 167.973Z" fill="#F1F2F2" stroke="#231F20" stroke-width="0.201439" stroke-miterlimit="10" stroke-linecap="round" stroke-linejoin="round"/>
        <path d="M95.2505 191.865C95.2505 195.649 93.9192 198.241 91.8173 199.502L91.7472 199.572C91.537 199.712 91.3268 199.783 91.1166 199.853C91.1867 199.853 91.1867 199.853 91.2567 199.853L87.4732 202.095L86.5623 202.655L85.3712 203.356L83.7597 204.337C84.2501 204.057 84.6705 203.636 85.0909 203.216C85.3712 202.935 85.5814 202.585 85.7916 202.235C85.9317 202.025 86.0719 201.744 86.212 201.534C86.4222 201.114 86.5623 200.693 86.7025 200.203C86.8426 199.853 86.9127 199.432 86.9827 199.012C87.1228 198.311 87.1929 197.54 87.1929 196.7C87.1929 196.349 87.1929 195.929 87.1228 195.579C86.8426 191.515 85.161 187.031 82.5686 183.247C82.2182 182.757 81.938 182.336 81.5877 181.846C81.0972 181.215 80.6067 180.584 80.0462 180.024L76.8232 175.96L74.6511 173.228L72.409 170.355L72.1288 170.005L70.6574 167.973L70.0268 167.202L59.7972 154.17C59.587 153.889 59.3768 153.679 59.1666 153.399L59.0965 153.329C58.3258 152.418 57.485 151.507 56.6442 150.736C55.5933 149.826 54.5423 148.985 53.4212 148.354C52.6505 147.864 51.8097 147.513 51.109 147.303C50.1281 146.953 49.2173 146.813 48.3765 146.743C48.2363 146.743 48.0262 146.743 47.886 146.743C47.6058 146.743 47.3255 146.743 47.0452 146.813L42.0706 147.233L39.1278 147.443L37.5163 147.584L34.1531 147.864L33.7327 147.934L27.5669 148.424L27.1466 148.494L25.2548 148.635C25.0446 148.635 24.9044 148.635 24.6943 148.705C24.5541 148.705 24.3439 148.775 24.2038 148.775C23.5732 148.915 23.0127 149.125 22.4521 149.405L24.2038 148.354L30.4396 144.641C31.1403 144.29 31.841 144.01 32.6817 143.94C32.8219 143.94 33.0321 143.87 33.2423 143.87L33.8028 143.8L36.2551 143.59L37.6564 143.45L46.9752 142.679L49.7077 142.469L50.8288 142.399L55.0327 142.048C55.313 141.978 55.5933 141.978 55.8735 141.978C57.5551 141.908 59.3768 142.469 61.4087 143.59C63.5107 144.781 65.4025 146.533 67.1541 148.564L67.2242 148.635C67.4344 148.915 67.6446 149.125 67.8548 149.405L72.339 155.081L78.785 163.208L80.3265 165.17L82.2182 167.552L84.8807 170.985L88.1738 175.119C89.0847 176.1 89.9255 177.221 90.6962 178.342C90.6962 178.412 90.7663 178.412 90.7663 178.483C91.1166 179.043 91.4669 179.534 91.7472 180.094C93.4288 183.037 94.6199 186.33 95.0403 189.413C95.2505 190.324 95.2505 191.094 95.2505 191.865Z" fill="#F1F2F2" stroke="#231F20" stroke-width="0.201439" stroke-miterlimit="10" stroke-linecap="round" stroke-linejoin="round"/>
        <path d="M70.6577 167.973L69.8169 167.482C69.887 167.412 69.957 167.272 70.0271 167.202L70.6577 167.973Z" fill="#F1F2F2" stroke="#231F20" stroke-width="0.201439" stroke-miterlimit="10" stroke-linecap="round" stroke-linejoin="round"/>
        <path d="M84.4604 163.278L83.8999 162.858L84.04 162.788L84.4604 163.278Z" fill="#F1F2F2" stroke="#231F20" stroke-width="0.201439" stroke-miterlimit="10" stroke-linecap="round" stroke-linejoin="round"/>
        <path d="M53.0007 139.806L52.0898 140.227C52.3701 140.016 52.6504 139.876 53.0007 139.806Z" fill="#F1F2F2" stroke="#231F20" stroke-width="0.201439" stroke-miterlimit="10" stroke-linecap="round" stroke-linejoin="round"/>
        <path d="M56.6443 138.055L56.364 138.195L56.1538 138.055C56.364 138.055 56.5041 138.055 56.6443 138.055Z" fill="#F1F2F2" stroke="#231F20" stroke-width="0.201439" stroke-miterlimit="10" stroke-linecap="round" stroke-linejoin="round"/>
        <path d="M84.7407 166.712L84.1802 166.361L84.3904 166.291L84.7407 166.712Z" fill="#F1F2F2" stroke="#231F20" stroke-width="0.201439" stroke-miterlimit="10" stroke-linecap="round" stroke-linejoin="round"/>
        <path d="M56.6443 138.055L56.364 138.195L56.1538 138.055C56.364 138.055 56.5041 138.055 56.6443 138.055Z" fill="#F1F2F2" stroke="#231F20" stroke-width="0.201439" stroke-miterlimit="10" stroke-linecap="round" stroke-linejoin="round"/>
        <path d="M84.7407 166.712L84.1802 166.361L84.3904 166.291L84.7407 166.712Z" fill="#F1F2F2" stroke="#231F20" stroke-width="0.201439" stroke-miterlimit="10" stroke-linecap="round" stroke-linejoin="round"/>
        <path d="M84.4604 163.278L83.8999 162.858L84.04 162.788L84.4604 163.278Z" fill="#F1F2F2" stroke="#231F20" stroke-width="0.201439" stroke-miterlimit="10" stroke-linecap="round" stroke-linejoin="round"/>
        <path d="M123.207 175.259C123.207 179.043 121.876 181.635 119.774 182.897L119.704 182.967L119.564 182.827C118.793 178.553 116.901 174.208 114.309 170.355C113.328 168.954 112.277 167.622 111.156 166.361L86.0724 134.551C85.8622 134.201 85.5819 133.921 85.3016 133.64L85.2316 133.57C83.1296 131.048 80.7474 128.876 78.1549 127.405C77.174 126.844 76.2632 126.424 75.4224 126.073L82.9895 125.443C84.8112 125.162 87.0533 125.653 89.3654 126.984C91.4674 128.175 93.3592 129.927 95.1108 131.959L95.1809 132.029C95.3911 132.309 95.6013 132.519 95.8115 132.8L116.131 158.514C117.041 159.495 117.882 160.616 118.653 161.737C121.456 165.941 123.207 170.845 123.207 175.259Z" fill="#F1F2F2" stroke="#231F20" stroke-width="0.201439" stroke-miterlimit="10" stroke-linecap="round" stroke-linejoin="round"/>
        <path d="M119.703 182.967L119.633 183.037C119.633 182.967 119.633 182.897 119.633 182.827L119.703 182.967Z" fill="#F1F2F2" stroke="#231F20" stroke-width="0.201439" stroke-miterlimit="10" stroke-linecap="round" stroke-linejoin="round"/>
        <path d="M84.4604 163.278L83.8999 162.858L84.04 162.788L84.4604 163.278Z" fill="#F1F2F2" stroke="#231F20" stroke-width="0.201439" stroke-miterlimit="10" stroke-linecap="round" stroke-linejoin="round"/>
        <path d="M56.3639 138.195L55.1728 138.755L53.0007 139.806C52.6504 139.946 52.3701 140.086 52.0899 140.227C51.3892 140.647 50.7586 141.137 50.2682 141.838C49.2172 140.857 48.0961 140.016 46.9751 139.246C46.8349 139.176 46.6247 139.035 46.4846 138.965C46.3445 138.895 46.2744 138.825 46.1343 138.755L47.0451 138.685L54.332 138.055C54.6122 137.984 54.8224 137.984 55.1027 137.984C55.453 137.984 55.8734 137.984 56.2237 137.984L56.3639 138.195Z" fill="#414042" stroke="#231F20" stroke-width="0.201439" stroke-miterlimit="10" stroke-linecap="round" stroke-linejoin="round"/>
        <path d="M72.2692 155.08L67.785 149.405C67.5748 149.125 67.3646 148.915 67.1544 148.634V148.634C65.4728 146.603 63.511 144.851 61.409 143.66C59.4471 142.539 57.5554 141.978 55.8738 142.048C55.5935 142.048 55.3133 142.048 55.033 142.118L50.8291 142.469L49.708 142.539C49.8481 142.258 49.9883 142.048 50.1985 141.838C50.6889 141.207 51.3195 140.647 52.0202 140.227L52.931 139.806C53.6317 139.526 54.4024 139.386 55.2432 139.386C56.1541 139.386 57.135 139.526 58.186 139.806C59.0968 140.086 60.0777 140.507 61.1287 141.137C64.562 143.169 67.7149 146.532 70.0271 150.456C70.9379 151.928 71.6386 153.469 72.2692 155.08Z" fill="#928874" stroke="#231F20" stroke-width="0.201439" stroke-miterlimit="10"/>
        <path d="M53.0007 139.806L52.0898 140.227C52.3701 140.016 52.6504 139.876 53.0007 139.806Z" fill="#F1F2F2" stroke="#231F20" stroke-width="0.201439" stroke-miterlimit="10" stroke-linecap="round" stroke-linejoin="round"/>
        <path d="M56.6443 138.055L56.364 138.195L56.1538 138.055C56.364 138.055 56.5041 138.055 56.6443 138.055Z" fill="#F1F2F2" stroke="#231F20" stroke-width="0.201439" stroke-miterlimit="10" stroke-linecap="round" stroke-linejoin="round"/>
        <path d="M84.3905 166.291L84.1803 166.361L82.2184 167.622L80.3267 165.17L81.1674 164.609L82.4987 163.839L84.3905 166.291Z" fill="#414042" stroke="#231F20" stroke-width="0.201439" stroke-miterlimit="10" stroke-linecap="round" stroke-linejoin="round"/>
        <path d="M84.7407 166.712L84.1802 166.361L84.3904 166.291L84.7407 166.712Z" fill="#F1F2F2" stroke="#231F20" stroke-width="0.201439" stroke-miterlimit="10" stroke-linecap="round" stroke-linejoin="round"/>
        <path d="M82.4989 163.839L81.1677 164.609L80.2568 165.17L78.7154 163.208L72.2693 155.081C71.6387 153.469 70.868 151.928 70.0272 150.456C67.715 146.533 64.5621 143.169 61.1288 141.137C60.1479 140.577 59.167 140.157 58.1861 139.806C57.1351 139.456 56.1542 139.316 55.2433 139.386C54.4025 139.386 53.6318 139.526 52.9312 139.806L55.1032 138.755L56.2943 138.195L56.5746 138.055C58.116 138.265 59.7275 138.825 61.4091 139.806C62.6002 140.507 63.7213 141.348 64.8423 142.259C65.9634 143.239 66.9443 144.29 67.9252 145.482L67.9953 145.552C68.2055 145.832 68.4857 146.112 68.6959 146.392L74.3713 153.609L76.3331 156.061L82.4989 163.839Z" fill="url(#paint2_linear_1_19911)" stroke="#231F20" stroke-width="0.201439" stroke-miterlimit="10" stroke-linecap="round" stroke-linejoin="round"/>
        <path d="M56.6443 138.055L56.364 138.195L56.1538 138.055C56.364 138.055 56.5041 138.055 56.6443 138.055Z" fill="#F1F2F2" stroke="#231F20" stroke-width="0.201439" stroke-miterlimit="10" stroke-linecap="round" stroke-linejoin="round"/>
        <path d="M84.4604 163.278L83.8999 162.858L84.04 162.788L84.4604 163.278Z" fill="#F1F2F2" stroke="#231F20" stroke-width="0.201439" stroke-miterlimit="10" stroke-linecap="round" stroke-linejoin="round"/>
        <path d="M119.703 182.967L119.633 183.037C119.633 182.967 119.633 182.897 119.633 182.827L119.703 182.967Z" fill="#F1F2F2" stroke="#231F20" stroke-width="0.201439" stroke-miterlimit="10" stroke-linecap="round" stroke-linejoin="round"/>
        <path d="M119.984 186.96C119.984 191.585 118.372 194.878 115.78 196.419L115.64 196.489L99.1041 206.158C101.697 204.617 103.308 201.324 103.308 196.7C103.308 195.859 103.238 195.018 103.168 194.177C102.818 191.234 101.907 188.152 100.575 185.209C99.7347 183.457 98.8239 181.706 97.7028 180.094C96.7219 178.693 95.6709 177.361 94.5498 176.1L89.0847 169.234L88.8045 168.883L86.0018 165.38L84.4604 163.418L84.04 162.928L75.9824 152.558L69.3962 144.22C69.186 143.87 68.9058 143.59 68.6255 143.309L68.5554 143.239C66.4535 140.717 64.0712 138.545 61.4788 137.074C60.9883 136.793 60.568 136.583 60.1476 136.373C58.2558 135.462 56.5041 135.042 54.8926 135.112C54.4722 135.112 54.0518 135.182 53.6314 135.182L53.0709 135.252L47.7459 135.672L35.6245 136.723L26.6561 137.494C26.4459 137.494 26.2357 137.494 26.0255 137.564C25.5351 137.634 25.0446 137.704 24.5542 137.914C24.1338 138.055 23.7134 138.265 23.293 138.475L39.8986 128.666C40.3189 128.456 40.7393 128.245 41.2298 128.105C41.7203 127.965 42.1407 127.825 42.7012 127.755C42.9114 127.755 43.1216 127.685 43.3318 127.685L70.3772 125.443C71.9186 125.233 73.6703 125.373 75.492 126.073C76.4028 126.424 77.3137 126.844 78.2245 127.405C80.817 128.876 83.1992 131.048 85.3012 133.57L85.3712 133.64C85.6515 133.921 85.8617 134.271 86.142 134.551L111.225 166.361C112.347 167.552 113.398 168.954 114.378 170.355C116.971 174.138 118.863 178.553 119.633 182.827C119.633 182.897 119.633 182.967 119.633 183.037C119.844 184.368 119.984 185.699 119.984 186.96Z" fill="#414042" stroke="#231F20" stroke-width="0.201439" stroke-miterlimit="10" stroke-linecap="round" stroke-linejoin="round"/>
    </g>
    <defs>
        <linearGradient id="paint0_linear_1_19911" x1="29.0842" y1="141.134" x2="50.2221" y2="141.134" gradientUnits="userSpaceOnUse">
            <stop stop-color="#58595B"/>
            <stop offset="1"/>
        </linearGradient>
        <linearGradient id="paint1_linear_1_19911" x1="82.1947" y1="184.107" x2="99.9584" y2="184.107" gradientUnits="userSpaceOnUse">
            <stop stop-color="#58595B"/>
            <stop offset="1"/>
        </linearGradient>
        <linearGradient id="paint2_linear_1_19911" x1="52.9729" y1="151.638" x2="82.4641" y2="151.638" gradientUnits="userSpaceOnUse">
            <stop stop-color="#58595B"/>
            <stop offset="1"/>
        </linearGradient>
        <clipPath id="">
            <rect width="104.538" height="81.9769" fill="white" transform="translate(18.8096 125.303)"/>
        </clipPath>
    </defs>
</svg>
