<svg width="230" height="230" viewBox="0 0 230 230" fill="none"
    xmlns="http://www.w3.org/2000/svg">
    <g clip-path="url(#)">
        <path d="M127.131 120.048L160.132 139.316L177.368 130.277L123.207 97.0662L127.131 120.048Z" fill="#F1F2F2" stroke="#231F20" stroke-width="0.201439" stroke-miterlimit="10" stroke-linecap="round" stroke-linejoin="round"/>
        <path d="M127.131 120.048L160.132 139.316L177.368 130.277L123.207 97.0662L127.131 120.048Z" fill="#F1F2F2" stroke="#231F20" stroke-width="0.201439" stroke-miterlimit="10" stroke-linecap="round" stroke-linejoin="round"/>
        <path opacity="0.2" d="M127.131 120.048L160.132 139.316L177.368 130.277L123.207 97.0662L127.131 120.048Z" fill="black" stroke="#231F20" stroke-width="0.0802954" stroke-miterlimit="10"/>
        <path d="M195.166 149.826C195.166 155.011 193.414 158.724 190.611 160.546L189.911 160.966L174.286 170.075C177.089 168.323 178.84 164.82 178.98 159.915C178.98 159.845 178.98 159.775 178.98 159.705C178.98 159.565 178.98 159.425 178.98 159.214C178.98 158.444 178.91 157.673 178.84 156.902C177.929 147.093 171.413 136.093 163.286 130.698C163.286 130.698 163.286 130.698 163.216 130.698L161.114 129.507L159.712 128.666L133.017 113.041L109.615 99.3082L108.704 98.7477C108.494 98.6076 108.284 98.5375 108.074 98.3974C107.934 98.3273 107.794 98.2573 107.653 98.1872C103.94 96.2954 100.507 96.0152 97.8442 97.0661L112.768 88.2379L112.978 88.1678C116.061 86.3461 120.265 86.6263 124.96 89.3589L177.369 120.118L179.471 121.309C179.471 121.309 179.471 121.309 179.541 121.309C188.229 127.054 195.166 139.526 195.166 149.826Z" fill="#414042" stroke="#231F20" stroke-width="0.201439" stroke-miterlimit="10" stroke-linecap="round" stroke-linejoin="round"/>
        <path d="M161.043 138.615L161.183 138.545L161.323 138.825C161.183 138.755 161.113 138.685 161.043 138.615Z" fill="#F1F2F2" stroke="#231F20" stroke-width="0.0802954" stroke-miterlimit="10" stroke-linecap="round" stroke-linejoin="round"/>
        <path d="M178.91 159.705C178.91 159.775 178.91 159.845 178.91 159.915C178.84 159.915 178.77 159.845 178.77 159.845L178.91 159.705Z" fill="#F1F2F2" stroke="#231F20" stroke-width="0.0802954" stroke-miterlimit="10" stroke-linecap="round" stroke-linejoin="round"/>
        <path d="M178.91 159.285C178.91 158.514 178.84 157.743 178.77 156.972C177.859 147.163 171.343 136.163 163.215 130.768C163.215 130.768 163.215 130.768 163.145 130.768L161.043 129.577L159.642 128.736L133.017 113.041L109.615 99.3082L108.704 98.7477C108.494 98.6076 108.284 98.5375 108.073 98.3974C107.933 98.3273 107.793 98.2572 107.653 98.1872C103.939 96.2954 100.506 96.0151 97.8438 97.0661L95.6017 98.3974C93.2194 100.359 91.748 103.792 91.748 108.487C91.748 118.857 98.7546 131.398 107.653 137.144L108.704 137.774L109.475 138.265L159.852 167.692C160.553 168.183 161.253 168.673 161.954 169.094C166.718 171.826 171.062 172.037 174.145 170.145C176.948 168.393 178.7 164.89 178.84 159.985C178.77 159.985 178.7 159.915 178.7 159.915L178.84 159.845C178.91 159.565 178.91 159.425 178.91 159.285ZM175.827 158.023C175.827 158.163 175.827 158.234 175.827 158.374C175.757 159.635 175.617 160.756 175.407 161.807C174.776 164.399 173.445 166.291 171.693 167.342C168.961 169.024 165.177 168.884 160.903 166.431C160.272 166.081 159.642 165.661 159.011 165.24L110.526 136.863L109.825 136.443L108.914 135.883C101.067 130.908 94.8309 119.838 94.8309 110.589C94.8309 106.455 96.0921 103.372 98.1941 101.62C98.7546 101.13 99.4553 100.71 100.156 100.429C101.417 99.9388 102.818 99.7987 104.36 100.009C105.551 100.149 106.812 100.499 108.073 101.13C108.424 101.27 108.774 101.48 109.194 101.69C109.335 101.761 109.545 101.831 109.685 101.971C109.685 101.971 109.755 101.971 109.755 102.041L133.577 115.984L157.47 129.997L160.062 131.538L161.884 132.589C169.031 137.284 174.776 146.953 175.617 155.571C175.687 156.342 175.757 157.112 175.757 157.813C175.827 157.883 175.827 157.953 175.827 158.023Z" fill="#231F20" stroke="#231F20" stroke-width="0.201439" stroke-miterlimit="10" stroke-linecap="round" stroke-linejoin="round"/>
        <path d="M97.8437 97.0662L95.6016 98.3974C96.3022 97.7668 97.0029 97.3464 97.8437 97.0662Z" fill="#F1F2F2" stroke="#231F20" stroke-width="0.0802954" stroke-miterlimit="10" stroke-linecap="round" stroke-linejoin="round"/>
        <path d="M109.545 108.137C109.475 108.067 109.335 107.996 109.265 107.926H109.335L109.405 107.856L109.545 108.137Z" fill="#F1F2F2" stroke="#231F20" stroke-width="0.0802954" stroke-miterlimit="10" stroke-linecap="round" stroke-linejoin="round"/>
        <path d="M161.043 138.615L161.183 138.545L161.323 138.825C161.183 138.755 161.113 138.685 161.043 138.615Z" fill="#F1F2F2" stroke="#231F20" stroke-width="0.0802954" stroke-miterlimit="10" stroke-linecap="round" stroke-linejoin="round"/>
        <path d="M178.91 159.705C178.91 159.775 178.91 159.845 178.91 159.915C178.84 159.915 178.77 159.845 178.77 159.845L178.91 159.705Z" fill="#F1F2F2" stroke="#231F20" stroke-width="0.0802954" stroke-miterlimit="10" stroke-linecap="round" stroke-linejoin="round"/>
        <path d="M175.406 161.737C174.776 164.329 173.444 166.221 171.693 167.272C168.96 168.954 165.177 168.813 160.903 166.361C160.272 166.011 159.641 165.59 159.011 165.17L110.525 136.863L109.825 136.443L108.914 135.883C101.066 130.908 94.8306 119.838 94.8306 110.589C94.8306 106.455 96.0918 103.372 98.1937 101.62C98.7542 101.13 99.4549 100.71 100.156 100.429C101.417 99.9388 102.818 99.7987 104.36 100.009L100.085 102.531L99.9454 102.601C97.6332 103.933 96.1618 106.875 96.1618 110.939C96.1618 119.207 101.977 129.226 109.054 133.29C112.627 135.392 115.92 135.532 118.233 134.131L118.303 134.061L126.71 129.296L128.883 128.035L148.081 139.246C147.94 140.016 147.87 140.787 147.87 141.628V141.698C147.87 149.896 153.686 159.915 160.762 164.049C164.336 166.151 167.629 166.291 169.941 164.89L170.011 164.82L175.406 161.737Z" fill="#58595B" stroke="#231F20" stroke-width="0.0802954" stroke-miterlimit="10" stroke-linecap="round" stroke-linejoin="round"/>
        <path d="M109.545 108.137C109.475 108.067 109.335 107.996 109.265 107.926H109.335L109.405 107.856L109.545 108.137Z" fill="#F1F2F2" stroke="#231F20" stroke-width="0.0802954" stroke-miterlimit="10" stroke-linecap="round" stroke-linejoin="round"/>
        <path d="M161.043 138.615L161.183 138.545L161.323 138.825C161.183 138.755 161.113 138.685 161.043 138.615Z" fill="#F1F2F2" stroke="#231F20" stroke-width="0.0802954" stroke-miterlimit="10" stroke-linecap="round" stroke-linejoin="round"/>
        <path d="M161.043 138.615L161.183 138.545L161.323 138.825C161.183 138.755 161.113 138.685 161.043 138.615Z" fill="#F1F2F2" stroke="#231F20" stroke-width="0.0802954" stroke-miterlimit="10" stroke-linecap="round" stroke-linejoin="round"/>
        <path d="M179.471 121.239L177.369 120.048C177.649 120.188 177.999 120.398 178.28 120.538C178.7 120.748 179.05 121.029 179.471 121.239Z" fill="#F1F2F2" stroke="#231F20" stroke-width="0.0802954" stroke-miterlimit="10" stroke-linecap="round" stroke-linejoin="round"/>
        <path d="M121.946 125.022C121.946 124.952 121.946 124.812 121.946 124.742C121.946 124.672 121.946 124.602 121.946 124.532C121.946 124.322 121.876 124.041 121.876 123.831V123.761C121.876 123.761 121.876 123.761 121.876 123.691C121.876 123.621 121.876 123.551 121.876 123.481C121.876 123.341 121.806 123.201 121.806 123.06C121.806 122.92 121.736 122.78 121.736 122.64C121.736 122.57 121.736 122.43 121.666 122.36C121.666 122.29 121.666 122.15 121.596 122.08C121.596 121.939 121.526 121.869 121.526 121.729C121.526 121.589 121.456 121.519 121.456 121.379C121.456 121.309 121.386 121.169 121.386 121.099C121.386 120.958 121.316 120.818 121.316 120.678C121.316 120.538 121.246 120.468 121.246 120.328C121.176 120.118 121.106 119.907 121.106 119.697C121.035 119.417 120.965 119.137 120.825 118.927C120.755 118.716 120.685 118.436 120.615 118.226C120.545 117.946 120.405 117.665 120.335 117.385C120.265 117.245 120.265 117.175 120.195 117.035C120.195 116.965 120.125 116.895 120.125 116.825C120.055 116.684 120.055 116.614 119.984 116.474C119.774 116.264 119.704 116.194 119.704 116.054C119.634 115.844 119.564 115.633 119.424 115.493C119.424 115.423 119.354 115.353 119.354 115.283C119.354 115.283 119.354 115.283 119.354 115.213C119.284 115.003 119.144 114.863 119.074 114.653C118.933 114.442 118.863 114.232 118.723 113.952C118.583 113.742 118.513 113.532 118.373 113.251C118.303 113.111 118.233 113.041 118.163 112.901C118.023 112.691 117.882 112.481 117.742 112.27C117.672 112.13 117.602 112.06 117.532 111.92C117.182 111.359 116.761 110.799 116.411 110.238C116.341 110.168 116.271 110.028 116.201 109.958C115.991 109.678 115.851 109.468 115.64 109.257C115.57 109.187 115.5 109.117 115.43 109.047C115.22 108.767 115.01 108.557 114.8 108.277C114.73 108.207 114.659 108.136 114.589 108.066C114.519 107.996 114.449 107.926 114.379 107.856C114.239 107.716 114.169 107.576 114.029 107.506C113.889 107.366 113.749 107.226 113.608 107.085C113.538 107.015 113.538 107.015 113.468 106.945C113.398 106.875 113.398 106.875 113.328 106.805C113.258 106.735 113.188 106.665 113.118 106.595C113.048 106.525 112.978 106.455 112.978 106.455C112.908 106.385 112.838 106.315 112.768 106.245C112.768 106.245 112.768 106.245 112.698 106.245C112.557 106.105 112.417 106.034 112.277 105.894C112.207 105.824 112.067 105.754 111.997 105.684C111.927 105.614 111.857 105.544 111.717 105.474C111.647 105.404 111.507 105.334 111.436 105.264C111.366 105.194 111.226 105.124 111.156 105.054C110.806 104.773 110.456 104.493 110.035 104.283C109.755 104.143 109.545 103.932 109.264 103.792C109.194 103.582 109.124 103.582 109.054 103.512C108.914 103.442 108.844 103.372 108.704 103.302C108.564 103.232 108.494 103.162 108.354 103.092C108.283 103.022 108.143 103.022 108.073 102.952C104.99 101.48 102.188 101.41 100.086 102.531L99.9457 102.601C97.6335 103.932 96.1621 106.875 96.1621 110.939C96.1621 119.207 101.978 129.226 109.054 133.29C112.628 135.392 115.921 135.532 118.233 134.131L118.303 134.061C120.335 132.8 121.666 130.347 121.876 126.914C121.876 126.774 121.876 126.634 121.876 126.494V126.424C121.876 126.354 121.876 126.354 121.876 126.283C121.876 126.143 121.876 126.003 121.876 125.863C122.016 125.583 121.946 125.303 121.946 125.022ZM118.233 124.532C118.163 125.653 117.953 126.564 117.602 127.334C117.182 128.315 116.481 129.086 115.71 129.577L115.64 129.647C113.959 130.628 111.647 130.487 109.054 129.016C104.009 126.143 99.8756 118.997 99.8756 113.111C99.8756 110.168 100.927 108.136 102.538 107.156L102.678 107.085C103.449 106.665 104.29 106.525 105.271 106.525C106.252 106.595 107.303 106.875 108.424 107.436C108.634 107.576 108.914 107.646 109.124 107.786C109.194 107.856 109.264 107.856 109.334 107.926H109.405L109.475 107.856L109.615 108.136C109.615 108.136 109.615 108.136 109.685 108.136C109.755 108.207 109.895 108.277 109.965 108.347C110.035 108.417 110.105 108.487 110.175 108.487C110.385 108.627 110.666 108.837 110.876 108.977C110.946 109.047 111.086 109.117 111.156 109.187C111.226 109.187 111.226 109.257 111.296 109.257C111.366 109.328 111.436 109.328 111.436 109.398C111.577 109.468 111.647 109.608 111.787 109.748C111.857 109.818 111.927 109.888 112.067 109.958C112.137 110.028 112.207 110.098 112.277 110.168L112.347 110.238C112.557 110.449 112.698 110.589 112.908 110.799C112.978 110.939 113.118 111.009 113.188 111.149C113.258 111.219 113.328 111.289 113.328 111.359C113.538 111.57 113.749 111.85 113.959 112.13C114.029 112.2 114.029 112.27 114.099 112.27C114.169 112.34 114.239 112.41 114.239 112.481C114.309 112.551 114.309 112.621 114.379 112.691C114.589 112.971 114.8 113.251 114.94 113.532C115.08 113.672 115.15 113.882 115.22 114.022C115.5 114.512 115.781 114.933 115.991 115.423C116.061 115.563 116.131 115.704 116.201 115.844C116.271 115.984 116.341 116.124 116.411 116.264C116.551 116.544 116.691 116.825 116.761 117.105C116.761 117.105 116.761 117.175 116.832 117.175V117.245C116.832 117.315 116.902 117.385 116.902 117.455V117.525C116.902 117.595 116.972 117.595 116.972 117.665C117.112 117.946 117.182 118.226 117.252 118.506C117.322 118.646 117.322 118.716 117.392 118.857C117.462 119.067 117.532 119.347 117.602 119.557C117.602 119.627 117.672 119.767 117.672 119.837C117.742 120.118 117.812 120.398 117.882 120.748C117.882 120.748 117.882 120.818 117.882 120.888C117.882 120.958 117.882 121.029 117.953 121.099C117.953 121.169 117.953 121.309 118.023 121.379C118.023 121.519 118.093 121.589 118.093 121.729C118.093 121.799 118.093 121.939 118.163 122.009C118.163 122.08 118.163 122.22 118.163 122.29C118.163 122.36 118.163 122.43 118.163 122.5C118.163 122.5 118.163 122.5 118.163 122.57C118.163 122.64 118.163 122.71 118.163 122.78C118.163 122.85 118.163 122.92 118.163 122.99C118.163 123.201 118.163 123.481 118.163 123.691C118.233 124.041 118.233 124.252 118.233 124.532Z" fill="#231F20" stroke="#231F20" stroke-width="0.201439" stroke-miterlimit="10" stroke-linecap="round" stroke-linejoin="round"/>
        <path d="M109.545 108.137C109.475 108.067 109.335 107.996 109.265 107.926H109.335L109.405 107.856L109.545 108.137Z" fill="#F1F2F2" stroke="#231F20" stroke-width="0.0802954" stroke-miterlimit="10" stroke-linecap="round" stroke-linejoin="round"/>
        <path d="M117.602 127.334C117.182 128.315 116.481 129.086 115.71 129.577L115.64 129.647C113.959 130.628 111.647 130.487 109.054 129.016C104.009 126.143 99.8755 118.997 99.8755 113.111C99.8755 110.168 100.926 108.136 102.538 107.155L102.678 107.085C103.449 106.665 104.29 106.525 105.271 106.525C104.85 107.506 104.57 108.697 104.57 110.168C104.57 110.308 104.57 110.519 104.57 110.659C103.799 111.43 103.379 112.621 103.379 114.162C103.379 118.156 106.181 122.92 109.615 124.952C110.946 125.723 112.137 125.933 113.188 125.723C113.398 125.863 113.608 126.003 113.819 126.073C115.08 126.914 116.411 127.334 117.602 127.334Z" fill="#49443A" stroke="#231F20" stroke-width="0.0802954" stroke-miterlimit="10" stroke-linecap="round" stroke-linejoin="round"/>
        <path d="M109.264 107.926L105.27 110.168L105.2 110.239C104.99 110.379 104.78 110.519 104.57 110.729C104.57 110.589 104.57 110.379 104.57 110.239C104.57 108.837 104.78 107.576 105.27 106.595C106.251 106.665 107.302 106.945 108.423 107.506C108.634 107.646 108.914 107.716 109.124 107.856C109.124 107.856 109.194 107.926 109.264 107.926Z" fill="#6E6657" stroke="#231F20" stroke-width="0.0802954" stroke-miterlimit="10" stroke-linecap="round" stroke-linejoin="round"/>
        <path d="M118.233 123.761C118.233 124.041 118.233 124.322 118.233 124.532C118.163 125.653 117.953 126.564 117.602 127.335C116.411 127.264 115.15 126.844 113.749 126.073C113.539 125.933 113.328 125.863 113.118 125.723C113.468 125.653 113.749 125.513 114.029 125.373H114.099L118.023 123.201L118.233 123.061C118.233 123.271 118.233 123.481 118.233 123.761Z" fill="#6E6657" stroke="#231F20" stroke-width="0.0802954" stroke-miterlimit="10" stroke-linecap="round" stroke-linejoin="round"/>
        <path d="M109.545 108.137C109.475 108.067 109.335 107.996 109.265 107.926H109.335L109.405 107.856L109.545 108.137Z" fill="#F1F2F2" stroke="#231F20" stroke-width="0.0802954" stroke-miterlimit="10" stroke-linecap="round" stroke-linejoin="round"/>
        <path d="M109.545 108.137C109.475 108.067 109.335 107.996 109.265 107.926C109.265 107.926 109.335 107.926 109.335 107.856L109.405 107.786L109.545 108.137Z" fill="#F1F2F2" stroke="#231F20" stroke-width="0.0802954" stroke-miterlimit="10" stroke-linecap="round" stroke-linejoin="round"/>
        <path d="M115.85 121.379C115.85 121.589 115.85 121.729 115.85 121.939C115.85 122.5 115.71 122.99 115.57 123.411C115.29 124.322 114.799 124.952 114.099 125.373H114.029C113.748 125.513 113.468 125.653 113.118 125.723C112.137 125.933 110.876 125.723 109.544 124.952C106.111 122.99 103.309 118.156 103.309 114.162C103.309 112.621 103.729 111.43 104.5 110.659C104.71 110.449 104.92 110.309 105.13 110.168L105.2 110.098C105.901 109.748 106.742 109.608 107.723 109.818C108.143 109.888 108.564 110.098 109.054 110.309C109.194 110.379 109.334 110.449 109.544 110.589C109.755 110.729 109.895 110.799 110.105 110.939C110.175 111.009 110.245 111.009 110.315 111.079C110.525 111.219 110.665 111.36 110.876 111.5C111.016 111.64 111.156 111.71 111.296 111.85C111.366 111.92 111.436 111.92 111.436 111.99C111.436 111.99 111.436 111.99 111.506 112.06C111.576 112.13 111.646 112.2 111.716 112.27C111.787 112.34 111.927 112.481 111.997 112.551C112.137 112.691 112.207 112.831 112.347 112.971C113.538 114.302 114.449 115.984 115.08 117.665C115.08 117.736 115.15 117.806 115.15 117.876C115.15 117.946 115.15 117.946 115.22 118.016C115.29 118.226 115.36 118.436 115.43 118.646C115.43 118.716 115.5 118.787 115.5 118.857C115.57 118.997 115.57 119.207 115.64 119.347V119.417C115.64 119.487 115.64 119.487 115.64 119.557C115.64 119.697 115.71 119.838 115.71 119.978C115.71 120.118 115.71 120.258 115.78 120.328V120.398C115.78 120.538 115.78 120.678 115.78 120.748C115.78 121.169 115.85 121.239 115.85 121.379Z" fill="#6E6657" stroke="#231F20" stroke-width="0.0802954" stroke-miterlimit="10" stroke-linecap="round" stroke-linejoin="round"/>
        <path d="M133.857 118.997C133.857 123.481 132.106 126.494 129.443 127.685L128.812 128.035L126.71 129.296L118.373 134.131C120.405 132.87 121.736 130.417 121.946 126.984C121.946 126.844 121.946 126.704 121.946 126.564V126.494C121.946 126.424 121.946 126.424 121.946 126.354C121.946 126.214 121.946 126.073 121.946 125.933C121.946 125.653 121.946 125.373 121.946 125.022C121.946 124.952 121.946 124.812 121.946 124.742C121.946 124.672 121.946 124.602 121.946 124.532C121.946 124.322 121.876 124.041 121.876 123.831V123.761C121.876 123.761 121.876 123.761 121.876 123.691C121.876 123.621 121.876 123.551 121.876 123.481C121.876 123.341 121.806 123.201 121.806 123.061C121.806 122.92 121.736 122.78 121.736 122.64C121.736 122.57 121.736 122.43 121.666 122.36C121.666 122.29 121.666 122.15 121.596 122.08C121.596 121.939 121.526 121.869 121.526 121.729C121.526 121.589 121.456 121.519 121.456 121.379C121.456 121.309 121.385 121.169 121.385 121.099C121.385 120.959 121.315 120.818 121.315 120.678C121.315 120.538 121.245 120.468 121.245 120.328C121.175 120.118 121.105 119.908 121.105 119.697C121.035 119.417 120.965 119.137 120.825 118.927C120.755 118.716 120.685 118.436 120.615 118.226C120.545 117.946 120.405 117.665 120.334 117.385C120.264 117.245 120.264 117.175 120.194 117.035C120.194 116.965 120.124 116.895 120.124 116.825C120.054 116.685 120.054 116.614 119.984 116.474C119.774 116.264 119.704 116.194 119.704 116.054C119.634 115.844 119.564 115.634 119.424 115.493C119.424 115.423 119.354 115.353 119.354 115.283C119.354 115.283 119.354 115.283 119.354 115.213C119.283 115.003 119.143 114.863 119.073 114.653C118.933 114.442 118.863 114.232 118.723 113.952C118.583 113.742 118.513 113.532 118.373 113.251C118.303 113.111 118.232 113.041 118.162 112.901C118.022 112.691 117.882 112.481 117.742 112.27C117.672 112.13 117.602 112.06 117.532 111.92C117.181 111.36 116.761 110.799 116.411 110.239C116.341 110.168 116.271 110.028 116.201 109.958C115.99 109.678 115.85 109.468 115.64 109.258C115.57 109.188 115.5 109.117 115.43 109.047C115.22 108.767 115.009 108.557 114.799 108.277C114.729 108.207 114.659 108.137 114.589 108.066C114.519 107.996 114.449 107.926 114.379 107.856C114.239 107.716 114.169 107.576 114.029 107.506C113.888 107.366 113.748 107.226 113.608 107.086C113.538 107.015 113.538 107.015 113.468 106.945C113.398 106.875 113.398 106.875 113.328 106.805C113.258 106.735 113.188 106.665 113.118 106.595C113.048 106.525 112.978 106.455 112.978 106.455C112.907 106.385 112.837 106.315 112.767 106.245C112.767 106.245 112.767 106.245 112.697 106.245C112.557 106.105 112.417 106.035 112.277 105.894C112.207 105.824 112.067 105.754 111.997 105.684C111.927 105.614 111.856 105.544 111.716 105.474C111.646 105.404 111.506 105.334 111.436 105.264C111.366 105.194 111.226 105.124 111.156 105.054C110.806 104.773 110.455 104.493 110.035 104.283C109.755 104.143 109.544 103.933 109.264 103.792C109.194 103.582 109.124 103.582 109.054 103.512C108.914 103.442 108.844 103.372 108.704 103.302C108.563 103.232 108.493 103.162 108.353 103.092C108.283 103.022 108.143 103.022 108.073 102.952C104.99 101.48 102.187 101.41 100.085 102.531L104.43 100.009C105.621 100.149 106.882 100.499 108.143 101.13C108.493 101.27 108.844 101.48 109.264 101.69C109.404 101.761 109.614 101.831 109.755 101.971C109.755 101.971 109.825 101.971 109.825 102.041L133.647 115.984C133.787 117.035 133.857 118.016 133.857 118.997Z" fill="url(#paint0_linear_1_19911)" stroke="#231F20" stroke-width="0.201439" stroke-miterlimit="10" stroke-linecap="round" stroke-linejoin="round"/>
        <path d="M118.233 123.06L117.952 123.201L114.099 125.373C114.729 124.952 115.22 124.322 115.57 123.411C115.71 122.99 115.78 122.5 115.85 121.939C115.85 121.799 115.85 121.589 115.85 121.379C115.85 121.239 115.85 121.099 115.85 121.029C115.85 120.888 115.85 120.748 115.85 120.678V120.608C115.85 120.468 115.85 120.328 115.78 120.258C115.78 120.118 115.71 119.978 115.71 119.837C115.71 119.767 115.71 119.767 115.71 119.697V119.627C115.71 119.487 115.64 119.277 115.57 119.137C115.57 119.067 115.5 118.997 115.5 118.927C115.43 118.716 115.36 118.506 115.29 118.296C115.29 118.226 115.29 118.226 115.22 118.156C115.22 118.086 115.15 118.016 115.15 117.946C114.519 116.264 113.608 114.583 112.417 113.251C112.277 113.111 112.207 112.971 112.067 112.831C111.997 112.761 111.857 112.621 111.787 112.551C111.717 112.481 111.646 112.41 111.576 112.34C111.576 112.34 111.576 112.34 111.506 112.27C111.436 112.2 111.366 112.13 111.366 112.13C111.226 111.99 111.086 111.92 110.946 111.78C110.736 111.64 110.596 111.5 110.385 111.359C110.315 111.289 110.245 111.289 110.175 111.219C109.965 111.079 109.825 111.009 109.615 110.869C109.474 110.799 109.264 110.729 109.124 110.589C108.704 110.379 108.213 110.238 107.793 110.098C106.812 109.888 105.971 109.958 105.271 110.379L109.264 108.136C109.334 108.207 109.474 108.277 109.545 108.347C109.545 108.347 109.545 108.347 109.615 108.347C109.685 108.417 109.825 108.487 109.895 108.557C109.965 108.627 110.035 108.697 110.105 108.697C110.315 108.837 110.596 109.047 110.806 109.187C110.876 109.258 111.016 109.328 111.086 109.398C111.156 109.398 111.156 109.468 111.226 109.468C111.296 109.538 111.366 109.538 111.366 109.608C111.506 109.678 111.576 109.818 111.717 109.958C111.787 110.028 111.857 110.098 111.997 110.168C112.067 110.238 112.137 110.309 112.207 110.379L112.277 110.449C112.487 110.659 112.627 110.799 112.838 111.009C112.908 111.149 113.048 111.219 113.118 111.359C113.188 111.43 113.258 111.5 113.258 111.57C113.468 111.78 113.678 112.06 113.889 112.34C113.959 112.41 113.959 112.481 114.029 112.481C114.099 112.551 114.169 112.621 114.169 112.691C114.239 112.761 114.239 112.831 114.309 112.901C114.519 113.181 114.729 113.461 114.87 113.742C114.94 113.882 115.08 114.092 115.15 114.232C115.43 114.723 115.71 115.143 115.921 115.634C115.991 115.774 116.061 115.914 116.131 116.054C116.201 116.194 116.271 116.334 116.341 116.474C116.481 116.755 116.621 117.035 116.691 117.315C116.691 117.315 116.691 117.385 116.761 117.385V117.455C116.761 117.525 116.831 117.595 116.831 117.665V117.735C116.831 117.806 116.901 117.806 116.901 117.876C117.042 118.156 117.112 118.436 117.182 118.716C117.252 118.857 117.252 118.927 117.322 119.067C117.392 119.277 117.462 119.557 117.532 119.767C117.532 119.837 117.602 119.978 117.602 120.048C117.672 120.328 117.742 120.608 117.812 120.959C117.812 120.959 117.812 121.029 117.812 121.099C117.812 121.169 117.812 121.239 117.882 121.309C117.882 121.379 117.882 121.519 117.952 121.589C117.952 121.729 118.022 121.799 118.022 121.939C118.022 122.009 118.022 122.15 118.093 122.22C118.093 122.29 118.093 122.43 118.093 122.5C118.093 122.57 118.093 122.64 118.093 122.71C118.093 122.71 118.093 122.71 118.093 122.78C118.093 122.85 118.093 122.92 118.093 122.99C118.233 122.92 118.233 122.99 118.233 123.06Z" fill="#49443A" stroke="#231F20" stroke-width="0.0802954" stroke-miterlimit="10" stroke-linecap="round" stroke-linejoin="round"/>
        <path d="M173.725 155.711C173.725 155.221 173.655 154.73 173.585 154.17C173.585 154.03 173.585 153.89 173.515 153.819C173.515 153.679 173.445 153.539 173.445 153.469C173.445 153.329 173.375 153.189 173.375 153.119C173.375 152.979 173.305 152.839 173.305 152.768C173.305 152.628 173.235 152.488 173.235 152.348C173.235 152.208 173.165 152.068 173.165 151.998C173.095 151.717 173.024 151.507 172.954 151.227C172.954 151.087 172.884 150.947 172.884 150.807C172.884 150.666 172.814 150.526 172.744 150.386C172.674 150.246 172.674 150.106 172.604 149.966C172.534 149.826 172.534 149.686 172.464 149.545C172.394 149.405 172.394 149.265 172.324 149.195C172.254 149.055 172.254 148.915 172.184 148.775C172.114 148.565 171.973 148.284 171.903 148.074C171.833 147.794 171.693 147.584 171.623 147.303C171.623 147.233 171.553 147.163 171.553 147.093C171.553 147.023 171.483 146.953 171.483 146.883C171.413 146.813 171.413 146.673 171.343 146.603C171.273 146.463 171.203 146.322 171.203 146.252C171.133 146.112 171.133 146.042 171.063 145.902C171.063 145.832 170.993 145.762 170.993 145.692C170.993 145.622 170.922 145.552 170.922 145.482C170.852 145.342 170.782 145.201 170.712 145.131C170.572 144.851 170.432 144.571 170.222 144.291C170.222 144.291 170.222 144.291 170.222 144.22C170.222 144.22 170.222 144.22 170.222 144.15C170.152 144.08 170.152 144.01 170.082 143.94C170.012 143.8 169.942 143.66 169.801 143.52C169.731 143.38 169.661 143.24 169.521 143.099C169.451 142.959 169.381 142.819 169.241 142.679C169.171 142.539 169.031 142.399 168.961 142.259C168.961 142.189 168.891 142.189 168.891 142.118C168.891 142.118 168.891 142.118 168.891 142.048C168.821 141.978 168.821 141.908 168.75 141.838C168.68 141.768 168.61 141.698 168.54 141.558C168.54 141.488 168.47 141.488 168.47 141.418C168.4 141.278 168.26 141.138 168.19 140.997C168.05 140.857 167.98 140.717 167.84 140.577L167.77 140.507C167.699 140.437 167.629 140.367 167.629 140.297C167.559 140.227 167.489 140.157 167.489 140.087C167.209 139.806 166.999 139.456 166.719 139.176C166.648 139.036 166.508 138.966 166.438 138.825C166.298 138.615 166.088 138.475 165.948 138.335C165.808 138.195 165.598 137.985 165.457 137.844C165.387 137.774 165.387 137.774 165.317 137.704C165.247 137.634 165.247 137.634 165.177 137.564C165.037 137.494 164.967 137.354 164.827 137.284C164.757 137.214 164.617 137.074 164.547 137.004C164.476 136.934 164.336 136.793 164.266 136.723C164.196 136.653 164.126 136.583 164.056 136.513C163.986 136.443 163.916 136.373 163.846 136.303C163.776 136.233 163.706 136.163 163.636 136.093C163.566 136.023 163.496 135.953 163.425 135.883C163.355 135.813 163.215 135.742 163.145 135.672C163.075 135.602 162.935 135.532 162.865 135.462C162.795 135.392 162.655 135.322 162.585 135.252C162.374 135.112 162.164 134.972 161.954 134.832C161.884 134.762 161.744 134.692 161.674 134.621C161.534 134.551 161.464 134.481 161.323 134.411C161.253 134.341 161.183 134.341 161.113 134.271C160.763 134.061 160.483 133.921 160.132 133.781C157.049 132.239 154.247 132.169 152.145 133.29L152.005 133.36C150.183 134.411 148.852 136.513 148.431 139.316C148.291 140.087 148.221 140.857 148.221 141.698V141.768C148.221 149.966 154.037 159.985 161.113 164.119C164.687 166.221 167.98 166.361 170.292 164.96L170.362 164.89C172.394 163.629 173.725 161.176 173.935 157.743C173.935 157.533 173.935 157.393 173.935 157.183C173.935 157.042 173.935 156.972 173.935 156.832C173.935 156.762 173.935 156.692 173.935 156.622C173.725 156.272 173.725 155.991 173.725 155.711ZM170.012 154.59C170.012 154.8 170.012 155.011 170.012 155.221C169.942 156.342 169.731 157.253 169.381 158.023C168.961 159.004 168.26 159.775 167.489 160.266L167.349 160.336C165.668 161.316 163.355 161.176 160.763 159.705C160.553 159.565 160.273 159.425 160.062 159.285C159.922 159.215 159.782 159.074 159.572 158.934C159.432 158.794 159.292 158.724 159.151 158.584C159.011 158.444 158.871 158.374 158.731 158.234C158.661 158.164 158.591 158.093 158.521 158.023C158.381 157.883 158.241 157.743 158.1 157.673C157.96 157.533 157.82 157.393 157.68 157.253C157.61 157.183 157.54 157.113 157.47 157.042C157.33 156.902 157.26 156.832 157.12 156.692C157.049 156.552 156.909 156.482 156.839 156.342C156.769 156.272 156.699 156.202 156.629 156.132C156.559 155.991 156.419 155.921 156.349 155.781C156.279 155.711 156.209 155.641 156.139 155.571C156.069 155.501 155.998 155.431 155.928 155.361C155.858 155.291 155.788 155.221 155.718 155.151C155.648 155.081 155.578 155.011 155.578 154.941C155.508 154.8 155.368 154.66 155.298 154.52C155.298 154.52 155.298 154.45 155.228 154.45C155.158 154.31 155.018 154.17 154.948 154.03C154.807 153.749 154.597 153.539 154.457 153.259C154.317 153.049 154.247 152.909 154.177 152.698C154.107 152.488 153.967 152.348 153.897 152.138C153.826 151.928 153.686 151.788 153.616 151.577C153.546 151.367 153.406 151.227 153.336 151.017C153.266 150.947 153.266 150.877 153.196 150.737C153.126 150.596 153.126 150.526 153.056 150.386C152.986 150.246 152.916 150.036 152.846 149.896C152.775 149.756 152.705 149.616 152.705 149.475C152.635 149.335 152.635 149.195 152.565 149.055C152.495 148.845 152.425 148.705 152.355 148.494V148.424C152.285 148.284 152.285 148.144 152.215 148.004C152.145 147.794 152.075 147.584 152.075 147.373C152.075 147.233 152.005 147.093 152.005 146.953C151.935 146.603 151.865 146.252 151.795 145.902C151.795 145.832 151.795 145.762 151.795 145.692C151.724 145.412 151.724 145.061 151.724 144.781C151.724 144.711 151.724 144.571 151.724 144.501C151.724 144.431 151.724 144.291 151.724 144.22C151.724 144.15 151.724 144.01 151.724 143.94V143.87C151.724 143.73 151.724 143.59 151.724 143.45C151.724 143.31 151.724 143.24 151.724 143.099C151.724 143.029 151.724 143.029 151.724 142.959C151.724 142.819 151.724 142.749 151.724 142.609C151.724 142.539 151.724 142.399 151.724 142.329C151.724 142.118 151.795 141.978 151.795 141.768C151.795 141.698 151.795 141.558 151.865 141.488C151.865 141.348 151.935 141.278 151.935 141.208C151.935 141.138 151.935 141.138 152.005 141.067C152.005 140.997 152.075 140.927 152.075 140.857C152.075 140.787 152.145 140.717 152.145 140.647C152.215 140.507 152.215 140.367 152.285 140.297C152.355 140.227 152.355 140.087 152.425 140.017C152.425 139.946 152.495 139.876 152.565 139.806C152.635 139.736 152.705 139.596 152.775 139.526C152.775 139.456 152.846 139.386 152.916 139.316C152.986 139.246 152.986 139.176 153.056 139.106C153.126 139.036 153.126 138.966 153.196 138.895C153.196 138.825 153.266 138.825 153.266 138.825C153.336 138.755 153.336 138.755 153.406 138.685C153.476 138.615 153.546 138.545 153.546 138.545C153.616 138.475 153.686 138.405 153.756 138.405L153.826 138.335L153.897 138.265C153.967 138.195 154.037 138.195 154.107 138.125C154.177 138.055 154.317 137.985 154.387 137.985L154.527 137.915C155.298 137.494 156.139 137.354 157.12 137.354C158.1 137.424 159.151 137.704 160.273 138.265C160.483 138.405 160.763 138.475 160.973 138.615C161.043 138.685 161.113 138.685 161.183 138.755H161.253L161.323 138.685L161.464 138.966C161.604 139.036 161.744 139.106 161.884 139.246C161.954 139.316 162.024 139.316 162.094 139.386C162.234 139.456 162.374 139.596 162.515 139.666C162.725 139.806 162.935 139.946 163.145 140.157C163.215 140.227 163.285 140.227 163.355 140.297C163.706 140.577 164.056 140.927 164.406 141.278C164.476 141.348 164.547 141.418 164.617 141.488C164.687 141.558 164.827 141.698 164.897 141.838C164.967 141.908 165.107 142.048 165.177 142.118C165.247 142.189 165.317 142.259 165.387 142.329C165.457 142.399 165.527 142.539 165.668 142.609C165.738 142.749 165.878 142.889 165.948 142.959C166.018 143.029 166.018 143.099 166.088 143.169C166.228 143.31 166.298 143.45 166.438 143.59C167.069 144.431 167.629 145.342 168.12 146.322C168.19 146.533 168.33 146.673 168.4 146.883C168.4 146.953 168.47 146.953 168.47 147.023C168.47 147.093 168.54 147.163 168.54 147.163C168.61 147.303 168.61 147.373 168.68 147.514C168.75 147.654 168.75 147.724 168.821 147.864C168.891 147.934 168.891 148.074 168.961 148.144C169.031 148.424 169.171 148.635 169.241 148.915C169.311 148.985 169.311 149.125 169.381 149.265C169.451 149.405 169.521 149.616 169.521 149.756C169.591 150.106 169.731 150.386 169.801 150.737C169.801 150.877 169.872 150.947 169.872 151.087C169.942 151.297 170.012 151.577 170.012 151.788V151.858C170.012 151.928 170.082 152.068 170.082 152.138C170.082 152.208 170.082 152.278 170.082 152.348C170.082 152.418 170.082 152.488 170.082 152.558C170.082 152.628 170.082 152.628 170.082 152.698C170.082 152.768 170.082 152.909 170.152 152.979C170.152 153.119 170.152 153.259 170.222 153.399C170.222 153.539 170.222 153.749 170.222 153.89C170.222 154.1 170.222 154.38 170.222 154.59C170.012 154.45 170.012 154.52 170.012 154.59Z" fill="#231F20" stroke="#231F20" stroke-width="0.201439" stroke-miterlimit="10" stroke-linecap="round" stroke-linejoin="round"/>
        <path d="M167.559 152.068C167.559 152.278 167.559 152.418 167.559 152.628C167.559 152.839 167.559 152.979 167.489 153.119C167.419 153.469 167.349 153.749 167.279 154.1C166.998 155.011 166.508 155.641 165.807 156.062H165.737C165.457 156.202 165.177 156.342 164.826 156.412C163.845 156.622 162.584 156.412 161.253 155.641C158.1 153.819 155.508 149.686 155.087 145.972C155.017 145.622 155.017 145.271 155.017 144.921C155.017 144.431 155.087 143.94 155.157 143.52C155.367 142.609 155.718 141.908 156.208 141.418C156.418 141.208 156.629 141.067 156.839 140.927L156.909 140.857C157.61 140.507 158.45 140.367 159.431 140.577C159.852 140.647 160.272 140.857 160.762 141.067C160.903 141.138 161.043 141.208 161.253 141.348C162.234 141.908 163.215 142.749 164.056 143.73C165.247 145.061 166.158 146.743 166.788 148.424C167.068 149.125 167.209 149.896 167.349 150.596C167.489 151.087 167.559 151.577 167.559 152.068Z" fill="#6E6657" stroke="#231F20" stroke-width="0.0802954" stroke-miterlimit="10" stroke-linecap="round" stroke-linejoin="round"/>
        <path d="M169.311 158.023C168.891 159.004 168.19 159.775 167.419 160.266L167.349 160.336C165.668 161.316 163.356 161.176 160.763 159.705C160.553 159.565 160.273 159.425 160.062 159.285C159.922 159.215 159.782 159.074 159.572 158.934C159.432 158.794 159.292 158.724 159.152 158.584C159.011 158.444 158.871 158.374 158.731 158.234C158.661 158.164 158.591 158.093 158.521 158.023C158.381 157.883 158.241 157.743 158.101 157.673C157.96 157.533 157.82 157.393 157.68 157.253C157.61 157.183 157.54 157.113 157.47 157.042C157.33 156.902 157.26 156.832 157.12 156.692C157.05 156.552 156.909 156.482 156.839 156.342C156.769 156.272 156.699 156.202 156.629 156.132C156.559 155.991 156.419 155.921 156.349 155.781C156.279 155.711 156.209 155.641 156.139 155.571C156.069 155.501 155.999 155.431 155.929 155.361C155.858 155.291 155.788 155.221 155.718 155.151C155.648 155.081 155.578 155.011 155.578 154.941C155.508 154.8 155.368 154.66 155.298 154.52C155.298 154.52 155.298 154.45 155.228 154.45C155.158 154.31 155.018 154.17 154.948 154.03C154.808 153.749 154.597 153.539 154.457 153.259C154.317 153.049 154.247 152.909 154.177 152.698C154.107 152.488 153.967 152.348 153.897 152.138C153.827 151.928 153.686 151.788 153.616 151.577C153.546 151.367 153.406 151.227 153.336 151.017C153.266 150.947 153.266 150.877 153.196 150.737C153.126 150.596 153.126 150.526 153.056 150.386C152.986 150.246 152.916 150.036 152.846 149.896C152.776 149.756 152.706 149.616 152.706 149.475C152.635 149.335 152.635 149.195 152.565 149.055C152.495 148.845 152.425 148.705 152.355 148.494V148.424C152.285 148.284 152.285 148.144 152.215 148.004C152.145 147.794 152.075 147.584 152.075 147.373C152.075 147.233 152.005 147.093 152.005 146.953C151.935 146.603 151.865 146.252 151.795 145.902C151.795 145.832 151.795 145.762 151.795 145.692C151.725 145.412 151.725 145.061 151.725 144.781C151.725 144.711 151.725 144.571 151.725 144.501C151.725 144.431 151.725 144.291 151.725 144.22C151.725 144.15 151.725 144.01 151.725 143.94V143.87C151.725 143.73 151.725 143.59 151.725 143.45C151.725 143.31 151.725 143.24 151.725 143.099C151.725 143.029 151.725 143.029 151.725 142.959C151.725 142.819 151.725 142.749 151.725 142.609C151.725 142.539 151.725 142.399 151.725 142.329C151.725 142.118 151.795 141.978 151.795 141.768C151.795 141.698 151.795 141.558 151.865 141.488C151.865 141.348 151.935 141.278 151.935 141.208C151.935 141.138 151.935 141.138 152.005 141.067C152.005 140.997 152.075 140.927 152.075 140.857C152.075 140.787 152.145 140.717 152.145 140.647C152.215 140.507 152.215 140.367 152.285 140.297C152.355 140.227 152.355 140.087 152.425 140.017C152.425 139.946 152.495 139.876 152.565 139.806C152.635 139.736 152.706 139.596 152.776 139.526C152.846 139.456 152.846 139.386 152.916 139.316C152.986 139.246 152.986 139.176 153.056 139.106C153.126 139.036 153.126 138.966 153.196 138.895C153.196 138.825 153.266 138.825 153.266 138.825C153.336 138.755 153.336 138.755 153.406 138.685C153.476 138.615 153.546 138.545 153.546 138.545C153.616 138.475 153.686 138.405 153.757 138.405L153.827 138.335L153.897 138.265C153.967 138.195 154.037 138.195 154.107 138.125C154.177 138.055 154.317 137.985 154.387 137.985L154.527 137.915C155.298 137.494 156.139 137.354 157.12 137.354C156.699 138.335 156.419 139.526 156.419 140.997C156.419 141.138 156.419 141.348 156.419 141.488C155.929 141.978 155.578 142.679 155.368 143.59C155.298 144.01 155.228 144.501 155.228 144.991C155.228 145.342 155.228 145.692 155.298 146.042C155.718 149.756 158.311 153.96 161.464 155.711C162.795 156.482 163.986 156.692 165.037 156.482C165.247 156.622 165.458 156.762 165.668 156.832C166.859 157.603 168.12 158.023 169.311 158.023Z" fill="#49443A" stroke="#231F20" stroke-width="0.0802954" stroke-miterlimit="10" stroke-linecap="round" stroke-linejoin="round"/>
        <path d="M161.044 138.615L157.05 140.857L156.98 140.927C156.77 141.067 156.559 141.207 156.349 141.418C156.349 141.278 156.349 141.067 156.349 140.927C156.349 139.526 156.559 138.265 157.05 137.284C158.031 137.354 159.082 137.634 160.203 138.195C160.413 138.335 160.693 138.405 160.903 138.545C160.903 138.545 160.973 138.545 161.044 138.615Z" fill="#6E6657" stroke="#231F20" stroke-width="0.0802954" stroke-miterlimit="10" stroke-linecap="round" stroke-linejoin="round"/>
        <path d="M170.011 154.38C170.011 154.45 170.011 154.52 170.011 154.59C170.011 154.8 170.011 155.01 170.011 155.221C169.941 156.342 169.731 157.253 169.381 158.023C168.19 157.953 166.928 157.533 165.527 156.762C165.317 156.622 165.107 156.552 164.896 156.412C165.247 156.342 165.527 156.202 165.807 156.061H165.877L169.311 154.17L169.801 153.889L170.011 153.749C170.011 153.959 170.011 154.17 170.011 154.38Z" fill="#6E6657" stroke="#231F20" stroke-width="0.0802954" stroke-miterlimit="10" stroke-linecap="round" stroke-linejoin="round"/>
        <path d="M175.827 157.813C175.827 157.883 175.827 157.953 175.827 158.023C175.827 158.164 175.827 158.234 175.827 158.374C175.757 159.635 175.617 160.756 175.407 161.807L170.152 164.89C172.184 163.629 173.515 161.176 173.725 157.743C173.725 157.533 173.725 157.393 173.725 157.183C173.725 157.042 173.725 156.972 173.725 156.832C173.725 156.762 173.725 156.692 173.725 156.622C173.725 156.342 173.725 156.062 173.725 155.711C173.725 155.221 173.655 154.73 173.585 154.17C173.585 154.03 173.585 153.889 173.515 153.819C173.515 153.679 173.445 153.539 173.445 153.469C173.445 153.329 173.375 153.189 173.375 153.119C173.375 152.979 173.305 152.839 173.305 152.768C173.305 152.628 173.235 152.488 173.235 152.348C173.235 152.208 173.165 152.068 173.165 151.998C173.095 151.717 173.025 151.507 172.955 151.227C172.955 151.087 172.884 150.947 172.884 150.807C172.884 150.666 172.814 150.526 172.744 150.386C172.674 150.246 172.674 150.106 172.604 149.966C172.534 149.826 172.534 149.686 172.464 149.545C172.394 149.405 172.394 149.265 172.324 149.195C172.254 149.055 172.254 148.915 172.184 148.775C172.114 148.564 171.974 148.284 171.904 148.074C171.833 147.794 171.693 147.584 171.623 147.303C171.623 147.233 171.553 147.163 171.553 147.093C171.553 147.023 171.483 146.953 171.483 146.883C171.413 146.813 171.413 146.673 171.343 146.603C171.273 146.463 171.203 146.322 171.203 146.252C171.133 146.112 171.133 146.042 171.063 145.902C171.063 145.832 170.993 145.762 170.993 145.692C170.993 145.622 170.923 145.552 170.923 145.482C170.853 145.341 170.783 145.201 170.712 145.131C170.572 144.851 170.432 144.571 170.222 144.29C170.222 144.29 170.222 144.29 170.222 144.22C170.222 144.22 170.222 144.22 170.222 144.15C170.152 144.08 170.152 144.01 170.082 143.94C170.012 143.8 169.942 143.66 169.802 143.52C169.732 143.38 169.661 143.24 169.521 143.099C169.451 142.959 169.381 142.819 169.241 142.679C169.171 142.539 169.031 142.399 168.961 142.259C168.961 142.189 168.891 142.189 168.891 142.118C168.891 142.118 168.891 142.118 168.891 142.048C168.821 141.978 168.821 141.908 168.751 141.838C168.681 141.768 168.61 141.698 168.54 141.558C168.54 141.488 168.47 141.488 168.47 141.418C168.4 141.278 168.26 141.138 168.19 140.997C168.05 140.857 167.98 140.717 167.84 140.577L167.77 140.507C167.7 140.437 167.63 140.367 167.63 140.297C167.559 140.227 167.489 140.157 167.489 140.087C167.209 139.806 166.999 139.456 166.719 139.176C166.649 139.036 166.508 138.965 166.438 138.825C166.298 138.615 166.088 138.475 165.948 138.335C165.808 138.195 165.598 137.985 165.458 137.844C165.387 137.774 165.387 137.774 165.317 137.704C165.247 137.634 165.247 137.634 165.177 137.564C165.037 137.494 164.967 137.354 164.827 137.284C164.757 137.214 164.617 137.074 164.547 137.004C164.477 136.934 164.336 136.793 164.266 136.723C164.196 136.653 164.126 136.583 164.056 136.513C163.986 136.443 163.916 136.373 163.846 136.303C163.776 136.233 163.706 136.163 163.636 136.093C163.566 136.023 163.496 135.953 163.426 135.883C163.356 135.813 163.215 135.742 163.145 135.672C163.075 135.602 162.935 135.532 162.865 135.462C162.795 135.392 162.655 135.322 162.585 135.252C162.375 135.112 162.164 134.972 161.954 134.832C161.884 134.762 161.744 134.691 161.674 134.621C161.534 134.551 161.464 134.481 161.324 134.411C161.254 134.341 161.183 134.341 161.113 134.271C160.763 134.061 160.483 133.921 160.133 133.781C157.05 132.239 154.247 132.169 152.145 133.29L157.82 130.067L160.413 131.609L162.234 132.66C169.381 137.354 175.127 147.023 175.967 155.641C175.757 156.272 175.827 157.042 175.827 157.813Z" fill="url(#paint1_linear_1_19911)" stroke="#231F20" stroke-width="0.201439" stroke-miterlimit="10" stroke-linecap="round" stroke-linejoin="round"/>
        <path d="M170.012 153.749C169.942 153.749 169.942 153.749 170.012 153.749L169.731 153.889L169.241 154.17L165.808 156.061C166.438 155.641 166.929 155.011 167.279 154.1C167.349 153.819 167.419 153.469 167.489 153.119C167.489 152.979 167.559 152.768 167.559 152.628C167.559 152.488 167.559 152.278 167.559 152.068C167.559 151.577 167.489 151.087 167.419 150.596C167.279 149.896 167.139 149.195 166.859 148.424C166.228 146.743 165.317 145.061 164.126 143.73C163.285 142.749 162.304 141.908 161.324 141.348C161.183 141.278 160.973 141.208 160.833 141.067C160.413 140.857 159.922 140.717 159.502 140.577C158.521 140.367 157.68 140.437 156.979 140.857L161.043 138.615C161.113 138.685 161.254 138.755 161.324 138.825C161.464 138.895 161.604 138.965 161.744 139.106C161.814 139.176 161.884 139.176 161.954 139.246C162.094 139.316 162.234 139.456 162.375 139.526C162.585 139.666 162.795 139.806 163.005 140.016C163.075 140.086 163.145 140.086 163.215 140.157C163.566 140.437 163.916 140.787 164.266 141.137C164.336 141.208 164.406 141.278 164.477 141.348C164.547 141.418 164.687 141.558 164.757 141.698C164.827 141.768 164.967 141.908 165.037 141.978C165.107 142.048 165.177 142.118 165.247 142.188C165.317 142.259 165.387 142.399 165.528 142.469C165.598 142.609 165.738 142.749 165.808 142.819C165.878 142.889 165.878 142.959 165.948 143.029C166.088 143.169 166.158 143.31 166.298 143.45C166.929 144.29 167.489 145.201 167.98 146.182C168.05 146.392 168.19 146.533 168.26 146.743C168.26 146.813 168.33 146.813 168.33 146.883C168.33 146.953 168.4 147.023 168.4 147.023C168.47 147.163 168.47 147.233 168.54 147.373C168.61 147.513 168.61 147.584 168.68 147.724C168.751 147.794 168.751 147.934 168.821 148.004C168.891 148.284 169.031 148.494 169.101 148.775C169.171 148.845 169.171 148.985 169.241 149.125C169.311 149.265 169.381 149.475 169.381 149.615C169.451 149.966 169.591 150.246 169.661 150.596C169.661 150.736 169.731 150.807 169.731 150.947C169.802 151.157 169.872 151.437 169.872 151.647V151.717C169.872 151.787 169.942 151.928 169.942 151.998C169.942 152.068 169.942 152.138 169.942 152.208C169.942 152.278 169.942 152.348 169.942 152.418C169.942 152.488 169.942 152.488 169.942 152.558C169.942 152.628 169.942 152.768 170.012 152.838C170.012 152.979 170.012 153.119 170.082 153.259C169.942 153.399 169.942 153.539 170.012 153.749Z" fill="#49443A" stroke="#231F20" stroke-width="0.0802954" stroke-miterlimit="10" stroke-linecap="round" stroke-linejoin="round"/>
        <path d="M109.545 108.137C109.475 108.067 109.335 107.996 109.265 107.926H109.335L109.405 107.856L109.545 108.137Z" fill="#F1F2F2" stroke="#231F20" stroke-width="0.0802954" stroke-miterlimit="10" stroke-linecap="round" stroke-linejoin="round"/>
        <path d="M180.942 114.162L173.935 118.016L162.515 124.322L160.132 125.793L105.551 94.7539L108.004 93.2125L118.864 86.9766L126.431 82.6326L180.942 114.162Z" fill="#F1F2F2" stroke="#231F20" stroke-width="0.201439" stroke-miterlimit="10" stroke-linecap="round" stroke-linejoin="round"/>
        <path d="M160.132 125.793V128.876L105.551 96.8559V94.7539L160.132 125.793Z" fill="#F1F2F2" stroke="#231F20" stroke-width="0.201439" stroke-miterlimit="10" stroke-linecap="round" stroke-linejoin="round"/>
        <path opacity="0.14" d="M160.132 125.793V128.876L105.551 96.8559V94.7539L160.132 125.793Z" fill="black" stroke="#231F20" stroke-width="0.201439" stroke-miterlimit="10"/>
        <path d="M180.942 114.162V122.36C180.381 121.94 179.821 121.519 179.26 121.169C179.26 121.169 179.26 121.169 179.19 121.169C178.84 120.959 178.49 120.748 178.139 120.538V118.997L176.808 119.767L162.795 127.475L162.515 127.615L160.132 128.876V125.793L162.515 124.322L173.935 118.016L180.942 114.162Z" fill="#F1F2F2" stroke="#231F20" stroke-width="0.201439" stroke-miterlimit="10" stroke-linecap="round" stroke-linejoin="round"/>
    </g>
    <defs>
        <linearGradient id="paint0_linear_1_19911" x1="120.385" y1="133.172" x2="115.451" y2="99.7217" gradientUnits="userSpaceOnUse">
            <stop stop-color="#58595B"/>
            <stop offset="1"/>
        </linearGradient>
        <linearGradient id="paint1_linear_1_19911" x1="158.312" y1="132.146" x2="169.969" y2="153.14" gradientUnits="userSpaceOnUse">
            <stop stop-color="#58595B"/>
            <stop offset="1"/>
        </linearGradient>
        <clipPath id="">
            <rect width="103.627" height="88.8434" fill="white" transform="translate(91.6777 82.5625)"/>
        </clipPath>
    </defs>
</svg>
