<svg width="230" height="230" viewBox="0 0 230 230" fill="none"
    xmlns="http://www.w3.org/2000/svg">
    <g clip-path="url(#)">
        <path d="M122.017 192.285C122.017 197.47 120.266 201.184 117.463 203.005L116.762 203.426L101.138 212.534C103.94 210.783 105.692 207.279 105.832 202.375C105.832 202.305 105.832 202.235 105.832 202.165C105.832 202.025 105.832 201.884 105.832 201.674C105.832 200.903 105.762 200.133 105.692 199.362C104.781 189.553 98.2649 178.552 90.1372 173.157C90.1372 173.157 90.1372 173.157 90.0672 173.157L87.9652 171.966L86.5639 171.126L59.8688 155.501L36.4668 141.838L35.556 141.278C35.3458 141.137 35.1356 141.067 34.9254 140.927C34.7853 140.857 34.6451 140.787 34.505 140.717C30.7915 138.825 27.3583 138.545 24.6958 139.596L39.6198 130.838L39.83 130.698C42.9129 128.876 47.1168 129.156 51.8112 131.889L104.22 162.648L106.322 163.839C106.322 163.839 106.322 163.839 106.392 163.839C115.081 169.584 122.017 181.986 122.017 192.285Z" fill="#414042" stroke="#231F20" stroke-width="0.201439" stroke-miterlimit="10" stroke-linecap="round" stroke-linejoin="round"/>
        <path d="M87.895 181.145L88.0352 181.075L88.1753 181.355C88.1052 181.215 87.9651 181.215 87.895 181.145Z" fill="#F1F2F2" stroke="#231F20" stroke-width="0.0802954" stroke-miterlimit="10" stroke-linecap="round" stroke-linejoin="round"/>
        <path d="M105.762 202.235C105.762 202.305 105.762 202.375 105.762 202.445C105.692 202.445 105.622 202.375 105.622 202.375L105.762 202.235Z" fill="#F1F2F2" stroke="#231F20" stroke-width="0.0802954" stroke-miterlimit="10" stroke-linecap="round" stroke-linejoin="round"/>
        <path d="M105.762 201.744C105.762 200.974 105.692 200.203 105.622 199.432C104.711 189.623 98.1946 178.623 90.0669 173.227C90.0669 173.227 90.0669 173.227 89.9969 173.227L87.8949 172.036L86.4936 171.196L59.8686 155.501L36.4666 141.838L35.5558 141.277C35.3456 141.137 35.1354 141.067 34.9252 140.927C34.785 140.857 34.6449 140.787 34.5048 140.717C30.7913 138.825 27.3581 138.545 24.6956 139.596L22.4535 140.927C20.0712 142.819 18.6699 146.322 18.6699 151.017C18.6699 161.386 25.6765 173.928 34.5749 179.674L35.6258 180.304L36.3966 180.795L86.7738 210.222C87.4745 210.713 88.1752 211.203 88.8758 211.624C93.6403 214.356 97.9844 214.566 101.067 212.675C103.87 210.923 105.622 207.42 105.762 202.515C105.692 202.515 105.622 202.445 105.622 202.445L105.762 202.375C105.762 202.095 105.762 201.954 105.762 201.744ZM102.679 200.483C102.679 200.623 102.679 200.693 102.679 200.833C102.609 202.095 102.469 203.216 102.258 204.267C101.628 206.859 100.297 208.751 98.5449 209.802C95.8123 211.483 92.0288 211.343 87.7548 208.891C87.1242 208.541 86.4936 208.12 85.863 207.7L37.3775 179.393L36.6768 178.973L35.766 178.412C27.9186 173.368 21.7528 162.297 21.7528 153.049C21.7528 148.915 23.014 145.832 25.116 144.08C25.6765 143.59 26.3772 143.169 27.0778 142.889C28.339 142.399 29.7403 142.258 31.2818 142.469C32.4729 142.609 33.7341 142.959 34.9952 143.59C35.3456 143.73 35.6959 143.94 36.1163 144.15C36.2564 144.22 36.4666 144.29 36.6068 144.43C36.6068 144.43 36.6768 144.43 36.6768 144.501L60.4992 158.444L84.3916 172.457L86.984 173.998L88.8058 175.049C95.9525 179.744 101.698 189.413 102.539 198.031C102.609 198.801 102.679 199.572 102.679 200.273C102.679 200.343 102.679 200.413 102.679 200.483Z" fill="#231F20" stroke="#231F20" stroke-width="0.201439" stroke-miterlimit="10" stroke-linecap="round" stroke-linejoin="round"/>
        <path d="M24.6957 139.526L22.4536 140.857C23.1543 140.296 23.8549 139.876 24.6957 139.526Z" fill="#F1F2F2" stroke="#231F20" stroke-width="0.0802954" stroke-miterlimit="10" stroke-linecap="round" stroke-linejoin="round"/>
        <path d="M36.3965 150.596C36.3264 150.526 36.1863 150.456 36.1162 150.386H36.1863L36.2563 150.316L36.3965 150.596Z" fill="#F1F2F2" stroke="#231F20" stroke-width="0.0802954" stroke-miterlimit="10" stroke-linecap="round" stroke-linejoin="round"/>
        <path d="M87.895 181.145L88.0352 181.075L88.1753 181.355C88.1052 181.215 87.9651 181.215 87.895 181.145Z" fill="#F1F2F2" stroke="#231F20" stroke-width="0.0802954" stroke-miterlimit="10" stroke-linecap="round" stroke-linejoin="round"/>
        <path d="M105.762 202.235C105.762 202.305 105.762 202.375 105.762 202.445C105.692 202.445 105.622 202.375 105.622 202.375L105.762 202.235Z" fill="#F1F2F2" stroke="#231F20" stroke-width="0.0802954" stroke-miterlimit="10" stroke-linecap="round" stroke-linejoin="round"/>
        <path d="M102.258 204.267C101.628 206.859 100.297 208.751 98.545 209.802C95.8124 211.483 92.0289 211.343 87.7549 208.891C87.1243 208.541 86.4937 208.12 85.8631 207.7L37.3776 179.393L36.6769 178.973L35.7661 178.412C27.9187 173.368 21.7529 162.297 21.7529 153.049C21.7529 148.915 23.0141 145.832 25.1161 144.08C25.6766 143.59 26.3773 143.169 27.0779 142.889C28.3391 142.399 29.7404 142.258 31.2819 142.469L26.9378 144.991L26.7977 145.061C24.4154 146.462 23.0141 149.405 23.0141 153.469C23.0141 161.737 28.7595 171.756 35.9062 175.82C39.4796 177.922 42.7727 178.062 45.0848 176.661L45.1549 176.591L53.4927 171.756L55.6648 170.495L74.8628 181.705C74.7226 182.476 74.6526 183.247 74.6526 184.088V184.158C74.6526 192.355 80.468 202.375 87.5447 206.509C91.118 208.611 94.4111 208.751 96.7233 207.35L96.7934 207.279L102.258 204.267Z" fill="#58595B" stroke="#231F20" stroke-width="0.0802954" stroke-miterlimit="10" stroke-linecap="round" stroke-linejoin="round"/>
        <path d="M36.3965 150.596C36.3264 150.526 36.1863 150.456 36.1162 150.386H36.1863L36.2563 150.316L36.3965 150.596Z" fill="#F1F2F2" stroke="#231F20" stroke-width="0.0802954" stroke-miterlimit="10" stroke-linecap="round" stroke-linejoin="round"/>
        <path d="M87.895 181.145L88.0352 181.075L88.1753 181.355C88.1052 181.215 87.9651 181.215 87.895 181.145Z" fill="#F1F2F2" stroke="#231F20" stroke-width="0.0802954" stroke-miterlimit="10" stroke-linecap="round" stroke-linejoin="round"/>
        <path d="M87.895 181.145L88.0352 181.075L88.1753 181.355C88.1052 181.215 87.9651 181.215 87.895 181.145Z" fill="#F1F2F2" stroke="#231F20" stroke-width="0.0802954" stroke-miterlimit="10" stroke-linecap="round" stroke-linejoin="round"/>
        <path d="M106.322 163.769L104.22 162.578C104.5 162.718 104.851 162.928 105.131 163.068C105.551 163.278 105.902 163.488 106.322 163.769Z" fill="#F1F2F2" stroke="#231F20" stroke-width="0.0802954" stroke-miterlimit="10" stroke-linecap="round" stroke-linejoin="round"/>
        <path d="M48.7984 167.482C48.7984 167.412 48.7984 167.272 48.7984 167.202C48.7984 167.132 48.7984 167.062 48.7984 166.992C48.7984 166.781 48.7283 166.501 48.7283 166.291V166.221C48.7283 166.221 48.7283 166.221 48.7283 166.151C48.7283 166.081 48.7283 166.011 48.7283 165.941C48.7283 165.8 48.6582 165.66 48.6582 165.52C48.6582 165.38 48.5882 165.24 48.5882 165.1C48.5882 165.03 48.5882 164.89 48.5181 164.819C48.5181 164.749 48.5181 164.609 48.448 164.539C48.448 164.399 48.378 164.329 48.378 164.189C48.378 164.049 48.3079 163.979 48.3079 163.839C48.3079 163.769 48.2378 163.628 48.2378 163.558C48.2378 163.418 48.1678 163.278 48.1678 163.138C48.1678 162.998 48.0977 162.928 48.0977 162.788C48.0276 162.577 47.9576 162.367 47.9576 162.157C47.8875 161.877 47.8174 161.596 47.6773 161.386C47.6072 161.176 47.5372 160.896 47.4671 160.686C47.397 160.405 47.2569 160.125 47.1868 159.845C47.1168 159.705 47.1168 159.635 47.0467 159.494C47.0467 159.424 46.9767 159.354 46.9767 159.284C46.9066 159.144 46.9066 159.074 46.8365 158.934C46.7665 158.794 46.7665 158.724 46.6964 158.584C46.6263 158.373 46.5563 158.163 46.4161 158.023C46.4161 157.953 46.3461 157.883 46.3461 157.813C46.3461 157.813 46.3461 157.813 46.3461 157.743C46.276 157.533 46.1359 157.393 46.0658 157.182C45.9257 156.972 45.8556 156.762 45.7155 156.482C45.5753 156.271 45.5053 156.061 45.3651 155.781C45.2951 155.641 45.225 155.571 45.1549 155.431C45.0148 155.22 44.8747 155.01 44.7345 154.8C44.6645 154.66 44.5944 154.59 44.5243 154.45C44.174 153.889 43.7536 153.329 43.4033 152.768C43.3332 152.698 43.2632 152.558 43.1931 152.488C42.9829 152.208 42.8428 151.997 42.6326 151.787C42.5625 151.717 42.4924 151.647 42.4224 151.577C42.2122 151.297 42.002 151.087 41.7918 150.806C41.7217 150.736 41.6517 150.666 41.5816 150.596C41.5115 150.526 41.4415 150.456 41.3714 150.386C41.2313 150.246 41.1612 150.106 41.0211 150.036C40.8809 149.895 40.7408 149.755 40.6007 149.615C40.5306 149.545 40.5306 149.545 40.4605 149.475C40.3905 149.405 40.3905 149.405 40.3204 149.335C40.2503 149.265 40.1803 149.195 40.1102 149.125C40.0401 149.055 39.9701 148.985 39.9701 148.985C39.9 148.915 39.8299 148.844 39.7599 148.774C39.7599 148.774 39.7599 148.774 39.6898 148.774C39.5497 148.634 39.4095 148.564 39.2694 148.424C39.1994 148.354 39.0592 148.284 38.9892 148.214C38.9191 148.144 38.849 148.074 38.7089 148.004C38.6388 147.934 38.4987 147.864 38.4286 147.794C38.3586 147.723 38.2184 147.653 38.1484 147.583C37.798 147.303 37.3776 147.023 37.0273 146.813C36.747 146.672 36.5369 146.462 36.2566 146.322C36.1865 146.252 36.1165 146.252 36.0464 146.182C35.9063 146.112 35.8362 146.042 35.6961 145.972C35.5559 145.902 35.4859 145.832 35.3457 145.762C35.2757 145.692 35.1355 145.692 35.0655 145.621C31.9826 144.08 29.1799 144.01 27.078 145.131L26.9378 145.201C24.4155 146.462 23.0142 149.405 23.0142 153.469C23.0142 161.737 28.7596 171.756 35.9063 175.82C39.4796 177.922 42.7727 178.062 45.0849 176.661L45.1549 176.591C47.1868 175.329 48.5181 172.877 48.7283 169.444C48.7283 169.304 48.7283 169.164 48.7283 169.023V168.953C48.7283 168.883 48.7283 168.883 48.7283 168.813C48.7283 168.673 48.7283 168.533 48.7283 168.393C48.8684 168.113 48.8684 167.832 48.7984 167.482ZM45.0849 167.062C45.0148 168.183 44.8046 169.093 44.4543 169.864C44.0339 170.845 43.3332 171.616 42.5625 172.106L42.4924 172.176C40.8109 173.157 38.4987 173.017 35.9063 171.546C30.8615 168.603 26.7276 161.456 26.7276 155.641C26.7276 152.698 27.7786 150.666 29.3901 149.685L29.5303 149.615C30.301 149.195 31.1418 149.055 32.1227 149.055C33.1036 149.125 34.1546 149.405 35.2757 149.966C35.4859 150.106 35.7661 150.176 35.9763 150.316C36.0464 150.386 36.1165 150.386 36.1865 150.456H36.2566L36.3267 150.386L36.4668 150.666C36.4668 150.666 36.4668 150.666 36.5369 150.666C36.6069 150.736 36.747 150.806 36.8171 150.876C36.8872 150.946 36.9572 151.017 37.0273 151.017C37.2375 151.157 37.5178 151.367 37.728 151.507C37.798 151.577 37.9382 151.647 38.0082 151.717C38.0783 151.717 38.0783 151.787 38.1484 151.787C38.2184 151.857 38.2885 151.857 38.2885 151.927C38.4286 151.997 38.4987 152.138 38.6388 152.278C38.7089 152.348 38.779 152.418 38.9191 152.488C38.9892 152.558 39.0592 152.628 39.1293 152.698L39.1993 152.768C39.4095 152.978 39.5497 153.119 39.7599 153.329C39.8299 153.469 39.9701 153.539 40.0401 153.679C40.1102 153.749 40.1803 153.819 40.1803 153.889C40.3905 154.099 40.6007 154.38 40.8109 154.66C40.8809 154.73 40.8809 154.8 40.951 154.8C41.0211 154.87 41.0911 154.94 41.0911 155.01C41.1612 155.08 41.1612 155.15 41.2313 155.22C41.4415 155.501 41.6517 155.781 41.7918 156.061C41.9319 156.201 42.002 156.412 42.072 156.552C42.3523 157.042 42.6326 157.463 42.8428 157.953C42.9128 158.093 42.9829 158.233 43.053 158.373C43.123 158.514 43.1931 158.654 43.2632 158.794C43.4033 159.074 43.5434 159.354 43.6135 159.635C43.6135 159.635 43.6135 159.705 43.6836 159.705V159.775C43.6836 159.845 43.7536 159.915 43.7536 159.985V160.055C43.7536 160.125 43.8237 160.125 43.8237 160.195C43.9638 160.475 44.0339 160.756 44.104 161.036C44.174 161.176 44.174 161.246 44.2441 161.386C44.3142 161.596 44.3842 161.877 44.4543 162.087C44.4543 162.157 44.5243 162.297 44.5243 162.367C44.5944 162.647 44.6645 162.928 44.7345 163.278C44.7345 163.278 44.7345 163.348 44.7345 163.418C44.7345 163.488 44.7345 163.558 44.8046 163.628C44.8046 163.698 44.8046 163.839 44.8747 163.909C44.8747 164.049 44.9447 164.119 44.9447 164.259C44.9447 164.329 44.9447 164.469 45.0148 164.539C45.0148 164.609 45.0148 164.749 45.0148 164.819C45.0148 164.89 45.0148 164.96 45.0148 165.03C45.0148 165.03 45.0148 165.03 45.0148 165.1C45.0148 165.17 45.0148 165.24 45.0148 165.31C45.0148 165.38 45.0148 165.45 45.0148 165.52C45.0148 165.73 45.0148 166.011 45.0148 166.221C45.0849 166.501 45.0849 166.781 45.0849 167.062Z" fill="#231F20" stroke="#231F20" stroke-width="0.201439" stroke-miterlimit="10" stroke-linecap="round" stroke-linejoin="round"/>
        <path d="M36.3965 150.596C36.3264 150.526 36.1863 150.456 36.1162 150.386H36.1863L36.2563 150.316L36.3965 150.596Z" fill="#F1F2F2" stroke="#231F20" stroke-width="0.0802954" stroke-miterlimit="10" stroke-linecap="round" stroke-linejoin="round"/>
        <path d="M44.4542 169.864C44.0338 170.845 43.3331 171.616 42.5624 172.106L42.4923 172.176C40.8108 173.157 38.4986 173.017 35.9062 171.546C30.8614 168.603 26.7275 161.456 26.7275 155.641C26.7275 152.698 27.7785 150.666 29.39 149.685L29.5302 149.615C30.3009 149.195 31.1417 149.055 32.1226 149.055C31.7022 150.036 31.4219 151.227 31.4219 152.698C31.4219 152.838 31.4219 153.048 31.4219 153.189C30.6512 153.959 30.2308 155.15 30.2308 156.692C30.2308 160.686 33.0335 165.45 36.4667 167.482C37.7979 168.253 38.989 168.463 40.04 168.253C40.2502 168.393 40.4604 168.533 40.6706 168.603C42.0019 169.444 43.2631 169.794 44.4542 169.864Z" fill="#49443A" stroke="#231F20" stroke-width="0.0802954" stroke-miterlimit="10" stroke-linecap="round" stroke-linejoin="round"/>
        <path d="M36.1168 150.456L32.123 152.698L32.053 152.768C31.8428 152.908 31.6326 153.049 31.4224 153.259C31.4224 153.119 31.4224 152.908 31.4224 152.768C31.4224 151.367 31.6326 150.106 32.123 149.125C33.1039 149.195 34.1549 149.475 35.276 150.036C35.4862 150.176 35.7664 150.246 35.9766 150.386C35.9766 150.386 36.0467 150.386 36.1168 150.456Z" fill="#6E6657" stroke="#231F20" stroke-width="0.0802954" stroke-miterlimit="10" stroke-linecap="round" stroke-linejoin="round"/>
        <path d="M45.0845 166.221C45.0845 166.501 45.0845 166.781 45.0845 166.992C45.0145 168.113 44.8043 169.024 44.4539 169.794C43.2628 169.724 42.0016 169.304 40.6003 168.533C40.3901 168.393 40.1799 168.323 39.9697 168.183C40.3201 168.113 40.6003 167.973 40.8806 167.832H40.9506L44.8743 165.66L45.0845 165.52C45.0845 165.801 45.0845 166.011 45.0845 166.221Z" fill="#6E6657" stroke="#231F20" stroke-width="0.0802954" stroke-miterlimit="10" stroke-linecap="round" stroke-linejoin="round"/>
        <path d="M36.3965 150.596C36.3264 150.526 36.1863 150.456 36.1162 150.386H36.1863L36.2563 150.316L36.3965 150.596Z" fill="#F1F2F2" stroke="#231F20" stroke-width="0.0802954" stroke-miterlimit="10" stroke-linecap="round" stroke-linejoin="round"/>
        <path d="M36.3965 150.596C36.3264 150.526 36.1863 150.456 36.1162 150.386C36.1162 150.386 36.1863 150.386 36.1863 150.316L36.2563 150.246L36.3965 150.596Z" fill="#F1F2F2" stroke="#231F20" stroke-width="0.0802954" stroke-miterlimit="10" stroke-linecap="round" stroke-linejoin="round"/>
        <path d="M42.7024 163.909C42.7024 164.119 42.7024 164.259 42.7024 164.469C42.7024 165.03 42.5623 165.52 42.4222 165.941C42.1419 166.852 41.6514 167.482 40.9508 167.903H40.8807C40.6004 168.043 40.3202 168.183 39.9699 168.253C38.9889 168.463 37.7277 168.253 36.3965 167.482C32.9633 165.52 30.1606 160.686 30.1606 156.692C30.1606 155.151 30.581 153.959 31.3518 153.189C31.562 152.978 31.7722 152.838 31.9824 152.698L32.0524 152.628C32.7531 152.278 33.5939 152.138 34.5748 152.348C34.9952 152.418 35.4156 152.628 35.906 152.838C36.0462 152.908 36.1863 152.978 36.3965 153.119C36.6067 153.259 36.7468 153.329 36.957 153.469C37.0271 153.539 37.0972 153.539 37.1672 153.609C37.3774 153.749 37.5175 153.889 37.7277 154.029C37.8679 154.17 38.008 154.24 38.1481 154.38C38.2182 154.45 38.2883 154.45 38.2883 154.52C38.2883 154.52 38.2883 154.52 38.3583 154.59C38.4284 154.66 38.4985 154.73 38.5685 154.8C38.6386 154.87 38.7787 155.01 38.8488 155.08C38.9889 155.221 39.059 155.361 39.1991 155.501C40.3902 156.832 41.3011 158.514 41.9317 160.195C41.9317 160.265 42.0018 160.335 42.0018 160.405C42.0018 160.476 42.0018 160.476 42.0718 160.546C42.1419 160.756 42.212 160.966 42.282 161.176C42.282 161.246 42.3521 161.316 42.3521 161.386C42.4222 161.527 42.4222 161.737 42.4922 161.877V161.947C42.4922 162.017 42.4922 162.017 42.4922 162.087C42.4922 162.227 42.5623 162.367 42.5623 162.507C42.5623 162.648 42.5623 162.788 42.6323 162.858V162.928C42.6323 163.068 42.6323 163.208 42.6323 163.278C42.7024 163.628 42.7024 163.769 42.7024 163.909Z" fill="#6E6657" stroke="#231F20" stroke-width="0.0802954" stroke-miterlimit="10" stroke-linecap="round" stroke-linejoin="round"/>
        <path d="M60.7798 161.526C60.7798 166.011 59.0281 169.023 56.3656 170.215L55.735 170.565L53.563 171.826L45.2252 176.661C47.2571 175.399 48.5883 172.947 48.7985 169.514C48.7985 169.374 48.7985 169.234 48.7985 169.094V169.023C48.7985 168.953 48.7985 168.953 48.7985 168.883C48.7985 168.743 48.7985 168.603 48.7985 168.463C48.7985 168.183 48.7985 167.902 48.7985 167.552C48.7985 167.482 48.7985 167.342 48.7985 167.272C48.7985 167.202 48.7985 167.132 48.7985 167.062C48.7985 166.851 48.7284 166.571 48.7284 166.361V166.291C48.7284 166.291 48.7284 166.291 48.7284 166.221C48.7284 166.151 48.7284 166.081 48.7284 166.011C48.7284 165.87 48.6584 165.73 48.6584 165.59C48.6584 165.45 48.5883 165.31 48.5883 165.17C48.5883 165.1 48.5883 164.96 48.5182 164.89C48.5182 164.819 48.5182 164.679 48.4482 164.609C48.4482 164.469 48.3781 164.399 48.3781 164.259C48.3781 164.119 48.308 164.049 48.308 163.909C48.308 163.839 48.238 163.698 48.238 163.628C48.238 163.488 48.1679 163.348 48.1679 163.208C48.1679 163.068 48.0979 162.998 48.0979 162.858C48.0278 162.647 47.9577 162.437 47.9577 162.227C47.8877 161.947 47.8176 161.667 47.6775 161.456C47.6074 161.246 47.5373 160.966 47.4673 160.756C47.3972 160.475 47.2571 160.195 47.187 159.915C47.1169 159.775 47.1169 159.705 47.0469 159.565C47.0469 159.494 46.9768 159.424 46.9768 159.354C46.9067 159.214 46.9067 159.144 46.8367 159.004C46.7666 158.864 46.7666 158.794 46.6965 158.654C46.6265 158.444 46.5564 158.233 46.4163 158.093C46.4163 158.023 46.3462 157.953 46.3462 157.883C46.3462 157.883 46.3462 157.883 46.3462 157.813C46.2761 157.603 46.136 157.463 46.0659 157.252C45.9258 157.042 45.8558 156.832 45.7156 156.552C45.5755 156.342 45.5054 156.131 45.3653 155.851C45.2952 155.711 45.2252 155.641 45.1551 155.501C45.015 155.291 44.8748 155.08 44.7347 154.87C44.6646 154.73 44.5946 154.66 44.5245 154.52C44.1742 153.959 43.7538 153.399 43.4034 152.838C43.3334 152.768 43.2633 152.628 43.1932 152.558C42.9831 152.278 42.8429 152.068 42.6327 151.857C42.5627 151.787 42.4926 151.717 42.4225 151.647C42.2123 151.367 42.0021 151.157 41.7919 150.876C41.7219 150.806 41.6518 150.736 41.5817 150.666C41.5117 150.596 41.4416 150.526 41.3715 150.456C41.2314 150.316 41.1613 150.176 41.0212 150.106C40.8811 149.966 40.7409 149.825 40.6008 149.685C40.5308 149.615 40.5308 149.615 40.4607 149.545C40.3906 149.475 40.3906 149.475 40.3206 149.405C40.2505 149.335 40.1804 149.265 40.1104 149.195C40.0403 149.125 39.9702 149.055 39.9702 149.055C39.9002 148.985 39.8301 148.915 39.76 148.844C39.76 148.844 39.76 148.844 39.69 148.844C39.5498 148.704 39.4097 148.634 39.2696 148.494C39.1995 148.424 39.0594 148.354 38.9893 148.284C38.9192 148.214 38.8492 148.144 38.709 148.074C38.639 148.004 38.4988 147.934 38.4288 147.864C38.3587 147.794 38.2186 147.723 38.1485 147.653C37.7982 147.373 37.3778 147.093 37.0275 146.883C36.7472 146.743 36.537 146.532 36.2567 146.392C36.1867 146.322 36.1166 146.322 36.0465 146.252C35.9064 146.182 35.8363 146.112 35.6962 146.042C35.5561 145.972 35.486 145.902 35.3459 145.832C35.2758 145.762 35.1357 145.762 35.0656 145.692C31.9827 144.15 29.1801 144.08 27.0781 145.201L31.4222 142.679C32.6133 142.819 33.8745 143.169 35.1357 143.8C35.486 143.94 35.8363 144.15 36.2567 144.36C36.3969 144.43 36.6071 144.5 36.7472 144.641C36.7472 144.641 36.8173 144.641 36.8173 144.711L60.6396 158.654C60.6396 159.494 60.7798 160.545 60.7798 161.526Z" fill="url(#paint0_linear_1_19911)" stroke="#231F20" stroke-width="0.201439" stroke-miterlimit="10" stroke-linecap="round" stroke-linejoin="round"/>
        <path d="M45.085 165.52C45.085 165.59 45.085 165.59 45.085 165.52L44.8047 165.66L40.881 167.832C41.5116 167.412 42.0021 166.781 42.3524 165.871C42.4925 165.45 42.5626 164.96 42.6327 164.399C42.6327 164.259 42.6327 164.049 42.6327 163.839C42.6327 163.698 42.6327 163.558 42.6327 163.488C42.6327 163.348 42.6327 163.208 42.6327 163.138V163.068C42.6327 162.928 42.6327 162.788 42.5626 162.718C42.5626 162.577 42.4925 162.437 42.4925 162.297C42.4925 162.227 42.4925 162.227 42.4925 162.157V162.087C42.4925 161.947 42.4225 161.737 42.3524 161.597C42.3524 161.526 42.2823 161.456 42.2823 161.386C42.2123 161.176 42.1422 160.966 42.0721 160.756C42.0721 160.686 42.0721 160.686 42.0021 160.616C42.0021 160.546 41.932 160.475 41.932 160.405C41.3014 158.724 40.3906 157.042 39.1994 155.711C39.0593 155.571 38.9892 155.431 38.8491 155.291C38.779 155.221 38.6389 155.08 38.5689 155.01C38.4988 154.94 38.4287 154.87 38.3587 154.8C38.3587 154.8 38.3587 154.8 38.2886 154.73C38.2185 154.66 38.1485 154.59 38.1485 154.59C38.0083 154.45 37.8682 154.38 37.7281 154.24C37.5179 154.099 37.3777 153.959 37.1675 153.819C37.0975 153.749 37.0274 153.749 36.9573 153.679C36.7471 153.539 36.607 153.469 36.3968 153.329C36.2567 153.259 36.0465 153.189 35.9064 153.048C35.486 152.838 34.9955 152.698 34.5751 152.558C33.5942 152.348 32.7534 152.418 32.0527 152.838L36.0465 150.596C36.1165 150.666 36.2567 150.736 36.3267 150.806C36.3267 150.806 36.3267 150.806 36.3968 150.806C36.4669 150.876 36.607 150.947 36.6771 151.017C36.7471 151.087 36.8172 151.157 36.8873 151.157C37.0975 151.297 37.3777 151.507 37.5879 151.647C37.658 151.717 37.7981 151.787 37.8682 151.857C37.9383 151.857 37.9383 151.927 38.0083 151.927C38.0784 151.998 38.1485 151.998 38.1485 152.068C38.2886 152.138 38.3587 152.278 38.4988 152.418C38.5689 152.488 38.6389 152.558 38.779 152.628C38.8491 152.698 38.9192 152.768 38.9892 152.838L39.0593 152.908C39.2695 153.119 39.4096 153.259 39.6198 153.469C39.6899 153.609 39.83 153.679 39.9001 153.819C39.9702 153.889 40.0402 153.959 40.0402 154.029C40.2504 154.24 40.4606 154.52 40.6708 154.8C40.7409 154.87 40.7409 154.94 40.811 154.94C40.881 155.01 40.9511 155.08 40.9511 155.15C41.0212 155.221 41.0212 155.291 41.0912 155.361C41.3014 155.641 41.5116 155.921 41.6517 156.201C41.7218 156.342 41.8619 156.552 41.932 156.692C42.2123 157.182 42.4925 157.603 42.7027 158.093C42.7728 158.233 42.8429 158.373 42.9129 158.514C42.983 158.654 43.0531 158.794 43.1231 158.934C43.2633 159.214 43.4034 159.495 43.4735 159.775C43.4735 159.775 43.4735 159.845 43.5435 159.845V159.915C43.5435 159.985 43.6136 160.055 43.6136 160.125V160.195C43.6136 160.265 43.6837 160.265 43.6837 160.335C43.8238 160.616 43.8938 160.896 43.9639 161.176C44.034 161.316 44.034 161.386 44.104 161.526C44.1741 161.737 44.2442 162.017 44.3142 162.227C44.3142 162.297 44.3843 162.437 44.3843 162.507C44.4544 162.788 44.5244 163.068 44.5945 163.418C44.5945 163.418 44.5945 163.488 44.5945 163.558C44.5945 163.628 44.5945 163.698 44.6646 163.769C44.6646 163.839 44.6646 163.979 44.7346 164.049C44.7346 164.189 44.8047 164.259 44.8047 164.399C44.8047 164.469 44.8047 164.609 44.8748 164.679C44.8748 164.749 44.8748 164.89 44.8748 164.96C44.8748 165.03 44.8748 165.1 44.8748 165.17C44.8748 165.17 44.8748 165.17 44.8748 165.24C44.8748 165.31 44.8748 165.38 44.8748 165.45C45.085 165.38 45.085 165.45 45.085 165.52Z" fill="#49443A" stroke="#231F20" stroke-width="0.0802954" stroke-miterlimit="10" stroke-linecap="round" stroke-linejoin="round"/>
        <path d="M100.577 198.171C100.577 197.68 100.507 197.19 100.437 196.629C100.437 196.489 100.437 196.349 100.367 196.279C100.367 196.139 100.297 195.999 100.297 195.929C100.297 195.789 100.227 195.648 100.227 195.578C100.227 195.438 100.157 195.298 100.157 195.228C100.157 195.088 100.087 194.948 100.087 194.808C100.087 194.668 100.017 194.527 100.017 194.457C99.9466 194.177 99.8765 193.967 99.8065 193.687C99.8065 193.546 99.7364 193.406 99.7364 193.266C99.7364 193.126 99.6663 192.986 99.5963 192.846C99.5262 192.706 99.5262 192.566 99.4561 192.425C99.3861 192.285 99.3861 192.145 99.316 192.005C99.2459 191.865 99.2459 191.725 99.1759 191.655C99.1058 191.515 99.1058 191.374 99.0357 191.234C98.9657 191.024 98.8255 190.744 98.7555 190.534C98.6854 190.253 98.5453 190.043 98.4752 189.763C98.4752 189.693 98.4051 189.623 98.4051 189.553C98.4051 189.483 98.3351 189.413 98.3351 189.343C98.265 189.272 98.265 189.132 98.1949 189.062C98.1249 188.922 98.0548 188.782 98.0548 188.712C97.9847 188.572 97.9847 188.502 97.9147 188.362C97.9147 188.292 97.8446 188.221 97.8446 188.151C97.8446 188.081 97.7745 188.011 97.7745 187.941C97.7045 187.801 97.6344 187.661 97.5644 187.591C97.4242 187.311 97.2841 187.03 97.0739 186.75C97.0739 186.75 97.0739 186.75 97.0739 186.68C97.0739 186.68 97.0739 186.68 97.0739 186.61C97.0038 186.54 97.0038 186.47 96.9338 186.4C96.8637 186.26 96.7936 186.12 96.6535 185.979C96.5834 185.839 96.5134 185.699 96.3732 185.559C96.3032 185.419 96.2331 185.279 96.093 185.139C96.0229 184.998 95.8828 184.858 95.8127 184.718C95.8127 184.648 95.7426 184.648 95.7426 184.578C95.7426 184.578 95.7426 184.578 95.7426 184.508C95.6726 184.438 95.6726 184.368 95.6025 184.298C95.5324 184.228 95.4624 184.158 95.3923 184.018C95.3923 183.947 95.3222 183.947 95.3222 183.877C95.2522 183.737 95.112 183.597 95.042 183.457C94.9019 183.317 94.8318 183.177 94.6917 183.037L94.6216 182.967C94.5515 182.896 94.4815 182.826 94.4815 182.756C94.4114 182.686 94.3413 182.616 94.3413 182.546C94.0611 182.266 93.8509 181.916 93.5706 181.635C93.5005 181.495 93.3604 181.425 93.2903 181.285C93.1502 181.075 92.94 180.935 92.7999 180.795C92.6597 180.654 92.4495 180.444 92.3094 180.304C92.2394 180.234 92.2393 180.234 92.1693 180.164C92.0992 180.094 92.0992 180.094 92.0292 180.024C91.889 179.954 91.819 179.814 91.6788 179.744C91.6088 179.673 91.4686 179.533 91.3986 179.463C91.3285 179.393 91.1884 179.253 91.1183 179.183C91.0482 179.113 90.9782 179.043 90.9081 178.973C90.838 178.903 90.768 178.833 90.6979 178.763C90.6278 178.693 90.5578 178.622 90.4877 178.552C90.4176 178.482 90.3476 178.412 90.2775 178.342C90.2074 178.272 90.0673 178.202 89.9972 178.132C89.9272 178.062 89.787 177.992 89.717 177.922C89.6469 177.852 89.5068 177.782 89.4367 177.712C89.2265 177.571 89.0163 177.431 88.8061 177.291C88.7361 177.221 88.5959 177.151 88.5259 177.081C88.3857 177.011 88.3157 176.941 88.1755 176.871C88.1055 176.801 88.0354 176.801 87.9653 176.731C87.615 176.521 87.3348 176.38 86.9844 176.24C83.9015 174.699 81.0989 174.629 78.9969 175.75L78.8568 175.82C77.0351 176.871 75.7038 178.973 75.2834 181.775C75.1433 182.546 75.0732 183.317 75.0732 184.158V184.228C75.0732 192.425 80.8887 202.445 87.9653 206.579C91.5387 208.681 94.8318 208.821 97.144 207.42L97.214 207.349C99.2459 206.088 100.577 203.636 100.787 200.203C100.787 199.993 100.787 199.852 100.787 199.642C100.787 199.502 100.787 199.432 100.787 199.292C100.787 199.222 100.787 199.152 100.787 199.082C100.577 198.801 100.577 198.451 100.577 198.171ZM96.8637 197.12C96.8637 197.33 96.8637 197.54 96.8637 197.75C96.7936 198.871 96.5834 199.782 96.2331 200.553C95.8127 201.534 95.112 202.305 94.3413 202.795L94.2713 202.865C92.5897 203.846 90.2775 203.706 87.6851 202.235C87.4749 202.095 87.1946 201.954 86.9844 201.814C86.8443 201.744 86.7042 201.604 86.494 201.464C86.3538 201.324 86.2137 201.254 86.0736 201.114C85.9334 200.973 85.7933 200.903 85.6532 200.763C85.5831 200.693 85.513 200.623 85.443 200.553C85.3028 200.413 85.1627 200.273 85.0226 200.203C84.8824 200.063 84.7423 199.922 84.6022 199.782C84.5321 199.712 84.4621 199.642 84.392 199.572C84.2519 199.432 84.1818 199.362 84.0417 199.222C83.9716 199.082 83.8315 199.012 83.7614 198.871C83.6913 198.801 83.6213 198.731 83.5512 198.661C83.4811 198.521 83.341 198.451 83.2709 198.311C83.2009 198.241 83.1308 198.171 83.0607 198.101C82.9907 198.031 82.9206 197.961 82.8505 197.891C82.7805 197.821 82.7104 197.75 82.6403 197.68C82.5703 197.61 82.5002 197.54 82.5002 197.47C82.4301 197.33 82.29 197.19 82.2199 197.05C82.2199 197.05 82.2199 196.98 82.1499 196.98C82.0798 196.84 81.9397 196.699 81.8696 196.559C81.7295 196.279 81.5193 196.069 81.3792 195.789C81.239 195.578 81.169 195.438 81.0989 195.228C81.0288 195.018 80.8887 194.878 80.8186 194.668C80.7486 194.457 80.6084 194.317 80.5384 194.107C80.4683 193.897 80.3282 193.757 80.2581 193.546C80.188 193.476 80.188 193.406 80.118 193.266C80.0479 193.126 80.0479 193.056 79.9778 192.916C79.9078 192.776 79.8377 192.566 79.7676 192.425C79.6976 192.285 79.6275 192.145 79.6275 192.005C79.5575 191.865 79.5574 191.725 79.4874 191.585C79.4173 191.374 79.3473 191.234 79.2772 191.024V190.954C79.2071 190.814 79.2071 190.674 79.1371 190.534C79.067 190.323 78.9969 190.113 78.9969 189.903C78.9969 189.763 78.9269 189.623 78.9269 189.483C78.8568 189.132 78.7867 188.782 78.7167 188.432C78.7167 188.362 78.7167 188.292 78.7167 188.221C78.6466 187.941 78.6466 187.591 78.6466 187.311C78.6466 187.241 78.6466 187.1 78.6466 187.03C78.6466 186.96 78.6466 186.82 78.6466 186.75C78.6466 186.68 78.6466 186.54 78.6466 186.47V186.4C78.6466 186.26 78.6466 186.12 78.6466 185.979C78.6466 185.839 78.6466 185.769 78.6466 185.629C78.6466 185.559 78.6466 185.559 78.6466 185.489C78.6466 185.349 78.6466 185.279 78.6466 185.139C78.6466 185.069 78.6466 184.928 78.6466 184.858C78.6466 184.648 78.7167 184.508 78.7167 184.298C78.7167 184.228 78.7167 184.088 78.7867 184.018C78.7867 183.877 78.8568 183.807 78.8568 183.737C78.8568 183.667 78.8568 183.667 78.9269 183.597C78.9269 183.527 78.9969 183.457 78.9969 183.387C78.9969 183.317 79.067 183.247 79.067 183.177C79.1371 183.037 79.1371 182.896 79.2071 182.826C79.2772 182.756 79.2772 182.616 79.3473 182.546C79.3473 182.476 79.4173 182.406 79.4874 182.336C79.5574 182.266 79.6275 182.126 79.6976 182.056C79.6976 181.986 79.7676 181.916 79.8377 181.846C79.9078 181.775 79.9078 181.705 79.9778 181.635C80.0479 181.565 80.0479 181.495 80.118 181.425L80.188 181.355C80.2581 181.285 80.2581 181.285 80.3282 181.215C80.3982 181.145 80.4683 181.075 80.4683 181.075C80.5384 181.005 80.6084 180.935 80.6785 180.935L80.7486 180.865L80.8186 180.795C80.8887 180.724 80.9588 180.724 81.0288 180.654C81.0989 180.584 81.239 180.514 81.3091 180.514L81.4492 180.444C82.2199 180.024 83.0607 179.884 84.0417 179.884C85.0226 179.954 86.0736 180.234 87.1946 180.795C87.4048 180.935 87.6851 181.005 87.8953 181.145C87.9653 181.215 88.0354 181.215 88.1055 181.285H88.1755L88.2456 181.215L88.3857 181.495C88.5259 181.565 88.666 181.635 88.8061 181.775C88.8762 181.846 88.9463 181.846 89.0163 181.916C89.1565 181.986 89.2966 182.126 89.4367 182.196C89.6469 182.336 89.8571 182.476 90.0673 182.686C90.1374 182.756 90.2074 182.756 90.2775 182.826C90.6278 183.107 90.9782 183.457 91.3285 183.807C91.3986 183.877 91.4686 183.947 91.5387 184.018C91.6088 184.088 91.7489 184.228 91.819 184.368C91.889 184.438 92.0292 184.578 92.0992 184.648C92.1693 184.718 92.2394 184.788 92.3094 184.858C92.3795 184.928 92.4496 185.069 92.5897 185.139C92.6597 185.279 92.7999 185.419 92.8699 185.489C92.94 185.559 92.94 185.629 93.0101 185.699C93.1502 185.839 93.2203 185.979 93.3604 186.12C93.991 186.96 94.5515 187.871 95.042 188.852C95.112 189.062 95.2522 189.202 95.3222 189.413C95.3222 189.483 95.3923 189.483 95.3923 189.553C95.3923 189.623 95.4624 189.693 95.4624 189.693C95.5324 189.833 95.5324 189.903 95.6025 190.043C95.6726 190.183 95.6726 190.253 95.7426 190.394C95.8127 190.464 95.8127 190.604 95.8828 190.674C95.9528 190.954 96.093 191.164 96.163 191.445C96.2331 191.515 96.2331 191.655 96.3032 191.795C96.3732 191.935 96.4433 192.145 96.4433 192.285C96.5134 192.636 96.6535 192.916 96.7236 193.266C96.7236 193.406 96.7936 193.476 96.7936 193.617C96.8637 193.827 96.9338 194.107 96.9338 194.317V194.387C96.9338 194.457 97.0038 194.597 97.0038 194.668C97.0038 194.738 97.0038 194.808 97.0038 194.878C97.0038 194.948 97.0038 195.018 97.0038 195.088C97.0038 195.158 97.0038 195.158 97.0038 195.228C97.0038 195.298 97.0038 195.438 97.0739 195.508C97.0739 195.648 97.0739 195.789 97.144 195.929C97.144 196.069 97.144 196.279 97.144 196.419C97.144 196.629 97.144 196.91 97.144 197.12C96.8637 196.98 96.8637 197.05 96.8637 197.12Z" fill="#231F20" stroke="#231F20" stroke-width="0.201439" stroke-miterlimit="10" stroke-linecap="round" stroke-linejoin="round"/>
        <path d="M94.4114 194.597C94.4114 194.808 94.4114 194.948 94.4114 195.158C94.4114 195.368 94.4114 195.508 94.3413 195.648C94.2713 195.999 94.2012 196.279 94.1311 196.629C93.8509 197.54 93.3604 198.171 92.6598 198.591H92.5897C92.3094 198.731 92.0292 198.871 91.6788 198.942C90.6979 199.152 89.4367 198.942 88.1055 198.171C84.9525 196.349 82.3601 192.215 81.9397 188.502C81.8696 188.151 81.8696 187.801 81.8696 187.451C81.8696 186.96 81.9397 186.47 82.0098 186.049C82.22 185.139 82.5703 184.438 83.0607 183.947C83.2709 183.737 83.4811 183.597 83.6913 183.457L83.7614 183.387C84.4621 183.037 85.3029 182.896 86.2838 183.107C86.7042 183.177 87.1246 183.387 87.615 183.597C87.7552 183.667 87.8953 183.737 88.1055 183.877C89.0864 184.438 90.0673 185.279 90.9081 186.26C92.0992 187.591 93.0101 189.272 93.6407 190.954C93.9209 191.655 94.0611 192.425 94.2012 193.126C94.3413 193.617 94.4114 194.107 94.4114 194.597Z" fill="#6E6657" stroke="#231F20" stroke-width="0.0802954" stroke-miterlimit="10" stroke-linecap="round" stroke-linejoin="round"/>
        <path d="M96.1627 200.553C95.7423 201.534 95.0416 202.305 94.2709 202.795L94.2008 202.865C92.5193 203.846 90.2071 203.706 87.6147 202.235C87.4045 202.095 87.1242 201.954 86.914 201.814C86.7739 201.744 86.6337 201.604 86.4235 201.464C86.2834 201.324 86.1433 201.254 86.0031 201.114C85.863 200.973 85.7229 200.903 85.5827 200.763C85.5127 200.693 85.4426 200.623 85.3725 200.553C85.2324 200.413 85.0923 200.273 84.9522 200.203C84.812 200.063 84.6719 199.922 84.5318 199.782C84.4617 199.712 84.3916 199.642 84.3216 199.572C84.1814 199.432 84.1114 199.362 83.9712 199.222C83.9012 199.082 83.761 199.012 83.691 198.871C83.6209 198.801 83.5508 198.731 83.4808 198.661C83.4107 198.521 83.2706 198.451 83.2005 198.311C83.1304 198.241 83.0604 198.171 82.9903 198.101C82.9202 198.031 82.8502 197.961 82.7801 197.891C82.7101 197.82 82.64 197.75 82.5699 197.68C82.4999 197.61 82.4298 197.54 82.4298 197.47C82.3597 197.33 82.2196 197.19 82.1495 197.05C82.1495 197.05 82.1495 196.98 82.0795 196.98C82.0094 196.84 81.8693 196.699 81.7992 196.559C81.6591 196.279 81.4489 196.069 81.3087 195.789C81.1686 195.578 81.0985 195.438 81.0285 195.228C80.9584 195.018 80.8183 194.878 80.7482 194.668C80.6781 194.457 80.538 194.317 80.4679 194.107C80.3979 193.897 80.2577 193.757 80.1877 193.546C80.1176 193.476 80.1176 193.406 80.0476 193.266C79.9775 193.126 79.9775 193.056 79.9074 192.916C79.8374 192.776 79.7673 192.566 79.6972 192.425C79.6272 192.285 79.5571 192.145 79.5571 192.005C79.487 191.865 79.487 191.725 79.417 191.585C79.3469 191.374 79.2768 191.234 79.2068 191.024V190.954C79.1367 190.814 79.1367 190.674 79.0666 190.534C78.9966 190.323 78.9265 190.113 78.9265 189.903C78.9265 189.763 78.8564 189.623 78.8564 189.483C78.7864 189.132 78.7163 188.782 78.6462 188.432C78.6462 188.362 78.6462 188.292 78.6462 188.221C78.5762 187.941 78.5762 187.591 78.5762 187.311C78.5762 187.241 78.5762 187.1 78.5762 187.03C78.5762 186.96 78.5762 186.82 78.5762 186.75C78.5762 186.68 78.5762 186.54 78.5762 186.47V186.4C78.5762 186.26 78.5762 186.12 78.5762 185.979C78.5762 185.839 78.5762 185.769 78.5762 185.629C78.5762 185.559 78.5762 185.559 78.5762 185.489C78.5762 185.349 78.5762 185.279 78.5762 185.139C78.5762 185.069 78.5762 184.928 78.5762 184.858C78.5762 184.648 78.6462 184.508 78.6462 184.298C78.6462 184.228 78.6462 184.088 78.7163 184.018C78.7163 183.877 78.7864 183.807 78.7864 183.737C78.7864 183.667 78.7864 183.667 78.8564 183.597C78.8564 183.527 78.9265 183.457 78.9265 183.387C78.9265 183.317 78.9966 183.247 78.9966 183.177C79.0666 183.037 79.0666 182.896 79.1367 182.826C79.2068 182.756 79.2068 182.616 79.2768 182.546C79.2768 182.476 79.3469 182.406 79.417 182.336C79.487 182.266 79.5571 182.126 79.6272 182.056C79.6972 181.986 79.6972 181.916 79.7673 181.846C79.8374 181.775 79.8374 181.705 79.9074 181.635C79.9775 181.565 79.9775 181.495 80.0476 181.425L80.1176 181.355C80.1877 181.285 80.1877 181.285 80.2577 181.215C80.3278 181.145 80.3979 181.075 80.3979 181.075C80.4679 181.005 80.538 180.935 80.6081 180.935L80.6781 180.865L80.7482 180.795C80.8183 180.724 80.8883 180.724 80.9584 180.654C81.0285 180.584 81.1686 180.514 81.2387 180.514L81.3788 180.444C82.1495 180.024 82.9903 179.884 83.9712 179.884C83.5508 180.865 83.2706 182.056 83.2706 183.527C83.2706 183.667 83.2706 183.877 83.2706 184.018C82.7801 184.508 82.4298 185.209 82.2196 186.12C82.1495 186.54 82.0795 187.03 82.0795 187.521C82.0795 187.871 82.0795 188.221 82.1495 188.572C82.5699 192.285 85.1623 196.489 88.3153 198.241C89.6466 199.012 90.8377 199.222 91.8887 199.012C92.0989 199.152 92.3091 199.292 92.5193 199.362C93.7104 200.063 95.0416 200.483 96.1627 200.553Z" fill="#49443A" stroke="#231F20" stroke-width="0.0802954" stroke-miterlimit="10" stroke-linecap="round" stroke-linejoin="round"/>
        <path d="M87.8951 181.145L83.9013 183.387L83.8313 183.457C83.6211 183.597 83.4109 183.737 83.2007 183.947C83.2007 183.807 83.2007 183.597 83.2007 183.457C83.2007 182.056 83.4109 180.795 83.9013 179.814C84.8823 179.884 85.9332 180.164 87.0543 180.724C87.2645 180.865 87.5448 180.935 87.755 181.075C87.755 181.005 87.825 181.075 87.8951 181.145Z" fill="#6E6657" stroke="#231F20" stroke-width="0.0802954" stroke-miterlimit="10" stroke-linecap="round" stroke-linejoin="round"/>
        <path d="M96.8633 196.91C96.8633 196.98 96.8633 197.05 96.8633 197.12C96.8633 197.33 96.8633 197.54 96.8633 197.75C96.7933 198.871 96.5831 199.782 96.2327 200.553C95.0416 200.483 93.7804 200.063 92.3791 199.292C92.1689 199.152 91.9587 199.082 91.7485 198.942C92.0989 198.871 92.3791 198.731 92.6594 198.591H92.7295L96.1627 196.699L96.6531 196.419L96.8633 196.279C96.8633 196.489 96.8633 196.699 96.8633 196.91Z" fill="#6E6657" stroke="#231F20" stroke-width="0.0802954" stroke-miterlimit="10" stroke-linecap="round" stroke-linejoin="round"/>
        <path d="M102.679 200.273C102.679 200.343 102.679 200.413 102.679 200.483C102.679 200.623 102.679 200.693 102.679 200.833C102.609 202.095 102.469 203.216 102.258 204.267L97.0035 207.35C99.0354 206.088 100.367 203.636 100.577 200.203C100.577 199.993 100.577 199.852 100.577 199.642C100.577 199.502 100.577 199.432 100.577 199.292C100.577 199.222 100.577 199.152 100.577 199.082C100.577 198.802 100.577 198.521 100.577 198.171C100.577 197.68 100.507 197.19 100.437 196.629C100.437 196.489 100.437 196.349 100.367 196.279C100.367 196.139 100.297 195.999 100.297 195.929C100.297 195.789 100.227 195.649 100.227 195.578C100.227 195.438 100.156 195.298 100.156 195.228C100.156 195.088 100.086 194.948 100.086 194.808C100.086 194.668 100.016 194.528 100.016 194.457C99.9462 194.177 99.8762 193.967 99.8061 193.687C99.8061 193.547 99.736 193.406 99.736 193.266C99.736 193.126 99.666 192.986 99.5959 192.846C99.5259 192.706 99.5258 192.566 99.4558 192.426C99.3857 192.285 99.3857 192.145 99.3157 192.005C99.2456 191.865 99.2456 191.725 99.1755 191.655C99.1055 191.515 99.1055 191.375 99.0354 191.234C98.9653 191.024 98.8252 190.744 98.7551 190.534C98.6851 190.253 98.5449 190.043 98.4749 189.763C98.4749 189.693 98.4048 189.623 98.4048 189.553C98.4048 189.483 98.3347 189.413 98.3347 189.343C98.2647 189.273 98.2647 189.132 98.1946 189.062C98.1245 188.922 98.0545 188.782 98.0545 188.712C97.9844 188.572 97.9844 188.502 97.9143 188.362C97.9143 188.292 97.8443 188.222 97.8443 188.152C97.8443 188.081 97.7742 188.011 97.7742 187.941C97.7041 187.801 97.6341 187.661 97.564 187.591C97.4239 187.311 97.2837 187.03 97.0735 186.75C97.0735 186.75 97.0735 186.75 97.0735 186.68C97.0735 186.68 97.0735 186.68 97.0735 186.61C97.0035 186.54 97.0035 186.47 96.9334 186.4C96.8633 186.26 96.7933 186.12 96.6532 185.979C96.5831 185.839 96.513 185.699 96.3729 185.559C96.3028 185.419 96.2328 185.279 96.0926 185.139C96.0226 184.999 95.8824 184.858 95.8124 184.718C95.8124 184.648 95.7423 184.648 95.7423 184.578C95.7423 184.578 95.7423 184.578 95.7423 184.508C95.6722 184.438 95.6722 184.368 95.6022 184.298C95.5321 184.228 95.462 184.158 95.392 184.018C95.392 183.948 95.3219 183.948 95.3219 183.878C95.2518 183.737 95.1117 183.597 95.0416 183.457C94.9015 183.317 94.8314 183.177 94.6913 183.037L94.6212 182.967C94.5512 182.897 94.4811 182.827 94.4811 182.756C94.411 182.686 94.341 182.616 94.341 182.546C94.0607 182.266 93.8505 181.916 93.5703 181.635C93.5002 181.495 93.3601 181.425 93.29 181.285C93.1499 181.075 92.9397 180.935 92.7995 180.795C92.6594 180.654 92.4492 180.444 92.3091 180.304C92.239 180.234 92.239 180.234 92.1689 180.164C92.0989 180.094 92.0989 180.094 92.0288 180.024C91.8887 179.954 91.8186 179.814 91.6785 179.744C91.6084 179.674 91.4683 179.533 91.3982 179.463C91.3282 179.393 91.188 179.253 91.118 179.183C91.0479 179.113 90.9778 179.043 90.9078 178.973C90.8377 178.903 90.7676 178.833 90.6976 178.763C90.6275 178.693 90.5574 178.623 90.4874 178.553C90.4173 178.482 90.3472 178.412 90.2772 178.342C90.2071 178.272 90.067 178.202 89.9969 178.132C89.9268 178.062 89.7867 177.992 89.7166 177.922C89.6466 177.852 89.5064 177.782 89.4364 177.712C89.2262 177.572 89.016 177.431 88.8058 177.291C88.7357 177.221 88.5956 177.151 88.5255 177.081C88.3854 177.011 88.3153 176.941 88.1752 176.871C88.1051 176.801 88.0351 176.801 87.965 176.731C87.6147 176.521 87.3344 176.38 86.9841 176.24C83.9012 174.699 81.0986 174.629 78.9966 175.75L84.6719 172.527L87.2643 174.068L89.0861 175.119C96.2328 179.814 101.978 189.483 102.819 198.101C102.679 198.802 102.679 199.572 102.679 200.273Z" fill="url(#paint1_linear_1_19911)" stroke="#231F20" stroke-width="0.201439" stroke-miterlimit="10" stroke-linecap="round" stroke-linejoin="round"/>
        <path d="M96.8633 196.209C96.8633 196.209 96.7932 196.209 96.8633 196.209L96.583 196.349L96.0926 196.629L92.6593 198.521C93.2899 198.101 93.7804 197.47 94.1307 196.559C94.2008 196.279 94.2709 195.929 94.3409 195.578C94.3409 195.438 94.411 195.228 94.411 195.088C94.411 194.948 94.411 194.738 94.411 194.527C94.411 194.037 94.3409 193.547 94.2708 193.056C94.1307 192.355 93.9906 191.655 93.7103 190.884C93.0797 189.202 92.1689 187.521 90.9778 186.19C90.137 185.209 89.1561 184.368 88.1751 183.807C88.035 183.737 87.8248 183.667 87.6847 183.527C87.2643 183.317 86.7738 183.177 86.3534 183.037C85.3725 182.826 84.5317 182.897 83.8311 183.317L87.8248 181.075C87.8949 181.145 88.035 181.215 88.1051 181.285C88.2452 181.355 88.3853 181.425 88.5255 181.565C88.5955 181.635 88.6656 181.635 88.7357 181.705C88.8758 181.775 89.0159 181.916 89.1561 181.986C89.3662 182.126 89.5764 182.266 89.7866 182.476C89.8567 182.546 89.9268 182.546 89.9968 182.616C90.3472 182.897 90.6975 183.247 91.0478 183.597C91.1179 183.667 91.188 183.737 91.258 183.807C91.3281 183.877 91.4682 184.018 91.5383 184.158C91.6084 184.228 91.7485 184.368 91.8185 184.438C91.8886 184.508 91.9587 184.578 92.0287 184.648C92.0988 184.718 92.1689 184.858 92.309 184.928C92.3791 185.069 92.5192 185.209 92.5893 185.279C92.6593 185.349 92.6593 185.419 92.7294 185.489C92.8695 185.629 92.9396 185.769 93.0797 185.909C93.7103 186.75 94.2709 187.661 94.7613 188.642C94.8314 188.852 94.9715 188.992 95.0416 189.202C95.0416 189.273 95.1116 189.273 95.1116 189.343C95.1116 189.413 95.1817 189.483 95.1817 189.483C95.2518 189.623 95.2518 189.693 95.3218 189.833C95.3919 189.973 95.3919 190.043 95.462 190.183C95.532 190.253 95.532 190.394 95.6021 190.464C95.6722 190.744 95.8123 190.954 95.8824 191.234C95.9524 191.304 95.9524 191.445 96.0225 191.585C96.0926 191.725 96.1626 191.935 96.1626 192.075C96.2327 192.425 96.3728 192.706 96.4429 193.056C96.4429 193.196 96.513 193.266 96.513 193.406C96.583 193.617 96.6531 193.897 96.6531 194.107V194.177C96.6531 194.247 96.7232 194.387 96.7232 194.457C96.7232 194.527 96.7232 194.598 96.7232 194.668C96.7232 194.738 96.7232 194.808 96.7232 194.878C96.7232 194.948 96.7232 194.948 96.7232 195.018C96.7232 195.088 96.7232 195.228 96.7932 195.298C96.7932 195.438 96.7932 195.578 96.8633 195.719C96.7932 195.859 96.8633 196.069 96.8633 196.209Z" fill="#49443A" stroke="#231F20" stroke-width="0.0802954" stroke-miterlimit="10" stroke-linecap="round" stroke-linejoin="round"/>
        <path d="M36.3965 150.596C36.3264 150.526 36.1863 150.456 36.1162 150.386H36.1863L36.2563 150.316L36.3965 150.596Z" fill="#F1F2F2" stroke="#231F20" stroke-width="0.0802954" stroke-miterlimit="10" stroke-linecap="round" stroke-linejoin="round"/>
        <path d="M127.902 195.088L107.092 206.719C107.092 206.719 113.328 184.088 90.697 169.444C89.8562 168.883 88.9453 168.323 88.0345 167.832L45.5746 143.66L37.7973 139.246L33.3832 136.723C33.3832 136.723 28.0582 133.921 23.5039 136.303L43.3325 124.952C48.1671 121.379 54.2628 124.672 54.2628 124.672L108.774 156.202C109.685 156.762 110.596 157.253 111.436 157.813C134.138 172.457 127.902 195.088 127.902 195.088Z" fill="#F1F2F2" stroke="#231F20" stroke-width="0.201439" stroke-miterlimit="10" stroke-linecap="round" stroke-linejoin="round"/>
        <path d="M107.092 206.719L88.7351 196.209L88.0345 195.789L33.3832 164.469L16.8477 154.94C16.8477 143.239 19.9306 138.265 23.4338 136.373L23.5039 136.303C28.1282 133.85 33.3832 136.723 33.3832 136.723L37.7973 139.246L45.5746 143.66L88.0345 167.762C88.9453 168.323 89.8562 168.813 90.697 169.374C113.328 184.018 107.092 206.719 107.092 206.719Z" fill="#F1F2F2" stroke="#231F20" stroke-width="0.201439" stroke-miterlimit="10" stroke-linecap="round" stroke-linejoin="round"/>
        <path opacity="0.14" d="M107.092 206.719L88.7351 196.209L88.0345 195.789L33.3832 164.469L16.8477 154.94C16.8477 143.239 19.9306 138.265 23.4338 136.373L23.5039 136.303C28.1282 133.85 33.3832 136.723 33.3832 136.723L37.7973 139.246L45.5746 143.66L88.0345 167.762C88.9453 168.323 89.8562 168.813 90.697 169.374C113.328 184.018 107.092 206.719 107.092 206.719Z" fill="black" stroke="#231F20" stroke-width="0.201439" stroke-miterlimit="10"/>
    </g>
    <defs>
        <linearGradient id="paint0_linear_1_19911" x1="47.2442" y1="175.675" x2="42.3106" y2="142.225" gradientUnits="userSpaceOnUse">
            <stop stop-color="#58595B"/>
            <stop offset="1"/>
        </linearGradient>
        <linearGradient id="paint1_linear_1_19911" x1="85.1706" y1="174.649" x2="96.8278" y2="195.643" gradientUnits="userSpaceOnUse">
            <stop stop-color="#58595B"/>
            <stop offset="1"/>
        </linearGradient>
        <clipPath id="">
            <rect width="112.035" height="90.7352" fill="white" transform="translate(16.707 123.201)"/>
        </clipPath>
    </defs>
</svg>
