<svg width="230" height="230" viewBox="0 0 230 230" fill="none"
    xmlns="http://www.w3.org/2000/svg">
    <g clip-path="url(#)">
        <path d="M194.465 142.679C194.465 147.864 192.713 151.577 189.911 153.399L189.21 153.819L173.585 162.928C176.388 161.176 178.14 157.673 178.28 152.768C178.28 152.698 178.28 152.628 178.28 152.558C178.28 152.418 178.28 152.278 178.28 152.068C178.28 151.297 178.21 150.526 178.14 149.756C177.229 139.946 170.713 128.946 162.585 123.551C162.585 123.551 162.585 123.551 162.515 123.551L160.413 122.36L159.012 121.519L132.317 105.894L108.915 92.1615L108.004 91.601C107.794 91.4609 107.583 91.3908 107.373 91.2507C107.233 91.1806 107.093 91.1105 106.953 91.0405C103.239 89.1487 99.8061 88.8684 97.1436 89.9194L112.068 81.0911L112.278 80.951C115.361 79.1293 119.565 79.4095 124.259 82.1421L176.668 112.901L178.77 114.092C178.77 114.092 178.77 114.092 178.84 114.092C187.528 119.908 194.465 132.379 194.465 142.679Z" fill="#414042" stroke="#231F20" stroke-width="0.201439" stroke-miterlimit="10" stroke-linecap="round" stroke-linejoin="round"/>
        <path d="M160.342 131.468L160.482 131.398L160.623 131.679C160.482 131.609 160.412 131.538 160.342 131.468Z" fill="#F1F2F2" stroke="#231F20" stroke-width="0.0802954" stroke-miterlimit="10" stroke-linecap="round" stroke-linejoin="round"/>
        <path d="M178.209 152.558C178.209 152.628 178.209 152.698 178.209 152.768C178.139 152.768 178.069 152.698 178.069 152.698L178.209 152.558Z" fill="#F1F2F2" stroke="#231F20" stroke-width="0.0802954" stroke-miterlimit="10" stroke-linecap="round" stroke-linejoin="round"/>
        <path d="M178.209 152.138C178.209 151.367 178.139 150.596 178.069 149.826C177.158 140.016 170.642 129.016 162.514 123.621C162.514 123.621 162.514 123.621 162.444 123.621L160.342 122.43L158.941 121.589L132.316 105.894L108.914 92.1615L108.003 91.601C107.793 91.4609 107.583 91.3908 107.373 91.2507C107.233 91.1806 107.092 91.1105 106.952 91.0405C103.239 89.1487 99.8056 88.8684 97.1431 89.9194L94.901 91.2507C92.5187 93.2125 91.0474 96.7158 91.0474 101.41C91.0474 111.78 98.0539 124.322 106.952 130.067L108.003 130.698L108.774 131.188L159.151 160.616C159.852 161.106 160.553 161.597 161.253 162.017C166.018 164.75 170.362 164.96 173.445 163.068C176.247 161.316 177.999 157.813 178.139 152.909C178.069 152.909 177.999 152.838 177.999 152.838L178.139 152.768C178.209 152.418 178.209 152.278 178.209 152.138ZM175.126 150.877C175.126 151.017 175.126 151.087 175.126 151.227C175.056 152.488 174.916 153.609 174.706 154.66C174.075 157.253 172.744 159.144 170.992 160.195C168.26 161.877 164.476 161.737 160.202 159.285C159.572 158.934 158.941 158.514 158.31 158.093L109.825 129.787L109.124 129.366L108.213 128.806C100.366 123.761 94.2003 112.691 94.2003 103.442C94.2003 99.3082 95.4615 96.2253 97.5635 94.4737C98.124 93.9832 98.8247 93.5628 99.5253 93.2826C100.787 92.7921 102.188 92.652 103.729 92.8622C104.92 93.0023 106.182 93.3526 107.443 93.9832C107.793 94.1233 108.143 94.3335 108.564 94.5437C108.704 94.6138 108.914 94.6839 109.054 94.824C109.054 94.824 109.124 94.824 109.124 94.8941L132.947 108.837L156.839 122.85L159.432 124.392L161.253 125.443C168.4 130.137 174.145 139.806 174.986 148.424C175.056 149.195 175.126 149.966 175.126 150.666C175.126 150.736 175.126 150.807 175.126 150.877Z" fill="#231F20" stroke="#231F20" stroke-width="0.201439" stroke-miterlimit="10" stroke-linecap="round" stroke-linejoin="round"/>
        <path d="M97.143 89.9194L94.9009 91.2507C95.6015 90.6902 96.3022 90.1997 97.143 89.9194Z" fill="#F1F2F2" stroke="#231F20" stroke-width="0.0802954" stroke-miterlimit="10" stroke-linecap="round" stroke-linejoin="round"/>
        <path d="M108.844 100.99C108.774 100.92 108.634 100.85 108.564 100.78H108.634L108.704 100.709L108.844 100.99Z" fill="#F1F2F2" stroke="#231F20" stroke-width="0.0802954" stroke-miterlimit="10" stroke-linecap="round" stroke-linejoin="round"/>
        <path d="M160.342 131.468L160.482 131.398L160.623 131.679C160.482 131.609 160.412 131.538 160.342 131.468Z" fill="#F1F2F2" stroke="#231F20" stroke-width="0.0802954" stroke-miterlimit="10" stroke-linecap="round" stroke-linejoin="round"/>
        <path d="M178.209 152.558C178.209 152.628 178.209 152.698 178.209 152.768C178.139 152.768 178.069 152.698 178.069 152.698L178.209 152.558Z" fill="#F1F2F2" stroke="#231F20" stroke-width="0.0802954" stroke-miterlimit="10" stroke-linecap="round" stroke-linejoin="round"/>
        <path d="M174.706 154.66C174.076 157.253 172.744 159.144 170.993 160.195C168.26 161.877 164.477 161.737 160.203 159.285C159.572 158.934 158.941 158.514 158.311 158.093L109.825 129.787L109.125 129.366L108.214 128.806C100.366 123.761 94.2007 112.691 94.2007 103.442C94.2007 99.3082 95.4619 96.2253 97.5638 94.4737C98.1244 93.9832 98.825 93.5628 99.5257 93.2826C100.787 92.7921 102.188 92.652 103.73 92.8622L99.3855 95.3845L99.2454 95.4546C96.9332 96.7858 95.4619 99.7286 95.4619 103.792C95.4619 112.06 101.277 122.08 108.354 126.143C111.927 128.245 115.22 128.386 117.533 126.984L117.603 126.914L126.011 122.15L128.183 120.888L147.381 132.099C147.24 132.87 147.17 133.64 147.17 134.481V134.551C147.17 142.749 152.986 152.768 160.062 156.902C163.636 159.004 166.929 159.144 169.241 157.743L169.311 157.673L174.706 154.66Z" fill="#58595B" stroke="#231F20" stroke-width="0.0802954" stroke-miterlimit="10" stroke-linecap="round" stroke-linejoin="round"/>
        <path d="M108.844 100.99C108.774 100.92 108.634 100.85 108.564 100.78H108.634L108.704 100.709L108.844 100.99Z" fill="#F1F2F2" stroke="#231F20" stroke-width="0.0802954" stroke-miterlimit="10" stroke-linecap="round" stroke-linejoin="round"/>
        <path d="M160.342 131.468L160.482 131.398L160.623 131.679C160.482 131.609 160.412 131.538 160.342 131.468Z" fill="#F1F2F2" stroke="#231F20" stroke-width="0.0802954" stroke-miterlimit="10" stroke-linecap="round" stroke-linejoin="round"/>
        <path d="M160.342 131.468L160.482 131.398L160.623 131.679C160.482 131.609 160.412 131.538 160.342 131.468Z" fill="#F1F2F2" stroke="#231F20" stroke-width="0.0802954" stroke-miterlimit="10" stroke-linecap="round" stroke-linejoin="round"/>
        <path d="M178.77 114.162L176.668 112.971C176.948 113.111 177.299 113.321 177.579 113.461C177.999 113.602 178.35 113.882 178.77 114.162Z" fill="#F1F2F2" stroke="#231F20" stroke-width="0.0802954" stroke-miterlimit="10" stroke-linecap="round" stroke-linejoin="round"/>
        <path d="M121.245 117.876C121.245 117.806 121.245 117.665 121.245 117.595C121.245 117.525 121.245 117.455 121.245 117.385C121.245 117.175 121.175 116.895 121.175 116.684V116.614C121.175 116.614 121.175 116.614 121.175 116.544C121.175 116.474 121.175 116.404 121.175 116.334C121.175 116.194 121.105 116.054 121.105 115.914C121.105 115.774 121.035 115.634 121.035 115.493C121.035 115.423 121.035 115.283 120.965 115.213C120.965 115.143 120.965 115.003 120.895 114.933C120.895 114.793 120.825 114.723 120.825 114.583C120.825 114.442 120.755 114.372 120.755 114.232C120.755 114.162 120.685 114.022 120.685 113.952C120.685 113.812 120.615 113.672 120.615 113.532C120.615 113.391 120.544 113.321 120.544 113.181C120.404 112.901 120.404 112.691 120.334 112.481C120.264 112.2 120.194 111.92 120.054 111.71C119.984 111.5 119.914 111.219 119.844 111.009C119.774 110.729 119.634 110.449 119.564 110.168C119.493 110.028 119.493 109.958 119.423 109.818C119.423 109.748 119.353 109.678 119.353 109.608C119.283 109.468 119.283 109.398 119.213 109.258C119.143 109.117 119.143 109.047 119.073 108.907C119.003 108.697 118.933 108.487 118.793 108.347C118.793 108.277 118.723 108.207 118.723 108.136C118.723 108.136 118.723 108.136 118.723 108.066C118.653 107.856 118.513 107.716 118.443 107.506C118.302 107.296 118.232 107.085 118.092 106.805C117.952 106.595 117.882 106.385 117.742 106.105C117.672 105.964 117.602 105.894 117.532 105.754C117.392 105.544 117.251 105.334 117.111 105.124C117.041 104.984 116.971 104.913 116.901 104.773C116.551 104.213 116.13 103.652 115.78 103.092C115.71 103.022 115.64 102.882 115.57 102.811C115.36 102.531 115.219 102.321 115.009 102.111C114.939 102.041 114.869 101.971 114.799 101.901C114.589 101.62 114.379 101.41 114.168 101.13C114.098 101.06 114.028 100.99 113.958 100.92C113.888 100.85 113.818 100.78 113.748 100.709C113.608 100.569 113.538 100.429 113.398 100.359C113.258 100.219 113.118 100.079 112.977 99.9388C112.907 99.8687 112.907 99.8687 112.837 99.7986C112.767 99.7286 112.767 99.7286 112.697 99.6585C112.627 99.5884 112.557 99.5184 112.487 99.4483C112.417 99.3783 112.347 99.3082 112.347 99.3082C112.277 99.2381 112.207 99.1681 112.137 99.098C112.137 99.098 112.137 99.098 112.067 99.098C111.926 98.9579 111.786 98.8878 111.646 98.7477C111.576 98.6776 111.436 98.6075 111.366 98.5375C111.296 98.4674 111.226 98.3973 111.086 98.3273C111.016 98.2572 110.875 98.1871 110.805 98.1171C110.735 98.047 110.595 97.9769 110.525 97.9069C110.175 97.6266 109.824 97.3463 109.404 97.1361C109.124 96.996 108.914 96.7858 108.633 96.6457C108.563 96.5756 108.493 96.5756 108.423 96.5056C108.283 96.4355 108.213 96.3654 108.073 96.2954C107.933 96.2253 107.863 96.1552 107.722 96.0852C107.652 96.0151 107.512 96.0151 107.442 95.945C104.289 94.3335 101.487 94.2634 99.3846 95.3845L99.2445 95.4546C96.9323 96.7858 95.4609 99.7286 95.4609 103.792C95.4609 112.06 101.276 122.08 108.353 126.143C111.926 128.245 115.219 128.385 117.532 126.984L117.602 126.914C119.634 125.653 120.965 123.201 121.175 119.767C121.175 119.627 121.175 119.487 121.175 119.347V119.277C121.175 119.207 121.175 119.207 121.175 119.137C121.175 118.997 121.175 118.857 121.175 118.716C121.315 118.436 121.245 118.156 121.245 117.876ZM117.532 117.385C117.462 118.506 117.251 119.417 116.901 120.188C116.481 121.169 115.78 121.939 115.009 122.43L114.939 122.5C113.258 123.481 110.945 123.341 108.353 121.869C103.308 118.997 99.1744 111.85 99.1744 105.964C99.1744 103.022 100.225 100.99 101.837 100.009L101.977 99.9388C102.748 99.5184 103.589 99.3783 104.569 99.3783C105.55 99.4483 106.601 99.7286 107.722 100.289C107.933 100.429 108.213 100.499 108.423 100.639C108.493 100.709 108.563 100.709 108.633 100.78H108.703L108.773 100.709L108.914 100.99C108.914 100.99 108.914 100.99 108.984 100.99C109.054 101.06 109.194 101.13 109.264 101.2C109.334 101.27 109.404 101.34 109.474 101.34C109.684 101.48 109.965 101.69 110.175 101.831C110.245 101.901 110.385 101.971 110.455 102.041C110.525 102.041 110.525 102.111 110.595 102.111C110.665 102.181 110.735 102.181 110.735 102.251C110.875 102.321 110.945 102.461 111.086 102.601C111.156 102.671 111.226 102.741 111.366 102.811C111.436 102.882 111.506 102.952 111.576 103.022L111.646 103.092C111.856 103.302 111.996 103.442 112.207 103.652C112.277 103.792 112.417 103.862 112.487 104.003C112.557 104.073 112.627 104.143 112.627 104.213C112.837 104.423 113.047 104.703 113.258 104.984C113.328 105.054 113.328 105.124 113.398 105.124C113.468 105.194 113.538 105.264 113.538 105.334C113.608 105.404 113.608 105.474 113.678 105.544C113.888 105.824 114.098 106.105 114.239 106.385C114.379 106.525 114.449 106.735 114.519 106.875C114.799 107.366 115.079 107.786 115.29 108.277C115.36 108.417 115.43 108.557 115.5 108.697C115.57 108.837 115.64 108.977 115.71 109.117C115.85 109.398 115.99 109.678 116.06 109.958C116.06 109.958 116.06 110.028 116.13 110.028V110.098C116.13 110.168 116.2 110.238 116.2 110.309V110.379C116.2 110.449 116.27 110.449 116.27 110.519C116.411 110.799 116.481 111.079 116.551 111.359C116.621 111.5 116.621 111.57 116.691 111.71C116.761 111.92 116.831 112.2 116.901 112.41C116.901 112.481 116.971 112.621 116.971 112.691C117.041 112.971 117.111 113.251 117.181 113.602C117.181 113.602 117.181 113.672 117.181 113.742C117.181 113.812 117.181 113.882 117.251 113.952C117.251 114.022 117.251 114.162 117.321 114.232C117.321 114.372 117.392 114.442 117.392 114.583C117.392 114.653 117.392 114.793 117.462 114.863C117.462 114.933 117.462 115.073 117.462 115.143C117.462 115.213 117.462 115.283 117.462 115.353C117.462 115.353 117.462 115.353 117.462 115.423C117.462 115.493 117.462 115.563 117.462 115.634C117.462 115.704 117.462 115.774 117.462 115.844C117.462 116.054 117.462 116.334 117.462 116.544C117.532 116.895 117.532 117.105 117.532 117.385Z" fill="#231F20" stroke="#231F20" stroke-width="0.201439" stroke-miterlimit="10" stroke-linecap="round" stroke-linejoin="round"/>
        <path d="M108.844 100.99C108.774 100.92 108.634 100.85 108.564 100.78H108.634L108.704 100.709L108.844 100.99Z" fill="#F1F2F2" stroke="#231F20" stroke-width="0.0802954" stroke-miterlimit="10" stroke-linecap="round" stroke-linejoin="round"/>
        <path d="M116.901 120.258C116.481 121.239 115.78 122.01 115.01 122.5H114.94C113.258 123.481 110.946 123.341 108.353 121.869C103.309 118.997 99.1748 111.85 99.1748 105.964C99.1748 103.022 100.226 100.99 101.837 100.009L101.977 99.9388C102.748 99.5184 103.589 99.3783 104.57 99.3783C104.149 100.359 103.869 101.55 103.869 103.022C103.869 103.162 103.869 103.372 103.869 103.512C103.098 104.283 102.678 105.474 102.678 107.015C102.678 111.009 105.481 115.774 108.914 117.806C110.245 118.576 111.436 118.787 112.487 118.576C112.697 118.716 112.908 118.857 113.118 118.927C114.379 119.767 115.71 120.188 116.901 120.258Z" fill="#49443A" stroke="#231F20" stroke-width="0.0802954" stroke-miterlimit="10" stroke-linecap="round" stroke-linejoin="round"/>
        <path d="M108.564 100.78L104.57 103.022L104.5 103.092C104.29 103.232 104.079 103.372 103.869 103.582C103.869 103.442 103.869 103.232 103.869 103.092C103.869 101.691 104.079 100.429 104.57 99.4485C105.551 99.5186 106.602 99.7988 107.723 100.359C107.933 100.499 108.213 100.57 108.423 100.71C108.423 100.71 108.493 100.78 108.564 100.78Z" fill="#6E6657" stroke="#231F20" stroke-width="0.0802954" stroke-miterlimit="10" stroke-linecap="round" stroke-linejoin="round"/>
        <path d="M117.532 116.614C117.532 116.895 117.532 117.175 117.532 117.385C117.462 118.506 117.252 119.417 116.902 120.188C115.711 120.118 114.449 119.697 113.048 118.927C112.838 118.787 112.628 118.716 112.417 118.576C112.768 118.506 113.048 118.366 113.328 118.226H113.398L117.322 116.054L117.532 115.914C117.532 116.124 117.532 116.404 117.532 116.614Z" fill="#6E6657" stroke="#231F20" stroke-width="0.0802954" stroke-miterlimit="10" stroke-linecap="round" stroke-linejoin="round"/>
        <path d="M108.844 100.99C108.774 100.92 108.634 100.85 108.564 100.78H108.634L108.704 100.709L108.844 100.99Z" fill="#F1F2F2" stroke="#231F20" stroke-width="0.0802954" stroke-miterlimit="10" stroke-linecap="round" stroke-linejoin="round"/>
        <path d="M108.844 100.99C108.774 100.92 108.634 100.85 108.564 100.78C108.564 100.78 108.634 100.78 108.634 100.71L108.704 100.64L108.844 100.99Z" fill="#F1F2F2" stroke="#231F20" stroke-width="0.0802954" stroke-miterlimit="10" stroke-linecap="round" stroke-linejoin="round"/>
        <path d="M115.15 114.232C115.15 114.442 115.15 114.583 115.15 114.793C115.15 115.353 115.01 115.844 114.869 116.264C114.589 117.175 114.099 117.806 113.398 118.226H113.328C113.048 118.366 112.767 118.506 112.417 118.576C111.436 118.787 110.175 118.576 108.844 117.806C105.411 115.844 102.608 111.009 102.608 107.015C102.608 105.474 103.028 104.283 103.799 103.512C104.009 103.302 104.219 103.162 104.43 103.022L104.5 102.952C105.2 102.601 106.041 102.461 107.022 102.671C107.442 102.741 107.863 102.952 108.353 103.162C108.493 103.232 108.634 103.302 108.844 103.442C109.054 103.582 109.194 103.652 109.404 103.792C109.474 103.863 109.544 103.863 109.614 103.933C109.825 104.073 109.965 104.213 110.175 104.353C110.315 104.493 110.455 104.563 110.595 104.703C110.665 104.773 110.736 104.773 110.736 104.843C110.736 104.843 110.736 104.843 110.806 104.913C110.876 104.984 110.946 105.054 111.016 105.124C111.086 105.194 111.226 105.334 111.296 105.404C111.436 105.544 111.506 105.684 111.646 105.824C112.838 107.156 113.748 108.837 114.379 110.519C114.379 110.589 114.449 110.659 114.449 110.729C114.449 110.799 114.449 110.799 114.519 110.869C114.589 111.079 114.659 111.289 114.729 111.5C114.729 111.57 114.799 111.64 114.799 111.71C114.869 111.85 114.869 112.06 114.939 112.2V112.27C114.939 112.34 114.939 112.34 114.939 112.411C114.939 112.551 115.01 112.691 115.01 112.831C115.01 112.971 115.01 113.111 115.08 113.181V113.251C115.08 113.391 115.08 113.532 115.08 113.602C115.08 114.022 115.15 114.162 115.15 114.232Z" fill="#6E6657" stroke="#231F20" stroke-width="0.0802954" stroke-miterlimit="10" stroke-linecap="round" stroke-linejoin="round"/>
        <path d="M133.157 111.85C133.157 116.334 131.405 119.347 128.743 120.538L128.112 120.888L126.01 122.15L117.672 126.984C119.704 125.723 121.036 123.271 121.246 119.838C121.246 119.697 121.246 119.557 121.246 119.417V119.347C121.246 119.277 121.246 119.277 121.246 119.207C121.246 119.067 121.246 118.927 121.246 118.787C121.246 118.506 121.246 118.226 121.246 117.876C121.246 117.806 121.246 117.665 121.246 117.595C121.246 117.525 121.246 117.455 121.246 117.385C121.246 117.175 121.176 116.895 121.176 116.685V116.614C121.176 116.614 121.176 116.614 121.176 116.544C121.176 116.474 121.176 116.404 121.176 116.334C121.176 116.194 121.106 116.054 121.106 115.914C121.106 115.774 121.036 115.634 121.036 115.493C121.036 115.423 121.036 115.283 120.966 115.213C120.966 115.143 120.966 115.003 120.895 114.933C120.895 114.793 120.825 114.723 120.825 114.583C120.825 114.442 120.755 114.372 120.755 114.232C120.755 114.162 120.685 114.022 120.685 113.952C120.685 113.812 120.615 113.672 120.615 113.532C120.615 113.391 120.545 113.321 120.545 113.181C120.405 112.901 120.405 112.691 120.335 112.481C120.265 112.2 120.195 111.92 120.055 111.71C119.985 111.5 119.915 111.219 119.844 111.009C119.774 110.729 119.634 110.449 119.564 110.168C119.494 110.028 119.494 109.958 119.424 109.818C119.424 109.748 119.354 109.678 119.354 109.608C119.284 109.468 119.284 109.398 119.214 109.258C119.144 109.117 119.144 109.047 119.074 108.907C119.004 108.697 118.934 108.487 118.793 108.347C118.793 108.277 118.723 108.207 118.723 108.137C118.723 108.137 118.723 108.137 118.723 108.066C118.653 107.856 118.513 107.716 118.443 107.506C118.303 107.296 118.233 107.086 118.093 106.805C117.953 106.595 117.883 106.385 117.742 106.105C117.672 105.964 117.602 105.894 117.532 105.754C117.392 105.544 117.252 105.334 117.112 105.124C117.042 104.984 116.972 104.913 116.902 104.773C116.551 104.213 116.131 103.652 115.781 103.092C115.711 103.022 115.641 102.882 115.57 102.812C115.36 102.531 115.22 102.321 115.01 102.111C114.94 102.041 114.87 101.971 114.8 101.901C114.59 101.62 114.379 101.41 114.169 101.13C114.099 101.06 114.029 100.99 113.959 100.92C113.889 100.85 113.819 100.78 113.749 100.71C113.609 100.569 113.539 100.429 113.398 100.359C113.258 100.219 113.118 100.079 112.978 99.9388C112.908 99.8688 112.908 99.8688 112.838 99.7987C112.768 99.7286 112.768 99.7286 112.698 99.6586C112.628 99.5885 112.558 99.5184 112.488 99.4484C112.417 99.3783 112.347 99.3082 112.347 99.3082C112.277 99.2382 112.207 99.1681 112.137 99.098C112.137 99.098 112.137 99.098 112.067 99.098C111.927 98.9579 111.787 98.8878 111.647 98.7477C111.577 98.6776 111.437 98.6076 111.366 98.5375C111.296 98.4674 111.226 98.3974 111.086 98.3273C111.016 98.2572 110.876 98.1872 110.806 98.1171C110.736 98.047 110.596 97.977 110.526 97.9069C110.175 97.6267 109.825 97.3464 109.405 97.1362C109.124 96.9961 108.914 96.7859 108.634 96.6457C108.564 96.5757 108.494 96.5757 108.424 96.5056C108.284 96.4355 108.214 96.3655 108.073 96.2954C107.933 96.2253 107.863 96.1553 107.723 96.0852C107.653 96.0151 107.513 96.0151 107.443 95.9451C104.29 94.3336 101.487 94.2635 99.3853 95.3845L103.729 92.8622C104.92 93.0023 106.182 93.3526 107.443 93.9832C107.793 94.1234 108.143 94.3336 108.564 94.5438C108.704 94.6138 108.914 94.6839 109.054 94.824C109.054 94.824 109.124 94.824 109.124 94.8941L132.947 108.837C133.087 109.888 133.157 110.869 133.157 111.85Z" fill="url(#paint0_linear_1_19911)" stroke="#231F20" stroke-width="0.201439" stroke-miterlimit="10" stroke-linecap="round" stroke-linejoin="round"/>
        <path d="M117.532 115.914L117.252 116.054L113.399 118.226C114.029 117.806 114.52 117.175 114.87 116.264C115.01 115.844 115.08 115.353 115.15 114.793C115.15 114.653 115.15 114.442 115.15 114.232C115.15 114.092 115.15 113.952 115.15 113.882C115.15 113.742 115.15 113.602 115.15 113.532V113.462C115.15 113.321 115.15 113.181 115.08 113.111C115.08 112.971 115.01 112.831 115.01 112.691C115.01 112.621 115.01 112.621 115.01 112.551V112.481C115.01 112.341 114.94 112.13 114.87 111.99C114.87 111.92 114.8 111.85 114.8 111.78C114.73 111.57 114.66 111.36 114.59 111.149C114.59 111.079 114.59 111.079 114.52 111.009C114.52 110.939 114.45 110.869 114.45 110.799C113.819 109.117 112.908 107.436 111.717 106.105C111.577 105.965 111.507 105.824 111.367 105.684C111.297 105.614 111.156 105.474 111.086 105.404C111.016 105.334 110.946 105.264 110.876 105.194C110.876 105.194 110.876 105.194 110.806 105.124C110.736 105.054 110.666 104.984 110.666 104.984C110.526 104.843 110.386 104.773 110.246 104.633C110.035 104.493 109.895 104.353 109.685 104.213C109.615 104.143 109.545 104.143 109.475 104.073C109.265 103.933 109.125 103.863 108.914 103.722C108.774 103.652 108.564 103.582 108.424 103.442C108.004 103.232 107.513 103.092 107.093 102.952C106.112 102.742 105.271 102.812 104.57 103.232L108.564 100.99C108.634 101.06 108.774 101.13 108.844 101.2C108.844 101.2 108.844 101.2 108.914 101.2C108.984 101.27 109.125 101.34 109.195 101.41C109.265 101.48 109.335 101.55 109.405 101.55C109.615 101.691 109.895 101.901 110.106 102.041C110.176 102.111 110.316 102.181 110.386 102.251C110.456 102.251 110.456 102.321 110.526 102.321C110.596 102.391 110.666 102.391 110.666 102.461C110.806 102.531 110.876 102.671 111.016 102.812C111.086 102.882 111.156 102.952 111.297 103.022C111.367 103.092 111.437 103.162 111.507 103.232L111.577 103.302C111.787 103.512 111.927 103.652 112.137 103.863C112.207 104.003 112.348 104.073 112.418 104.213C112.488 104.283 112.558 104.353 112.558 104.423C112.768 104.633 112.978 104.914 113.188 105.194C113.258 105.264 113.258 105.334 113.329 105.334C113.399 105.404 113.469 105.474 113.469 105.544C113.539 105.614 113.539 105.684 113.609 105.754C113.819 106.035 114.029 106.315 114.169 106.595C114.239 106.735 114.38 106.945 114.45 107.086C114.73 107.576 115.01 107.996 115.22 108.487C115.29 108.627 115.36 108.767 115.431 108.907C115.501 109.047 115.571 109.188 115.641 109.328C115.781 109.608 115.921 109.888 115.991 110.168C115.991 110.168 115.991 110.239 116.061 110.239V110.309C116.061 110.379 116.131 110.449 116.131 110.519V110.589C116.131 110.659 116.201 110.659 116.201 110.729C116.341 111.009 116.411 111.29 116.481 111.57C116.552 111.71 116.552 111.78 116.622 111.92C116.692 112.13 116.762 112.411 116.832 112.621C116.832 112.691 116.902 112.831 116.902 112.901C116.972 113.181 117.042 113.462 117.112 113.812C117.112 113.812 117.112 113.882 117.112 113.952C117.112 114.022 117.112 114.092 117.182 114.162C117.182 114.232 117.182 114.372 117.252 114.442C117.252 114.583 117.322 114.653 117.322 114.793C117.322 114.863 117.322 115.003 117.392 115.073C117.392 115.143 117.392 115.283 117.392 115.353C117.392 115.423 117.392 115.493 117.392 115.564C117.392 115.564 117.392 115.564 117.392 115.634C117.392 115.704 117.392 115.774 117.392 115.844C117.532 115.774 117.532 115.844 117.532 115.914Z" fill="#49443A" stroke="#231F20" stroke-width="0.0802954" stroke-miterlimit="10" stroke-linecap="round" stroke-linejoin="round"/>
        <path d="M173.024 148.565C173.024 148.074 172.954 147.584 172.884 147.023C172.884 146.883 172.884 146.743 172.814 146.673C172.814 146.533 172.744 146.392 172.744 146.322C172.744 146.182 172.674 146.042 172.674 145.972C172.674 145.832 172.604 145.692 172.604 145.622C172.604 145.482 172.534 145.341 172.534 145.201C172.534 145.061 172.464 144.921 172.464 144.851C172.394 144.571 172.324 144.361 172.254 144.08C172.254 143.94 172.184 143.8 172.184 143.66C172.184 143.52 172.114 143.38 172.044 143.24C171.973 143.099 171.973 142.959 171.903 142.819C171.833 142.679 171.833 142.539 171.763 142.399C171.693 142.259 171.693 142.118 171.623 142.048C171.553 141.908 171.553 141.768 171.483 141.628C171.413 141.418 171.273 141.138 171.203 140.927C171.133 140.647 170.993 140.437 170.922 140.157C170.922 140.087 170.852 140.016 170.852 139.946C170.852 139.876 170.782 139.806 170.782 139.736C170.712 139.666 170.712 139.526 170.642 139.456C170.572 139.316 170.502 139.176 170.502 139.106C170.432 138.965 170.432 138.895 170.362 138.755C170.362 138.685 170.292 138.615 170.292 138.545C170.292 138.475 170.222 138.405 170.222 138.335C170.152 138.195 170.082 138.055 170.012 137.985C169.871 137.704 169.731 137.424 169.521 137.144C169.521 137.144 169.521 137.144 169.521 137.074C169.521 137.074 169.521 137.074 169.521 137.004C169.451 136.934 169.451 136.864 169.381 136.793C169.311 136.653 169.241 136.513 169.101 136.373C169.031 136.233 168.961 136.093 168.821 135.953C168.75 135.813 168.68 135.672 168.54 135.532C168.47 135.392 168.33 135.252 168.26 135.112C168.26 135.042 168.19 135.042 168.19 134.972C168.19 134.972 168.19 134.972 168.19 134.902C168.12 134.832 168.12 134.762 168.05 134.691C167.98 134.621 167.91 134.551 167.84 134.411C167.84 134.341 167.77 134.341 167.77 134.271C167.699 134.131 167.559 133.991 167.489 133.851C167.349 133.711 167.279 133.57 167.139 133.43L167.069 133.36C166.999 133.29 166.929 133.22 166.929 133.15C166.859 133.08 166.789 133.01 166.789 132.94C166.508 132.66 166.298 132.309 166.018 132.029C165.948 131.889 165.808 131.819 165.738 131.679C165.597 131.468 165.387 131.328 165.247 131.188C165.107 131.048 164.897 130.838 164.757 130.698C164.687 130.628 164.687 130.628 164.617 130.558C164.546 130.488 164.546 130.488 164.476 130.417C164.336 130.347 164.266 130.207 164.126 130.137C164.056 130.067 163.916 129.927 163.846 129.857C163.776 129.787 163.636 129.647 163.566 129.577C163.496 129.507 163.425 129.437 163.355 129.366C163.285 129.296 163.215 129.226 163.145 129.156C163.075 129.086 163.005 129.016 162.935 128.946C162.865 128.876 162.795 128.806 162.725 128.736C162.655 128.666 162.515 128.596 162.445 128.526C162.374 128.456 162.234 128.386 162.164 128.316C162.094 128.245 161.954 128.175 161.884 128.105C161.674 127.965 161.464 127.825 161.253 127.685C161.183 127.615 161.043 127.545 160.973 127.475C160.833 127.405 160.763 127.335 160.623 127.265C160.553 127.194 160.483 127.194 160.413 127.124C160.062 126.914 159.782 126.774 159.432 126.634C156.349 125.092 153.546 125.022 151.444 126.143L151.304 126.214C149.482 127.265 148.151 129.366 147.731 132.169C147.591 132.94 147.521 133.711 147.521 134.551V134.621C147.521 142.819 153.336 152.839 160.413 156.972C163.986 159.074 167.279 159.215 169.591 157.813L169.661 157.743C171.693 156.482 173.024 154.03 173.235 150.596C173.235 150.386 173.235 150.246 173.235 150.036C173.235 149.896 173.235 149.826 173.235 149.686C173.235 149.615 173.235 149.545 173.235 149.475C173.024 149.125 173.024 148.845 173.024 148.565ZM169.311 147.443C169.311 147.654 169.311 147.864 169.311 148.074C169.241 149.195 169.031 150.106 168.68 150.877C168.26 151.858 167.559 152.628 166.789 153.119L166.719 153.189C165.037 154.17 162.725 154.03 160.132 152.558C159.922 152.418 159.642 152.278 159.432 152.138C159.292 152.068 159.151 151.928 158.941 151.788C158.801 151.647 158.661 151.577 158.521 151.437C158.381 151.297 158.241 151.227 158.1 151.087C158.03 151.017 157.96 150.947 157.89 150.877C157.75 150.737 157.61 150.596 157.47 150.526C157.33 150.386 157.19 150.246 157.049 150.106C156.979 150.036 156.909 149.966 156.839 149.896C156.699 149.756 156.629 149.686 156.489 149.545C156.419 149.405 156.279 149.335 156.209 149.195C156.139 149.125 156.069 149.055 155.998 148.985C155.928 148.845 155.788 148.775 155.718 148.635C155.648 148.565 155.578 148.494 155.508 148.424C155.438 148.354 155.368 148.284 155.298 148.214C155.228 148.144 155.158 148.074 155.088 148.004C155.018 147.934 154.947 147.864 154.947 147.794C154.877 147.654 154.737 147.514 154.667 147.373C154.667 147.373 154.667 147.303 154.597 147.303C154.527 147.163 154.387 147.023 154.317 146.883C154.177 146.603 153.967 146.392 153.826 146.112C153.686 145.902 153.616 145.762 153.546 145.552C153.476 145.341 153.336 145.201 153.266 144.991C153.196 144.781 153.056 144.641 152.986 144.431C152.916 144.22 152.775 144.08 152.705 143.87C152.635 143.8 152.635 143.73 152.565 143.59C152.495 143.45 152.495 143.38 152.425 143.24C152.355 143.099 152.285 142.889 152.215 142.749C152.145 142.609 152.075 142.469 152.075 142.329C152.005 142.189 152.005 142.048 151.935 141.908C151.865 141.698 151.795 141.558 151.724 141.348V141.278C151.654 141.138 151.654 140.997 151.584 140.857C151.514 140.647 151.444 140.437 151.444 140.227C151.444 140.087 151.374 139.946 151.374 139.806C151.304 139.456 151.234 139.106 151.164 138.755C151.164 138.685 151.164 138.615 151.164 138.545C151.094 138.265 151.094 137.915 151.094 137.634C151.094 137.564 151.094 137.424 151.094 137.354C151.094 137.284 151.094 137.144 151.094 137.074C151.094 137.004 151.094 136.864 151.094 136.793V136.723C151.094 136.583 151.094 136.443 151.094 136.303C151.094 136.163 151.094 136.093 151.094 135.953C151.094 135.883 151.094 135.883 151.094 135.813C151.094 135.672 151.094 135.602 151.094 135.462C151.094 135.392 151.094 135.252 151.094 135.182C151.094 134.972 151.164 134.832 151.164 134.621C151.164 134.551 151.164 134.411 151.234 134.341C151.234 134.201 151.304 134.131 151.304 134.061C151.304 133.991 151.304 133.991 151.374 133.921C151.374 133.851 151.444 133.781 151.444 133.711C151.444 133.64 151.514 133.57 151.514 133.5C151.584 133.36 151.584 133.22 151.654 133.15C151.724 133.08 151.724 132.94 151.795 132.87C151.795 132.8 151.865 132.73 151.935 132.66C152.005 132.59 152.075 132.449 152.145 132.379C152.145 132.309 152.215 132.239 152.285 132.169C152.355 132.099 152.355 132.029 152.425 131.959C152.495 131.889 152.495 131.819 152.565 131.749C152.565 131.679 152.635 131.679 152.635 131.679C152.705 131.609 152.705 131.609 152.775 131.539C152.846 131.468 152.916 131.398 152.916 131.398C152.986 131.328 153.056 131.258 153.126 131.258L153.196 131.188L153.266 131.118C153.336 131.048 153.406 131.048 153.476 130.978C153.546 130.908 153.686 130.838 153.756 130.838L153.896 130.768C154.667 130.347 155.508 130.207 156.489 130.207C157.47 130.277 158.521 130.558 159.642 131.118C159.852 131.258 160.132 131.328 160.343 131.468C160.413 131.539 160.483 131.539 160.553 131.609H160.623L160.693 131.539L160.833 131.819C160.973 131.889 161.113 131.959 161.253 132.099C161.323 132.169 161.394 132.169 161.464 132.239C161.604 132.309 161.744 132.449 161.884 132.519C162.094 132.66 162.304 132.8 162.515 133.01C162.585 133.08 162.655 133.08 162.725 133.15C163.075 133.43 163.425 133.781 163.776 134.131C163.846 134.201 163.916 134.271 163.986 134.341C164.056 134.411 164.196 134.551 164.266 134.691C164.336 134.762 164.476 134.902 164.546 134.972C164.617 135.042 164.687 135.112 164.757 135.182C164.827 135.252 164.897 135.392 165.037 135.462C165.107 135.602 165.247 135.742 165.317 135.813C165.387 135.883 165.387 135.953 165.457 136.023C165.597 136.163 165.668 136.303 165.808 136.443C166.438 137.284 166.999 138.195 167.489 139.176C167.559 139.386 167.699 139.526 167.77 139.736C167.77 139.806 167.84 139.806 167.84 139.876C167.84 139.946 167.91 140.016 167.91 140.016C167.98 140.157 167.98 140.227 168.05 140.367C168.12 140.507 168.12 140.577 168.19 140.717C168.26 140.787 168.26 140.927 168.33 140.997C168.4 141.278 168.54 141.488 168.61 141.768C168.68 141.838 168.68 141.978 168.75 142.118C168.821 142.259 168.891 142.469 168.891 142.609C168.961 142.959 169.101 143.24 169.171 143.59C169.171 143.73 169.241 143.8 169.241 143.94C169.311 144.15 169.381 144.431 169.381 144.641V144.711C169.381 144.781 169.451 144.921 169.451 144.991C169.451 145.061 169.451 145.131 169.451 145.201C169.451 145.271 169.451 145.341 169.451 145.412C169.451 145.482 169.451 145.482 169.451 145.552C169.451 145.622 169.451 145.762 169.521 145.832C169.521 145.972 169.521 146.112 169.591 146.252C169.591 146.392 169.591 146.603 169.591 146.743C169.591 146.953 169.591 147.233 169.591 147.443C169.311 147.303 169.311 147.373 169.311 147.443Z" fill="#231F20" stroke="#231F20" stroke-width="0.201439" stroke-miterlimit="10" stroke-linecap="round" stroke-linejoin="round"/>
        <path d="M166.858 144.921C166.858 145.131 166.858 145.271 166.858 145.481C166.858 145.692 166.858 145.832 166.788 145.972C166.718 146.322 166.648 146.603 166.578 146.953C166.298 147.864 165.807 148.494 165.107 148.915H165.036C164.756 149.055 164.476 149.195 164.126 149.265C163.145 149.475 161.884 149.265 160.552 148.494C157.399 146.673 154.807 142.539 154.386 138.825C154.316 138.475 154.316 138.125 154.316 137.774C154.316 137.284 154.386 136.793 154.457 136.373C154.667 135.462 155.017 134.761 155.508 134.271C155.718 134.061 155.928 133.921 156.138 133.781L156.208 133.71C156.909 133.36 157.75 133.22 158.731 133.43C159.151 133.5 159.571 133.71 160.062 133.921C160.202 133.991 160.342 134.061 160.552 134.201C161.533 134.761 162.514 135.602 163.355 136.583C164.546 137.914 165.457 139.596 166.087 141.278C166.368 141.978 166.508 142.749 166.648 143.45C166.788 143.94 166.858 144.431 166.858 144.921Z" fill="#6E6657" stroke="#231F20" stroke-width="0.0802954" stroke-miterlimit="10" stroke-linecap="round" stroke-linejoin="round"/>
        <path d="M168.61 150.877C168.19 151.858 167.489 152.628 166.718 153.119L166.648 153.189C164.967 154.17 162.654 154.03 160.062 152.558C159.852 152.418 159.571 152.278 159.361 152.138C159.221 152.068 159.081 151.928 158.871 151.788C158.731 151.647 158.591 151.577 158.45 151.437C158.31 151.297 158.17 151.227 158.03 151.087C157.96 151.017 157.89 150.947 157.82 150.877C157.68 150.737 157.54 150.596 157.399 150.526C157.259 150.386 157.119 150.246 156.979 150.106C156.909 150.036 156.839 149.966 156.769 149.896C156.629 149.756 156.559 149.686 156.419 149.545C156.348 149.405 156.208 149.335 156.138 149.195C156.068 149.125 155.998 149.055 155.928 148.985C155.858 148.845 155.718 148.775 155.648 148.635C155.578 148.565 155.508 148.494 155.438 148.424C155.368 148.354 155.297 148.284 155.227 148.214C155.157 148.144 155.087 148.074 155.017 148.004C154.947 147.934 154.877 147.864 154.877 147.794C154.807 147.654 154.667 147.514 154.597 147.373C154.597 147.373 154.597 147.303 154.527 147.303C154.457 147.163 154.317 147.023 154.246 146.883C154.106 146.603 153.896 146.392 153.756 146.112C153.616 145.902 153.546 145.762 153.476 145.552C153.406 145.341 153.266 145.201 153.195 144.991C153.125 144.781 152.985 144.641 152.915 144.431C152.845 144.22 152.705 144.08 152.635 143.87C152.565 143.8 152.565 143.73 152.495 143.59C152.425 143.45 152.425 143.38 152.355 143.24C152.285 143.099 152.215 142.889 152.144 142.749C152.074 142.609 152.004 142.469 152.004 142.329C151.934 142.189 151.934 142.048 151.864 141.908C151.794 141.698 151.724 141.558 151.654 141.348V141.278C151.584 141.138 151.584 140.997 151.514 140.857C151.444 140.647 151.374 140.437 151.374 140.227C151.374 140.087 151.304 139.946 151.304 139.806C151.234 139.456 151.164 139.106 151.094 138.755C151.094 138.685 151.094 138.615 151.094 138.545C151.023 138.265 151.023 137.915 151.023 137.634C151.023 137.564 151.023 137.424 151.023 137.354C151.023 137.284 151.023 137.144 151.023 137.074C151.023 137.004 151.023 136.864 151.023 136.793V136.723C151.023 136.583 151.023 136.443 151.023 136.303C151.023 136.163 151.023 136.093 151.023 135.953C151.023 135.883 151.023 135.883 151.023 135.813C151.023 135.672 151.023 135.602 151.023 135.462C151.023 135.392 151.023 135.252 151.023 135.182C151.023 134.972 151.094 134.832 151.094 134.621C151.094 134.551 151.094 134.411 151.164 134.341C151.164 134.201 151.234 134.131 151.234 134.061C151.234 133.991 151.234 133.991 151.304 133.921C151.304 133.851 151.374 133.781 151.374 133.711C151.374 133.64 151.444 133.57 151.444 133.5C151.514 133.36 151.514 133.22 151.584 133.15C151.654 133.08 151.654 132.94 151.724 132.87C151.724 132.8 151.794 132.73 151.864 132.66C151.934 132.59 152.004 132.449 152.074 132.379C152.144 132.309 152.144 132.239 152.215 132.169C152.285 132.099 152.285 132.029 152.355 131.959C152.425 131.889 152.425 131.819 152.495 131.749C152.495 131.679 152.565 131.679 152.565 131.679C152.635 131.609 152.635 131.609 152.705 131.539C152.775 131.468 152.845 131.398 152.845 131.398C152.915 131.328 152.985 131.258 153.055 131.258L153.125 131.188L153.195 131.118C153.266 131.048 153.336 131.048 153.406 130.978C153.476 130.908 153.616 130.838 153.686 130.838L153.826 130.768C154.597 130.347 155.438 130.207 156.419 130.207C155.998 131.188 155.718 132.379 155.718 133.851C155.718 133.991 155.718 134.201 155.718 134.341C155.227 134.832 154.877 135.532 154.667 136.443C154.597 136.864 154.527 137.354 154.527 137.844C154.527 138.195 154.527 138.545 154.597 138.895C155.017 142.609 157.61 146.813 160.763 148.565C162.094 149.335 163.285 149.545 164.336 149.335C164.546 149.475 164.756 149.615 164.967 149.686C166.158 150.456 167.419 150.877 168.61 150.877Z" fill="#49443A" stroke="#231F20" stroke-width="0.0802954" stroke-miterlimit="10" stroke-linecap="round" stroke-linejoin="round"/>
        <path d="M160.343 131.468L156.349 133.71H156.209C155.999 133.851 155.788 133.991 155.578 134.201C155.578 134.061 155.578 133.851 155.578 133.71C155.578 132.309 155.788 131.048 156.279 130.067C157.26 130.137 158.311 130.417 159.432 130.978C159.642 131.118 159.922 131.188 160.132 131.328C160.202 131.398 160.273 131.468 160.343 131.468Z" fill="#6E6657" stroke="#231F20" stroke-width="0.0802954" stroke-miterlimit="10" stroke-linecap="round" stroke-linejoin="round"/>
        <path d="M169.311 147.303C169.311 147.373 169.311 147.443 169.311 147.514C169.311 147.724 169.311 147.934 169.311 148.144C169.241 149.265 169.03 150.176 168.68 150.947C167.489 150.877 166.228 150.456 164.826 149.686C164.616 149.545 164.406 149.475 164.196 149.335C164.546 149.265 164.826 149.125 165.107 148.985H165.177L168.61 147.093L169.1 146.813L169.311 146.673C169.311 146.813 169.311 147.023 169.311 147.303Z" fill="#6E6657" stroke="#231F20" stroke-width="0.0802954" stroke-miterlimit="10" stroke-linecap="round" stroke-linejoin="round"/>
        <path d="M175.127 150.666C175.127 150.737 175.127 150.807 175.127 150.877C175.127 151.017 175.127 151.087 175.127 151.227C175.056 152.488 174.916 153.609 174.706 154.66L169.451 157.743C171.483 156.482 172.814 154.03 173.025 150.596C173.025 150.386 173.025 150.246 173.025 150.036C173.025 149.896 173.025 149.826 173.025 149.686C173.025 149.615 173.025 149.545 173.025 149.475C173.025 149.195 173.025 148.915 173.025 148.564C173.025 148.074 172.955 147.584 172.884 147.023C172.884 146.883 172.884 146.743 172.814 146.673C172.814 146.533 172.744 146.392 172.744 146.322C172.744 146.182 172.674 146.042 172.674 145.972C172.674 145.832 172.604 145.692 172.604 145.622C172.604 145.482 172.534 145.341 172.534 145.201C172.534 145.061 172.464 144.921 172.464 144.851C172.394 144.571 172.324 144.361 172.254 144.08C172.254 143.94 172.184 143.8 172.184 143.66C172.184 143.52 172.114 143.38 172.044 143.239C171.974 143.099 171.974 142.959 171.904 142.819C171.833 142.679 171.833 142.539 171.763 142.399C171.693 142.259 171.693 142.118 171.623 142.048C171.553 141.908 171.553 141.768 171.483 141.628C171.413 141.418 171.273 141.138 171.203 140.927C171.133 140.647 170.993 140.437 170.923 140.157C170.923 140.087 170.853 140.016 170.853 139.946C170.853 139.876 170.782 139.806 170.782 139.736C170.712 139.666 170.712 139.526 170.642 139.456C170.572 139.316 170.502 139.176 170.502 139.106C170.432 138.965 170.432 138.895 170.362 138.755C170.362 138.685 170.292 138.615 170.292 138.545C170.292 138.475 170.222 138.405 170.222 138.335C170.152 138.195 170.082 138.055 170.012 137.985C169.872 137.704 169.731 137.424 169.521 137.144C169.521 137.144 169.521 137.144 169.521 137.074C169.521 137.074 169.521 137.074 169.521 137.004C169.451 136.934 169.451 136.863 169.381 136.793C169.311 136.653 169.241 136.513 169.101 136.373C169.031 136.233 168.961 136.093 168.821 135.953C168.751 135.813 168.681 135.672 168.54 135.532C168.47 135.392 168.33 135.252 168.26 135.112C168.26 135.042 168.19 135.042 168.19 134.972C168.19 134.972 168.19 134.972 168.19 134.902C168.12 134.832 168.12 134.762 168.05 134.691C167.98 134.621 167.91 134.551 167.84 134.411C167.84 134.341 167.77 134.341 167.77 134.271C167.7 134.131 167.559 133.991 167.489 133.851C167.349 133.711 167.279 133.57 167.139 133.43L167.069 133.36C166.999 133.29 166.929 133.22 166.929 133.15C166.859 133.08 166.789 133.01 166.789 132.94C166.508 132.66 166.298 132.309 166.018 132.029C165.948 131.889 165.808 131.819 165.738 131.679C165.598 131.468 165.387 131.328 165.247 131.188C165.107 131.048 164.897 130.838 164.757 130.698C164.687 130.628 164.687 130.628 164.617 130.558C164.547 130.488 164.547 130.488 164.477 130.417C164.336 130.347 164.266 130.207 164.126 130.137C164.056 130.067 163.916 129.927 163.846 129.857C163.776 129.787 163.636 129.647 163.566 129.577C163.496 129.507 163.426 129.437 163.356 129.366C163.285 129.296 163.215 129.226 163.145 129.156C163.075 129.086 163.005 129.016 162.935 128.946C162.865 128.876 162.795 128.806 162.725 128.736C162.655 128.666 162.515 128.596 162.445 128.526C162.375 128.456 162.234 128.386 162.164 128.315C162.094 128.245 161.954 128.175 161.884 128.105C161.674 127.965 161.464 127.825 161.254 127.685C161.183 127.615 161.043 127.545 160.973 127.475C160.833 127.405 160.763 127.335 160.623 127.264C160.553 127.194 160.483 127.194 160.413 127.124C160.062 126.914 159.782 126.774 159.432 126.634C156.349 125.092 153.546 125.022 151.444 126.143L157.12 122.92L159.712 124.462L161.534 125.513C168.681 130.207 174.426 139.876 175.267 148.494C175.056 149.125 175.127 149.896 175.127 150.666Z" fill="url(#paint1_linear_1_19911)" stroke="#231F20" stroke-width="0.201439" stroke-miterlimit="10" stroke-linecap="round" stroke-linejoin="round"/>
        <path d="M169.311 146.603C169.241 146.603 169.241 146.603 169.311 146.603L169.031 146.743L168.54 147.023L165.107 148.915C165.738 148.494 166.228 147.864 166.578 146.953C166.649 146.673 166.719 146.322 166.789 145.972C166.789 145.832 166.859 145.622 166.859 145.482C166.859 145.341 166.859 145.131 166.859 144.921C166.859 144.431 166.789 143.94 166.719 143.45C166.578 142.749 166.438 142.048 166.158 141.278C165.527 139.596 164.617 137.914 163.426 136.583C162.585 135.602 161.604 134.761 160.623 134.201C160.483 134.131 160.273 134.061 160.132 133.921C159.712 133.71 159.222 133.57 158.801 133.43C157.82 133.22 156.979 133.29 156.279 133.71L160.273 131.468C160.343 131.538 160.483 131.609 160.553 131.679C160.693 131.749 160.833 131.819 160.973 131.959C161.043 132.029 161.113 132.029 161.183 132.099C161.324 132.169 161.464 132.309 161.604 132.379C161.814 132.519 162.024 132.66 162.234 132.87C162.304 132.94 162.375 132.94 162.445 133.01C162.795 133.29 163.145 133.64 163.496 133.991C163.566 134.061 163.636 134.131 163.706 134.201C163.776 134.271 163.916 134.411 163.986 134.551C164.056 134.621 164.196 134.761 164.266 134.832C164.336 134.902 164.406 134.972 164.477 135.042C164.547 135.112 164.617 135.252 164.757 135.322C164.827 135.462 164.967 135.602 165.037 135.672C165.107 135.742 165.107 135.812 165.177 135.883C165.317 136.023 165.387 136.163 165.527 136.303C166.158 137.144 166.719 138.055 167.209 139.035C167.279 139.246 167.419 139.386 167.489 139.596C167.489 139.666 167.559 139.666 167.559 139.736C167.559 139.806 167.629 139.876 167.629 139.876C167.7 140.016 167.7 140.086 167.77 140.227C167.84 140.367 167.84 140.437 167.91 140.577C167.98 140.647 167.98 140.787 168.05 140.857C168.12 141.137 168.26 141.348 168.33 141.628C168.4 141.698 168.4 141.838 168.47 141.978C168.54 142.118 168.61 142.329 168.61 142.469C168.68 142.819 168.821 143.099 168.891 143.45C168.891 143.59 168.961 143.66 168.961 143.8C169.031 144.01 169.101 144.29 169.101 144.501V144.571C169.101 144.641 169.171 144.781 169.171 144.851C169.171 144.921 169.171 144.991 169.171 145.061C169.171 145.131 169.171 145.201 169.171 145.271C169.171 145.341 169.171 145.341 169.171 145.411C169.171 145.482 169.171 145.622 169.241 145.692C169.241 145.832 169.241 145.972 169.311 146.112C169.241 146.252 169.241 146.392 169.311 146.603Z" fill="#49443A" stroke="#231F20" stroke-width="0.0802954" stroke-miterlimit="10" stroke-linecap="round" stroke-linejoin="round"/>
        <path d="M108.844 100.99C108.774 100.92 108.634 100.85 108.564 100.78H108.634L108.704 100.709L108.844 100.99Z" fill="#F1F2F2" stroke="#231F20" stroke-width="0.0802954" stroke-miterlimit="10" stroke-linecap="round" stroke-linejoin="round"/>
    </g>
    <defs>
        <linearGradient id="paint0_linear_1_19911" x1="119.684" y1="126.032" x2="114.751" y2="92.5815" gradientUnits="userSpaceOnUse">
            <stop stop-color="#58595B"/>
            <stop offset="1"/>
        </linearGradient>
        <linearGradient id="paint1_linear_1_19911" x1="157.611" y1="125.006" x2="169.269" y2="146" gradientUnits="userSpaceOnUse">
            <stop stop-color="#58595B"/>
            <stop offset="1"/>
        </linearGradient>
        <clipPath id="">
            <rect width="103.627" height="84.4993" fill="white" transform="translate(90.9766 79.7598)"/>
        </clipPath>
    </defs>
</svg>
