<svg width="230" height="230" viewBox="0 0 230 230" fill="none"
    xmlns="http://www.w3.org/2000/svg">
    <g clip-path="url(#)">
        <path d="M101.417 179.183C101.627 179.604 101.837 180.024 102.117 180.444C101.907 180.024 101.697 179.604 101.417 179.183ZM99.1046 175.33C99.3849 175.75 99.6652 176.17 99.9454 176.591C99.6652 176.17 99.3849 175.75 99.1046 175.33ZM63.231 151.647L70.0273 154.24L63.231 151.647Z" fill="#F1F2F2" stroke="#231F20" stroke-width="0.201439" stroke-miterlimit="10" stroke-linecap="round" stroke-linejoin="round"/>
        <path d="M108.914 198.101C108.914 199.642 108.774 201.044 108.564 202.375C107.863 206.369 106.182 209.311 103.799 211.133C99.8756 214.146 94.1302 214.076 87.6842 210.362L41.1605 183.527C31.5615 177.992 23.7842 164.539 23.7842 153.539C23.7842 148.214 25.6059 144.36 28.5487 142.469L29.1792 142.118C31.6315 140.857 34.7845 140.787 38.2878 142.118L38.498 142.188L40.5299 142.959L45.3644 144.851L46.976 145.481C46.976 145.552 46.976 145.622 46.976 145.692C46.976 145.762 46.976 145.902 46.976 145.972L47.1161 148.775L46.1352 148.424L39.6891 146.042C39.3388 145.902 38.9885 145.762 38.6381 145.622C38.498 145.552 38.4279 145.552 38.2878 145.481C38.1477 145.411 38.0776 145.411 37.9375 145.341C37.8674 145.341 37.7973 145.271 37.6572 145.271C37.5871 145.271 37.5171 145.201 37.447 145.201C37.3769 145.201 37.3069 145.131 37.1667 145.131C37.0967 145.131 37.0266 145.061 36.8865 145.061C36.8865 145.061 36.8865 145.061 36.8164 145.061C36.6763 145.061 36.6062 144.991 36.4661 144.991C36.396 144.991 36.326 144.921 36.1858 144.921C36.0457 144.921 35.9756 144.851 35.8355 144.851C35.7654 144.851 35.6954 144.851 35.6253 144.851C33.4533 144.571 31.5615 145.061 30.02 146.182C29.7398 146.392 29.4595 146.603 29.2493 146.883C27.4977 148.634 26.4467 151.437 26.4467 155.151C26.4467 158.374 27.2174 161.807 28.5487 165.1C28.4085 165.59 28.3385 166.081 28.3385 166.711C28.3385 169.794 30.5105 173.648 33.2431 175.189C33.5233 175.33 33.8036 175.47 34.0138 175.54L36.1858 176.591C37.6572 178.062 39.2687 179.323 40.9503 180.304L50.3391 185.769L77.1743 201.464L87.4039 207.42C87.6141 207.56 87.7542 207.63 87.9644 207.7C88.3147 207.91 88.7351 208.12 89.0855 208.26C89.7861 208.611 90.5569 208.891 91.2575 209.171C92.869 209.732 94.3404 209.942 95.8118 209.942C95.9519 209.942 96.022 209.942 96.1621 209.942C96.2322 209.942 96.3023 209.942 96.4424 209.942C96.5124 209.942 96.5825 209.942 96.5825 209.942C96.6526 209.942 96.7226 209.942 96.8628 209.942C96.9328 209.942 97.073 209.942 97.143 209.942C97.2832 209.942 97.3532 209.942 97.4934 209.872C97.5634 209.872 97.6335 209.872 97.7036 209.872C97.9138 209.802 98.124 209.802 98.4042 209.732C98.5444 209.662 98.6845 209.662 98.8246 209.592C98.8947 209.592 99.0348 209.522 99.1049 209.522C99.1749 209.522 99.245 209.452 99.3151 209.452C99.3851 209.452 99.4552 209.381 99.5953 209.381C99.6654 209.381 99.7355 209.311 99.8055 209.311C99.8756 209.241 99.9457 209.241 100.086 209.171C100.156 209.171 100.226 209.101 100.296 209.031C100.366 209.031 100.436 208.961 100.506 208.891C100.576 208.891 100.646 208.821 100.716 208.751C100.786 208.681 100.927 208.681 100.997 208.611C101.067 208.541 101.137 208.541 101.207 208.471C101.277 208.401 101.347 208.401 101.417 208.33C101.417 208.33 101.417 208.33 101.487 208.33C101.557 208.26 101.627 208.26 101.697 208.19C101.767 208.12 101.837 208.12 101.908 208.05C102.048 207.91 102.188 207.84 102.328 207.7C102.398 207.63 102.468 207.63 102.468 207.56C102.748 207.279 103.029 206.999 103.309 206.649C103.379 206.579 103.449 206.509 103.519 206.369C103.589 206.299 103.659 206.158 103.729 206.088C103.799 206.018 103.869 205.948 103.939 205.808C104.009 205.738 104.009 205.668 104.08 205.598C104.15 205.528 104.15 205.458 104.22 205.388C104.29 205.318 104.29 205.248 104.36 205.107C104.43 204.897 104.57 204.757 104.64 204.547C104.71 204.407 104.78 204.267 104.85 204.197C104.92 204.056 104.99 203.916 105.06 203.776C105.131 203.636 105.131 203.496 105.201 203.426C105.271 203.146 105.411 202.935 105.481 202.655C105.481 202.585 105.551 202.515 105.551 202.375C105.621 202.095 105.691 201.744 105.831 201.464C105.831 201.324 105.901 201.184 105.901 201.044C105.971 200.693 106.041 200.273 106.111 199.923C106.111 199.782 106.182 199.642 106.182 199.502C106.182 199.362 106.252 199.152 106.252 198.942C106.252 198.731 106.252 198.591 106.322 198.381C106.322 198.171 106.322 198.031 106.392 197.821C106.392 197.61 106.392 197.47 106.392 197.26C106.392 197.05 106.392 196.84 106.392 196.7V196.559C106.392 195.579 106.322 194.528 106.182 193.477C106.182 193.336 106.182 193.196 106.111 193.056C106.111 192.986 106.111 192.846 106.041 192.776V192.706C105.971 192.426 105.971 192.215 105.901 191.935C105.831 191.725 105.831 191.445 105.761 191.234C105.691 190.954 105.691 190.744 105.621 190.464C105.551 190.254 105.551 190.043 105.481 189.833C105.341 189.203 105.201 188.572 104.99 188.011C104.92 187.871 104.92 187.731 104.85 187.591C104.78 187.241 104.64 186.96 104.57 186.61C104.5 186.33 104.43 186.12 104.29 185.839C104.22 185.559 104.08 185.279 104.009 184.999C103.939 184.788 103.799 184.508 103.729 184.298C103.659 184.088 103.589 183.878 103.449 183.667C103.379 183.527 103.309 183.387 103.239 183.177C103.099 182.897 103.029 182.686 102.888 182.406C102.818 182.196 102.678 181.986 102.608 181.776C102.538 181.565 102.398 181.355 102.328 181.145C102.188 180.935 102.118 180.725 101.978 180.514C101.767 180.094 101.557 179.674 101.277 179.253C101.137 179.043 101.067 178.833 100.927 178.623C100.786 178.412 100.716 178.202 100.576 177.992C100.436 177.782 100.296 177.572 100.226 177.361C100.086 177.151 99.9457 176.941 99.8055 176.731C99.5253 176.31 99.245 175.89 98.9647 175.47C98.8947 175.33 98.7546 175.189 98.6845 175.049C98.4743 174.699 98.194 174.419 97.9838 174.068C97.9138 173.928 97.8437 173.858 97.7736 173.718C97.6335 173.508 97.4934 173.368 97.3532 173.157C97.2131 172.947 97.0029 172.737 96.8628 172.527C96.7226 172.317 96.5124 172.106 96.3723 171.966C96.2322 171.756 96.0921 171.616 95.9519 171.476C95.8118 171.266 95.6016 171.055 95.4615 170.845C95.3213 170.705 95.1812 170.565 95.0411 170.355C94.6207 169.864 94.2003 169.444 93.7098 169.024C93.5697 168.883 93.4296 168.813 93.3595 168.673C93.2894 168.603 93.2194 168.533 93.1493 168.533C93.0792 168.463 93.0092 168.393 92.9391 168.393C92.799 168.253 92.6588 168.183 92.5187 168.043C92.4486 167.973 92.3786 167.973 92.3085 167.903C92.1684 167.762 92.0282 167.692 91.8881 167.552C91.818 167.482 91.6779 167.412 91.6078 167.342C91.3976 167.202 91.1874 166.992 90.9773 166.852C90.9072 166.781 90.7671 166.711 90.697 166.641C90.5569 166.501 90.3467 166.361 90.2065 166.221C90.0664 166.081 89.9263 166.011 89.7161 165.871C89.5759 165.801 89.4358 165.66 89.2957 165.59C88.9453 165.38 88.6651 165.17 88.3147 164.96C88.1746 164.89 88.1046 164.82 87.9644 164.75C87.7542 164.609 87.6141 164.539 87.4039 164.399C87.3338 164.329 87.1937 164.259 87.1236 164.259C87.0536 164.259 87.0536 164.189 86.9835 164.189C86.9134 164.119 86.7733 164.049 86.7032 164.049C86.5631 163.979 86.423 163.909 86.2828 163.839C86.2128 163.839 86.2128 163.769 86.1427 163.769C86.0726 163.769 86.0726 163.699 86.0026 163.699C85.8625 163.629 85.7924 163.558 85.6523 163.558C85.5822 163.488 85.4421 163.488 85.3019 163.418C85.1618 163.348 85.0917 163.348 84.9516 163.278H84.8815C84.7414 163.208 84.6713 163.208 84.5312 163.138C84.3911 163.068 84.2509 162.998 84.0407 162.928C83.8305 162.858 83.6203 162.788 83.4101 162.718C83.27 162.648 83.1299 162.648 83.0598 162.578C83.0598 162.578 83.0598 162.578 82.9898 162.578C82.9197 162.578 82.9197 162.578 82.8496 162.578L81.2381 162.017L74.3717 158.934L71.0085 157.673L63.4414 154.87L63.2312 151.647L70.0276 154.24L82.5694 159.004C83.3401 159.214 84.0407 159.495 84.8115 159.845C85.0217 159.915 85.2319 159.985 85.4421 160.125C85.5121 160.195 85.6523 160.195 85.7223 160.265C85.7924 160.335 85.9325 160.335 86.0026 160.405C86.0726 160.476 86.2128 160.476 86.2828 160.546C86.423 160.616 86.5631 160.686 86.7032 160.756C86.7733 160.826 86.8434 160.826 86.9835 160.896C87.1937 161.036 87.4039 161.106 87.6141 161.246C87.7542 161.316 87.9644 161.456 88.1046 161.527C88.2447 161.597 88.4549 161.737 88.595 161.807C89.0855 162.157 89.5759 162.437 90.0664 162.788C90.2065 162.928 90.4167 162.998 90.5569 163.138C90.697 163.278 90.9072 163.348 91.0473 163.488C91.1874 163.629 91.3976 163.769 91.5378 163.839C91.6779 163.979 91.8881 164.119 92.0282 164.259C92.1684 164.329 92.3085 164.469 92.3786 164.539C92.5187 164.68 92.6588 164.75 92.7289 164.89C92.799 164.96 92.9391 165.03 93.0092 165.1C93.7799 165.801 94.5506 166.501 95.2513 167.272C95.3914 167.412 95.5315 167.552 95.6717 167.692C95.8118 167.832 95.9519 167.973 96.0921 168.113C96.1621 168.183 96.1621 168.183 96.2322 168.253C96.3723 168.393 96.4424 168.533 96.5825 168.673C96.7226 168.813 96.8628 168.954 97.0029 169.164C97.143 169.304 97.2832 169.514 97.4233 169.654C97.5634 169.794 97.7036 170.005 97.8437 170.145C97.9838 170.285 98.124 170.495 98.2641 170.635C98.4042 170.775 98.5444 170.985 98.6845 171.126C98.8246 171.266 98.9647 171.476 99.1049 171.616C99.245 171.756 99.3851 171.966 99.5253 172.177C99.6654 172.387 99.8055 172.527 99.9457 172.737C100.226 173.087 100.436 173.438 100.716 173.858C100.857 174.068 100.997 174.208 101.067 174.419C101.347 174.769 101.557 175.189 101.767 175.54C101.837 175.61 101.908 175.75 101.978 175.89C102.048 176.03 102.188 176.17 102.258 176.31C102.468 176.591 102.608 176.941 102.818 177.291C102.958 177.502 103.099 177.782 103.239 178.062C103.239 178.132 103.309 178.132 103.309 178.202C103.449 178.412 103.589 178.693 103.729 178.903C103.869 179.183 104.009 179.463 104.15 179.744C104.29 180.024 104.43 180.304 104.57 180.584C104.71 180.865 104.85 181.145 104.99 181.425C105.131 181.705 105.271 181.986 105.341 182.266C105.481 182.546 105.551 182.827 105.691 183.107C105.901 183.597 106.111 184.088 106.252 184.578C106.322 184.788 106.462 185.069 106.532 185.349C106.602 185.559 106.672 185.769 106.742 185.98C106.812 186.26 106.952 186.54 107.022 186.82C107.092 187.03 107.162 187.311 107.233 187.591C107.373 188.011 107.513 188.432 107.583 188.852C107.653 189.062 107.653 189.203 107.723 189.413C107.793 189.623 107.793 189.763 107.863 189.973C107.933 190.324 108.003 190.604 108.073 190.954C108.073 191.094 108.143 191.164 108.143 191.304C108.213 191.515 108.213 191.725 108.283 191.935C108.354 192.145 108.354 192.355 108.424 192.566C108.424 192.776 108.494 192.986 108.494 193.196C108.494 193.406 108.564 193.617 108.564 193.827C108.564 194.037 108.634 194.247 108.634 194.457C108.634 194.668 108.704 194.878 108.704 195.088C108.774 196.139 108.844 197.12 108.844 198.101C108.914 198.031 108.914 198.101 108.914 198.101Z" fill="#231F20" stroke="#231F20" stroke-width="0.201439" stroke-miterlimit="10" stroke-linecap="round" stroke-linejoin="round"/>
        <path d="M36.9564 145.061L33.2429 147.163C33.2429 147.163 33.2429 147.163 33.1729 147.163C30.5804 148.424 28.9689 151.507 28.9689 155.921C28.9689 158.304 29.4594 160.826 30.3002 163.348L30.09 163.418C29.5294 163.699 29.039 164.259 28.7587 165.03C27.4275 161.737 26.6567 158.304 26.6567 155.081C26.6567 151.367 27.7077 148.564 29.4594 146.813C29.6696 146.603 29.9498 146.322 30.2301 146.112C31.7715 144.991 33.6633 144.501 35.8354 144.781C35.9054 144.781 35.9755 144.781 36.0456 144.781C36.1857 144.781 36.2557 144.781 36.3959 144.851C36.4659 144.851 36.536 144.851 36.6761 144.921C36.7462 144.991 36.8163 144.991 36.9564 145.061Z" fill="#58595B" stroke="#231F20" stroke-width="0.0802954" stroke-miterlimit="10" stroke-linecap="round" stroke-linejoin="round"/>
        <path d="M70.7281 172.737C70.588 173.508 70.5179 174.279 70.4478 175.189L69.3968 174.699C67.9255 173.998 66.8044 172.877 66.0337 171.686L67.1547 171.056C67.2949 170.985 67.435 170.915 67.5051 170.845L70.7281 172.737Z" fill="#F1F2F2" stroke="#231F20" stroke-width="0.201439" stroke-miterlimit="10" stroke-linecap="round" stroke-linejoin="round"/>
        <path d="M104.71 204.547C104.64 204.757 104.5 204.897 104.43 205.107C104.36 205.178 104.36 205.248 104.29 205.388C104.22 205.458 104.22 205.528 104.15 205.598C104.08 205.668 104.08 205.738 104.009 205.808C103.939 205.878 103.869 206.018 103.799 206.088C103.729 206.158 103.659 206.299 103.589 206.369C103.519 206.439 103.449 206.509 103.379 206.649C103.099 206.999 102.818 207.28 102.538 207.56C102.468 207.63 102.398 207.63 102.398 207.7C102.258 207.84 102.118 207.91 101.978 208.05C101.907 208.12 101.837 208.19 101.767 208.19C101.697 208.26 101.627 208.26 101.557 208.33C101.557 208.33 101.557 208.33 101.487 208.33C101.417 208.401 101.347 208.401 101.277 208.471C101.207 208.541 101.137 208.541 101.067 208.611C100.997 208.681 100.856 208.751 100.786 208.751C100.716 208.821 100.646 208.821 100.576 208.891C100.506 208.961 100.436 208.961 100.366 209.031C100.296 209.101 100.226 209.101 100.156 209.171C100.086 209.241 100.016 209.241 99.8756 209.311C99.8055 209.311 99.7354 209.381 99.6654 209.381C99.5953 209.381 99.5252 209.452 99.3851 209.452C99.3151 209.452 99.245 209.522 99.1749 209.522C99.1049 209.522 98.9647 209.592 98.8947 209.592C98.7545 209.662 98.6144 209.662 98.4743 209.732C98.2641 209.802 98.0539 209.802 97.7736 209.872C97.7035 209.872 97.6335 209.872 97.5634 209.872C97.4233 209.872 97.3532 209.872 97.2131 209.942C97.143 209.942 97.0029 209.942 96.9328 209.942C96.8627 209.942 96.7927 209.942 96.6526 209.942C96.5825 209.942 96.5124 209.942 96.5124 209.942C96.4424 209.942 96.3723 209.942 96.2322 209.942C96.092 209.942 96.022 209.942 95.8818 209.942C94.4805 209.942 92.9391 209.662 91.3276 209.171C90.6269 208.961 89.9262 208.611 89.1555 208.26C88.8052 208.12 88.3848 207.91 88.0345 207.7C87.8243 207.63 87.6841 207.49 87.4739 207.42L77.2443 201.464L50.5493 185.769L41.1605 180.304C39.4789 179.323 37.8674 178.062 36.396 176.591L77.2443 196.069C80.117 200.273 83.7605 203.916 87.6841 206.229C92.7989 209.171 97.3532 209.241 100.506 206.999L104.71 204.547Z" fill="#58595B" stroke="#231F20" stroke-width="0.0802954" stroke-miterlimit="10" stroke-linecap="round" stroke-linejoin="round"/>
        <path d="M82.3591 196.84L82.7094 196.63L82.6394 196.559C82.5693 196.63 82.4992 196.77 82.3591 196.84ZM81.7986 174.909C81.5884 174.979 81.4482 175.049 81.3081 175.189L81.7986 174.909Z" fill="#F1F2F2" stroke="#231F20" stroke-width="0.201439" stroke-miterlimit="10" stroke-linecap="round" stroke-linejoin="round"/>
        <path d="M104.92 196.209C104.92 196.7 104.92 197.19 104.85 197.681C104.57 202.025 102.959 205.248 100.506 206.999C97.3532 209.241 92.799 209.171 87.6842 206.229C83.7605 203.986 80.1171 200.343 77.2444 196.069L78.6457 196.7C80.1871 197.54 81.5184 197.54 82.4292 196.84L82.7796 196.63C83.4802 197.19 84.1809 197.681 84.8815 198.101C87.3338 199.502 89.576 199.712 91.2575 198.802L93.7799 197.54L93.9901 197.47C95.7417 196.559 96.8628 194.528 96.8628 191.515C96.8628 190.254 96.6526 188.992 96.3023 187.661C95.0411 182.897 91.6779 178.062 87.7542 175.82C85.5121 174.489 83.4102 174.279 81.8687 174.909C81.6585 174.979 81.5184 175.049 81.3783 175.189L78.926 176.381L78.6457 176.451C77.875 176.801 77.3144 177.432 76.824 178.202L70.5181 175.189C70.5881 174.349 70.6582 173.508 70.7983 172.737C71.0786 171.126 71.5691 169.654 72.2697 168.463C72.9704 167.272 73.8112 166.291 74.8621 165.52L76.3335 164.68C76.4036 164.609 76.5437 164.609 76.6138 164.539C76.7539 164.469 76.824 164.469 76.9641 164.399C77.0342 164.399 77.1042 164.329 77.1743 164.329C77.2444 164.329 77.3144 164.259 77.3845 164.259C77.4546 164.259 77.5947 164.189 77.6648 164.189C77.7348 164.189 77.875 164.119 77.945 164.119C78.0151 164.119 78.0852 164.119 78.1552 164.049C78.2954 164.049 78.4355 163.979 78.5756 163.979C78.6457 163.979 78.7158 163.979 78.7858 163.979C78.8559 163.979 78.8559 163.979 78.926 163.979C78.926 163.979 78.926 163.979 78.996 163.979C79.0661 163.979 79.0661 163.979 79.1362 163.979H79.2062C79.4164 163.979 79.6266 163.979 79.8368 163.979C79.9069 163.979 80.047 163.979 80.1171 163.979C80.2572 163.979 80.3273 163.979 80.4674 163.979C80.5375 163.979 80.6075 163.979 80.6776 163.979C80.7477 163.979 80.8177 163.979 80.8177 163.979C80.8878 163.979 81.0279 163.979 81.098 163.979C81.1681 163.979 81.1681 163.979 81.2381 163.979C81.3082 163.979 81.3783 163.979 81.4483 163.979C81.5184 163.979 81.5885 163.979 81.5885 163.979C81.6585 163.979 81.7987 163.979 81.8687 164.049C82.0088 164.049 82.0789 164.119 82.219 164.119C82.3592 164.119 82.4993 164.189 82.6394 164.189C82.9898 164.259 83.3401 164.399 83.6904 164.469C83.7605 164.469 83.9006 164.539 83.9707 164.539C84.0408 164.539 84.1809 164.609 84.251 164.609C84.3911 164.68 84.4612 164.68 84.6013 164.75C84.8815 164.82 85.1618 164.96 85.4421 165.1C85.5121 165.1 85.5121 165.17 85.5822 165.17C85.8625 165.31 86.1427 165.45 86.423 165.59C86.8434 165.801 87.1937 166.011 87.6141 166.221C87.8944 166.361 88.1746 166.501 88.3848 166.711C88.525 166.782 88.595 166.852 88.7352 166.922C88.8753 167.062 89.0855 167.132 89.2256 167.272C89.2957 167.342 89.4358 167.412 89.5059 167.482C89.576 167.552 89.646 167.622 89.7862 167.692C89.8562 167.762 89.9963 167.832 90.0664 167.903C90.4868 168.253 90.9773 168.603 91.3977 168.954C91.5378 169.024 91.6779 169.164 91.748 169.304C91.8881 169.444 92.0283 169.514 92.0983 169.654C92.2384 169.794 92.3085 169.864 92.4486 170.005C92.5888 170.075 92.6588 170.215 92.799 170.285C92.9391 170.425 93.1493 170.565 93.2894 170.775C93.3595 170.845 93.3595 170.845 93.4296 170.915L93.4996 170.985L93.5697 171.056C93.7098 171.196 93.7799 171.266 93.92 171.406C94.0602 171.616 94.2704 171.756 94.4105 171.966C94.5506 172.177 94.7608 172.317 94.9009 172.527C94.971 172.597 95.1111 172.737 95.1812 172.807C95.4615 173.087 95.6717 173.368 95.8819 173.648C96.022 173.788 96.0921 173.928 96.2322 174.068C96.3723 174.208 96.4424 174.349 96.5825 174.489C96.7227 174.629 96.7927 174.769 96.9329 174.979L97.0029 175.049C97.073 175.189 97.2131 175.33 97.2832 175.47C97.2832 175.54 97.3532 175.54 97.3532 175.61C97.3532 175.61 97.3532 175.61 97.3532 175.68C97.4934 175.82 97.5634 176.03 97.7036 176.17C97.8437 176.31 97.9138 176.451 98.0539 176.661C98.124 176.801 98.2641 176.941 98.3342 177.081C98.4042 177.221 98.5444 177.361 98.6144 177.502C98.6845 177.642 98.8246 177.782 98.8947 177.922C98.9648 178.062 99.1049 178.202 99.175 178.342C99.245 178.482 99.3852 178.623 99.4552 178.763C99.5253 178.903 99.6654 179.043 99.7355 179.183C99.8056 179.323 99.8756 179.393 99.9457 179.533C100.016 179.744 100.156 179.884 100.226 180.094C100.296 180.164 100.296 180.304 100.366 180.374C100.436 180.444 100.506 180.584 100.506 180.655C100.576 180.795 100.716 181.005 100.786 181.145C100.997 181.495 101.137 181.846 101.277 182.196C101.347 182.336 101.417 182.476 101.487 182.616C101.487 182.686 101.557 182.757 101.557 182.827C101.697 183.107 101.837 183.457 101.978 183.737C102.048 183.948 102.118 184.158 102.258 184.368C102.328 184.508 102.398 184.648 102.468 184.858C102.538 185.069 102.608 185.279 102.678 185.489C102.678 185.489 102.678 185.489 102.678 185.559C102.748 185.699 102.748 185.839 102.818 185.98C102.888 186.12 102.959 186.33 103.029 186.47V186.54C103.099 186.68 103.169 186.89 103.169 187.031C103.309 187.381 103.379 187.731 103.519 188.082C103.589 188.292 103.589 188.432 103.659 188.642C103.659 188.712 103.729 188.852 103.729 188.922C103.729 188.992 103.799 189.132 103.799 189.203C103.869 189.343 103.869 189.483 103.939 189.693C103.939 189.833 104.009 189.973 104.009 190.113V190.183C104.009 190.324 104.08 190.464 104.08 190.604C104.08 190.744 104.15 190.884 104.15 191.024C104.15 191.094 104.22 191.234 104.22 191.305C104.22 191.305 104.22 191.305 104.22 191.375C104.29 191.655 104.29 191.865 104.36 192.145C104.36 192.215 104.36 192.285 104.36 192.356C104.36 192.566 104.43 192.706 104.43 192.916C104.43 193.056 104.43 193.196 104.5 193.266C104.5 193.407 104.5 193.547 104.57 193.757C104.57 193.827 104.57 193.967 104.57 194.037C104.57 194.037 104.57 194.037 104.57 194.107C104.57 194.247 104.57 194.387 104.57 194.528C104.57 194.668 104.57 194.738 104.57 194.878C104.57 195.018 104.57 195.158 104.57 195.298C104.57 195.368 104.57 195.508 104.57 195.579C104.92 195.929 104.92 196.069 104.92 196.209Z" fill="#231F20" stroke="#231F20" stroke-width="0.201439" stroke-miterlimit="10" stroke-linecap="round" stroke-linejoin="round"/>
        <path d="M81.7986 174.909L81.3081 175.189C81.4482 175.049 81.5884 174.979 81.7986 174.909Z" fill="#F1F2F2" stroke="#231F20" stroke-width="0.201439" stroke-miterlimit="10" stroke-linecap="round" stroke-linejoin="round"/>
        <path d="M76.5439 164.609C76.4739 164.609 76.3337 164.68 76.2637 164.75L76.5439 164.609Z" fill="#F1F2F2" stroke="#231F20" stroke-width="0.201439" stroke-miterlimit="10" stroke-linecap="round" stroke-linejoin="round"/>
        <path d="M99.9453 176.591C99.665 176.17 99.3848 175.75 99.1045 175.33C99.3848 175.75 99.665 176.17 99.9453 176.591Z" fill="#F1F2F2" stroke="#231F20" stroke-width="0.201439" stroke-miterlimit="10" stroke-linecap="round" stroke-linejoin="round"/>
        <path d="M102.118 180.444C101.907 180.024 101.697 179.604 101.417 179.183C101.697 179.604 101.907 180.024 102.118 180.444Z" fill="#F1F2F2" stroke="#231F20" stroke-width="0.201439" stroke-miterlimit="10" stroke-linecap="round" stroke-linejoin="round"/>
        <path d="M106.392 196.559V196.7C106.392 196.91 106.392 197.12 106.392 197.26C106.392 197.47 106.392 197.681 106.392 197.821C106.392 198.031 106.392 198.171 106.322 198.381C106.322 198.591 106.322 198.732 106.252 198.942C106.252 199.152 106.182 199.292 106.182 199.502C106.182 199.642 106.112 199.783 106.112 199.923C106.042 200.273 105.972 200.693 105.902 201.044C105.902 201.184 105.832 201.324 105.832 201.464C105.762 201.744 105.692 202.095 105.551 202.375C105.551 202.445 105.481 202.515 105.481 202.655C105.411 202.935 105.341 203.146 105.201 203.426C105.131 203.566 105.131 203.706 105.061 203.776C104.991 203.916 104.921 204.057 104.851 204.197C104.781 204.337 104.711 204.477 104.641 204.547L100.437 206.929C102.889 205.178 104.5 202.025 104.781 197.61C104.781 197.12 104.851 196.63 104.851 196.139C104.851 195.999 104.851 195.859 104.851 195.719C104.851 195.649 104.851 195.509 104.851 195.438C104.851 195.298 104.851 195.158 104.851 195.018C104.851 194.878 104.851 194.808 104.851 194.668C104.851 194.528 104.851 194.387 104.851 194.247C104.851 194.247 104.851 194.247 104.851 194.177C104.851 194.107 104.851 193.967 104.851 193.897C104.851 193.757 104.851 193.617 104.781 193.407C104.781 193.266 104.781 193.126 104.711 193.056C104.711 192.846 104.641 192.706 104.641 192.496C104.641 192.426 104.641 192.356 104.641 192.285C104.571 192.005 104.571 191.795 104.5 191.515C104.5 191.515 104.5 191.515 104.5 191.445C104.5 191.375 104.43 191.235 104.43 191.164C104.43 191.024 104.36 190.884 104.36 190.744C104.36 190.604 104.29 190.464 104.29 190.324V190.254C104.29 190.113 104.22 189.973 104.22 189.833C104.22 189.693 104.15 189.553 104.08 189.343C104.08 189.273 104.01 189.133 104.01 189.062C104.01 188.992 103.94 188.852 103.94 188.782C103.87 188.572 103.87 188.432 103.8 188.222C103.73 187.871 103.59 187.521 103.449 187.171C103.379 187.031 103.309 186.82 103.309 186.68C103.309 186.68 103.309 186.68 103.309 186.61C103.239 186.47 103.169 186.26 103.099 186.12C103.029 185.98 103.029 185.839 102.959 185.699C102.959 185.699 102.959 185.699 102.959 185.629C102.889 185.419 102.819 185.209 102.749 184.999C102.679 184.859 102.609 184.718 102.539 184.508C102.469 184.298 102.398 184.088 102.258 183.878C102.118 183.597 101.978 183.247 101.838 182.967C101.838 182.897 101.768 182.827 101.768 182.757C101.698 182.616 101.628 182.476 101.558 182.336C101.418 181.986 101.207 181.635 101.067 181.285C100.997 181.145 100.927 180.935 100.787 180.795C100.717 180.725 100.717 180.585 100.647 180.514C100.577 180.444 100.577 180.304 100.507 180.234C100.437 180.024 100.296 179.884 100.226 179.674C100.156 179.534 100.086 179.463 100.016 179.323C99.9462 179.183 99.8761 179.043 99.736 178.903C99.6659 178.763 99.5258 178.623 99.4557 178.483C99.3856 178.342 99.2455 178.202 99.1754 178.062C99.1054 177.922 98.9652 177.782 98.8952 177.642C98.8251 177.502 98.685 177.361 98.6149 177.221C98.5449 177.081 98.4047 176.941 98.3347 176.801C98.2646 176.661 98.1245 176.521 97.9843 176.31C97.8442 176.17 97.7741 175.96 97.634 175.82C97.634 175.82 97.634 175.82 97.634 175.75C97.634 175.68 97.5639 175.68 97.5639 175.61C97.4939 175.47 97.3537 175.33 97.2837 175.189L97.2136 175.119C97.0735 174.979 97.0034 174.839 96.8633 174.629C96.7932 174.489 96.6531 174.349 96.5129 174.209C96.3728 174.068 96.3027 173.928 96.1626 173.788C95.9524 173.508 95.6722 173.228 95.462 172.947C95.3919 172.877 95.3218 172.737 95.1817 172.667C95.0416 172.457 94.8314 172.317 94.6912 172.107C94.5511 171.896 94.3409 171.756 94.2008 171.546C94.0606 171.406 93.9906 171.336 93.8504 171.196L93.7804 171.126L93.7103 171.056C93.6402 170.985 93.6402 170.985 93.5702 170.915C93.43 170.775 93.2199 170.565 93.0797 170.425C92.9396 170.355 92.8695 170.215 92.7294 170.145C92.5893 170.005 92.5192 169.935 92.3791 169.794C92.2389 169.654 92.1689 169.584 92.0287 169.444C91.8886 169.304 91.7485 169.234 91.6784 169.094C91.258 168.743 90.7675 168.393 90.3472 168.043C90.2771 167.973 90.137 167.903 90.0669 167.833C89.9968 167.762 89.9268 167.692 89.7866 167.622C89.7166 167.552 89.5764 167.482 89.5064 167.412C89.3662 167.272 89.156 167.202 89.0159 167.062C88.8758 166.992 88.8057 166.922 88.6656 166.852C88.3853 166.711 88.1051 166.501 87.8949 166.361C87.4745 166.151 87.1241 165.941 86.7037 165.731C86.4235 165.59 86.1432 165.45 85.8629 165.31C85.7929 165.31 85.7929 165.24 85.7228 165.24C85.4426 165.1 85.1623 165.03 84.882 164.89C84.7419 164.82 84.6718 164.82 84.5317 164.75C84.4616 164.75 84.3215 164.68 84.2514 164.68C84.1814 164.68 84.0412 164.61 83.9712 164.61C83.6208 164.469 83.2705 164.399 82.9202 164.329C82.7801 164.329 82.6399 164.259 82.4998 164.259C82.3597 164.259 82.2896 164.189 82.1495 164.189C82.0794 164.189 81.9393 164.189 81.8692 164.119C81.7991 164.119 81.7291 164.119 81.7291 164.119C81.659 164.119 81.5889 164.119 81.5189 164.119C81.4488 164.119 81.3787 164.119 81.3787 164.119C81.3087 164.119 81.1685 164.119 81.0985 164.119C81.0284 164.119 80.9583 164.119 80.9583 164.119C80.8883 164.119 80.8182 164.119 80.7481 164.119C80.608 164.119 80.538 164.119 80.3978 164.119C80.3278 164.119 80.1876 164.119 80.1176 164.119C79.9074 164.119 79.6972 164.119 79.487 164.119H79.4169C79.3468 164.119 79.3468 164.119 79.2768 164.119C79.2768 164.119 79.2768 164.119 79.2067 164.119C79.1366 164.119 79.1366 164.119 79.0666 164.119C78.9965 164.119 78.9264 164.119 78.8564 164.119C78.7162 164.119 78.5761 164.189 78.436 164.189C78.3659 164.189 78.2958 164.189 78.2258 164.259C78.1557 164.259 78.0156 164.329 77.9455 164.329C77.8755 164.329 77.7353 164.399 77.6653 164.399C77.5952 164.399 77.5251 164.469 77.4551 164.469C77.385 164.469 77.3149 164.539 77.2449 164.539C77.1047 164.61 77.0347 164.61 76.8945 164.68L82.0093 161.737L83.6208 162.297C83.6909 162.297 83.6909 162.297 83.761 162.367C83.9011 162.437 84.0412 162.437 84.1113 162.508C84.4616 162.648 84.812 162.788 85.1623 162.928C85.3024 162.998 85.3725 162.998 85.5126 163.068H85.5827C85.7228 163.138 85.7929 163.138 85.933 163.208C86.0731 163.278 86.1432 163.278 86.2833 163.348C86.4235 163.418 86.4935 163.418 86.6337 163.488C86.7037 163.559 86.8439 163.559 86.9139 163.629C87.0541 163.699 87.1942 163.769 87.3343 163.839C87.4044 163.909 87.5445 163.979 87.6146 163.979C87.6847 163.979 87.6847 164.049 87.7547 164.049C87.8248 164.119 87.9649 164.119 88.035 164.189C88.2452 164.329 88.3853 164.399 88.5955 164.539C88.7356 164.61 88.8057 164.68 88.9458 164.75C89.2962 164.96 89.5764 165.17 89.9268 165.38C90.0669 165.45 90.207 165.59 90.3472 165.66C90.4873 165.801 90.6274 165.871 90.8376 166.011C90.9778 166.151 91.1879 166.291 91.3281 166.431C91.3981 166.501 91.5383 166.571 91.6083 166.641C91.8185 166.782 92.0287 166.992 92.2389 167.132C92.309 167.202 92.4491 167.272 92.5192 167.342C92.6593 167.482 92.7995 167.552 92.9396 167.692C93.0097 167.762 93.0797 167.762 93.1498 167.833C93.2899 167.973 93.43 168.043 93.5702 168.183C93.6402 168.253 93.7103 168.323 93.7804 168.323C93.8504 168.393 93.9205 168.463 93.9906 168.463C94.1307 168.603 94.2708 168.673 94.3409 168.813C94.7613 169.234 95.1817 169.724 95.6722 170.145C95.8123 170.285 95.9524 170.425 96.0926 170.635C96.3027 170.845 96.4429 171.056 96.583 171.266C96.7231 171.406 96.8633 171.616 97.0034 171.756C97.1435 171.966 97.3537 172.177 97.4939 172.317C97.634 172.527 97.8442 172.737 97.9843 172.947C98.1245 173.158 98.2646 173.298 98.4047 173.508C98.4748 173.578 98.5449 173.718 98.6149 173.858C98.8251 174.209 99.1054 174.489 99.3156 174.839C99.3856 174.979 99.5258 175.119 99.5958 175.26C99.8761 175.68 100.156 176.1 100.437 176.521C100.577 176.731 100.717 176.941 100.857 177.151C100.997 177.361 101.137 177.572 101.207 177.782C101.347 177.992 101.488 178.202 101.558 178.412C101.698 178.623 101.768 178.833 101.908 179.043C102.118 179.463 102.328 179.884 102.609 180.304C102.749 180.514 102.819 180.725 102.959 180.935C103.029 181.145 103.169 181.355 103.239 181.565C103.309 181.776 103.449 181.986 103.52 182.196C103.66 182.476 103.73 182.686 103.87 182.967C103.94 183.107 104.01 183.247 104.08 183.457C104.15 183.667 104.22 183.878 104.36 184.088C104.43 184.298 104.571 184.578 104.641 184.788C104.781 185.069 104.851 185.349 104.921 185.629C104.991 185.91 105.061 186.12 105.201 186.4C105.271 186.75 105.411 187.031 105.481 187.381C105.551 187.521 105.551 187.661 105.621 187.801C105.832 188.432 105.972 189.062 106.112 189.623C106.182 189.833 106.182 190.043 106.252 190.254C106.322 190.534 106.392 190.744 106.392 191.024C106.462 191.235 106.462 191.515 106.532 191.725C106.602 192.005 106.602 192.215 106.672 192.496C106.672 192.566 106.672 192.566 106.672 192.636C106.672 192.706 106.672 192.846 106.743 192.916C106.743 193.056 106.743 193.196 106.813 193.336C106.322 194.458 106.392 195.509 106.392 196.559Z" fill="url(#paint0_linear_1_19911)" stroke="#231F20" stroke-width="0.201439" stroke-miterlimit="10" stroke-linecap="round" stroke-linejoin="round"/>
        <path d="M30.7209 163.138L30.2305 163.418C30.3706 163.348 30.5107 163.278 30.7209 163.278C30.7209 163.208 30.7209 163.208 30.7209 163.138ZM35.6255 152.628L36.4663 152.208C36.1861 152.348 35.9058 152.488 35.6255 152.628Z" fill="#F1F2F2" stroke="#231F20" stroke-width="0.201439" stroke-miterlimit="10" stroke-linecap="round" stroke-linejoin="round"/>
        <path d="M47.7469 158.584C46.2054 156.342 44.3136 154.38 42.2117 153.189C40.0396 151.927 38.0778 151.647 36.5363 152.208C36.2561 152.348 35.9758 152.488 35.6956 152.628L33.4534 153.749L33.1031 153.889C31.4215 154.8 30.3706 156.902 30.3706 159.775C30.3706 160.826 30.5107 161.947 30.7909 163.068L30.3005 163.348C29.4597 160.826 28.9692 158.303 28.9692 155.921C28.9692 151.507 30.5808 148.424 33.1732 147.163C33.1732 147.163 33.1732 147.163 33.2432 147.163C35.6255 146.042 38.7784 146.322 42.2117 148.284C43.2627 148.915 44.3136 149.615 45.2946 150.456C46.0653 151.087 46.7659 151.787 47.3965 152.488L47.7469 158.584Z" fill="#231F20" stroke="#231F20" stroke-width="0.201439" stroke-miterlimit="10" stroke-linecap="round" stroke-linejoin="round"/>
        <path d="M48.0974 164.539L47.1164 164.049C46.1355 161.597 44.5941 159.214 42.7724 157.323C41.7214 156.202 40.6003 155.291 39.3391 154.59C38.6385 154.17 37.9378 153.889 37.2372 153.679C36.3263 153.399 35.4855 153.329 34.7148 153.399C34.2243 153.469 33.7339 153.539 33.3135 153.749L35.6256 152.628L36.4664 152.208C38.0079 151.647 39.9697 151.928 42.1418 153.189C44.2437 154.38 46.1355 156.342 47.677 158.584L48.0974 164.539Z" fill="url(#paint1_linear_1_19911)" stroke="#231F20" stroke-width="0.0802954" stroke-miterlimit="10" stroke-linecap="round" stroke-linejoin="round"/>
        <path d="M36.5363 152.208L35.6255 152.628C35.9058 152.488 36.186 152.348 36.5363 152.208Z" fill="#F1F2F2" stroke="#231F20" stroke-width="0.201439" stroke-miterlimit="10" stroke-linecap="round" stroke-linejoin="round"/>
        <path d="M47.1161 164.049L43.4026 162.297C42.3516 160.546 40.9503 159.074 39.3388 158.163C38.8483 157.883 38.4279 157.673 37.9375 157.533C37.5171 157.393 37.0266 157.322 36.6763 157.322C36.5361 157.322 36.396 157.322 36.3259 157.322C35.9756 157.322 35.6954 157.463 35.4151 157.533L35.2049 157.603C34.0838 158.233 33.3832 159.565 33.3832 161.526V161.597L30.7207 163.138C30.4404 162.017 30.3003 160.896 30.3003 159.845C30.3003 156.902 31.3513 154.87 33.0329 153.959L33.3832 153.819C33.8036 153.609 34.294 153.539 34.7845 153.469C35.5552 153.399 36.396 153.469 37.3069 153.749C38.0075 153.959 38.7082 154.24 39.4088 154.66C40.6 155.361 41.7911 156.272 42.8421 157.393C44.5937 159.214 46.0651 161.526 47.1161 164.049Z" fill="#928874" stroke="#231F20" stroke-width="0.0802954" stroke-miterlimit="10"/>
        <path d="M36.6766 157.323C36.1862 158.023 35.9059 159.004 35.9059 160.265V160.335L33.3135 161.737V161.667C33.3135 159.705 34.0141 158.374 35.1352 157.743L35.3454 157.673C35.6256 157.533 35.9059 157.463 36.2562 157.463C36.4664 157.323 36.6066 157.323 36.6766 157.323Z" fill="#49443A" stroke="#231F20" stroke-width="0.0802954" stroke-miterlimit="10" stroke-linecap="round" stroke-linejoin="round"/>
        <path d="M43.403 162.297L39.6195 160.476C38.2882 159.705 37.0971 159.635 36.2563 160.125L35.9761 160.265V160.195C35.9761 159.004 36.2563 157.953 36.7468 157.253C37.1672 157.253 37.5876 157.323 38.008 157.463C38.4284 157.603 38.9188 157.813 39.4093 158.093C40.9507 159.004 42.3521 160.546 43.403 162.297Z" fill="#6E6657" stroke="#231F20" stroke-width="0.0802954" stroke-miterlimit="10" stroke-linecap="round" stroke-linejoin="round"/>
        <path d="M130.284 185.769C130.284 186.05 130.284 186.26 130.284 186.47C130.144 192.706 127.902 197.12 124.329 199.362L123.698 199.713L103.8 211.133C106.182 209.312 107.863 206.299 108.564 202.375C108.774 201.044 108.914 199.642 108.914 198.101C108.914 198.101 108.914 198.031 108.914 197.961C108.914 196.98 108.844 195.929 108.774 194.948C108.774 194.738 108.704 194.528 108.704 194.317C108.704 194.107 108.634 193.897 108.634 193.687C108.634 193.477 108.564 193.266 108.564 193.056C108.564 192.846 108.494 192.636 108.494 192.426C108.494 192.215 108.424 192.005 108.354 191.795C108.284 191.585 108.284 191.375 108.214 191.164C108.214 191.024 108.144 190.954 108.144 190.814C108.074 190.464 108.003 190.184 107.933 189.833C107.863 189.623 107.863 189.483 107.793 189.273C107.723 189.063 107.723 188.922 107.653 188.712C107.513 188.292 107.443 187.871 107.303 187.451C107.233 187.241 107.163 186.961 107.093 186.68C107.023 186.4 106.882 186.12 106.812 185.839C106.742 185.629 106.672 185.419 106.602 185.209C106.532 184.929 106.392 184.718 106.322 184.438C106.112 183.948 105.972 183.457 105.761 182.967C105.621 182.687 105.551 182.406 105.411 182.126C105.271 181.846 105.201 181.565 105.061 181.285C104.921 181.005 104.78 180.725 104.64 180.444C104.5 180.164 104.36 179.884 104.22 179.604C104.08 179.323 103.94 179.043 103.8 178.763C103.659 178.553 103.519 178.272 103.379 178.062C103.379 177.992 103.309 177.992 103.309 177.922C103.169 177.642 103.029 177.432 102.889 177.151C102.678 176.801 102.538 176.521 102.328 176.17C102.258 176.03 102.118 175.89 102.048 175.75C101.978 175.68 101.908 175.54 101.838 175.4C101.627 175.049 101.347 174.629 101.137 174.279C100.997 174.068 100.927 173.928 100.787 173.718C100.506 173.368 100.296 173.017 100.016 172.597C99.8758 172.387 99.7357 172.247 99.5956 172.037C99.4554 171.826 99.3153 171.686 99.1752 171.476C99.035 171.336 98.8949 171.126 98.7548 170.986C98.6146 170.845 98.4745 170.635 98.3344 170.495C98.1943 170.355 98.0541 170.145 97.914 170.005C97.7739 169.865 97.6337 169.654 97.4936 169.514C97.3535 169.374 97.2133 169.164 97.0732 169.024C96.9331 168.884 96.7929 168.743 96.6528 168.533C96.5127 168.393 96.4426 168.253 96.3025 168.113C96.2324 168.043 96.2324 168.043 96.1623 167.973C96.0222 167.833 95.8821 167.692 95.742 167.552C95.6018 167.412 95.4617 167.272 95.3216 167.132C94.6209 166.361 93.8502 165.661 93.0795 164.96C93.0094 164.89 92.8693 164.82 92.7992 164.75C92.6591 164.61 92.5189 164.54 92.4489 164.399C92.3087 164.259 92.1686 164.189 92.0985 164.119C91.9584 163.979 91.7482 163.839 91.6081 163.699C91.4679 163.559 91.2577 163.418 91.1176 163.348C90.9775 163.208 90.7673 163.068 90.6272 162.998C90.487 162.858 90.2768 162.788 90.1367 162.648C89.6462 162.297 89.1558 161.947 88.6653 161.667C88.5252 161.597 88.315 161.457 88.1749 161.387C88.0347 161.246 87.8245 161.176 87.6844 161.106C87.4742 160.966 87.264 160.896 87.0538 160.756C86.9837 160.686 86.9137 160.686 86.7735 160.616C86.6334 160.546 86.4933 160.476 86.3531 160.406C86.2831 160.336 86.1429 160.265 86.0729 160.265C86.0028 160.195 85.8627 160.195 85.7926 160.125C85.7226 160.055 85.5824 160.055 85.5124 159.985C85.3022 159.915 85.092 159.775 84.8818 159.705C84.111 159.355 83.3403 159.074 82.6397 158.864L70.0979 154.1L63.3015 151.507L63.2314 150.596L83.4104 158.374L104.43 146.743C105.901 147.233 107.443 147.934 109.054 148.845C111.577 150.316 114.029 152.208 116.271 154.45C124.399 162.648 130.284 175.119 130.284 185.769Z" fill="#414042" stroke="#231F20" stroke-width="0.201439" stroke-miterlimit="10" stroke-linecap="round" stroke-linejoin="round"/>
        <path d="M63.2314 151.647L70.0278 154.24L63.2314 151.647Z" fill="#F1F2F2" stroke="#231F20" stroke-width="0.201439" stroke-miterlimit="10" stroke-linecap="round" stroke-linejoin="round"/>
        <path d="M83.3406 155.571V158.514L63.1616 150.736L63.0215 148.494C63.3017 148.354 63.582 148.214 63.8623 148.074L83.3406 155.571Z" fill="#F1F2F2" stroke="#231F20" stroke-width="0.201439" stroke-miterlimit="10" stroke-linecap="round" stroke-linejoin="round"/>
        <path d="M47.1866 144.571C47.1165 144.851 47.1165 145.131 47.1165 145.481L45.4349 144.851L40.6004 142.959L38.5685 142.188L38.2882 142.118C34.7849 140.787 31.632 140.857 29.1797 142.118L35.4856 138.475V140.086L47.1866 144.571Z" fill="#414042" stroke="#231F20" stroke-width="0.201439" stroke-miterlimit="10" stroke-linecap="round" stroke-linejoin="round"/>
        <path d="M49.8486 142.188C49.4983 142.188 49.218 142.188 48.9377 142.328C48.8677 142.328 48.7976 142.399 48.7275 142.399L48.9377 142.258L49.7085 141.838C49.7785 141.978 49.8486 142.118 49.8486 142.188Z" fill="#F1F2F2" stroke="#231F20" stroke-width="0.201439" stroke-miterlimit="10" stroke-linecap="round" stroke-linejoin="round"/>
        <path d="M63.0215 147.724L63.9323 148.074C63.6521 148.214 63.3718 148.354 63.0916 148.494L63.0215 147.724Z" fill="#F1F2F2" stroke="#231F20" stroke-width="0.201439" stroke-miterlimit="10" stroke-linecap="round" stroke-linejoin="round"/>
        <path d="M47.3964 152.558C46.6958 151.857 45.9951 151.157 45.2945 150.526C44.3136 149.685 43.2626 148.915 42.2116 148.354C38.7784 146.322 35.6254 146.042 33.2432 147.233L36.9566 145.131C36.9566 145.131 36.9566 145.131 37.0267 145.131C37.0968 145.131 37.1668 145.201 37.307 145.201C37.377 145.201 37.4471 145.271 37.5872 145.271C37.6573 145.271 37.7274 145.341 37.7974 145.341C37.8675 145.341 37.9376 145.411 38.0777 145.411C38.2178 145.411 38.2879 145.481 38.428 145.551C38.5682 145.622 38.6382 145.622 38.7784 145.692C39.1287 145.832 39.479 145.972 39.8293 146.112L46.1353 148.424L47.1863 148.845L47.3964 152.558Z" fill="url(#paint2_linear_1_19911)" stroke="#231F20" stroke-width="0.201439" stroke-miterlimit="10" stroke-linecap="round" stroke-linejoin="round"/>
        <path d="M71.499 162.227C71.499 166.501 69.9575 169.514 67.5052 170.915C67.3651 170.985 67.225 171.056 67.1549 171.126L66.0338 171.756C64.4223 169.374 64.072 166.782 64.072 166.501L63.5115 156.342L63.4414 154.94L71.0085 157.743C71.2888 159.004 71.4289 160.195 71.499 161.457C71.499 161.667 71.499 161.947 71.499 162.227Z" fill="url(#paint3_linear_1_19911)" stroke="#231F20" stroke-width="0.201439" stroke-miterlimit="10" stroke-linecap="round" stroke-linejoin="round"/>
        <path d="M96.723 191.445C96.723 194.458 95.6019 196.489 93.8503 197.4L93.6401 197.47L91.1177 198.732C91.5381 198.521 91.8884 198.241 92.2388 197.891C92.6592 197.47 93.0095 196.91 93.2197 196.279C93.6401 195.368 93.8503 194.177 93.8503 192.846C93.8503 192.706 93.8503 192.566 93.8503 192.426C93.8503 192.285 93.8503 192.215 93.8503 192.075C93.8503 192.005 93.8503 191.935 93.8503 191.865C93.8503 191.725 93.8503 191.655 93.8503 191.515C93.8503 191.515 93.8503 191.515 93.8503 191.445C93.8503 191.305 93.8503 191.234 93.7802 191.094C93.7802 191.024 93.7802 190.954 93.7802 190.814C93.7802 190.674 93.7802 190.604 93.7101 190.464C93.7101 190.324 93.6401 190.183 93.6401 190.043C93.6401 189.973 93.6401 189.973 93.6401 189.903C93.6401 189.763 93.57 189.623 93.57 189.483C93.4999 189.343 93.4999 189.133 93.4299 188.992C93.4299 188.852 93.3598 188.712 93.2897 188.572C93.2897 188.432 93.2197 188.362 93.1496 188.222C93.1496 188.152 93.0795 188.082 93.0795 187.941C93.0095 187.801 93.0095 187.731 93.0095 187.591C93.0095 187.591 93.0095 187.591 93.0095 187.521C92.9394 187.381 92.9394 187.241 92.8693 187.101C92.8693 187.101 92.8693 187.101 92.8693 187.031C92.7993 186.89 92.7993 186.75 92.7292 186.61C92.7292 186.61 92.7292 186.61 92.7292 186.54C92.6592 186.4 92.5891 186.26 92.519 186.12C92.3088 185.629 92.0986 185.139 91.8184 184.718C91.7483 184.648 91.7483 184.508 91.6782 184.438C91.6082 184.298 91.5381 184.158 91.468 184.018C91.398 183.878 91.3279 183.737 91.2578 183.597C91.1878 183.457 91.1177 183.317 90.9776 183.177C90.9075 183.037 90.8374 182.897 90.6973 182.757C90.417 182.336 90.1368 181.986 89.8565 181.565C89.7164 181.425 89.6463 181.285 89.5062 181.145C89.4361 181.005 89.3661 180.935 89.2259 180.795C89.1559 180.655 89.0157 180.584 88.9457 180.444C88.8756 180.304 88.7355 180.234 88.6654 180.094C88.5953 179.954 88.4552 179.884 88.3151 179.744C88.245 179.604 88.1049 179.533 87.9647 179.393C87.6845 179.113 87.4743 178.903 87.194 178.693C87.124 178.623 87.0539 178.553 86.9138 178.483C86.9138 178.623 86.8437 178.553 86.7736 178.553C86.7036 178.483 86.6335 178.412 86.5634 178.342C86.4233 178.272 86.3532 178.202 86.2131 178.062C86.2131 178.062 86.143 178.062 86.143 177.992C86.073 177.922 86.0029 177.852 85.9328 177.852C85.8628 177.782 85.7226 177.712 85.6526 177.642C85.5825 177.572 85.4424 177.502 85.3723 177.432C85.2322 177.361 85.0921 177.221 84.8819 177.151C84.0411 176.661 83.2703 176.381 82.4996 176.17C81.7289 175.96 80.9582 175.89 80.2575 175.96C79.7671 176.03 79.2766 176.17 78.7861 176.381L81.2384 175.189L81.7289 174.909C83.3404 174.279 85.3723 174.489 87.6144 175.82C91.5381 178.062 94.9013 182.897 96.1624 187.661C96.5828 188.922 96.723 190.254 96.723 191.445Z" fill="url(#paint4_linear_1_19911)" stroke="#231F20" stroke-width="0.0802954" stroke-miterlimit="10" stroke-linecap="round" stroke-linejoin="round"/>
        <path d="M93.9198 192.916C93.9198 194.247 93.7096 195.368 93.2892 196.349C93.0089 196.98 92.6586 197.54 92.3083 197.961C91.9579 198.311 91.6076 198.591 91.1872 198.802C89.5757 199.712 87.3336 199.572 84.8112 198.101C84.1106 197.681 83.4099 197.19 82.7092 196.63L85.0915 195.298C86.7731 196.139 88.2444 196.209 89.3655 195.649C89.6458 195.508 89.926 195.298 90.1362 195.018C90.2764 194.878 90.3464 194.738 90.4165 194.668C90.5566 194.457 90.6967 194.177 90.8369 193.897C91.1171 193.196 91.2573 192.426 91.2573 191.445C91.2573 190.534 91.1171 189.623 90.9069 188.712C89.9961 185.279 87.6139 181.846 84.8112 180.234C84.2507 179.884 83.6902 179.674 83.1296 179.533C82.7793 179.463 82.3589 179.393 82.0086 179.393C81.7984 179.393 81.6583 179.393 81.5181 179.393C81.1678 179.463 80.8175 179.533 80.4671 179.674L80.327 179.744C80.257 179.814 80.1869 179.814 80.0468 179.884L76.6836 178.272C77.1741 177.502 77.8046 176.941 78.5053 176.521L78.6454 176.451C79.0658 176.24 79.5563 176.1 80.1168 176.03C80.8175 175.96 81.5882 176.03 82.3589 176.24C83.1296 176.451 83.9004 176.801 84.7412 177.221C84.8813 177.291 85.0214 177.431 85.2316 177.502C85.3017 177.572 85.4418 177.642 85.5119 177.712C85.5819 177.782 85.7221 177.852 85.7921 177.922C85.8622 177.992 85.9323 178.062 86.0023 178.062C86.0023 178.062 86.0724 178.062 86.0724 178.132C86.2125 178.202 86.2826 178.272 86.4227 178.412C86.4928 178.482 86.5629 178.553 86.6329 178.623C86.703 178.693 86.7731 178.763 86.8431 178.833C86.9132 178.903 86.9833 178.973 87.1234 179.043C87.4037 179.253 87.6139 179.533 87.8941 179.744C88.0342 179.884 88.1043 179.954 88.2444 180.094C88.3846 180.234 88.4546 180.304 88.5948 180.444C88.6648 180.584 88.805 180.655 88.875 180.795C88.9451 180.935 89.0852 181.005 89.1553 181.145C89.2254 181.215 89.2954 181.355 89.4356 181.495C89.5757 181.635 89.6458 181.776 89.7859 181.916C90.0662 182.266 90.3464 182.686 90.6267 183.107C90.6967 183.247 90.8369 183.387 90.9069 183.527C90.977 183.667 91.0471 183.807 91.1872 183.948C91.2573 184.088 91.3273 184.228 91.3974 184.368C91.4675 184.508 91.5375 184.648 91.6076 184.788C91.6777 184.858 91.7477 184.999 91.7477 185.069C91.9579 185.559 92.2382 185.98 92.4484 186.47C92.5185 186.61 92.5885 186.75 92.6586 186.89C92.6586 186.89 92.6586 186.89 92.6586 186.96C92.7287 187.101 92.7287 187.241 92.7987 187.381C92.7987 187.381 92.7987 187.381 92.7987 187.451C92.8688 187.591 92.8688 187.731 92.9389 187.871C92.9389 187.871 92.9389 187.871 92.9389 187.941C92.9389 188.011 93.0089 188.152 93.0089 188.292C93.0089 188.362 93.079 188.432 93.079 188.572C93.149 188.712 93.149 188.782 93.2191 188.922C93.2892 189.062 93.2892 189.203 93.3592 189.343C93.4293 189.483 93.4293 189.693 93.4994 189.833C93.4994 189.973 93.5694 190.113 93.5694 190.254C93.5694 190.324 93.5694 190.324 93.5694 190.394C93.5694 190.534 93.6395 190.674 93.6395 190.814C93.6395 190.954 93.7096 191.024 93.7096 191.164C93.7096 191.234 93.7096 191.305 93.7096 191.445C93.7096 191.585 93.7096 191.655 93.7796 191.795C93.7796 191.795 93.7796 191.795 93.7796 191.865C93.7796 192.005 93.7796 192.075 93.7796 192.215C93.7796 192.285 93.7796 192.356 93.7796 192.426C93.7796 192.566 93.7796 192.636 93.7796 192.776C93.9198 192.566 93.9198 192.706 93.9198 192.916Z" fill="#928874" stroke="#231F20" stroke-width="0.0802954" stroke-miterlimit="10"/>
        <path d="M82.0793 179.253C81.9391 179.534 81.7289 179.814 81.6589 180.094C81.5888 180.164 81.5888 180.304 81.5188 180.374L80.1875 179.744C80.2576 179.674 80.3276 179.674 80.4678 179.604L80.6079 179.534C80.9582 179.393 81.3086 179.323 81.6589 179.253C81.7289 179.253 81.8691 179.253 82.0793 179.253Z" fill="#49443A" stroke="#231F20" stroke-width="0.0802954" stroke-miterlimit="10" stroke-linecap="round" stroke-linejoin="round"/>
        <path d="M90.4866 194.598C90.4166 194.738 90.2764 194.878 90.2064 194.948C89.9962 195.228 89.7159 195.438 89.4356 195.579C88.3146 196.209 86.8432 196.139 85.1616 195.228L87.8942 193.757C87.9643 193.827 88.0343 193.827 88.1044 193.897C88.1745 193.967 88.3146 193.967 88.3847 194.037C88.4547 194.107 88.5248 194.107 88.6649 194.177C88.805 194.247 88.9452 194.317 89.0853 194.317C89.2254 194.387 89.2955 194.387 89.4356 194.387C89.5057 194.387 89.5057 194.387 89.5758 194.457C89.6458 194.457 89.786 194.528 89.856 194.528C89.9261 194.528 89.9261 194.528 89.9962 194.528C90.0662 194.528 90.1363 194.528 90.2064 194.528C90.2764 194.598 90.3465 194.598 90.4866 194.598Z" fill="#49443A" stroke="#231F20" stroke-width="0.0802954" stroke-miterlimit="10" stroke-linecap="round" stroke-linejoin="round"/>
        <path d="M91.3278 191.375C91.3278 192.355 91.1876 193.126 90.9074 193.827C90.7672 194.107 90.6271 194.387 90.487 194.598C90.4169 194.598 90.2768 194.598 90.2067 194.598C90.1366 194.598 90.0666 194.598 89.9965 194.598C89.9264 194.598 89.9264 194.598 89.8564 194.598C89.7863 194.598 89.6462 194.598 89.5761 194.528C89.506 194.528 89.506 194.528 89.436 194.457C89.2958 194.457 89.2258 194.387 89.0857 194.387C88.9455 194.317 88.8054 194.317 88.6653 194.247C88.5952 194.247 88.5251 194.177 88.385 194.107C88.2449 194.037 88.1748 193.967 88.0347 193.967C87.9646 193.967 87.8945 193.897 87.8245 193.827C88.1047 193.757 88.3149 193.617 88.5251 193.477C89.2258 192.916 89.6462 191.865 89.6462 190.534C89.6462 187.451 87.4741 183.597 84.7416 182.056C84.4613 181.916 84.181 181.776 83.9708 181.705L81.3784 180.514C81.3784 180.444 81.4485 180.304 81.5185 180.234C81.6587 179.954 81.7988 179.674 81.9389 179.393C82.2893 179.393 82.6396 179.463 83.06 179.533C83.6205 179.674 84.181 179.884 84.7416 180.234C87.5442 181.846 89.9264 185.349 90.8373 188.712C91.1876 189.553 91.3278 190.534 91.3278 191.375Z" fill="#6E6657" stroke="#231F20" stroke-width="0.0802954" stroke-miterlimit="10" stroke-linecap="round" stroke-linejoin="round"/>
        <path d="M88.5952 193.477C88.385 193.617 88.1748 193.757 87.8945 193.827L88.5952 193.477Z" fill="#F1F2F2" stroke="#231F20" stroke-width="0.201439" stroke-miterlimit="10" stroke-linecap="round" stroke-linejoin="round"/>
        <path d="M72.41 130.768C71.0788 131.468 69.6774 132.239 68.2061 133.01C64.0722 135.182 59.8682 137.494 57.0656 138.965C56.0847 138.615 55.1738 138.755 54.4732 139.246L49.6386 141.838L48.938 142.329L36.8867 137.704L35.4854 137.144L45.785 131.048L56.5751 124.672L72.41 130.768Z" fill="#F1F2F2" stroke="#231F20" stroke-width="0.201439" stroke-miterlimit="10" stroke-linecap="round" stroke-linejoin="round"/>
        <path opacity="0.2" d="M47.1157 141.628L69.1864 129.577L74.3713 131.328L52.8611 142.399H48.7272L47.1157 141.628Z" fill="black" stroke="#231F20" stroke-width="0.0802954" stroke-miterlimit="10"/>
        <path d="M49.7085 141.838C49.7785 141.978 49.7785 142.048 49.8486 142.188C49.4983 142.188 49.218 142.188 48.9377 142.328H48.8677L49.7085 141.838Z" fill="#F1F2F2" stroke="#231F20" stroke-width="0.201439" stroke-miterlimit="10" stroke-linecap="round" stroke-linejoin="round"/>
        <path d="M86.7035 133.5C86.7035 134.621 86.3532 135.462 85.7226 135.883C85.6525 135.953 85.5824 135.953 85.5124 136.023C85.4423 136.093 83.9009 136.934 81.7288 138.195C76.6841 141.067 67.9959 145.972 63.9321 148.074L63.0213 147.724V147.443C62.8111 144.431 60.7091 140.927 58.1867 139.456C57.8364 139.246 57.4861 139.106 57.1357 138.965C59.9384 137.494 64.1423 135.182 68.2762 133.01C69.7476 132.239 71.1489 131.468 72.4801 130.768C75.9834 128.876 78.8561 127.335 79.9772 126.774C80.2574 126.634 80.4676 126.494 80.4676 126.494C81.0982 126.284 81.939 126.424 82.8499 126.914C84.9519 128.105 86.7035 131.118 86.7035 133.5Z" fill="url(#paint5_linear_1_19911)" stroke="#231F20" stroke-width="0.201439" stroke-miterlimit="10" stroke-linecap="round" stroke-linejoin="round"/>
        <path d="M105.201 143.45L104.08 144.08L101.207 145.692L83.3403 155.571L63.9321 148.074C67.9959 146.042 76.6841 141.067 81.7288 138.195C83.9009 136.933 85.4423 136.093 85.5124 136.023C85.5824 136.023 85.6525 135.953 85.7226 135.882L102.258 142.258L105.201 143.45Z" fill="#F1F2F2" stroke="#231F20" stroke-width="0.201439" stroke-miterlimit="10" stroke-linecap="round" stroke-linejoin="round"/>
        <path d="M105.2 143.45V146.392L104.36 146.813L83.3398 158.444V155.571L101.207 145.622L104.079 144.08L105.2 143.45Z" fill="#F1F2F2" stroke="#231F20" stroke-width="0.201439" stroke-miterlimit="10" stroke-linecap="round" stroke-linejoin="round"/>
        <path d="M83.4799 193.897C83.4799 194.037 83.4799 194.107 83.4799 194.247C83.4098 195.228 83.1296 196.069 82.6391 196.56C82.569 196.63 82.4289 196.77 82.3588 196.84C81.448 197.54 80.1167 197.61 78.5753 196.7L77.174 196.069L36.3957 176.591L34.2237 175.54C33.9434 175.47 33.7332 175.33 33.4529 175.189C30.7904 173.648 28.5483 169.864 28.5483 166.711C28.5483 166.081 28.6184 165.59 28.7585 165.1C29.0388 164.329 29.4592 163.769 30.0898 163.488C30.1599 163.488 30.2299 163.418 30.3 163.418C30.4401 163.348 30.5802 163.278 30.7904 163.278C31.5612 163.138 32.472 163.348 33.4529 163.909L33.7332 164.049L34.9243 164.61L37.5868 165.871L43.122 168.533C44.0329 168.954 44.7335 169.094 45.3641 168.954C46.7654 168.673 47.5362 167.272 47.8164 166.221C48.0266 165.59 48.0967 165.03 48.0967 165.03V164.539L47.7464 158.584L47.396 152.558L47.1858 148.845L47.0457 146.042C47.0457 145.972 47.0457 145.832 47.0457 145.762C47.0457 145.692 47.0457 145.622 47.0457 145.552C47.0457 145.201 47.1158 144.921 47.1158 144.641C47.326 143.59 47.8865 142.819 48.6572 142.469C48.7273 142.469 48.7973 142.399 48.8674 142.399C49.1477 142.329 49.4279 142.259 49.7783 142.259C50.4089 142.259 51.1095 142.469 51.8102 142.889C52.3006 143.169 52.7911 143.52 53.2816 144.01L53.3516 144.08C54.4727 145.131 55.3835 146.533 55.9441 148.004C56.0842 148.354 56.2243 148.705 56.2944 149.055C56.4345 149.686 56.5746 150.246 56.6447 150.877V151.157V151.787L56.7148 152.488L57.6957 169.935C57.6957 170.145 58.1161 172.877 59.7977 175.26C60.5684 176.381 61.6194 177.432 63.0908 178.132L70.9381 181.916L75.7727 184.228L77.7345 185.139C77.9447 185.209 78.1549 185.279 78.3651 185.419C78.4352 185.419 78.4352 185.489 78.5052 185.489C80.8174 186.82 82.7792 189.833 83.2697 192.636C83.4799 193.056 83.4799 193.477 83.4799 193.897Z" fill="#F1F2F2" stroke="#231F20" stroke-width="0.201439" stroke-miterlimit="10" stroke-linecap="round" stroke-linejoin="round"/>
        <path opacity="0.14" d="M83.4799 193.897C83.4799 194.037 83.4799 194.107 83.4799 194.247C83.4098 195.228 83.1296 196.069 82.6391 196.56C82.569 196.63 82.4289 196.77 82.3588 196.84C81.448 197.54 80.1167 197.61 78.5753 196.7L77.174 196.069L36.3957 176.591L34.2237 175.54C33.9434 175.47 33.7332 175.33 33.4529 175.189C30.7904 173.648 28.5483 169.864 28.5483 166.711C28.5483 166.081 28.6184 165.59 28.7585 165.1C29.0388 164.329 29.4592 163.769 30.0898 163.488C30.1599 163.488 30.2299 163.418 30.3 163.418C30.4401 163.348 30.5802 163.278 30.7904 163.278C31.5612 163.138 32.472 163.348 33.4529 163.909L33.7332 164.049L34.9243 164.61L37.5868 165.871L43.122 168.533C44.0329 168.954 44.7335 169.094 45.3641 168.954C46.7654 168.673 47.5362 167.272 47.8164 166.221C48.0266 165.59 48.0967 165.03 48.0967 165.03V164.539L47.7464 158.584L47.396 152.558L47.1858 148.845L47.0457 146.042C47.0457 145.972 47.0457 145.832 47.0457 145.762C47.0457 145.692 47.0457 145.622 47.0457 145.552C47.0457 145.201 47.1158 144.921 47.1158 144.641C47.326 143.59 47.8865 142.819 48.6572 142.469C48.7273 142.469 48.7973 142.399 48.8674 142.399C49.1477 142.329 49.4279 142.259 49.7783 142.259C50.4089 142.259 51.1095 142.469 51.8102 142.889C52.3006 143.169 52.7911 143.52 53.2816 144.01L53.3516 144.08C54.4727 145.131 55.3835 146.533 55.9441 148.004C56.0842 148.354 56.2243 148.705 56.2944 149.055C56.4345 149.686 56.5746 150.246 56.6447 150.877V151.157V151.787L56.7148 152.488L57.6957 169.935C57.6957 170.145 58.1161 172.877 59.7977 175.26C60.5684 176.381 61.6194 177.432 63.0908 178.132L70.9381 181.916L75.7727 184.228L77.7345 185.139C77.9447 185.209 78.1549 185.279 78.3651 185.419C78.4352 185.419 78.4352 185.489 78.5052 185.489C80.8174 186.82 82.7792 189.833 83.2697 192.636C83.4799 193.056 83.4799 193.477 83.4799 193.897Z" fill="black" stroke="#231F20" stroke-width="0.201439" stroke-miterlimit="10"/>
        <path d="M48.938 142.329L48.7278 142.469C47.9571 142.819 47.3965 143.52 47.1863 144.641L35.4854 140.157V137.214L36.8867 137.774L48.938 142.329Z" fill="#F1F2F2" stroke="#231F20" stroke-width="0.201439" stroke-miterlimit="10" stroke-linecap="round" stroke-linejoin="round"/>
        <path opacity="0.2" d="M83.3401 155.571V158.514L63.1611 150.736L63.021 148.494C63.3013 148.354 63.5815 148.214 63.8618 148.074L83.3401 155.571Z" fill="black" stroke="#231F20" stroke-width="0.201439" stroke-miterlimit="10"/>
        <path opacity="0.2" d="M48.938 142.329L48.7278 142.469C47.9571 142.819 47.3965 143.52 47.1863 144.641L35.4854 140.157V137.214L36.8867 137.774L48.938 142.329Z" fill="black" stroke="#231F20" stroke-width="0.201439" stroke-miterlimit="10"/>
        <path d="M89.7163 190.464C89.7163 191.865 89.2959 192.846 88.5952 193.407L87.8946 193.757L85.162 195.228L82.7798 196.559L82.7097 196.489C83.2002 195.929 83.4804 195.158 83.5505 194.177C83.5505 194.037 83.5505 193.967 83.5505 193.827C83.5505 193.407 83.4804 192.986 83.4104 192.566C82.9199 189.763 80.9581 186.75 78.6459 185.419C78.5758 185.419 78.5758 185.349 78.5058 185.349C78.2956 185.209 78.0854 185.139 77.8752 185.069L75.9133 184.158L71.0788 181.846L63.2314 178.062C61.8301 177.361 60.7091 176.31 59.9383 175.189C58.2568 172.807 57.9064 170.075 57.8364 169.864L56.8554 152.418L56.7854 151.717V151.087V150.807C56.7153 150.246 56.6453 149.615 56.4351 148.985C56.365 148.635 56.2249 148.284 56.0847 147.934C55.5242 146.462 54.5433 145.061 53.4923 144.01L53.4222 143.94C52.9318 143.52 52.5114 143.169 51.9508 142.819C51.1801 142.399 50.4795 142.188 49.9189 142.188C49.8489 142.048 49.8489 141.978 49.7788 141.838L54.6133 139.246C55.314 138.755 56.1548 138.685 57.2058 138.965C57.5561 139.106 57.9064 139.246 58.2568 139.456C60.8492 140.927 62.8811 144.431 63.0913 147.443V147.724L63.1614 148.494L63.3015 150.736L63.3716 151.647L63.5818 154.87L63.6518 156.272L64.2124 166.431C64.2124 166.641 64.6327 169.304 66.1742 171.686C66.9449 172.877 68.066 173.928 69.5374 174.699L70.5883 175.189L76.8943 178.202L80.2574 179.814L81.5887 180.444L84.1811 181.635C84.4614 181.706 84.6716 181.846 84.9518 181.986C87.5443 183.597 89.7163 187.381 89.7163 190.464Z" fill="#F1F2F2" stroke="#231F20" stroke-width="0.201439" stroke-miterlimit="10" stroke-linecap="round" stroke-linejoin="round"/>
        <path d="M49.8486 142.188C49.4983 142.188 49.218 142.188 48.9377 142.329C48.8677 142.329 48.7976 142.399 48.7275 142.399L48.9377 142.259L49.7085 141.838C49.7785 141.978 49.8486 142.118 49.8486 142.188Z" fill="#F1F2F2" stroke="#231F20" stroke-width="0.201439" stroke-miterlimit="10" stroke-linecap="round" stroke-linejoin="round"/>
        <path d="M82.7097 196.63L82.3594 196.84C82.4294 196.77 82.5696 196.7 82.6396 196.56C82.7097 196.56 82.7097 196.63 82.7097 196.63Z" fill="#F1F2F2" stroke="#231F20" stroke-width="0.201439" stroke-miterlimit="10" stroke-linecap="round" stroke-linejoin="round"/>
        <path d="M48.0973 164.96C48.0973 165.03 48.0272 165.52 47.817 166.151C47.4667 167.202 46.766 168.603 45.3647 168.884C44.7341 169.024 44.0334 168.884 43.1226 168.463L37.5874 165.801L34.9249 164.539L33.7338 163.979L33.4535 163.839C32.4726 163.278 31.5617 163.068 30.791 163.208C30.791 163.138 30.791 163.138 30.791 163.068L33.4535 161.597L36.0459 160.195L36.3262 160.055C37.2371 159.565 38.4282 159.635 39.6894 160.406L43.4729 162.227L47.1864 163.979L48.1673 164.469L48.0973 164.96Z" fill="#F1F2F2" stroke="#231F20" stroke-width="0.201439" stroke-miterlimit="10" stroke-linecap="round" stroke-linejoin="round"/>
        <path opacity="0.08" d="M48.0973 164.96C48.0973 165.03 48.0272 165.52 47.817 166.151C47.4667 167.202 46.766 168.603 45.3647 168.884C44.7341 169.024 44.0334 168.884 43.1226 168.463L37.5874 165.801L34.9249 164.539L33.7338 163.979L33.4535 163.839C32.4726 163.278 31.5617 163.068 30.791 163.208C30.791 163.138 30.791 163.138 30.791 163.068L33.4535 161.597L36.0459 160.195L36.3262 160.055C37.2371 159.565 38.4282 159.635 39.6894 160.406L43.4729 162.227L47.1864 163.979L48.1673 164.469L48.0973 164.96Z" fill="black" stroke="#231F20" stroke-width="0.201439" stroke-miterlimit="10"/>
        <path d="M30.7207 163.278C30.5805 163.278 30.3703 163.348 30.2302 163.418C30.1602 163.418 30.0901 163.488 30.02 163.488L30.2302 163.418L30.7207 163.138C30.7207 163.208 30.7207 163.208 30.7207 163.278Z" fill="#F1F2F2" stroke="#231F20" stroke-width="0.201439" stroke-miterlimit="10" stroke-linecap="round" stroke-linejoin="round"/>
        <path d="M88.5952 193.477C88.385 193.617 88.1748 193.757 87.8945 193.827L88.5952 193.477Z" fill="#F1F2F2" stroke="#231F20" stroke-width="0.201439" stroke-miterlimit="10" stroke-linecap="round" stroke-linejoin="round"/>
    </g>
    <defs>
        <linearGradient id="paint0_linear_1_19911" x1="76.5277" y1="184.309" x2="106.376" y2="184.309" gradientUnits="userSpaceOnUse">
            <stop stop-color="#58595B"/>
            <stop offset="1"/>
        </linearGradient>
        <linearGradient id="paint1_linear_1_19911" x1="33.3807" y1="158.222" x2="48.0835" y2="158.222" gradientUnits="userSpaceOnUse">
            <stop stop-color="#C2B59B"/>
            <stop offset="1" stop-color="#49443A"/>
        </linearGradient>
        <linearGradient id="paint2_linear_1_19911" x1="33.2382" y1="148.792" x2="47.4254" y2="148.792" gradientUnits="userSpaceOnUse">
            <stop stop-color="#58595B"/>
            <stop offset="1"/>
        </linearGradient>
        <linearGradient id="paint3_linear_1_19911" x1="63.4223" y1="163.267" x2="71.5271" y2="163.267" gradientUnits="userSpaceOnUse">
            <stop stop-color="#58595B"/>
            <stop offset="1"/>
        </linearGradient>
        <linearGradient id="paint4_linear_1_19911" x1="78.7725" y1="186.657" x2="96.7542" y2="186.657" gradientUnits="userSpaceOnUse">
            <stop stop-color="#C2B59B"/>
            <stop offset="1" stop-color="#49443A"/>
        </linearGradient>
        <linearGradient id="paint5_linear_1_19911" x1="69.9316" y1="131.783" x2="75.688" y2="142.415" gradientUnits="userSpaceOnUse">
            <stop stop-color="#59595C"/>
            <stop offset="0.3636" stop-color="#221F1F"/>
            <stop offset="0.6738" stop-color="#808184"/>
            <stop offset="1" stop-color="#424143"/>
        </linearGradient>
        <clipPath id="">
            <rect width="106.64" height="88.7733" fill="white" transform="translate(23.7139 124.602)"/>
        </clipPath>
    </defs>
</svg>
