<svg width="230" height="230" viewBox="0 0 230 230" fill="none"
    xmlns="http://www.w3.org/2000/svg">
    <g clip-path="url(#)">
        <path d="M198.458 135.882L197.968 136.163C197.898 136.163 197.898 136.163 197.828 136.163C198.038 136.093 198.248 136.023 198.458 135.882Z" fill="#F1F2F2" stroke="#231F20" stroke-width="0.201439" stroke-miterlimit="10" stroke-linecap="round" stroke-linejoin="round"/>
        <path d="M202.522 138.195C202.382 138.335 202.172 138.405 202.032 138.545L201.962 138.615L202.522 138.195Z" fill="#F1F2F2" stroke="#231F20" stroke-width="0.201439" stroke-miterlimit="10" stroke-linecap="round" stroke-linejoin="round"/>
        <path d="M198.458 135.882L197.968 136.163C197.898 136.163 197.898 136.163 197.828 136.163C198.038 136.093 198.248 136.023 198.458 135.882Z" fill="#F1F2F2" stroke="#231F20" stroke-width="0.201439" stroke-miterlimit="10" stroke-linecap="round" stroke-linejoin="round"/>
        <path d="M198.458 135.882L197.968 136.163C197.898 136.163 197.898 136.163 197.828 136.163C198.038 136.093 198.248 136.023 198.458 135.882Z" fill="#F1F2F2" stroke="#231F20" stroke-width="0.201439" stroke-miterlimit="10" stroke-linecap="round" stroke-linejoin="round"/>
        <path d="M202.522 138.195C202.382 138.335 202.172 138.405 202.032 138.545L201.962 138.615L202.522 138.195Z" fill="#F1F2F2" stroke="#231F20" stroke-width="0.201439" stroke-miterlimit="10" stroke-linecap="round" stroke-linejoin="round"/>
        <path d="M198.458 135.882L197.968 136.163C197.898 136.163 197.898 136.163 197.828 136.163C198.038 136.093 198.248 136.023 198.458 135.882Z" fill="#F1F2F2" stroke="#231F20" stroke-width="0.201439" stroke-miterlimit="10" stroke-linecap="round" stroke-linejoin="round"/>
        <path d="M198.458 135.882L197.968 136.163C197.898 136.163 197.898 136.163 197.828 136.163C198.038 136.093 198.248 136.023 198.458 135.882Z" fill="#F1F2F2" stroke="#231F20" stroke-width="0.201439" stroke-miterlimit="10" stroke-linecap="round" stroke-linejoin="round"/>
        <path d="M193.904 132.94C193.904 133.78 193.834 134.551 193.694 135.252C193.624 135.672 193.554 136.022 193.413 136.443C193.273 136.933 193.133 137.354 192.923 137.774C192.783 138.054 192.643 138.265 192.503 138.475C192.292 138.825 192.082 139.175 191.802 139.456C191.382 139.876 190.961 140.296 190.471 140.577L190.331 140.647C188.159 141.838 185.216 141.698 181.923 139.806C181.502 139.596 181.152 139.316 180.732 139.035L138.272 114.442C137.991 114.302 137.781 114.162 137.501 114.022C130.915 110.238 125.59 100.99 125.59 93.4225C125.59 91.881 125.8 90.5498 126.22 89.4287C126.781 87.7471 127.762 86.556 128.953 85.7853C129.023 85.7853 129.023 85.7152 129.093 85.7152C129.654 85.435 130.214 85.2248 130.845 85.0846C130.985 85.0846 131.195 85.0146 131.335 85.0146C131.475 85.0146 131.686 84.9445 131.896 84.9445L133.788 84.8044H134.208L140.304 84.3139H140.724L144.087 84.0337L145.699 83.8935L148.641 83.6833L153.616 83.2629C153.896 83.1929 154.177 83.1929 154.457 83.1929C154.597 83.1929 154.737 83.1929 154.947 83.1929C155.788 83.1929 156.699 83.4031 157.68 83.7534C158.451 84.0337 159.221 84.384 159.992 84.8044C161.113 85.435 162.234 86.2758 163.215 87.1866C164.056 87.9573 164.897 88.8682 165.667 89.7791L165.738 89.8491C165.948 90.1294 166.158 90.3396 166.368 90.6198L176.668 103.582L177.298 104.353L178.84 106.315L179.12 106.665L181.362 109.538L183.534 112.27L186.757 116.334C187.318 116.895 187.808 117.525 188.299 118.156C188.649 118.576 188.999 119.067 189.28 119.557C191.802 123.341 193.554 127.755 193.834 131.889C193.904 132.169 193.904 132.589 193.904 132.94Z" fill="#F1F2F2" stroke="#231F20" stroke-width="0.201439" stroke-miterlimit="10" stroke-linecap="round" stroke-linejoin="round"/>
        <path opacity="0.14" d="M193.904 132.94C193.904 133.78 193.834 134.551 193.694 135.252C193.624 135.672 193.554 136.022 193.413 136.443C193.273 136.933 193.133 137.354 192.923 137.774C192.783 138.054 192.643 138.265 192.503 138.475C192.292 138.825 192.082 139.175 191.802 139.456C191.382 139.876 190.961 140.296 190.471 140.577L190.331 140.647C188.159 141.838 185.216 141.698 181.923 139.806C181.502 139.596 181.152 139.316 180.732 139.035L138.272 114.442C137.991 114.302 137.781 114.162 137.501 114.022C130.915 110.238 125.59 100.99 125.59 93.4225C125.59 91.881 125.8 90.5498 126.22 89.4287C126.781 87.7471 127.762 86.556 128.953 85.7853C129.023 85.7853 129.023 85.7152 129.093 85.7152C129.654 85.435 130.214 85.2248 130.845 85.0846C130.985 85.0846 131.195 85.0146 131.335 85.0146C131.475 85.0146 131.686 84.9445 131.896 84.9445L133.788 84.8044H134.208L140.304 84.3139H140.724L144.087 84.0337L145.699 83.8935L148.641 83.6833L153.616 83.2629C153.896 83.1929 154.177 83.1929 154.457 83.1929C154.597 83.1929 154.737 83.1929 154.947 83.1929C155.788 83.1929 156.699 83.4031 157.68 83.7534C158.451 84.0337 159.221 84.384 159.992 84.8044C161.113 85.435 162.234 86.2758 163.215 87.1866C164.056 87.9573 164.897 88.8682 165.667 89.7791L165.738 89.8491C165.948 90.1294 166.158 90.3396 166.368 90.6198L176.668 103.582L177.298 104.353L178.84 106.315L179.12 106.665L181.362 109.538L183.534 112.27L186.757 116.334C187.318 116.895 187.808 117.525 188.299 118.156C188.649 118.576 188.999 119.067 189.28 119.557C191.802 123.341 193.554 127.755 193.834 131.889C193.904 132.169 193.904 132.589 193.904 132.94Z" fill="black" stroke="#231F20" stroke-width="0.201439" stroke-miterlimit="10"/>
        <path d="M201.962 128.175C201.962 131.959 200.63 134.551 198.528 135.812L198.458 135.882C198.248 136.023 198.038 136.093 197.828 136.163C197.898 136.163 197.898 136.163 197.968 136.163L194.184 138.405L193.273 138.895L192.082 139.596L190.471 140.577C190.961 140.297 191.382 139.876 191.802 139.456C192.082 139.175 192.293 138.825 192.503 138.475C192.643 138.265 192.783 137.984 192.923 137.774C193.133 137.354 193.273 136.933 193.414 136.443C193.484 136.093 193.624 135.672 193.694 135.252C193.834 134.551 193.904 133.78 193.904 132.94C193.904 132.589 193.904 132.169 193.834 131.819C193.554 127.755 191.872 123.271 189.28 119.487C188.929 118.997 188.649 118.576 188.299 118.086C187.808 117.455 187.318 116.824 186.757 116.264L183.534 112.2L181.362 109.468L179.12 106.595L178.84 106.245L177.299 104.283L176.668 103.512L166.368 90.5498C166.158 90.2696 165.948 90.0594 165.738 89.7791L165.668 89.709C164.897 88.7982 164.056 87.8873 163.215 87.1166C162.164 86.2058 161.113 85.365 159.992 84.7344C159.222 84.2439 158.451 83.8936 157.68 83.6834C156.699 83.3331 155.788 83.1929 154.948 83.1229C154.807 83.1229 154.597 83.1229 154.457 83.1229C154.177 83.1229 153.897 83.1229 153.616 83.1929L148.642 83.6133L145.699 83.8235L144.087 83.9637L140.724 84.2439H140.304L134.208 84.7344H133.788L131.896 84.8745C131.686 84.8745 131.546 84.8745 131.335 84.9446C131.195 84.9446 130.985 85.0146 130.845 85.0146C130.214 85.1548 129.654 85.365 129.093 85.6452L130.845 84.5942L137.081 80.8808C137.781 80.5304 138.482 80.2502 139.323 80.1801C139.463 80.1801 139.673 80.11 139.883 80.11L140.444 80.04L142.896 79.8298L144.298 79.6896L153.616 78.9189L156.349 78.7087L157.54 78.7788L161.744 78.4285C162.024 78.3584 162.304 78.3584 162.585 78.3584C164.196 78.2883 166.088 78.8489 168.12 79.9699C170.222 81.161 172.114 82.9127 173.865 84.9446L173.935 85.0146C174.146 85.2949 174.356 85.5051 174.566 85.7854L179.05 91.4607L185.496 99.5883L187.038 101.62L188.929 104.002L191.592 107.436L194.885 111.57C195.796 112.55 196.637 113.672 197.407 114.793C197.407 114.863 197.477 114.863 197.477 114.933C197.828 115.493 198.178 115.984 198.458 116.544C200.14 119.487 201.331 122.78 201.751 125.863C201.892 126.634 201.962 127.404 201.962 128.175Z" fill="#F1F2F2" stroke="#231F20" stroke-width="0.201439" stroke-miterlimit="10" stroke-linecap="round" stroke-linejoin="round"/>
        <path opacity="0.25" d="M162.164 96.9961L152.985 106.315L146.75 98.5375L162.164 96.9961Z" fill="black" stroke="#231F20" stroke-width="0.201439" stroke-miterlimit="10"/>
        <path d="M163.215 94.6137C163.215 95.8049 162.795 96.6456 162.164 97.066C162.094 97.066 162.094 97.1361 162.024 97.1361C161.954 97.2062 160.973 97.6966 159.501 98.6075C155.087 101.13 146.119 106.245 141.354 108.697C140.514 109.117 139.813 109.468 139.323 109.748C139.953 109.328 140.374 108.417 140.374 107.296C140.374 104.773 138.622 101.69 136.45 100.429C135.469 99.8687 134.558 99.7285 133.857 100.079C134.628 99.6585 135.539 99.168 136.52 98.6075C140.584 96.4354 145.909 93.5628 150.113 91.3206C151.094 90.7601 152.004 90.2697 152.845 89.8493C154.527 88.9384 155.788 88.2378 156.489 87.8874C156.769 87.7473 156.979 87.6072 156.979 87.6072C157.61 87.397 158.451 87.5371 159.361 88.0276C161.463 89.1486 163.215 92.1614 163.215 94.6137Z" fill="url(#paint0_linear_1_19911)" stroke="#231F20" stroke-width="0.201439" stroke-miterlimit="10" stroke-linecap="round" stroke-linejoin="round"/>
        <path d="M162.794 124.812C162.794 124.812 156.699 118.646 155.648 130.207C154.597 141.768 154.597 141.768 154.597 141.768L166.158 159.144L179.68 160.546L180.661 153.539L162.794 124.812Z" fill="#49443A" stroke="#231F20" stroke-width="0.225612" stroke-miterlimit="10" stroke-linecap="round" stroke-linejoin="round"/>
        <path d="M186.967 145.902C186.967 146.743 186.897 147.514 186.827 148.284C186.687 148.985 186.547 149.616 186.337 150.246C185.846 151.647 185.005 152.698 184.024 153.399C183.043 154.1 181.852 154.52 180.521 154.52C180.451 154.52 180.311 154.52 180.241 154.52C178.769 154.45 177.088 154.03 175.266 153.049C175.196 153.049 175.196 152.979 175.126 152.979C168.47 149.265 163.005 140.017 162.935 132.449C162.935 132.099 162.935 131.679 162.935 131.328C163.005 129.647 163.425 128.245 163.986 127.124C163.986 127.054 164.056 126.984 164.126 126.914C164.826 125.653 165.807 124.742 167.068 124.252C168.119 123.831 169.311 123.691 170.642 123.901C171.623 124.042 172.744 124.392 173.865 124.952C174.145 125.092 174.495 125.233 174.776 125.443C174.916 125.513 175.056 125.583 175.266 125.723C175.336 125.723 175.336 125.793 175.406 125.793C180.801 130.978 185.075 138.265 186.967 145.412C186.967 145.482 186.967 145.482 186.967 145.552C186.967 145.622 186.967 145.762 186.967 145.902Z" fill="#6E6657" stroke="#231F20" stroke-width="0.225612" stroke-miterlimit="10" stroke-linecap="round" stroke-linejoin="round"/>
        <path d="M160.973 136.653C161.043 142.329 165.107 149.195 170.081 151.998C172.744 153.469 175.056 153.539 176.667 152.348C177.438 151.787 177.999 151.017 178.419 149.966C178.559 149.545 178.699 149.055 178.769 148.494C178.839 147.934 178.909 147.373 178.909 146.743C178.839 141.067 174.776 134.201 169.801 131.398C169.591 131.258 169.381 131.188 169.1 131.048C168.259 130.628 167.419 130.417 166.718 130.277C165.737 130.137 164.826 130.207 164.056 130.558C162.094 131.398 160.903 133.5 160.973 136.653Z" fill="#928874" stroke="#231F20" stroke-width="0.225612" stroke-miterlimit="10" stroke-linecap="round" stroke-linejoin="round"/>
        <path d="M164.056 130.628C164.826 130.277 165.737 130.207 166.718 130.347C167.489 130.487 168.26 130.698 169.1 131.118C169.311 131.258 169.521 131.328 169.801 131.468C174.776 134.271 178.84 141.137 178.91 146.813C178.91 147.443 178.84 148.004 178.769 148.564C178.699 149.055 178.559 149.545 178.419 150.036C178.069 151.087 177.438 151.858 176.668 152.418L181.502 149.545L181.572 149.475C183.184 148.564 184.165 146.533 184.165 143.66C184.094 137.985 180.031 131.118 175.056 128.315C172.884 127.124 170.922 126.844 169.381 127.475L168.119 128.175L164.056 130.628Z" fill="url(#paint1_linear_1_19911)" stroke="#231F20" stroke-width="0.225612" stroke-miterlimit="10" stroke-linecap="round" stroke-linejoin="round"/>
        <path d="M186.967 145.482C186.967 145.411 186.967 145.411 186.897 145.341C184.935 138.125 180.661 130.908 175.336 125.723C175.266 125.653 175.196 125.653 175.196 125.583C173.234 123.691 171.132 122.15 168.96 120.888C168.47 120.608 167.98 120.398 167.559 120.188C165.807 119.347 164.126 118.786 162.514 118.576C160.482 118.296 158.591 118.506 156.979 119.137H156.909C152.845 120.818 150.323 125.303 150.393 131.889C150.533 143.8 159.081 158.233 169.521 164.119C175.056 167.202 180.031 167.272 183.464 164.82C185.076 163.699 186.267 162.017 187.107 159.845C187.458 158.934 187.738 157.883 187.878 156.762C188.088 155.641 188.158 154.38 188.158 153.049C188.018 150.596 187.668 148.074 186.967 145.482ZM178.279 156.762C176.107 158.304 172.954 158.304 169.381 156.272C162.725 152.558 157.259 143.309 157.189 135.742C157.119 131.538 158.731 128.666 161.323 127.615C162.094 127.264 163.005 127.124 163.986 127.124C164.056 127.124 164.126 127.124 164.196 127.124C164.406 127.124 164.686 127.124 164.897 127.194C165.878 127.334 166.999 127.685 168.12 128.175C168.4 128.315 168.75 128.456 169.031 128.666C175.687 132.379 181.152 141.628 181.222 149.195C181.222 149.335 181.222 149.475 181.222 149.615C181.222 150.316 181.152 150.947 181.082 151.577C180.942 152.278 180.802 152.908 180.591 153.539C180.451 153.889 180.311 154.17 180.171 154.52C179.681 155.431 179.05 156.202 178.279 156.762Z" fill="#231F20" stroke="#231F20" stroke-width="0.225612" stroke-miterlimit="10" stroke-linecap="round" stroke-linejoin="round"/>
        <path d="M196.566 157.113C197.057 156.902 197.547 156.622 198.038 156.272L196.566 157.113ZM186.967 145.341C185.006 138.125 180.732 130.908 175.407 125.723C175.336 125.653 175.266 125.653 175.266 125.583V125.653C175.547 126.844 175.967 127.965 176.387 129.156C178.139 133.921 180.872 138.545 184.165 142.469C185.076 143.52 186.057 144.571 187.037 145.552C187.037 145.552 187.037 145.552 187.107 145.552C186.967 145.412 186.967 145.412 186.967 145.341ZM169.311 111.85C169.241 111.85 169.241 111.92 169.241 111.92C169.941 111.5 170.572 111.149 170.922 110.939C170.992 110.939 170.992 110.869 171.062 110.869C171.133 110.799 171.203 110.799 171.203 110.799C171.273 110.799 171.273 110.729 171.343 110.729L171.413 110.659C170.712 110.939 170.011 111.36 169.311 111.85Z" fill="#231F20" stroke="#231F20" stroke-width="0.225612" stroke-miterlimit="10" stroke-linecap="round" stroke-linejoin="round"/>
        <path d="M199.789 154.87C199.649 155.011 199.509 155.081 199.439 155.151C199.509 155.011 199.649 154.941 199.789 154.87Z" fill="url(#paint2_linear_1_19911)" stroke="#231F20" stroke-width="0.225612" stroke-miterlimit="10" stroke-linecap="round" stroke-linejoin="round"/>
        <path d="M202.662 144.571C202.662 145.902 202.592 147.163 202.382 148.284C202.241 149.405 201.961 150.386 201.611 151.367C200.84 153.539 199.579 155.221 197.967 156.342L196.496 157.183L183.324 164.82C184.935 163.699 186.126 162.017 186.967 159.845C187.317 158.934 187.598 157.883 187.738 156.762C187.948 155.641 188.018 154.38 188.018 153.049C188.018 150.596 187.598 148.074 186.897 145.482C186.897 145.412 186.897 145.412 186.827 145.341C184.865 138.125 180.591 130.908 175.266 125.723C175.196 125.653 175.126 125.653 175.126 125.583C173.164 123.691 171.062 122.15 168.89 120.889C168.4 120.608 167.909 120.398 167.489 120.188C165.737 119.347 164.056 118.787 162.444 118.576C160.412 118.296 158.52 118.506 156.909 119.137H156.839L169.311 111.92C169.241 111.92 169.241 111.99 169.241 111.99C169.941 111.57 170.572 111.219 170.922 111.009C170.992 111.009 170.992 110.939 171.062 110.939C171.132 110.869 171.202 110.869 171.202 110.869C171.272 110.869 171.272 110.799 171.342 110.799L171.413 110.729C173.094 110.028 174.986 109.818 177.018 110.098C178.629 110.309 180.311 110.869 182.063 111.71C182.553 111.92 182.973 112.2 183.464 112.411C185.706 113.672 187.878 115.283 189.84 117.245C195.235 122.43 199.509 129.717 201.401 136.864C202.241 139.456 202.662 142.048 202.662 144.571Z" fill="url(#paint3_linear_1_19911)" stroke="#231F20" stroke-width="0.225612" stroke-miterlimit="10" stroke-linecap="round" stroke-linejoin="round"/>
        <path d="M170.922 110.939C170.502 111.149 169.941 111.5 169.241 111.92L169.311 111.85L170.922 110.939Z" fill="#C49A6C" stroke="#231F20" stroke-width="0.225612" stroke-miterlimit="10" stroke-linecap="round" stroke-linejoin="round"/>
        <path d="M102.819 91.3207C102.819 91.3207 96.7228 85.1549 95.6718 96.7158C94.5508 108.207 94.5508 108.207 94.5508 108.207L106.112 125.583L119.634 126.984L120.615 119.978L102.819 91.3207Z" fill="#49443A" stroke="#231F20" stroke-width="0.225612" stroke-miterlimit="10" stroke-linecap="round" stroke-linejoin="round"/>
        <path d="M126.991 112.411C126.991 113.251 126.921 114.022 126.851 114.793C126.711 115.493 126.571 116.124 126.361 116.755C125.87 118.156 125.029 119.207 124.049 119.908C123.068 120.608 121.876 121.029 120.545 121.029C120.475 121.029 120.335 121.029 120.265 121.029C118.794 121.029 117.112 120.538 115.29 119.557C115.22 119.557 115.22 119.487 115.15 119.487C108.424 115.704 102.959 106.455 102.889 98.8879C102.889 98.5376 102.889 98.1172 102.889 97.7668C102.959 96.0853 103.379 94.6839 103.94 93.5629C103.94 93.4928 104.01 93.4228 104.08 93.3527C104.78 92.0915 105.761 91.1806 107.023 90.6902C108.074 90.2698 109.265 90.1297 110.596 90.3399C111.577 90.48 112.698 90.8303 113.819 91.3908C114.099 91.531 114.45 91.6711 114.73 91.8813C114.87 91.9514 115.01 92.0214 115.22 92.1616C115.29 92.1616 115.29 92.2316 115.36 92.2316C120.755 97.4165 125.029 104.703 126.921 111.85C126.921 111.92 126.921 111.92 126.921 111.99C126.991 112.06 126.991 112.2 126.991 112.411Z" fill="#6E6657" stroke="#231F20" stroke-width="0.225612" stroke-miterlimit="10" stroke-linecap="round" stroke-linejoin="round"/>
        <path d="M100.927 103.162C100.997 108.837 105.061 115.704 110.035 118.506C112.698 119.978 115.01 120.048 116.621 118.857C117.392 118.296 117.953 117.525 118.373 116.474C118.513 116.054 118.653 115.564 118.723 115.003C118.794 114.442 118.864 113.882 118.864 113.251C118.794 107.576 114.73 100.71 109.755 97.907C109.545 97.7668 109.335 97.6968 109.054 97.5567C108.214 97.1363 107.373 96.9261 106.672 96.7859C105.691 96.6458 104.78 96.7159 104.01 97.0662C102.118 97.907 100.927 100.009 100.927 103.162Z" fill="#928874" stroke="#231F20" stroke-width="0.225612" stroke-miterlimit="10" stroke-linecap="round" stroke-linejoin="round"/>
        <path d="M104.08 97.0662C104.851 96.7159 105.762 96.6458 106.743 96.7859C107.513 96.9261 108.284 97.1363 109.125 97.5567C109.335 97.6968 109.545 97.7669 109.825 97.907C114.8 100.71 118.864 107.576 118.934 113.251C118.934 113.882 118.864 114.443 118.794 115.003C118.724 115.493 118.584 115.984 118.444 116.474C118.093 117.525 117.463 118.296 116.692 118.857L121.526 115.984L121.597 115.914C123.208 115.003 124.189 112.971 124.189 110.098C124.119 104.423 120.055 97.5567 115.08 94.754C112.908 93.5629 110.947 93.2826 109.405 93.9132L108.144 94.6139L104.08 97.0662Z" fill="url(#paint4_linear_1_19911)" stroke="#231F20" stroke-width="0.225612" stroke-miterlimit="10" stroke-linecap="round" stroke-linejoin="round"/>
        <path d="M126.991 111.99C126.991 111.92 126.991 111.92 126.921 111.85C124.959 104.633 120.685 97.4165 115.36 92.2316C115.29 92.1616 115.22 92.1616 115.22 92.0915C113.258 90.1997 111.156 88.6583 108.984 87.3971C108.494 87.1168 108.003 86.9066 107.583 86.6964C105.831 85.8557 104.15 85.2951 102.538 85.0849C100.506 84.8047 98.6146 85.0149 97.0031 85.6455H96.9331C92.8693 87.327 90.3469 91.8112 90.417 98.3974C90.5571 110.309 99.1051 124.742 109.545 130.628C115.08 133.711 120.055 133.781 123.488 131.328C125.1 130.207 126.291 128.526 127.131 126.354C127.482 125.443 127.762 124.392 127.902 123.271C128.112 122.15 128.182 120.889 128.182 119.557C128.042 117.105 127.692 114.513 126.991 111.99ZM118.303 123.201C116.131 124.742 112.978 124.742 109.405 122.71C102.749 118.997 97.2834 109.818 97.2133 102.181C97.1433 97.977 98.7548 95.1043 101.347 94.0534C102.118 93.703 103.029 93.5629 104.01 93.5629C104.08 93.5629 104.15 93.5629 104.22 93.5629C104.43 93.5629 104.71 93.5629 104.921 93.633C105.901 93.7731 107.023 94.1234 108.144 94.6139C108.424 94.754 108.774 94.8941 109.054 95.1043C115.711 98.8178 121.176 108.067 121.246 115.634C121.246 115.774 121.246 115.914 121.246 116.054C121.246 116.755 121.176 117.385 121.106 118.016C120.966 118.716 120.825 119.347 120.615 119.978C120.475 120.328 120.335 120.608 120.195 120.959C119.704 121.94 119.074 122.64 118.303 123.201Z" fill="#231F20" stroke="#231F20" stroke-width="0.225612" stroke-miterlimit="10" stroke-linecap="round" stroke-linejoin="round"/>
        <path d="M136.59 123.621C137.081 123.411 137.571 123.13 138.062 122.78L136.59 123.621ZM126.921 111.78C124.959 104.563 120.685 97.3463 115.36 92.1614C115.29 92.0914 115.22 92.0914 115.22 92.0213V92.0914C115.5 93.2825 115.921 94.4035 116.341 95.5947C118.093 100.359 120.825 104.983 124.119 108.907C125.029 109.958 126.01 111.009 126.991 111.99C126.991 111.99 126.991 111.99 127.061 111.99C126.991 111.92 126.991 111.85 126.921 111.78ZM109.335 78.3585C109.265 78.3585 109.265 78.4285 109.265 78.4285C109.965 78.0081 110.596 77.6578 110.946 77.4476C111.016 77.4476 111.016 77.3776 111.086 77.3776C111.156 77.3075 111.226 77.3075 111.226 77.3075C111.297 77.3075 111.297 77.2374 111.367 77.2374L111.437 77.1674C110.736 77.4476 109.965 77.868 109.335 78.3585Z" fill="#231F20" stroke="#231F20" stroke-width="0.225612" stroke-miterlimit="10" stroke-linecap="round" stroke-linejoin="round"/>
        <path d="M139.743 121.309C139.603 121.449 139.463 121.519 139.393 121.589C139.533 121.519 139.673 121.449 139.743 121.309Z" fill="url(#paint5_linear_1_19911)" stroke="#231F20" stroke-width="0.225612" stroke-miterlimit="10" stroke-linecap="round" stroke-linejoin="round"/>
        <path d="M142.687 111.009C142.687 112.34 142.616 113.602 142.406 114.723C142.266 115.844 141.986 116.825 141.636 117.806C140.865 119.978 139.604 121.659 137.992 122.78L136.521 123.621L123.418 131.258C125.03 130.137 126.221 128.456 127.062 126.284C127.412 125.373 127.692 124.322 127.833 123.201C128.043 122.08 128.113 120.818 128.113 119.487C128.113 117.035 127.692 114.513 126.992 111.92C126.992 111.85 126.992 111.85 126.922 111.78C124.96 104.563 120.686 97.3464 115.361 92.1615C115.291 92.0915 115.221 92.0915 115.221 92.0214C113.259 90.1296 111.157 88.5882 108.985 87.327C108.494 87.0467 108.004 86.8365 107.584 86.6263C105.832 85.7855 104.15 85.225 102.539 85.0148C100.507 84.7346 98.6152 84.9448 97.0037 85.5753H96.9336L109.335 78.3586C109.265 78.3586 109.265 78.4286 109.265 78.4286C109.966 78.0082 110.596 77.6579 110.947 77.4477C111.017 77.4477 111.017 77.3777 111.087 77.3777C111.157 77.3076 111.227 77.3076 111.227 77.3076C111.297 77.3076 111.297 77.2375 111.367 77.2375L111.437 77.1675C113.119 76.4668 115.011 76.2566 117.042 76.5369C118.654 76.7471 120.336 77.3076 122.087 78.1484C122.578 78.3586 122.998 78.6388 123.489 78.849C125.731 80.1102 127.903 81.7217 129.865 83.6836C135.26 88.8684 139.534 96.1553 141.425 103.302C142.266 105.894 142.687 108.557 142.687 111.009Z" fill="url(#paint6_linear_1_19911)" stroke="#231F20" stroke-width="0.225612" stroke-miterlimit="10" stroke-linecap="round" stroke-linejoin="round"/>
        <path d="M110.946 77.4478C110.526 77.658 109.965 78.0083 109.265 78.4287L109.335 78.3586L110.946 77.4478Z" fill="#C49A6C" stroke="#231F20" stroke-width="0.225612" stroke-miterlimit="10" stroke-linecap="round" stroke-linejoin="round"/>
        <path d="M172.464 150.806L171.973 151.087C171.903 151.087 171.903 151.087 171.833 151.087C172.113 151.017 172.253 150.947 172.464 150.806Z" fill="#F1F2F2" stroke="#231F20" stroke-width="0.201439" stroke-miterlimit="10" stroke-linecap="round" stroke-linejoin="round"/>
        <path d="M172.464 150.806L171.973 151.087C171.903 151.087 171.903 151.087 171.833 151.087C172.113 151.017 172.253 150.947 172.464 150.806Z" fill="#F1F2F2" stroke="#231F20" stroke-width="0.201439" stroke-miterlimit="10" stroke-linecap="round" stroke-linejoin="round"/>
        <path d="M172.464 150.806L171.973 151.087C171.903 151.087 171.903 151.087 171.833 151.087C172.113 151.017 172.253 150.947 172.464 150.806Z" fill="#F1F2F2" stroke="#231F20" stroke-width="0.201439" stroke-miterlimit="10" stroke-linecap="round" stroke-linejoin="round"/>
        <path d="M172.464 150.806L171.973 151.087C171.903 151.087 171.903 151.087 171.833 151.087C172.113 151.017 172.253 150.947 172.464 150.806Z" fill="#F1F2F2" stroke="#231F20" stroke-width="0.201439" stroke-miterlimit="10" stroke-linecap="round" stroke-linejoin="round"/>
        <path d="M172.464 150.806L171.973 151.087C171.903 151.087 171.903 151.087 171.833 151.087C172.113 151.017 172.253 150.947 172.464 150.806Z" fill="#F1F2F2" stroke="#231F20" stroke-width="0.201439" stroke-miterlimit="10" stroke-linecap="round" stroke-linejoin="round"/>
        <path d="M167.909 147.864C167.909 148.705 167.839 149.475 167.699 150.176C167.629 150.596 167.559 150.947 167.419 151.367C167.279 151.858 167.139 152.278 166.928 152.698C166.788 152.979 166.648 153.189 166.508 153.399C166.298 153.749 166.088 154.1 165.807 154.38C165.387 154.8 164.967 155.221 164.476 155.501L164.336 155.571C162.164 156.762 159.221 156.622 155.928 154.73C155.508 154.52 155.157 154.24 154.737 153.959L112.277 129.366C111.997 129.226 111.787 129.086 111.506 128.946C104.92 125.162 99.5952 115.914 99.5952 108.347C99.5952 106.805 99.8054 105.474 100.226 104.353C100.786 102.671 101.767 101.48 102.958 100.709C103.028 100.709 103.028 100.639 103.099 100.639C103.659 100.359 104.22 100.149 104.85 100.009C104.99 100.009 105.2 99.9388 105.341 99.9388C105.481 99.9388 105.691 99.8687 105.901 99.8687L107.793 99.7286H108.213L114.309 99.2381H114.729L118.093 98.9579L119.704 98.8177L122.647 98.6075L127.622 98.1871C127.902 98.1171 128.182 98.1171 128.462 98.1171C128.602 98.1171 128.743 98.1171 128.953 98.1171C129.794 98.1171 130.704 98.3273 131.685 98.6776C132.456 98.9579 133.227 99.3082 133.998 99.7286C135.119 100.359 136.24 101.2 137.221 102.111C138.061 102.882 138.902 103.792 139.673 104.703L139.743 104.773C139.953 105.054 140.163 105.264 140.373 105.544L150.673 118.506L151.304 119.277L152.845 121.239L153.125 121.589L155.368 124.462L157.54 127.194L160.763 131.258C161.323 131.819 161.814 132.449 162.304 133.08C162.654 133.5 163.005 133.991 163.285 134.481C165.807 138.265 167.559 142.679 167.839 146.813C167.909 147.093 167.909 147.443 167.909 147.864Z" fill="#F1F2F2" stroke="#231F20" stroke-width="0.201439" stroke-miterlimit="10" stroke-linecap="round" stroke-linejoin="round"/>
        <path opacity="0.14" d="M167.909 147.864C167.909 148.705 167.839 149.475 167.699 150.176C167.629 150.596 167.559 150.947 167.419 151.367C167.279 151.858 167.139 152.278 166.928 152.698C166.788 152.979 166.648 153.189 166.508 153.399C166.298 153.749 166.088 154.1 165.807 154.38C165.387 154.8 164.967 155.221 164.476 155.501L164.336 155.571C162.164 156.762 159.221 156.622 155.928 154.73C155.508 154.52 155.157 154.24 154.737 153.959L112.277 129.366C111.997 129.226 111.787 129.086 111.506 128.946C104.92 125.162 99.5952 115.914 99.5952 108.347C99.5952 106.805 99.8054 105.474 100.226 104.353C100.786 102.671 101.767 101.48 102.958 100.709C103.028 100.709 103.028 100.639 103.099 100.639C103.659 100.359 104.22 100.149 104.85 100.009C104.99 100.009 105.2 99.9388 105.341 99.9388C105.481 99.9388 105.691 99.8687 105.901 99.8687L107.793 99.7286H108.213L114.309 99.2381H114.729L118.093 98.9579L119.704 98.8177L122.647 98.6075L127.622 98.1871C127.902 98.1171 128.182 98.1171 128.462 98.1171C128.602 98.1171 128.743 98.1171 128.953 98.1171C129.794 98.1171 130.704 98.3273 131.685 98.6776C132.456 98.9579 133.227 99.3082 133.998 99.7286C135.119 100.359 136.24 101.2 137.221 102.111C138.061 102.882 138.902 103.792 139.673 104.703L139.743 104.773C139.953 105.054 140.163 105.264 140.373 105.544L150.673 118.506L151.304 119.277L152.845 121.239L153.125 121.589L155.368 124.462L157.54 127.194L160.763 131.258C161.323 131.819 161.814 132.449 162.304 133.08C162.654 133.5 163.005 133.991 163.285 134.481C165.807 138.265 167.559 142.679 167.839 146.813C167.909 147.093 167.909 147.443 167.909 147.864Z" fill="black" stroke="#231F20" stroke-width="0.201439" stroke-miterlimit="10"/>
        <path d="M175.967 143.099C175.967 146.883 174.636 149.475 172.534 150.736L172.463 150.806C172.253 150.947 172.043 151.017 171.833 151.087C171.903 151.087 171.903 151.087 171.973 151.087L168.189 153.329L167.279 153.819L166.088 154.52L164.476 155.501C164.966 155.221 165.387 154.8 165.807 154.38C166.088 154.1 166.298 153.749 166.508 153.399C166.648 153.189 166.788 152.908 166.928 152.698C167.138 152.278 167.279 151.857 167.419 151.367C167.489 151.017 167.629 150.596 167.699 150.176C167.839 149.475 167.909 148.704 167.909 147.864C167.909 147.513 167.909 147.093 167.839 146.743C167.559 142.679 165.877 138.195 163.285 134.411C162.935 133.921 162.654 133.5 162.304 133.01C161.813 132.379 161.323 131.749 160.763 131.188L157.539 127.124L155.438 124.322L153.195 121.449L152.915 121.099L151.374 119.137L150.743 118.366L140.443 105.404C140.233 105.124 140.023 104.913 139.813 104.633L139.743 104.563C138.972 103.652 138.131 102.741 137.29 101.971C136.239 101.06 135.189 100.219 134.067 99.5884C133.297 99.0979 132.526 98.7476 131.755 98.5374C130.774 98.1871 129.864 98.0469 129.023 97.9769C128.883 97.9769 128.672 97.9769 128.532 97.9769C128.252 97.9769 127.972 97.9769 127.691 98.0469L122.717 98.4673L119.774 98.6775L118.163 98.8177L114.799 99.168H114.379L108.283 99.6584H107.863L105.971 99.7986C105.761 99.7986 105.621 99.7986 105.411 99.8686C105.27 99.8686 105.06 99.9387 104.92 99.9387C104.29 100.079 103.729 100.289 103.168 100.569L104.92 99.5183L111.156 95.8048C111.857 95.4545 112.557 95.1742 113.398 95.1042C113.538 95.1042 113.748 95.0341 113.959 95.0341L114.519 94.964L116.971 94.7538L118.373 94.6137L127.691 93.843L130.424 93.6328L131.545 93.5627L135.749 93.2124C136.029 93.1423 136.31 93.1423 136.59 93.1423C138.201 93.0723 140.093 93.6328 142.125 94.7538C144.227 95.945 146.119 97.6966 147.87 99.7285L147.94 99.7986C148.151 100.079 148.361 100.289 148.571 100.569L153.055 106.245L159.501 114.372L161.043 116.404L162.935 118.786L165.597 122.22L168.89 126.353C169.801 127.334 170.642 128.455 171.413 129.577C171.413 129.647 171.483 129.647 171.483 129.717C171.833 130.277 172.183 130.768 172.463 131.328C174.145 134.271 175.336 137.564 175.757 140.647C175.897 141.558 175.967 142.328 175.967 143.099Z" fill="#F1F2F2" stroke="#231F20" stroke-width="0.201439" stroke-miterlimit="10" stroke-linecap="round" stroke-linejoin="round"/>
    </g>
    <defs>
        <linearGradient id="paint0_linear_1_19911" x1="146.15" y1="92.3076" x2="152.234" y2="102.936" gradientUnits="userSpaceOnUse">
            <stop stop-color="#59595C"/>
            <stop offset="0.3636" stop-color="#221F1F"/>
            <stop offset="0.6738" stop-color="#808184"/>
            <stop offset="1" stop-color="#424143"/>
        </linearGradient>
        <linearGradient id="paint1_linear_1_19911" x1="170.865" y1="129.289" x2="180.435" y2="146.807" gradientUnits="userSpaceOnUse">
            <stop stop-color="#C2B59B"/>
            <stop offset="1" stop-color="#49443A"/>
        </linearGradient>
        <linearGradient id="paint2_linear_1_19911" x1="199.67" y1="154.857" x2="199.526" y2="155.127" gradientUnits="userSpaceOnUse">
            <stop stop-color="#58595B"/>
            <stop offset="1"/>
        </linearGradient>
        <linearGradient id="paint3_linear_1_19911" x1="181.403" y1="161.542" x2="178.662" y2="111.173" gradientUnits="userSpaceOnUse">
            <stop/>
            <stop offset="1" stop-color="#58595B"/>
        </linearGradient>
        <linearGradient id="paint4_linear_1_19911" x1="110.879" y1="95.7664" x2="120.448" y2="113.284" gradientUnits="userSpaceOnUse">
            <stop stop-color="#C2B59B"/>
            <stop offset="1" stop-color="#49443A"/>
        </linearGradient>
        <linearGradient id="paint5_linear_1_19911" x1="139.683" y1="121.334" x2="139.539" y2="121.604" gradientUnits="userSpaceOnUse">
            <stop stop-color="#58595B"/>
            <stop offset="1"/>
        </linearGradient>
        <linearGradient id="paint6_linear_1_19911" x1="121.417" y1="128.019" x2="118.676" y2="77.6501" gradientUnits="userSpaceOnUse">
            <stop/>
            <stop offset="1" stop-color="#58595B"/>
        </linearGradient>
        <clipPath id="">
            <rect width="112.526" height="90.3848" fill="white" transform="translate(90.2764 76.2566)"/>
        </clipPath>
    </defs>
</svg>
