<svg width="230" height="230" viewBox="0 0 230 230" fill="none"
    xmlns="http://www.w3.org/2000/svg">
    <g clip-path="url(#)">
        <path d="M194.884 150.246C194.884 155.431 193.133 159.144 190.33 160.966L189.629 161.386L174.005 170.495C176.807 168.743 178.559 165.24 178.699 160.335C178.699 160.265 178.699 160.195 178.699 160.125C178.699 159.985 178.699 159.845 178.699 159.635C178.699 158.864 178.629 158.093 178.559 157.323C177.648 147.513 171.132 136.513 163.004 131.118C163.004 131.118 163.004 131.118 162.934 131.118L160.832 129.927L159.431 129.086L132.736 113.461L109.334 99.7986L108.423 99.2381C108.213 99.0979 108.003 99.0279 107.793 98.8877C107.652 98.8177 107.512 98.7476 107.372 98.6775C103.659 96.7858 100.225 96.5055 97.563 97.5565L112.487 88.7983L112.697 88.6581C115.78 86.8364 119.984 87.1167 124.678 89.8493L177.088 120.608L179.19 121.799C179.19 121.799 179.19 121.799 179.26 121.799C187.948 127.545 194.884 139.946 194.884 150.246Z" fill="#414042" stroke="#231F20" stroke-width="0.201439" stroke-miterlimit="10" stroke-linecap="round" stroke-linejoin="round"/>
        <path d="M160.762 139.106L160.902 139.036L161.042 139.316C160.972 139.176 160.832 139.176 160.762 139.106Z" fill="#F1F2F2" stroke="#231F20" stroke-width="0.0802954" stroke-miterlimit="10" stroke-linecap="round" stroke-linejoin="round"/>
        <path d="M178.629 160.195C178.629 160.265 178.629 160.335 178.629 160.406C178.559 160.406 178.489 160.335 178.489 160.335L178.629 160.195Z" fill="#F1F2F2" stroke="#231F20" stroke-width="0.0802954" stroke-miterlimit="10" stroke-linecap="round" stroke-linejoin="round"/>
        <path d="M178.629 159.705C178.629 158.934 178.559 158.164 178.489 157.393C177.578 147.584 171.062 136.583 162.934 131.188C162.934 131.188 162.934 131.188 162.864 131.188L160.762 129.997L159.361 129.156L132.736 113.462L109.334 99.7987L108.423 99.2382C108.213 99.0981 108.003 99.028 107.792 98.8879C107.652 98.8178 107.512 98.7477 107.372 98.6777C103.658 96.7859 100.225 96.5056 97.5628 97.5566L95.3207 98.8879C92.9384 100.78 91.5371 104.283 91.5371 108.977C91.5371 119.347 98.5437 131.889 107.442 137.634L108.493 138.265L109.264 138.755L159.641 168.183C160.342 168.673 161.042 169.164 161.743 169.584C166.507 172.317 170.852 172.527 173.934 170.635C176.737 168.884 178.489 165.38 178.629 160.476C178.559 160.476 178.489 160.406 178.489 160.406L178.629 160.336C178.629 160.055 178.629 159.915 178.629 159.705ZM175.546 158.444C175.546 158.584 175.546 158.654 175.546 158.794C175.476 160.055 175.336 161.176 175.126 162.227C174.495 164.82 173.164 166.712 171.412 167.763C168.68 169.444 164.896 169.304 160.622 166.852C159.991 166.501 159.361 166.081 158.73 165.661L110.245 137.354L109.544 136.934L108.633 136.373C100.786 131.328 94.62 120.258 94.62 111.009C94.62 106.875 95.8812 103.792 97.9832 102.041C98.5437 101.55 99.2443 101.13 99.945 100.85C101.206 100.359 102.608 100.219 104.149 100.429C105.34 100.569 106.601 100.92 107.862 101.55C108.213 101.69 108.563 101.901 108.983 102.111C109.124 102.181 109.334 102.251 109.474 102.391C109.474 102.391 109.544 102.391 109.544 102.461L133.366 116.404L157.259 130.417L159.851 131.959L161.673 133.01C168.82 137.704 174.565 147.373 175.406 155.991C175.476 156.762 175.546 157.533 175.546 158.234C175.546 158.304 175.546 158.374 175.546 158.444Z" fill="#231F20" stroke="#231F20" stroke-width="0.201439" stroke-miterlimit="10" stroke-linecap="round" stroke-linejoin="round"/>
        <path d="M97.5624 97.4863L95.3203 98.8176C96.021 98.2571 96.7216 97.8367 97.5624 97.4863Z" fill="#F1F2F2" stroke="#231F20" stroke-width="0.0802954" stroke-miterlimit="10" stroke-linecap="round" stroke-linejoin="round"/>
        <path d="M109.264 108.557C109.194 108.487 109.053 108.417 108.983 108.347H109.053L109.124 108.277L109.264 108.557Z" fill="#F1F2F2" stroke="#231F20" stroke-width="0.0802954" stroke-miterlimit="10" stroke-linecap="round" stroke-linejoin="round"/>
        <path d="M160.762 139.106L160.902 139.036L161.042 139.316C160.972 139.176 160.832 139.176 160.762 139.106Z" fill="#F1F2F2" stroke="#231F20" stroke-width="0.0802954" stroke-miterlimit="10" stroke-linecap="round" stroke-linejoin="round"/>
        <path d="M178.629 160.195C178.629 160.265 178.629 160.335 178.629 160.406C178.559 160.406 178.489 160.335 178.489 160.335L178.629 160.195Z" fill="#F1F2F2" stroke="#231F20" stroke-width="0.0802954" stroke-miterlimit="10" stroke-linecap="round" stroke-linejoin="round"/>
        <path d="M175.126 162.227C174.495 164.82 173.164 166.711 171.412 167.762C168.68 169.444 164.896 169.304 160.622 166.852C159.991 166.501 159.361 166.081 158.73 165.66L110.245 137.354L109.544 136.933L108.633 136.373C100.786 131.328 94.6201 120.258 94.6201 111.009C94.6201 106.875 95.8813 103.792 97.9833 102.041C98.5438 101.55 99.2445 101.13 99.9451 100.85C101.206 100.359 102.608 100.219 104.149 100.429L99.805 102.952L99.6649 103.022C97.2826 104.423 95.8813 107.366 95.8813 111.43C95.8813 119.697 101.627 129.717 108.773 133.78C112.347 135.882 115.64 136.023 117.952 134.621L118.022 134.551L126.36 129.717L128.532 128.455L147.73 139.666C147.59 140.437 147.52 141.207 147.52 142.048V142.118C147.52 150.316 153.335 160.335 160.412 164.469C163.985 166.571 167.278 166.711 169.59 165.31L169.661 165.24L175.126 162.227Z" fill="#58595B" stroke="#231F20" stroke-width="0.0802954" stroke-miterlimit="10" stroke-linecap="round" stroke-linejoin="round"/>
        <path d="M109.264 108.557C109.194 108.487 109.053 108.417 108.983 108.347H109.053L109.124 108.277L109.264 108.557Z" fill="#F1F2F2" stroke="#231F20" stroke-width="0.0802954" stroke-miterlimit="10" stroke-linecap="round" stroke-linejoin="round"/>
        <path d="M160.762 139.106L160.902 139.036L161.042 139.316C160.972 139.176 160.832 139.176 160.762 139.106Z" fill="#F1F2F2" stroke="#231F20" stroke-width="0.0802954" stroke-miterlimit="10" stroke-linecap="round" stroke-linejoin="round"/>
        <path d="M160.762 139.106L160.902 139.036L161.042 139.316C160.972 139.176 160.832 139.176 160.762 139.106Z" fill="#F1F2F2" stroke="#231F20" stroke-width="0.0802954" stroke-miterlimit="10" stroke-linecap="round" stroke-linejoin="round"/>
        <path d="M179.189 121.729L177.087 120.538C177.368 120.678 177.718 120.888 177.998 121.029C178.419 121.239 178.769 121.449 179.189 121.729Z" fill="#F1F2F2" stroke="#231F20" stroke-width="0.0802954" stroke-miterlimit="10" stroke-linecap="round" stroke-linejoin="round"/>
        <path d="M121.666 125.443C121.666 125.373 121.666 125.232 121.666 125.162C121.666 125.092 121.666 125.022 121.666 124.952C121.666 124.742 121.595 124.462 121.595 124.252V124.181C121.595 124.181 121.595 124.181 121.595 124.111C121.595 124.041 121.595 123.971 121.595 123.901C121.595 123.761 121.525 123.621 121.525 123.481C121.525 123.341 121.455 123.201 121.455 123.06C121.455 122.99 121.455 122.85 121.385 122.78C121.385 122.71 121.385 122.57 121.315 122.5C121.315 122.36 121.245 122.29 121.245 122.15C121.245 122.009 121.175 121.939 121.175 121.799C121.175 121.729 121.105 121.589 121.105 121.519C121.105 121.379 121.035 121.239 121.035 121.099C121.035 120.958 120.965 120.888 120.965 120.748C120.895 120.538 120.825 120.328 120.825 120.118C120.755 119.837 120.685 119.557 120.544 119.347C120.474 119.137 120.404 118.857 120.334 118.646C120.264 118.366 120.124 118.086 120.054 117.806C119.984 117.665 119.984 117.595 119.914 117.455C119.914 117.385 119.844 117.315 119.844 117.245C119.774 117.105 119.774 117.035 119.704 116.895C119.634 116.755 119.634 116.684 119.564 116.544C119.494 116.334 119.423 116.124 119.283 115.984C119.283 115.914 119.213 115.844 119.213 115.774C119.213 115.774 119.213 115.774 119.213 115.704C119.143 115.493 119.003 115.353 118.933 115.143C118.793 114.933 118.723 114.723 118.583 114.442C118.443 114.232 118.372 114.022 118.232 113.742C118.162 113.602 118.092 113.532 118.022 113.391C117.882 113.181 117.742 112.971 117.602 112.761C117.532 112.621 117.462 112.551 117.392 112.41C117.041 111.85 116.621 111.289 116.27 110.729C116.2 110.659 116.13 110.519 116.06 110.449C115.85 110.168 115.71 109.958 115.5 109.748C115.43 109.678 115.36 109.608 115.29 109.538C115.079 109.257 114.869 109.047 114.659 108.767C114.589 108.697 114.519 108.627 114.449 108.557C114.379 108.487 114.309 108.417 114.239 108.347C114.098 108.207 114.028 108.066 113.888 107.996C113.748 107.856 113.608 107.716 113.468 107.576C113.398 107.506 113.398 107.506 113.328 107.436C113.258 107.366 113.258 107.366 113.188 107.296C113.118 107.226 113.047 107.156 112.977 107.085C112.907 107.015 112.837 106.945 112.837 106.945C112.767 106.875 112.697 106.805 112.627 106.735C112.627 106.735 112.627 106.735 112.557 106.735C112.417 106.595 112.277 106.525 112.137 106.385C112.067 106.315 111.926 106.245 111.856 106.175C111.786 106.105 111.716 106.034 111.576 105.964C111.506 105.894 111.366 105.824 111.296 105.754C111.226 105.684 111.086 105.614 111.016 105.544C110.665 105.264 110.245 104.983 109.894 104.773C109.614 104.633 109.404 104.423 109.124 104.283C109.054 104.213 108.984 104.213 108.914 104.143C108.773 104.073 108.703 104.003 108.563 103.932C108.423 103.862 108.353 103.792 108.213 103.722C108.143 103.652 108.003 103.652 107.933 103.582C104.85 102.041 102.047 101.971 99.9452 103.092L99.805 103.162C97.2827 104.423 95.8813 107.366 95.8813 111.43C95.8813 119.697 101.627 129.717 108.773 133.781C112.347 135.882 115.64 136.023 117.952 134.621L118.022 134.551C120.054 133.29 121.385 130.838 121.595 127.405C121.595 127.264 121.595 127.124 121.595 126.984V126.914C121.595 126.844 121.595 126.844 121.595 126.774C121.595 126.634 121.595 126.494 121.595 126.354C121.736 126.073 121.736 125.793 121.666 125.443ZM117.952 125.022C117.882 126.143 117.672 127.054 117.321 127.825C116.901 128.806 116.2 129.577 115.43 130.067L115.36 130.137C113.678 131.118 111.366 130.978 108.773 129.506C103.729 126.564 99.5948 119.417 99.5948 113.602C99.5948 110.659 100.646 108.627 102.257 107.646L102.397 107.576C103.168 107.156 104.009 107.015 104.99 107.015C105.971 107.085 107.022 107.366 108.143 107.926C108.353 108.066 108.633 108.136 108.844 108.277C108.914 108.347 108.984 108.347 109.054 108.417H109.124L109.194 108.347L109.334 108.627C109.334 108.627 109.334 108.627 109.404 108.627C109.474 108.697 109.614 108.767 109.684 108.837C109.754 108.907 109.824 108.977 109.894 108.977C110.105 109.117 110.385 109.328 110.595 109.468C110.665 109.538 110.805 109.608 110.875 109.678C110.945 109.678 110.945 109.748 111.016 109.748C111.086 109.818 111.156 109.818 111.156 109.888C111.296 109.958 111.366 110.098 111.506 110.238C111.576 110.308 111.646 110.379 111.786 110.449C111.856 110.519 111.926 110.589 111.996 110.659L112.067 110.729C112.277 110.939 112.417 111.079 112.627 111.289C112.697 111.43 112.837 111.5 112.907 111.64C112.977 111.71 113.047 111.78 113.047 111.85C113.258 112.06 113.468 112.34 113.678 112.621C113.748 112.691 113.748 112.761 113.818 112.761C113.888 112.831 113.958 112.901 113.958 112.971C114.028 113.041 114.028 113.111 114.098 113.181C114.309 113.461 114.519 113.742 114.659 114.022C114.799 114.162 114.869 114.372 114.939 114.512C115.219 115.003 115.5 115.423 115.71 115.914C115.78 116.054 115.85 116.194 115.92 116.334C115.99 116.474 116.06 116.614 116.13 116.755C116.27 117.035 116.411 117.315 116.481 117.595C116.481 117.595 116.481 117.665 116.551 117.665V117.735C116.551 117.806 116.621 117.876 116.621 117.946V118.016C116.621 118.086 116.691 118.086 116.691 118.156C116.831 118.436 116.901 118.716 116.971 118.997C117.041 119.137 117.041 119.207 117.111 119.347C117.181 119.557 117.251 119.837 117.321 120.048C117.321 120.118 117.392 120.258 117.392 120.328C117.462 120.608 117.532 120.888 117.602 121.239C117.602 121.239 117.602 121.309 117.602 121.379C117.602 121.449 117.602 121.519 117.672 121.589C117.672 121.659 117.672 121.799 117.742 121.869C117.742 122.009 117.812 122.08 117.812 122.22C117.812 122.29 117.812 122.43 117.882 122.5C117.882 122.57 117.882 122.71 117.882 122.78C117.882 122.85 117.882 122.92 117.882 122.99C117.882 122.99 117.882 122.99 117.882 123.06C117.882 123.131 117.882 123.201 117.882 123.271C117.882 123.341 117.882 123.411 117.882 123.481C117.882 123.691 117.882 123.971 117.882 124.181C117.952 124.462 117.952 124.742 117.952 125.022Z" fill="#231F20" stroke="#231F20" stroke-width="0.201439" stroke-miterlimit="10" stroke-linecap="round" stroke-linejoin="round"/>
        <path d="M109.264 108.557C109.194 108.487 109.053 108.417 108.983 108.347H109.053L109.124 108.277L109.264 108.557Z" fill="#F1F2F2" stroke="#231F20" stroke-width="0.0802954" stroke-miterlimit="10" stroke-linecap="round" stroke-linejoin="round"/>
        <path d="M117.321 127.825C116.901 128.806 116.2 129.576 115.43 130.067L115.36 130.137C113.678 131.118 111.366 130.978 108.773 129.506C103.729 126.564 99.5947 119.417 99.5947 113.601C99.5947 110.659 100.646 108.627 102.257 107.646L102.397 107.576C103.168 107.155 104.009 107.015 104.99 107.015C104.569 107.996 104.289 109.187 104.289 110.659C104.289 110.799 104.289 111.009 104.289 111.149C103.518 111.92 103.098 113.111 103.098 114.652C103.098 118.646 105.901 123.411 109.334 125.443C110.665 126.213 111.856 126.423 112.907 126.213C113.117 126.353 113.328 126.494 113.538 126.564C114.869 127.404 116.13 127.755 117.321 127.825Z" fill="#49443A" stroke="#231F20" stroke-width="0.0802954" stroke-miterlimit="10" stroke-linecap="round" stroke-linejoin="round"/>
        <path d="M108.983 108.417L104.99 110.659L104.92 110.729C104.709 110.869 104.499 111.009 104.289 111.219C104.289 111.079 104.289 110.869 104.289 110.729C104.289 109.328 104.499 108.066 104.99 107.085C105.971 107.156 107.022 107.436 108.143 107.996C108.353 108.136 108.633 108.207 108.843 108.347C108.843 108.347 108.913 108.347 108.983 108.417Z" fill="#6E6657" stroke="#231F20" stroke-width="0.0802954" stroke-miterlimit="10" stroke-linecap="round" stroke-linejoin="round"/>
        <path d="M117.952 124.181C117.952 124.462 117.952 124.742 117.952 124.952C117.882 126.073 117.671 126.984 117.321 127.755C116.13 127.685 114.869 127.264 113.468 126.494C113.257 126.354 113.047 126.283 112.837 126.143C113.187 126.073 113.468 125.933 113.748 125.793H113.818L117.742 123.621L117.952 123.481C117.952 123.761 117.952 123.971 117.952 124.181Z" fill="#6E6657" stroke="#231F20" stroke-width="0.0802954" stroke-miterlimit="10" stroke-linecap="round" stroke-linejoin="round"/>
        <path d="M109.264 108.557C109.194 108.487 109.053 108.417 108.983 108.347H109.053L109.124 108.277L109.264 108.557Z" fill="#F1F2F2" stroke="#231F20" stroke-width="0.0802954" stroke-miterlimit="10" stroke-linecap="round" stroke-linejoin="round"/>
        <path d="M109.264 108.557C109.194 108.487 109.053 108.417 108.983 108.347C108.983 108.347 109.053 108.347 109.053 108.276L109.124 108.206L109.264 108.557Z" fill="#F1F2F2" stroke="#231F20" stroke-width="0.0802954" stroke-miterlimit="10" stroke-linecap="round" stroke-linejoin="round"/>
        <path d="M115.57 121.869C115.57 122.08 115.57 122.22 115.57 122.43C115.57 122.99 115.429 123.481 115.289 123.901C115.009 124.812 114.519 125.443 113.818 125.863H113.748C113.468 126.003 113.187 126.143 112.837 126.213C111.856 126.424 110.595 126.213 109.264 125.443C105.83 123.481 103.028 118.646 103.028 114.653C103.028 113.111 103.448 111.92 104.219 111.149C104.429 110.939 104.639 110.799 104.85 110.659L104.92 110.589C105.62 110.238 106.461 110.098 107.442 110.308C107.862 110.379 108.283 110.589 108.773 110.799C108.913 110.869 109.053 110.939 109.264 111.079C109.474 111.219 109.614 111.289 109.824 111.43C109.894 111.5 109.964 111.5 110.034 111.57C110.245 111.71 110.385 111.85 110.595 111.99C110.735 112.13 110.875 112.2 111.015 112.34C111.085 112.41 111.155 112.41 111.155 112.481C111.155 112.481 111.155 112.481 111.226 112.551C111.296 112.621 111.366 112.691 111.436 112.761C111.506 112.831 111.646 112.971 111.716 113.041C111.856 113.181 111.926 113.321 112.066 113.461C113.257 114.793 114.168 116.474 114.799 118.156C114.799 118.226 114.869 118.296 114.869 118.366C114.869 118.436 114.869 118.436 114.939 118.506C115.009 118.716 115.079 118.927 115.149 119.137C115.149 119.207 115.219 119.277 115.219 119.347C115.289 119.487 115.289 119.697 115.359 119.837V119.907C115.359 119.978 115.359 119.978 115.359 120.048C115.359 120.188 115.429 120.328 115.429 120.468C115.429 120.608 115.429 120.748 115.5 120.818V120.888C115.5 121.029 115.5 121.169 115.5 121.239C115.57 121.589 115.57 121.729 115.57 121.869Z" fill="#6E6657" stroke="#231F20" stroke-width="0.0802954" stroke-miterlimit="10" stroke-linecap="round" stroke-linejoin="round"/>
        <path d="M133.646 119.487C133.646 123.971 131.895 126.984 129.232 128.175L128.602 128.526L126.43 129.787L118.092 134.621C120.124 133.36 121.455 130.908 121.665 127.475C121.665 127.334 121.665 127.194 121.665 127.054V126.984C121.665 126.914 121.665 126.914 121.665 126.844C121.665 126.704 121.665 126.564 121.665 126.424C121.665 126.143 121.665 125.863 121.665 125.513C121.665 125.443 121.665 125.303 121.665 125.232C121.665 125.162 121.665 125.092 121.665 125.022C121.665 124.812 121.595 124.532 121.595 124.322V124.252C121.595 124.252 121.595 124.252 121.595 124.182C121.595 124.111 121.595 124.041 121.595 123.971C121.595 123.831 121.525 123.691 121.525 123.551C121.525 123.411 121.455 123.271 121.455 123.131C121.455 123.06 121.455 122.92 121.385 122.85C121.385 122.78 121.385 122.64 121.315 122.57C121.315 122.43 121.245 122.36 121.245 122.22C121.245 122.08 121.175 122.009 121.175 121.869C121.175 121.799 121.105 121.659 121.105 121.589C121.105 121.449 121.035 121.309 121.035 121.169C121.035 121.029 120.965 120.958 120.965 120.818C120.894 120.608 120.824 120.398 120.824 120.188C120.754 119.907 120.684 119.627 120.544 119.417C120.474 119.207 120.404 118.927 120.334 118.716C120.264 118.436 120.124 118.156 120.054 117.876C119.984 117.735 119.984 117.665 119.914 117.525C119.914 117.455 119.844 117.385 119.844 117.315C119.773 117.175 119.773 117.105 119.703 116.965C119.633 116.825 119.633 116.755 119.563 116.614C119.493 116.404 119.423 116.194 119.283 116.054C119.283 115.984 119.213 115.914 119.213 115.844C119.213 115.844 119.213 115.844 119.213 115.774C119.143 115.563 119.003 115.423 118.933 115.213C118.793 115.003 118.722 114.793 118.582 114.512C118.442 114.302 118.372 114.092 118.232 113.812C118.162 113.672 118.092 113.602 118.022 113.461C117.882 113.251 117.742 113.041 117.601 112.831C117.531 112.691 117.461 112.621 117.391 112.481C117.041 111.92 116.62 111.359 116.27 110.799C116.2 110.729 116.13 110.589 116.06 110.519C115.85 110.238 115.71 110.028 115.499 109.818C115.429 109.748 115.359 109.678 115.289 109.608C115.079 109.328 114.869 109.117 114.659 108.837C114.589 108.767 114.519 108.697 114.448 108.627C114.378 108.557 114.308 108.487 114.238 108.417C114.098 108.277 114.028 108.136 113.888 108.066C113.748 107.926 113.608 107.786 113.468 107.646C113.397 107.576 113.397 107.576 113.327 107.506C113.257 107.436 113.257 107.436 113.187 107.366C113.117 107.296 113.047 107.226 112.977 107.156C112.907 107.085 112.837 107.015 112.837 107.015C112.767 106.945 112.697 106.875 112.627 106.805C112.627 106.805 112.627 106.805 112.557 106.805C112.417 106.665 112.276 106.595 112.136 106.455C112.066 106.385 111.926 106.315 111.856 106.245C111.786 106.175 111.716 106.105 111.576 106.034C111.506 105.964 111.366 105.894 111.295 105.824C111.225 105.754 111.085 105.684 111.015 105.614C110.665 105.334 110.244 105.054 109.894 104.843C109.614 104.703 109.404 104.493 109.123 104.353C109.053 104.283 108.983 104.283 108.913 104.213C108.773 104.143 108.703 104.073 108.563 104.003C108.423 103.932 108.353 103.862 108.213 103.792C108.143 103.722 108.002 103.722 107.932 103.652C104.849 102.111 102.047 102.041 99.9448 103.162L104.289 100.639C105.48 100.78 106.741 101.13 108.002 101.76C108.353 101.901 108.703 102.111 109.123 102.321C109.264 102.391 109.474 102.461 109.614 102.601C109.614 102.601 109.684 102.601 109.684 102.671L133.506 116.614C133.506 117.455 133.646 118.506 133.646 119.487Z" fill="url(#paint0_linear_1_19911)" stroke="#231F20" stroke-width="0.201439" stroke-miterlimit="10" stroke-linecap="round" stroke-linejoin="round"/>
        <path d="M117.952 123.481C117.952 123.551 117.952 123.551 117.952 123.481L117.671 123.621L113.748 125.793C114.378 125.373 114.869 124.742 115.219 123.831C115.359 123.411 115.429 122.92 115.499 122.36C115.499 122.22 115.499 122.009 115.499 121.799C115.499 121.659 115.499 121.519 115.499 121.449C115.499 121.309 115.499 121.169 115.499 121.099V121.028C115.499 120.888 115.499 120.748 115.429 120.678C115.429 120.538 115.359 120.398 115.359 120.258C115.359 120.188 115.359 120.188 115.359 120.118V120.048C115.359 119.907 115.289 119.697 115.219 119.557C115.219 119.487 115.149 119.417 115.149 119.347C115.079 119.137 115.009 118.926 114.939 118.716C114.939 118.646 114.939 118.646 114.869 118.576C114.869 118.506 114.799 118.436 114.799 118.366C114.168 116.684 113.257 115.003 112.066 113.672C111.926 113.531 111.856 113.391 111.716 113.251C111.646 113.181 111.506 113.041 111.436 112.971C111.365 112.901 111.295 112.831 111.225 112.761C111.225 112.761 111.225 112.761 111.155 112.691C111.085 112.621 111.015 112.551 111.015 112.551C110.875 112.41 110.735 112.34 110.595 112.2C110.385 112.06 110.244 111.92 110.034 111.78C109.964 111.71 109.894 111.71 109.824 111.64C109.614 111.5 109.474 111.429 109.264 111.289C109.123 111.219 108.913 111.149 108.773 111.009C108.353 110.799 107.862 110.659 107.442 110.519C106.461 110.308 105.62 110.378 104.919 110.799L108.913 108.557C108.983 108.627 109.123 108.697 109.193 108.767C109.193 108.767 109.193 108.767 109.264 108.767C109.334 108.837 109.474 108.907 109.544 108.977C109.614 109.047 109.684 109.117 109.754 109.117C109.964 109.257 110.244 109.468 110.455 109.608C110.525 109.678 110.665 109.748 110.735 109.818C110.805 109.818 110.805 109.888 110.875 109.888C110.945 109.958 111.015 109.958 111.015 110.028C111.155 110.098 111.225 110.238 111.365 110.378C111.436 110.449 111.506 110.519 111.646 110.589C111.716 110.659 111.786 110.729 111.856 110.799L111.926 110.869C112.136 111.079 112.276 111.219 112.487 111.429C112.557 111.57 112.697 111.64 112.767 111.78C112.837 111.85 112.907 111.92 112.907 111.99C113.117 112.2 113.327 112.48 113.538 112.761C113.608 112.831 113.608 112.901 113.678 112.901C113.748 112.971 113.818 113.041 113.818 113.111C113.888 113.181 113.888 113.251 113.958 113.321C114.168 113.601 114.378 113.882 114.518 114.162C114.589 114.302 114.729 114.512 114.799 114.652C115.079 115.143 115.359 115.563 115.569 116.054C115.639 116.194 115.71 116.334 115.78 116.474C115.85 116.614 115.92 116.754 115.99 116.895C116.13 117.175 116.27 117.455 116.34 117.735C116.34 117.735 116.34 117.805 116.41 117.805V117.876C116.41 117.946 116.48 118.016 116.48 118.086V118.156C116.48 118.226 116.55 118.226 116.55 118.296C116.69 118.576 116.761 118.856 116.831 119.137C116.901 119.277 116.901 119.347 116.971 119.487C117.041 119.697 117.111 119.977 117.181 120.188C117.181 120.258 117.251 120.398 117.251 120.468C117.321 120.748 117.391 121.028 117.461 121.379C117.461 121.379 117.461 121.449 117.461 121.519C117.461 121.589 117.461 121.659 117.531 121.729C117.531 121.799 117.531 121.939 117.601 122.009C117.601 122.15 117.671 122.22 117.671 122.36C117.671 122.43 117.671 122.57 117.741 122.64C117.741 122.71 117.741 122.85 117.741 122.92C117.741 122.99 117.741 123.06 117.741 123.13C117.741 123.13 117.741 123.13 117.741 123.201C117.741 123.271 117.741 123.341 117.741 123.411C117.952 123.341 117.952 123.411 117.952 123.481Z" fill="#49443A" stroke="#231F20" stroke-width="0.0802954" stroke-miterlimit="10" stroke-linecap="round" stroke-linejoin="round"/>
        <path d="M173.444 156.131C173.444 155.641 173.374 155.15 173.304 154.59C173.304 154.45 173.304 154.31 173.234 154.24C173.234 154.099 173.164 153.959 173.164 153.889C173.164 153.749 173.094 153.609 173.094 153.539C173.094 153.399 173.023 153.259 173.023 153.189C173.023 153.049 172.953 152.908 172.953 152.768C172.953 152.628 172.883 152.488 172.883 152.418C172.813 152.138 172.743 151.927 172.673 151.647C172.673 151.507 172.603 151.367 172.603 151.227C172.603 151.087 172.533 150.947 172.463 150.806C172.393 150.666 172.393 150.526 172.323 150.386C172.253 150.246 172.253 150.106 172.183 149.966C172.113 149.825 172.113 149.685 172.043 149.615C171.972 149.475 171.972 149.335 171.902 149.195C171.832 148.985 171.692 148.704 171.622 148.494C171.552 148.214 171.412 148.004 171.342 147.724C171.342 147.653 171.272 147.583 171.272 147.513C171.272 147.443 171.202 147.373 171.202 147.303C171.132 147.233 171.132 147.093 171.062 147.023C170.992 146.883 170.922 146.743 170.922 146.673C170.851 146.532 170.851 146.462 170.781 146.322C170.781 146.252 170.711 146.182 170.711 146.112C170.711 146.042 170.641 145.972 170.641 145.902C170.571 145.762 170.501 145.622 170.431 145.551C170.291 145.271 170.151 144.991 169.941 144.711C169.941 144.711 169.941 144.711 169.941 144.641C169.941 144.641 169.941 144.641 169.941 144.571C169.871 144.5 169.871 144.43 169.8 144.36C169.73 144.22 169.66 144.08 169.52 143.94C169.45 143.8 169.38 143.66 169.24 143.52C169.17 143.379 169.1 143.239 168.96 143.099C168.89 142.959 168.749 142.819 168.679 142.679C168.679 142.609 168.609 142.609 168.609 142.539C168.609 142.539 168.609 142.539 168.609 142.469C168.539 142.399 168.539 142.328 168.469 142.258C168.399 142.188 168.329 142.118 168.259 141.978C168.259 141.908 168.189 141.908 168.189 141.838C168.119 141.698 167.979 141.558 167.909 141.418C167.769 141.277 167.698 141.137 167.558 140.997L167.488 140.927C167.418 140.857 167.348 140.787 167.348 140.717C167.278 140.647 167.208 140.577 167.208 140.507C166.928 140.226 166.718 139.876 166.437 139.596C166.367 139.456 166.227 139.386 166.157 139.246C166.017 139.035 165.807 138.895 165.667 138.755C165.526 138.615 165.316 138.405 165.176 138.265C165.106 138.195 165.106 138.195 165.036 138.125C164.966 138.054 164.966 138.054 164.896 137.984C164.756 137.914 164.686 137.774 164.546 137.704C164.475 137.634 164.335 137.494 164.265 137.424C164.195 137.354 164.055 137.214 163.985 137.144C163.915 137.074 163.845 137.003 163.775 136.933C163.705 136.863 163.635 136.793 163.565 136.723C163.495 136.653 163.424 136.583 163.354 136.513C163.284 136.443 163.214 136.373 163.144 136.303C163.074 136.233 162.934 136.163 162.864 136.093C162.794 136.023 162.654 135.952 162.584 135.882C162.514 135.812 162.373 135.742 162.303 135.672C162.093 135.532 161.883 135.392 161.673 135.252C161.603 135.182 161.463 135.112 161.393 135.042C161.252 134.972 161.182 134.901 161.042 134.831C160.972 134.761 160.902 134.761 160.832 134.691C160.482 134.481 160.201 134.341 159.851 134.201C156.768 132.659 153.966 132.589 151.864 133.71L151.723 133.78C149.902 134.831 148.571 136.933 148.15 139.736C148.01 140.507 147.94 141.277 147.94 142.118V142.188C147.94 150.386 153.755 160.405 160.832 164.539C164.405 166.641 167.698 166.781 170.011 165.38L170.081 165.31C172.113 164.049 173.444 161.597 173.654 158.163C173.654 157.953 173.654 157.813 173.654 157.603C173.654 157.463 173.654 157.393 173.654 157.252C173.654 157.182 173.654 157.112 173.654 157.042C173.444 156.762 173.444 156.412 173.444 156.131ZM169.73 155.08C169.73 155.291 169.73 155.501 169.73 155.711C169.66 156.832 169.45 157.743 169.1 158.514C168.679 159.495 167.979 160.265 167.208 160.756L167.138 160.826C165.456 161.807 163.144 161.667 160.552 160.195C160.342 160.055 160.061 159.915 159.851 159.775C159.711 159.705 159.571 159.565 159.361 159.424C159.221 159.284 159.08 159.214 158.94 159.074C158.8 158.934 158.66 158.864 158.52 158.724C158.45 158.654 158.38 158.584 158.31 158.514C158.17 158.374 158.029 158.233 157.889 158.163C157.749 158.023 157.609 157.883 157.469 157.743C157.399 157.673 157.329 157.603 157.259 157.533C157.119 157.393 157.048 157.323 156.908 157.182C156.838 157.042 156.698 156.972 156.628 156.832C156.558 156.762 156.488 156.692 156.418 156.622C156.348 156.482 156.208 156.412 156.138 156.272C156.068 156.201 155.997 156.131 155.927 156.061C155.857 155.991 155.787 155.921 155.717 155.851C155.647 155.781 155.577 155.711 155.507 155.641C155.437 155.571 155.367 155.501 155.367 155.431C155.297 155.291 155.157 155.15 155.087 155.01C155.087 155.01 155.087 154.94 155.017 154.94C154.947 154.8 154.806 154.66 154.736 154.52C154.596 154.24 154.386 154.029 154.246 153.749C154.106 153.539 154.036 153.399 153.966 153.189C153.896 152.978 153.755 152.838 153.685 152.628C153.615 152.418 153.475 152.278 153.405 152.068C153.335 151.857 153.195 151.717 153.125 151.507C153.055 151.437 153.055 151.367 152.985 151.227C152.915 151.087 152.915 151.017 152.845 150.876C152.774 150.736 152.704 150.526 152.634 150.386C152.564 150.246 152.494 150.106 152.494 149.966C152.424 149.825 152.424 149.685 152.354 149.545C152.284 149.335 152.214 149.195 152.144 148.985V148.915C152.074 148.774 152.074 148.634 152.004 148.494C151.934 148.284 151.864 148.074 151.864 147.864C151.864 147.724 151.794 147.583 151.794 147.443C151.723 147.093 151.653 146.743 151.583 146.392C151.583 146.322 151.583 146.252 151.583 146.182C151.513 145.902 151.513 145.551 151.513 145.271C151.513 145.201 151.513 145.061 151.513 144.991C151.513 144.921 151.513 144.781 151.513 144.711C151.513 144.641 151.513 144.5 151.513 144.43V144.36C151.513 144.22 151.513 144.08 151.513 143.94C151.513 143.8 151.513 143.73 151.513 143.59C151.513 143.52 151.513 143.52 151.513 143.449C151.513 143.309 151.513 143.239 151.513 143.099C151.513 143.029 151.513 142.889 151.513 142.819C151.513 142.609 151.583 142.469 151.583 142.258C151.583 142.188 151.583 142.048 151.653 141.978C151.653 141.838 151.723 141.768 151.723 141.698C151.723 141.628 151.723 141.628 151.794 141.558C151.794 141.488 151.864 141.418 151.864 141.348C151.864 141.277 151.934 141.207 151.934 141.137C152.004 140.997 152.004 140.857 152.074 140.787C152.144 140.717 152.144 140.577 152.214 140.507C152.214 140.437 152.284 140.367 152.354 140.297C152.424 140.226 152.494 140.086 152.564 140.016C152.564 139.946 152.634 139.876 152.704 139.806C152.774 139.736 152.774 139.666 152.845 139.596C152.915 139.526 152.915 139.456 152.985 139.386L153.055 139.316C153.125 139.246 153.125 139.246 153.195 139.175C153.265 139.105 153.335 139.035 153.335 139.035C153.405 138.965 153.475 138.895 153.545 138.895L153.615 138.825L153.685 138.755C153.755 138.685 153.825 138.685 153.896 138.615C153.966 138.545 154.106 138.475 154.176 138.475L154.316 138.405C155.087 137.984 155.927 137.844 156.908 137.844C157.889 137.914 158.94 138.195 160.061 138.755C160.272 138.895 160.552 138.965 160.762 139.105C160.832 139.175 160.902 139.175 160.972 139.246H161.042L161.112 139.175L161.252 139.456C161.393 139.526 161.533 139.596 161.673 139.736C161.743 139.806 161.813 139.806 161.883 139.876C162.023 139.946 162.163 140.086 162.303 140.156C162.514 140.297 162.724 140.437 162.934 140.647C163.004 140.717 163.074 140.717 163.144 140.787C163.495 141.067 163.845 141.418 164.195 141.768C164.265 141.838 164.335 141.908 164.405 141.978C164.475 142.048 164.616 142.188 164.686 142.328C164.756 142.399 164.896 142.539 164.966 142.609C165.036 142.679 165.106 142.749 165.176 142.819C165.246 142.889 165.316 143.029 165.456 143.099C165.526 143.239 165.667 143.379 165.737 143.449C165.807 143.52 165.807 143.59 165.877 143.66C166.017 143.8 166.087 143.94 166.227 144.08C166.858 144.921 167.418 145.832 167.909 146.813C167.979 147.023 168.119 147.163 168.189 147.373C168.189 147.443 168.259 147.443 168.259 147.513C168.259 147.583 168.329 147.653 168.329 147.653C168.399 147.794 168.399 147.864 168.469 148.004C168.539 148.144 168.539 148.214 168.609 148.354C168.679 148.424 168.679 148.564 168.749 148.634C168.82 148.915 168.96 149.125 169.03 149.405C169.1 149.475 169.1 149.615 169.17 149.755C169.24 149.896 169.31 150.106 169.31 150.246C169.38 150.596 169.52 150.876 169.59 151.227C169.59 151.367 169.66 151.437 169.66 151.577C169.73 151.787 169.8 152.068 169.8 152.278V152.348C169.8 152.418 169.871 152.558 169.871 152.628C169.871 152.698 169.871 152.768 169.871 152.838C169.871 152.908 169.871 152.978 169.871 153.049C169.871 153.119 169.871 153.119 169.871 153.189C169.871 153.259 169.871 153.399 169.941 153.469C169.941 153.609 169.941 153.749 170.011 153.889C170.011 154.029 170.011 154.24 170.011 154.38C170.011 154.59 170.011 154.87 170.011 155.08C169.73 154.94 169.73 155.01 169.73 155.08Z" fill="#231F20" stroke="#231F20" stroke-width="0.201439" stroke-miterlimit="10" stroke-linecap="round" stroke-linejoin="round"/>
        <path d="M167.278 152.558C167.278 152.768 167.278 152.908 167.278 153.119C167.278 153.329 167.278 153.469 167.208 153.609C167.138 153.959 167.068 154.24 166.998 154.59C166.718 155.501 166.227 156.132 165.526 156.552H165.456C165.176 156.692 164.896 156.832 164.546 156.902C163.565 157.112 162.303 156.902 160.972 156.132C157.819 154.31 155.227 150.176 154.806 146.462C154.736 146.112 154.736 145.762 154.736 145.411C154.736 144.921 154.806 144.431 154.876 144.01C155.087 143.099 155.437 142.399 155.927 141.908C156.138 141.698 156.348 141.558 156.558 141.418L156.628 141.348C157.329 140.997 158.17 140.857 159.15 141.067C159.571 141.137 159.991 141.348 160.482 141.558C160.622 141.628 160.762 141.698 160.972 141.838C161.953 142.399 162.934 143.239 163.775 144.22C164.966 145.552 165.877 147.233 166.507 148.915C166.788 149.615 166.928 150.386 167.068 151.087C167.208 151.577 167.278 152.068 167.278 152.558Z" fill="#6E6657" stroke="#231F20" stroke-width="0.0802954" stroke-miterlimit="10" stroke-linecap="round" stroke-linejoin="round"/>
        <path d="M169.03 158.514C168.609 159.495 167.909 160.265 167.138 160.756L167.068 160.826C165.386 161.807 163.074 161.667 160.482 160.195C160.272 160.055 159.991 159.915 159.781 159.775C159.641 159.705 159.501 159.565 159.291 159.425C159.151 159.284 159.01 159.214 158.87 159.074C158.73 158.934 158.59 158.864 158.45 158.724C158.38 158.654 158.31 158.584 158.24 158.514C158.1 158.374 157.959 158.233 157.819 158.163C157.679 158.023 157.539 157.883 157.399 157.743C157.329 157.673 157.259 157.603 157.189 157.533C157.049 157.393 156.979 157.323 156.838 157.183C156.768 157.042 156.628 156.972 156.558 156.832C156.488 156.762 156.418 156.692 156.348 156.622C156.278 156.482 156.138 156.412 156.068 156.272C155.998 156.202 155.928 156.132 155.857 156.061C155.787 155.991 155.717 155.921 155.647 155.851C155.577 155.781 155.507 155.711 155.437 155.641C155.367 155.571 155.297 155.501 155.297 155.431C155.227 155.291 155.087 155.151 155.017 155.01C155.017 155.01 155.017 154.94 154.947 154.94C154.877 154.8 154.736 154.66 154.666 154.52C154.526 154.24 154.316 154.03 154.176 153.749C154.036 153.539 153.966 153.399 153.896 153.189C153.826 152.979 153.685 152.838 153.615 152.628C153.545 152.418 153.405 152.278 153.335 152.068C153.265 151.858 153.125 151.717 153.055 151.507C152.985 151.437 152.985 151.367 152.915 151.227C152.845 151.087 152.845 151.017 152.775 150.877C152.705 150.736 152.634 150.526 152.564 150.386C152.494 150.246 152.424 150.106 152.424 149.966C152.354 149.826 152.354 149.685 152.284 149.545C152.214 149.335 152.144 149.195 152.074 148.985V148.915C152.004 148.775 152.004 148.634 151.934 148.494C151.864 148.284 151.794 148.074 151.794 147.864C151.794 147.724 151.724 147.583 151.724 147.443C151.654 147.093 151.583 146.743 151.513 146.392C151.513 146.322 151.513 146.252 151.513 146.182C151.443 145.902 151.443 145.552 151.443 145.271C151.443 145.201 151.443 145.061 151.443 144.991C151.443 144.921 151.443 144.781 151.443 144.711C151.443 144.641 151.443 144.501 151.443 144.431V144.36C151.443 144.22 151.443 144.08 151.443 143.94C151.443 143.8 151.443 143.73 151.443 143.59C151.443 143.52 151.443 143.52 151.443 143.45C151.443 143.309 151.443 143.239 151.443 143.099C151.443 143.029 151.443 142.889 151.443 142.819C151.443 142.609 151.513 142.469 151.513 142.259C151.513 142.188 151.513 142.048 151.583 141.978C151.583 141.838 151.654 141.768 151.654 141.698C151.654 141.628 151.654 141.628 151.724 141.558C151.724 141.488 151.794 141.418 151.794 141.348C151.794 141.278 151.864 141.208 151.864 141.137C151.934 140.997 151.934 140.857 152.004 140.787C152.074 140.717 152.074 140.577 152.144 140.507C152.144 140.437 152.214 140.367 152.284 140.297C152.354 140.227 152.424 140.086 152.494 140.016C152.564 139.946 152.564 139.876 152.634 139.806C152.705 139.736 152.705 139.666 152.775 139.596C152.845 139.526 152.845 139.456 152.915 139.386L152.985 139.316C153.055 139.246 153.055 139.246 153.125 139.176C153.195 139.106 153.265 139.035 153.265 139.035C153.335 138.965 153.405 138.895 153.475 138.895L153.545 138.825L153.615 138.755C153.685 138.685 153.756 138.685 153.826 138.615C153.896 138.545 154.036 138.475 154.106 138.475L154.246 138.405C155.017 137.984 155.858 137.844 156.838 137.844C156.418 138.825 156.138 140.016 156.138 141.488C156.138 141.628 156.138 141.838 156.138 141.978C155.647 142.469 155.297 143.169 155.087 144.08C155.017 144.501 154.947 144.991 154.947 145.482C154.947 145.832 154.947 146.182 155.017 146.533C155.437 150.246 158.03 154.45 161.182 156.202C162.514 156.972 163.705 157.183 164.756 156.972C164.966 157.112 165.176 157.253 165.386 157.323C166.578 158.023 167.909 158.444 169.03 158.514Z" fill="#49443A" stroke="#231F20" stroke-width="0.0802954" stroke-miterlimit="10" stroke-linecap="round" stroke-linejoin="round"/>
        <path d="M160.762 139.105L156.769 141.348L156.698 141.418C156.488 141.558 156.278 141.698 156.068 141.908C156.068 141.768 156.068 141.558 156.068 141.418C156.068 140.016 156.278 138.755 156.769 137.774C157.749 137.844 158.8 138.124 159.921 138.685C160.132 138.825 160.412 138.895 160.622 139.035C160.622 138.965 160.692 139.035 160.762 139.105Z" fill="#6E6657" stroke="#231F20" stroke-width="0.0802954" stroke-miterlimit="10" stroke-linecap="round" stroke-linejoin="round"/>
        <path d="M169.731 154.87C169.731 154.94 169.731 155.01 169.731 155.081C169.731 155.291 169.731 155.501 169.731 155.711C169.66 156.832 169.45 157.743 169.1 158.514C167.909 158.444 166.648 158.023 165.246 157.253C165.036 157.112 164.826 157.042 164.616 156.902C164.966 156.832 165.246 156.692 165.527 156.552H165.597L169.03 154.66L169.52 154.38L169.731 154.24C169.731 154.45 169.731 154.66 169.731 154.87Z" fill="#6E6657" stroke="#231F20" stroke-width="0.0802954" stroke-miterlimit="10" stroke-linecap="round" stroke-linejoin="round"/>
        <path d="M175.546 158.233C175.546 158.304 175.546 158.374 175.546 158.444C175.546 158.584 175.546 158.654 175.546 158.794C175.476 160.055 175.336 161.176 175.126 162.227L169.871 165.31C171.903 164.049 173.234 161.597 173.444 158.163C173.444 157.953 173.444 157.813 173.444 157.603C173.444 157.463 173.444 157.393 173.444 157.253C173.444 157.182 173.444 157.112 173.444 157.042C173.444 156.762 173.444 156.482 173.444 156.131C173.444 155.641 173.374 155.151 173.304 154.59C173.304 154.45 173.304 154.31 173.234 154.24C173.234 154.1 173.164 153.959 173.164 153.889C173.164 153.749 173.094 153.609 173.094 153.539C173.094 153.399 173.024 153.259 173.024 153.189C173.024 153.049 172.954 152.908 172.954 152.768C172.954 152.628 172.883 152.488 172.883 152.418C172.813 152.138 172.743 151.928 172.673 151.647C172.673 151.507 172.603 151.367 172.603 151.227C172.603 151.087 172.533 150.947 172.463 150.806C172.393 150.666 172.393 150.526 172.323 150.386C172.253 150.246 172.253 150.106 172.183 149.966C172.113 149.826 172.113 149.685 172.043 149.615C171.973 149.475 171.973 149.335 171.903 149.195C171.833 148.985 171.692 148.705 171.622 148.494C171.552 148.214 171.412 148.004 171.342 147.724C171.342 147.654 171.272 147.583 171.272 147.513C171.272 147.443 171.202 147.373 171.202 147.303C171.132 147.233 171.132 147.093 171.062 147.023C170.992 146.883 170.922 146.743 170.922 146.673C170.852 146.532 170.852 146.462 170.782 146.322C170.782 146.252 170.711 146.182 170.711 146.112C170.711 146.042 170.641 145.972 170.641 145.902C170.571 145.762 170.501 145.622 170.431 145.552C170.291 145.271 170.151 144.991 169.941 144.711C169.941 144.711 169.941 144.711 169.941 144.641C169.941 144.641 169.941 144.641 169.941 144.571C169.871 144.501 169.871 144.431 169.801 144.36C169.731 144.22 169.66 144.08 169.52 143.94C169.45 143.8 169.38 143.66 169.24 143.52C169.17 143.38 169.1 143.239 168.96 143.099C168.89 142.959 168.75 142.819 168.68 142.679C168.68 142.609 168.609 142.609 168.609 142.539C168.609 142.539 168.609 142.539 168.609 142.469C168.539 142.399 168.539 142.329 168.469 142.258C168.399 142.188 168.329 142.118 168.259 141.978C168.259 141.908 168.189 141.908 168.189 141.838C168.119 141.698 167.979 141.558 167.909 141.418C167.769 141.278 167.699 141.137 167.559 140.997L167.488 140.927C167.418 140.857 167.348 140.787 167.348 140.717C167.278 140.647 167.208 140.577 167.208 140.507C166.928 140.227 166.718 139.876 166.437 139.596C166.367 139.456 166.227 139.386 166.157 139.246C166.017 139.035 165.807 138.895 165.667 138.755C165.527 138.615 165.316 138.405 165.176 138.265C165.106 138.195 165.106 138.195 165.036 138.125C164.966 138.055 164.966 138.055 164.896 137.984C164.756 137.914 164.686 137.774 164.546 137.704C164.476 137.634 164.335 137.494 164.265 137.424C164.195 137.354 164.055 137.214 163.985 137.144C163.915 137.074 163.845 137.004 163.775 136.933C163.705 136.863 163.635 136.793 163.565 136.723C163.495 136.653 163.425 136.583 163.355 136.513C163.284 136.443 163.214 136.373 163.144 136.303C163.074 136.233 162.934 136.163 162.864 136.093C162.794 136.023 162.654 135.953 162.584 135.882C162.514 135.812 162.374 135.742 162.304 135.672C162.093 135.532 161.883 135.392 161.673 135.252C161.603 135.182 161.463 135.112 161.393 135.042C161.253 134.972 161.183 134.902 161.042 134.832C160.972 134.761 160.902 134.761 160.832 134.691C160.482 134.481 160.202 134.341 159.851 134.201C156.768 132.659 153.966 132.589 151.864 133.71L157.539 130.487L160.132 132.029L161.953 133.08C169.1 137.774 174.845 147.443 175.686 156.061C175.546 156.762 175.546 157.533 175.546 158.233Z" fill="url(#paint1_linear_1_19911)" stroke="#231F20" stroke-width="0.201439" stroke-miterlimit="10" stroke-linecap="round" stroke-linejoin="round"/>
        <path d="M169.73 154.17C169.73 154.17 169.66 154.17 169.73 154.17L169.45 154.31L168.96 154.59L165.527 156.482C166.157 156.062 166.648 155.431 166.998 154.52C167.068 154.24 167.138 153.889 167.208 153.539C167.208 153.399 167.278 153.189 167.278 153.049C167.278 152.909 167.278 152.698 167.278 152.488C167.278 151.998 167.208 151.507 167.138 151.017C166.998 150.316 166.858 149.615 166.578 148.845C165.947 147.163 165.036 145.482 163.845 144.15C163.004 143.169 162.023 142.329 161.042 141.768C160.902 141.698 160.692 141.628 160.552 141.488C160.131 141.278 159.641 141.137 159.221 140.997C158.24 140.787 157.399 140.857 156.698 141.278L160.692 139.036C160.762 139.106 160.902 139.176 160.972 139.246C161.112 139.316 161.253 139.386 161.393 139.526C161.463 139.596 161.533 139.596 161.603 139.666C161.743 139.736 161.883 139.876 162.023 139.946C162.233 140.087 162.444 140.227 162.654 140.437C162.724 140.507 162.794 140.507 162.864 140.577C163.214 140.857 163.565 141.208 163.915 141.558C163.985 141.628 164.055 141.698 164.125 141.768C164.195 141.838 164.335 141.978 164.405 142.118C164.476 142.188 164.616 142.329 164.686 142.399C164.756 142.469 164.826 142.539 164.896 142.609C164.966 142.679 165.036 142.819 165.176 142.889C165.246 143.029 165.386 143.169 165.456 143.239C165.527 143.31 165.527 143.38 165.597 143.45C165.737 143.59 165.807 143.73 165.947 143.87C166.578 144.711 167.138 145.622 167.628 146.603C167.699 146.813 167.839 146.953 167.909 147.163C167.909 147.233 167.979 147.233 167.979 147.303C167.979 147.373 168.049 147.443 168.049 147.443C168.119 147.584 168.119 147.654 168.189 147.794C168.259 147.934 168.259 148.004 168.329 148.144C168.399 148.214 168.399 148.354 168.469 148.424C168.539 148.705 168.679 148.915 168.75 149.195C168.82 149.265 168.82 149.405 168.89 149.545C168.96 149.686 169.03 149.896 169.03 150.036C169.1 150.386 169.24 150.666 169.31 151.017C169.31 151.157 169.38 151.227 169.38 151.367C169.45 151.577 169.52 151.858 169.52 152.068V152.138C169.52 152.208 169.59 152.348 169.59 152.418C169.59 152.488 169.59 152.558 169.59 152.628C169.59 152.698 169.59 152.768 169.59 152.838C169.59 152.909 169.59 152.909 169.59 152.979C169.59 153.049 169.59 153.189 169.66 153.259C169.66 153.399 169.66 153.539 169.73 153.679C169.66 153.819 169.73 154.03 169.73 154.17Z" fill="#49443A" stroke="#231F20" stroke-width="0.0802954" stroke-miterlimit="10" stroke-linecap="round" stroke-linejoin="round"/>
        <path d="M109.264 108.557C109.194 108.487 109.053 108.417 108.983 108.347H109.053L109.124 108.277L109.264 108.557Z" fill="#F1F2F2" stroke="#231F20" stroke-width="0.0802954" stroke-miterlimit="10" stroke-linecap="round" stroke-linejoin="round"/>
        <path d="M200.77 153.049L179.96 164.68C179.96 164.68 186.196 142.048 163.565 127.405C162.724 126.844 161.813 126.283 160.902 125.793L118.442 101.62L110.665 97.2062L106.251 94.6838C106.251 94.6838 100.926 91.8812 96.3716 94.2634L116.2 82.9128C121.035 79.3394 127.13 82.6325 127.13 82.6325L181.642 114.162C182.552 114.723 183.463 115.213 184.304 115.774C207.005 130.417 200.77 153.049 200.77 153.049Z" fill="#F1F2F2" stroke="#231F20" stroke-width="0.201439" stroke-miterlimit="10" stroke-linecap="round" stroke-linejoin="round"/>
        <path d="M179.96 164.679L161.603 154.17L160.902 153.749L106.251 122.43L89.7153 112.901C89.7153 101.2 92.7982 96.2252 96.3015 94.3334L96.3716 94.2634C100.996 91.8111 106.251 94.6838 106.251 94.6838L110.665 97.2061L118.442 101.62L160.902 125.723C161.813 126.283 162.724 126.774 163.565 127.334C186.196 141.978 179.96 164.679 179.96 164.679Z" fill="#F1F2F2" stroke="#231F20" stroke-width="0.201439" stroke-miterlimit="10" stroke-linecap="round" stroke-linejoin="round"/>
        <path opacity="0.14" d="M179.96 164.679L161.603 154.17L160.902 153.749L106.251 122.43L89.7153 112.901C89.7153 101.2 92.7982 96.2252 96.3015 94.3334L96.3716 94.2634C100.996 91.8111 106.251 94.6838 106.251 94.6838L110.665 97.2061L118.442 101.62L160.902 125.723C161.813 126.283 162.724 126.774 163.565 127.334C186.196 141.978 179.96 164.679 179.96 164.679Z" fill="black" stroke="#231F20" stroke-width="0.201439" stroke-miterlimit="10"/>
    </g>
    <defs>
        <linearGradient id="paint0_linear_1_19911" x1="120.111" y1="133.636" x2="115.177" y2="100.185" gradientUnits="userSpaceOnUse">
            <stop stop-color="#58595B"/>
            <stop offset="1"/>
        </linearGradient>
        <linearGradient id="paint1_linear_1_19911" x1="158.038" y1="132.61" x2="169.695" y2="153.604" gradientUnits="userSpaceOnUse">
            <stop stop-color="#58595B"/>
            <stop offset="1"/>
        </linearGradient>
        <clipPath id="">
            <rect width="112.035" height="90.7352" fill="white" transform="translate(89.5757 81.1611)"/>
        </clipPath>
    </defs>
</svg>
