<svg width="230" height="230" viewBox="0 0 230 230" fill="none"
    xmlns="http://www.w3.org/2000/svg">
    <g clip-path="url(#)">
        <path d="M132.106 186.89C132.106 192.075 130.354 195.789 127.552 197.61L126.851 198.031L111.226 207.139C114.029 205.388 115.781 201.884 115.921 196.98C115.921 196.91 115.921 196.84 115.921 196.77C115.921 196.629 115.921 196.489 115.921 196.279C115.921 195.508 115.851 194.738 115.781 193.967C114.87 184.158 108.354 173.157 100.226 167.762C100.226 167.762 100.226 167.762 100.156 167.762L98.054 166.571L96.6527 165.73L69.9577 150.106L46.5557 136.443L45.6449 135.882C45.4347 135.742 45.2245 135.672 45.0143 135.532C44.8741 135.462 44.734 135.392 44.5939 135.322C40.8804 133.43 37.4472 133.15 34.7847 134.201L49.7087 125.373L49.9189 125.232C53.0018 123.411 57.2057 123.691 61.9001 126.424L114.309 157.182L116.411 158.374C116.411 158.374 116.411 158.374 116.481 158.374C125.169 164.189 132.106 176.591 132.106 186.89Z" fill="#414042" stroke="#231F20" stroke-width="0.201439" stroke-miterlimit="10" stroke-linecap="round" stroke-linejoin="round"/>
        <path d="M97.9834 175.75L98.1235 175.68L98.2637 175.96C98.1235 175.82 98.0535 175.75 97.9834 175.75Z" fill="#F1F2F2" stroke="#231F20" stroke-width="0.0802954" stroke-miterlimit="10" stroke-linecap="round" stroke-linejoin="round"/>
        <path d="M115.851 196.84C115.851 196.91 115.851 196.98 115.851 197.05C115.781 197.05 115.71 196.98 115.71 196.98L115.851 196.84Z" fill="#F1F2F2" stroke="#231F20" stroke-width="0.0802954" stroke-miterlimit="10" stroke-linecap="round" stroke-linejoin="round"/>
        <path d="M115.85 196.349C115.85 195.579 115.78 194.808 115.71 194.037C114.799 184.228 108.283 173.228 100.156 167.832C100.156 167.832 100.156 167.832 100.085 167.832L97.9835 166.641L96.5822 165.801L69.9572 150.106L46.5552 136.443L45.6444 135.882C45.4342 135.742 45.224 135.672 45.0138 135.532C44.8737 135.462 44.7335 135.392 44.5934 135.322C40.8799 133.43 37.4467 133.15 34.7842 134.201L32.5421 135.532C30.1599 137.424 28.6885 140.927 28.6885 145.622C28.6885 155.991 35.6951 168.533 44.5934 174.279L45.6444 174.909L46.4151 175.4L96.7924 204.827C97.4931 205.318 98.1937 205.808 98.8944 206.229C103.659 208.961 108.003 209.171 111.086 207.279C113.888 205.528 115.64 202.025 115.78 197.12C115.71 197.12 115.64 197.05 115.64 197.05L115.78 196.98C115.85 196.7 115.85 196.489 115.85 196.349ZM112.767 195.088C112.767 195.228 112.767 195.298 112.767 195.438C112.697 196.7 112.557 197.821 112.347 198.872C111.716 201.464 110.385 203.356 108.634 204.407C105.901 206.088 102.117 205.948 97.8434 203.496C97.2128 203.146 96.5822 202.725 95.9516 202.305L47.4661 173.998L46.7654 173.578L45.8546 173.017C38.0072 167.973 31.8414 156.902 31.8414 147.654C31.8414 143.52 33.1026 140.437 35.2046 138.685C35.7651 138.195 36.4658 137.774 37.1664 137.494C38.4276 137.004 39.8289 136.863 41.3704 137.074C42.5615 137.214 43.8227 137.564 45.0839 138.195C45.4342 138.335 45.7845 138.545 46.2049 138.755C46.345 138.825 46.5552 138.895 46.6954 139.035C46.6954 139.035 46.7654 139.035 46.7654 139.106L70.5878 153.049L94.4802 167.062L97.0727 168.603L98.8944 169.654C106.041 174.349 111.786 184.018 112.627 192.636C112.697 193.406 112.767 194.177 112.767 194.878C112.767 194.948 112.767 195.018 112.767 195.088Z" fill="#231F20" stroke="#231F20" stroke-width="0.201439" stroke-miterlimit="10" stroke-linecap="round" stroke-linejoin="round"/>
        <path d="M34.7841 134.131L32.542 135.462C33.2426 134.902 33.9433 134.481 34.7841 134.131Z" fill="#F1F2F2" stroke="#231F20" stroke-width="0.0802954" stroke-miterlimit="10" stroke-linecap="round" stroke-linejoin="round"/>
        <path d="M46.4853 145.201C46.4153 145.131 46.2751 145.061 46.2051 144.991H46.2751L46.3452 144.921L46.4853 145.201Z" fill="#F1F2F2" stroke="#231F20" stroke-width="0.0802954" stroke-miterlimit="10" stroke-linecap="round" stroke-linejoin="round"/>
        <path d="M97.9834 175.75L98.1235 175.68L98.2637 175.96C98.1235 175.82 98.0535 175.75 97.9834 175.75Z" fill="#F1F2F2" stroke="#231F20" stroke-width="0.0802954" stroke-miterlimit="10" stroke-linecap="round" stroke-linejoin="round"/>
        <path d="M115.851 196.84C115.851 196.91 115.851 196.98 115.851 197.05C115.781 197.05 115.71 196.98 115.71 196.98L115.851 196.84Z" fill="#F1F2F2" stroke="#231F20" stroke-width="0.0802954" stroke-miterlimit="10" stroke-linecap="round" stroke-linejoin="round"/>
        <path d="M112.347 198.872C111.717 201.464 110.386 203.356 108.634 204.407C105.901 206.088 102.118 205.948 97.8437 203.496C97.2132 203.146 96.5826 202.725 95.952 202.305L47.4665 173.998L46.7658 173.578L45.8549 173.017C38.0076 167.973 31.8418 156.902 31.8418 147.654C31.8418 143.52 33.103 140.437 35.205 138.685C35.7655 138.195 36.4661 137.774 37.1668 137.494C38.428 137.004 39.8293 136.863 41.3707 137.074L37.0267 139.666L36.8865 139.736C34.5744 141.067 33.103 144.01 33.103 148.074C33.103 156.342 38.9184 166.361 45.9951 170.425C49.5684 172.527 52.8615 172.667 55.1737 171.266L55.2438 171.196L63.6517 166.431L65.8237 165.17L85.0217 176.38C84.8816 177.151 84.8115 177.922 84.8115 178.763V178.833C84.8115 187.03 90.627 197.05 97.7036 201.184C101.277 203.286 104.57 203.426 106.882 202.025L106.952 201.954L112.347 198.872Z" fill="#58595B" stroke="#231F20" stroke-width="0.0802954" stroke-miterlimit="10" stroke-linecap="round" stroke-linejoin="round"/>
        <path d="M46.4853 145.201C46.4153 145.131 46.2751 145.061 46.2051 144.991H46.2751L46.3452 144.921L46.4853 145.201Z" fill="#F1F2F2" stroke="#231F20" stroke-width="0.0802954" stroke-miterlimit="10" stroke-linecap="round" stroke-linejoin="round"/>
        <path d="M97.9834 175.75L98.1235 175.68L98.2637 175.96C98.1235 175.82 98.0535 175.75 97.9834 175.75Z" fill="#F1F2F2" stroke="#231F20" stroke-width="0.0802954" stroke-miterlimit="10" stroke-linecap="round" stroke-linejoin="round"/>
        <path d="M97.9834 175.75L98.1235 175.68L98.2637 175.96C98.1235 175.82 98.0535 175.75 97.9834 175.75Z" fill="#F1F2F2" stroke="#231F20" stroke-width="0.0802954" stroke-miterlimit="10" stroke-linecap="round" stroke-linejoin="round"/>
        <path d="M116.411 158.374L114.309 157.182C114.589 157.323 114.94 157.533 115.22 157.673C115.64 157.883 115.991 158.093 116.411 158.374Z" fill="#F1F2F2" stroke="#231F20" stroke-width="0.0802954" stroke-miterlimit="10" stroke-linecap="round" stroke-linejoin="round"/>
        <path d="M58.8867 162.087C58.8867 162.017 58.8867 161.877 58.8867 161.807C58.8867 161.737 58.8867 161.667 58.8867 161.597C58.8867 161.386 58.8167 161.106 58.8167 160.896V160.826C58.8167 160.826 58.8167 160.826 58.8167 160.756C58.8167 160.686 58.8167 160.616 58.8167 160.546C58.8167 160.405 58.7466 160.265 58.7466 160.125C58.7466 159.985 58.6765 159.845 58.6765 159.705C58.6765 159.635 58.6765 159.495 58.6065 159.425C58.6065 159.354 58.6065 159.214 58.5364 159.144C58.5364 159.004 58.4663 158.934 58.4663 158.794C58.4663 158.654 58.3963 158.584 58.3963 158.444C58.3963 158.374 58.3262 158.233 58.3262 158.163C58.3262 158.023 58.2561 157.883 58.2561 157.743C58.2561 157.603 58.1861 157.533 58.1861 157.393C58.116 157.182 58.0459 156.972 58.0459 156.762C57.9759 156.482 57.9058 156.202 57.7657 155.991C57.6956 155.781 57.6256 155.501 57.5555 155.291C57.4854 155.01 57.3453 154.73 57.2752 154.45C57.2052 154.31 57.2052 154.24 57.1351 154.1C57.1351 154.029 57.065 153.959 57.065 153.889C56.995 153.749 56.995 153.679 56.9249 153.539C56.8548 153.399 56.8548 153.329 56.7848 153.189C56.7147 152.978 56.6446 152.768 56.5045 152.628C56.5045 152.558 56.4344 152.488 56.4344 152.418C56.4344 152.418 56.4344 152.418 56.4344 152.348C56.3644 152.138 56.2242 151.998 56.1542 151.787C56.014 151.577 55.944 151.367 55.8038 151.087C55.6637 150.877 55.5936 150.666 55.4535 150.386C55.3835 150.246 55.3134 150.176 55.2433 150.036C55.1032 149.826 54.9631 149.615 54.8229 149.405C54.7529 149.265 54.6828 149.195 54.6127 149.055C54.2624 148.494 53.842 147.934 53.4917 147.373C53.4216 147.303 53.3515 147.163 53.2815 147.093C53.0713 146.813 52.9312 146.603 52.721 146.392C52.6509 146.322 52.5808 146.252 52.5108 146.182C52.3006 145.902 52.0904 145.692 51.8802 145.411C51.8101 145.341 51.74 145.271 51.67 145.201C51.5999 145.131 51.5298 145.061 51.4598 144.991C51.3196 144.851 51.2496 144.711 51.1094 144.641C50.9693 144.501 50.8292 144.36 50.689 144.22C50.619 144.15 50.619 144.15 50.5489 144.08C50.4788 144.01 50.4788 144.01 50.4088 143.94C50.3387 143.87 50.2687 143.8 50.1986 143.73C50.1285 143.66 50.0585 143.59 50.0585 143.59C49.9884 143.52 49.9183 143.45 49.8483 143.379C49.8483 143.379 49.8483 143.379 49.7782 143.379C49.6381 143.239 49.4979 143.169 49.3578 143.029C49.2877 142.959 49.1476 142.889 49.0775 142.819C49.0075 142.749 48.9374 142.679 48.7973 142.609C48.7272 142.539 48.5871 142.469 48.517 142.399C48.4469 142.328 48.3068 142.258 48.2367 142.188C47.8864 141.908 47.5361 141.628 47.1157 141.418C46.8354 141.278 46.6252 141.067 46.345 140.927C46.2749 140.857 46.2048 140.857 46.1348 140.787C45.9946 140.717 45.9246 140.647 45.7844 140.577C45.6443 140.507 45.5742 140.437 45.4341 140.367C45.364 140.297 45.2239 140.297 45.1539 140.227C41.9308 138.545 39.1282 138.475 37.0262 139.666L36.8861 139.736C34.5739 141.067 33.1025 144.01 33.1025 148.074C33.1025 156.342 38.918 166.361 45.9946 170.425C49.568 172.527 52.8611 172.667 55.1733 171.266L55.2433 171.196C57.2752 169.934 58.6065 167.482 58.8167 164.049C58.8167 163.909 58.8167 163.769 58.8167 163.628V163.558C58.8167 163.488 58.8167 163.488 58.8167 163.418C58.8167 163.278 58.8167 163.138 58.8167 162.998C58.9568 162.718 58.8867 162.367 58.8867 162.087ZM55.1733 161.667C55.1032 162.788 54.893 163.699 54.5427 164.469C54.1223 165.45 53.4216 166.221 52.6509 166.711L52.5808 166.781C50.8992 167.762 48.5871 167.622 45.9946 166.151C40.9499 163.208 36.816 156.061 36.816 150.246C36.816 147.303 37.867 145.271 39.4785 144.29L39.6187 144.22C40.3894 143.8 41.2302 143.66 42.2111 143.66C43.192 143.73 44.243 144.01 45.364 144.571C45.5742 144.711 45.8545 144.781 46.0647 144.921C46.1348 144.991 46.2048 144.991 46.2749 145.061H46.345L46.415 144.991L46.5552 145.271C46.5552 145.271 46.5552 145.271 46.6252 145.271C46.6953 145.341 46.8354 145.411 46.9055 145.481C46.9756 145.552 47.0456 145.622 47.1157 145.622C47.3259 145.762 47.6062 145.972 47.8163 146.112C47.8864 146.182 48.0265 146.252 48.0966 146.322C48.1667 146.322 48.1667 146.392 48.2367 146.392C48.3068 146.462 48.3769 146.462 48.3769 146.532C48.517 146.603 48.5871 146.743 48.7272 146.883C48.7973 146.953 48.8673 147.023 49.0075 147.093C49.0775 147.163 49.1476 147.233 49.2177 147.303L49.2877 147.373C49.4979 147.583 49.6381 147.724 49.8483 147.934C49.9183 148.074 50.0585 148.144 50.1285 148.284C50.1986 148.354 50.2687 148.424 50.2687 148.494C50.4788 148.704 50.689 148.985 50.8992 149.265C50.9693 149.335 50.9693 149.405 51.0394 149.405C51.1094 149.475 51.1795 149.545 51.1795 149.615C51.2496 149.685 51.2496 149.755 51.3196 149.826C51.5298 150.106 51.74 150.386 51.8802 150.666C52.0203 150.806 52.0904 151.017 52.1604 151.157C52.4407 151.647 52.721 152.068 52.9312 152.558C53.0012 152.698 53.0713 152.838 53.1413 152.978C53.2114 153.119 53.2815 153.259 53.3515 153.399C53.4917 153.679 53.6318 153.959 53.7019 154.24C53.7019 154.24 53.7019 154.31 53.7719 154.31V154.38C53.7719 154.45 53.842 154.52 53.842 154.59V154.66C53.842 154.73 53.9121 154.73 53.9121 154.8C54.0522 155.08 54.1223 155.361 54.1923 155.641C54.2624 155.781 54.2624 155.851 54.3325 155.991C54.4025 156.202 54.4726 156.482 54.5427 156.692C54.5427 156.762 54.6127 156.902 54.6127 156.972C54.6828 157.252 54.7529 157.533 54.8229 157.883C54.8229 157.883 54.8229 157.953 54.8229 158.023C54.8229 158.093 54.8229 158.163 54.893 158.233C54.893 158.303 54.893 158.444 54.9631 158.514C54.9631 158.654 55.0331 158.724 55.0331 158.864C55.0331 158.934 55.0331 159.074 55.1032 159.144C55.1032 159.214 55.1032 159.354 55.1032 159.425C55.1032 159.495 55.1032 159.565 55.1032 159.635C55.1032 159.635 55.1032 159.635 55.1032 159.705C55.1032 159.775 55.1032 159.845 55.1032 159.915C55.1032 159.985 55.1032 160.055 55.1032 160.125C55.1032 160.335 55.1032 160.616 55.1032 160.826C55.1733 161.106 55.1733 161.386 55.1733 161.667Z" fill="#231F20" stroke="#231F20" stroke-width="0.201439" stroke-miterlimit="10" stroke-linecap="round" stroke-linejoin="round"/>
        <path d="M46.4853 145.201C46.4153 145.131 46.2751 145.061 46.2051 144.991H46.2751L46.3452 144.921L46.4853 145.201Z" fill="#F1F2F2" stroke="#231F20" stroke-width="0.0802954" stroke-miterlimit="10" stroke-linecap="round" stroke-linejoin="round"/>
        <path d="M54.5426 164.469C54.1222 165.45 53.4215 166.221 52.6508 166.711L52.5807 166.781C50.8991 167.762 48.587 167.622 45.9945 166.151C40.9498 163.208 36.8159 156.061 36.8159 150.246C36.8159 147.303 37.8669 145.271 39.4784 144.29L39.6185 144.22C40.3893 143.8 41.2301 143.66 42.211 143.66C41.7906 144.641 41.5103 145.832 41.5103 147.303C41.5103 147.443 41.5103 147.654 41.5103 147.794C40.7396 148.564 40.3192 149.756 40.3192 151.297C40.3192 155.291 43.1218 160.055 46.5551 162.087C47.8863 162.858 49.0774 163.068 50.1284 162.858C50.3386 162.998 50.5488 163.138 50.759 163.208C52.0202 163.979 53.3514 164.399 54.5426 164.469Z" fill="#49443A" stroke="#231F20" stroke-width="0.0802954" stroke-miterlimit="10" stroke-linecap="round" stroke-linejoin="round"/>
        <path d="M46.2047 145.061L42.2109 147.303L42.1408 147.373C41.9306 147.513 41.7205 147.654 41.5103 147.864C41.5103 147.724 41.5103 147.513 41.5103 147.373C41.5103 145.972 41.7205 144.711 42.2109 143.73C43.1918 143.8 44.2428 144.08 45.3639 144.641C45.5741 144.781 45.8543 144.851 46.0645 144.991C46.0645 144.991 46.1346 144.991 46.2047 145.061Z" fill="#6E6657" stroke="#231F20" stroke-width="0.0802954" stroke-miterlimit="10" stroke-linecap="round" stroke-linejoin="round"/>
        <path d="M55.1734 160.826C55.1734 161.106 55.1734 161.386 55.1734 161.597C55.1033 162.718 54.8931 163.629 54.5428 164.399C53.3517 164.329 52.0905 163.909 50.6892 163.138C50.479 162.998 50.2688 162.928 50.0586 162.788C50.4089 162.718 50.6892 162.578 50.9694 162.437H51.0395L54.9632 160.265L55.1734 160.125C55.1734 160.406 55.1734 160.616 55.1734 160.826Z" fill="#6E6657" stroke="#231F20" stroke-width="0.0802954" stroke-miterlimit="10" stroke-linecap="round" stroke-linejoin="round"/>
        <path d="M46.4853 145.201C46.4153 145.131 46.2751 145.061 46.2051 144.991H46.2751L46.3452 144.921L46.4853 145.201Z" fill="#F1F2F2" stroke="#231F20" stroke-width="0.0802954" stroke-miterlimit="10" stroke-linecap="round" stroke-linejoin="round"/>
        <path d="M46.4853 145.201C46.4153 145.131 46.2751 145.061 46.2051 144.991C46.2051 144.991 46.2751 144.991 46.2751 144.921L46.3452 144.851L46.4853 145.201Z" fill="#F1F2F2" stroke="#231F20" stroke-width="0.0802954" stroke-miterlimit="10" stroke-linecap="round" stroke-linejoin="round"/>
        <path d="M52.7908 158.514C52.7908 158.724 52.7908 158.864 52.7908 159.074C52.7908 159.635 52.6507 160.125 52.5105 160.546C52.2303 161.456 51.7398 162.087 51.0392 162.507H50.9691C50.6888 162.648 50.4086 162.788 50.0582 162.858C49.0773 163.068 47.8161 162.858 46.4849 162.087C43.0517 160.125 40.249 155.291 40.249 151.297C40.249 149.756 40.6694 148.564 41.4401 147.794C41.6503 147.583 41.8605 147.443 42.0707 147.303L42.1408 147.233C42.8415 146.883 43.6822 146.743 44.6632 146.953C45.0836 147.023 45.504 147.233 45.9944 147.443C46.1345 147.513 46.2747 147.583 46.4849 147.724C46.6951 147.864 46.8352 147.934 47.0454 148.074C47.1155 148.144 47.1855 148.144 47.2556 148.214C47.4658 148.354 47.6059 148.494 47.8161 148.634C47.9563 148.775 48.0964 148.845 48.2365 148.985C48.3066 149.055 48.3767 149.055 48.3767 149.125C48.3767 149.125 48.3767 149.125 48.4467 149.195C48.5168 149.265 48.5868 149.335 48.6569 149.405C48.727 149.475 48.8671 149.615 48.9372 149.685C49.0773 149.826 49.1474 149.966 49.2875 150.106C50.4786 151.437 51.3895 153.119 52.0201 154.8C52.0201 154.87 52.0901 154.94 52.0901 155.01C52.0901 155.081 52.0901 155.081 52.1602 155.151C52.2303 155.361 52.3003 155.571 52.3704 155.781C52.3704 155.851 52.4405 155.921 52.4405 155.991C52.5105 156.132 52.5105 156.342 52.5806 156.482V156.552C52.5806 156.622 52.5806 156.622 52.5806 156.692C52.5806 156.832 52.6507 156.972 52.6507 157.112C52.6507 157.253 52.6507 157.393 52.7207 157.463V157.533C52.7207 157.673 52.7207 157.813 52.7207 157.883C52.7207 158.233 52.7908 158.374 52.7908 158.514Z" fill="#6E6657" stroke="#231F20" stroke-width="0.0802954" stroke-miterlimit="10" stroke-linecap="round" stroke-linejoin="round"/>
        <path d="M70.7981 156.131C70.7981 160.616 69.0464 163.629 66.3839 164.82L65.7533 165.17L63.6514 166.431L55.3135 171.266C57.3454 170.005 58.6767 167.552 58.8869 164.119C58.8869 163.979 58.8869 163.839 58.8869 163.699V163.629C58.8869 163.558 58.8869 163.558 58.8869 163.488C58.8869 163.348 58.8869 163.208 58.8869 163.068C58.8869 162.788 58.8869 162.507 58.8869 162.157C58.8869 162.087 58.8869 161.947 58.8869 161.877C58.8869 161.807 58.8869 161.737 58.8869 161.667C58.8869 161.456 58.8168 161.176 58.8168 160.966V160.896C58.8168 160.896 58.8168 160.896 58.8168 160.826C58.8168 160.756 58.8168 160.686 58.8168 160.616C58.8168 160.476 58.7468 160.335 58.7468 160.195C58.7468 160.055 58.6767 159.915 58.6767 159.775C58.6767 159.705 58.6767 159.565 58.6066 159.495C58.6066 159.425 58.6066 159.284 58.5366 159.214C58.5366 159.074 58.4665 159.004 58.4665 158.864C58.4665 158.724 58.3964 158.654 58.3964 158.514C58.3964 158.444 58.3264 158.304 58.3264 158.233C58.3264 158.093 58.2563 157.953 58.2563 157.813C58.2563 157.673 58.1862 157.603 58.1862 157.463C58.1162 157.253 58.0461 157.042 58.0461 156.832C57.976 156.552 57.906 156.272 57.7658 156.061C57.6958 155.851 57.6257 155.571 57.5556 155.361C57.4856 155.081 57.3454 154.8 57.2754 154.52C57.2053 154.38 57.2053 154.31 57.1352 154.17C57.1352 154.1 57.0652 154.03 57.0652 153.959C56.9951 153.819 56.9951 153.749 56.925 153.609C56.855 153.469 56.855 153.399 56.7849 153.259C56.7148 153.049 56.6448 152.838 56.5046 152.698C56.5046 152.628 56.4346 152.558 56.4346 152.488C56.4346 152.488 56.4346 152.488 56.4346 152.418C56.3645 152.208 56.2244 152.068 56.1543 151.857C56.0142 151.647 55.9441 151.437 55.804 151.157C55.6639 150.947 55.5938 150.736 55.4537 150.456C55.3836 150.316 55.3135 150.246 55.2435 150.106C55.1033 149.896 54.9632 149.685 54.8231 149.475C54.753 149.335 54.6829 149.265 54.6129 149.125C54.2625 148.564 53.8421 148.004 53.4918 147.443C53.4218 147.373 53.3517 147.233 53.2816 147.163C53.0714 146.883 52.9313 146.673 52.7211 146.462C52.651 146.392 52.581 146.322 52.5109 146.252C52.3007 145.972 52.0905 145.762 51.8803 145.482C51.8102 145.411 51.7402 145.341 51.6701 145.271C51.6 145.201 51.53 145.131 51.4599 145.061C51.3198 144.921 51.2497 144.781 51.1096 144.711C50.9695 144.571 50.8293 144.431 50.6892 144.29C50.6191 144.22 50.6191 144.22 50.5491 144.15C50.479 144.08 50.479 144.08 50.4089 144.01C50.3389 143.94 50.2688 143.87 50.1987 143.8C50.1287 143.73 50.0586 143.66 50.0586 143.66C49.9885 143.59 49.9185 143.52 49.8484 143.45C49.8484 143.45 49.8484 143.45 49.7783 143.45C49.6382 143.309 49.4981 143.239 49.3579 143.099C49.2879 143.029 49.1477 142.959 49.0777 142.889C49.0076 142.819 48.9375 142.749 48.7974 142.679C48.7273 142.609 48.5872 142.539 48.5172 142.469C48.4471 142.399 48.307 142.329 48.2369 142.258C47.8866 141.978 47.5362 141.698 47.1158 141.488C46.8356 141.348 46.6254 141.137 46.3451 140.997C46.275 140.927 46.205 140.927 46.1349 140.857C45.9948 140.787 45.9247 140.717 45.7846 140.647C45.6445 140.577 45.5744 140.507 45.4343 140.437C45.3642 140.367 45.2241 140.367 45.154 140.297C41.931 138.545 39.1283 138.475 37.0264 139.666L41.3704 137.144C42.5616 137.284 43.8227 137.634 45.0839 138.265C45.4343 138.405 45.7846 138.615 46.205 138.825C46.3451 138.895 46.5553 138.965 46.6954 139.106C46.6954 139.106 46.7655 139.106 46.7655 139.176L70.5879 153.119C70.728 154.1 70.7981 155.151 70.7981 156.131Z" fill="url(#paint0_linear_1_19911)" stroke="#231F20" stroke-width="0.201439" stroke-miterlimit="10" stroke-linecap="round" stroke-linejoin="round"/>
        <path d="M55.1736 160.125C55.1736 160.125 55.1736 160.195 55.1736 160.125L54.8933 160.336L51.0397 162.508C51.6703 162.087 52.1608 161.457 52.5111 160.546C52.6512 160.125 52.7213 159.635 52.7914 159.074C52.7914 158.934 52.7914 158.724 52.7914 158.514C52.7914 158.374 52.7914 158.234 52.7914 158.163C52.7914 158.023 52.7914 157.883 52.7914 157.813V157.743C52.7914 157.603 52.7914 157.463 52.7213 157.393C52.7213 157.253 52.6512 157.112 52.6512 156.972C52.6512 156.902 52.6512 156.902 52.6512 156.832V156.762C52.6512 156.622 52.5812 156.412 52.5111 156.272C52.5111 156.202 52.441 156.132 52.441 156.061C52.371 155.851 52.3009 155.641 52.2308 155.431C52.2308 155.361 52.2308 155.361 52.1608 155.291C52.1608 155.221 52.0907 155.151 52.0907 155.081C51.4601 153.399 50.5493 151.717 49.3581 150.386C49.218 150.246 49.1479 150.106 49.0078 149.966C48.9377 149.896 48.7976 149.756 48.7275 149.686C48.6575 149.615 48.5874 149.545 48.5173 149.475C48.5173 149.475 48.5173 149.475 48.4473 149.405C48.3772 149.335 48.3071 149.265 48.3071 149.265C48.167 149.125 48.0269 149.055 47.8868 148.915C47.6766 148.775 47.5364 148.635 47.3262 148.494C47.2562 148.424 47.1861 148.424 47.116 148.354C46.9058 148.214 46.7657 148.144 46.5555 148.004C46.4154 147.934 46.2052 147.864 46.065 147.724C45.6446 147.513 45.1542 147.373 44.7338 147.233C43.7529 147.023 42.9121 147.093 42.2114 147.513L46.2052 145.271C46.2752 145.341 46.4154 145.411 46.4854 145.482C46.4854 145.482 46.4854 145.482 46.5555 145.482C46.6256 145.552 46.7657 145.622 46.8358 145.692C46.9058 145.762 46.9759 145.832 47.046 145.832C47.2562 145.972 47.5364 146.182 47.7466 146.322C47.8167 146.392 47.9568 146.462 48.0269 146.533C48.097 146.533 48.0969 146.603 48.167 146.603C48.2371 146.673 48.3071 146.673 48.3071 146.743C48.4473 146.813 48.5173 146.953 48.6575 147.093C48.7275 147.163 48.7976 147.233 48.9377 147.303C49.0078 147.373 49.0779 147.443 49.1479 147.513L49.218 147.584C49.4282 147.794 49.5683 147.934 49.7785 148.144C49.8486 148.284 49.9887 148.354 50.0588 148.494C50.1289 148.564 50.1989 148.635 50.1989 148.705C50.4091 148.915 50.6193 149.195 50.8295 149.475C50.8996 149.545 50.8996 149.615 50.9696 149.615C51.0397 149.686 51.1098 149.756 51.1098 149.826C51.1798 149.896 51.1798 149.966 51.2499 150.036C51.4601 150.316 51.6703 150.596 51.8104 150.877C51.8805 151.017 52.0206 151.227 52.0907 151.367C52.371 151.858 52.6512 152.278 52.8614 152.768C52.9315 152.909 53.0016 153.049 53.0716 153.189C53.1417 153.329 53.2118 153.469 53.2818 153.609C53.4219 153.889 53.5621 154.17 53.6321 154.45C53.6321 154.45 53.6321 154.52 53.7022 154.52V154.59C53.7022 154.66 53.7723 154.73 53.7723 154.8V154.87C53.7723 154.94 53.8423 154.94 53.8423 155.011C53.9825 155.291 54.0525 155.571 54.1226 155.851C54.1927 155.991 54.1927 156.061 54.2627 156.202C54.3328 156.412 54.4029 156.692 54.4729 156.902C54.4729 156.972 54.543 157.112 54.543 157.183C54.6131 157.463 54.6831 157.743 54.7532 158.093C54.7532 158.093 54.7532 158.163 54.7532 158.234C54.7532 158.304 54.7532 158.374 54.8233 158.444C54.8233 158.514 54.8233 158.654 54.8933 158.724C54.8933 158.864 54.9634 158.934 54.9634 159.074C54.9634 159.144 54.9634 159.285 55.0335 159.355C55.0335 159.425 55.0335 159.565 55.0335 159.635C55.0335 159.705 55.0335 159.775 55.0335 159.845C55.0335 159.845 55.0335 159.845 55.0335 159.915C55.0335 159.985 55.0335 160.055 55.0335 160.125C55.1736 159.985 55.1736 160.055 55.1736 160.125Z" fill="#49443A" stroke="#231F20" stroke-width="0.0802954" stroke-miterlimit="10" stroke-linecap="round" stroke-linejoin="round"/>
        <path d="M110.666 192.776C110.666 192.285 110.595 191.795 110.525 191.234C110.525 191.094 110.525 190.954 110.455 190.884C110.455 190.744 110.385 190.604 110.385 190.534C110.385 190.394 110.315 190.254 110.315 190.183C110.315 190.043 110.245 189.903 110.245 189.833C110.245 189.693 110.175 189.553 110.175 189.413C110.175 189.273 110.105 189.133 110.105 189.062C110.035 188.782 109.965 188.572 109.895 188.292C109.895 188.152 109.825 188.011 109.825 187.871C109.825 187.731 109.755 187.591 109.685 187.451C109.615 187.311 109.615 187.171 109.545 187.031C109.474 186.89 109.474 186.75 109.404 186.61C109.334 186.47 109.334 186.33 109.264 186.26C109.194 186.12 109.194 185.98 109.124 185.839C109.054 185.629 108.914 185.349 108.844 185.139C108.774 184.858 108.634 184.648 108.564 184.368C108.564 184.298 108.494 184.228 108.494 184.158C108.494 184.088 108.423 184.018 108.423 183.948C108.353 183.878 108.353 183.737 108.283 183.667C108.213 183.527 108.143 183.387 108.143 183.317C108.073 183.177 108.073 183.107 108.003 182.967C108.003 182.897 107.933 182.827 107.933 182.757C107.933 182.686 107.863 182.616 107.863 182.546C107.793 182.406 107.723 182.266 107.653 182.196C107.513 181.916 107.372 181.635 107.162 181.355C107.162 181.355 107.162 181.355 107.162 181.285C107.162 181.285 107.162 181.285 107.162 181.215C107.092 181.145 107.092 181.075 107.022 181.005C106.952 180.865 106.882 180.725 106.742 180.584C106.672 180.444 106.602 180.304 106.462 180.164C106.392 180.024 106.321 179.884 106.181 179.744C106.111 179.604 105.971 179.463 105.901 179.323C105.901 179.253 105.831 179.253 105.831 179.183C105.831 179.183 105.831 179.183 105.831 179.113C105.761 179.043 105.761 178.973 105.691 178.903C105.621 178.833 105.551 178.763 105.481 178.623C105.481 178.553 105.411 178.553 105.411 178.483C105.341 178.342 105.2 178.202 105.13 178.062C104.99 177.922 104.92 177.782 104.78 177.642L104.71 177.572C104.64 177.502 104.57 177.432 104.57 177.361C104.5 177.291 104.43 177.221 104.43 177.151C104.149 176.871 103.939 176.521 103.659 176.24C103.589 176.1 103.449 176.03 103.379 175.89C103.239 175.68 103.028 175.54 102.888 175.4C102.748 175.259 102.538 175.049 102.398 174.909C102.328 174.839 102.328 174.839 102.258 174.769C102.188 174.699 102.188 174.699 102.118 174.629C101.977 174.559 101.907 174.419 101.767 174.349C101.697 174.279 101.557 174.138 101.487 174.068C101.417 173.998 101.277 173.858 101.207 173.788C101.137 173.718 101.067 173.648 100.996 173.578C100.926 173.508 100.856 173.438 100.786 173.368C100.716 173.298 100.646 173.228 100.576 173.158C100.506 173.087 100.436 173.017 100.366 172.947C100.296 172.877 100.156 172.807 100.086 172.737C100.016 172.667 99.8754 172.597 99.8054 172.527C99.7353 172.457 99.5952 172.387 99.5251 172.317C99.3149 172.177 99.1047 172.036 98.8945 171.896C98.8244 171.826 98.6843 171.756 98.6143 171.686C98.4741 171.616 98.4041 171.546 98.2639 171.476C98.1939 171.406 98.1238 171.406 98.0537 171.336C97.7034 171.126 97.4231 170.985 97.0728 170.845C93.9899 169.304 91.1873 169.234 89.0853 170.355L88.9452 170.425C87.1235 171.476 85.7922 173.578 85.3718 176.381C85.2317 177.151 85.1616 177.922 85.1616 178.763V178.833C85.1616 187.031 90.9771 197.05 98.0537 201.184C101.627 203.286 104.92 203.426 107.232 202.025L107.302 201.955C109.334 200.693 110.666 198.241 110.876 194.808C110.876 194.598 110.876 194.458 110.876 194.247C110.876 194.107 110.876 194.037 110.876 193.897C110.876 193.827 110.876 193.757 110.876 193.687C110.666 193.407 110.666 193.056 110.666 192.776ZM106.952 191.725C106.952 191.935 106.952 192.145 106.952 192.356C106.882 193.477 106.672 194.387 106.321 195.158C105.901 196.139 105.2 196.91 104.43 197.4L104.29 197.47C102.608 198.451 100.296 198.311 97.7034 196.84C97.4932 196.7 97.2129 196.559 97.0027 196.419C96.8626 196.349 96.7225 196.209 96.5123 196.069C96.3721 195.929 96.232 195.859 96.0919 195.719C95.9518 195.579 95.8116 195.508 95.6715 195.368C95.6014 195.298 95.5314 195.228 95.4613 195.158C95.3212 195.018 95.181 194.878 95.0409 194.808C94.9008 194.668 94.7606 194.528 94.6205 194.387C94.5504 194.317 94.4804 194.247 94.4103 194.177C94.2702 194.037 94.2001 193.967 94.06 193.827C93.9899 193.687 93.8498 193.617 93.7797 193.477C93.7096 193.407 93.6396 193.336 93.5695 193.266C93.4994 193.126 93.3593 193.056 93.2893 192.916C93.2192 192.846 93.1491 192.776 93.0791 192.706C93.009 192.636 92.9389 192.566 92.8689 192.496C92.7988 192.426 92.7287 192.356 92.6587 192.285C92.5886 192.215 92.5185 192.145 92.5185 192.075C92.4485 191.935 92.3083 191.795 92.2383 191.655C92.2383 191.655 92.2383 191.585 92.1682 191.585C92.0981 191.445 91.958 191.305 91.8879 191.164C91.7478 190.884 91.5376 190.674 91.3975 190.394C91.2573 190.183 91.1873 190.043 91.1172 189.833C91.0471 189.623 90.907 189.483 90.837 189.273C90.7669 189.062 90.6268 188.922 90.5567 188.712C90.4866 188.502 90.3465 188.362 90.2764 188.152C90.2064 188.082 90.2064 188.011 90.1363 187.871C90.0662 187.731 90.0662 187.661 89.9962 187.521C89.9261 187.381 89.856 187.171 89.786 187.031C89.7159 186.89 89.6458 186.75 89.6458 186.61C89.5758 186.47 89.5758 186.33 89.5057 186.19C89.4356 185.98 89.3656 185.839 89.2955 185.629V185.559C89.2254 185.419 89.2254 185.279 89.1554 185.139C89.0853 184.929 89.0152 184.718 89.0152 184.508C89.0152 184.368 88.9452 184.228 88.9452 184.088C88.8751 183.737 88.805 183.387 88.735 183.037C88.735 182.967 88.735 182.897 88.735 182.827C88.6649 182.546 88.6649 182.196 88.6649 181.916C88.6649 181.846 88.6649 181.706 88.6649 181.635C88.6649 181.565 88.6649 181.425 88.6649 181.355C88.6649 181.285 88.6649 181.145 88.6649 181.075V181.005C88.6649 180.865 88.6649 180.725 88.6649 180.584C88.6649 180.444 88.6649 180.374 88.6649 180.234C88.6649 180.164 88.6649 180.164 88.6649 180.094C88.6649 179.954 88.6649 179.884 88.6649 179.744C88.6649 179.674 88.6649 179.534 88.6649 179.463C88.6649 179.253 88.735 179.113 88.735 178.903C88.735 178.833 88.735 178.693 88.805 178.623C88.805 178.483 88.8751 178.412 88.8751 178.342C88.8751 178.272 88.8751 178.272 88.9452 178.202C88.9452 178.132 89.0152 178.062 89.0152 177.992C89.0152 177.922 89.0853 177.852 89.0853 177.782C89.1554 177.642 89.1554 177.502 89.2254 177.432C89.2955 177.361 89.2955 177.221 89.3656 177.151C89.3656 177.081 89.4356 177.011 89.5057 176.941C89.5758 176.871 89.6458 176.731 89.7159 176.661C89.7159 176.591 89.786 176.521 89.856 176.451C89.9261 176.381 89.9261 176.31 89.9962 176.24C90.0662 176.17 90.0662 176.1 90.1363 176.03L90.2064 175.96C90.2764 175.89 90.2764 175.89 90.3465 175.82C90.4166 175.75 90.4866 175.68 90.4866 175.68C90.5567 175.61 90.6268 175.54 90.6968 175.54L90.7669 175.47L90.837 175.4C90.907 175.33 90.9771 175.33 91.0471 175.259C91.1172 175.189 91.2573 175.119 91.3274 175.119L91.4675 175.049C92.2383 174.629 93.0791 174.489 94.06 174.489C95.0409 174.559 96.0919 174.839 97.2129 175.4C97.4231 175.54 97.7034 175.61 97.9136 175.75C97.9837 175.82 98.0537 175.82 98.1238 175.89H98.1939L98.2639 175.82L98.4041 176.1C98.5442 176.17 98.6843 176.24 98.8244 176.381C98.8945 176.451 98.9646 176.451 99.0346 176.521C99.1748 176.591 99.3149 176.731 99.455 176.801C99.6652 176.941 99.8754 177.081 100.086 177.291C100.156 177.361 100.226 177.361 100.296 177.432C100.646 177.712 100.996 178.062 101.347 178.412C101.417 178.483 101.487 178.553 101.557 178.623C101.627 178.693 101.767 178.833 101.837 178.973C101.907 179.043 102.047 179.183 102.118 179.253C102.188 179.323 102.258 179.393 102.328 179.463C102.398 179.534 102.468 179.674 102.608 179.744C102.678 179.884 102.818 180.024 102.888 180.094C102.958 180.164 102.958 180.234 103.028 180.304C103.169 180.444 103.239 180.584 103.379 180.725C104.009 181.565 104.57 182.476 105.06 183.457C105.13 183.667 105.27 183.808 105.341 184.018C105.341 184.088 105.411 184.088 105.411 184.158C105.411 184.228 105.481 184.298 105.481 184.298C105.551 184.438 105.551 184.508 105.621 184.648C105.691 184.788 105.691 184.858 105.761 184.999C105.831 185.069 105.831 185.209 105.901 185.279C105.971 185.559 106.111 185.769 106.181 186.05C106.251 186.12 106.251 186.26 106.321 186.4C106.392 186.54 106.462 186.75 106.462 186.89C106.532 187.241 106.672 187.521 106.742 187.871C106.742 188.011 106.812 188.082 106.812 188.222C106.882 188.432 106.952 188.712 106.952 188.922V188.992C106.952 189.062 107.022 189.203 107.022 189.273C107.022 189.343 107.022 189.413 107.022 189.483C107.022 189.553 107.022 189.623 107.022 189.693C107.022 189.763 107.022 189.763 107.022 189.833C107.022 189.903 107.022 190.043 107.092 190.113C107.092 190.254 107.092 190.394 107.162 190.534C107.162 190.674 107.162 190.884 107.162 191.024C107.162 191.234 107.162 191.515 107.162 191.725C106.952 191.585 106.952 191.655 106.952 191.725Z" fill="#231F20" stroke="#231F20" stroke-width="0.201439" stroke-miterlimit="10" stroke-linecap="round" stroke-linejoin="round"/>
        <path d="M104.499 189.202C104.499 189.413 104.499 189.553 104.499 189.763C104.499 189.973 104.499 190.113 104.429 190.253C104.359 190.604 104.289 190.884 104.219 191.234C103.939 192.145 103.448 192.776 102.748 193.196H102.678C102.397 193.336 102.117 193.476 101.767 193.547C100.786 193.757 99.5246 193.547 98.1934 192.776C95.0404 190.954 92.448 186.82 92.0276 183.107C91.9575 182.756 91.9575 182.406 91.9575 182.056C91.9575 181.565 92.0276 181.075 92.0976 180.654C92.3078 179.744 92.6582 179.043 93.1486 178.552C93.3588 178.342 93.569 178.202 93.7792 178.062L93.8493 177.992C94.55 177.642 95.3907 177.501 96.3717 177.712C96.7921 177.782 97.2124 177.992 97.7029 178.202C97.843 178.272 97.9832 178.342 98.1934 178.482C99.1743 179.043 100.155 179.884 100.996 180.865C102.187 182.196 103.098 183.877 103.729 185.559C104.009 186.26 104.149 187.03 104.289 187.731C104.429 188.222 104.499 188.712 104.499 189.202Z" fill="#6E6657" stroke="#231F20" stroke-width="0.0802954" stroke-miterlimit="10" stroke-linecap="round" stroke-linejoin="round"/>
        <path d="M106.252 195.158C105.831 196.139 105.13 196.91 104.36 197.4L104.29 197.47C102.608 198.451 100.296 198.311 97.7035 196.84C97.4933 196.7 97.2131 196.559 97.0029 196.419C96.8627 196.349 96.7226 196.209 96.5124 196.069C96.3723 195.929 96.2321 195.859 96.092 195.719C95.9519 195.579 95.8117 195.509 95.6716 195.368C95.6015 195.298 95.5315 195.228 95.4614 195.158C95.3213 195.018 95.1812 194.878 95.041 194.808C94.9009 194.668 94.7608 194.528 94.6206 194.387C94.5506 194.317 94.4805 194.247 94.4104 194.177C94.2703 194.037 94.2002 193.967 94.0601 193.827C93.99 193.687 93.8499 193.617 93.7798 193.477C93.7098 193.407 93.6397 193.336 93.5696 193.266C93.4996 193.126 93.3594 193.056 93.2894 192.916C93.2193 192.846 93.1493 192.776 93.0792 192.706C93.0091 192.636 92.9391 192.566 92.869 192.496C92.7989 192.426 92.7289 192.356 92.6588 192.285C92.5887 192.215 92.5187 192.145 92.5187 192.075C92.4486 191.935 92.3085 191.795 92.2384 191.655C92.2384 191.655 92.2384 191.585 92.1683 191.585C92.0983 191.445 91.9581 191.305 91.8881 191.164C91.7479 190.884 91.5377 190.674 91.3976 190.394C91.2575 190.184 91.1874 190.043 91.1173 189.833C91.0473 189.623 90.9071 189.483 90.8371 189.273C90.767 189.062 90.6269 188.922 90.5568 188.712C90.4868 188.502 90.3466 188.362 90.2766 188.152C90.2065 188.082 90.2065 188.011 90.1364 187.871C90.0664 187.731 90.0664 187.661 89.9963 187.521C89.9262 187.381 89.8562 187.171 89.7861 187.031C89.716 186.89 89.646 186.75 89.646 186.61C89.5759 186.47 89.5759 186.33 89.5058 186.19C89.4358 185.98 89.3657 185.839 89.2956 185.629V185.559C89.2256 185.419 89.2256 185.279 89.1555 185.139C89.0854 184.929 89.0154 184.718 89.0154 184.508C89.0154 184.368 88.9453 184.228 88.9453 184.088C88.8752 183.737 88.8052 183.387 88.7351 183.037C88.7351 182.967 88.7351 182.897 88.7351 182.827C88.665 182.546 88.665 182.196 88.665 181.916C88.665 181.846 88.665 181.706 88.665 181.635C88.665 181.565 88.665 181.425 88.665 181.355C88.665 181.285 88.665 181.145 88.665 181.075V181.005C88.665 180.865 88.665 180.725 88.665 180.584C88.665 180.444 88.665 180.374 88.665 180.234C88.665 180.164 88.665 180.164 88.665 180.094C88.665 179.954 88.665 179.884 88.665 179.744C88.665 179.674 88.665 179.534 88.665 179.463C88.665 179.253 88.7351 179.113 88.7351 178.903C88.7351 178.833 88.7351 178.693 88.8052 178.623C88.8052 178.483 88.8752 178.412 88.8752 178.342C88.8752 178.272 88.8752 178.272 88.9453 178.202C88.9453 178.132 89.0154 178.062 89.0154 177.992C89.0154 177.922 89.0854 177.852 89.0854 177.782C89.1555 177.642 89.1555 177.502 89.2256 177.432C89.2956 177.361 89.2956 177.221 89.3657 177.151C89.3657 177.081 89.4358 177.011 89.5058 176.941C89.5759 176.871 89.646 176.731 89.716 176.661C89.7861 176.591 89.7861 176.521 89.8562 176.451C89.9262 176.381 89.9262 176.31 89.9963 176.24C90.0664 176.17 90.0664 176.1 90.1364 176.03L90.2065 175.96C90.2766 175.89 90.2766 175.89 90.3466 175.82C90.4167 175.75 90.4868 175.68 90.4868 175.68C90.5568 175.61 90.6269 175.54 90.6969 175.54L90.767 175.47L90.8371 175.4C90.9071 175.33 90.9772 175.33 91.0473 175.259C91.1173 175.189 91.2575 175.119 91.3275 175.119L91.4677 175.049C92.2384 174.629 93.0792 174.489 94.0601 174.489C93.6397 175.47 93.3594 176.661 93.3594 178.132C93.3594 178.272 93.3594 178.483 93.3594 178.623C92.869 179.113 92.5187 179.814 92.3085 180.725C92.2384 181.145 92.1683 181.635 92.1683 182.126C92.1683 182.476 92.1683 182.827 92.2384 183.177C92.6588 186.89 95.2512 191.094 98.4042 192.846C99.7354 193.617 100.927 193.827 101.978 193.617C102.188 193.757 102.398 193.897 102.608 193.967C103.799 194.668 105.06 195.088 106.252 195.158Z" fill="#49443A" stroke="#231F20" stroke-width="0.0802954" stroke-miterlimit="10" stroke-linecap="round" stroke-linejoin="round"/>
        <path d="M97.984 175.75L93.9902 177.992L93.9201 178.062C93.7099 178.202 93.4997 178.342 93.2896 178.553C93.2896 178.412 93.2896 178.202 93.2896 178.062C93.2896 176.661 93.4997 175.4 93.9902 174.419C94.9711 174.489 96.0221 174.769 97.1432 175.33C97.3534 175.47 97.6336 175.54 97.8438 175.68C97.8438 175.61 97.9139 175.68 97.984 175.75Z" fill="#6E6657" stroke="#231F20" stroke-width="0.0802954" stroke-miterlimit="10" stroke-linecap="round" stroke-linejoin="round"/>
        <path d="M106.952 191.515C106.952 191.585 106.952 191.655 106.952 191.725C106.952 191.935 106.952 192.145 106.952 192.355C106.882 193.476 106.671 194.387 106.321 195.158C105.13 195.088 103.869 194.668 102.468 193.897C102.257 193.757 102.047 193.687 101.837 193.547C102.187 193.476 102.468 193.336 102.748 193.196H102.818L106.251 191.304L106.742 191.024L106.952 190.884C106.952 191.024 106.952 191.304 106.952 191.515Z" fill="#6E6657" stroke="#231F20" stroke-width="0.0802954" stroke-miterlimit="10" stroke-linecap="round" stroke-linejoin="round"/>
        <path d="M112.768 194.878C112.768 194.948 112.768 195.018 112.768 195.088C112.768 195.228 112.768 195.298 112.768 195.438C112.698 196.7 112.557 197.821 112.347 198.872L107.092 201.955C109.124 200.693 110.456 198.241 110.666 194.808C110.666 194.598 110.666 194.457 110.666 194.247C110.666 194.107 110.666 194.037 110.666 193.897C110.666 193.827 110.666 193.757 110.666 193.687C110.666 193.406 110.666 193.126 110.666 192.776C110.666 192.285 110.596 191.795 110.526 191.234C110.526 191.094 110.526 190.954 110.456 190.884C110.456 190.744 110.385 190.604 110.385 190.534C110.385 190.394 110.315 190.254 110.315 190.183C110.315 190.043 110.245 189.903 110.245 189.833C110.245 189.693 110.175 189.553 110.175 189.413C110.175 189.273 110.105 189.132 110.105 189.062C110.035 188.782 109.965 188.572 109.895 188.292C109.895 188.152 109.825 188.011 109.825 187.871C109.825 187.731 109.755 187.591 109.685 187.451C109.615 187.311 109.615 187.171 109.545 187.031C109.475 186.89 109.475 186.75 109.405 186.61C109.334 186.47 109.334 186.33 109.264 186.26C109.194 186.12 109.194 185.98 109.124 185.839C109.054 185.629 108.914 185.349 108.844 185.139C108.774 184.858 108.634 184.648 108.564 184.368C108.564 184.298 108.494 184.228 108.494 184.158C108.494 184.088 108.424 184.018 108.424 183.948C108.354 183.878 108.354 183.737 108.283 183.667C108.213 183.527 108.143 183.387 108.143 183.317C108.073 183.177 108.073 183.107 108.003 182.967C108.003 182.897 107.933 182.827 107.933 182.757C107.933 182.686 107.863 182.616 107.863 182.546C107.793 182.406 107.723 182.266 107.653 182.196C107.513 181.916 107.373 181.635 107.162 181.355C107.162 181.355 107.162 181.355 107.162 181.285C107.162 181.285 107.162 181.285 107.162 181.215C107.092 181.145 107.092 181.075 107.022 181.005C106.952 180.865 106.882 180.725 106.742 180.584C106.672 180.444 106.602 180.304 106.462 180.164C106.392 180.024 106.322 179.884 106.181 179.744C106.111 179.604 105.971 179.463 105.901 179.323C105.901 179.253 105.831 179.253 105.831 179.183C105.831 179.183 105.831 179.183 105.831 179.113C105.761 179.043 105.761 178.973 105.691 178.903C105.621 178.833 105.551 178.763 105.481 178.623C105.481 178.553 105.411 178.553 105.411 178.482C105.341 178.342 105.201 178.202 105.131 178.062C104.99 177.922 104.92 177.782 104.78 177.642L104.71 177.572C104.64 177.502 104.57 177.432 104.57 177.361C104.5 177.291 104.43 177.221 104.43 177.151C104.15 176.871 103.939 176.521 103.659 176.24C103.589 176.1 103.449 176.03 103.379 175.89C103.239 175.68 103.029 175.54 102.888 175.4C102.748 175.259 102.538 175.049 102.398 174.909C102.328 174.839 102.328 174.839 102.258 174.769C102.188 174.699 102.188 174.699 102.118 174.629C101.978 174.559 101.907 174.419 101.767 174.349C101.697 174.279 101.557 174.138 101.487 174.068C101.417 173.998 101.277 173.858 101.207 173.788C101.137 173.718 101.067 173.648 100.997 173.578C100.927 173.508 100.856 173.438 100.786 173.368C100.716 173.298 100.646 173.228 100.576 173.157C100.506 173.087 100.436 173.017 100.366 172.947C100.296 172.877 100.156 172.807 100.086 172.737C100.016 172.667 99.8756 172.597 99.8055 172.527C99.7354 172.457 99.5953 172.387 99.5252 172.317C99.315 172.177 99.1049 172.036 98.8947 171.896C98.8246 171.826 98.6845 171.756 98.6144 171.686C98.4743 171.616 98.4042 171.546 98.2641 171.476C98.194 171.406 98.1239 171.406 98.0539 171.336C97.7035 171.126 97.4233 170.985 97.0729 170.845C93.99 169.304 91.1874 169.234 89.0854 170.355L94.7608 167.132L97.3532 168.673L99.1749 169.724C106.322 174.419 112.067 184.088 112.908 192.706C112.698 193.406 112.768 194.177 112.768 194.878Z" fill="url(#paint1_linear_1_19911)" stroke="#231F20" stroke-width="0.201439" stroke-miterlimit="10" stroke-linecap="round" stroke-linejoin="round"/>
        <path d="M106.952 190.814C106.882 190.814 106.882 190.814 106.952 190.814L106.672 190.954L106.181 191.234L102.748 193.126C103.379 192.706 103.869 192.075 104.22 191.164C104.29 190.884 104.36 190.534 104.43 190.183C104.43 190.043 104.5 189.833 104.5 189.693C104.5 189.553 104.5 189.343 104.5 189.132C104.5 188.642 104.43 188.152 104.36 187.661C104.22 186.96 104.079 186.26 103.799 185.489C103.169 183.807 102.258 182.126 101.067 180.795C100.226 179.814 99.2449 178.973 98.264 178.412C98.1239 178.342 97.9137 178.272 97.7735 178.132C97.3531 177.922 96.8627 177.782 96.4423 177.642C95.4614 177.431 94.6206 177.502 93.9199 177.922L97.9837 175.75C98.0538 175.82 98.1939 175.89 98.264 175.96C98.4041 176.03 98.5443 176.1 98.6844 176.24C98.7545 176.31 98.8245 176.31 98.8946 176.38C99.0347 176.451 99.1749 176.591 99.315 176.661C99.5252 176.801 99.7354 176.941 99.9456 177.151C100.016 177.221 100.086 177.221 100.156 177.291C100.506 177.572 100.856 177.922 101.207 178.272C101.277 178.342 101.347 178.412 101.417 178.482C101.487 178.553 101.627 178.693 101.697 178.833C101.767 178.903 101.907 179.043 101.977 179.113C102.048 179.183 102.118 179.253 102.188 179.323C102.258 179.393 102.328 179.533 102.468 179.603C102.538 179.744 102.678 179.884 102.748 179.954C102.818 180.024 102.818 180.094 102.888 180.164C103.028 180.304 103.099 180.444 103.239 180.584C103.869 181.425 104.43 182.336 104.92 183.317C104.99 183.527 105.13 183.667 105.201 183.878C105.201 183.948 105.271 183.948 105.271 184.018C105.271 184.088 105.341 184.158 105.341 184.158C105.411 184.298 105.411 184.368 105.481 184.508C105.551 184.648 105.551 184.718 105.621 184.858C105.691 184.928 105.691 185.069 105.761 185.139C105.831 185.419 105.971 185.629 106.041 185.909C106.111 185.979 106.111 186.12 106.181 186.26C106.251 186.4 106.322 186.61 106.322 186.75C106.392 187.101 106.532 187.381 106.602 187.731C106.602 187.871 106.672 187.941 106.672 188.081C106.742 188.292 106.812 188.572 106.812 188.782V188.852C106.812 188.922 106.882 189.062 106.882 189.132C106.882 189.203 106.882 189.273 106.882 189.343C106.882 189.413 106.882 189.483 106.882 189.553C106.882 189.623 106.882 189.623 106.882 189.693C106.882 189.763 106.882 189.903 106.952 189.973C106.952 190.113 106.952 190.253 107.022 190.394C106.882 190.464 106.882 190.674 106.952 190.814Z" fill="#49443A" stroke="#231F20" stroke-width="0.0802954" stroke-miterlimit="10" stroke-linecap="round" stroke-linejoin="round"/>
        <path d="M46.4853 145.201C46.4153 145.131 46.2751 145.061 46.2051 144.991H46.2751L46.3452 144.921L46.4853 145.201Z" fill="#F1F2F2" stroke="#231F20" stroke-width="0.0802954" stroke-miterlimit="10" stroke-linecap="round" stroke-linejoin="round"/>
        <path d="M116.901 152.698L98.4737 162.858L96.1615 164.329L53.7017 140.157L41.5103 133.29L43.9626 131.749L62.3899 121.169L116.901 152.698Z" fill="#F1F2F2" stroke="#231F20" stroke-width="0.201439" stroke-miterlimit="10" stroke-linecap="round" stroke-linejoin="round"/>
        <path d="M116.901 152.698V155.992L98.8241 165.941L98.4738 166.081V191.795L96.1616 193.126V164.329L98.4738 162.858L116.901 152.698Z" fill="#F1F2F2" stroke="#231F20" stroke-width="0.201439" stroke-miterlimit="10" stroke-linecap="round" stroke-linejoin="round"/>
        <path d="M96.1615 164.329V193.126L43.9626 163.208L41.5103 161.807V133.29L53.7017 140.157L96.1615 164.329Z" fill="#F1F2F2" stroke="#231F20" stroke-width="0.201439" stroke-miterlimit="10" stroke-linecap="round" stroke-linejoin="round"/>
        <path opacity="0.14" d="M96.1615 164.329V193.126L43.9626 163.208L41.5103 161.807V133.29L53.7017 140.157L96.1615 164.329Z" fill="black" stroke="#231F20" stroke-width="0.201439" stroke-miterlimit="10"/>
    </g>
    <defs>
        <linearGradient id="paint0_linear_1_19911" x1="57.3255" y1="170.276" x2="52.3919" y2="136.825" gradientUnits="userSpaceOnUse">
            <stop stop-color="#58595B"/>
            <stop offset="1"/>
        </linearGradient>
        <linearGradient id="paint1_linear_1_19911" x1="95.2525" y1="169.25" x2="106.91" y2="190.243" gradientUnits="userSpaceOnUse">
            <stop stop-color="#58595B"/>
            <stop offset="1"/>
        </linearGradient>
        <clipPath id="">
            <rect width="103.627" height="87.4421" fill="white" transform="translate(28.6182 121.099)"/>
        </clipPath>
    </defs>
</svg>
