<svg width="230" height="230" viewBox="0 0 230 230" fill="none"
    xmlns="http://www.w3.org/2000/svg">
    <g clip-path="url(#)">
        <path d="M108.774 114.372C108.774 114.372 104.36 109.958 103.589 118.226C102.889 126.564 102.889 126.564 102.889 126.564L111.156 139.035L120.896 140.086L121.596 135.042L108.774 114.372Z" fill="#49443A" stroke="#231F20" stroke-width="0.162342" stroke-miterlimit="10" stroke-linecap="round" stroke-linejoin="round"/>
        <path d="M126.221 129.576C126.221 130.207 126.221 130.767 126.081 131.258C126.011 131.748 125.871 132.239 125.731 132.659C125.38 133.64 124.82 134.411 124.049 134.971C123.348 135.462 122.508 135.742 121.527 135.742C121.457 135.742 121.386 135.742 121.316 135.742C120.265 135.742 119.004 135.392 117.743 134.691C117.743 134.691 117.673 134.691 117.673 134.621C112.838 131.959 108.915 125.302 108.845 119.837C108.845 119.557 108.845 119.277 108.845 119.066C108.915 117.875 109.195 116.894 109.615 116.054C109.615 115.984 109.686 115.984 109.686 115.914C110.176 115.003 110.947 114.372 111.787 114.022C112.558 113.741 113.399 113.601 114.38 113.741C115.081 113.812 115.921 114.092 116.692 114.442C116.902 114.512 117.112 114.652 117.323 114.792C117.463 114.863 117.533 114.933 117.673 115.003L117.743 115.073C121.597 118.786 124.68 124.041 126.081 129.226V129.296C126.151 129.366 126.221 129.436 126.221 129.576Z" fill="#6E6657" stroke="#231F20" stroke-width="0.162342" stroke-miterlimit="10" stroke-linecap="round" stroke-linejoin="round"/>
        <path d="M107.443 122.92C107.513 126.984 110.456 131.959 113.959 133.92C115.851 134.971 117.533 134.971 118.724 134.201C119.284 133.78 119.705 133.22 119.985 132.519C120.125 132.169 120.195 131.818 120.265 131.468C120.335 131.048 120.335 130.627 120.335 130.207C120.265 126.143 117.323 121.168 113.819 119.207C113.679 119.136 113.469 119.066 113.329 118.926C112.698 118.646 112.138 118.436 111.577 118.366C110.877 118.296 110.246 118.366 109.685 118.576C108.284 119.136 107.443 120.678 107.443 122.92Z" fill="#928874" stroke="#231F20" stroke-width="0.162342" stroke-miterlimit="10" stroke-linecap="round" stroke-linejoin="round"/>
        <path d="M109.686 118.576C110.246 118.366 110.877 118.296 111.577 118.366C112.138 118.436 112.698 118.646 113.329 118.926C113.469 118.996 113.679 119.067 113.819 119.207C117.393 121.239 120.336 126.143 120.336 130.207C120.336 130.627 120.336 131.118 120.265 131.468C120.195 131.819 120.125 132.169 119.985 132.519C119.705 133.29 119.285 133.85 118.724 134.201L122.227 132.099H122.297C123.489 131.398 124.189 129.997 124.119 127.895C124.119 123.831 121.176 118.926 117.603 116.894C116.062 116.054 114.66 115.844 113.539 116.264L112.698 116.824L109.686 118.576Z" fill="url(#paint0_linear_1_19911)" stroke="#231F20" stroke-width="0.162342" stroke-miterlimit="10" stroke-linecap="round" stroke-linejoin="round"/>
        <path d="M126.221 129.296C126.221 129.226 126.221 129.226 126.221 129.156C124.82 123.971 121.737 118.786 117.883 115.003C117.813 114.933 117.813 114.933 117.743 114.863C116.342 113.531 114.8 112.34 113.259 111.499C112.908 111.289 112.558 111.149 112.208 110.939C110.947 110.308 109.685 109.958 108.564 109.818C107.093 109.608 105.762 109.748 104.571 110.238C104.571 110.238 104.571 110.238 104.501 110.238C101.558 111.429 99.8062 114.652 99.8062 119.417C99.9463 128.105 106.112 138.475 113.609 142.679C117.603 144.921 121.176 144.921 123.629 143.169C124.75 142.328 125.66 141.137 126.221 139.596C126.501 138.895 126.641 138.194 126.781 137.424C126.922 136.583 126.992 135.742 126.992 134.761C126.992 132.94 126.711 131.118 126.221 129.296ZM119.915 137.354C118.374 138.475 116.061 138.475 113.539 137.003C108.775 134.341 104.851 127.685 104.781 122.219C104.711 119.207 105.902 117.105 107.794 116.334C108.354 116.124 108.985 115.984 109.685 115.984C109.755 115.984 109.826 115.984 109.826 115.984C109.966 115.984 110.176 115.984 110.316 116.054C111.017 116.124 111.787 116.404 112.628 116.754C112.838 116.824 113.049 116.965 113.259 117.105C118.023 119.767 121.947 126.423 122.017 131.889C122.017 131.959 122.017 132.099 122.017 132.169C122.017 132.659 121.947 133.15 121.877 133.57C121.807 134.061 121.667 134.551 121.527 134.971C121.456 135.252 121.316 135.462 121.246 135.672C120.966 136.443 120.476 137.003 119.915 137.354Z" fill="#231F20" stroke="#231F20" stroke-width="0.162342" stroke-miterlimit="10" stroke-linecap="round" stroke-linejoin="round"/>
        <path d="M133.088 137.704C133.438 137.564 133.788 137.354 134.139 137.073L133.088 137.704ZM126.151 129.156C124.75 123.971 121.667 118.786 117.813 115.003C117.743 114.933 117.743 114.933 117.673 114.863C117.673 114.863 117.673 114.863 117.673 114.933C117.883 115.773 118.164 116.614 118.444 117.455C119.705 120.888 121.667 124.181 124.049 126.984C124.68 127.755 125.38 128.525 126.081 129.156C126.221 129.226 126.221 129.226 126.151 129.156ZM113.539 105.124L113.469 105.194C113.96 104.913 114.38 104.633 114.66 104.493C114.73 104.493 114.73 104.423 114.8 104.423C114.871 104.423 114.871 104.353 114.941 104.353L115.011 104.283L115.081 104.213C114.52 104.423 113.96 104.703 113.539 105.124Z" fill="#231F20" stroke="#231F20" stroke-width="0.162342" stroke-miterlimit="10" stroke-linecap="round" stroke-linejoin="round"/>
        <path d="M135.399 136.022C135.329 136.093 135.189 136.163 135.189 136.233C135.259 136.163 135.329 136.093 135.399 136.022Z" fill="url(#paint1_linear_1_19911)" stroke="#231F20" stroke-width="0.162342" stroke-miterlimit="10" stroke-linecap="round" stroke-linejoin="round"/>
        <path d="M137.502 128.595C137.502 129.576 137.432 130.417 137.292 131.258C137.152 132.029 136.941 132.799 136.731 133.43C136.171 134.971 135.26 136.233 134.139 137.003L133.088 137.634L123.629 143.169C124.75 142.328 125.661 141.137 126.221 139.596C126.502 138.895 126.642 138.195 126.782 137.424C126.922 136.583 126.992 135.742 126.992 134.761C126.992 133.01 126.712 131.188 126.221 129.296C126.221 129.226 126.221 129.226 126.221 129.156C124.82 123.971 121.737 118.786 117.884 115.003C117.813 114.933 117.813 114.933 117.743 114.863C116.342 113.531 114.801 112.34 113.259 111.499C112.909 111.289 112.559 111.149 112.208 110.939C110.947 110.308 109.686 109.958 108.565 109.818C107.093 109.608 105.762 109.748 104.571 110.238C104.571 110.238 104.571 110.238 104.501 110.238L113.469 105.053L113.399 105.123C113.89 104.843 114.31 104.563 114.59 104.423C114.661 104.423 114.661 104.353 114.731 104.353C114.801 104.353 114.801 104.283 114.871 104.283L114.941 104.213L115.011 104.143C116.202 103.652 117.533 103.512 119.075 103.722C120.196 103.862 121.457 104.283 122.718 104.843C123.068 104.983 123.419 105.194 123.769 105.404C125.381 106.315 126.922 107.506 128.393 108.907C132.247 112.621 135.33 117.875 136.731 123.06C137.222 124.952 137.502 126.774 137.502 128.595Z" fill="url(#paint2_linear_1_19911)" stroke="#231F20" stroke-width="0.162342" stroke-miterlimit="10" stroke-linecap="round" stroke-linejoin="round"/>
        <path d="M114.66 104.423C114.38 104.563 113.96 104.843 113.469 105.124L113.539 105.053L114.66 104.423Z" fill="#C49A6C" stroke="#231F20" stroke-width="0.162342" stroke-miterlimit="10" stroke-linecap="round" stroke-linejoin="round"/>
        <path d="M128.463 135.742C128.463 136.653 128.393 137.494 128.322 138.335L94.0603 118.997C93.9202 117.875 93.8501 116.824 93.8501 115.773C93.8501 110.238 95.8119 106.315 98.9649 104.563L99.105 104.493C101.277 103.302 104.01 103.092 107.093 104.002C108.424 104.423 109.755 104.983 111.156 105.824C116.902 109.117 122.017 115.353 125.169 122.149C127.271 126.634 128.463 131.398 128.463 135.742Z" fill="#F1F2F2" stroke="#231F20" stroke-width="0.120163" stroke-miterlimit="10" stroke-linecap="round" stroke-linejoin="round"/>
        <path d="M141.215 128.525C141.215 129.436 141.144 130.277 141.074 131.118L128.322 138.335C128.392 137.494 128.463 136.653 128.463 135.742C128.463 131.328 127.271 126.634 125.169 122.15C122.016 115.353 116.902 109.117 111.156 105.824C109.755 105.053 108.424 104.423 107.092 104.002C104.01 103.092 101.277 103.302 99.105 104.493L111.296 97.5564L112.207 97.066C115.29 95.5946 119.354 95.9449 123.908 98.5373C133.437 104.073 141.215 117.525 141.215 128.525Z" fill="#F1F2F2" stroke="#231F20" stroke-width="0.120163" stroke-miterlimit="10" stroke-linecap="round" stroke-linejoin="round"/>
        <path d="M128.463 135.742C128.463 136.653 128.393 137.494 128.322 138.335L94.0603 118.997C93.9202 117.875 93.8501 116.824 93.8501 115.773C93.8501 110.238 95.8119 106.315 98.9649 104.563L99.105 104.493C101.277 103.302 104.01 103.092 107.093 104.002C108.424 104.423 109.755 104.983 111.156 105.824C116.902 109.117 122.017 115.353 125.169 122.149C127.271 126.634 128.463 131.398 128.463 135.742Z" fill="#F1F2F2" stroke="#231F20" stroke-width="0.120163" stroke-miterlimit="10" stroke-linecap="round" stroke-linejoin="round"/>
        <path opacity="0.14" d="M128.463 135.742C128.463 136.653 128.393 137.494 128.322 138.335L94.0603 118.997C93.9202 117.875 93.8501 116.824 93.8501 115.773C93.8501 110.238 95.8119 106.315 98.9649 104.563L99.105 104.493C101.277 103.302 104.01 103.092 107.093 104.002C108.424 104.423 109.755 104.983 111.156 105.824C116.902 109.117 122.017 115.353 125.169 122.149C127.271 126.634 128.463 131.398 128.463 135.742Z" fill="black" stroke="#231F20" stroke-width="0.163954" stroke-miterlimit="10"/>
        <path d="M158.169 142.259C158.169 142.259 153.755 137.844 152.985 146.112C152.214 154.38 152.214 154.45 152.214 154.45L160.482 166.922L170.221 167.973L170.921 162.928L158.169 142.259Z" fill="#49443A" stroke="#231F20" stroke-width="0.162342" stroke-miterlimit="10" stroke-linecap="round" stroke-linejoin="round"/>
        <path d="M175.546 157.393C175.546 158.023 175.546 158.584 175.406 159.074C175.336 159.565 175.195 160.055 175.055 160.476C174.705 161.457 174.144 162.227 173.374 162.788C172.673 163.278 171.832 163.559 170.851 163.559C170.781 163.559 170.711 163.559 170.641 163.559C169.59 163.559 168.329 163.208 167.068 162.508C167.068 162.508 166.998 162.508 166.998 162.438C162.233 159.775 158.239 153.189 158.169 147.724C158.169 147.443 158.169 147.163 158.169 146.953C158.239 145.762 158.52 144.781 158.94 143.94C158.94 143.87 159.01 143.87 159.01 143.8C159.501 142.889 160.271 142.259 161.112 141.908C161.883 141.628 162.724 141.488 163.705 141.628C164.405 141.698 165.246 141.978 166.017 142.329C166.227 142.399 166.437 142.539 166.647 142.679C166.788 142.749 166.858 142.819 166.998 142.889L167.068 142.959C170.921 146.673 174.004 151.928 175.406 157.113V157.183C175.546 157.183 175.546 157.323 175.546 157.393Z" fill="#6E6657" stroke="#231F20" stroke-width="0.162342" stroke-miterlimit="10" stroke-linecap="round" stroke-linejoin="round"/>
        <path d="M156.838 150.807C156.908 154.871 159.851 159.845 163.354 161.807C165.246 162.858 166.927 162.858 168.118 162.087C168.679 161.667 169.099 161.106 169.38 160.406C169.52 160.055 169.59 159.705 169.66 159.355C169.73 158.934 169.73 158.514 169.73 158.094C169.66 154.03 166.717 149.055 163.214 147.093C163.074 147.023 162.863 146.953 162.723 146.813C162.093 146.533 161.532 146.323 160.972 146.252C160.271 146.182 159.64 146.252 159.08 146.463C157.679 146.953 156.768 148.495 156.838 150.807Z" fill="#928874" stroke="#231F20" stroke-width="0.162342" stroke-miterlimit="10" stroke-linecap="round" stroke-linejoin="round"/>
        <path d="M159.01 146.392C159.57 146.182 160.201 146.112 160.902 146.182C161.462 146.252 162.023 146.463 162.653 146.743C162.793 146.813 163.004 146.883 163.144 147.023C166.717 149.055 169.66 153.96 169.66 158.023C169.66 158.444 169.66 158.934 169.59 159.285C169.52 159.635 169.45 159.985 169.309 160.336C169.029 161.106 168.609 161.667 168.048 162.017L171.552 159.915H171.622C172.813 159.215 173.513 157.813 173.443 155.711C173.373 151.647 170.43 146.673 166.927 144.711C165.386 143.87 163.984 143.66 162.863 144.08L161.953 144.641L159.01 146.392Z" fill="url(#paint3_linear_1_19911)" stroke="#231F20" stroke-width="0.162342" stroke-miterlimit="10" stroke-linecap="round" stroke-linejoin="round"/>
        <path d="M175.546 157.113C175.546 157.042 175.546 157.042 175.546 156.972C174.144 151.788 171.061 146.603 167.208 142.819C167.138 142.749 167.138 142.749 167.068 142.679C165.666 141.348 164.125 140.157 162.583 139.316C162.233 139.106 161.883 138.966 161.532 138.755C160.271 138.125 159.01 137.774 157.889 137.634C156.418 137.424 155.086 137.564 153.895 138.055C153.895 138.055 153.895 138.055 153.825 138.055C150.883 139.246 149.131 142.469 149.131 147.233C149.201 155.851 155.367 166.221 162.864 170.425C166.857 172.667 170.431 172.737 172.883 170.915C174.004 170.075 174.915 168.884 175.476 167.342C175.756 166.641 175.896 165.941 176.036 165.17C176.176 164.329 176.246 163.489 176.246 162.508C176.316 160.826 176.036 158.934 175.546 157.113ZM169.31 165.24C167.768 166.361 165.456 166.361 162.934 164.89C158.169 162.227 154.246 155.571 154.176 150.106C154.106 147.093 155.297 144.991 157.188 144.22C157.749 144.01 158.38 143.87 159.08 143.87C159.15 143.87 159.22 143.87 159.22 143.87C159.36 143.87 159.571 143.87 159.711 143.94C160.411 144.01 161.182 144.291 162.023 144.641C162.233 144.711 162.443 144.851 162.654 144.991C167.418 147.654 171.342 154.31 171.412 159.775C171.412 159.845 171.412 159.985 171.412 160.055C171.412 160.546 171.342 161.036 171.272 161.457C171.202 161.947 171.061 162.438 170.921 162.858C170.851 163.138 170.711 163.348 170.641 163.559C170.291 164.259 169.8 164.82 169.31 165.24Z" fill="#231F20" stroke="#231F20" stroke-width="0.162342" stroke-miterlimit="10" stroke-linecap="round" stroke-linejoin="round"/>
        <path d="M182.412 165.52C182.763 165.38 183.113 165.17 183.463 164.89L182.412 165.52ZM175.546 157.042C174.145 151.858 171.062 146.673 167.208 142.889C167.138 142.819 167.138 142.819 167.068 142.749C167.068 142.749 167.068 142.749 167.068 142.819C167.278 143.66 167.558 144.501 167.839 145.341C169.1 148.775 171.062 152.068 173.444 154.87C174.075 155.641 174.775 156.412 175.476 157.042C175.546 157.112 175.546 157.042 175.546 157.042ZM162.864 132.94L162.794 133.01C163.284 132.73 163.705 132.449 163.985 132.309C164.055 132.309 164.055 132.239 164.125 132.239C164.195 132.239 164.195 132.169 164.265 132.169L164.335 132.099L164.405 132.029C163.845 132.239 163.284 132.589 162.864 132.94Z" fill="#231F20" stroke="#231F20" stroke-width="0.162342" stroke-miterlimit="10" stroke-linecap="round" stroke-linejoin="round"/>
        <path d="M184.724 163.839C184.654 163.909 184.514 163.979 184.514 164.049C184.584 163.979 184.654 163.909 184.724 163.839Z" fill="url(#paint4_linear_1_19911)" stroke="#231F20" stroke-width="0.162342" stroke-miterlimit="10" stroke-linecap="round" stroke-linejoin="round"/>
        <path d="M186.827 156.482C186.827 157.463 186.757 158.304 186.616 159.144C186.476 159.915 186.266 160.686 186.056 161.317C185.495 162.858 184.585 164.119 183.464 164.89L182.413 165.52L172.954 171.056C174.075 170.215 174.986 169.024 175.546 167.482C175.826 166.782 175.966 166.081 176.107 165.31C176.247 164.469 176.317 163.629 176.317 162.648C176.317 160.896 176.037 159.074 175.546 157.183C175.546 157.113 175.546 157.113 175.546 157.043C174.145 151.858 171.062 146.673 167.208 142.889C167.138 142.819 167.138 142.819 167.068 142.749C165.667 141.418 164.125 140.227 162.584 139.386C162.234 139.176 161.883 139.036 161.533 138.825C160.272 138.195 159.011 137.844 157.889 137.704C156.418 137.494 155.087 137.634 153.896 138.125C153.896 138.125 153.896 138.125 153.826 138.125L162.794 132.94L162.724 133.01C163.214 132.73 163.635 132.449 163.915 132.309C163.985 132.309 163.985 132.239 164.055 132.239C164.125 132.239 164.125 132.169 164.195 132.169L164.265 132.099L164.336 132.029C165.527 131.539 166.858 131.398 168.399 131.609C169.52 131.749 170.782 132.169 172.043 132.73C172.393 132.87 172.743 133.08 173.094 133.29C174.705 134.201 176.247 135.392 177.718 136.793C181.572 140.507 184.655 145.762 186.056 150.947C186.546 152.768 186.827 154.66 186.827 156.482Z" fill="url(#paint5_linear_1_19911)" stroke="#231F20" stroke-width="0.162342" stroke-miterlimit="10" stroke-linecap="round" stroke-linejoin="round"/>
        <path d="M163.985 132.239C163.705 132.379 163.284 132.66 162.794 132.94L162.864 132.87L163.985 132.239Z" fill="#C49A6C" stroke="#231F20" stroke-width="0.162342" stroke-miterlimit="10" stroke-linecap="round" stroke-linejoin="round"/>
        <path d="M177.788 163.629C177.788 164.539 177.718 165.38 177.648 166.221L143.386 146.883C143.246 145.762 143.176 144.711 143.176 143.66C143.176 138.125 145.138 134.201 148.291 132.449L148.431 132.309C150.603 131.118 153.335 130.908 156.418 131.819C157.749 132.239 159.081 132.8 160.482 133.64C166.227 136.934 171.342 143.169 174.495 149.966C176.597 154.45 177.788 159.214 177.788 163.629Z" fill="#F1F2F2" stroke="#231F20" stroke-width="0.120163" stroke-miterlimit="10" stroke-linecap="round" stroke-linejoin="round"/>
        <path d="M177.788 163.629C177.788 164.539 177.718 165.38 177.648 166.221L143.386 146.883C143.246 145.762 143.176 144.711 143.176 143.66C143.176 138.125 145.138 134.201 148.291 132.449L148.431 132.309C150.603 131.118 153.335 130.908 156.418 131.819C157.749 132.239 159.081 132.8 160.482 133.64C166.227 136.934 171.342 143.169 174.495 149.966C176.597 154.45 177.788 159.214 177.788 163.629Z" fill="#F1F2F2" stroke="#231F20" stroke-width="0.120163" stroke-miterlimit="10" stroke-linecap="round" stroke-linejoin="round"/>
        <path opacity="0.14" d="M177.788 163.629C177.788 164.539 177.718 165.38 177.648 166.221L143.386 146.883C143.246 145.762 143.176 144.711 143.176 143.66C143.176 138.125 145.138 134.201 148.291 132.449L148.431 132.309C150.603 131.118 153.335 130.908 156.418 131.819C157.749 132.239 159.081 132.8 160.482 133.64C166.227 136.934 171.342 143.169 174.495 149.966C176.597 154.45 177.788 159.214 177.788 163.629Z" fill="black" stroke="#231F20" stroke-width="0.163954" stroke-miterlimit="10"/>
        <path d="M190.54 156.342C190.54 157.253 190.47 158.093 190.4 158.934L177.648 166.151C177.718 165.31 177.788 164.469 177.788 163.559C177.788 159.144 176.597 154.45 174.495 149.966C171.342 143.169 166.227 136.934 160.482 133.64C159.081 132.8 157.749 132.239 156.418 131.819C153.335 130.908 150.603 131.118 148.431 132.309L160.622 125.443L161.533 124.952C164.616 123.481 168.75 123.831 173.234 126.424C182.763 131.959 190.54 145.341 190.54 156.342Z" fill="#F1F2F2" stroke="#231F20" stroke-width="0.120163" stroke-miterlimit="10" stroke-linecap="round" stroke-linejoin="round"/>
        <path d="M176.738 159.705L176.177 160.055C176.107 160.055 176.107 160.055 176.037 160.055C176.317 159.915 176.528 159.845 176.738 159.705Z" fill="#F1F2F2" stroke="#231F20" stroke-width="0.227924" stroke-miterlimit="10" stroke-linecap="round" stroke-linejoin="round"/>
        <path d="M176.738 159.705L176.177 160.055C176.107 160.055 176.107 160.055 176.037 160.055C176.317 159.915 176.528 159.845 176.738 159.705Z" fill="#F1F2F2" stroke="#231F20" stroke-width="0.227924" stroke-miterlimit="10" stroke-linecap="round" stroke-linejoin="round"/>
        <path d="M176.738 159.705L176.177 160.055C176.107 160.055 176.107 160.055 176.037 160.055C176.317 159.915 176.528 159.845 176.738 159.705Z" fill="#F1F2F2" stroke="#231F20" stroke-width="0.227924" stroke-miterlimit="10" stroke-linecap="round" stroke-linejoin="round"/>
        <path d="M176.738 159.705L176.177 160.055C176.107 160.055 176.107 160.055 176.037 160.055C176.317 159.915 176.528 159.845 176.738 159.705Z" fill="#F1F2F2" stroke="#231F20" stroke-width="0.227924" stroke-miterlimit="10" stroke-linecap="round" stroke-linejoin="round"/>
        <path d="M176.738 159.705L176.177 160.055C176.107 160.055 176.107 160.055 176.037 160.055C176.317 159.915 176.528 159.845 176.738 159.705Z" fill="#F1F2F2" stroke="#231F20" stroke-width="0.227924" stroke-miterlimit="10" stroke-linecap="round" stroke-linejoin="round"/>
        <path d="M171.623 156.342C171.623 157.253 171.553 158.163 171.412 159.004C171.342 159.495 171.202 159.915 171.132 160.335C170.992 160.896 170.782 161.386 170.572 161.877C170.431 162.157 170.291 162.437 170.151 162.718C169.941 163.138 169.661 163.488 169.381 163.839C168.96 164.329 168.4 164.75 167.839 165.1L167.699 165.17C165.247 166.571 161.954 166.361 158.24 164.189C157.75 163.909 157.329 163.629 156.909 163.348L108.633 135.462C108.353 135.322 108.073 135.182 107.793 134.972C100.296 130.698 94.27 120.258 94.27 111.71C94.27 109.958 94.4802 108.487 94.9707 107.226C95.6013 105.334 96.7223 103.932 98.1236 103.092C98.1937 103.092 98.1937 103.022 98.2638 103.022C98.8944 102.671 99.525 102.461 100.226 102.321C100.366 102.181 100.576 102.181 100.786 102.111C100.996 102.111 101.207 102.041 101.417 102.041L103.589 101.83L104.079 101.76L110.946 101.2L111.436 101.13L115.29 100.78H117.111L120.405 100.499L126.08 100.079C126.43 100.009 126.71 100.009 127.061 100.009C127.201 100.009 127.411 100.009 127.621 100.009C128.602 100.009 129.583 100.219 130.704 100.639C131.545 100.92 132.456 101.34 133.367 101.83C134.628 102.601 135.889 103.512 137.08 104.563C138.061 105.474 138.972 106.455 139.883 107.506L139.953 107.576C140.163 107.856 140.443 108.136 140.654 108.417L152.284 123.13L152.985 124.041L154.737 126.213L155.087 126.634L157.609 129.857L160.062 132.94L163.705 137.564C164.336 138.195 164.896 138.895 165.457 139.666C165.877 140.156 166.228 140.717 166.578 141.207C169.451 145.481 171.412 150.526 171.693 155.151C171.553 155.501 171.623 155.921 171.623 156.342Z" fill="#F1F2F2" stroke="#231F20" stroke-width="0.227924" stroke-miterlimit="10" stroke-linecap="round" stroke-linejoin="round"/>
        <path opacity="0.14" d="M171.623 156.342C171.623 157.253 171.553 158.163 171.412 159.004C171.342 159.495 171.202 159.915 171.132 160.335C170.992 160.896 170.782 161.386 170.572 161.877C170.431 162.157 170.291 162.437 170.151 162.718C169.941 163.138 169.661 163.488 169.381 163.839C168.96 164.329 168.4 164.75 167.839 165.1L167.699 165.17C165.247 166.571 161.954 166.361 158.24 164.189C157.75 163.909 157.329 163.629 156.909 163.348L108.633 135.462C108.353 135.322 108.073 135.182 107.793 134.972C100.296 130.698 94.27 120.258 94.27 111.71C94.27 109.958 94.4802 108.487 94.9707 107.226C95.6013 105.334 96.7223 103.932 98.1236 103.092C98.1937 103.092 98.1937 103.022 98.2638 103.022C98.8944 102.671 99.525 102.461 100.226 102.321C100.366 102.181 100.576 102.181 100.786 102.111C100.996 102.111 101.207 102.041 101.417 102.041L103.589 101.83L104.079 101.76L110.946 101.2L111.436 101.13L115.29 100.78H117.111L120.405 100.499L126.08 100.079C126.43 100.009 126.71 100.009 127.061 100.009C127.201 100.009 127.411 100.009 127.621 100.009C128.602 100.009 129.583 100.219 130.704 100.639C131.545 100.92 132.456 101.34 133.367 101.83C134.628 102.601 135.889 103.512 137.08 104.563C138.061 105.474 138.972 106.455 139.883 107.506L139.953 107.576C140.163 107.856 140.443 108.136 140.654 108.417L152.284 123.13L152.985 124.041L154.737 126.213L155.087 126.634L157.609 129.857L160.062 132.94L163.705 137.564C164.336 138.195 164.896 138.895 165.457 139.666C165.877 140.156 166.228 140.717 166.578 141.207C169.451 145.481 171.412 150.526 171.693 155.151C171.553 155.501 171.623 155.921 171.623 156.342Z" fill="black" stroke="#231F20" stroke-width="0.227924" stroke-miterlimit="10"/>
        <path d="M180.731 151.017C180.731 155.291 179.26 158.233 176.878 159.705L176.738 159.775C176.527 159.915 176.317 159.985 176.037 160.125C176.107 160.125 176.107 160.125 176.177 160.125L171.903 162.648L170.922 163.208L169.591 163.979L167.769 165.03C168.33 164.68 168.82 164.259 169.311 163.769C169.591 163.418 169.871 163.068 170.081 162.648C170.221 162.367 170.362 162.087 170.502 161.807C170.712 161.316 170.922 160.826 171.062 160.265C171.202 159.845 171.272 159.425 171.343 158.934C171.483 158.093 171.553 157.253 171.553 156.272C171.553 155.851 171.553 155.431 171.483 155.01C171.202 150.386 169.241 145.341 166.368 141.067C166.018 140.507 165.597 140.016 165.247 139.526C164.686 138.825 164.126 138.125 163.495 137.424L159.852 132.8L157.399 129.717L154.877 126.494L154.527 126.073L152.775 123.901L152.074 122.99L140.444 108.277C140.233 107.996 140.023 107.716 139.743 107.436L139.673 107.366C138.832 106.315 137.851 105.334 136.87 104.423C135.679 103.372 134.488 102.461 133.157 101.69C132.246 101.2 131.405 100.78 130.494 100.499C129.443 100.149 128.392 99.9388 127.411 99.8687C127.201 99.8687 127.061 99.8687 126.851 99.8687C126.5 99.8687 126.22 99.9388 125.87 99.9388L120.194 100.429L117.112 100.78L115.22 100.92L111.366 101.27L110.876 101.34L104.009 101.901L103.519 101.971L101.347 102.181C101.137 102.181 100.926 102.181 100.716 102.251C100.506 102.251 100.366 102.321 100.156 102.321C99.455 102.461 98.8244 102.741 98.1938 103.022L100.226 101.831L107.302 97.6266C108.073 97.2062 108.914 96.926 109.825 96.7858C110.035 96.7858 110.245 96.7158 110.455 96.7158L111.086 96.6457L113.889 96.4355L115.5 96.2954L126.08 95.4546L129.163 95.1743L130.424 95.1042L135.189 94.6838C135.539 94.6138 135.819 94.6138 136.169 94.6138C138.061 94.5437 140.163 95.1743 142.405 96.4355C144.718 97.7667 146.96 99.7286 148.851 102.111L148.921 102.181C149.132 102.461 149.412 102.741 149.622 103.022L154.667 109.398L161.954 118.646L163.705 120.888L165.877 123.621L168.89 127.475L172.604 132.169C173.655 133.29 174.636 134.551 175.476 135.812C175.546 135.883 175.546 135.953 175.617 135.953C176.037 136.583 176.387 137.144 176.738 137.774C178.699 141.137 180.031 144.851 180.451 148.354C180.661 149.265 180.731 150.106 180.731 151.017Z" fill="#F1F2F2" stroke="#231F20" stroke-width="0.227924" stroke-miterlimit="10" stroke-linecap="round" stroke-linejoin="round"/>
    </g>
    <defs>
        <linearGradient id="paint0_linear_1_19911" x1="114.611" y1="117.625" x2="121.497" y2="130.231" gradientUnits="userSpaceOnUse">
            <stop stop-color="#C2B59B"/>
            <stop offset="1" stop-color="#49443A"/>
        </linearGradient>
        <linearGradient id="paint1_linear_1_19911" x1="135.337" y1="136.023" x2="135.234" y2="136.217" gradientUnits="userSpaceOnUse">
            <stop stop-color="#58595B"/>
            <stop offset="1"/>
        </linearGradient>
        <linearGradient id="paint2_linear_1_19911" x1="122.194" y1="140.834" x2="120.221" y2="104.589" gradientUnits="userSpaceOnUse">
            <stop/>
            <stop offset="1" stop-color="#58595B"/>
        </linearGradient>
        <linearGradient id="paint3_linear_1_19911" x1="163.948" y1="145.468" x2="170.834" y2="158.074" gradientUnits="userSpaceOnUse">
            <stop stop-color="#C2B59B"/>
            <stop offset="1" stop-color="#49443A"/>
        </linearGradient>
        <linearGradient id="paint4_linear_1_19911" x1="184.675" y1="163.866" x2="184.572" y2="164.06" gradientUnits="userSpaceOnUse">
            <stop stop-color="#58595B"/>
            <stop offset="1"/>
        </linearGradient>
        <linearGradient id="paint5_linear_1_19911" x1="171.531" y1="168.677" x2="169.559" y2="132.432" gradientUnits="userSpaceOnUse">
            <stop/>
            <stop offset="1" stop-color="#58595B"/>
        </linearGradient>
        <clipPath id="">
            <rect width="96.8309" height="77.9131" fill="white" transform="translate(93.7793 94.4736)"/>
        </clipPath>
    </defs>
</svg>
