<svg width="230" height="230" viewBox="0 0 230 230" fill="none"
    xmlns="http://www.w3.org/2000/svg">
    <g clip-path="url(#)">
        <path d="M140.303 114.583L173.304 133.851L190.54 124.812L136.379 91.6011L140.303 114.583Z" fill="#F1F2F2" stroke="#231F20" stroke-width="0.201439" stroke-miterlimit="10" stroke-linecap="round" stroke-linejoin="round"/>
        <path opacity="0.2" d="M140.303 114.583L173.304 133.851L190.54 124.812L136.379 91.6011L140.303 114.583Z" fill="black" stroke="#231F20" stroke-width="0.0802954" stroke-miterlimit="10"/>
        <path d="M109.824 103.652C109.824 103.652 103.729 97.4865 102.678 109.047C101.557 120.538 101.557 120.538 101.557 120.538L113.117 137.914L126.64 139.316L127.621 132.309L109.824 103.652Z" fill="#49443A" stroke="#231F20" stroke-width="0.225612" stroke-miterlimit="10" stroke-linecap="round" stroke-linejoin="round"/>
        <path d="M133.997 124.742C133.997 125.583 133.927 126.354 133.857 127.124C133.717 127.825 133.577 128.456 133.367 129.086C132.876 130.488 132.035 131.538 131.054 132.239C130.073 132.94 128.882 133.29 127.551 133.36C127.481 133.36 127.341 133.36 127.271 133.36C125.799 133.36 124.118 132.87 122.296 131.889C122.226 131.889 122.226 131.819 122.156 131.819C115.43 128.035 109.965 118.787 109.895 111.219C109.895 110.869 109.895 110.449 109.895 110.098C109.965 108.417 110.385 107.015 110.946 105.894C110.946 105.824 111.016 105.754 111.086 105.684C111.786 104.423 112.767 103.512 114.028 103.022C115.079 102.601 116.271 102.461 117.602 102.671C118.583 102.812 119.704 103.162 120.825 103.722C121.105 103.863 121.455 104.003 121.736 104.213C121.876 104.283 122.016 104.353 122.226 104.493C122.296 104.493 122.296 104.563 122.366 104.563C127.761 109.748 132.035 117.035 133.927 124.182C133.927 124.252 133.927 124.252 133.927 124.322C133.997 124.392 133.997 124.532 133.997 124.742Z" fill="#6E6657" stroke="#231F20" stroke-width="0.225612" stroke-miterlimit="10" stroke-linecap="round" stroke-linejoin="round"/>
        <path d="M107.933 115.493C108.003 121.169 112.066 128.035 117.041 130.838C119.704 132.309 122.016 132.379 123.627 131.188C124.398 130.628 124.959 129.857 125.379 128.806C125.519 128.385 125.659 127.895 125.729 127.334C125.799 126.774 125.869 126.213 125.869 125.583C125.799 119.907 121.736 113.041 116.761 110.238C116.551 110.098 116.341 110.028 116.06 109.888C115.219 109.468 114.379 109.257 113.678 109.117C112.697 108.977 111.786 109.047 111.016 109.398C109.124 110.238 107.933 112.34 107.933 115.493Z" fill="#928874" stroke="#231F20" stroke-width="0.225612" stroke-miterlimit="10" stroke-linecap="round" stroke-linejoin="round"/>
        <path d="M111.086 109.398C111.857 109.047 112.768 108.977 113.748 109.117C114.519 109.257 115.29 109.468 116.131 109.888C116.341 110.028 116.551 110.098 116.831 110.238C121.806 113.041 125.87 119.907 125.94 125.583C125.94 126.213 125.87 126.774 125.8 127.334C125.73 127.825 125.59 128.315 125.449 128.806C125.099 129.857 124.468 130.628 123.698 131.188L128.532 128.315L128.602 128.245C130.214 127.334 131.195 125.303 131.195 122.43C131.125 116.755 127.061 109.888 122.086 107.085C119.914 105.894 117.952 105.614 116.411 106.245L115.15 106.945L111.086 109.398Z" fill="url(#paint0_linear_1_19911)" stroke="#231F20" stroke-width="0.225612" stroke-miterlimit="10" stroke-linecap="round" stroke-linejoin="round"/>
        <path d="M133.997 124.322C133.997 124.252 133.997 124.252 133.927 124.181C131.965 116.965 127.691 109.748 122.366 104.563C122.296 104.493 122.296 104.493 122.226 104.423C120.264 102.531 118.162 100.99 115.99 99.7285C115.5 99.4483 115.009 99.2381 114.589 99.0279C112.837 98.1871 111.156 97.6266 109.544 97.4164C107.512 97.1361 105.621 97.3463 104.009 97.9769H103.939C99.8751 99.6585 97.3527 104.143 97.4228 110.729C97.5629 122.64 106.111 137.074 116.551 142.959C122.086 146.042 127.061 146.112 130.494 143.66C132.105 142.539 133.296 140.857 134.137 138.685C134.488 137.774 134.768 136.723 134.908 135.602C135.118 134.481 135.188 133.22 135.188 131.889C135.048 129.436 134.698 126.844 133.997 124.322ZM127.201 133.29C126.71 134.201 126.08 134.972 125.309 135.532C123.137 137.074 119.984 137.074 116.411 135.042C109.754 131.328 104.289 122.15 104.219 114.512C104.149 110.308 105.761 107.436 108.353 106.385C109.124 106.034 110.035 105.894 111.016 105.894C111.086 105.894 111.156 105.894 111.226 105.894C111.436 105.894 111.716 105.964 111.926 105.964C112.907 106.105 114.028 106.455 115.149 106.945C115.43 107.085 115.78 107.226 116.06 107.436C122.717 111.149 128.182 120.398 128.252 127.965C128.252 128.105 128.252 128.245 128.252 128.385C128.252 129.086 128.182 129.717 128.112 130.347C127.971 131.048 127.831 131.679 127.621 132.309C127.481 132.729 127.341 133.01 127.201 133.29Z" fill="#231F20" stroke="#231F20" stroke-width="0.225612" stroke-miterlimit="10" stroke-linecap="round" stroke-linejoin="round"/>
        <path d="M125.449 85.295L125.379 85.3651C126.01 85.0147 126.57 84.6644 126.92 84.4542L125.449 85.295ZM133.927 124.111C131.965 116.895 127.691 109.678 122.366 104.493C122.296 104.423 122.296 104.423 122.226 104.353V104.423C122.506 105.614 122.927 106.735 123.347 107.926C125.099 112.691 127.831 117.315 131.124 121.239C132.035 122.29 133.016 123.341 133.997 124.322C133.997 124.322 133.997 124.322 134.067 124.322C133.997 124.252 133.997 124.182 133.927 124.111ZM152.705 130.558C153.195 130.347 153.686 130.067 154.176 129.717L152.705 130.558Z" fill="#231F20" stroke="#231F20" stroke-width="0.225612" stroke-miterlimit="10" stroke-linecap="round" stroke-linejoin="round"/>
        <path d="M155.927 128.245C155.787 128.385 155.647 128.456 155.577 128.526C155.717 128.456 155.787 128.385 155.927 128.245Z" fill="url(#paint1_linear_1_19911)" stroke="#231F20" stroke-width="0.225612" stroke-miterlimit="10" stroke-linecap="round" stroke-linejoin="round"/>
        <path d="M158.801 117.946C158.801 119.277 158.731 120.538 158.521 121.659C158.381 122.78 158.1 123.761 157.75 124.672C156.979 126.844 155.718 128.526 154.107 129.647L152.635 130.488L130.424 143.59C132.036 142.469 133.227 140.787 134.068 138.615C134.418 137.704 134.698 136.653 134.838 135.532C135.049 134.411 135.119 133.15 135.119 131.819C135.119 129.366 134.698 126.844 133.998 124.252C133.998 124.182 133.998 124.182 133.928 124.112C131.966 116.895 127.692 109.678 122.367 104.493C122.297 104.423 122.297 104.423 122.227 104.353C120.265 102.461 118.163 100.92 115.991 99.6586C115.5 99.3783 115.01 99.1681 114.589 98.9579C112.838 98.1171 111.156 97.5566 109.545 97.3464C107.513 97.0661 105.621 97.2763 104.01 97.9069H103.939L125.52 85.225L125.45 85.2951C126.08 84.9448 126.641 84.5944 126.991 84.3842C127.061 84.3842 127.061 84.3142 127.131 84.3142C127.201 84.3142 127.271 84.2441 127.271 84.2441C127.341 84.2441 127.411 84.174 127.411 84.174C127.482 84.174 127.482 84.104 127.552 84.104L127.622 84.0339C129.303 83.3333 131.195 83.1231 133.227 83.4033C134.838 83.6135 136.52 84.174 138.272 85.0148C138.762 85.225 139.183 85.5053 139.673 85.7155C141.915 86.9767 144.087 88.5882 146.049 90.55C151.444 95.7349 155.718 103.022 157.61 110.168C158.381 112.831 158.801 115.423 158.801 117.946Z" fill="url(#paint2_linear_1_19911)" stroke="#231F20" stroke-width="0.225612" stroke-miterlimit="10" stroke-linecap="round" stroke-linejoin="round"/>
        <path d="M126.92 84.4542C126.5 84.6644 126.009 85.0147 125.379 85.3651L125.449 85.295L126.92 84.4542Z" fill="#C49A6C" stroke="#231F20" stroke-width="0.225612" stroke-miterlimit="10" stroke-linecap="round" stroke-linejoin="round"/>
        <path d="M154.667 129.717C154.667 129.717 148.571 123.551 147.52 135.112C146.469 146.673 146.469 146.673 146.469 146.673L158.03 164.049L171.553 165.45L172.534 158.444L154.667 129.717Z" fill="#49443A" stroke="#231F20" stroke-width="0.225612" stroke-miterlimit="10" stroke-linecap="round" stroke-linejoin="round"/>
        <path d="M178.839 150.807C178.839 151.647 178.769 152.418 178.699 153.189C178.559 153.889 178.419 154.52 178.209 155.151C177.718 156.552 176.878 157.603 175.897 158.304C174.916 159.004 173.725 159.425 172.393 159.425C172.323 159.425 172.183 159.425 172.113 159.425C170.642 159.355 168.96 158.934 167.138 157.953C167.068 157.953 167.068 157.883 166.998 157.883C160.272 154.1 154.807 144.921 154.737 137.284C154.737 136.934 154.737 136.513 154.737 136.163C154.807 134.481 155.227 133.08 155.788 131.959C155.788 131.889 155.858 131.819 155.928 131.749C156.629 130.487 157.61 129.577 158.871 129.086C159.922 128.666 161.113 128.526 162.444 128.736C163.495 128.876 164.546 129.226 165.667 129.787C165.947 129.927 166.298 130.067 166.578 130.277C166.718 130.347 166.858 130.417 167.068 130.558C167.138 130.558 167.138 130.628 167.209 130.628C172.604 135.812 176.878 143.099 178.769 150.246C178.769 150.316 178.769 150.316 178.769 150.386C178.839 150.456 178.839 150.666 178.839 150.807Z" fill="#6E6657" stroke="#231F20" stroke-width="0.225612" stroke-miterlimit="10" stroke-linecap="round" stroke-linejoin="round"/>
        <path d="M152.845 141.558C152.915 147.233 156.979 154.1 161.954 156.902C164.616 158.374 166.928 158.444 168.54 157.253C169.311 156.692 169.871 155.921 170.292 154.87C170.432 154.45 170.572 153.96 170.642 153.399C170.712 152.838 170.782 152.278 170.782 151.647C170.712 145.972 166.648 139.106 161.673 136.303C161.463 136.163 161.253 136.093 160.973 135.953C160.132 135.532 159.291 135.322 158.591 135.182C157.61 135.042 156.699 135.112 155.928 135.462C153.966 136.303 152.775 138.405 152.845 141.558Z" fill="#928874" stroke="#231F20" stroke-width="0.225612" stroke-miterlimit="10" stroke-linecap="round" stroke-linejoin="round"/>
        <path d="M155.928 135.462C156.699 135.112 157.61 135.042 158.591 135.182C159.361 135.322 160.132 135.532 160.973 135.953C161.183 136.093 161.393 136.163 161.674 136.303C166.648 139.106 170.712 145.972 170.782 151.647C170.782 152.278 170.712 152.839 170.642 153.399C170.572 153.889 170.432 154.38 170.292 154.87C169.941 155.921 169.311 156.692 168.54 157.253L173.375 154.38L173.445 154.31C175.056 153.399 176.037 151.367 176.037 148.494C175.967 142.819 171.903 135.953 166.929 133.15C164.757 131.959 162.795 131.679 161.253 132.309L159.992 133.01L155.928 135.462Z" fill="url(#paint3_linear_1_19911)" stroke="#231F20" stroke-width="0.225612" stroke-miterlimit="10" stroke-linecap="round" stroke-linejoin="round"/>
        <path d="M178.84 150.386C178.84 150.316 178.84 150.316 178.77 150.246C176.808 143.029 172.534 135.812 167.209 130.628C167.139 130.557 167.139 130.557 167.069 130.487C165.107 128.596 163.005 127.054 160.833 125.793C160.342 125.513 159.852 125.303 159.431 125.092C157.68 124.252 155.998 123.691 154.387 123.481C152.355 123.201 150.463 123.411 148.852 124.041C144.788 125.723 142.265 130.207 142.335 136.793C142.476 148.704 151.024 163.138 161.463 169.024C166.999 172.106 171.973 172.177 175.406 169.724C177.018 168.603 178.209 166.922 179.05 164.75C179.4 163.839 179.68 162.788 179.821 161.667C180.031 160.546 180.101 159.284 180.101 157.953C179.891 155.501 179.54 152.908 178.84 150.386ZM170.152 161.597C167.979 163.138 164.827 163.138 161.253 161.106C154.597 157.393 149.132 148.144 149.062 140.577C148.992 136.373 150.603 133.5 153.196 132.449C153.966 132.099 154.877 131.959 155.858 131.959C155.928 131.959 155.998 131.959 156.068 131.959C156.278 131.959 156.559 131.959 156.769 132.029C157.75 132.169 158.871 132.519 159.992 133.01C160.272 133.15 160.623 133.29 160.903 133.5C167.559 137.214 173.024 146.462 173.094 154.029C173.094 154.17 173.094 154.31 173.094 154.45C173.094 155.151 173.024 155.781 172.954 156.412C172.814 157.112 172.674 157.743 172.464 158.374C172.324 158.724 172.183 159.004 172.043 159.354C171.553 160.335 170.922 161.036 170.152 161.597Z" fill="#231F20" stroke="#231F20" stroke-width="0.225612" stroke-miterlimit="10" stroke-linecap="round" stroke-linejoin="round"/>
        <path d="M170.291 111.36C170.221 111.36 170.221 111.43 170.221 111.43C170.852 111.079 171.412 110.729 171.763 110.519L170.291 111.36ZM178.839 150.176C176.877 142.959 172.603 135.743 167.278 130.558C167.208 130.488 167.208 130.488 167.138 130.418V130.488C167.418 131.679 167.839 132.8 168.259 133.991C170.011 138.755 172.743 143.38 176.037 147.303C176.947 148.354 177.928 149.405 178.909 150.386C178.839 150.316 178.839 150.246 178.839 150.176ZM197.547 156.622C198.037 156.412 198.528 156.132 199.018 155.781L197.547 156.622Z" fill="#231F20" stroke="#231F20" stroke-width="0.225612" stroke-miterlimit="10" stroke-linecap="round" stroke-linejoin="round"/>
        <path d="M200.77 154.31C200.63 154.45 200.489 154.52 200.419 154.59C200.56 154.52 200.63 154.45 200.77 154.31Z" fill="url(#paint4_linear_1_19911)" stroke="#231F20" stroke-width="0.225612" stroke-miterlimit="10" stroke-linecap="round" stroke-linejoin="round"/>
        <path d="M203.643 144.01C203.643 145.341 203.573 146.603 203.362 147.724C203.222 148.845 202.942 149.826 202.592 150.737C201.821 152.909 200.56 154.59 198.948 155.711L197.477 156.552L175.196 169.584C176.808 168.463 177.999 166.782 178.839 164.61C179.19 163.699 179.47 162.648 179.61 161.527C179.82 160.406 179.89 159.144 179.89 157.813C179.89 155.361 179.47 152.839 178.769 150.246C178.769 150.176 178.769 150.176 178.699 150.106C176.737 142.889 172.463 135.672 167.138 130.488C167.068 130.417 167.068 130.417 166.998 130.347C165.037 128.456 162.935 126.914 160.762 125.653C160.272 125.373 159.782 125.163 159.361 124.952C157.61 124.112 155.928 123.551 154.316 123.341C152.285 123.061 150.393 123.271 148.781 123.901L170.362 111.29C170.291 111.29 170.291 111.36 170.291 111.36C170.922 111.009 171.483 110.659 171.833 110.449C171.903 110.449 171.903 110.379 171.973 110.379C172.043 110.379 172.113 110.309 172.113 110.309C172.183 110.239 172.253 110.239 172.253 110.239C172.323 110.239 172.323 110.168 172.393 110.168L172.463 110.098C174.145 109.398 176.037 109.188 178.069 109.538C179.68 109.748 181.362 110.309 183.113 111.149C183.604 111.36 184.024 111.64 184.515 111.85C186.757 113.111 188.929 114.723 190.891 116.685C196.286 121.869 200.56 129.156 202.452 136.303C203.222 138.895 203.643 141.558 203.643 144.01Z" fill="url(#paint5_linear_1_19911)" stroke="#231F20" stroke-width="0.225612" stroke-miterlimit="10" stroke-linecap="round" stroke-linejoin="round"/>
        <path d="M203.643 144.01C203.643 145.341 203.573 146.603 203.362 147.724C203.222 148.845 202.942 149.826 202.592 150.737C201.821 152.909 200.56 154.59 198.948 155.711L197.477 156.552L175.196 169.584C176.808 168.463 177.999 166.782 178.839 164.61C179.19 163.699 179.47 162.648 179.61 161.527C179.82 160.406 179.89 159.144 179.89 157.813C179.89 155.361 179.47 152.839 178.769 150.246C178.769 150.176 178.769 150.176 178.699 150.106C176.737 142.889 172.463 135.672 167.138 130.488C167.068 130.417 167.068 130.417 166.998 130.347C165.037 128.456 162.935 126.914 160.762 125.653C160.272 125.373 159.782 125.163 159.361 124.952C157.61 124.112 155.928 123.551 154.316 123.341C152.285 123.061 150.393 123.271 148.781 123.901L170.362 111.29C170.291 111.29 170.291 111.36 170.291 111.36C170.922 111.009 171.483 110.659 171.833 110.449C171.903 110.449 171.903 110.379 171.973 110.379C172.043 110.379 172.113 110.309 172.113 110.309C172.183 110.239 172.253 110.239 172.253 110.239C172.323 110.239 172.323 110.168 172.393 110.168L172.463 110.098C174.145 109.398 176.037 109.188 178.069 109.538C179.68 109.748 181.362 110.309 183.113 111.149C183.394 111.29 183.674 111.43 183.884 111.57L183.464 111.78L172.043 118.086L163.635 123.131V126.214L172.043 121.309L172.323 121.169L186.336 113.462L186.687 113.251C187.037 113.462 187.387 113.742 187.668 113.952C188.579 114.653 189.489 115.423 190.33 116.194C190.47 116.334 190.681 116.544 190.821 116.685C196.216 121.869 200.49 129.156 202.382 136.303C203.222 138.895 203.643 141.558 203.643 144.01Z" fill="url(#paint6_linear_1_19911)" stroke="#231F20" stroke-width="0.225612" stroke-miterlimit="10" stroke-linecap="round" stroke-linejoin="round"/>
        <path d="M186.757 113.181L186.407 113.391L172.394 121.099L172.113 121.239L163.706 126.143V123.06L172.113 118.016L183.534 111.71L183.955 111.5C184.165 111.64 184.375 111.71 184.585 111.85C185.286 112.27 186.057 112.691 186.757 113.181Z" fill="url(#paint7_linear_1_19911)" stroke="#231F20" stroke-width="0.225612" stroke-miterlimit="10" stroke-linecap="round" stroke-linejoin="round"/>
        <path d="M171.763 110.519C171.413 110.729 170.852 111.079 170.222 111.43L170.292 111.36L171.763 110.519Z" fill="#C49A6C" stroke="#231F20" stroke-width="0.225612" stroke-miterlimit="10" stroke-linecap="round" stroke-linejoin="round"/>
        <g opacity="0.2">
            <path opacity="0.2" d="M188.579 115.634L181.572 119.487L170.151 125.793L164.686 129.086L110.105 98.0472L115.57 94.6841L126.5 88.4482L133.997 84.1742L188.579 115.634Z" fill="black" stroke="#231F20" stroke-width="0.210688" stroke-miterlimit="10"/>
        </g>
        <path d="M190.54 107.856L183.534 111.71L172.113 118.016L163.705 123.061L109.054 92.0215L117.532 86.9067L128.462 80.6709L136.029 76.3268L190.54 107.856Z" fill="#F1F2F2" stroke="#231F20" stroke-width="0.201439" stroke-miterlimit="10" stroke-linecap="round" stroke-linejoin="round"/>
        <path d="M163.705 123.061V126.144L109.054 94.1935V92.0215L163.705 123.061Z" fill="#F1F2F2" stroke="#231F20" stroke-width="0.201439" stroke-miterlimit="10" stroke-linecap="round" stroke-linejoin="round"/>
        <path opacity="0.14" d="M163.705 123.061V126.144L109.054 94.1935V92.0215L163.705 123.061Z" fill="black" stroke="#231F20" stroke-width="0.201439" stroke-miterlimit="10"/>
        <path d="M190.54 107.856L190.4 116.194C189.559 115.353 188.648 114.653 187.738 113.952V112.691L186.757 113.251L186.406 113.462L172.393 121.169L172.113 121.309L163.705 126.214V123.131L172.113 118.086L183.534 111.78L183.954 111.57L190.54 107.856Z" fill="#F1F2F2" stroke="#231F20" stroke-width="0.201439" stroke-miterlimit="10" stroke-linecap="round" stroke-linejoin="round"/>
    </g>
    <defs>
        <linearGradient id="paint0_linear_1_19911" x1="117.885" y1="108.101" x2="127.455" y2="125.619" gradientUnits="userSpaceOnUse">
            <stop stop-color="#C2B59B"/>
            <stop offset="1" stop-color="#49443A"/>
        </linearGradient>
        <linearGradient id="paint1_linear_1_19911" x1="155.814" y1="128.262" x2="155.671" y2="128.532" gradientUnits="userSpaceOnUse">
            <stop stop-color="#58595B"/>
            <stop offset="1"/>
        </linearGradient>
        <linearGradient id="paint2_linear_1_19911" x1="133.65" y1="143.321" x2="130.125" y2="88.5171" gradientUnits="userSpaceOnUse">
            <stop/>
            <stop offset="1" stop-color="#58595B"/>
        </linearGradient>
        <linearGradient id="paint3_linear_1_19911" x1="162.734" y1="134.172" x2="172.303" y2="151.69" gradientUnits="userSpaceOnUse">
            <stop stop-color="#C2B59B"/>
            <stop offset="1" stop-color="#49443A"/>
        </linearGradient>
        <linearGradient id="paint4_linear_1_19911" x1="200.662" y1="154.333" x2="200.519" y2="154.603" gradientUnits="userSpaceOnUse">
            <stop stop-color="#58595B"/>
            <stop offset="1"/>
        </linearGradient>
        <linearGradient id="paint5_linear_1_19911" x1="178.902" y1="167.153" x2="174.518" y2="112.434" gradientUnits="userSpaceOnUse">
            <stop/>
            <stop offset="1" stop-color="#58595B"/>
        </linearGradient>
        <linearGradient id="paint6_linear_1_19911" x1="175.714" y1="163.106" x2="176.671" y2="108.219" gradientUnits="userSpaceOnUse">
            <stop/>
            <stop offset="1" stop-color="#58595B"/>
        </linearGradient>
        <linearGradient id="paint7_linear_1_19911" x1="175.626" y1="124.693" x2="174.68" y2="112.877" gradientUnits="userSpaceOnUse">
            <stop/>
            <stop offset="1" stop-color="#58595B"/>
        </linearGradient>
        <clipPath id="">
            <rect width="106.5" height="95.2894" fill="white" transform="translate(97.2832 76.2566)"/>
        </clipPath>
    </defs>
</svg>
