<svg width="230" height="230" viewBox="0 0 230 230" fill="none"
    xmlns="http://www.w3.org/2000/svg">
    <g clip-path="url(#)">
        <path d="M176.528 153.329L176.037 153.609C175.967 153.609 175.967 153.609 175.897 153.609C176.177 153.539 176.387 153.399 176.528 153.329Z" fill="#F1F2F2" stroke="#231F20" stroke-width="0.201439" stroke-miterlimit="10" stroke-linecap="round" stroke-linejoin="round"/>
        <path d="M180.592 155.571C180.452 155.711 180.241 155.781 180.101 155.921L180.031 155.991L180.592 155.571Z" fill="#F1F2F2" stroke="#231F20" stroke-width="0.201439" stroke-miterlimit="10" stroke-linecap="round" stroke-linejoin="round"/>
        <path d="M176.528 153.329L176.037 153.609C175.967 153.609 175.967 153.609 175.897 153.609C176.177 153.539 176.387 153.399 176.528 153.329Z" fill="#F1F2F2" stroke="#231F20" stroke-width="0.201439" stroke-miterlimit="10" stroke-linecap="round" stroke-linejoin="round"/>
        <path d="M176.528 153.329L176.037 153.609C175.967 153.609 175.967 153.609 175.897 153.609C176.177 153.539 176.387 153.399 176.528 153.329Z" fill="#F1F2F2" stroke="#231F20" stroke-width="0.201439" stroke-miterlimit="10" stroke-linecap="round" stroke-linejoin="round"/>
        <path d="M180.592 155.571C180.452 155.711 180.241 155.781 180.101 155.921L180.031 155.991L180.592 155.571Z" fill="#F1F2F2" stroke="#231F20" stroke-width="0.201439" stroke-miterlimit="10" stroke-linecap="round" stroke-linejoin="round"/>
        <path d="M183.884 153.469C183.184 155.15 182.203 156.342 180.871 157.112L180.731 157.182C178.349 158.584 175.056 158.373 171.413 156.342L172.323 155.781C175.336 157.112 177.999 157.112 180.031 155.991L180.101 155.921C180.311 155.781 180.451 155.711 180.591 155.571L183.884 153.469Z" fill="#414042" stroke="#231F20" stroke-width="0.201439" stroke-miterlimit="10" stroke-linecap="round" stroke-linejoin="round"/>
        <path d="M176.528 153.329L176.037 153.609C175.967 153.609 175.967 153.609 175.897 153.609C176.177 153.539 176.387 153.399 176.528 153.329Z" fill="#F1F2F2" stroke="#231F20" stroke-width="0.201439" stroke-miterlimit="10" stroke-linecap="round" stroke-linejoin="round"/>
        <path d="M180.592 155.571C180.452 155.711 180.241 155.781 180.101 155.921L180.031 155.991L180.592 155.571Z" fill="#F1F2F2" stroke="#231F20" stroke-width="0.201439" stroke-miterlimit="10" stroke-linecap="round" stroke-linejoin="round"/>
        <path d="M176.528 153.329L176.037 153.609C175.967 153.609 175.967 153.609 175.897 153.609C176.177 153.539 176.387 153.399 176.528 153.329Z" fill="#F1F2F2" stroke="#231F20" stroke-width="0.201439" stroke-miterlimit="10" stroke-linecap="round" stroke-linejoin="round"/>
        <path d="M155.438 121.729L154.597 121.239C154.667 121.169 154.737 121.028 154.807 120.958L155.438 121.729Z" fill="#F1F2F2" stroke="#231F20" stroke-width="0.201439" stroke-miterlimit="10" stroke-linecap="round" stroke-linejoin="round"/>
        <path d="M137.781 93.5626L136.87 93.983C137.15 93.7728 137.431 93.6327 137.781 93.5626Z" fill="#F1F2F2" stroke="#231F20" stroke-width="0.201439" stroke-miterlimit="10" stroke-linecap="round" stroke-linejoin="round"/>
        <path d="M120.405 93.3524H120.334C120.334 93.2823 120.405 93.2823 120.405 93.2123C120.405 93.2823 120.405 93.3524 120.405 93.3524Z" fill="#F1F2F2" stroke="#231F20" stroke-width="0.201439" stroke-miterlimit="10" stroke-linecap="round" stroke-linejoin="round"/>
        <path d="M172.043 150.316C172.043 151.157 171.973 151.928 171.833 152.628C171.763 153.049 171.693 153.399 171.553 153.819C171.413 154.31 171.273 154.73 171.062 155.151C170.922 155.431 170.782 155.641 170.642 155.851C170.432 156.202 170.222 156.552 169.941 156.832C169.521 157.253 169.101 157.673 168.61 157.953L168.47 158.023C166.298 159.214 163.355 159.074 160.062 157.182C159.642 156.972 159.221 156.692 158.871 156.412L116.341 131.889C116.061 131.749 115.851 131.608 115.57 131.468C108.984 127.685 103.659 118.436 103.659 110.869C103.659 109.328 103.869 107.996 104.29 106.875C104.85 105.194 105.831 104.003 107.022 103.232C107.092 103.232 107.092 103.162 107.162 103.162C107.723 102.882 108.284 102.671 108.914 102.531C109.054 102.531 109.264 102.461 109.405 102.461C109.545 102.461 109.755 102.391 109.965 102.391L111.857 102.251L112.277 102.181L118.373 101.69L118.793 101.62L122.157 101.34L123.768 101.2L126.711 100.99L131.685 100.569C131.966 100.499 132.246 100.499 132.526 100.499C132.666 100.499 132.807 100.499 133.017 100.499C133.858 100.499 134.768 100.709 135.749 101.06C136.52 101.34 137.291 101.69 138.061 102.111C139.183 102.741 140.304 103.582 141.284 104.493C142.125 105.264 142.966 106.175 143.737 107.085L143.807 107.156C144.017 107.436 144.227 107.646 144.437 107.926L154.737 120.888C154.667 120.958 154.597 121.099 154.527 121.169L155.368 121.659L156.909 123.621L157.189 123.971L159.432 126.844L161.604 129.577L164.827 133.64C165.387 134.201 165.878 134.831 166.368 135.462C166.718 135.882 167.069 136.373 167.349 136.863C169.871 140.647 171.623 145.061 171.903 149.195C171.973 149.615 172.043 149.966 172.043 150.316Z" fill="#F1F2F2" stroke="#231F20" stroke-width="0.201439" stroke-miterlimit="10" stroke-linecap="round" stroke-linejoin="round"/>
        <path opacity="0.14" d="M172.043 150.316C172.043 151.157 171.973 151.928 171.833 152.628C171.763 153.049 171.693 153.399 171.553 153.819C171.413 154.31 171.273 154.73 171.062 155.151C170.922 155.431 170.782 155.641 170.642 155.851C170.432 156.202 170.222 156.552 169.941 156.832C169.521 157.253 169.101 157.673 168.61 157.953L168.47 158.023C166.298 159.214 163.355 159.074 160.062 157.182C159.642 156.972 159.221 156.692 158.871 156.412L116.341 131.889C116.061 131.749 115.851 131.608 115.57 131.468C108.984 127.685 103.659 118.436 103.659 110.869C103.659 109.328 103.869 107.996 104.29 106.875C104.85 105.194 105.831 104.003 107.022 103.232C107.092 103.232 107.092 103.162 107.162 103.162C107.723 102.882 108.284 102.671 108.914 102.531C109.054 102.531 109.264 102.461 109.405 102.461C109.545 102.461 109.755 102.391 109.965 102.391L111.857 102.251L112.277 102.181L118.373 101.69L118.793 101.62L122.157 101.34L123.768 101.2L126.711 100.99L131.685 100.569C131.966 100.499 132.246 100.499 132.526 100.499C132.666 100.499 132.807 100.499 133.017 100.499C133.858 100.499 134.768 100.709 135.749 101.06C136.52 101.34 137.291 101.69 138.061 102.111C139.183 102.741 140.304 103.582 141.284 104.493C142.125 105.264 142.966 106.175 143.737 107.085L143.807 107.156C144.017 107.436 144.227 107.646 144.437 107.926L154.737 120.888C154.667 120.958 154.597 121.099 154.527 121.169L155.368 121.659L156.909 123.621L157.189 123.971L159.432 126.844L161.604 129.577L164.827 133.64C165.387 134.201 165.878 134.831 166.368 135.462C166.718 135.882 167.069 136.373 167.349 136.863C169.871 140.647 171.623 145.061 171.903 149.195C171.973 149.615 172.043 149.966 172.043 150.316Z" fill="black" stroke="#231F20" stroke-width="0.0802954" stroke-miterlimit="10"/>
        <path d="M155.438 121.729L154.597 121.239C154.667 121.169 154.737 121.028 154.807 120.958L155.438 121.729Z" fill="#F1F2F2" stroke="#231F20" stroke-width="0.201439" stroke-miterlimit="10" stroke-linecap="round" stroke-linejoin="round"/>
        <path d="M188.088 150.456C188.088 155.08 186.477 158.374 183.884 159.915L183.744 159.985C181.082 161.526 177.438 161.246 173.375 158.934C172.884 158.654 172.394 158.303 171.903 158.023L170.222 157.042L171.413 156.342C175.056 158.374 178.349 158.584 180.732 157.182L180.872 157.112C182.203 156.342 183.184 155.08 183.884 153.469C184.445 152.068 184.795 150.386 184.795 148.424C184.795 147.653 184.725 146.813 184.655 145.972C184.305 142.959 183.254 139.876 181.782 136.863C181.152 135.602 180.381 134.341 179.61 133.15C178.7 131.819 177.719 130.627 176.738 129.506L172.043 123.551L169.661 120.538L169.311 120.118L167.279 117.595L161.183 109.888L159.221 107.436L153.546 100.219C153.336 99.9387 153.126 99.6584 152.845 99.3782L152.775 99.3081C151.794 98.117 150.743 97.066 149.692 96.0851C148.571 95.1041 147.45 94.2634 146.259 93.6328C144.508 92.6518 142.896 92.0913 141.425 91.8811C141.284 91.8811 141.144 91.8111 140.934 91.8111C140.514 91.8111 140.163 91.741 139.813 91.8111C139.533 91.8111 139.253 91.8811 139.042 91.8811L131.756 92.5117L130.845 92.5818L120.335 93.4226C120.335 93.3525 120.335 93.3525 120.335 93.2824C120.335 93.3525 120.265 93.3525 120.265 93.4226L117.953 93.6328L114.169 93.913C113.959 93.913 113.749 93.913 113.538 93.9831C112.628 94.1232 111.787 94.4035 111.016 94.8239C108.634 96.2252 107.092 99.0979 107.022 103.302C105.761 104.073 104.85 105.264 104.29 106.945C103.869 105.194 103.659 103.442 103.659 101.76C103.659 97.066 105.341 93.7729 108.003 92.2314H108.073C108.494 92.0212 108.914 91.8111 109.335 91.6709C109.825 91.5308 110.245 91.3907 110.806 91.3206C111.016 91.3206 111.226 91.2505 111.436 91.2505L120.405 90.4798L132.596 89.4989L137.921 89.0785L138.482 89.0084C138.902 88.9384 139.323 88.9384 139.743 88.9384C141.355 88.9384 143.106 89.3587 144.998 90.1995C145.418 90.4097 145.909 90.6199 146.329 90.9002C148.922 92.3716 151.304 94.5436 153.406 97.066L153.476 97.136C153.756 97.4163 153.966 97.7666 154.247 98.0469L160.833 106.385L168.89 116.614L168.82 116.684L169.311 117.105L170.852 119.067L173.655 122.57L173.935 122.92L179.4 129.787C180.521 130.978 181.572 132.379 182.553 133.78C183.674 135.392 184.585 137.144 185.426 138.895C186.757 141.838 187.668 144.921 188.018 147.864C188.018 148.775 188.088 149.615 188.088 150.456Z" fill="#231F20" stroke="#231F20" stroke-width="0.201439" stroke-miterlimit="10" stroke-linecap="round" stroke-linejoin="round"/>
        <path d="M169.241 117.035L168.68 116.614L168.82 116.544L169.241 117.035Z" fill="#F1F2F2" stroke="#231F20" stroke-width="0.201439" stroke-miterlimit="10" stroke-linecap="round" stroke-linejoin="round"/>
        <path d="M137.781 93.5626L136.87 93.983C137.15 93.7728 137.431 93.6327 137.781 93.5626Z" fill="#F1F2F2" stroke="#231F20" stroke-width="0.201439" stroke-miterlimit="10" stroke-linecap="round" stroke-linejoin="round"/>
        <path d="M141.425 91.811L141.144 91.9512L140.934 91.811C141.144 91.811 141.284 91.811 141.425 91.811Z" fill="#F1F2F2" stroke="#231F20" stroke-width="0.201439" stroke-miterlimit="10" stroke-linecap="round" stroke-linejoin="round"/>
        <path d="M169.521 120.468L168.96 120.118L169.171 120.048L169.521 120.468Z" fill="#F1F2F2" stroke="#231F20" stroke-width="0.201439" stroke-miterlimit="10" stroke-linecap="round" stroke-linejoin="round"/>
        <path d="M155.438 121.729L154.597 121.239C154.667 121.169 154.737 121.028 154.807 120.958L155.438 121.729Z" fill="#F1F2F2" stroke="#231F20" stroke-width="0.201439" stroke-miterlimit="10" stroke-linecap="round" stroke-linejoin="round"/>
        <path d="M122.437 97.2761L121.036 97.4163L118.583 97.6264L118.023 97.6965C117.813 97.6965 117.673 97.6965 117.462 97.7666C116.622 97.8366 115.921 98.1169 115.22 98.4672L108.984 102.181C109.405 99.1679 110.736 97.0659 112.628 96.0149C113.048 95.8047 113.399 95.5945 113.889 95.4544C115.43 94.9639 117.182 95.034 119.074 95.7347C119.634 95.9449 120.195 96.1551 120.755 96.4353C121.036 96.5755 121.386 96.7156 121.666 96.9258C121.947 96.9258 122.157 97.136 122.437 97.2761Z" fill="#928874" stroke="#231F20" stroke-width="0.201439" stroke-miterlimit="10"/>
        <path d="M134.978 95.5946C134.768 95.8048 134.628 96.0851 134.488 96.2953L131.755 96.5055L122.437 97.2762C122.156 97.1361 121.946 96.9959 121.666 96.8558C121.386 96.6456 121.035 96.5055 120.755 96.3653C120.195 96.0851 119.634 95.8048 119.074 95.6647C117.112 95.0341 115.36 94.964 113.889 95.3844L118.023 93.6328L120.335 93.4226H120.405L130.915 92.5818C131.055 92.6519 131.125 92.7219 131.265 92.792C131.405 92.8621 131.615 93.0022 131.755 93.0722C132.806 93.7028 133.927 94.6137 134.978 95.5946Z" fill="url(#paint0_linear_1_19911)" stroke="#231F20" stroke-width="0.201439" stroke-miterlimit="10" stroke-linecap="round" stroke-linejoin="round"/>
        <path d="M117.952 93.5626L113.818 95.3143C113.398 95.4544 112.978 95.5945 112.557 95.8748C110.665 96.9958 109.334 99.0978 108.914 102.041L107.162 103.092C107.092 103.092 107.092 103.162 107.022 103.162C107.092 99.0278 108.563 96.085 111.016 94.6837C111.786 94.2633 112.627 93.983 113.538 93.8429C113.748 93.8429 113.958 93.7728 114.169 93.7728L117.952 93.5626Z" fill="#414042" stroke="#231F20" stroke-width="0.201439" stroke-miterlimit="10" stroke-linecap="round" stroke-linejoin="round"/>
        <path d="M137.781 93.5626L136.87 93.983C137.15 93.7728 137.431 93.6327 137.781 93.5626Z" fill="#F1F2F2" stroke="#231F20" stroke-width="0.201439" stroke-miterlimit="10" stroke-linecap="round" stroke-linejoin="round"/>
        <path d="M184.725 148.424C184.725 150.386 184.445 152.068 183.814 153.469L180.591 155.571C182.553 154.1 183.744 151.367 183.744 147.654C183.744 146.883 183.674 146.182 183.604 145.411C183.254 142.399 182.203 139.246 180.661 136.303C178.279 131.749 174.776 127.685 170.852 125.443C170.432 125.232 170.011 124.952 169.591 124.812L166.928 121.379L168.96 120.118L169.521 120.398L171.903 123.411L176.597 129.366C177.648 130.487 178.629 131.749 179.47 133.01C180.311 134.201 181.011 135.462 181.642 136.723C183.113 139.666 184.094 142.819 184.515 145.832C184.655 146.813 184.725 147.654 184.725 148.424Z" fill="url(#paint1_linear_1_19911)" stroke="#231F20" stroke-width="0.201439" stroke-miterlimit="10" stroke-linecap="round" stroke-linejoin="round"/>
        <path d="M183.744 147.653C183.744 151.367 182.553 154.099 180.591 155.571L179.961 155.991C177.929 157.112 175.266 157.112 172.253 155.781L176.037 153.539L176.527 153.259L176.597 153.189C178.699 151.927 180.031 149.265 180.031 145.551C180.031 144.781 179.961 144.01 179.89 143.239C179.47 140.156 178.279 136.863 176.597 133.921C176.247 133.36 175.967 132.8 175.616 132.309C175.616 132.239 175.546 132.239 175.546 132.169C174.776 131.048 173.935 129.927 173.024 128.946L169.731 124.812C170.151 125.022 170.572 125.232 170.992 125.443C174.916 127.685 178.419 131.749 180.801 136.303C182.343 139.246 183.394 142.399 183.744 145.411C183.744 146.182 183.744 146.953 183.744 147.653Z" fill="#928874" stroke="#231F20" stroke-width="0.201439" stroke-miterlimit="10"/>
        <path d="M141.425 91.811L141.144 91.9512L140.934 91.811C141.144 91.811 141.284 91.811 141.425 91.811Z" fill="#F1F2F2" stroke="#231F20" stroke-width="0.201439" stroke-miterlimit="10" stroke-linecap="round" stroke-linejoin="round"/>
        <path d="M169.521 120.468L168.96 120.118L169.171 120.048L169.521 120.468Z" fill="#F1F2F2" stroke="#231F20" stroke-width="0.201439" stroke-miterlimit="10" stroke-linecap="round" stroke-linejoin="round"/>
        <path d="M155.438 121.729L154.597 121.239C154.667 121.169 154.737 121.028 154.807 120.958L155.438 121.729Z" fill="#F1F2F2" stroke="#231F20" stroke-width="0.201439" stroke-miterlimit="10" stroke-linecap="round" stroke-linejoin="round"/>
        <path d="M155.438 121.729L154.597 121.239C154.667 121.169 154.737 121.028 154.807 120.958L155.438 121.729Z" fill="#F1F2F2" stroke="#231F20" stroke-width="0.201439" stroke-miterlimit="10" stroke-linecap="round" stroke-linejoin="round"/>
        <path d="M180.031 145.622C180.031 149.405 178.699 151.998 176.598 153.259L176.527 153.329C176.317 153.469 176.107 153.539 175.897 153.609C175.967 153.609 175.967 153.609 176.037 153.609L172.253 155.851L171.343 156.412L170.151 157.112L168.54 158.093C169.03 157.813 169.451 157.393 169.871 156.972C170.151 156.692 170.362 156.342 170.572 155.991C170.712 155.781 170.852 155.501 170.992 155.291C171.202 154.87 171.343 154.45 171.483 153.959C171.623 153.609 171.693 153.189 171.763 152.768C171.903 152.068 171.973 151.297 171.973 150.456C171.973 150.106 171.973 149.685 171.903 149.335C171.623 145.271 169.941 140.787 167.349 137.003C166.999 136.513 166.718 136.093 166.368 135.602C165.877 134.972 165.387 134.341 164.826 133.78L161.603 129.717L159.431 126.984L157.189 124.111L156.909 123.761L155.438 121.729L154.807 120.958L144.577 107.926C144.367 107.646 144.157 107.436 143.947 107.155L143.877 107.085C143.106 106.175 142.265 105.264 141.425 104.493C140.374 103.582 139.323 102.741 138.201 102.111C137.431 101.62 136.59 101.27 135.889 101.06C134.908 100.709 133.998 100.569 133.157 100.499C133.017 100.499 132.806 100.499 132.666 100.499C132.386 100.499 132.106 100.499 131.826 100.569L126.851 100.99L123.908 101.2L122.297 101.34L118.933 101.62L118.513 101.69L112.347 102.181L111.927 102.251L110.035 102.391C109.825 102.391 109.685 102.391 109.475 102.461C109.334 102.461 109.124 102.531 108.984 102.531C108.353 102.671 107.793 102.881 107.232 103.162L108.984 102.111L115.22 98.3972C115.921 98.0469 116.621 97.7666 117.462 97.6966C117.602 97.6966 117.812 97.6265 118.023 97.6265L118.583 97.5564L121.035 97.3462L122.437 97.2061L131.755 96.4354L134.488 96.2252L135.609 96.1551L139.813 95.8048C140.093 95.7347 140.374 95.7347 140.654 95.7347C142.335 95.6647 144.157 96.2252 146.189 97.3462C148.291 98.5374 150.183 100.289 151.934 102.321L152.004 102.391C152.215 102.671 152.425 102.881 152.635 103.162L157.119 108.837L163.565 116.965L165.107 118.927L166.999 121.309L169.661 124.742L172.954 128.876C173.865 129.857 174.706 130.978 175.476 132.099C175.476 132.169 175.547 132.169 175.547 132.239C175.897 132.8 176.247 133.29 176.527 133.851C178.209 136.793 179.4 140.086 179.821 143.169C180.031 144.08 180.031 144.851 180.031 145.622Z" fill="#F1F2F2" stroke="#231F20" stroke-width="0.201439" stroke-miterlimit="10" stroke-linecap="round" stroke-linejoin="round"/>
        <path d="M155.438 121.729L154.597 121.239C154.667 121.169 154.737 121.028 154.807 120.958L155.438 121.729Z" fill="#F1F2F2" stroke="#231F20" stroke-width="0.201439" stroke-miterlimit="10" stroke-linecap="round" stroke-linejoin="round"/>
        <path d="M169.241 117.035L168.68 116.614L168.82 116.544L169.241 117.035Z" fill="#F1F2F2" stroke="#231F20" stroke-width="0.201439" stroke-miterlimit="10" stroke-linecap="round" stroke-linejoin="round"/>
        <path d="M137.781 93.5626L136.87 93.983C137.15 93.7728 137.431 93.6327 137.781 93.5626Z" fill="#F1F2F2" stroke="#231F20" stroke-width="0.201439" stroke-miterlimit="10" stroke-linecap="round" stroke-linejoin="round"/>
        <path d="M141.425 91.811L141.144 91.9512L140.934 91.811C141.144 91.811 141.284 91.811 141.425 91.811Z" fill="#F1F2F2" stroke="#231F20" stroke-width="0.201439" stroke-miterlimit="10" stroke-linecap="round" stroke-linejoin="round"/>
        <path d="M169.521 120.468L168.96 120.118L169.171 120.048L169.521 120.468Z" fill="#F1F2F2" stroke="#231F20" stroke-width="0.201439" stroke-miterlimit="10" stroke-linecap="round" stroke-linejoin="round"/>
        <path d="M141.425 91.811L141.144 91.9512L140.934 91.811C141.144 91.811 141.284 91.811 141.425 91.811Z" fill="#F1F2F2" stroke="#231F20" stroke-width="0.201439" stroke-miterlimit="10" stroke-linecap="round" stroke-linejoin="round"/>
        <path d="M169.521 120.468L168.96 120.118L169.171 120.048L169.521 120.468Z" fill="#F1F2F2" stroke="#231F20" stroke-width="0.201439" stroke-miterlimit="10" stroke-linecap="round" stroke-linejoin="round"/>
        <path d="M169.241 117.035L168.68 116.614L168.82 116.544L169.241 117.035Z" fill="#F1F2F2" stroke="#231F20" stroke-width="0.201439" stroke-miterlimit="10" stroke-linecap="round" stroke-linejoin="round"/>
        <path d="M207.987 129.016C207.987 132.799 206.656 135.392 204.554 136.653L204.484 136.723L204.344 136.583C203.573 132.309 201.682 127.965 199.089 124.111C198.108 122.71 197.057 121.379 195.936 120.118L170.853 88.3077C170.642 87.9574 170.362 87.6771 170.082 87.3969L170.012 87.3268C167.91 84.8044 165.528 82.6324 162.935 81.161C161.954 80.6005 161.043 80.1801 160.203 79.8298L167.77 79.1992C169.591 78.9189 171.834 79.4094 174.146 80.7406C176.248 81.9318 178.139 83.6834 179.891 85.7153L179.961 85.7854C180.171 86.0656 180.382 86.2758 180.592 86.5561L200.911 112.27C201.822 113.251 202.662 114.372 203.433 115.493C206.236 119.697 207.987 124.602 207.987 129.016Z" fill="#F1F2F2" stroke="#231F20" stroke-width="0.201439" stroke-miterlimit="10" stroke-linecap="round" stroke-linejoin="round"/>
        <path d="M204.484 136.723L204.414 136.793C204.414 136.723 204.414 136.653 204.414 136.583L204.484 136.723Z" fill="#F1F2F2" stroke="#231F20" stroke-width="0.201439" stroke-miterlimit="10" stroke-linecap="round" stroke-linejoin="round"/>
        <path d="M169.241 117.035L168.68 116.614L168.82 116.544L169.241 117.035Z" fill="#F1F2F2" stroke="#231F20" stroke-width="0.201439" stroke-miterlimit="10" stroke-linecap="round" stroke-linejoin="round"/>
        <path d="M141.144 91.9512L139.953 92.5117L137.781 93.5627C137.431 93.7028 137.15 93.8429 136.87 93.9831C136.169 94.4035 135.539 94.8939 135.048 95.5946C133.997 94.6137 132.876 93.7729 131.755 93.0021C131.615 92.9321 131.405 92.792 131.265 92.7219C131.125 92.6518 131.055 92.5818 130.915 92.5117L131.825 92.4416L139.112 91.811C139.393 91.741 139.603 91.741 139.883 91.741C140.233 91.741 140.654 91.741 141.004 91.741L141.144 91.9512Z" fill="#414042" stroke="#231F20" stroke-width="0.201439" stroke-miterlimit="10" stroke-linecap="round" stroke-linejoin="round"/>
        <path d="M157.049 108.837L152.565 103.162C152.355 102.881 152.145 102.671 151.935 102.391V102.391C150.253 100.359 148.291 98.6075 146.189 97.4163C144.227 96.2953 142.336 95.7348 140.654 95.8048C140.374 95.8048 140.094 95.8048 139.813 95.8749L135.609 96.2252L134.488 96.2953C134.628 96.015 134.769 95.8048 134.979 95.5946C135.469 94.964 136.1 94.4035 136.8 93.9831L137.711 93.5627C138.412 93.2825 139.183 93.1423 140.023 93.1423C140.934 93.1423 141.915 93.2825 142.966 93.5627C143.877 93.843 144.858 94.2634 145.909 94.894C149.342 96.9259 152.495 100.289 154.807 104.213C155.718 105.684 156.419 107.226 157.049 108.837Z" fill="#928874" stroke="#231F20" stroke-width="0.201439" stroke-miterlimit="10"/>
        <path d="M137.781 93.5626L136.87 93.983C137.15 93.7728 137.431 93.6327 137.781 93.5626Z" fill="#F1F2F2" stroke="#231F20" stroke-width="0.201439" stroke-miterlimit="10" stroke-linecap="round" stroke-linejoin="round"/>
        <path d="M141.425 91.811L141.144 91.9512L140.934 91.811C141.144 91.811 141.284 91.811 141.425 91.811Z" fill="#F1F2F2" stroke="#231F20" stroke-width="0.201439" stroke-miterlimit="10" stroke-linecap="round" stroke-linejoin="round"/>
        <path d="M169.171 120.048L168.961 120.118L166.999 121.379L165.107 118.926L165.948 118.366L167.279 117.595L169.171 120.048Z" fill="#414042" stroke="#231F20" stroke-width="0.201439" stroke-miterlimit="10" stroke-linecap="round" stroke-linejoin="round"/>
        <path d="M169.521 120.468L168.96 120.118L169.171 120.048L169.521 120.468Z" fill="#F1F2F2" stroke="#231F20" stroke-width="0.201439" stroke-miterlimit="10" stroke-linecap="round" stroke-linejoin="round"/>
        <path d="M167.279 117.595L165.948 118.366L165.037 118.926L163.496 116.965L157.05 108.837C156.419 107.226 155.648 105.684 154.807 104.213C152.495 100.289 149.342 96.9258 145.909 94.8939C144.928 94.3334 143.947 93.913 142.966 93.5627C141.915 93.2124 140.934 93.0722 140.024 93.1423C139.183 93.1423 138.412 93.2824 137.711 93.5627L139.883 92.5117L141.075 91.9512L141.355 91.811C142.896 92.0212 144.508 92.5818 146.189 93.5627C147.381 94.2633 148.502 95.1041 149.623 96.015C150.744 96.9959 151.725 98.0469 152.705 99.238L152.776 99.3081C152.986 99.5883 153.266 99.8686 153.476 100.149L159.152 107.366L161.113 109.818L167.279 117.595Z" fill="url(#paint2_linear_1_19911)" stroke="#231F20" stroke-width="0.201439" stroke-miterlimit="10" stroke-linecap="round" stroke-linejoin="round"/>
        <path d="M141.425 91.811L141.144 91.9512L140.934 91.811C141.144 91.811 141.284 91.811 141.425 91.811Z" fill="#F1F2F2" stroke="#231F20" stroke-width="0.201439" stroke-miterlimit="10" stroke-linecap="round" stroke-linejoin="round"/>
        <path d="M169.241 117.035L168.68 116.614L168.82 116.544L169.241 117.035Z" fill="#F1F2F2" stroke="#231F20" stroke-width="0.201439" stroke-miterlimit="10" stroke-linecap="round" stroke-linejoin="round"/>
        <path d="M204.484 136.723L204.414 136.793C204.414 136.723 204.414 136.653 204.414 136.583L204.484 136.723Z" fill="#F1F2F2" stroke="#231F20" stroke-width="0.201439" stroke-miterlimit="10" stroke-linecap="round" stroke-linejoin="round"/>
        <path d="M204.764 140.717C204.764 145.341 203.152 148.634 200.56 150.176L200.42 150.246L183.884 159.915C186.477 158.374 188.088 155.08 188.088 150.456C188.088 149.615 188.018 148.774 187.948 147.934C187.598 144.991 186.687 141.908 185.356 138.965C184.515 137.214 183.604 135.462 182.483 133.85C181.502 132.449 180.451 131.118 179.33 129.857L173.865 122.99L173.585 122.64L170.782 119.137L169.241 117.175L168.82 116.684L160.763 106.315L154.177 97.9768C153.966 97.6265 153.686 97.3462 153.406 97.066L153.336 96.9959C151.234 94.4735 148.852 92.3015 146.259 90.8301C145.769 90.5498 145.348 90.3396 144.928 90.1294C143.036 89.2186 141.284 88.7982 139.673 88.8683C139.253 88.8683 138.832 88.9383 138.412 88.9383L137.851 89.0084L132.526 89.4288L120.405 90.4798L111.436 91.2505C111.226 91.2505 111.016 91.2505 110.806 91.3206C110.315 91.3906 109.825 91.4607 109.334 91.6709C108.914 91.811 108.494 92.0212 108.073 92.2314L124.679 82.4222C125.099 82.212 125.52 82.0018 126.01 81.8617C126.501 81.7216 126.921 81.5814 127.481 81.5114C127.692 81.5114 127.902 81.4413 128.112 81.4413L155.157 79.1992C156.699 78.989 158.451 79.1291 160.272 79.8298C161.183 80.1801 162.094 80.6005 163.005 81.161C165.597 82.6324 167.979 84.8044 170.081 87.3268L170.152 87.3969C170.432 87.6771 170.642 88.0275 170.922 88.3077L196.006 120.118C197.127 121.309 198.178 122.71 199.159 124.111C201.751 127.895 203.643 132.309 204.414 136.583C204.414 136.653 204.414 136.723 204.414 136.793C204.624 138.124 204.764 139.456 204.764 140.717Z" fill="#414042" stroke="#231F20" stroke-width="0.201439" stroke-miterlimit="10" stroke-linecap="round" stroke-linejoin="round"/>
    </g>
    <defs>
        <linearGradient id="paint0_linear_1_19911" x1="113.864" y1="94.8909" x2="135.002" y2="94.8909" gradientUnits="userSpaceOnUse">
            <stop stop-color="#58595B"/>
            <stop offset="1"/>
        </linearGradient>
        <linearGradient id="paint1_linear_1_19911" x1="166.975" y1="137.864" x2="184.739" y2="137.864" gradientUnits="userSpaceOnUse">
            <stop stop-color="#58595B"/>
            <stop offset="1"/>
        </linearGradient>
        <linearGradient id="paint2_linear_1_19911" x1="137.753" y1="105.395" x2="167.244" y2="105.395" gradientUnits="userSpaceOnUse">
            <stop stop-color="#58595B"/>
            <stop offset="1"/>
        </linearGradient>
        <clipPath id="">
            <rect width="104.538" height="81.9769" fill="white" transform="translate(103.589 79.0592)"/>
        </clipPath>
    </defs>
</svg>
