<svg width="230" height="230" viewBox="0 0 230 230" fill="none"
    xmlns="http://www.w3.org/2000/svg">
    <g clip-path="url(#)">
        <path d="M117.182 182.826L116.691 183.107C116.621 183.107 116.621 183.107 116.551 183.107C116.761 183.037 116.972 182.967 117.182 182.826Z" fill="#F1F2F2" stroke="#231F20" stroke-width="0.201439" stroke-miterlimit="10" stroke-linecap="round" stroke-linejoin="round"/>
        <path d="M121.246 185.139C121.105 185.279 120.895 185.349 120.755 185.489L120.685 185.559L121.246 185.139Z" fill="#F1F2F2" stroke="#231F20" stroke-width="0.201439" stroke-miterlimit="10" stroke-linecap="round" stroke-linejoin="round"/>
        <path d="M117.182 182.826L116.691 183.107C116.621 183.107 116.621 183.107 116.551 183.107C116.761 183.037 116.972 182.967 117.182 182.826Z" fill="#F1F2F2" stroke="#231F20" stroke-width="0.201439" stroke-miterlimit="10" stroke-linecap="round" stroke-linejoin="round"/>
        <path d="M117.182 182.826L116.691 183.107C116.621 183.107 116.621 183.107 116.551 183.107C116.761 183.037 116.972 182.967 117.182 182.826Z" fill="#F1F2F2" stroke="#231F20" stroke-width="0.201439" stroke-miterlimit="10" stroke-linecap="round" stroke-linejoin="round"/>
        <path d="M121.246 185.139C121.105 185.279 120.895 185.349 120.755 185.489L120.685 185.559L121.246 185.139Z" fill="#F1F2F2" stroke="#231F20" stroke-width="0.201439" stroke-miterlimit="10" stroke-linecap="round" stroke-linejoin="round"/>
        <path d="M117.182 182.826L116.691 183.107C116.621 183.107 116.621 183.107 116.551 183.107C116.761 183.037 116.972 182.967 117.182 182.826Z" fill="#F1F2F2" stroke="#231F20" stroke-width="0.201439" stroke-miterlimit="10" stroke-linecap="round" stroke-linejoin="round"/>
        <path d="M117.182 182.826L116.691 183.107C116.621 183.107 116.621 183.107 116.551 183.107C116.761 183.037 116.972 182.967 117.182 182.826Z" fill="#F1F2F2" stroke="#231F20" stroke-width="0.201439" stroke-miterlimit="10" stroke-linecap="round" stroke-linejoin="round"/>
        <path d="M112.628 179.884C112.628 180.724 112.558 181.495 112.417 182.196C112.347 182.616 112.277 182.967 112.137 183.387C111.997 183.877 111.857 184.298 111.647 184.718C111.507 184.998 111.366 185.209 111.226 185.419C111.016 185.769 110.806 186.12 110.526 186.4C110.105 186.82 109.685 187.241 109.194 187.521L109.054 187.591C106.882 188.782 103.939 188.642 100.646 186.75C100.226 186.54 99.8756 186.26 99.4552 185.979L56.9954 161.386C56.7151 161.246 56.5049 161.106 56.2247 160.966C49.6385 157.182 44.3135 147.934 44.3135 140.367C44.3135 138.825 44.5237 137.494 44.9441 136.373C45.5046 134.691 46.4855 133.5 47.6766 132.729C47.7467 132.729 47.7467 132.659 47.8168 132.659C48.3773 132.379 48.9378 132.169 49.5684 132.029C49.7085 132.029 49.9187 131.959 50.0589 131.959C50.199 131.959 50.4092 131.889 50.6194 131.889L52.5112 131.748H52.9316L59.0273 131.258H59.4477L62.8108 130.978L64.4223 130.838L67.3651 130.627L72.3398 130.207C72.62 130.137 72.9003 130.137 73.1806 130.137C73.3207 130.137 73.4608 130.137 73.671 130.137C74.5118 130.137 75.4227 130.347 76.4036 130.697C77.1743 130.978 77.945 131.328 78.7158 131.748C79.8368 132.379 80.9579 133.22 81.9388 134.131C82.7796 134.901 83.6204 135.812 84.3911 136.723L84.4612 136.793C84.6714 137.073 84.8815 137.284 85.0917 137.564L95.3914 150.526L96.022 151.297L97.5635 153.259L97.8437 153.609L100.086 156.482L102.258 159.214L105.481 163.278C106.041 163.839 106.532 164.469 107.022 165.1C107.373 165.52 107.723 166.011 108.003 166.501C110.526 170.285 112.277 174.699 112.558 178.833C112.628 179.113 112.628 179.533 112.628 179.884Z" fill="#F1F2F2" stroke="#231F20" stroke-width="0.201439" stroke-miterlimit="10" stroke-linecap="round" stroke-linejoin="round"/>
        <path opacity="0.14" d="M112.628 179.884C112.628 180.724 112.558 181.495 112.417 182.196C112.347 182.616 112.277 182.967 112.137 183.387C111.997 183.877 111.857 184.298 111.647 184.718C111.507 184.998 111.366 185.209 111.226 185.419C111.016 185.769 110.806 186.12 110.526 186.4C110.105 186.82 109.685 187.241 109.194 187.521L109.054 187.591C106.882 188.782 103.939 188.642 100.646 186.75C100.226 186.54 99.8756 186.26 99.4552 185.979L56.9954 161.386C56.7151 161.246 56.5049 161.106 56.2247 160.966C49.6385 157.182 44.3135 147.934 44.3135 140.367C44.3135 138.825 44.5237 137.494 44.9441 136.373C45.5046 134.691 46.4855 133.5 47.6766 132.729C47.7467 132.729 47.7467 132.659 47.8168 132.659C48.3773 132.379 48.9378 132.169 49.5684 132.029C49.7085 132.029 49.9187 131.959 50.0589 131.959C50.199 131.959 50.4092 131.889 50.6194 131.889L52.5112 131.748H52.9316L59.0273 131.258H59.4477L62.8108 130.978L64.4223 130.838L67.3651 130.627L72.3398 130.207C72.62 130.137 72.9003 130.137 73.1806 130.137C73.3207 130.137 73.4608 130.137 73.671 130.137C74.5118 130.137 75.4227 130.347 76.4036 130.697C77.1743 130.978 77.945 131.328 78.7158 131.748C79.8368 132.379 80.9579 133.22 81.9388 134.131C82.7796 134.901 83.6204 135.812 84.3911 136.723L84.4612 136.793C84.6714 137.073 84.8815 137.284 85.0917 137.564L95.3914 150.526L96.022 151.297L97.5635 153.259L97.8437 153.609L100.086 156.482L102.258 159.214L105.481 163.278C106.041 163.839 106.532 164.469 107.022 165.1C107.373 165.52 107.723 166.011 108.003 166.501C110.526 170.285 112.277 174.699 112.558 178.833C112.628 179.113 112.628 179.533 112.628 179.884Z" fill="black" stroke="#231F20" stroke-width="0.201439" stroke-miterlimit="10"/>
        <path d="M120.685 175.119C120.685 178.903 119.354 181.495 117.252 182.756L117.182 182.826C116.971 182.967 116.761 183.037 116.551 183.107C116.621 183.107 116.621 183.107 116.691 183.107L112.907 185.349L111.997 185.839L110.806 186.54L109.194 187.521C109.684 187.241 110.105 186.82 110.525 186.4C110.806 186.12 111.016 185.769 111.226 185.419C111.366 185.209 111.506 184.928 111.646 184.718C111.857 184.298 111.997 183.877 112.137 183.387C112.207 183.037 112.347 182.616 112.417 182.196C112.557 181.495 112.627 180.725 112.627 179.884C112.627 179.533 112.627 179.113 112.557 178.763C112.277 174.699 110.595 170.215 108.003 166.431C107.653 165.941 107.372 165.52 107.022 165.03C106.532 164.399 106.041 163.769 105.481 163.208L102.258 159.144L100.085 156.412L97.8434 153.539L97.5631 153.189L96.0216 151.227L95.3911 150.456L85.0914 137.494C84.8812 137.214 84.671 137.003 84.4608 136.723L84.3907 136.653C83.62 135.742 82.7792 134.831 81.9384 134.061C80.8874 133.15 79.8365 132.309 78.7154 131.678C77.9447 131.188 77.174 130.838 76.4032 130.627C75.4223 130.277 74.5115 130.137 73.6707 130.067C73.5305 130.067 73.3203 130.067 73.1802 130.067C72.8999 130.067 72.6197 130.067 72.3394 130.137L67.3648 130.557L64.422 130.768L62.8105 130.908L59.4473 131.188H59.0269L52.9312 131.678H52.5108L50.619 131.819C50.4088 131.819 50.2687 131.819 50.0585 131.889C49.9184 131.889 49.7082 131.959 49.5681 131.959C48.9375 132.099 48.3769 132.309 47.8164 132.589L49.5681 131.538L55.8039 127.825C56.5046 127.475 57.2052 127.194 58.046 127.124C58.1861 127.124 58.3963 127.054 58.6065 127.054L59.1671 126.984L61.6194 126.774L63.0207 126.634L72.3394 125.863L75.072 125.653L76.2631 125.723L80.467 125.373C80.7473 125.302 81.0276 125.302 81.3078 125.302C82.9193 125.232 84.8111 125.793 86.843 126.914C88.945 128.105 90.8368 129.857 92.5884 131.889L92.6585 131.959C92.8687 132.239 93.0789 132.449 93.2891 132.729L97.7733 138.405L104.219 146.532L105.761 148.564L107.653 150.947L110.315 154.38L113.608 158.514C114.519 159.495 115.36 160.616 116.131 161.737C116.131 161.807 116.201 161.807 116.201 161.877C116.551 162.437 116.901 162.928 117.182 163.488C118.863 166.431 120.054 169.724 120.475 172.807C120.615 173.578 120.685 174.349 120.685 175.119Z" fill="#F1F2F2" stroke="#231F20" stroke-width="0.201439" stroke-miterlimit="10" stroke-linecap="round" stroke-linejoin="round"/>
        <path opacity="0.25" d="M80.8876 143.94L71.709 153.259L65.4731 145.481L80.8876 143.94Z" fill="black" stroke="#231F20" stroke-width="0.201439" stroke-miterlimit="10"/>
        <path d="M81.9386 141.558C81.9386 142.749 81.5182 143.59 80.8876 144.01C80.8176 144.01 80.8176 144.08 80.7475 144.08C80.6774 144.15 79.6965 144.641 78.2251 145.552C73.811 148.074 64.8426 153.189 60.0781 155.641C59.2373 156.061 58.5366 156.412 58.0462 156.692C58.6768 156.272 59.0972 155.361 59.0972 154.24C59.0972 151.717 57.3455 148.634 55.1735 147.373C54.1926 146.813 53.2817 146.673 52.5811 147.023C53.3518 146.603 54.2626 146.112 55.2436 145.552C59.3074 143.38 64.6324 140.507 68.8363 138.265C69.8172 137.704 70.7281 137.214 71.5689 136.793C73.2505 135.883 74.5116 135.182 75.2123 134.832C75.4926 134.691 75.7028 134.551 75.7028 134.551C76.3333 134.341 77.1741 134.481 78.085 134.972C80.187 136.093 81.9386 139.106 81.9386 141.558Z" fill="url(#paint0_linear_1_19911)" stroke="#231F20" stroke-width="0.201439" stroke-miterlimit="10" stroke-linecap="round" stroke-linejoin="round"/>
        <path d="M81.518 171.756C81.518 171.756 75.4223 165.59 74.3713 177.151C73.3203 188.712 73.3203 188.712 73.3203 188.712L84.8812 206.088L98.4039 207.49L99.3848 200.483L81.518 171.756Z" fill="#49443A" stroke="#231F20" stroke-width="0.225612" stroke-miterlimit="10" stroke-linecap="round" stroke-linejoin="round"/>
        <path d="M105.691 192.846C105.691 193.687 105.621 194.457 105.551 195.228C105.411 195.929 105.27 196.559 105.06 197.19C104.57 198.591 103.729 199.642 102.748 200.343C101.767 201.044 100.576 201.464 99.2447 201.464C99.1746 201.464 99.0345 201.464 98.9644 201.464C97.4931 201.394 95.8115 200.974 93.9898 199.993C93.9197 199.993 93.9197 199.923 93.8496 199.923C87.1934 196.209 81.7283 186.96 81.6582 179.393C81.6582 179.043 81.6582 178.623 81.6582 178.272C81.7283 176.591 82.1487 175.189 82.7092 174.068C82.7092 173.998 82.7793 173.928 82.8493 173.858C83.55 172.597 84.5309 171.686 85.7921 171.196C86.8431 170.775 88.0342 170.635 89.3654 170.845C90.3464 170.985 91.4674 171.336 92.5885 171.896C92.8687 172.036 93.2191 172.176 93.4993 172.387C93.6394 172.457 93.7796 172.527 93.9898 172.667C94.0598 172.667 94.0598 172.737 94.1299 172.737C99.525 177.922 103.799 185.209 105.691 192.355C105.691 192.425 105.691 192.425 105.691 192.496C105.691 192.566 105.691 192.706 105.691 192.846Z" fill="#6E6657" stroke="#231F20" stroke-width="0.225612" stroke-miterlimit="10" stroke-linecap="round" stroke-linejoin="round"/>
        <path d="M79.6963 183.597C79.7664 189.272 83.8302 196.139 88.8048 198.941C91.4673 200.413 93.7795 200.483 95.391 199.292C96.1617 198.731 96.7223 197.961 97.1427 196.91C97.2828 196.489 97.4229 195.999 97.493 195.438C97.5631 194.878 97.6331 194.317 97.6331 193.687C97.5631 188.011 93.4992 181.145 88.5246 178.342C88.3144 178.202 88.1042 178.132 87.8239 177.992C86.9831 177.571 86.1423 177.361 85.4417 177.221C84.4608 177.081 83.5499 177.151 82.7792 177.501C80.8173 178.342 79.6262 180.444 79.6963 183.597Z" fill="#928874" stroke="#231F20" stroke-width="0.225612" stroke-miterlimit="10" stroke-linecap="round" stroke-linejoin="round"/>
        <path d="M82.7788 177.572C83.5495 177.221 84.4604 177.151 85.4413 177.291C86.212 177.431 86.9828 177.642 87.8235 178.062C88.0337 178.202 88.2439 178.272 88.5242 178.412C93.4989 181.215 97.5627 188.081 97.6327 193.757C97.6327 194.387 97.5627 194.948 97.4926 195.508C97.4226 195.999 97.2824 196.489 97.1423 196.98C96.792 198.031 96.1614 198.801 95.3906 199.362L100.225 196.489L100.295 196.419C101.907 195.508 102.888 193.476 102.888 190.604C102.818 184.928 98.7538 178.062 93.7791 175.259C91.6071 174.068 89.6453 173.788 88.1038 174.419L86.8426 175.119L82.7788 177.572Z" fill="url(#paint1_linear_1_19911)" stroke="#231F20" stroke-width="0.225612" stroke-miterlimit="10" stroke-linecap="round" stroke-linejoin="round"/>
        <path d="M105.691 192.425C105.691 192.355 105.691 192.355 105.621 192.285C103.659 185.068 99.3851 177.852 94.0601 172.667C93.99 172.597 93.9199 172.597 93.9199 172.527C91.9581 170.635 89.8561 169.093 87.6841 167.832C87.1936 167.552 86.7032 167.342 86.2828 167.132C84.5311 166.291 82.8495 165.73 81.238 165.52C79.2061 165.24 77.3143 165.45 75.7028 166.081H75.6328C71.569 167.762 69.0466 172.246 69.1167 178.833C69.2568 190.744 77.8048 205.177 88.2446 211.063C93.7798 214.146 98.7545 214.216 102.188 211.764C103.799 210.642 104.99 208.961 105.831 206.789C106.181 205.878 106.462 204.827 106.602 203.706C106.812 202.585 106.882 201.324 106.882 199.992C106.742 197.54 106.392 195.018 105.691 192.425ZM97.0028 203.706C94.8308 205.247 91.6778 205.247 88.1045 203.215C81.4482 199.502 75.9831 190.253 75.913 182.686C75.843 178.482 77.4545 175.61 80.0469 174.559C80.8176 174.208 81.7285 174.068 82.7094 174.068C82.7795 174.068 82.8495 174.068 82.9196 174.068C83.1298 174.068 83.4101 174.068 83.6203 174.138C84.6012 174.278 85.7222 174.629 86.8433 175.119C87.1236 175.259 87.4739 175.399 87.7542 175.61C94.4104 179.323 99.8755 188.572 99.9456 196.139C99.9456 196.279 99.9456 196.419 99.9456 196.559C99.9456 197.26 99.8755 197.89 99.8055 198.521C99.6653 199.222 99.5252 199.852 99.315 200.483C99.1749 200.833 99.0347 201.114 98.8946 201.464C98.4041 202.375 97.7736 203.145 97.0028 203.706Z" fill="#231F20" stroke="#231F20" stroke-width="0.225612" stroke-miterlimit="10" stroke-linecap="round" stroke-linejoin="round"/>
        <path d="M115.29 204.056C115.78 203.846 116.271 203.566 116.761 203.216L115.29 204.056ZM105.691 192.285C103.729 185.069 99.4551 177.852 94.1301 172.667C94.0601 172.597 93.99 172.597 93.99 172.527V172.597C94.2703 173.788 94.6907 174.909 95.1111 176.1C96.8627 180.865 99.5953 185.489 102.888 189.413C103.799 190.464 104.78 191.515 105.761 192.496C105.761 192.496 105.761 192.496 105.831 192.496C105.691 192.355 105.691 192.355 105.691 192.285ZM88.0344 158.794C87.9644 158.794 87.9644 158.864 87.9644 158.864C88.665 158.444 89.2956 158.093 89.6459 157.883C89.716 157.883 89.716 157.813 89.7861 157.813C89.8561 157.743 89.9262 157.743 89.9262 157.743C89.9963 157.743 89.9963 157.673 90.0663 157.673L90.1364 157.603C89.4357 157.883 88.7351 158.303 88.0344 158.794Z" fill="#231F20" stroke="#231F20" stroke-width="0.225612" stroke-miterlimit="10" stroke-linecap="round" stroke-linejoin="round"/>
        <path d="M118.513 201.814C118.373 201.954 118.233 202.025 118.163 202.095C118.233 201.954 118.373 201.884 118.513 201.814Z" fill="url(#paint2_linear_1_19911)" stroke="#231F20" stroke-width="0.225612" stroke-miterlimit="10" stroke-linecap="round" stroke-linejoin="round"/>
        <path d="M121.386 191.515C121.386 192.846 121.315 194.107 121.105 195.228C120.965 196.349 120.685 197.33 120.335 198.311C119.564 200.483 118.303 202.165 116.691 203.286L115.22 204.126L102.047 211.764C103.659 210.643 104.85 208.961 105.691 206.789C106.041 205.878 106.321 204.827 106.462 203.706C106.672 202.585 106.742 201.324 106.742 199.993C106.742 197.54 106.321 195.018 105.621 192.425C105.621 192.355 105.621 192.355 105.551 192.285C103.589 185.069 99.3148 177.852 93.9898 172.667C93.9197 172.597 93.8497 172.597 93.8497 172.527C91.8878 170.635 89.7858 169.094 87.6138 167.832C87.1233 167.552 86.6329 167.342 86.2125 167.132C84.4609 166.291 82.7793 165.73 81.1678 165.52C79.1359 165.24 77.2441 165.45 75.6326 166.081H75.5625L88.0342 158.864C87.9641 158.864 87.9641 158.934 87.9641 158.934C88.6648 158.514 89.2954 158.163 89.6457 157.953C89.7158 157.953 89.7158 157.883 89.7859 157.883C89.8559 157.813 89.926 157.813 89.926 157.813C89.996 157.813 89.996 157.743 90.0661 157.743L90.1362 157.673C91.8178 156.972 93.7095 156.762 95.7414 157.042C97.353 157.252 99.0345 157.813 100.786 158.654C101.277 158.864 101.697 159.144 102.187 159.354C104.43 160.616 106.602 162.227 108.563 164.189C113.959 169.374 118.233 176.661 120.124 183.807C120.965 186.4 121.386 188.992 121.386 191.515Z" fill="url(#paint3_linear_1_19911)" stroke="#231F20" stroke-width="0.225612" stroke-miterlimit="10" stroke-linecap="round" stroke-linejoin="round"/>
        <path d="M89.6459 157.883C89.2255 158.093 88.665 158.444 87.9644 158.864L88.0344 158.794L89.6459 157.883Z" fill="#C49A6C" stroke="#231F20" stroke-width="0.225612" stroke-miterlimit="10" stroke-linecap="round" stroke-linejoin="round"/>
        <path d="M21.5422 138.265C21.5422 138.265 15.4465 132.099 14.3955 143.66C13.2744 155.151 13.2744 155.151 13.2744 155.151L24.8353 172.527L38.358 173.928L39.3389 166.922L21.5422 138.265Z" fill="#49443A" stroke="#231F20" stroke-width="0.225612" stroke-miterlimit="10" stroke-linecap="round" stroke-linejoin="round"/>
        <path d="M45.7149 159.355C45.7149 160.195 45.6449 160.966 45.5748 161.737C45.4347 162.437 45.2945 163.068 45.0843 163.699C44.5939 165.1 43.7531 166.151 42.7722 166.852C41.7912 167.552 40.6001 167.973 39.2689 167.973C39.1988 167.973 39.0587 167.973 38.9886 167.973C37.5172 167.973 35.8357 167.482 34.0139 166.501C33.9439 166.501 33.9439 166.431 33.8738 166.431C27.1475 162.648 21.6824 153.399 21.6123 145.832C21.6123 145.482 21.6123 145.061 21.6123 144.711C21.6824 143.029 22.1028 141.628 22.6633 140.507C22.6633 140.437 22.7334 140.367 22.8034 140.297C23.5041 139.035 24.485 138.125 25.7462 137.634C26.7972 137.214 27.9883 137.074 29.3195 137.284C30.3005 137.424 31.4215 137.774 32.5426 138.335C32.8228 138.475 33.1732 138.615 33.4534 138.825C33.5936 138.895 33.7337 138.965 33.9439 139.106C34.0139 139.106 34.0139 139.176 34.084 139.176C39.4791 144.36 43.7531 151.647 45.6449 158.794C45.6449 158.864 45.6449 158.864 45.6449 158.934C45.7149 159.004 45.7149 159.144 45.7149 159.355Z" fill="#6E6657" stroke="#231F20" stroke-width="0.225612" stroke-miterlimit="10" stroke-linecap="round" stroke-linejoin="round"/>
        <path d="M19.6504 150.106C19.7205 155.781 23.7843 162.648 28.7589 165.45C31.4214 166.922 33.7336 166.992 35.3451 165.801C36.1158 165.24 36.6764 164.469 37.0968 163.418C37.2369 162.998 37.377 162.508 37.4471 161.947C37.5172 161.386 37.5872 160.826 37.5872 160.195C37.5172 154.52 33.4533 147.654 28.4787 144.851C28.2685 144.711 28.0583 144.641 27.778 144.501C26.9372 144.08 26.0964 143.87 25.3958 143.73C24.4149 143.59 23.504 143.66 22.7333 144.01C20.8415 144.851 19.6504 146.953 19.6504 150.106Z" fill="#928874" stroke="#231F20" stroke-width="0.225612" stroke-miterlimit="10" stroke-linecap="round" stroke-linejoin="round"/>
        <path d="M22.8037 144.01C23.5744 143.66 24.4853 143.59 25.4662 143.73C26.2369 143.87 27.0077 144.08 27.8484 144.501C28.0586 144.641 28.2688 144.711 28.5491 144.851C33.5238 147.654 37.5876 154.52 37.6577 160.195C37.6577 160.826 37.5876 161.386 37.5175 161.947C37.4475 162.437 37.3073 162.928 37.1672 163.418C36.8169 164.469 36.1863 165.24 35.4155 165.801L40.2501 162.928L40.3202 162.858C41.9317 161.947 42.9126 159.915 42.9126 157.042C42.8425 151.367 38.7787 144.501 33.804 141.698C31.632 140.507 29.6702 140.227 28.1287 140.857L26.8675 141.558L22.8037 144.01Z" fill="url(#paint4_linear_1_19911)" stroke="#231F20" stroke-width="0.225612" stroke-miterlimit="10" stroke-linecap="round" stroke-linejoin="round"/>
        <path d="M45.7149 158.934C45.7149 158.864 45.7149 158.864 45.6448 158.794C43.683 151.577 39.409 144.36 34.084 139.176C34.0139 139.106 33.9439 139.106 33.9439 139.035C31.982 137.144 29.88 135.602 27.708 134.341C27.2175 134.061 26.7271 133.851 26.3067 133.64C24.5551 132.8 22.8735 132.239 21.262 132.029C19.2301 131.749 17.3383 131.959 15.7268 132.589H15.6567C11.5929 134.271 9.07052 138.755 9.14058 145.341C9.28071 157.253 17.8287 171.686 28.2685 177.572C33.8037 180.655 38.7784 180.725 42.2116 178.272C43.8231 177.151 45.0143 175.47 45.855 173.298C46.2054 172.387 46.4856 171.336 46.6258 170.215C46.836 169.094 46.906 167.833 46.906 166.501C46.7659 164.049 46.4156 161.457 45.7149 158.934ZM37.0268 170.145C34.8547 171.686 31.7018 171.686 28.1284 169.654C21.4722 165.941 16.007 156.762 15.937 149.125C15.8669 144.921 17.4784 142.048 20.0708 140.997C20.8416 140.647 21.7524 140.507 22.7333 140.507C22.8034 140.507 22.8735 140.507 22.9435 140.507C23.1537 140.507 23.434 140.507 23.6442 140.577C24.6251 140.717 25.7462 141.067 26.8672 141.558C27.1475 141.698 27.4978 141.838 27.7781 142.048C34.4343 145.762 39.8995 155.01 39.9695 162.578C39.9695 162.718 39.9695 162.858 39.9695 162.998C39.9695 163.699 39.8995 164.329 39.8294 164.96C39.6893 165.66 39.5491 166.291 39.3389 166.922C39.1988 167.272 39.0587 167.552 38.9185 167.903C38.4281 168.883 37.7975 169.584 37.0268 170.145Z" fill="#231F20" stroke="#231F20" stroke-width="0.225612" stroke-miterlimit="10" stroke-linecap="round" stroke-linejoin="round"/>
        <path d="M55.3139 170.565C55.8044 170.355 56.2948 170.074 56.7853 169.724L55.3139 170.565ZM45.6449 158.724C43.683 151.507 39.409 144.29 34.084 139.105C34.0139 139.035 33.9439 139.035 33.9439 138.965V139.035C34.2241 140.226 34.6445 141.348 35.0649 142.539C36.8166 147.303 39.5491 151.927 42.8422 155.851C43.7531 156.902 44.734 157.953 45.7149 158.934C45.7149 158.934 45.7149 158.934 45.785 158.934C45.7149 158.864 45.7149 158.794 45.6449 158.724ZM28.0583 125.302C27.9883 125.302 27.9883 125.373 27.9883 125.373C28.6889 124.952 29.3195 124.602 29.6699 124.392C29.7399 124.392 29.7399 124.322 29.81 124.322C29.8801 124.251 29.9501 124.251 29.9501 124.251C30.0202 124.251 30.0202 124.181 30.0903 124.181L30.1603 124.111C29.4597 124.392 28.6889 124.812 28.0583 125.302Z" fill="#231F20" stroke="#231F20" stroke-width="0.225612" stroke-miterlimit="10" stroke-linecap="round" stroke-linejoin="round"/>
        <path d="M58.4665 168.253C58.3264 168.393 58.1863 168.463 58.1162 168.533C58.2563 168.463 58.3965 168.393 58.4665 168.253Z" fill="url(#paint5_linear_1_19911)" stroke="#231F20" stroke-width="0.225612" stroke-miterlimit="10" stroke-linecap="round" stroke-linejoin="round"/>
        <path d="M61.4102 157.953C61.4102 159.284 61.3401 160.546 61.1299 161.667C60.9898 162.788 60.7095 163.769 60.3592 164.75C59.5885 166.922 58.3273 168.603 56.7158 169.724L55.2444 170.565L42.1421 178.202C43.7536 177.081 44.9447 175.4 45.7855 173.228C46.1358 172.317 46.4161 171.266 46.5562 170.145C46.7664 169.024 46.8365 167.762 46.8365 166.431C46.8365 163.979 46.4161 161.456 45.7154 158.864C45.7154 158.794 45.7154 158.794 45.6454 158.724C43.6835 151.507 39.4095 144.29 34.0845 139.105C34.0145 139.035 33.9444 139.035 33.9444 138.965C31.9825 137.074 29.8806 135.532 27.7085 134.271C27.2181 133.991 26.7276 133.78 26.3072 133.57C24.5556 132.73 22.874 132.169 21.2625 131.959C19.2306 131.679 17.3388 131.889 15.7273 132.519H15.6572L28.0589 125.303C27.9888 125.303 27.9888 125.373 27.9888 125.373C28.6895 124.952 29.32 124.602 29.6704 124.392C29.7404 124.392 29.7404 124.322 29.8105 124.322C29.8806 124.252 29.9506 124.252 29.9506 124.252C30.0207 124.252 30.0207 124.181 30.0908 124.181L30.1608 124.111C31.8424 123.411 33.7342 123.201 35.7661 123.481C37.3776 123.691 39.0592 124.252 40.8108 125.092C41.3013 125.303 41.7217 125.583 42.2122 125.793C44.4543 127.054 46.6263 128.666 48.5881 130.628C53.9832 135.812 58.2572 143.099 60.149 150.246C60.9898 152.838 61.4102 155.501 61.4102 157.953Z" fill="url(#paint6_linear_1_19911)" stroke="#231F20" stroke-width="0.225612" stroke-miterlimit="10" stroke-linecap="round" stroke-linejoin="round"/>
        <path d="M29.6699 124.392C29.2495 124.602 28.6889 124.952 27.9883 125.373L28.0583 125.303L29.6699 124.392Z" fill="#C49A6C" stroke="#231F20" stroke-width="0.225612" stroke-miterlimit="10" stroke-linecap="round" stroke-linejoin="round"/>
        <path d="M91.1872 197.751L90.6968 198.031C90.6267 198.031 90.6267 198.031 90.5566 198.031C90.8369 197.961 90.977 197.891 91.1872 197.751Z" fill="#F1F2F2" stroke="#231F20" stroke-width="0.201439" stroke-miterlimit="10" stroke-linecap="round" stroke-linejoin="round"/>
        <path d="M91.1872 197.751L90.6968 198.031C90.6267 198.031 90.6267 198.031 90.5566 198.031C90.8369 197.961 90.977 197.891 91.1872 197.751Z" fill="#F1F2F2" stroke="#231F20" stroke-width="0.201439" stroke-miterlimit="10" stroke-linecap="round" stroke-linejoin="round"/>
        <path d="M91.1872 197.751L90.6968 198.031C90.6267 198.031 90.6267 198.031 90.5566 198.031C90.8369 197.961 90.977 197.891 91.1872 197.751Z" fill="#F1F2F2" stroke="#231F20" stroke-width="0.201439" stroke-miterlimit="10" stroke-linecap="round" stroke-linejoin="round"/>
        <path d="M91.1872 197.751L90.6968 198.031C90.6267 198.031 90.6267 198.031 90.5566 198.031C90.8369 197.961 90.977 197.891 91.1872 197.751Z" fill="#F1F2F2" stroke="#231F20" stroke-width="0.201439" stroke-miterlimit="10" stroke-linecap="round" stroke-linejoin="round"/>
        <path d="M91.1872 197.751L90.6968 198.031C90.6267 198.031 90.6267 198.031 90.5566 198.031C90.8369 197.961 90.977 197.891 91.1872 197.751Z" fill="#F1F2F2" stroke="#231F20" stroke-width="0.201439" stroke-miterlimit="10" stroke-linecap="round" stroke-linejoin="round"/>
        <path d="M86.633 194.808C86.633 195.649 86.5629 196.419 86.4228 197.12C86.3527 197.54 86.2826 197.891 86.1425 198.311C86.0024 198.802 85.8622 199.222 85.652 199.642C85.5119 199.923 85.3718 200.133 85.2316 200.343C85.0215 200.693 84.8113 201.044 84.531 201.324C84.1106 201.744 83.6902 202.165 83.1997 202.445L83.0596 202.515C80.8876 203.706 77.9448 203.566 74.6517 201.674C74.2313 201.464 73.881 201.184 73.4606 200.904L31.0007 176.31C30.7205 176.17 30.5103 176.03 30.23 175.89C23.6438 172.107 18.3188 162.858 18.3188 155.291C18.3188 153.749 18.529 152.418 18.9494 151.297C19.51 149.615 20.4909 148.424 21.682 147.654C21.7521 147.654 21.7521 147.584 21.8221 147.584C22.3827 147.303 22.9432 147.093 23.5738 146.953C23.7139 146.953 23.9241 146.883 24.0642 146.883C24.2044 146.883 24.4146 146.813 24.6248 146.813L26.5165 146.673H26.9369L33.0327 146.182H33.4531L36.8162 145.902L38.4277 145.762L41.3705 145.552L46.3452 145.131C46.6254 145.061 46.9057 145.061 47.1859 145.061C47.3261 145.061 47.4662 145.061 47.6764 145.061C48.5172 145.061 49.428 145.271 50.409 145.622C51.1797 145.902 51.9504 146.252 52.7211 146.673C53.8422 147.303 54.9632 148.144 55.9442 149.055C56.785 149.826 57.6257 150.736 58.3965 151.647L58.4665 151.717C58.6767 151.998 58.8869 152.208 59.0971 152.488L69.3968 165.45L70.0274 166.221L71.5688 168.183L71.8491 168.533L74.0912 171.406L76.2632 174.138L79.4863 178.202C80.0468 178.763 80.5372 179.393 81.0277 180.024C81.378 180.444 81.7284 180.935 82.0086 181.425C84.531 185.209 86.2826 189.623 86.5629 193.757C86.633 194.037 86.633 194.387 86.633 194.808Z" fill="#F1F2F2" stroke="#231F20" stroke-width="0.201439" stroke-miterlimit="10" stroke-linecap="round" stroke-linejoin="round"/>
        <path opacity="0.14" d="M86.633 194.808C86.633 195.649 86.5629 196.419 86.4228 197.12C86.3527 197.54 86.2826 197.891 86.1425 198.311C86.0024 198.802 85.8622 199.222 85.652 199.642C85.5119 199.923 85.3718 200.133 85.2316 200.343C85.0215 200.693 84.8113 201.044 84.531 201.324C84.1106 201.744 83.6902 202.165 83.1997 202.445L83.0596 202.515C80.8876 203.706 77.9448 203.566 74.6517 201.674C74.2313 201.464 73.881 201.184 73.4606 200.904L31.0007 176.31C30.7205 176.17 30.5103 176.03 30.23 175.89C23.6438 172.107 18.3188 162.858 18.3188 155.291C18.3188 153.749 18.529 152.418 18.9494 151.297C19.51 149.615 20.4909 148.424 21.682 147.654C21.7521 147.654 21.7521 147.584 21.8221 147.584C22.3827 147.303 22.9432 147.093 23.5738 146.953C23.7139 146.953 23.9241 146.883 24.0642 146.883C24.2044 146.883 24.4146 146.813 24.6248 146.813L26.5165 146.673H26.9369L33.0327 146.182H33.4531L36.8162 145.902L38.4277 145.762L41.3705 145.552L46.3452 145.131C46.6254 145.061 46.9057 145.061 47.1859 145.061C47.3261 145.061 47.4662 145.061 47.6764 145.061C48.5172 145.061 49.428 145.271 50.409 145.622C51.1797 145.902 51.9504 146.252 52.7211 146.673C53.8422 147.303 54.9632 148.144 55.9442 149.055C56.785 149.826 57.6257 150.736 58.3965 151.647L58.4665 151.717C58.6767 151.998 58.8869 152.208 59.0971 152.488L69.3968 165.45L70.0274 166.221L71.5688 168.183L71.8491 168.533L74.0912 171.406L76.2632 174.138L79.4863 178.202C80.0468 178.763 80.5372 179.393 81.0277 180.024C81.378 180.444 81.7284 180.935 82.0086 181.425C84.531 185.209 86.2826 189.623 86.5629 193.757C86.633 194.037 86.633 194.387 86.633 194.808Z" fill="black" stroke="#231F20" stroke-width="0.201439" stroke-miterlimit="10"/>
        <path d="M94.6904 190.043C94.6904 193.827 93.3592 196.419 91.2572 197.68L91.1871 197.751C90.9769 197.891 90.7667 197.961 90.5565 198.031C90.6266 198.031 90.6266 198.031 90.6967 198.031L86.9131 200.273L86.0023 200.763L84.8111 201.464L83.1996 202.445C83.6901 202.165 84.1105 201.744 84.5309 201.324C84.8111 201.044 85.0213 200.693 85.2315 200.343C85.3717 200.133 85.5118 199.853 85.6519 199.642C85.8621 199.222 86.0023 198.802 86.1424 198.311C86.2125 197.961 86.3526 197.54 86.4227 197.12C86.5628 196.419 86.6329 195.649 86.6329 194.808C86.6329 194.457 86.6328 194.037 86.5628 193.687C86.2825 189.623 84.6009 185.139 82.0085 181.355C81.6582 180.865 81.3779 180.444 81.0276 179.954C80.5371 179.323 80.0467 178.693 79.4861 178.132L76.2631 174.068L74.1611 171.266L71.919 168.393L71.6388 168.043L70.0973 166.081L69.4667 165.31L59.1671 152.348C58.9569 152.068 58.7467 151.857 58.5365 151.577L58.4664 151.507C57.6957 150.596 56.8549 149.685 56.0141 148.915C54.9631 148.004 53.9121 147.163 52.7911 146.532C52.0204 146.042 51.2496 145.692 50.4789 145.481C49.498 145.131 48.5871 144.991 47.7464 144.921C47.6062 144.921 47.396 144.921 47.2559 144.921C46.9756 144.921 46.6954 144.921 46.4151 144.991L41.4404 145.411L38.4977 145.622L36.8862 145.762L33.523 146.112H33.1026L27.0069 146.603H26.5865L24.6947 146.743C24.4845 146.743 24.3444 146.743 24.1342 146.813C23.9941 146.813 23.7839 146.883 23.6437 146.883C23.0131 147.023 22.4526 147.233 21.8921 147.513L23.6437 146.462L29.8796 142.749C30.5802 142.399 31.2809 142.118 32.1217 142.048C32.2618 142.048 32.472 141.978 32.6822 141.978L33.2427 141.908L35.695 141.698L37.0964 141.558L46.4151 140.787L49.1477 140.577L50.2687 140.507L54.4727 140.156C54.7529 140.086 55.0332 140.086 55.3135 140.086C56.925 140.016 58.8167 140.577 60.8487 141.698C62.9506 142.889 64.8424 144.641 66.594 146.673L66.6641 146.743C66.8743 147.023 67.0845 147.233 67.2947 147.513L71.7789 153.189L78.225 161.316L79.7664 163.348L81.6582 165.73L84.3207 169.164L87.6138 173.298C88.5246 174.279 89.3654 175.4 90.1361 176.521C90.1361 176.591 90.2062 176.591 90.2062 176.661C90.5565 177.221 90.9069 177.712 91.1871 178.272C92.8687 181.215 94.0598 184.508 94.4802 187.591C94.6203 188.502 94.6904 189.273 94.6904 190.043Z" fill="#F1F2F2" stroke="#231F20" stroke-width="0.201439" stroke-miterlimit="10" stroke-linecap="round" stroke-linejoin="round"/>
    </g>
    <defs>
        <linearGradient id="paint0_linear_1_19911" x1="64.8735" y1="139.252" x2="70.9576" y2="149.88" gradientUnits="userSpaceOnUse">
            <stop stop-color="#59595C"/>
            <stop offset="0.3636" stop-color="#221F1F"/>
            <stop offset="0.6738" stop-color="#808184"/>
            <stop offset="1" stop-color="#424143"/>
        </linearGradient>
        <linearGradient id="paint1_linear_1_19911" x1="89.5882" y1="176.233" x2="99.1579" y2="193.751" gradientUnits="userSpaceOnUse">
            <stop stop-color="#C2B59B"/>
            <stop offset="1" stop-color="#49443A"/>
        </linearGradient>
        <linearGradient id="paint2_linear_1_19911" x1="118.393" y1="201.801" x2="118.25" y2="202.071" gradientUnits="userSpaceOnUse">
            <stop stop-color="#58595B"/>
            <stop offset="1"/>
        </linearGradient>
        <linearGradient id="paint3_linear_1_19911" x1="100.126" y1="208.486" x2="97.3852" y2="158.117" gradientUnits="userSpaceOnUse">
            <stop/>
            <stop offset="1" stop-color="#58595B"/>
        </linearGradient>
        <linearGradient id="paint4_linear_1_19911" x1="29.6023" y1="142.71" x2="39.1719" y2="160.228" gradientUnits="userSpaceOnUse">
            <stop stop-color="#C2B59B"/>
            <stop offset="1" stop-color="#49443A"/>
        </linearGradient>
        <linearGradient id="paint5_linear_1_19911" x1="58.4062" y1="168.278" x2="58.2631" y2="168.548" gradientUnits="userSpaceOnUse">
            <stop stop-color="#58595B"/>
            <stop offset="1"/>
        </linearGradient>
        <linearGradient id="paint6_linear_1_19911" x1="40.1402" y1="174.963" x2="37.3992" y2="124.594" gradientUnits="userSpaceOnUse">
            <stop/>
            <stop offset="1" stop-color="#58595B"/>
        </linearGradient>
        <clipPath id="">
            <rect width="112.526" height="90.3848" fill="white" transform="translate(9 123.201)"/>
        </clipPath>
    </defs>
</svg>
