<svg width="230" height="230" viewBox="0 0 230 230" fill="none"
    xmlns="http://www.w3.org/2000/svg">
    <g clip-path="url(#)">
        <path d="M193.133 130.137C193.133 131.538 192.713 132.519 192.012 133.08L191.312 133.43L185.777 136.443C186.477 135.883 186.898 134.832 186.898 133.5C186.898 133.08 186.828 132.66 186.757 132.239C186.267 129.437 184.305 126.424 181.993 125.092C181.713 124.952 181.433 124.812 181.222 124.742L166.579 117.736C162.094 115.634 161.254 109.888 161.254 109.538L160.203 90.8303V90.55C160.062 88.1678 158.661 85.4352 156.839 83.6836C156.349 83.2632 155.929 82.9128 155.368 82.5625C154.107 81.8619 152.986 81.7217 152.145 82.0721L157.96 78.9191C158.871 78.2885 160.133 78.2885 161.604 79.1293C164.196 80.6007 166.228 84.104 166.438 87.1168V87.3971L167.489 106.105C167.559 106.455 168.33 112.2 172.814 114.302L187.458 121.309C187.738 121.379 187.949 121.519 188.229 121.659C190.961 123.201 193.133 126.984 193.133 130.137Z" fill="#F1F2F2" stroke="#231F20" stroke-width="0.201439" stroke-miterlimit="10" stroke-linecap="round" stroke-linejoin="round"/>
        <path d="M151.515 104.633C151.515 104.773 150.814 110.239 146.54 108.137L138.342 104.213L136.871 103.512C135.61 102.742 134.419 102.671 133.508 103.092L139.674 99.7287C140.584 99.2383 141.776 99.3083 143.037 100.079L151.445 104.073L151.515 104.633Z" fill="#F1F2F2" stroke="#231F20" stroke-width="0.201439" stroke-miterlimit="10" stroke-linecap="round" stroke-linejoin="round"/>
        <path d="M186.898 133.5C186.898 134.832 186.477 135.883 185.777 136.443C184.866 137.144 183.534 137.214 181.993 136.303L137.571 115.213C137.291 115.143 137.081 115.003 136.801 114.863C134.138 113.321 131.896 109.538 131.896 106.385C131.896 104.773 132.457 103.652 133.437 103.162C134.278 102.742 135.469 102.812 136.801 103.582L138.272 104.283L146.47 108.207C150.744 110.239 151.444 104.844 151.444 104.703V104.213L150.393 85.7156C150.393 85.6455 150.393 85.5054 150.393 85.4353C150.393 83.7537 151.024 82.6327 152.075 82.1422C152.916 81.7919 154.037 81.8619 155.298 82.6327C155.788 82.9129 156.279 83.2633 156.769 83.7537C158.591 85.5054 159.992 88.2379 160.132 90.6202V90.9004L161.183 109.608C161.254 109.958 162.024 115.704 166.508 117.806L181.152 124.812C181.432 124.882 181.643 125.022 181.923 125.163C184.235 126.494 186.197 129.507 186.687 132.309C186.828 132.66 186.898 133.08 186.898 133.5Z" fill="#F1F2F2" stroke="#231F20" stroke-width="0.201439" stroke-miterlimit="10" stroke-linecap="round" stroke-linejoin="round"/>
        <path opacity="0.14" d="M186.898 133.5C186.898 134.832 186.477 135.883 185.777 136.443C184.866 137.144 183.534 137.214 181.993 136.303L137.571 115.213C137.291 115.143 137.081 115.003 136.801 114.863C134.138 113.321 131.896 109.538 131.896 106.385C131.896 104.773 132.457 103.652 133.437 103.162C134.278 102.742 135.469 102.812 136.801 103.582L138.272 104.283L146.47 108.207C150.744 110.239 151.444 104.844 151.444 104.703V104.213L150.393 85.7156C150.393 85.6455 150.393 85.5054 150.393 85.4353C150.393 83.7537 151.024 82.6327 152.075 82.1422C152.916 81.7919 154.037 81.8619 155.298 82.6327C155.788 82.9129 156.279 83.2633 156.769 83.7537C158.591 85.5054 159.992 88.2379 160.132 90.6202V90.9004L161.183 109.608C161.254 109.958 162.024 115.704 166.508 117.806L181.152 124.812C181.432 124.882 181.643 125.022 181.923 125.163C184.235 126.494 186.197 129.507 186.687 132.309C186.828 132.66 186.898 133.08 186.898 133.5Z" fill="black" stroke="#231F20" stroke-width="0.201439" stroke-miterlimit="10"/>
        <path d="M192.012 133.08C191.802 133.22 191.592 133.36 191.312 133.43L192.012 133.08Z" fill="#F1F2F2" stroke="#231F20" stroke-width="0.201439" stroke-miterlimit="10" stroke-linecap="round" stroke-linejoin="round"/>
        <path d="M183.184 156.622C183.184 155.641 183.114 154.59 183.044 153.609C181.712 140.717 172.814 126.143 161.954 119.908C161.744 119.767 161.534 119.697 161.323 119.557C161.253 119.487 161.183 119.487 161.043 119.417C160.903 119.347 160.833 119.277 160.693 119.207C160.553 119.137 160.412 119.067 160.342 118.997C160.272 118.927 160.132 118.927 160.062 118.857C159.992 118.786 159.852 118.786 159.782 118.716C159.572 118.646 159.362 118.506 159.151 118.436C158.381 118.086 157.61 117.806 156.909 117.595L144.367 112.831L122.507 104.563L119.704 103.512L114.87 101.62L112.838 100.85L112.558 100.78C109.054 99.4483 105.901 99.5184 103.449 100.78L102.888 101.13C99.9457 103.022 98.124 106.805 98.124 112.2C98.124 123.271 105.901 136.723 115.5 142.259L161.954 169.094C168.4 172.807 174.215 172.877 178.069 169.864C180.451 168.043 182.133 165.03 182.834 161.106C183.044 159.775 183.184 158.374 183.184 156.832C183.184 156.692 183.184 156.692 183.184 156.622ZM180.661 155.291C180.661 155.501 180.661 155.711 180.661 155.851C180.661 156.061 180.661 156.272 180.661 156.412C180.661 156.622 180.661 156.762 180.661 156.972C180.661 157.183 180.661 157.323 180.591 157.533C180.591 157.743 180.521 157.883 180.521 158.093C180.521 158.234 180.451 158.374 180.451 158.514C180.381 158.864 180.311 159.285 180.241 159.635C180.241 159.775 180.171 159.915 180.171 160.055C180.101 160.335 180.031 160.686 179.891 160.966C179.891 161.036 179.821 161.106 179.821 161.246C179.751 161.527 179.681 161.737 179.54 162.017C179.47 162.157 179.47 162.297 179.4 162.367C179.33 162.508 179.26 162.648 179.19 162.788C179.12 162.928 179.05 163.068 178.98 163.138C178.91 163.348 178.77 163.488 178.7 163.699C178.63 163.769 178.63 163.839 178.56 163.979C178.489 164.049 178.489 164.119 178.419 164.189C178.349 164.259 178.349 164.329 178.279 164.399C178.209 164.469 178.139 164.609 178.069 164.68C177.999 164.75 177.929 164.89 177.859 164.96C177.789 165.03 177.719 165.1 177.649 165.24C177.368 165.59 177.088 165.871 176.808 166.151C176.738 166.221 176.668 166.221 176.668 166.291C176.528 166.431 176.387 166.501 176.247 166.641C176.177 166.711 176.107 166.782 176.037 166.782C175.967 166.852 175.897 166.852 175.827 166.922C175.827 166.922 175.827 166.922 175.757 166.922C175.687 166.992 175.617 166.992 175.547 167.062C175.477 167.132 175.407 167.132 175.336 167.202C175.266 167.272 175.126 167.342 175.056 167.342C174.986 167.412 174.916 167.412 174.846 167.482C174.776 167.552 174.706 167.552 174.636 167.622C174.566 167.692 174.496 167.692 174.426 167.762C174.356 167.762 174.286 167.833 174.145 167.903C174.075 167.903 174.005 167.973 173.935 167.973C173.865 167.973 173.795 168.043 173.655 168.043C173.585 168.043 173.515 168.113 173.445 168.113C173.375 168.113 173.235 168.183 173.164 168.183C173.024 168.253 172.884 168.253 172.744 168.323C172.534 168.393 172.324 168.393 172.043 168.463C171.973 168.463 171.903 168.463 171.833 168.463C171.693 168.463 171.623 168.463 171.483 168.533C171.413 168.533 171.273 168.533 171.203 168.533C171.133 168.533 171.062 168.533 170.922 168.533C170.852 168.533 170.782 168.533 170.782 168.533C170.712 168.533 170.642 168.533 170.502 168.533C170.362 168.533 170.292 168.533 170.152 168.533C168.75 168.533 167.209 168.253 165.597 167.762C164.897 167.552 164.196 167.202 163.425 166.852C163.075 166.711 162.655 166.501 162.304 166.291C162.094 166.221 161.954 166.081 161.744 166.011L151.514 160.055L124.819 144.431L115.43 138.965C107.443 134.271 100.927 123.061 100.927 113.812C100.927 110.098 101.978 107.296 103.729 105.544C103.939 105.334 104.22 105.054 104.5 104.843C106.041 103.722 107.933 103.232 110.105 103.512C110.175 103.512 110.245 103.512 110.315 103.512C110.456 103.512 110.526 103.512 110.666 103.582C110.736 103.582 110.806 103.582 110.946 103.652C111.086 103.652 111.156 103.722 111.296 103.722C111.296 103.722 111.296 103.722 111.366 103.722C111.437 103.722 111.507 103.792 111.647 103.792C111.717 103.792 111.787 103.862 111.927 103.862C111.997 103.862 112.067 103.933 112.137 103.933C112.207 103.933 112.277 104.003 112.417 104.003C112.558 104.003 112.628 104.073 112.768 104.143C112.908 104.213 112.978 104.213 113.118 104.283C113.468 104.423 113.819 104.563 114.169 104.703L120.405 107.086L122.297 107.786L123.208 108.136L145.208 116.334L148.571 117.595L155.858 120.328L157.47 120.888C157.54 120.888 157.54 120.888 157.61 120.888C157.61 120.888 157.61 120.888 157.68 120.888C157.82 120.959 157.96 120.959 158.03 121.029C158.24 121.099 158.451 121.169 158.661 121.239C158.801 121.309 158.941 121.379 159.151 121.449C159.221 121.519 159.361 121.519 159.432 121.589C159.572 121.659 159.712 121.729 159.922 121.799C160.062 121.869 160.202 121.939 160.342 122.01C160.483 122.08 160.623 122.15 160.763 122.22C160.833 122.29 160.903 122.29 160.973 122.36C161.043 122.43 161.183 122.43 161.253 122.5C161.323 122.57 161.463 122.64 161.534 122.64C161.674 122.71 161.814 122.78 161.954 122.85C171.413 128.315 179.19 140.857 180.521 152.068C180.661 153.119 180.732 154.17 180.732 155.151V155.291H180.661Z" fill="#231F20" stroke="#231F20" stroke-width="0.201439" stroke-miterlimit="10" stroke-linecap="round" stroke-linejoin="round"/>
        <path d="M178.98 163.208C178.91 163.418 178.77 163.559 178.7 163.769C178.63 163.839 178.63 163.909 178.56 164.049C178.49 164.119 178.49 164.189 178.419 164.259C178.349 164.329 178.349 164.399 178.279 164.469C178.209 164.54 178.139 164.68 178.069 164.75C177.999 164.82 177.929 164.96 177.859 165.03C177.789 165.1 177.719 165.17 177.649 165.31C177.369 165.661 177.088 165.941 176.808 166.221C176.738 166.291 176.668 166.291 176.668 166.361C176.528 166.501 176.388 166.571 176.247 166.712C176.177 166.782 176.107 166.852 176.037 166.852C175.967 166.922 175.897 166.922 175.827 166.992C175.827 166.992 175.827 166.992 175.757 166.992C175.687 167.062 175.617 167.062 175.547 167.132C175.477 167.202 175.407 167.202 175.337 167.272C175.267 167.342 175.126 167.412 175.056 167.412C174.986 167.482 174.916 167.482 174.846 167.552C174.776 167.622 174.706 167.622 174.636 167.692C174.566 167.763 174.496 167.763 174.426 167.833C174.356 167.833 174.286 167.903 174.145 167.973C174.075 167.973 174.005 168.043 173.935 168.043C173.865 168.043 173.795 168.113 173.655 168.113C173.585 168.113 173.515 168.183 173.445 168.183C173.375 168.183 173.235 168.253 173.165 168.253C173.024 168.323 172.884 168.323 172.744 168.393C172.534 168.463 172.324 168.463 172.044 168.533C171.973 168.533 171.903 168.533 171.833 168.533C171.693 168.533 171.623 168.533 171.483 168.603C171.413 168.603 171.273 168.603 171.203 168.603C171.133 168.603 171.063 168.603 170.922 168.603C170.852 168.603 170.782 168.603 170.782 168.603C170.712 168.603 170.642 168.603 170.502 168.603C170.362 168.603 170.292 168.603 170.152 168.603C168.75 168.603 167.209 168.323 165.597 167.833C164.897 167.622 164.196 167.272 163.425 166.922C163.075 166.782 162.655 166.571 162.304 166.361C162.094 166.291 161.954 166.151 161.744 166.081L151.514 160.125L124.819 144.431L115.43 138.966C107.443 134.271 100.927 123.061 100.927 113.812C100.927 110.098 101.978 107.296 103.729 105.544C103.94 105.334 104.22 105.054 104.5 104.843C106.042 103.722 107.933 103.232 110.105 103.512C110.175 103.512 110.246 103.512 110.316 103.512C110.456 103.512 110.526 103.512 110.666 103.582C110.736 103.582 110.806 103.582 110.946 103.652C111.086 103.652 111.156 103.722 111.296 103.722L107.583 105.824C104.85 107.086 103.169 110.168 103.169 114.583C103.169 123.061 109.124 133.36 116.481 137.564C119.985 139.596 123.208 139.876 125.52 138.685C125.73 138.615 125.94 138.475 126.08 138.335L141.425 129.717C141.565 129.647 141.705 129.577 141.775 129.507L144.998 131.398C144.788 132.519 144.718 133.641 144.718 134.972C144.718 145.972 152.425 159.355 161.954 164.82C167.069 167.763 171.623 167.833 174.776 165.59L178.98 163.208Z" fill="#58595B" stroke="#231F20" stroke-width="0.0802954" stroke-miterlimit="10" stroke-linecap="round" stroke-linejoin="round"/>
        <path d="M126.151 138.405C125.941 138.545 125.73 138.615 125.59 138.755L126.151 138.405Z" fill="#F1F2F2" stroke="#231F20" stroke-width="0.201439" stroke-miterlimit="10" stroke-linecap="round" stroke-linejoin="round"/>
        <path d="M179.19 154.38C179.19 154.31 179.19 154.17 179.19 154.1C179.19 153.96 179.19 153.819 179.19 153.679C179.19 153.539 179.19 153.469 179.19 153.329C179.19 153.189 179.19 153.049 179.19 152.909C179.19 152.909 179.19 152.909 179.19 152.838C179.19 152.768 179.19 152.628 179.19 152.558C179.19 152.418 179.19 152.278 179.12 152.068C179.12 151.928 179.12 151.787 179.05 151.717C179.05 151.507 178.98 151.367 178.98 151.157C178.98 151.087 178.98 151.017 178.98 150.947C178.91 150.666 178.91 150.456 178.84 150.176C178.84 150.106 178.769 149.966 178.769 149.896C178.769 149.756 178.699 149.615 178.699 149.475C178.699 149.335 178.629 149.195 178.629 149.055V148.985C178.629 148.845 178.559 148.705 178.559 148.564C178.559 148.424 178.489 148.284 178.419 148.074C178.419 148.004 178.349 147.864 178.349 147.794C178.349 147.724 178.279 147.584 178.279 147.513C178.209 147.303 178.209 147.163 178.139 146.953C178.069 146.603 177.929 146.252 177.789 145.902C177.719 145.762 177.648 145.552 177.648 145.412C177.648 145.412 177.648 145.412 177.648 145.341C177.578 145.201 177.508 144.991 177.438 144.851C177.368 144.711 177.368 144.571 177.298 144.431C177.298 144.431 177.298 144.431 177.298 144.361C177.228 144.15 177.158 143.94 177.088 143.73C177.018 143.59 176.948 143.45 176.878 143.239C176.808 143.029 176.738 142.819 176.597 142.609C176.457 142.329 176.317 141.978 176.177 141.698C176.177 141.628 176.107 141.558 176.107 141.488C176.037 141.348 175.967 141.208 175.897 141.067C175.757 140.717 175.546 140.367 175.406 140.016C175.336 139.876 175.266 139.666 175.126 139.526C175.056 139.456 175.056 139.316 174.986 139.246C174.916 139.176 174.916 139.036 174.846 138.965C174.706 138.685 174.495 138.335 174.355 138.055C174.285 137.914 174.215 137.774 174.075 137.634C174.005 137.494 173.865 137.354 173.795 137.214C173.725 137.074 173.585 136.934 173.515 136.793C173.444 136.653 173.304 136.513 173.234 136.373C173.164 136.233 173.024 136.093 172.954 135.953C172.884 135.813 172.744 135.672 172.674 135.532C172.604 135.392 172.464 135.252 172.323 135.042C172.183 134.902 172.113 134.691 171.973 134.551C171.973 134.551 171.973 134.551 171.973 134.481C171.973 134.411 171.903 134.411 171.903 134.341C171.833 134.201 171.693 134.061 171.623 133.921L171.553 133.851C171.413 133.711 171.343 133.57 171.202 133.36C171.132 133.22 170.992 133.08 170.852 132.94C170.712 132.8 170.642 132.66 170.502 132.519C170.292 132.239 170.011 131.959 169.801 131.679C169.731 131.609 169.661 131.468 169.521 131.398C169.381 131.188 169.17 131.048 169.03 130.838C168.89 130.628 168.68 130.488 168.54 130.277C168.4 130.137 168.33 130.067 168.19 129.927L168.119 129.857L168.049 129.787C167.979 129.717 167.979 129.717 167.909 129.647C167.769 129.507 167.559 129.296 167.419 129.156C167.279 129.086 167.209 128.946 167.069 128.876C166.928 128.736 166.858 128.666 166.718 128.526C166.578 128.386 166.508 128.315 166.368 128.175C166.228 128.035 166.088 127.965 166.018 127.825C165.597 127.475 165.107 127.124 164.686 126.774C164.616 126.704 164.476 126.634 164.406 126.564C164.336 126.494 164.266 126.424 164.126 126.354C164.056 126.284 163.916 126.213 163.845 126.143C163.705 126.003 163.495 125.933 163.355 125.793C163.215 125.723 163.145 125.653 163.005 125.583C162.724 125.443 162.444 125.233 162.234 125.092C161.814 124.882 161.463 124.672 161.043 124.462C160.763 124.322 160.482 124.182 160.202 124.041C160.132 124.041 160.132 123.971 160.062 123.971C159.571 123.761 159.081 123.551 158.591 123.411C158.52 123.411 158.38 123.341 158.31 123.341C158.24 123.341 158.1 123.271 158.03 123.271C157.96 123.271 157.82 123.201 157.75 123.201C157.61 123.131 157.469 123.131 157.259 123.061C157.119 123.061 156.979 122.99 156.839 122.99C156.699 122.99 156.629 122.92 156.489 122.92C156.348 122.92 156.278 122.85 156.138 122.85C156.068 122.85 155.998 122.85 155.858 122.78H155.788C155.718 122.78 155.648 122.78 155.578 122.78C155.438 122.78 155.368 122.78 155.227 122.78C155.157 122.78 155.087 122.78 155.087 122.78C155.087 122.78 155.087 122.78 155.017 122.78C154.947 122.78 154.877 122.78 154.807 122.78C154.667 122.78 154.597 122.78 154.457 122.78C154.387 122.78 154.246 122.78 154.176 122.78C153.966 122.78 153.756 122.78 153.546 122.78C153.476 122.78 153.336 122.78 153.266 122.78C153.195 122.78 153.195 122.78 153.125 122.78C153.055 122.78 152.985 122.78 152.915 122.78C152.845 122.78 152.775 122.78 152.705 122.78C152.635 122.78 152.565 122.78 152.495 122.85C152.425 122.85 152.425 122.85 152.355 122.85C152.285 122.85 152.215 122.85 152.145 122.92C152.004 122.92 151.864 122.99 151.724 123.061C151.654 123.061 151.584 123.131 151.514 123.131C151.444 123.131 151.374 123.201 151.304 123.201C151.094 123.271 150.883 123.341 150.673 123.411L149.132 124.182C148.081 124.882 147.24 125.863 146.539 127.124C145.839 128.315 145.348 129.787 145.068 131.398C144.858 132.519 144.788 133.64 144.788 134.972C144.788 145.972 152.495 159.355 162.024 164.82C167.139 167.762 171.693 167.833 174.846 165.59C177.298 163.839 178.91 160.686 179.19 156.272C179.19 155.781 179.26 155.291 179.26 154.8C179.19 154.66 179.19 154.52 179.19 154.38ZM168.19 156.062L167.979 156.132L165.457 157.393C163.845 158.304 161.603 158.163 159.081 156.692C154.106 153.819 150.043 146.743 150.043 140.997C150.043 139.736 150.253 138.615 150.603 137.634C151.094 136.373 151.864 135.532 152.915 134.972L153.055 134.902L155.508 133.711L155.998 133.43C157.61 132.8 159.642 133.01 161.884 134.341C165.807 136.583 169.17 141.418 170.432 146.182C170.782 147.513 170.992 148.775 170.992 150.036C170.992 153.119 169.941 155.221 168.19 156.062Z" fill="#231F20" stroke="#231F20" stroke-width="0.201439" stroke-miterlimit="10" stroke-linecap="round" stroke-linejoin="round"/>
        <path d="M156.068 133.5L155.578 133.781C155.718 133.711 155.858 133.57 156.068 133.5Z" fill="#F1F2F2" stroke="#231F20" stroke-width="0.201439" stroke-miterlimit="10" stroke-linecap="round" stroke-linejoin="round"/>
        <path d="M180.661 155.151V155.291C180.661 155.501 180.661 155.711 180.661 155.851C180.661 156.062 180.661 156.272 180.661 156.412C180.661 156.622 180.661 156.762 180.661 156.972C180.661 157.183 180.661 157.323 180.591 157.533C180.591 157.743 180.521 157.883 180.521 158.093C180.521 158.234 180.451 158.374 180.451 158.514C180.381 158.864 180.311 159.285 180.241 159.635C180.241 159.775 180.171 159.915 180.171 160.055C180.101 160.336 180.031 160.686 179.891 160.966C179.891 161.036 179.821 161.106 179.821 161.246C179.751 161.527 179.681 161.737 179.54 162.017C179.47 162.157 179.47 162.297 179.4 162.367C179.33 162.508 179.26 162.648 179.19 162.788C179.12 162.928 179.05 163.068 178.98 163.138L174.776 165.52C177.228 163.769 178.84 160.616 179.12 156.202C179.12 155.711 179.19 155.221 179.19 154.73C179.19 154.59 179.19 154.45 179.19 154.31C179.19 154.24 179.19 154.1 179.19 154.03C179.19 153.89 179.19 153.749 179.19 153.609C179.19 153.469 179.19 153.399 179.19 153.259C179.19 153.119 179.19 152.979 179.19 152.839C179.19 152.839 179.19 152.839 179.19 152.768C179.19 152.698 179.19 152.558 179.19 152.488C179.19 152.348 179.19 152.208 179.12 151.998C179.12 151.858 179.12 151.717 179.05 151.647C179.05 151.437 178.98 151.297 178.98 151.087C178.98 151.017 178.98 150.947 178.98 150.877C178.91 150.596 178.91 150.386 178.84 150.106C178.84 150.036 178.77 149.896 178.77 149.826C178.77 149.686 178.7 149.545 178.7 149.405C178.7 149.265 178.63 149.125 178.63 148.985V148.915C178.63 148.775 178.56 148.635 178.56 148.494C178.56 148.354 178.489 148.214 178.419 148.004C178.419 147.934 178.349 147.794 178.349 147.724C178.349 147.654 178.279 147.514 178.279 147.443C178.209 147.233 178.209 147.093 178.139 146.883C178.069 146.533 177.929 146.182 177.789 145.832C177.719 145.692 177.649 145.482 177.649 145.341C177.649 145.341 177.649 145.341 177.649 145.271C177.579 145.131 177.509 144.921 177.438 144.781C177.368 144.641 177.368 144.501 177.298 144.361C177.298 144.361 177.298 144.361 177.298 144.29C177.228 144.08 177.158 143.87 177.088 143.66C177.018 143.52 176.948 143.38 176.878 143.169C176.808 142.959 176.738 142.749 176.598 142.539C176.458 142.259 176.317 141.908 176.177 141.628C176.177 141.558 176.107 141.488 176.107 141.418C176.037 141.278 175.967 141.138 175.897 140.997C175.757 140.647 175.547 140.297 175.407 139.946C175.336 139.806 175.266 139.596 175.126 139.456C175.056 139.386 175.056 139.246 174.986 139.176C174.916 139.106 174.916 138.965 174.846 138.895C174.706 138.615 174.496 138.265 174.356 137.985C174.285 137.844 174.215 137.704 174.075 137.564C174.005 137.424 173.865 137.284 173.795 137.144C173.725 137.004 173.585 136.864 173.515 136.723C173.445 136.583 173.305 136.443 173.235 136.303C173.164 136.163 173.024 136.023 172.954 135.883C172.884 135.742 172.744 135.602 172.674 135.462C172.604 135.322 172.464 135.182 172.324 134.972C172.184 134.832 172.113 134.621 171.973 134.481C171.973 134.481 171.973 134.481 171.973 134.411C171.973 134.341 171.903 134.341 171.903 134.271C171.833 134.131 171.693 133.991 171.623 133.851L171.553 133.781C171.413 133.64 171.343 133.5 171.203 133.29C171.133 133.15 170.992 133.01 170.852 132.87C170.712 132.73 170.642 132.59 170.502 132.449C170.292 132.169 170.011 131.889 169.801 131.609C169.731 131.539 169.661 131.398 169.521 131.328C169.381 131.118 169.171 130.978 169.031 130.768C168.89 130.558 168.68 130.417 168.54 130.207C168.4 130.067 168.33 129.997 168.19 129.857L168.12 129.787L168.05 129.717C167.98 129.647 167.98 129.647 167.91 129.577C167.769 129.437 167.559 129.226 167.419 129.086C167.279 129.016 167.209 128.876 167.069 128.806C166.929 128.666 166.859 128.596 166.718 128.456C166.578 128.315 166.508 128.245 166.368 128.105C166.228 127.965 166.088 127.895 166.018 127.755C165.597 127.405 165.107 127.054 164.686 126.704C164.616 126.634 164.476 126.564 164.406 126.494C164.336 126.424 164.266 126.354 164.126 126.284C164.056 126.214 163.916 126.143 163.846 126.073C163.706 125.933 163.495 125.863 163.355 125.723C163.215 125.653 163.145 125.583 163.005 125.513C162.725 125.373 162.444 125.163 162.234 125.022C161.814 124.812 161.463 124.602 161.043 124.392C156.909 122.36 153.336 122.15 150.533 123.341L155.858 120.258L157.47 120.818C158.871 121.239 160.342 121.869 161.884 122.78C171.343 128.245 179.12 140.787 180.451 151.998C180.591 153.119 180.661 154.17 180.661 155.151Z" fill="url(#paint0_linear_1_19911)" stroke="#231F20" stroke-width="0.201439" stroke-miterlimit="10" stroke-linecap="round" stroke-linejoin="round"/>
        <path d="M129.443 126.284C128.322 119.978 124.468 113.251 119.564 109.118C118.583 108.277 117.532 107.506 116.481 106.946C113.048 104.914 109.895 104.633 107.513 105.824C104.85 107.086 103.168 110.169 103.168 114.583C103.168 123.061 109.124 133.36 116.481 137.564C119.984 139.596 123.207 139.876 125.519 138.685L126.08 138.335C128.322 136.864 129.723 133.991 129.723 129.927C129.793 128.736 129.653 127.545 129.443 126.284ZM122.366 133.641C121.946 133.851 120.475 134.622 119.914 134.832C119.774 134.902 119.704 134.902 119.704 134.902C118.092 135.672 115.92 135.462 113.538 134.131C108.634 131.258 104.57 124.252 104.57 118.436C104.57 115.494 105.621 113.462 107.302 112.551L107.653 112.411L109.895 111.29L110.736 110.869C112.277 110.309 114.239 110.589 116.411 111.85C121.386 114.723 125.449 121.799 125.449 127.545C125.519 130.698 124.328 132.87 122.366 133.641Z" fill="#231F20" stroke="#231F20" stroke-width="0.201439" stroke-miterlimit="10" stroke-linecap="round" stroke-linejoin="round"/>
        <path d="M125.52 127.545C125.52 130.698 124.258 132.87 122.367 133.641C122.367 133.641 122.367 133.641 122.297 133.641C121.946 133.851 120.405 134.551 119.914 134.832C120.335 134.621 120.685 134.271 121.035 133.921C121.386 133.57 121.666 133.15 121.876 132.66C122.367 131.679 122.647 130.417 122.647 128.876C122.647 127.685 122.437 126.354 122.156 125.092C121.316 121.729 119.424 118.366 116.972 115.914C115.921 114.793 114.8 113.882 113.538 113.181C112.838 112.761 112.137 112.481 111.436 112.27C110.526 111.99 109.685 111.92 108.914 111.99C108.424 112.06 107.933 112.13 107.513 112.341L109.895 111.29L110.736 110.869C112.277 110.309 114.239 110.589 116.411 111.85C121.456 114.723 125.52 121.729 125.52 127.545Z" fill="#928874" stroke="#231F20" stroke-width="0.0802954" stroke-miterlimit="10"/>
        <path d="M110.806 110.869L109.895 111.29C110.175 111.079 110.456 110.939 110.806 110.869Z" fill="#F1F2F2" stroke="#231F20" stroke-width="0.201439" stroke-miterlimit="10" stroke-linecap="round" stroke-linejoin="round"/>
        <path d="M122.156 125.163C121.316 121.799 119.424 118.436 116.971 115.984C115.92 114.863 114.799 113.952 113.538 113.251C112.838 112.831 112.137 112.551 111.436 112.341C110.525 112.06 109.685 111.99 108.914 112.06C108.423 112.13 107.933 112.2 107.513 112.411L107.162 112.551C105.481 113.462 104.43 115.564 104.43 118.436C104.43 124.252 108.494 131.258 113.468 134.131C115.85 135.462 117.952 135.672 119.634 134.902C119.634 134.902 119.704 134.902 119.844 134.832C120.265 134.621 120.615 134.271 120.965 133.921C121.316 133.57 121.596 133.15 121.806 132.66C122.296 131.679 122.577 130.418 122.577 128.876C122.717 127.685 122.507 126.424 122.156 125.163ZM119.143 129.647C119.073 129.787 119.003 129.927 118.863 130.067C118.793 130.207 118.653 130.347 118.513 130.488C118.303 130.698 118.022 130.908 117.742 131.048C117.672 131.118 117.602 131.118 117.602 131.118C116.551 131.609 115.08 131.469 113.538 130.628C110.245 128.736 107.513 124.042 107.513 120.258C107.513 118.296 108.213 116.965 109.334 116.334L109.544 116.264C109.825 116.124 110.105 116.054 110.455 116.054C110.595 116.054 110.736 116.054 110.806 116.054C111.226 116.054 111.646 116.124 112.067 116.264C112.487 116.404 112.978 116.615 113.468 116.895C116.761 118.787 119.494 123.481 119.494 127.265C119.634 128.175 119.424 129.016 119.143 129.647Z" fill="#928874" stroke="#231F20" stroke-width="0.0802954" stroke-miterlimit="10"/>
        <path d="M118.863 130.067C118.793 130.207 118.653 130.347 118.513 130.488C118.303 130.698 118.023 130.908 117.742 131.048C117.672 131.118 117.602 131.118 117.602 131.118C116.551 131.609 115.08 131.468 113.538 130.628C110.245 128.736 107.513 124.041 107.513 120.258C107.513 118.296 108.213 116.965 109.334 116.334L109.545 116.264C109.825 116.124 110.105 116.054 110.455 116.054C110.596 116.054 110.736 116.054 110.806 116.054C110.315 116.755 110.035 117.736 110.035 118.997C110.035 122.85 112.698 127.475 116.061 129.366C117.182 129.857 118.093 130.067 118.863 130.067Z" fill="#49443A" stroke="#231F20" stroke-width="0.0802954" stroke-miterlimit="10" stroke-linecap="round" stroke-linejoin="round"/>
        <path d="M119.634 127.194C119.634 128.175 119.424 129.016 119.144 129.647C119.074 129.787 119.004 129.927 118.863 130.067C118.093 130.067 117.182 129.787 116.201 129.226C112.908 127.335 110.175 122.64 110.175 118.857C110.175 117.665 110.456 116.614 110.946 115.914C111.366 115.914 111.787 115.984 112.207 116.124C112.628 116.264 113.118 116.474 113.609 116.755C116.972 118.716 119.634 123.341 119.634 127.194Z" fill="#6E6657" stroke="#231F20" stroke-width="0.0802954" stroke-miterlimit="10" stroke-linecap="round" stroke-linejoin="round"/>
        <path d="M126.15 138.405C125.94 138.545 125.729 138.615 125.589 138.755L126.15 138.405Z" fill="#F1F2F2" stroke="#231F20" stroke-width="0.201439" stroke-miterlimit="10" stroke-linecap="round" stroke-linejoin="round"/>
        <path d="M204.554 144.431C204.554 151.017 202.312 155.711 198.598 158.023L197.967 158.374L178.069 169.794C180.451 167.973 182.133 164.96 182.833 161.036C183.043 159.705 183.184 158.304 183.184 156.762C183.184 156.762 183.184 156.692 183.184 156.622C183.184 155.641 183.113 154.59 183.043 153.609C181.712 140.717 172.814 126.143 161.954 119.908C160.973 119.347 160.062 118.857 159.151 118.506C158.38 118.156 157.61 117.876 156.909 117.666L144.367 112.901L122.507 104.563L119.704 103.512L114.869 101.62L112.838 100.85L112.557 100.78C109.054 99.4484 105.901 99.5185 103.449 100.78L123.698 89.1488C126.29 87.257 129.864 86.9066 133.927 88.4481L134.138 88.5182L178.209 105.334C179.82 105.824 181.502 106.525 183.254 107.576C195.025 114.302 204.554 130.838 204.554 144.431Z" fill="#414042" stroke="#231F20" stroke-width="0.201439" stroke-miterlimit="10" stroke-linecap="round" stroke-linejoin="round"/>
        <path d="M145.769 120.818C145.769 125.092 144.227 128.105 141.775 129.507C141.635 129.577 141.495 129.647 141.425 129.717L126.15 138.405C128.392 136.934 129.794 134.061 129.794 129.997C129.794 128.806 129.653 127.615 129.443 126.354C128.322 120.048 124.469 113.321 119.564 109.188C118.583 108.347 117.532 107.576 116.481 107.016C113.048 104.984 109.895 104.703 107.513 105.894L111.226 103.792C111.226 103.792 111.226 103.792 111.296 103.792C111.366 103.792 111.436 103.863 111.577 103.863C111.647 103.863 111.717 103.933 111.857 103.933C111.927 103.933 111.997 104.003 112.067 104.003C112.137 104.003 112.207 104.073 112.347 104.073C112.487 104.073 112.557 104.143 112.698 104.213C112.838 104.283 112.908 104.283 113.048 104.353C113.398 104.493 113.749 104.633 114.099 104.773L120.405 107.086L122.297 107.786L123.207 108.137L145.208 116.334C145.628 117.876 145.769 119.347 145.769 120.818Z" fill="url(#paint1_linear_1_19911)" stroke="#231F20" stroke-width="0.201439" stroke-miterlimit="10" stroke-linecap="round" stroke-linejoin="round"/>
        <path d="M170.992 150.106C170.992 153.119 169.871 155.151 168.12 156.062L167.909 156.132L165.387 157.393C165.807 157.183 166.158 156.902 166.508 156.552C166.928 156.132 167.279 155.571 167.489 154.94C167.909 154.03 168.12 152.838 168.12 151.507C168.12 151.367 168.12 151.227 168.12 151.087C168.12 150.947 168.12 150.877 168.12 150.737C168.12 150.666 168.12 150.596 168.12 150.526C168.12 150.386 168.12 150.316 168.12 150.176C168.12 150.176 168.12 150.176 168.12 150.106C168.12 149.966 168.12 149.896 168.049 149.756C168.049 149.686 168.049 149.615 168.049 149.475C168.049 149.335 168.049 149.265 167.979 149.125C167.979 148.985 167.909 148.845 167.909 148.705C167.909 148.635 167.909 148.635 167.909 148.564C167.909 148.424 167.839 148.284 167.839 148.144C167.769 148.004 167.769 147.794 167.699 147.654C167.699 147.513 167.629 147.373 167.559 147.233C167.559 147.093 167.489 147.023 167.419 146.883C167.419 146.813 167.349 146.743 167.349 146.603C167.349 146.463 167.279 146.392 167.279 146.252C167.279 146.252 167.279 146.252 167.279 146.182C167.209 146.042 167.209 145.902 167.139 145.762C167.139 145.762 167.139 145.762 167.139 145.692C167.069 145.552 167.069 145.412 166.999 145.271C166.999 145.271 166.999 145.271 166.999 145.201C166.928 145.061 166.858 144.921 166.788 144.781C166.578 144.29 166.368 143.8 166.088 143.38C166.018 143.31 166.018 143.169 165.948 143.099C165.877 142.959 165.807 142.819 165.737 142.679C165.667 142.539 165.597 142.399 165.527 142.259C165.457 142.118 165.387 141.978 165.247 141.838C165.177 141.698 165.107 141.558 164.967 141.418C164.686 140.997 164.406 140.647 164.126 140.227C163.986 140.087 163.916 139.946 163.775 139.806C163.705 139.666 163.635 139.596 163.495 139.456C163.425 139.316 163.285 139.246 163.215 139.106C163.145 138.965 163.005 138.895 162.935 138.755C162.865 138.615 162.724 138.545 162.584 138.405C162.514 138.265 162.374 138.195 162.234 138.055C161.954 137.774 161.744 137.564 161.463 137.354C161.393 137.284 161.323 137.214 161.183 137.144C161.113 137.074 161.043 137.004 160.973 136.934C160.903 136.863 160.833 136.793 160.763 136.723C160.623 136.653 160.552 136.583 160.412 136.443C160.412 136.443 160.342 136.443 160.342 136.373C160.272 136.303 160.202 136.233 160.132 136.233C160.062 136.163 159.922 136.093 159.852 136.023C159.782 135.953 159.642 135.883 159.572 135.813C159.431 135.742 159.291 135.602 159.081 135.532C158.24 135.042 157.47 134.762 156.699 134.551C155.928 134.341 155.157 134.271 154.457 134.341C153.966 134.411 153.476 134.551 152.985 134.762L155.438 133.57L155.928 133.29C157.54 132.66 159.572 132.87 161.814 134.201C165.737 136.443 169.1 141.278 170.362 146.042C170.852 147.584 170.992 148.845 170.992 150.106Z" fill="#928874" stroke="#231F20" stroke-width="0.0802954" stroke-miterlimit="10"/>
        <path d="M168.19 151.087C168.19 150.947 168.19 150.877 168.19 150.736C168.19 150.666 168.19 150.596 168.19 150.526C168.19 150.386 168.19 150.316 168.19 150.176C168.19 150.176 168.19 150.176 168.19 150.106C168.19 149.966 168.19 149.896 168.12 149.756C168.12 149.685 168.12 149.615 168.12 149.475C168.12 149.335 168.12 149.265 168.05 149.125C168.05 148.985 167.98 148.845 167.98 148.705C167.98 148.635 167.98 148.635 167.98 148.564C167.98 148.424 167.91 148.284 167.91 148.144C167.84 148.004 167.84 147.794 167.77 147.654C167.77 147.513 167.7 147.373 167.629 147.233C167.629 147.093 167.559 147.023 167.489 146.883C167.489 146.813 167.419 146.743 167.419 146.603C167.419 146.462 167.349 146.392 167.349 146.252C167.349 146.252 167.349 146.252 167.349 146.182C167.279 146.042 167.279 145.902 167.209 145.762C167.209 145.762 167.209 145.762 167.209 145.692C167.139 145.552 167.139 145.411 167.069 145.271C167.069 145.271 167.069 145.271 167.069 145.201C166.999 145.061 166.929 144.921 166.859 144.781C166.649 144.29 166.438 143.8 166.158 143.38C166.088 143.31 166.088 143.169 166.018 143.099C165.948 142.959 165.878 142.819 165.808 142.679C165.738 142.539 165.668 142.399 165.598 142.259C165.527 142.118 165.457 141.978 165.317 141.838C165.247 141.698 165.177 141.558 165.037 141.418C164.757 140.997 164.477 140.647 164.196 140.227C164.056 140.086 163.986 139.946 163.846 139.806C163.776 139.666 163.706 139.596 163.566 139.456C163.496 139.316 163.355 139.246 163.285 139.106C163.215 138.965 163.075 138.895 163.005 138.755C162.935 138.615 162.795 138.545 162.655 138.405C162.585 138.265 162.445 138.195 162.304 138.055C162.024 137.774 161.814 137.564 161.534 137.354C161.464 137.284 161.394 137.214 161.253 137.144C161.183 137.074 161.113 137.004 161.043 136.934C160.973 136.863 160.903 136.793 160.833 136.723C160.693 136.653 160.623 136.583 160.483 136.443C160.483 136.443 160.413 136.443 160.413 136.373C160.343 136.303 160.273 136.233 160.203 136.233C160.132 136.163 159.992 136.093 159.922 136.023C159.852 135.953 159.712 135.883 159.642 135.812C159.502 135.742 159.362 135.602 159.152 135.532C158.311 135.042 157.54 134.761 156.769 134.551C155.999 134.341 155.228 134.271 154.527 134.341C154.037 134.411 153.546 134.551 153.056 134.761L152.916 135.112C151.935 135.602 151.094 136.513 150.603 137.774C150.253 138.685 150.043 139.806 150.043 141.137C150.043 146.953 154.107 153.96 159.081 156.832C161.534 158.234 163.776 158.444 165.457 157.533C165.878 157.323 166.228 157.042 166.578 156.692C166.999 156.272 167.349 155.711 167.559 155.081C167.98 154.17 168.19 152.979 168.19 151.647C168.19 151.367 168.19 151.227 168.19 151.087ZM165.177 152.488C165.037 152.768 164.897 153.049 164.757 153.259C164.687 153.399 164.547 153.539 164.477 153.609C164.266 153.889 163.986 154.1 163.706 154.24C162.515 154.87 160.903 154.8 159.152 153.749C155.578 151.647 152.635 146.673 152.635 142.469C152.635 141.558 152.776 140.717 153.056 140.086C153.406 139.176 153.967 138.545 154.667 138.195L154.807 138.125C155.158 137.985 155.508 137.914 155.858 137.844C155.999 137.844 156.209 137.844 156.349 137.844C156.699 137.844 157.05 137.914 157.47 137.985C158.03 138.125 158.591 138.335 159.152 138.685C161.954 140.297 164.336 143.8 165.247 147.163C165.457 148.074 165.598 149.055 165.598 149.896C165.598 151.017 165.457 151.787 165.177 152.488Z" fill="#928874" stroke="#231F20" stroke-width="0.0802954" stroke-miterlimit="10"/>
        <path d="M164.757 153.259C164.687 153.399 164.546 153.539 164.476 153.609C164.266 153.89 163.986 154.1 163.706 154.24C162.515 154.87 160.903 154.8 159.151 153.749C155.578 151.647 152.635 146.673 152.635 142.469C152.635 141.558 152.775 140.717 153.056 140.087C153.406 139.176 153.967 138.545 154.667 138.195L154.807 138.125C155.158 137.985 155.508 137.915 155.858 137.844C155.998 137.844 156.209 137.844 156.349 137.844C156.209 138.125 155.998 138.405 155.928 138.685C155.648 139.316 155.508 140.157 155.508 141.068C155.508 145.201 158.451 150.246 162.024 152.348C162.935 152.979 163.916 153.259 164.757 153.259Z" fill="#49443A" stroke="#231F20" stroke-width="0.0802954" stroke-miterlimit="10" stroke-linecap="round" stroke-linejoin="round"/>
        <path d="M165.598 150.036C165.598 151.017 165.457 151.788 165.177 152.488C165.037 152.768 164.897 153.049 164.757 153.259C163.916 153.259 162.935 152.979 161.954 152.348C158.381 150.246 155.438 145.271 155.438 141.068C155.438 140.157 155.578 139.316 155.858 138.685C155.999 138.405 156.139 138.125 156.279 137.844C156.629 137.844 156.979 137.915 157.4 137.985C157.96 138.125 158.521 138.335 159.081 138.685C161.884 140.297 164.266 143.8 165.177 147.163C165.457 148.214 165.598 149.125 165.598 150.036Z" fill="#6E6657" stroke="#231F20" stroke-width="0.0802954" stroke-miterlimit="10" stroke-linecap="round" stroke-linejoin="round"/>
        <path d="M184.376 104.143L183.255 104.773L180.382 106.385L162.515 116.264L143.107 108.837H143.037L128.113 103.022L127.973 102.952L114.66 97.8368L124.96 91.7411L135.75 85.3651L151.585 91.4608L164.687 96.7158C164.757 96.7158 164.827 96.6457 164.897 96.5756L181.433 102.952L184.376 104.143Z" fill="#F1F2F2" stroke="#231F20" stroke-width="0.201439" stroke-miterlimit="10" stroke-linecap="round" stroke-linejoin="round"/>
        <path d="M184.376 104.143V107.086L183.535 107.576L162.515 119.207V116.264L180.382 106.385L183.255 104.773L184.376 104.143Z" fill="#F1F2F2" stroke="#231F20" stroke-width="0.201439" stroke-miterlimit="10" stroke-linecap="round" stroke-linejoin="round"/>
        <path d="M162.515 116.264V119.207L126.361 105.334L114.66 100.78V97.907L127.973 103.022H128.113L143.037 108.767L143.107 108.837L162.515 116.264Z" fill="#F1F2F2" stroke="#231F20" stroke-width="0.201439" stroke-miterlimit="10" stroke-linecap="round" stroke-linejoin="round"/>
        <path opacity="0.2" d="M162.515 116.264V119.207L126.361 105.334L114.66 100.78V97.907L127.973 103.022H128.113L143.037 108.767L143.107 108.837L162.515 116.264Z" fill="black" stroke="#231F20" stroke-width="0.0802954" stroke-miterlimit="10"/>
        <path d="M158.731 90.9704C158.731 92.1615 158.311 93.0023 157.68 93.4227C157.61 93.4227 157.61 93.4928 157.54 93.4928C157.47 93.5629 156.489 94.0533 155.018 94.9642C150.603 97.4865 141.635 102.601 136.871 105.054C136.03 105.474 135.329 105.824 134.839 106.105C135.469 105.684 135.89 104.773 135.89 103.652C135.89 101.13 134.138 98.0471 131.966 96.7859C130.985 96.2254 130.074 96.0852 129.374 96.4356C130.144 96.0152 131.055 95.5247 132.036 94.9642C136.1 92.7921 141.425 89.9194 145.629 87.6773C146.61 87.1168 147.521 86.6264 148.361 86.206C150.043 85.2951 151.304 84.5944 152.005 84.2441C152.285 84.104 152.495 83.9639 152.495 83.9639C153.126 83.7537 153.967 83.8938 154.877 84.3842C156.979 85.5754 158.731 88.5181 158.731 90.9704Z" fill="url(#paint2_linear_1_19911)" stroke="#231F20" stroke-width="0.201439" stroke-miterlimit="10" stroke-linecap="round" stroke-linejoin="round"/>
        <path d="M135.89 103.582C135.89 104.773 135.469 105.614 134.839 106.035C134.138 106.525 133.087 106.525 131.896 105.824C129.724 104.563 127.972 101.48 127.972 98.958C127.972 98.0471 128.182 97.3465 128.603 96.856C128.743 96.7159 128.883 96.5758 129.093 96.4356C129.163 96.3656 129.233 96.3656 129.373 96.2955C130.074 96.0152 130.985 96.0853 131.966 96.6458C134.068 97.9771 135.89 101.06 135.89 103.582Z" fill="#58595B" stroke="#231F20" stroke-width="0.201439" stroke-miterlimit="10" stroke-linecap="round" stroke-linejoin="round"/>
    </g>
    <defs>
        <linearGradient id="paint0_linear_1_19911" x1="163.221" y1="130.727" x2="176.904" y2="157.52" gradientUnits="userSpaceOnUse">
            <stop stop-color="#58595B"/>
            <stop offset="1"/>
        </linearGradient>
        <linearGradient id="paint1_linear_1_19911" x1="138.345" y1="138.601" x2="123.104" y2="103.476" gradientUnits="userSpaceOnUse">
            <stop stop-color="#58595B"/>
            <stop offset="1"/>
        </linearGradient>
        <linearGradient id="paint2_linear_1_19911" x1="141.867" y1="88.8509" x2="147.45" y2="99.2525" gradientUnits="userSpaceOnUse">
            <stop stop-color="#59595C"/>
            <stop offset="0.3636" stop-color="#221F1F"/>
            <stop offset="0.6738" stop-color="#808184"/>
            <stop offset="1" stop-color="#424143"/>
        </linearGradient>
        <clipPath id="">
            <rect width="106.64" height="93.6779" fill="white" transform="translate(97.9834 78.3585)"/>
        </clipPath>
    </defs>
</svg>
