<svg width="230" height="230" viewBox="0 0 230 230" fill="none"
    xmlns="http://www.w3.org/2000/svg">
    <g clip-path="url(#)">
        <path d="M183.044 137.774C183.044 139.176 182.623 140.157 181.923 140.717C181.012 141.418 179.68 141.418 178.209 140.577C177.929 140.437 177.649 140.227 177.438 140.017L132.947 109.888C130.214 108.347 128.042 104.563 128.042 101.41C128.042 99.939 128.532 98.888 129.303 98.3275L129.654 98.1173C130.494 97.7669 131.615 97.837 132.877 98.5377C133.157 98.6778 133.437 98.888 133.647 99.0982L134.418 99.5887L138.622 102.461L148.431 109.118C152.915 112.13 153.756 107.366 153.756 107.086L153.896 105.124L154.807 89.4992V89.289C154.877 88.0278 155.368 87.1169 156.068 86.6265L156.419 86.4163C157.329 86.066 158.451 86.2061 159.642 86.9068C160.062 87.187 160.482 87.4673 160.903 87.8176C162.304 89.0788 163.495 90.9005 164.056 92.7923C164.336 93.6331 164.476 94.4739 164.476 95.3146C164.476 95.3847 164.476 95.5248 164.476 95.5949L163.495 113.392C163.495 113.532 164.196 119.768 168.47 122.71L178.139 129.297C180.381 130.558 182.203 133.36 182.833 136.023C182.974 136.583 183.044 137.214 183.044 137.774Z" fill="#F1F2F2" stroke="#231F20" stroke-width="0.201439" stroke-miterlimit="10" stroke-linecap="round" stroke-linejoin="round"/>
        <path opacity="0.14" d="M183.044 137.774C183.044 139.176 182.623 140.157 181.923 140.717C181.012 141.418 179.68 141.418 178.209 140.577C177.929 140.437 177.649 140.227 177.438 140.017L132.947 109.888C130.214 108.347 128.042 104.563 128.042 101.41C128.042 99.939 128.532 98.888 129.303 98.3275L129.654 98.1173C130.494 97.7669 131.615 97.837 132.877 98.5377C133.157 98.6778 133.437 98.888 133.647 99.0982L134.418 99.5887L138.622 102.461L148.431 109.118C152.915 112.13 153.756 107.366 153.756 107.086L153.896 105.124L154.807 89.4992V89.289C154.877 88.0278 155.368 87.1169 156.068 86.6265L156.419 86.4163C157.329 86.066 158.451 86.2061 159.642 86.9068C160.062 87.187 160.482 87.4673 160.903 87.8176C162.304 89.0788 163.495 90.9005 164.056 92.7923C164.336 93.6331 164.476 94.4739 164.476 95.3146C164.476 95.3847 164.476 95.5248 164.476 95.5949L163.495 113.392C163.495 113.532 164.196 119.768 168.47 122.71L178.139 129.297C180.381 130.558 182.203 133.36 182.833 136.023C182.974 136.583 183.044 137.214 183.044 137.774Z" fill="black" stroke="#231F20" stroke-width="0.201439" stroke-miterlimit="10"/>
        <path d="M156.419 86.4163L156.068 86.6265C156.208 86.5564 156.349 86.4863 156.419 86.4163Z" fill="#F1F2F2" stroke="#231F20" stroke-width="0.201439" stroke-miterlimit="10" stroke-linecap="round" stroke-linejoin="round"/>
        <path d="M153.896 105.124L153.756 107.086C153.686 107.366 152.915 112.201 148.431 109.118L138.762 102.531L134.558 99.6588L133.717 99.1683C133.437 98.9581 133.227 98.818 132.947 98.6078C131.685 97.9071 130.564 97.767 129.724 98.1874L135.469 95.0344C136.38 94.3338 137.711 94.3338 139.183 95.1746C139.463 95.3147 139.743 95.5249 139.953 95.7351L153.896 105.124Z" fill="#F1F2F2" stroke="#231F20" stroke-width="0.201439" stroke-miterlimit="10" stroke-linecap="round" stroke-linejoin="round"/>
        <path d="M189.28 134.271C189.28 135.673 188.859 136.653 188.089 137.284L187.458 137.634L181.853 140.717C182.553 140.157 182.974 139.106 182.974 137.775C182.974 137.214 182.904 136.653 182.764 136.093C182.133 133.43 180.311 130.628 178.069 129.367L168.4 122.78C164.126 119.838 163.426 113.672 163.426 113.462L164.477 95.665C164.477 95.5949 164.477 95.4548 164.477 95.3847C164.477 94.5439 164.336 93.7031 164.056 92.8624C163.496 90.9706 162.304 89.1489 160.903 87.8877C160.483 87.5374 160.062 87.187 159.642 86.9768C158.451 86.2762 157.33 86.136 156.419 86.4864L162.304 83.2633C163.215 82.6328 164.477 82.7028 165.878 83.5436C168.54 85.0851 170.712 88.8686 170.712 91.9515C170.712 92.0216 170.712 92.1617 170.712 92.2318L169.661 110.028C169.661 110.169 170.362 116.404 174.636 119.347L184.305 125.933C187.108 127.405 189.28 131.188 189.28 134.271Z" fill="#F1F2F2" stroke="#231F20" stroke-width="0.201439" stroke-miterlimit="10" stroke-linecap="round" stroke-linejoin="round"/>
        <path d="M172.674 162.648C172.674 171.896 166.158 175.68 158.17 171.056L148.781 165.661L121.876 150.316L111.647 144.501C101.347 138.545 92.939 124.042 92.939 112.06C92.939 100.149 101.347 95.2445 111.647 101.27C112.908 101.971 114.169 102.882 115.36 103.863C115.57 104.073 115.85 104.213 116.061 104.423L118.163 106.105C120.685 116.124 127.692 126.354 135.889 131.118L146.119 136.934L169.311 150.176C170.011 151.577 170.572 152.979 171.062 154.38C172.113 157.113 172.674 159.985 172.674 162.648Z" fill="#58595B" stroke="#231F20" stroke-width="0.0802954" stroke-miterlimit="10" stroke-linecap="round" stroke-linejoin="round"/>
        <path d="M129.233 132.94C129.233 133.43 129.233 133.921 129.163 134.411C128.883 138.755 127.271 141.978 124.819 143.73C121.666 145.972 117.112 145.902 111.997 142.959C102.468 137.424 94.7607 124.042 94.7607 113.041C94.7607 107.926 96.4423 104.213 99.1749 102.321L100.646 101.48C103.379 100.289 106.952 100.499 110.876 102.461C111.296 102.671 111.647 102.882 112.067 103.092C121.526 108.557 129.233 121.94 129.233 132.94Z" fill="#231F20" stroke="#231F20" stroke-width="0.201439" stroke-miterlimit="10" stroke-linecap="round" stroke-linejoin="round"/>
        <path d="M145.278 123.831C145.278 129.787 142.966 133.851 139.393 135.392L124.819 143.73C127.271 141.978 128.883 138.825 129.163 134.411C129.163 133.921 129.233 133.43 129.233 132.94C129.233 121.939 121.526 108.557 111.997 103.092C111.576 102.882 111.226 102.671 110.806 102.461C106.882 100.499 103.379 100.289 100.576 101.48L115.15 93.1424C118.303 90.9704 122.857 91.0405 127.972 93.9832C137.571 99.4484 145.278 112.831 145.278 123.831Z" fill="url(#paint0_linear_1_19911)" stroke="#231F20" stroke-width="0.201439" stroke-miterlimit="10" stroke-linecap="round" stroke-linejoin="round"/>
        <path d="M161.884 165.801C161.674 165.941 161.533 166.081 161.323 166.151L161.884 165.801Z" fill="#F1F2F2" stroke="#231F20" stroke-width="0.201439" stroke-miterlimit="10" stroke-linecap="round" stroke-linejoin="round"/>
        <path d="M170.362 161.386C170.362 165.45 168.96 168.393 166.718 169.794L166.158 170.145C163.775 171.336 160.622 171.056 157.119 169.024C149.762 164.82 143.807 154.52 143.807 146.042C143.807 141.558 145.488 138.475 148.081 137.214C150.463 136.093 153.616 136.373 157.049 138.335C158.1 138.965 159.151 139.666 160.132 140.507C165.037 144.641 168.89 151.367 170.011 157.673C170.221 159.004 170.362 160.195 170.362 161.386Z" fill="#231F20" stroke="#231F20" stroke-width="0.201439" stroke-miterlimit="10" stroke-linecap="round" stroke-linejoin="round"/>
        <path d="M186.337 152.278C186.337 156.762 184.655 159.915 181.923 161.106L166.648 169.794C168.89 168.323 170.292 165.45 170.292 161.387C170.292 160.195 170.152 159.004 169.941 157.743C168.82 151.437 164.967 144.711 160.062 140.577C159.081 139.736 158.03 138.966 156.979 138.405C153.546 136.373 150.393 136.093 148.011 137.284L163.425 128.526C165.807 127.054 169.241 127.194 173.024 129.366C180.451 133.5 186.337 143.8 186.337 152.278Z" fill="url(#paint1_linear_1_19911)" stroke="#231F20" stroke-width="0.201439" stroke-miterlimit="10" stroke-linecap="round" stroke-linejoin="round"/>
        <path d="M199.789 150.807C199.789 156.972 197.407 161.106 193.624 162.578L171.062 175.049C173.795 173.088 175.477 169.374 175.477 164.259C175.477 161.597 175.056 158.864 174.215 156.132C173.795 154.8 173.375 153.469 172.814 152.138C170.222 145.902 165.948 140.017 160.973 136.163L160.763 136.023L117.532 102.531L116.761 101.901C116.131 101.34 115.5 100.85 114.87 100.359C113.819 99.5886 112.768 98.888 111.647 98.2574C106.182 95.1044 101.207 94.6139 97.4233 96.3656L119.704 84.2442C123.628 81.1613 129.443 81.1613 135.96 84.8748C137.711 85.8557 139.393 87.1169 141.004 88.5182L185.076 122.57L185.286 122.71C193.554 129.016 199.789 140.927 199.789 150.807Z" fill="#414042" stroke="#231F20" stroke-width="0.201439" stroke-miterlimit="10" stroke-linecap="round" stroke-linejoin="round"/>
        <path d="M133.718 101.48C133.648 101.55 133.578 101.55 133.438 101.62C133.578 101.62 133.648 101.55 133.718 101.48Z" fill="#F1F2F2" stroke="#231F20" stroke-width="0.201439" stroke-miterlimit="10" stroke-linecap="round" stroke-linejoin="round"/>
        <path d="M184.094 118.226L181.362 119.698L159.571 131.469L143.877 119.277L132.456 110.449L116.341 98.0472L121.526 95.2446L124.609 93.563L137.851 86.4163L140.864 84.8048L157.539 97.6969L166.788 104.984C166.858 104.984 166.858 104.914 166.928 104.914L184.094 118.226Z" fill="#F1F2F2" stroke="#231F20" stroke-width="0.201439" stroke-miterlimit="10" stroke-linecap="round" stroke-linejoin="round"/>
        <path d="M184.095 118.226V120.819L183.394 121.239L168.4 129.367L159.572 134.131V131.469L181.432 119.697L184.095 118.226Z" fill="#F1F2F2" stroke="#231F20" stroke-width="0.201439" stroke-miterlimit="10" stroke-linecap="round" stroke-linejoin="round"/>
        <path d="M159.571 131.469V133.851L159.431 133.921L147.66 124.882L143.737 121.8L130.424 111.57L121.526 104.703L116.341 100.71V98.0472L132.456 110.449L143.877 119.277L159.571 131.469Z" fill="#F1F2F2" stroke="#231F20" stroke-width="0.201439" stroke-miterlimit="10" stroke-linecap="round" stroke-linejoin="round"/>
        <path d="M159.572 133.851V134.131L159.432 133.921L159.572 133.851Z" fill="#F1F2F2" stroke="#231F20" stroke-width="0.201439" stroke-miterlimit="10" stroke-linecap="round" stroke-linejoin="round"/>
        <path d="M163.145 96.1552C163.145 97.3464 162.724 98.1871 162.094 98.6075C162.024 98.6075 162.024 98.6776 161.954 98.6776C161.883 98.7477 160.903 99.2381 159.431 100.149C155.017 102.671 146.049 107.786 141.284 110.238C140.443 110.659 139.743 111.009 139.252 111.289C139.883 110.869 140.303 109.958 140.303 108.837C140.303 106.315 138.552 103.232 136.38 101.971C135.399 101.41 134.488 101.27 133.787 101.62C134.558 101.2 135.469 100.71 136.45 100.149C140.513 97.977 145.838 95.1043 150.042 92.8622C151.023 92.3016 151.934 91.8112 152.775 91.3908C154.457 90.4799 155.718 89.7793 156.418 89.4289C156.699 89.2888 156.909 89.1487 156.909 89.1487C157.539 88.9385 158.38 89.0786 159.291 89.5691C161.463 90.6901 163.145 93.7029 163.145 96.1552Z" fill="url(#paint2_linear_1_19911)" stroke="#231F20" stroke-width="0.201439" stroke-miterlimit="10" stroke-linecap="round" stroke-linejoin="round"/>
        <path d="M140.303 108.697C140.303 109.888 139.883 110.729 139.252 111.149C138.552 111.64 137.501 111.64 136.309 110.939C134.137 109.678 132.386 106.595 132.386 104.073C132.386 103.162 132.596 102.461 133.016 101.971C133.156 101.831 133.297 101.691 133.507 101.55C133.577 101.48 133.647 101.48 133.787 101.41C134.488 101.13 135.399 101.2 136.379 101.761C138.552 103.162 140.303 106.175 140.303 108.697Z" fill="#58595B" stroke="#231F20" stroke-width="0.201439" stroke-miterlimit="10" stroke-linecap="round" stroke-linejoin="round"/>
        <path d="M174.285 156.132C173.865 154.8 173.445 153.469 172.884 152.138C170.292 145.902 166.018 140.017 161.043 136.163L160.833 136.023L117.532 102.531L116.761 101.901C116.131 101.34 115.5 100.85 114.87 100.359C113.819 99.5886 112.768 98.888 111.647 98.2574C106.182 95.1044 101.207 94.614 97.4233 96.3656C93.0792 98.3975 90.3467 103.372 90.3467 110.589C90.3467 124.182 99.8756 140.647 111.647 147.444L158.1 174.279C163.215 177.221 167.839 177.362 170.992 175.049C173.725 173.088 175.407 169.374 175.407 164.259C175.477 161.667 175.056 158.864 174.285 156.132ZM158.17 170.986L148.782 165.591L121.876 150.316L111.647 144.501C101.347 138.545 92.9391 124.042 92.9391 112.06C92.9391 100.149 101.347 95.2446 111.647 101.27C112.908 101.971 114.169 102.882 115.36 103.863C115.57 104.073 115.851 104.213 116.061 104.423L118.163 106.105L124.889 111.36L151.234 131.889L159.642 138.405C163.565 141.138 167.069 145.412 169.381 150.106C170.082 151.507 170.642 152.909 171.133 154.31C172.113 157.113 172.674 159.915 172.674 162.648C172.674 171.897 166.158 175.68 158.17 170.986Z" fill="#231F20" stroke="#231F20" stroke-width="0.201439" stroke-miterlimit="10" stroke-linecap="round" stroke-linejoin="round"/>
        <path d="M122.507 127.545C122.507 130.698 121.246 132.87 119.354 133.641C119.354 133.641 119.354 133.641 119.284 133.641C118.934 133.851 117.392 134.551 116.902 134.832C117.322 134.622 117.672 134.271 118.023 133.921C118.373 133.571 118.653 133.15 118.863 132.66C119.354 131.679 119.634 130.418 119.634 128.876C119.634 127.685 119.424 126.354 119.144 125.093C118.303 121.729 116.411 118.366 113.959 115.914C112.908 114.793 111.787 113.882 110.526 113.181C109.825 112.761 109.124 112.481 108.424 112.271C107.513 111.99 106.672 111.92 105.901 111.99C105.411 112.06 104.92 112.13 104.5 112.341L106.742 111.22L107.583 110.799C109.124 110.239 111.086 110.519 113.258 111.78C118.443 114.723 122.507 121.729 122.507 127.545Z" fill="#928874" stroke="#231F20" stroke-width="0.0802954" stroke-miterlimit="10"/>
        <path d="M119.144 125.163C118.303 121.8 116.411 118.436 113.959 115.984C112.908 114.863 111.787 113.952 110.526 113.252C109.825 112.831 109.124 112.551 108.424 112.341C107.513 112.06 106.672 111.99 105.901 112.06C105.411 112.13 104.92 112.201 104.5 112.411L104.29 112.551C102.608 113.462 101.557 115.564 101.557 118.436C101.557 124.252 105.621 131.258 110.596 134.131C112.978 135.462 115.08 135.673 116.761 134.902C116.761 134.902 116.831 134.902 116.972 134.832C117.392 134.622 117.742 134.271 118.093 133.921C118.443 133.571 118.723 133.15 118.933 132.66C119.424 131.679 119.704 130.418 119.704 128.876C119.634 127.685 119.494 126.424 119.144 125.163ZM116.061 129.647C115.991 129.787 115.921 129.927 115.78 130.067C115.71 130.207 115.57 130.348 115.43 130.488C115.22 130.698 114.94 130.908 114.659 131.048C114.589 131.118 114.519 131.118 114.519 131.118C113.468 131.609 111.997 131.469 110.455 130.628C107.162 128.736 104.43 124.042 104.43 120.258C104.43 118.296 105.13 116.965 106.252 116.334L106.462 116.264C106.742 116.124 107.022 116.054 107.373 116.054C107.513 116.054 107.653 116.054 107.723 116.054C108.143 116.054 108.564 116.124 108.984 116.264C109.404 116.405 109.895 116.615 110.385 116.895C113.679 118.787 116.411 123.481 116.411 127.265C116.551 128.176 116.411 128.946 116.061 129.647Z" fill="#928874" stroke="#231F20" stroke-width="0.0802954" stroke-miterlimit="10"/>
        <path d="M115.851 130.067C115.781 130.207 115.64 130.348 115.5 130.488C115.29 130.698 115.01 130.908 114.73 131.048C114.66 131.118 114.589 131.118 114.589 131.118C113.538 131.609 112.067 131.469 110.526 130.628C107.233 128.736 104.5 124.042 104.5 120.258C104.5 118.296 105.201 116.965 106.322 116.334L106.532 116.264C106.812 116.124 107.092 116.054 107.443 116.054C107.583 116.054 107.723 116.054 107.793 116.054C107.303 116.755 107.022 117.736 107.022 118.997C107.022 122.851 109.685 127.475 113.048 129.367C114.099 129.787 115.01 130.067 115.851 130.067Z" fill="#49443A" stroke="#231F20" stroke-width="0.0802954" stroke-miterlimit="10" stroke-linecap="round" stroke-linejoin="round"/>
        <path d="M116.551 127.195C116.551 128.176 116.341 129.016 116.061 129.647C115.991 129.787 115.921 129.927 115.78 130.067C115.01 130.067 114.099 129.787 113.118 129.227C109.825 127.335 107.092 122.64 107.092 118.857C107.092 117.666 107.373 116.615 107.863 115.914C108.283 115.914 108.704 115.984 109.124 116.124C109.545 116.264 110.035 116.475 110.526 116.755C113.889 118.717 116.551 123.341 116.551 127.195Z" fill="#6E6657" stroke="#231F20" stroke-width="0.0802954" stroke-miterlimit="10" stroke-linecap="round" stroke-linejoin="round"/>
        <path d="M167.559 158.234C167.559 161.387 166.297 163.559 164.406 164.329C164.406 164.329 164.406 164.329 164.336 164.329C163.985 164.54 162.444 165.24 161.953 165.52C162.374 165.31 162.724 164.96 163.074 164.61C163.425 164.259 163.705 163.839 163.915 163.348C164.406 162.368 164.686 161.106 164.686 159.565C164.686 158.374 164.476 157.043 164.196 155.781C163.355 152.418 161.463 149.055 159.011 146.603C157.96 145.482 156.839 144.571 155.577 143.87C154.877 143.45 154.176 143.17 153.475 142.959C152.565 142.679 151.724 142.609 150.953 142.679C150.463 142.749 149.972 142.819 149.552 143.029L151.794 141.908L152.635 141.488C154.176 140.927 156.138 141.208 158.31 142.469C163.495 145.412 167.559 152.488 167.559 158.234Z" fill="#928874" stroke="#231F20" stroke-width="0.0802954" stroke-miterlimit="10"/>
        <path d="M164.196 155.922C163.355 152.558 161.463 149.195 159.011 146.743C157.96 145.622 156.839 144.711 155.578 144.01C154.877 143.59 154.176 143.31 153.476 143.099C152.565 142.819 151.724 142.749 150.953 142.819C150.463 142.889 149.973 142.959 149.552 143.17L149.202 143.31C147.52 144.221 146.469 146.323 146.469 149.195C146.469 155.011 150.533 162.017 155.508 164.89C157.89 166.221 159.992 166.431 161.674 165.661C161.674 165.661 161.744 165.661 161.884 165.591C162.304 165.38 162.654 165.03 163.005 164.68C163.355 164.329 163.635 163.909 163.846 163.419C164.336 162.438 164.616 161.176 164.616 159.635C164.686 158.444 164.546 157.183 164.196 155.922ZM161.113 160.406C161.043 160.546 160.973 160.686 160.833 160.826C160.763 160.966 160.623 161.106 160.482 161.247C160.272 161.457 159.992 161.667 159.712 161.807C159.642 161.877 159.572 161.877 159.572 161.877C158.521 162.368 157.049 162.227 155.508 161.387C152.215 159.495 149.482 154.8 149.482 151.017C149.482 149.055 150.183 147.724 151.304 147.093L151.514 147.023C151.794 146.883 152.074 146.813 152.425 146.813C152.565 146.813 152.705 146.813 152.775 146.813C153.196 146.813 153.616 146.883 154.036 147.023C154.457 147.163 154.947 147.373 155.438 147.654C158.731 149.546 161.463 154.24 161.463 158.023C161.603 158.864 161.463 159.705 161.113 160.406Z" fill="#928874" stroke="#231F20" stroke-width="0.0802954" stroke-miterlimit="10"/>
        <path d="M160.902 160.826C160.832 160.966 160.692 161.106 160.552 161.247C160.342 161.457 160.062 161.667 159.781 161.807C159.711 161.877 159.641 161.877 159.641 161.877C158.59 162.368 157.119 162.227 155.577 161.387C152.284 159.495 149.552 154.8 149.552 151.017C149.552 149.055 150.252 147.724 151.373 147.093L151.584 147.023C151.864 146.883 152.144 146.813 152.495 146.813C152.635 146.813 152.775 146.813 152.845 146.813C152.354 147.514 152.074 148.495 152.074 149.756C152.074 153.609 154.737 158.234 158.1 160.125C159.151 160.546 160.062 160.826 160.902 160.826Z" fill="#49443A" stroke="#231F20" stroke-width="0.0802954" stroke-miterlimit="10" stroke-linecap="round" stroke-linejoin="round"/>
        <path d="M161.603 157.883C161.603 158.864 161.393 159.705 161.113 160.336C161.043 160.476 160.973 160.616 160.833 160.756C160.062 160.756 159.151 160.476 158.17 159.915C154.877 158.023 152.145 153.329 152.145 149.545C152.145 148.354 152.425 147.303 152.915 146.603C153.336 146.603 153.756 146.673 154.176 146.813C154.597 146.953 155.087 147.163 155.578 147.443C158.941 149.405 161.603 154.1 161.603 157.883Z" fill="#6E6657" stroke="#231F20" stroke-width="0.0802954" stroke-miterlimit="10" stroke-linecap="round" stroke-linejoin="round"/>
    </g>
    <defs>
        <linearGradient id="paint0_linear_1_19911" x1="119.864" y1="101.762" x2="133.609" y2="139.21" gradientUnits="userSpaceOnUse">
            <stop/>
            <stop offset="1" stop-color="#58595B"/>
        </linearGradient>
        <linearGradient id="paint1_linear_1_19911" x1="162.731" y1="133.606" x2="181.251" y2="167.119" gradientUnits="userSpaceOnUse">
            <stop stop-color="#58595B"/>
            <stop offset="1"/>
        </linearGradient>
        <linearGradient id="paint2_linear_1_19911" x1="146.115" y1="93.8442" x2="152.199" y2="104.473" gradientUnits="userSpaceOnUse">
            <stop stop-color="#59595C"/>
            <stop offset="0.3636" stop-color="#221F1F"/>
            <stop offset="0.6738" stop-color="#808184"/>
            <stop offset="1" stop-color="#424143"/>
        </linearGradient>
        <clipPath id="">
            <rect width="109.583" height="94.869" fill="white" transform="translate(90.2764 81.8618)"/>
        </clipPath>
    </defs>
</svg>
