<svg width="230" height="230" viewBox="0 0 230 230" fill="none"
    xmlns="http://www.w3.org/2000/svg">
    <g clip-path="url(#)">
        <path d="M175.687 132.029V140.717L160.973 147.934V139.246C161.113 139.316 161.253 139.316 161.394 139.386C163.706 140.016 165.738 139.806 167.419 139.106C167.489 139.106 167.559 139.036 167.559 139.036C169.311 138.405 170.852 137.424 171.973 136.373C174.706 133.851 175.547 132.239 175.687 132.029C175.687 132.029 175.617 132.029 175.687 132.029Z" fill="#F1F2F2"/>
        <path d="M175.687 132.029V140.717L160.973 147.934V139.246C161.113 139.316 161.253 139.316 161.394 139.386C163.706 140.016 165.738 139.806 167.419 139.106C167.489 139.106 167.559 139.036 167.559 139.036C169.311 138.405 170.852 137.424 171.973 136.373C174.706 133.851 175.547 132.239 175.687 132.029ZM175.687 132.029C175.617 132.029 175.687 132.029 175.687 132.029Z" stroke="#231F20" stroke-width="0.185955" stroke-miterlimit="10" stroke-linecap="round" stroke-linejoin="round"/>
        <path d="M175.686 132.029C175.686 132.029 175.616 132.029 175.686 132.029C175.546 132.239 174.706 133.851 172.043 136.373C170.922 137.424 169.381 138.405 167.629 139.036C167.559 139.036 167.489 139.106 167.489 139.106C165.737 139.806 163.775 140.016 161.463 139.386C161.323 139.316 161.183 139.316 161.043 139.246L132.316 122.64L61.269 81.7217C61.269 81.7217 71.0782 83.6836 75.7026 72.9635L175.686 132.029Z" fill="#939598" stroke="#231F20" stroke-width="0.185955" stroke-miterlimit="10"/>
        <path d="M160.903 139.246V147.934L61.269 90.4799V81.7217L132.176 122.64L160.903 139.246Z" fill="#F1F2F2" stroke="#231F20" stroke-width="0.185955" stroke-miterlimit="10" stroke-linecap="round" stroke-linejoin="round"/>
        <path opacity="0.2" d="M160.903 139.246V147.934L61.269 90.4799V81.7217L132.176 122.64L160.903 139.246Z" fill="black" stroke="#231F20" stroke-width="0.185955" stroke-miterlimit="10"/>
        <path d="M92.3087 61.5428L86.6334 71.4221L76.684 88.6582L60.1485 77.5878L57.6962 75.9763C56.2248 74.7852 55.314 72.7533 55.314 69.8806C55.314 68.5494 55.5242 67.148 55.8745 65.7467C56.7153 62.4536 58.4669 59.1605 60.709 56.498C62.1103 54.8865 63.6518 53.4852 65.3334 52.5744C67.7857 51.1731 70.0978 50.8928 71.7794 51.5934V51.5234L92.2386 61.5428H92.3087Z" fill="url(#paint0_linear_1_19911)"/>
        <path d="M154.177 133.5L169.872 106.385C151.304 95.6649 92.3091 61.5429 92.3091 61.5429C90.2772 60.3517 87.5446 60.5619 84.4617 62.3136C78.4361 65.8869 73.4614 74.435 73.4614 81.5116C73.4614 85.0149 74.7226 87.5372 76.6844 88.6583L154.177 133.5Z" fill="url(#paint1_linear_1_19911)" stroke="#231F20" stroke-width="0.0444042" stroke-miterlimit="10"/>
        <path d="M121.386 114.512L114.87 110.729C112.838 109.538 111.647 107.085 111.647 103.582C111.647 96.5055 116.622 87.9575 122.717 84.3842C124.259 83.4733 125.73 83.0529 126.991 82.9128C128.323 82.7727 129.514 83.0529 130.495 83.6134C130.495 83.6134 132.947 85.0148 137.011 87.397C136.03 86.8365 134.839 86.5562 133.507 86.6963C132.176 86.8365 130.705 87.3269 129.233 88.1677C123.138 91.671 118.163 100.289 118.163 107.366C118.093 110.869 119.354 113.391 121.386 114.512Z" fill="url(#paint2_linear_1_19911)"/>
        <path d="M111.507 108.837L104.991 105.054C102.959 103.862 101.768 101.41 101.768 97.9069C101.768 90.8302 106.743 82.2822 112.838 78.7089C114.38 77.798 115.851 77.3776 117.112 77.2375C118.444 77.0974 119.635 77.3776 120.616 77.9382C120.616 77.9382 123.068 79.3395 127.132 81.7217C126.151 81.1612 124.96 80.8809 123.629 81.021C122.297 81.1612 120.826 81.6516 119.355 82.4924C113.259 85.9957 108.284 94.6138 108.284 101.69C108.284 105.194 109.475 107.646 111.507 108.837Z" fill="url(#paint3_linear_1_19911)"/>
        <path d="M154.177 133.5C154.597 133.781 155.088 133.921 155.578 134.061C161.744 136.513 178.209 141.348 190.961 140.227C193.133 140.016 194.465 137.774 193.554 135.742C188.229 123.971 176.178 111.5 170.993 107.366C170.642 107.015 170.222 106.665 169.802 106.385C167.77 105.194 165.037 105.404 161.954 107.156C155.858 110.659 150.884 119.277 150.884 126.354C150.954 129.857 152.145 132.309 154.177 133.5Z" fill="url(#paint4_linear_1_19911)"/>
        <path d="M97.4942 98.1172L57.4166 99.1682L27.4985 81.8619L39.3396 75.0656L74.5827 84.8748L97.4942 98.1172Z" fill="url(#paint5_linear_1_19911)" stroke="#231F20" stroke-width="0.11708" stroke-miterlimit="10"/>
        <path d="M97.3541 94.8241L57.2765 95.8751L27.3584 78.5688L39.1995 71.7725L74.4426 81.5817L97.3541 94.8241Z" fill="#F1F2F2" stroke="#231F20" stroke-width="0.149871" stroke-miterlimit="10"/>
        <path d="M27.3584 78.5687L27.4985 81.8618L57.4166 99.1681L57.2765 95.875L27.3584 78.5687Z" fill="#BCBEC0" stroke="#231F20" stroke-width="0.11708" stroke-miterlimit="10"/>
        <path d="M97.4946 98.1172L97.3545 94.8241L57.2769 95.8751L57.417 99.1682L97.4946 98.1172Z" fill="#D1D3D4" stroke="#231F20" stroke-width="0.11708" stroke-miterlimit="10"/>
        <path d="M110.526 75.626L91.3981 40.3829L61.48 23.0767V36.7395L87.5444 62.3836L110.526 75.626Z" fill="url(#paint6_linear_1_19911)" stroke="#231F20" stroke-width="0.11708" stroke-miterlimit="10"/>
        <path d="M107.583 77.1674L88.4552 41.9243L58.5371 24.618V38.2809L84.6716 63.9249L107.583 77.1674Z" fill="#F1F2F2" stroke="#231F20" stroke-width="0.149871" stroke-miterlimit="10"/>
        <path opacity="0.2" d="M107.583 77.1674L88.4552 41.9243L58.5371 24.618V38.2809L84.6716 63.9249L107.583 77.1674Z" fill="black" stroke="#231F20" stroke-width="0.185955" stroke-miterlimit="10"/>
        <path d="M58.5371 24.6181L61.4799 23.0767L91.3979 40.3829L88.4552 41.9243L58.5371 24.6181Z" fill="#F1F2F2" stroke="#231F20" stroke-width="0.149871" stroke-miterlimit="10"/>
        <path d="M110.526 75.6259L107.584 77.1673L88.4556 41.9243L91.3983 40.3828L110.526 75.6259Z" fill="#F1F2F2" stroke="#231F20" stroke-width="0.149871" stroke-miterlimit="10"/>
        <path opacity="0.2" d="M107.583 77.1674H96.5128L86.6336 71.4221L60.7793 56.498C62.1806 54.8865 63.7221 53.4852 65.4036 52.5744C67.8559 51.1731 70.1681 50.8928 71.8497 51.5934V51.5234L72.0599 51.6635L84.6717 63.925L107.583 77.1674Z" fill="black" stroke="#231F20" stroke-width="0.185955" stroke-miterlimit="10"/>
    </g>
    <defs>
        <linearGradient id="paint0_linear_1_19911" x1="66.1855" y1="80.85" x2="78.5825" y2="53.4229" gradientUnits="userSpaceOnUse">
            <stop stop-color="#BE1E2D"/>
            <stop offset="0.3636" stop-color="#AA1E23"/>
            <stop offset="0.6989" stop-color="#F5828A"/>
            <stop offset="1" stop-color="#BE1E2D"/>
        </linearGradient>
        <linearGradient id="paint1_linear_1_19911" x1="127.182" y1="81.7221" x2="111.51" y2="108.825" gradientUnits="userSpaceOnUse">
            <stop stop-color="#E6E7E8"/>
            <stop offset="0.3262" stop-color="#F1F2F2"/>
            <stop offset="0.6364" stop-color="#D1D3D4"/>
            <stop offset="1" stop-color="#D1D3D4"/>
        </linearGradient>
        <linearGradient id="paint2_linear_1_19911" x1="129.855" y1="83.269" x2="114.184" y2="110.37" gradientUnits="userSpaceOnUse">
            <stop stop-color="#BE1E2D"/>
            <stop offset="0.3011" stop-color="#F5828A"/>
            <stop offset="0.6364" stop-color="#AA1E23"/>
            <stop offset="1" stop-color="#BE1E2D"/>
        </linearGradient>
        <linearGradient id="paint3_linear_1_19911" x1="120.001" y1="77.5703" x2="104.33" y2="104.671" gradientUnits="userSpaceOnUse">
            <stop stop-color="#BE1E2D"/>
            <stop offset="0.3011" stop-color="#F5828A"/>
            <stop offset="0.6364" stop-color="#AA1E23"/>
            <stop offset="1" stop-color="#BE1E2D"/>
        </linearGradient>
        <linearGradient id="paint4_linear_1_19911" x1="181.771" y1="113.29" x2="166.099" y2="140.392" gradientUnits="userSpaceOnUse">
            <stop stop-color="#BE1E2D"/>
            <stop offset="0.3011" stop-color="#F5828A"/>
            <stop offset="0.6364" stop-color="#AA1E23"/>
            <stop offset="1" stop-color="#BE1E2D"/>
        </linearGradient>
        <linearGradient id="paint5_linear_1_19911" x1="52.0269" y1="96.0349" x2="62.5203" y2="77.8874" gradientUnits="userSpaceOnUse">
            <stop stop-color="#D1D3D4"/>
            <stop offset="0.3636" stop-color="#A7A9AC"/>
            <stop offset="0.6738" stop-color="#F1F2F2"/>
            <stop offset="1" stop-color="#E6E7E8"/>
        </linearGradient>
        <linearGradient id="paint6_linear_1_19911" x1="86.0024" y1="37.2798" x2="75.5079" y2="55.4292" gradientUnits="userSpaceOnUse">
            <stop stop-color="#D1D3D4"/>
            <stop offset="0.3636" stop-color="#A7A9AC"/>
            <stop offset="0.6738" stop-color="#F1F2F2"/>
            <stop offset="1" stop-color="#E6E7E8"/>
        </linearGradient>
        <clipPath id="">
            <rect width="166.686" height="125.137" fill="white" transform="translate(27.2168 23.0066)"/>
        </clipPath>
    </defs>
</svg>
