<svg width="230" height="230" viewBox="0 0 230 230" fill="none"
    xmlns="http://www.w3.org/2000/svg">
    <g clip-path="url(#)">
        <path d="M84.1809 113.882C84.1108 113.882 84.0408 113.812 83.9707 113.812C83.9707 113.812 84.0408 113.812 84.0408 113.882C84.1108 113.882 84.1809 113.882 84.1809 113.882Z" fill="#F1F2F2" stroke="#231F20" stroke-width="0.201439" stroke-miterlimit="10" stroke-linecap="round" stroke-linejoin="round"/>
        <path d="M104.5 107.786C104.5 107.716 104.5 107.716 104.5 107.786L101.767 104.353L98.5444 100.219L91.2576 90.8304L91.0474 90.6903L88.8053 89.4291L65.8237 76.1166V91.531L76.2635 98.3274V108.487L78.0852 109.818L107.022 126.284V110.939L104.5 107.786Z" fill="#F1F2F2" stroke="#231F20" stroke-width="0.201439" stroke-miterlimit="10" stroke-linecap="round" stroke-linejoin="round"/>
        <path opacity="0.14" d="M104.5 107.786C104.5 107.716 104.5 107.716 104.5 107.786L101.767 104.353L98.5444 100.219L91.2576 90.8304L91.0474 90.6903L88.8053 89.4291L65.8237 76.1166V91.531L76.2635 98.3274V108.487L78.0852 109.818L107.022 126.284V110.939L104.5 107.786Z" fill="black" stroke="#231F20" stroke-width="0.201439" stroke-miterlimit="10"/>
        <path d="M117.042 105.264L107.233 110.799L107.023 110.939L104.5 107.786L91.2578 90.8303L92.3088 90.2698L92.519 90.1297L93.8502 89.429L94.2006 89.2188L95.8822 88.2379L99.2453 86.4162L100.857 85.5053L101.628 85.0849L102.749 84.4543L117.042 105.264Z" fill="#F1F2F2" stroke="#231F20" stroke-width="0.201439" stroke-miterlimit="10" stroke-linecap="round" stroke-linejoin="round"/>
        <path d="M93.8502 89.4291L92.519 90.1297L92.3088 90.2699L91.2578 90.8304L92.3088 90.2699L92.519 90.1297L93.8502 89.4291Z" fill="#F1F2F2" stroke="#231F20" stroke-width="0.201439" stroke-miterlimit="10" stroke-linecap="round" stroke-linejoin="round"/>
        <path d="M101.627 85.0851L100.857 85.5055L99.2451 86.4163L100.857 85.5055L101.627 85.0851Z" fill="#F1F2F2" stroke="#231F20" stroke-width="0.201439" stroke-miterlimit="10" stroke-linecap="round" stroke-linejoin="round"/>
        <path d="M145.769 89.0787L134.698 95.3146V82.4925L120.405 74.505L121.526 73.8745L122.437 73.384L126.641 71.0718L130.354 68.9698L130.424 69.0399L131.826 70.7916L134.768 74.5751L138.412 79.1994L139.533 80.6008L141.214 82.7728L143.947 86.2761C144.437 86.9067 144.928 87.6073 145.418 88.308C145.488 88.5182 145.628 88.7985 145.769 89.0787Z" fill="#F1F2F2" stroke="#231F20" stroke-width="0.201439" stroke-miterlimit="10" stroke-linecap="round" stroke-linejoin="round"/>
        <path d="M145.769 89.0787L134.698 95.3146L145.769 89.0787Z" fill="#F1F2F2" stroke="#231F20" stroke-width="0.201439" stroke-miterlimit="10" stroke-linecap="round" stroke-linejoin="round"/>
        <path d="M104.5 107.786V107.716L101.838 104.353L98.6147 100.219L91.2578 90.8303L104.5 107.786Z" fill="#F1F2F2" stroke="#231F20" stroke-width="0.201439" stroke-miterlimit="10" stroke-linecap="round" stroke-linejoin="round"/>
        <path d="M92.519 90.1298L92.3088 90.27L91.2578 90.8305L92.3088 90.27L92.519 90.1298L93.8502 89.4292L92.519 90.1298ZM100.857 85.5055L99.2453 86.4163L100.857 85.5055L101.557 85.0851L100.857 85.5055Z" fill="#F1F2F2"/>
        <path d="M92.519 90.1298L92.3088 90.27L91.2578 90.8305L92.3088 90.27L92.519 90.1298ZM92.519 90.1298L93.8502 89.4292L92.519 90.1298ZM100.857 85.5055L99.2453 86.4163L100.857 85.5055ZM100.857 85.5055L101.557 85.0851L100.857 85.5055Z" stroke="#231F20" stroke-width="0.201439" stroke-miterlimit="10" stroke-linecap="round" stroke-linejoin="round"/>
        <path d="M145.768 89.0789V104.774L107.022 126.214V110.939L107.232 110.799L117.041 105.264V91.9516L119.213 90.8305L134.698 82.4927V95.3147L145.768 89.0789Z" fill="#F1F2F2" stroke="#231F20" stroke-width="0.201439" stroke-miterlimit="10" stroke-linecap="round" stroke-linejoin="round"/>
        <path d="M145.768 89.0789L134.698 95.3147L145.768 89.0789Z" fill="#F1F2F2" stroke="#231F20" stroke-width="0.201439" stroke-miterlimit="10" stroke-linecap="round" stroke-linejoin="round"/>
        <path d="M117.041 91.9514V105.264L102.748 84.4543L117.041 91.9514Z" fill="#F1F2F2" stroke="#231F20" stroke-width="0.201439" stroke-miterlimit="10" stroke-linecap="round" stroke-linejoin="round"/>
        <path opacity="0.14" d="M117.041 91.9514V105.264L102.748 84.4543L117.041 91.9514Z" fill="black" stroke="#231F20" stroke-width="0.201439" stroke-miterlimit="10"/>
        <path d="M134.698 82.4925L119.213 90.8303L117.041 92.0214L102.748 84.4543L101.627 85.0849L100.926 85.5053L99.3147 86.4162L95.8815 88.2379L94.1298 89.2188L93.7795 89.429L92.4482 90.1296L92.3081 90.2698L91.2571 90.8303L91.0469 90.6902L88.8048 89.429L65.8232 76.1165C66.3838 76.3968 104.71 54.256 104.92 54.1859L115.85 60.5619L115.92 60.632L122.787 64.6257L130.354 68.9698L126.64 71.0718L122.436 73.3839L121.526 73.8744L120.404 74.505L134.698 82.4925Z" fill="#F1F2F2" stroke="#231F20" stroke-width="0.201439" stroke-miterlimit="10" stroke-linecap="round" stroke-linejoin="round"/>
        <path opacity="0.14" d="M124.609 106.945C123.768 107.716 122.927 108.137 122.156 108.137C122.016 108.137 121.876 108.137 121.736 108.137C121.596 108.137 121.386 108.067 121.246 107.996C121.175 107.996 121.175 107.926 121.105 107.926C120.965 107.856 120.825 107.786 120.685 107.646C120.615 107.576 120.615 107.576 120.545 107.506C120.405 107.366 120.265 107.226 120.124 107.086C119.984 106.875 119.844 106.665 119.704 106.385C119.564 106.175 119.494 105.894 119.424 105.614C119.424 105.544 119.354 105.404 119.354 105.334C119.354 105.264 119.284 105.124 119.284 104.984C119.284 104.914 119.284 104.843 119.214 104.773C119.214 104.703 119.214 104.703 119.214 104.633V104.563C119.214 104.423 119.214 104.283 119.144 104.143C119.144 104.003 119.144 103.863 119.144 103.722C119.144 103.582 119.144 103.442 119.144 103.302V103.232C119.144 103.092 119.144 102.952 119.144 102.812C119.144 102.671 119.144 102.531 119.214 102.321C119.214 102.181 119.214 102.041 119.284 101.971V101.761C119.284 101.62 119.354 101.55 119.354 101.41C119.424 101.06 119.494 100.71 119.634 100.429C119.704 100.289 119.704 100.149 119.774 100.009C119.844 99.8688 119.914 99.7287 119.914 99.5885C120.054 99.3083 120.124 99.028 120.265 98.7478C120.405 98.4675 120.545 98.1872 120.685 97.907C120.755 97.7668 120.825 97.6267 120.965 97.4866C121.105 97.2764 121.316 96.9961 121.456 96.856C121.526 96.7159 121.666 96.6458 121.736 96.5057C121.806 96.4356 121.876 96.3655 122.016 96.2254L122.086 96.1553C122.156 96.0853 122.226 96.0152 122.297 96.0152C122.367 95.9451 122.437 95.9451 122.437 95.8751C122.507 95.805 122.577 95.805 122.647 95.7349C122.857 95.5948 123.137 95.4547 123.348 95.3145C123.418 95.3145 123.488 95.2445 123.558 95.2445C123.628 95.2445 123.698 95.1744 123.768 95.1744C123.838 95.1744 123.908 95.1043 123.978 95.1043C124.048 95.1043 124.048 95.1043 124.118 95.0343C124.188 95.0343 124.258 95.0343 124.258 95.0343C124.609 94.9642 124.889 95.0343 125.169 95.1043C125.8 95.2445 126.29 95.5948 126.711 96.2254C126.991 96.6458 127.201 97.2063 127.411 97.8369C128.042 100.71 126.851 104.843 124.609 106.945Z" fill="black" stroke="#231F20" stroke-width="0.184343" stroke-miterlimit="10"/>
        <path d="M128.533 108.207C128.393 108.137 128.183 108.067 128.042 107.927L128.533 108.207Z" fill="white" stroke="#231F20" stroke-width="0.137539" stroke-miterlimit="10"/>
        <path d="M136.38 99.3786C136.38 102.462 134.278 106.175 131.686 107.716C130.495 108.417 129.444 108.557 128.603 108.207L128.113 107.927C127.342 107.366 126.921 106.385 126.921 104.984C126.921 101.901 129.023 98.1875 131.616 96.6461C132.737 96.0155 133.788 95.8053 134.629 96.0855C135.68 96.5059 136.38 97.627 136.38 99.3786Z" fill="#F1F2F2" stroke="#231F20" stroke-width="0.10685" stroke-miterlimit="10" stroke-linecap="round" stroke-linejoin="round"/>
        <path d="M128.533 108.207C128.603 108.207 128.603 108.207 128.533 108.207V108.207Z" fill="white" stroke="#231F20" stroke-width="0.137539" stroke-miterlimit="10"/>
        <path d="M134.559 96.1555C133.718 95.8753 132.737 96.0154 131.546 96.7161C128.953 98.2575 126.781 101.971 126.851 105.054C126.851 106.455 127.342 107.506 128.042 107.997L122.087 104.844C121.036 104.423 120.405 103.302 120.405 101.621C120.405 98.5378 122.507 94.8243 125.1 93.2828C126.361 92.5822 127.482 92.4421 128.323 92.8624L128.533 92.9325L134.559 96.1555Z" fill="url(#paint0_linear_1_19911)" stroke="#231F20" stroke-width="0.118481" stroke-miterlimit="10" stroke-linecap="round" stroke-linejoin="round"/>
        <path opacity="0.14" d="M128.042 107.927L122.087 104.774C121.036 104.353 120.405 103.232 120.405 101.551C120.405 99.869 121.036 98.0473 122.017 96.4358L128.533 99.7289C127.552 101.34 126.851 103.232 126.921 104.914C126.851 106.385 127.342 107.366 128.042 107.927Z" fill="black" stroke="#231F20" stroke-width="0.201439" stroke-miterlimit="10"/>
        <path d="M150.183 117.946C150.043 117.876 149.973 117.806 149.833 117.736L150.183 117.946Z" fill="#F1F2F2" stroke="#231F20" stroke-width="0.160941" stroke-miterlimit="10" stroke-linecap="round" stroke-linejoin="round"/>
        <path d="M155.788 111.71C155.788 113.882 154.247 116.474 152.425 117.596C151.584 118.086 150.814 118.156 150.253 117.946L149.903 117.736C149.342 117.385 149.062 116.615 149.062 115.634C149.062 113.462 150.603 110.869 152.425 109.748C153.196 109.258 153.967 109.188 154.527 109.398C155.228 109.678 155.788 110.519 155.788 111.71Z" fill="#F1F2F2" stroke="#231F20" stroke-width="0.160941" stroke-miterlimit="10" stroke-linecap="round" stroke-linejoin="round"/>
        <path d="M154.457 109.398C153.896 109.188 153.126 109.328 152.355 109.748C150.463 110.799 148.992 113.462 148.992 115.634C148.992 116.615 149.342 117.386 149.832 117.736L130.214 106.946C129.513 106.665 129.023 105.825 129.023 104.634C129.023 102.462 130.564 99.8691 132.386 98.748C133.297 98.2576 134.068 98.1875 134.698 98.4678L134.838 98.5378L154.457 109.398Z" fill="url(#paint1_linear_1_19911)" stroke="#231F20" stroke-width="0.160941" stroke-miterlimit="10" stroke-linecap="round" stroke-linejoin="round"/>
        <path d="M162.374 126.144C162.234 126.073 162.094 126.003 161.954 125.933L162.374 126.144Z" fill="#F1F2F2" stroke="#231F20" stroke-width="0.118411" stroke-miterlimit="10" stroke-linecap="round" stroke-linejoin="round"/>
        <path d="M169.31 118.787C169.24 121.379 167.349 124.602 165.036 125.863C163.985 126.424 163.075 126.494 162.374 126.214L161.954 126.003C161.323 125.513 160.973 124.672 160.973 123.411C161.043 120.819 162.934 117.596 165.177 116.334C166.158 115.774 167.068 115.704 167.769 115.914C168.75 116.264 169.31 117.245 169.31 118.787Z" fill="#58595B" stroke="#231F20" stroke-width="0.118411" stroke-miterlimit="10" stroke-linecap="round" stroke-linejoin="round"/>
        <path d="M168.399 119.277C168.329 121.309 166.858 123.831 165.106 124.812C164.336 125.233 163.565 125.303 163.004 125.093L162.654 124.882C162.164 124.532 161.883 123.831 161.883 122.85C161.953 120.818 163.425 118.296 165.176 117.315C165.947 116.895 166.648 116.825 167.208 117.035C167.979 117.315 168.399 118.086 168.399 119.277Z" fill="#231F20" stroke="#231F20" stroke-width="0.118411" stroke-miterlimit="10"/>
        <path d="M162.374 126.214C162.374 126.214 162.446 126.214 162.374 126.214V126.214Z" fill="#58595B" stroke="#231F20" stroke-width="0.118411" stroke-miterlimit="10" stroke-linecap="round" stroke-linejoin="round"/>
        <path d="M167.839 115.914C167.138 115.634 166.228 115.774 165.247 116.334C162.934 117.596 161.043 120.749 161.043 123.411C161.043 124.602 161.393 125.513 162.024 126.003L148.781 118.436C147.87 118.086 147.38 117.105 147.38 115.634C147.45 113.041 149.342 109.818 151.654 108.557C152.775 107.926 153.756 107.856 154.457 108.277L154.597 108.347L167.839 115.914Z" fill="url(#paint2_linear_1_19911)" stroke="#231F20" stroke-width="0.118411" stroke-miterlimit="10" stroke-linecap="round" stroke-linejoin="round"/>
        <path d="M183.044 136.653C182.904 136.583 182.834 136.513 182.694 136.443L183.044 136.653Z" fill="#F1F2F2" stroke="#231F20" stroke-width="0.160941" stroke-miterlimit="10" stroke-linecap="round" stroke-linejoin="round"/>
        <path d="M188.649 130.418C188.649 132.59 187.108 135.182 185.286 136.303C184.445 136.794 183.674 136.864 183.114 136.654L182.764 136.443C182.203 136.093 181.923 135.322 181.923 134.341C181.923 132.169 183.464 129.577 185.286 128.456C186.057 127.965 186.827 127.895 187.388 128.105C188.159 128.386 188.649 129.156 188.649 130.418Z" fill="#F1F2F2" stroke="#231F20" stroke-width="0.160941" stroke-miterlimit="10" stroke-linecap="round" stroke-linejoin="round"/>
        <path d="M187.388 128.105C186.827 127.895 186.057 128.035 185.286 128.456C183.394 129.507 181.923 132.169 181.923 134.341C181.923 135.322 182.273 136.093 182.764 136.443L163.145 125.583C162.445 125.303 161.954 124.462 161.954 123.271C161.954 121.099 163.496 118.506 165.317 117.385C166.228 116.895 166.999 116.825 167.629 117.105L167.77 117.175L187.388 128.105Z" fill="url(#paint3_linear_1_19911)" stroke="#231F20" stroke-width="0.160941" stroke-miterlimit="10" stroke-linecap="round" stroke-linejoin="round"/>
        <path d="M195.447 145.271C195.306 145.201 195.096 145.131 194.956 144.991L195.447 145.271Z" fill="white" stroke="#231F20" stroke-width="0.134877" stroke-miterlimit="10"/>
        <path d="M203.083 136.583C203.083 139.596 201.051 143.24 198.459 144.711C197.338 145.412 196.287 145.552 195.446 145.201L194.955 144.921C194.185 144.361 193.764 143.38 193.764 142.048C193.764 139.036 195.796 135.392 198.389 133.921C199.51 133.29 200.49 133.15 201.331 133.43C202.382 133.781 203.083 134.902 203.083 136.583Z" fill="#58595B" stroke="#231F20" stroke-width="0.134877" stroke-miterlimit="10" stroke-linecap="round" stroke-linejoin="round"/>
        <path d="M202.102 137.214C202.102 139.526 200.491 142.399 198.459 143.59C197.548 144.08 196.777 144.22 196.077 143.94L195.726 143.73C195.166 143.31 194.815 142.539 194.815 141.488C194.815 139.176 196.427 136.303 198.459 135.112C199.3 134.621 200.14 134.481 200.771 134.692C201.542 134.972 202.032 135.883 202.102 137.214Z" fill="#231F20" stroke="#231F20" stroke-width="0.134877" stroke-miterlimit="10"/>
        <path d="M201.331 133.43C200.561 133.15 199.51 133.29 198.389 133.921C195.796 135.462 193.764 139.106 193.764 142.048C193.764 143.45 194.255 144.431 194.955 144.921L179.681 136.723C178.7 136.303 178 135.182 178 133.571C178 130.558 180.031 126.914 182.624 125.443C183.885 124.742 184.936 124.602 185.777 125.022L185.987 125.093L201.331 133.43Z" fill="url(#paint4_linear_1_19911)" stroke="#231F20" stroke-width="0.134877" stroke-miterlimit="10" stroke-linecap="round" stroke-linejoin="round"/>
        <path opacity="0.2" d="M114.028 73.384C109.824 75.7662 103.098 75.7662 98.8942 73.384C94.6902 71.0018 94.6902 67.0781 98.8942 64.6959C103.098 62.3136 109.824 62.3136 114.028 64.6959C118.232 67.0781 118.232 71.0018 114.028 73.384Z" fill="black" stroke="#231F20" stroke-width="0.151903" stroke-miterlimit="10"/>
        <path d="M120.825 66.5876C120.825 66.938 120.755 67.2883 120.684 67.6386C120.614 67.9889 120.474 68.3393 120.264 68.6896C119.704 69.6005 118.863 70.4413 117.602 71.212C113.258 73.7343 106.181 73.7343 101.837 71.212C100.576 70.5113 99.6648 69.6005 99.1743 68.6896C98.9641 68.3393 98.824 67.9889 98.7539 67.6386C98.6838 67.2883 98.6138 66.938 98.6138 66.5876C98.6138 65.957 98.7539 65.3265 99.1042 64.6959C99.1743 64.4857 99.3144 64.3455 99.4546 64.1353C99.5246 64.0653 99.5246 63.9952 99.5947 63.9952L99.6648 64.0653L101.346 64.9761L103.168 63.9251V62.664L101.977 61.9633C102.187 61.8232 102.397 61.7531 102.608 61.613C102.818 61.5429 103.028 61.4028 103.238 61.3327C103.378 61.2626 103.518 61.2626 103.659 61.1926L105.901 62.3837L107.722 61.3327V60.2817C111.226 59.9314 114.939 60.4919 117.672 62.0334C119.704 63.2945 120.825 64.9761 120.825 66.5876Z" fill="#F1F2F2" stroke="#231F20" stroke-width="0.151903" stroke-miterlimit="10" stroke-linecap="round" stroke-linejoin="round"/>
        <path d="M120.825 66.5876V68.6196C120.825 70.3011 119.704 71.9126 117.532 73.1738C113.187 75.6962 106.111 75.6962 101.767 73.1738C99.5947 71.9126 98.4736 70.3011 98.4736 68.6196V66.5876C98.4736 66.938 98.5437 67.2883 98.6138 67.6386C98.6838 67.989 98.824 68.3393 99.0342 68.6896C99.5947 69.6005 100.435 70.4413 101.697 71.212C106.041 73.7344 113.117 73.7344 117.461 71.212C118.723 70.5113 119.633 69.6005 120.124 68.6896C120.334 68.3393 120.474 67.989 120.544 67.6386C120.755 67.2883 120.825 66.938 120.825 66.5876Z" fill="#F1F2F2" stroke="#231F20" stroke-width="0.151903" stroke-miterlimit="10" stroke-linecap="round" stroke-linejoin="round"/>
        <path d="M103.028 62.6639V63.9251L101.206 64.9761V63.7149L103.028 62.6639Z" fill="#F1F2F2" stroke="#231F20" stroke-width="0.151903" stroke-miterlimit="10" stroke-linecap="round" stroke-linejoin="round"/>
        <path d="M101.206 63.7149V64.9761L99.5246 63.9951H99.4545L98.6838 63.5747V64.5557L97.0723 63.6448V61.3326L99.8048 62.9442L100.225 63.1544L101.206 63.7149Z" fill="#F1F2F2" stroke="#231F20" stroke-width="0.151903" stroke-miterlimit="10" stroke-linecap="round" stroke-linejoin="round"/>
        <path d="M107.652 60.2116L107.512 60.2816L105.761 61.2626L104.92 60.7721L104.359 60.4218L101.697 58.8803L103.518 57.8293L106.251 59.4409L107.652 60.2116Z" fill="#F1F2F2" stroke="#231F20" stroke-width="0.151903" stroke-miterlimit="10" stroke-linecap="round" stroke-linejoin="round"/>
        <path d="M107.652 60.2817V61.3327L105.83 62.3837V61.2627L107.582 60.2817C107.512 60.2817 107.582 60.2817 107.652 60.2817Z" fill="#F1F2F2" stroke="#231F20" stroke-width="0.151903" stroke-miterlimit="10" stroke-linecap="round" stroke-linejoin="round"/>
        <path d="M107.652 60.2117C107.582 60.2817 107.582 60.2817 107.512 60.2817L107.652 60.2117Z" fill="#F1F2F2" stroke="#231F20" stroke-width="0.151903" stroke-miterlimit="10" stroke-linecap="round" stroke-linejoin="round"/>
        <path d="M103.519 61.1926C103.378 61.2627 103.238 61.2627 103.098 61.3328V60.9824L103.168 61.0525L103.519 61.1926Z" fill="#F1F2F2" stroke="#231F20" stroke-width="0.151903" stroke-miterlimit="10" stroke-linecap="round" stroke-linejoin="round"/>
        <path d="M103.028 62.664L101.206 63.715L100.225 63.1544L99.8048 62.9442L97.0723 61.3327L98.964 60.2817L101.697 61.8933L101.907 61.9633L103.028 62.664Z" fill="#F1F2F2" stroke="#231F20" stroke-width="0.151903" stroke-miterlimit="10" stroke-linecap="round" stroke-linejoin="round"/>
        <path d="M105.761 61.2626V62.3837L103.518 61.1925L103.238 61.0524L103.168 60.9823V61.3327C102.958 61.4027 102.748 61.5429 102.538 61.6129L102.327 61.5429L101.697 61.1925V58.8804L104.359 60.4218L104.92 60.7721L105.761 61.2626Z" fill="#F1F2F2" stroke="#231F20" stroke-width="0.151903" stroke-miterlimit="10" stroke-linecap="round" stroke-linejoin="round"/>
        <path opacity="0.2" d="M101.206 63.7149V64.9761L99.5246 63.9951H99.4545L98.6838 63.5747V64.5557L97.0723 63.6448V61.3326L99.8048 62.9442L100.225 63.1544L101.206 63.7149Z" fill="black" stroke="#231F20" stroke-width="0.151903" stroke-miterlimit="10"/>
        <path opacity="0.2" d="M105.761 61.2626V62.3837L103.518 61.1925L103.238 61.0524L103.168 60.9823V61.3327C102.958 61.4027 102.748 61.5429 102.538 61.6129L102.327 61.5429L101.697 61.1925V58.8804L104.359 60.4218L104.92 60.7721L105.761 61.2626Z" fill="black" stroke="#231F20" stroke-width="0.151903" stroke-miterlimit="10"/>
        <path d="M99.4543 63.9951C99.3843 64.0652 99.3843 64.1352 99.3142 64.1352L98.6836 64.5556V63.5747L99.4543 63.9951Z" fill="#F1F2F2" stroke="#231F20" stroke-width="0.151903" stroke-miterlimit="10" stroke-linecap="round" stroke-linejoin="round"/>
        <path opacity="0.2" d="M120.825 66.5876V68.6196C120.825 70.3011 119.704 71.9126 117.532 73.1738C113.187 75.6962 106.111 75.6962 101.767 73.1738C99.5947 71.9126 98.4736 70.3011 98.4736 68.6196V66.5876C98.4736 66.938 98.5437 67.2883 98.6138 67.6386C98.6838 67.989 98.824 68.3393 99.0342 68.6896C99.5947 69.6005 100.435 70.4413 101.697 71.212C106.041 73.7344 113.117 73.7344 117.461 71.212C118.723 70.5113 119.633 69.6005 120.124 68.6896C120.334 68.3393 120.474 67.989 120.544 67.6386C120.755 67.2883 120.825 66.938 120.825 66.5876Z" fill="black" stroke="#231F20" stroke-width="0.371769" stroke-miterlimit="10"/>
        <path opacity="0.14" d="M111.436 72.9636V74.9955C108.003 75.3459 104.429 74.7153 101.767 73.1738C99.5947 71.9126 98.4736 70.3011 98.4736 68.6196V66.5876C98.4736 66.938 98.5437 67.2883 98.6138 67.6386C98.6838 67.989 98.824 68.3393 99.0342 68.6896C99.5947 69.6005 100.435 70.4413 101.697 71.212C104.359 72.6834 108.003 73.314 111.436 72.9636Z" fill="black" stroke="#231F20" stroke-width="0.151903" stroke-miterlimit="10"/>
        <path opacity="0.2" d="M87.8238 85.7155C93.7057 85.7155 98.4738 82.955 98.4738 79.5497C98.4738 76.1444 93.7057 73.3839 87.8238 73.3839C81.942 73.3839 77.1738 76.1444 77.1738 79.5497C77.1738 82.955 81.942 85.7155 87.8238 85.7155Z" fill="black" stroke="#231F20" stroke-width="0.151903" stroke-miterlimit="10"/>
        <path d="M102.117 77.1673C102.117 77.5177 102.047 77.868 101.977 78.2183C101.907 78.5687 101.767 78.919 101.557 79.2693C100.996 80.1802 100.155 81.021 98.8941 81.7917C94.55 84.3141 87.4734 84.3141 83.1293 81.7917C81.8681 81.091 80.9572 80.1802 80.4668 79.2693C80.2566 78.919 80.1164 78.5687 80.0464 78.2183C79.9763 77.868 79.9062 77.5177 79.9062 77.1673C79.9062 76.5368 80.0464 75.9062 80.3967 75.2756C80.4668 75.0654 80.6069 74.9252 80.747 74.715C80.8171 74.645 80.8171 74.5749 80.8872 74.5749L80.9572 74.645L82.6388 75.5558L84.4605 74.5048V73.2437L83.2694 72.543C83.4796 72.4029 83.6898 72.3328 83.9 72.1927C84.1102 72.1226 84.3204 71.9825 84.5306 71.9124C84.6707 71.8423 84.8109 71.8423 84.951 71.7723L87.1931 72.9634L89.0148 71.9124V70.8614C92.5181 70.5111 96.2316 71.0716 98.9641 72.6131C101.066 73.8743 102.117 75.5558 102.117 77.1673Z" fill="#F1F2F2" stroke="#231F20" stroke-width="0.151903" stroke-miterlimit="10" stroke-linecap="round" stroke-linejoin="round"/>
        <path d="M102.117 77.1674V79.1993C102.117 80.8108 100.996 82.4924 98.824 83.7535C94.4799 86.2759 87.4033 86.2759 83.0592 83.7535C80.8872 82.4924 79.7661 80.8808 79.7661 79.1993V77.1674C79.7661 77.5177 79.8362 77.868 79.9062 78.2183C79.9763 78.5687 80.1164 78.919 80.3266 79.2693C80.8872 80.1802 81.728 81.021 82.9891 81.7917C87.3332 84.3141 94.4099 84.3141 98.7539 81.7917C100.015 81.091 100.926 80.1802 101.416 79.2693C101.627 78.919 101.767 78.5687 101.837 78.2183C102.047 77.868 102.117 77.5177 102.117 77.1674Z" fill="#F1F2F2" stroke="#231F20" stroke-width="0.151903" stroke-miterlimit="10" stroke-linecap="round" stroke-linejoin="round"/>
        <path d="M84.3908 73.2437V74.5048L82.499 75.4858V74.2946L84.3908 73.2437Z" fill="#F1F2F2" stroke="#231F20" stroke-width="0.151903" stroke-miterlimit="10" stroke-linecap="round" stroke-linejoin="round"/>
        <path d="M82.4989 74.2947V75.4858L80.8874 74.575H80.8173L80.0466 74.1546V75.1355L78.4351 74.2246V71.9125L81.1676 73.524L81.518 73.7342L82.4989 74.2947Z" fill="#F1F2F2" stroke="#231F20" stroke-width="0.151903" stroke-miterlimit="10" stroke-linecap="round" stroke-linejoin="round"/>
        <path d="M88.9453 70.7914L88.8052 70.8615L87.1236 71.8424L86.2128 71.3519L85.6522 71.0016L82.9897 69.4602L84.8115 68.4092L87.544 69.9506L88.9453 70.7914Z" fill="#F1F2F2" stroke="#231F20" stroke-width="0.151903" stroke-miterlimit="10" stroke-linecap="round" stroke-linejoin="round"/>
        <path d="M88.9448 70.8615V71.9124L87.123 72.9634V71.8424L88.8747 70.8615C88.8747 70.8615 88.8747 70.8615 88.9448 70.8615Z" fill="#F1F2F2" stroke="#231F20" stroke-width="0.151903" stroke-miterlimit="10" stroke-linecap="round" stroke-linejoin="round"/>
        <path d="M88.9448 70.7914C88.8748 70.8614 88.8748 70.8614 88.8047 70.8614L88.9448 70.7914Z" fill="#F1F2F2" stroke="#231F20" stroke-width="0.151903" stroke-miterlimit="10" stroke-linecap="round" stroke-linejoin="round"/>
        <path d="M84.8813 71.7723C84.7412 71.8424 84.6011 71.8424 84.4609 71.9125V71.5621L84.531 71.6322L84.8813 71.7723Z" fill="#F1F2F2" stroke="#231F20" stroke-width="0.151903" stroke-miterlimit="10" stroke-linecap="round" stroke-linejoin="round"/>
        <path d="M84.3906 73.2437L82.4989 74.2947L81.518 73.7341L81.1676 73.524L78.4351 71.9124L80.2568 70.8615L83.0594 72.473L83.1995 72.543L84.3906 73.2437Z" fill="#F1F2F2" stroke="#231F20" stroke-width="0.151903" stroke-miterlimit="10" stroke-linecap="round" stroke-linejoin="round"/>
        <path d="M87.1234 71.8423V72.9634L84.8813 71.7723L84.601 71.6321L84.531 71.5621V71.9124C84.3208 71.9825 84.1106 72.1226 83.9004 72.1926L83.6902 72.1226L83.0596 71.7723V69.4601L85.7221 71.0015L86.2826 71.3519L87.1234 71.8423Z" fill="#F1F2F2" stroke="#231F20" stroke-width="0.151903" stroke-miterlimit="10" stroke-linecap="round" stroke-linejoin="round"/>
        <path opacity="0.2" d="M82.4989 74.2947V75.4858L80.8874 74.575H80.8173L80.0466 74.1546V75.1355L78.4351 74.2246V71.9125L81.1676 73.524L81.518 73.7342L82.4989 74.2947Z" fill="black" stroke="#231F20" stroke-width="0.151903" stroke-miterlimit="10"/>
        <path opacity="0.2" d="M87.1234 71.8423V72.9634L84.8813 71.7723L84.601 71.6321L84.531 71.5621V71.9124C84.3208 71.9825 84.1106 72.1226 83.9004 72.1926L83.6902 72.1226L83.0596 71.7723V69.4601L85.7221 71.0015L86.2826 71.3519L87.1234 71.8423Z" fill="black" stroke="#231F20" stroke-width="0.151903" stroke-miterlimit="10"/>
        <path d="M80.8176 74.5749C80.7475 74.645 80.7475 74.7151 80.6775 74.7151L80.0469 75.1355V74.1545L80.8176 74.5749Z" fill="#F1F2F2" stroke="#231F20" stroke-width="0.151903" stroke-miterlimit="10" stroke-linecap="round" stroke-linejoin="round"/>
        <path opacity="0.2" d="M102.117 77.1675V79.1994C102.117 80.8109 100.996 82.4925 98.824 83.7537C94.4799 86.276 87.4033 86.276 83.0592 83.7537C80.8872 82.4925 79.7661 80.881 79.7661 79.1994V77.1675C79.7661 77.5178 79.8362 77.8681 79.9062 78.2185C79.9763 78.5688 80.1164 78.9191 80.3266 79.2695C80.8872 80.1803 81.728 81.0211 82.9891 81.7918C87.3332 84.3142 94.4099 84.3142 98.7539 81.7918C100.015 81.0912 100.926 80.1803 101.416 79.2695C101.627 78.9191 101.767 78.5688 101.837 78.2185C102.047 77.8681 102.117 77.5178 102.117 77.1675Z" fill="black" stroke="#231F20" stroke-width="0.371769" stroke-miterlimit="10"/>
        <path opacity="0.14" d="M92.7283 83.5435V85.5754C89.2951 85.9257 85.7217 85.2951 83.0592 83.7537C80.8872 82.4925 79.7661 80.881 79.7661 79.1994V77.1675C79.7661 77.5178 79.8362 77.8681 79.9062 78.2185C79.9763 78.5688 80.1164 78.9191 80.3266 79.2695C80.8872 80.1803 81.728 81.0211 82.9891 81.7918C85.7217 83.2632 89.3651 83.8237 92.7283 83.5435Z" fill="black" stroke="#231F20" stroke-width="0.151903" stroke-miterlimit="10"/>
        <path d="M123.277 54.3961C123.277 54.6763 123.067 54.9566 122.717 55.2369C121.946 55.6573 120.615 55.6573 119.844 55.2369C119.424 55.0267 119.284 54.6763 119.284 54.3961C119.284 54.1158 119.494 53.7655 119.844 53.5553C120.615 53.1349 121.946 53.1349 122.717 53.5553C123.067 53.8355 123.277 54.1158 123.277 54.3961Z" fill="#FCFCFC" stroke="#231F20" stroke-width="0.201439" stroke-miterlimit="10" stroke-linecap="round" stroke-linejoin="round"/>
        <path opacity="0.2" d="M123.207 81.2313C123.207 81.7918 122.787 82.3524 122.086 82.8428C120.545 83.7537 118.093 83.7537 116.551 82.8428C115.781 82.4224 115.43 81.7918 115.43 81.2313C115.43 80.6708 115.781 80.0402 116.551 79.6198C118.093 78.7089 120.545 78.7089 122.086 79.6198C122.857 80.0402 123.207 80.6708 123.207 81.2313Z" fill="black" stroke="#231F20" stroke-width="0.201439" stroke-miterlimit="10"/>
        <path d="M124.889 81.5816C124.889 82.1422 124.539 82.6326 123.838 83.053C122.437 83.8938 120.124 83.8938 118.653 83.053C117.952 82.6326 117.602 82.0721 117.602 81.5816V81.4415L119.214 54.326C119.214 54.6063 119.424 54.9566 119.774 55.1668C120.545 55.5872 121.876 55.5872 122.647 55.1668C123.067 54.9566 123.207 54.6764 123.207 54.326C123.347 55.0267 125.239 81.5116 124.889 81.5816Z" fill="url(#paint5_linear_1_19911)" stroke="#231F20" stroke-width="0.190369" stroke-miterlimit="10" stroke-linecap="round" stroke-linejoin="round"/>
        <path opacity="0.2" d="M120.965 55.5872L119.424 83.4734C119.143 83.4033 118.933 83.2632 118.653 83.1231C117.952 82.7027 117.602 82.1422 117.602 81.6517V81.5116L119.214 54.3961C119.214 54.6764 119.424 55.0267 119.774 55.2369C120.124 55.4471 120.545 55.5172 120.965 55.5872Z" fill="black" stroke="#231F20" stroke-width="0.201439" stroke-miterlimit="10"/>
        <path d="M121.806 70.2309C121.736 70.2309 121.736 70.301 121.666 70.3711C121.596 70.3711 121.596 70.4411 121.526 70.4411C119.634 71.9125 118.303 74.9253 118.513 77.3076C118.653 78.4286 119.073 79.1993 119.704 79.5497V86.5562C119.704 87.0467 119.354 87.5372 118.723 87.9576C117.392 88.7283 115.22 88.7283 113.889 87.9576C113.258 87.6072 112.908 87.1168 112.908 86.5562V76.9572C112.908 68.2691 118.233 68.8997 121.806 70.2309Z" fill="url(#paint6_linear_1_19911)" stroke="#231F20" stroke-width="0.190369" stroke-miterlimit="10" stroke-linecap="round" stroke-linejoin="round"/>
        <path opacity="0.2" d="M115.99 87.8876C116.341 88.0978 116.831 88.2379 117.322 88.378C116.13 88.5882 114.799 88.4481 113.818 87.8876C113.188 87.5372 112.837 87.0468 112.837 86.4863V76.9573C112.907 70.231 116.13 69.0399 119.213 69.5303C116.971 69.9507 115.08 71.8425 115.009 76.9573V86.4863C115.009 87.0468 115.36 87.5372 115.99 87.8876Z" fill="black" stroke="#231F20" stroke-width="0.201439" stroke-miterlimit="10"/>
        <path d="M127.902 73.1037C127.762 71.8425 127.201 71.0017 126.43 70.7214C126.22 70.6514 125.94 70.5813 125.73 70.5813C125.66 70.5813 125.66 70.5813 125.59 70.5813C125.52 70.5813 125.52 70.5813 125.45 70.5813C125.379 70.5813 125.309 70.5813 125.309 70.5813C125.239 70.5813 125.239 70.5813 125.169 70.6514C125.099 70.6514 125.099 70.6514 125.029 70.7214C124.819 70.7915 124.609 70.8616 124.469 71.0017C124.399 71.0017 124.399 71.0718 124.328 71.0718C124.258 71.0718 124.258 71.1418 124.188 71.1418C124.118 71.1418 124.048 71.2119 124.048 71.2119L123.978 71.282C123.838 71.4221 123.628 71.5622 123.488 71.7024C123.348 71.8425 123.137 71.9826 122.997 72.1928C122.927 72.2629 122.857 72.403 122.787 72.4731C122.647 72.6833 122.507 72.8935 122.367 73.0336C122.227 73.2438 122.086 73.454 121.946 73.6642C121.876 73.8043 121.806 73.8744 121.736 74.0145C121.666 74.0846 121.666 74.2247 121.596 74.2948C121.456 74.575 121.386 74.7852 121.316 75.0655C121.316 75.1356 121.246 75.2056 121.246 75.3458L121.105 75.4859C121.105 75.556 121.035 75.6961 121.035 75.7662C121.035 75.9063 120.965 75.9764 120.965 76.1165C120.965 76.1866 120.895 76.3267 120.895 76.4668V76.5369C120.895 76.677 120.825 76.7471 120.825 76.8872C120.825 77.0273 120.825 77.0974 120.825 77.2375C120.825 77.3777 120.825 77.4477 120.825 77.5879V77.6579C120.825 77.728 120.825 77.728 120.825 77.7981C120.825 77.8681 120.825 77.9382 120.825 78.0083C120.825 78.0783 120.825 78.1484 120.825 78.2885C120.825 78.3586 120.825 78.4287 120.825 78.5688C120.895 79.0593 121.035 79.4796 121.246 79.83C121.316 79.9701 121.386 80.1102 121.526 80.1803C121.526 80.2504 121.596 80.2504 121.596 80.3204C121.666 80.3905 121.806 80.5306 121.946 80.6007C121.946 80.6007 122.016 80.6708 122.086 80.6708C122.227 80.7408 122.297 80.8109 122.437 80.8109C123.137 81.0211 123.978 80.8109 124.819 80.1803C126.781 78.6389 128.182 75.556 127.902 73.1037ZM124.679 78.7089C124.048 79.1293 123.488 79.2695 122.997 79.1293C122.927 79.1293 122.857 79.0593 122.717 79.0593C122.647 79.0593 122.577 78.9892 122.507 78.9191C122.367 78.779 122.227 78.6389 122.156 78.4987C122.016 78.2885 121.946 78.0083 121.876 77.6579C121.876 77.5879 121.876 77.5178 121.876 77.5178C121.876 77.3777 121.876 77.2375 121.876 77.0974C121.876 75.8362 122.507 74.3648 123.418 73.3839C123.628 73.1737 123.838 72.9635 124.048 72.7533C124.048 72.7533 124.048 72.7533 124.118 72.6833C124.399 72.4731 124.679 72.3329 124.959 72.2629C125.029 72.2629 125.169 72.1928 125.239 72.1928C125.45 72.1928 125.66 72.1928 125.8 72.2629C126.36 72.4731 126.711 73.0336 126.781 73.8744C126.991 75.556 126.01 77.728 124.679 78.7089Z" fill="#F1F2F2" stroke="#231F20" stroke-width="0.201439" stroke-miterlimit="10" stroke-linecap="round" stroke-linejoin="round"/>
        <path d="M124.678 78.709C124.048 79.1294 123.487 79.2695 122.997 79.1294C122.927 79.1294 122.857 79.0593 122.717 79.0593C122.646 79.0593 122.576 78.9892 122.506 78.9192C122.857 78.9192 123.277 78.7791 123.697 78.4287C125.029 77.4478 126.01 75.3458 125.87 73.6643C125.799 72.9636 125.589 72.4731 125.169 72.1929C125.379 72.1929 125.589 72.1929 125.729 72.2629C126.29 72.4731 126.64 73.0337 126.71 73.8744C126.991 75.556 126.01 77.7281 124.678 78.709Z" fill="#797979" stroke="#231F20" stroke-width="0.201439" stroke-miterlimit="10" stroke-linecap="round" stroke-linejoin="round"/>
        <path d="M123.768 78.4287C123.347 78.709 122.927 78.8491 122.576 78.9192C122.436 78.7791 122.296 78.6389 122.226 78.4988C122.086 78.2886 122.016 78.0083 121.946 77.658C121.946 77.5879 121.946 77.5179 121.946 77.5179C121.946 77.3777 121.946 77.2376 121.946 77.0975C121.946 75.8363 122.576 74.3649 123.487 73.384C123.697 73.1738 123.908 72.9636 124.118 72.7534C124.118 72.7534 124.118 72.7534 124.188 72.6833C124.468 72.4731 124.748 72.333 125.029 72.2629C125.099 72.2629 125.239 72.1929 125.309 72.1929C125.659 72.4731 125.94 72.9636 126.01 73.6643C126.08 75.3458 125.099 77.4478 123.768 78.4287Z" fill="#F1F2F2" stroke="#231F20" stroke-width="0.201439" stroke-miterlimit="10" stroke-linecap="round" stroke-linejoin="round"/>
        <path opacity="0.64" d="M123.768 78.4287C123.347 78.709 122.927 78.8491 122.576 78.9192C122.436 78.7791 122.296 78.6389 122.226 78.4988C122.086 78.2886 122.016 78.0083 121.946 77.658C121.946 77.5879 121.946 77.5179 121.946 77.5179C121.946 77.3777 121.946 77.2376 121.946 77.0975C121.946 75.8363 122.576 74.3649 123.487 73.384C123.697 73.1738 123.908 72.9636 124.118 72.7534C124.118 72.7534 124.118 72.7534 124.188 72.6833C124.468 72.4731 124.748 72.333 125.029 72.2629C125.099 72.2629 125.239 72.1929 125.309 72.1929C125.659 72.4731 125.94 72.9636 126.01 73.6643C126.08 75.3458 125.099 77.4478 123.768 78.4287Z" fill="url(#paint7_linear_1_19911)" stroke="#231F20" stroke-width="0.201439" stroke-miterlimit="10" stroke-linecap="round" stroke-linejoin="round"/>
        <path d="M126.5 70.7214C126.29 70.6513 126.01 70.5813 125.799 70.5813C125.729 70.5813 125.729 70.5813 125.659 70.5813C125.589 70.5813 125.589 70.5813 125.519 70.5813C125.449 70.5813 125.379 70.5813 125.379 70.5813C125.309 70.5813 125.309 70.5813 125.239 70.5813C125.169 70.5813 125.169 70.5813 125.099 70.6513C124.889 70.7214 124.678 70.7915 124.538 70.9316C124.468 70.9316 124.468 71.0017 124.398 71.0017C124.328 71.0017 124.328 71.0717 124.258 71.0717C124.188 71.0717 124.118 71.1418 124.118 71.1418L124.048 71.2119C123.908 71.352 123.697 71.4921 123.557 71.6323C123.417 71.7724 123.207 71.9125 123.067 72.1227C122.997 72.1928 122.927 72.3329 122.857 72.403C122.716 72.6132 122.576 72.8234 122.436 72.9635C122.296 73.1737 122.156 73.3839 122.016 73.5941C121.946 73.7342 121.876 73.8043 121.806 73.9444C121.736 74.0145 121.736 74.1546 121.666 74.2247C121.525 74.505 121.455 74.7152 121.385 74.9954C121.385 75.0655 121.315 75.1356 121.315 75.2757L121.105 75.4859C121.105 75.556 121.035 75.6961 121.035 75.7661C121.035 75.9063 120.965 75.9763 120.965 76.1165C120.965 76.1865 120.895 76.3267 120.895 76.4668V76.5369C120.895 76.677 120.825 76.7471 120.825 76.8872C120.825 77.0273 120.825 77.0974 120.825 77.2375C120.825 77.3777 120.825 77.4477 120.825 77.5879V77.6579C120.825 77.728 120.825 77.728 120.825 77.7981C120.825 77.8681 120.825 77.9382 120.825 78.0083C120.825 78.0783 120.825 78.1484 120.825 78.2885C120.825 78.3586 120.825 78.4286 120.825 78.5688C120.895 79.0592 121.035 79.4796 121.245 79.83C121.315 79.9701 121.385 80.1102 121.525 80.1803C121.525 80.2504 121.595 80.2504 121.595 80.3204C121.665 80.3905 121.806 80.5306 121.946 80.6007C121.946 80.6007 122.016 80.6708 122.086 80.6708L120.054 79.83C119.984 79.83 119.914 79.7599 119.774 79.6898C119.774 79.6898 119.704 79.6898 119.704 79.6198C119.073 79.2694 118.653 78.4987 118.513 77.3777C118.302 74.9954 119.634 71.9826 121.525 70.5112C121.595 70.4412 121.595 70.4412 121.666 70.4412C121.736 70.3711 121.736 70.3711 121.806 70.301C122.576 69.8106 123.347 69.6004 123.978 69.7405L124.468 69.9507L126.5 70.7214Z" fill="#F1F2F2" stroke="#231F20" stroke-width="0.201439" stroke-miterlimit="10" stroke-linecap="round" stroke-linejoin="round"/>
    </g>
    <defs>
        <linearGradient id="paint0_linear_1_19911" x1="123.051" y1="105.707" x2="129.971" y2="93.3402" gradientUnits="userSpaceOnUse">
            <stop stop-color="#D1D2D3"/>
            <stop offset="0.3636" stop-color="#D1D2D3"/>
            <stop offset="0.6738" stop-color="#F1F1F1"/>
            <stop offset="1" stop-color="#E5E6E6"/>
        </linearGradient>
        <linearGradient id="paint1_linear_1_19911" x1="138.854" y1="111.621" x2="143.296" y2="103.419" gradientUnits="userSpaceOnUse">
            <stop stop-color="#59595C"/>
            <stop offset="0.3636" stop-color="#221F1F"/>
            <stop offset="0.6738" stop-color="#808184"/>
            <stop offset="1" stop-color="#424143"/>
        </linearGradient>
        <linearGradient id="paint2_linear_1_19911" x1="153.779" y1="121.286" x2="159.777" y2="111.326" gradientUnits="userSpaceOnUse">
            <stop stop-color="#59595C"/>
            <stop offset="0.3636" stop-color="#221F1F"/>
            <stop offset="0.6738" stop-color="#808184"/>
            <stop offset="1" stop-color="#424143"/>
        </linearGradient>
        <linearGradient id="paint3_linear_1_19911" x1="171.722" y1="130.32" x2="176.164" y2="122.118" gradientUnits="userSpaceOnUse">
            <stop stop-color="#59595C"/>
            <stop offset="0.3636" stop-color="#221F1F"/>
            <stop offset="0.6738" stop-color="#808184"/>
            <stop offset="1" stop-color="#424143"/>
        </linearGradient>
        <linearGradient id="paint4_linear_1_19911" x1="186.236" y1="138.952" x2="191.881" y2="128.246" gradientUnits="userSpaceOnUse">
            <stop stop-color="#59595C"/>
            <stop offset="0.3636" stop-color="#221F1F"/>
            <stop offset="0.6738" stop-color="#808184"/>
            <stop offset="1" stop-color="#424143"/>
        </linearGradient>
        <linearGradient id="paint5_linear_1_19911" x1="117.6" y1="69.0621" x2="124.935" y2="69.0621" gradientUnits="userSpaceOnUse">
            <stop stop-color="#D1D2D3"/>
            <stop offset="0.3636" stop-color="#D1D2D3"/>
            <stop offset="0.6738" stop-color="#F1F1F1"/>
            <stop offset="1" stop-color="#E5E6E6"/>
        </linearGradient>
        <linearGradient id="paint6_linear_1_19911" x1="112.823" y1="78.9638" x2="121.776" y2="78.9638" gradientUnits="userSpaceOnUse">
            <stop stop-color="#D1D2D3"/>
            <stop offset="0.3636" stop-color="#D1D2D3"/>
            <stop offset="0.6738" stop-color="#F1F1F1"/>
            <stop offset="1" stop-color="#E5E6E6"/>
        </linearGradient>
        <linearGradient id="paint7_linear_1_19911" x1="121.869" y1="75.5508" x2="125.921" y2="75.5508" gradientUnits="userSpaceOnUse">
            <stop offset="0.3262" stop-color="#84BCE6"/>
            <stop offset="1" stop-color="#1E75BB"/>
        </linearGradient>
        <clipPath id="">
            <rect width="137.399" height="92.3467" fill="white" transform="translate(65.7529 53.1348)"/>
        </clipPath>
    </defs>
</svg>
