<svg width="230" height="230" viewBox="0 0 230 230" fill="none"
    xmlns="http://www.w3.org/2000/svg">
    <g clip-path="url(#)">
        <path d="M142.125 84.7347L142.615 107.366C142.755 113.181 139.042 118.997 131.545 123.621C116.481 132.8 91.6774 133.36 76.1929 124.882C68.4156 120.678 64.4919 114.933 64.3518 109.188L63.8613 86.5565C63.9314 90.4801 65.8232 94.3338 69.3265 97.767C71.008 99.3785 73.1801 100.92 75.6324 102.321C91.1169 110.799 115.92 110.239 130.984 101.06C133.437 99.5887 135.469 97.9772 137.08 96.2255C140.513 92.6522 142.195 88.6584 142.125 84.7347Z" fill="#F7F7F7" stroke="#231F20" stroke-width="0.344794" stroke-miterlimit="10" stroke-linecap="round" stroke-linejoin="round"/>
        <path opacity="0.14" d="M108.984 107.926V130.558C97.4228 131.679 85.2314 129.787 76.1929 124.882C68.4156 120.678 64.4919 114.933 64.3518 109.188L63.8613 86.5564C63.9314 90.4801 65.8232 94.3337 69.3265 97.7669C71.008 99.3784 73.1801 100.92 75.6324 102.321C84.811 107.296 97.2827 109.118 108.984 107.926Z" fill="black" stroke="#231F20" stroke-width="0.0802954" stroke-miterlimit="10"/>
        <path d="M142.125 84.7346C142.195 88.6583 140.583 92.582 137.15 96.1554C135.539 97.8369 133.507 99.5185 131.055 100.99C115.99 110.169 91.1871 110.729 75.7026 102.251C73.1802 100.85 71.0783 99.3784 69.3967 97.6968C65.8233 94.2636 64.0016 90.41 63.9316 86.4863C63.7914 80.6708 67.5049 74.8554 75.0019 70.231C89.996 61.1225 114.799 60.5619 130.284 69.0399C137.991 73.3139 141.985 78.9892 142.125 84.7346Z" fill="#F7F7F7" stroke="#231F20" stroke-width="0.344794" stroke-miterlimit="10" stroke-linecap="round" stroke-linejoin="round"/>
        <path d="M136.029 78.1486L136.169 84.9449C136.239 88.238 134.837 91.6012 131.965 94.614C130.563 96.0854 128.812 97.4166 126.78 98.6778C114.028 106.455 92.9381 106.946 79.8358 99.7288C77.7338 98.5377 75.9121 97.2765 74.4407 95.8752C71.4279 93.0025 69.8865 89.7094 69.8164 86.4163L69.6763 79.6199C69.6763 80.741 69.8865 81.862 70.3069 82.9831C70.6572 84.1742 71.2177 85.2953 72.0585 86.3463C72.6891 87.3272 73.4598 88.238 74.3707 89.0788C75.8421 90.4801 77.5937 91.7413 79.7657 92.9324C92.868 100.149 113.888 99.6587 126.71 91.8814C128.812 90.6203 130.493 89.2189 131.895 87.8176C132.806 86.9068 133.506 85.9259 134.067 84.9449C134.837 83.8239 135.328 82.7028 135.608 81.5117C135.888 80.3907 136.029 79.2696 136.029 78.1486Z" fill="#F7F7F7" stroke="#231F20" stroke-width="0.344794" stroke-miterlimit="10" stroke-linecap="round" stroke-linejoin="round"/>
        <path opacity="0.2" d="M136.029 78.1486L136.169 84.9449C136.239 88.238 134.837 91.6012 131.965 94.614C130.563 96.0854 128.812 97.4166 126.78 98.6778C114.028 106.455 92.9381 106.946 79.8358 99.7288C77.7338 98.5377 75.9121 97.2765 74.4407 95.8752C71.4279 93.0025 69.8865 89.7094 69.8164 86.4163L69.6763 79.6199C69.6763 80.741 69.8865 81.862 70.3069 82.9831C70.6572 84.1742 71.2177 85.2953 72.0585 86.3463C72.6891 87.3272 73.4598 88.238 74.3707 89.0788C75.8421 90.4801 77.5937 91.7413 79.7657 92.9324C92.868 100.149 113.888 99.6587 126.71 91.8814C128.812 90.6203 130.493 89.2189 131.895 87.8176C132.806 86.9068 133.506 85.9259 134.067 84.9449C134.837 83.8239 135.328 82.7028 135.608 81.5117C135.888 80.3907 136.029 79.2696 136.029 78.1486Z" fill="black" stroke="#231F20" stroke-width="0.492913" stroke-miterlimit="10"/>
        <path d="M136.029 78.1485C136.029 79.2696 135.888 80.3906 135.608 81.5117C135.258 82.7028 134.767 83.8238 134.067 84.9449C133.506 85.9258 132.736 86.8367 131.895 87.8176C130.493 89.289 128.742 90.6202 126.71 91.8814C113.958 99.6587 92.8681 100.149 79.7658 92.9324C77.6638 91.8113 75.8421 90.4801 74.3708 89.0788C73.4599 88.1679 72.6892 87.3271 72.0586 86.3462C71.2879 85.2251 70.7273 84.1041 70.3069 82.983C69.8865 81.862 69.7464 80.7409 69.6763 79.6199C69.5362 74.7153 72.6892 69.7406 79.0652 65.8169C91.8171 58.0396 112.907 57.5492 126.009 64.7659C132.525 68.4094 135.888 73.1738 136.029 78.1485Z" fill="#F1F2F2" stroke="#231F20" stroke-width="0.523461" stroke-miterlimit="10" stroke-linecap="round" stroke-linejoin="round"/>
        <path d="M142.615 115.564C142.405 115.494 142.195 115.353 141.985 115.213L142.615 115.564Z" fill="white" stroke="#231F20" stroke-width="0.176776" stroke-miterlimit="10"/>
        <path d="M152.354 104.003C152.494 107.926 149.832 112.761 146.539 114.793C145.067 115.704 143.666 115.914 142.615 115.494L141.984 115.143C141.003 114.443 140.373 113.181 140.303 111.36C140.163 107.436 142.825 102.601 146.118 100.57C147.519 99.6587 148.851 99.4485 149.972 99.7988C151.373 100.359 152.354 101.761 152.354 104.003Z" fill="#58595B" stroke="#231F20" stroke-width="0.176776" stroke-miterlimit="10" stroke-linecap="round" stroke-linejoin="round"/>
        <path d="M149.972 99.8689C148.921 99.5185 147.59 99.7287 146.188 100.64C142.825 102.671 140.233 107.506 140.373 111.43C140.443 113.251 141.074 114.513 142.055 115.213L134.277 111.36C132.946 110.869 132.035 109.468 132.035 107.296C132.035 106.595 132.105 105.824 132.245 105.054C133.997 103.933 135.538 102.742 136.8 101.55C138.761 99.6587 140.233 97.6968 141.074 95.5948C141.424 95.6649 141.704 95.735 141.984 95.8751L142.195 96.0152L149.972 99.8689Z" fill="url(#paint0_linear_1_19911)" stroke="#231F20" stroke-width="0.176776" stroke-miterlimit="10" stroke-linecap="round" stroke-linejoin="round"/>
        <path d="M159.851 122.08C159.711 122.01 159.501 121.94 159.361 121.799L159.851 122.08Z" fill="white" stroke="#231F20" stroke-width="0.134877" stroke-miterlimit="10"/>
        <path d="M167.348 113.251C167.418 116.264 165.457 119.908 162.934 121.519C161.813 122.22 160.762 122.36 159.921 122.08L159.431 121.799C158.66 121.309 158.24 120.328 158.17 118.927C158.1 115.914 160.062 112.27 162.584 110.659C163.705 109.958 164.686 109.818 165.527 110.098C166.578 110.449 167.278 111.57 167.348 113.251Z" fill="#58595B" stroke="#231F20" stroke-width="0.134877" stroke-miterlimit="10" stroke-linecap="round" stroke-linejoin="round"/>
        <path d="M166.297 113.882C166.368 116.194 164.826 119.137 162.794 120.328C161.883 120.889 161.113 121.029 160.482 120.748L160.132 120.538C159.571 120.118 159.151 119.347 159.151 118.296C159.081 115.984 160.622 113.041 162.654 111.85C163.495 111.36 164.266 111.219 164.966 111.36C165.737 111.64 166.297 112.551 166.297 113.882Z" fill="#231F20" stroke="#231F20" stroke-width="0.134877" stroke-miterlimit="10"/>
        <path d="M165.457 110.098C164.616 109.818 163.635 110.028 162.514 110.659C159.992 112.2 157.96 115.914 158.1 118.927C158.17 120.328 158.59 121.309 159.361 121.799L143.877 113.952C142.826 113.602 142.195 112.481 142.125 110.869C142.055 107.856 144.017 104.213 146.539 102.601C147.73 101.831 148.851 101.761 149.692 102.111L149.902 102.181L165.457 110.098Z" fill="url(#paint1_linear_1_19911)" stroke="#231F20" stroke-width="0.134877" stroke-miterlimit="10" stroke-linecap="round" stroke-linejoin="round"/>
        <path d="M124.608 126.283C124.398 126.213 124.188 126.073 123.978 125.933L124.608 126.283Z" fill="white" stroke="#231F20" stroke-width="0.176776" stroke-miterlimit="10"/>
        <path d="M134.418 114.793C134.558 118.716 131.895 123.551 128.602 125.583C127.131 126.494 125.73 126.704 124.679 126.283L123.978 126.003C122.997 125.303 122.366 124.041 122.296 122.22C122.156 118.296 124.819 113.461 128.112 111.43C129.513 110.519 130.844 110.309 131.965 110.659C133.437 111.079 134.348 112.551 134.418 114.793Z" fill="#58595B" stroke="#231F20" stroke-width="0.176776" stroke-miterlimit="10" stroke-linecap="round" stroke-linejoin="round"/>
        <path d="M131.965 110.659C130.914 110.309 129.583 110.519 128.182 111.43C124.819 113.461 122.226 118.296 122.366 122.22C122.436 124.041 123.067 125.303 124.048 126.003L116.201 122.08C114.869 121.589 113.958 120.188 113.958 118.016C113.888 115.914 114.589 113.532 115.85 111.43C119.704 110.589 123.347 109.398 126.64 107.926L131.965 110.659Z" fill="url(#paint2_linear_1_19911)" stroke="#231F20" stroke-width="0.176776" stroke-miterlimit="10" stroke-linecap="round" stroke-linejoin="round"/>
        <path d="M141.915 132.8C141.775 132.73 141.565 132.66 141.425 132.519L141.915 132.8Z" fill="white" stroke="#231F20" stroke-width="0.134877" stroke-miterlimit="10"/>
        <path d="M149.343 123.971C149.413 126.984 147.451 130.628 144.928 132.239C143.807 132.94 142.756 133.08 141.916 132.8L141.425 132.519C140.654 132.029 140.234 131.048 140.164 129.647C140.094 126.634 142.056 122.99 144.578 121.379C145.699 120.678 146.68 120.538 147.521 120.818C148.572 121.169 149.343 122.29 149.343 123.971Z" fill="#58595B" stroke="#231F20" stroke-width="0.134877" stroke-miterlimit="10" stroke-linecap="round" stroke-linejoin="round"/>
        <path d="M148.361 124.602C148.431 126.914 146.89 129.857 144.858 131.048C143.947 131.609 143.177 131.749 142.546 131.468L142.196 131.258C141.635 130.838 141.215 130.067 141.215 129.016C141.145 126.704 142.686 123.761 144.718 122.57C145.559 122.08 146.33 121.939 147.03 122.08C147.731 122.43 148.291 123.271 148.361 124.602Z" fill="#231F20" stroke="#231F20" stroke-width="0.134877" stroke-miterlimit="10"/>
        <path d="M147.521 120.818C146.68 120.538 145.699 120.748 144.578 121.379C142.056 122.92 140.024 126.634 140.164 129.647C140.234 131.048 140.654 132.029 141.425 132.519L125.94 124.672C124.889 124.322 124.259 123.201 124.189 121.589C124.119 118.576 126.081 114.933 128.603 113.321C129.794 112.551 130.915 112.481 131.756 112.831L131.966 112.901L147.521 120.818Z" fill="url(#paint3_linear_1_19911)" stroke="#231F20" stroke-width="0.134877" stroke-miterlimit="10" stroke-linecap="round" stroke-linejoin="round"/>
        <path opacity="0.2" d="M99.7353 87.2571C107.552 87.2571 113.889 83.5869 113.889 79.0594C113.889 74.5319 107.552 70.8617 99.7353 70.8617C91.9187 70.8617 85.582 74.5319 85.582 79.0594C85.582 83.5869 91.9187 87.2571 99.7353 87.2571Z" fill="black" stroke="#231F20" stroke-width="0.201439" stroke-miterlimit="10"/>
        <path d="M118.724 75.8366C118.724 76.327 118.653 76.7474 118.513 77.1678C118.373 77.6583 118.163 78.0787 117.953 78.4991C117.252 79.6902 116.061 80.8112 114.379 81.7922C108.634 85.1553 99.2452 85.1553 93.4998 81.7922C91.8183 80.8112 90.6271 79.6902 89.9265 78.4991C89.6462 78.0787 89.5061 77.5882 89.366 77.1678C89.2258 76.7474 89.1558 76.257 89.1558 75.8366C89.1558 74.9958 89.366 74.155 89.7864 73.3142C89.9265 73.0339 90.0666 72.8237 90.2768 72.5435C90.3469 72.4734 90.4169 72.4033 90.4169 72.3333L90.487 72.4033L92.7291 73.6645L95.1814 72.2632V70.6517L93.64 69.7408C93.9202 69.6007 94.2005 69.4606 94.4808 69.3204C94.761 69.1803 95.0413 69.0402 95.3215 68.9001C95.4617 68.83 95.6719 68.7599 95.812 68.6899L98.7548 70.2313L101.207 68.83V67.4287C105.831 66.9382 110.806 67.7089 114.379 69.8109C117.322 71.4925 118.724 73.6645 118.724 75.8366Z" fill="#F1F2F2" stroke="#231F20" stroke-width="0.201439" stroke-miterlimit="10" stroke-linecap="round" stroke-linejoin="round"/>
        <path d="M118.724 75.8365V78.5691C118.724 80.7412 117.252 82.9132 114.379 84.5948C108.634 87.9579 99.2452 87.9579 93.4998 84.5948C90.6271 82.9132 89.1558 80.7412 89.1558 78.5691V75.8365C89.1558 76.327 89.2258 76.7474 89.366 77.1678C89.5061 77.6583 89.7163 78.0787 89.9265 78.499C90.6271 79.6902 91.8183 80.8112 93.4998 81.7921C99.2452 85.1553 108.634 85.1553 114.379 81.7921C116.061 80.8112 117.252 79.6902 117.953 78.499C118.233 78.0787 118.373 77.5882 118.513 77.1678C118.724 76.7474 118.724 76.327 118.724 75.8365Z" fill="#F1F2F2" stroke="#231F20" stroke-width="0.201439" stroke-miterlimit="10" stroke-linecap="round" stroke-linejoin="round"/>
        <path d="M95.1816 70.6516V72.3332L92.7993 73.6644V72.0529L95.1816 70.6516Z" fill="#F1F2F2" stroke="#231F20" stroke-width="0.201439" stroke-miterlimit="10" stroke-linecap="round" stroke-linejoin="round"/>
        <path d="M92.7991 72.053V73.6645L90.557 72.4033H90.4869L89.436 71.8428V73.174L87.334 71.9129V68.9L90.9774 71.002L91.4679 71.2823L92.7991 72.053Z" fill="#F1F2F2" stroke="#231F20" stroke-width="0.201439" stroke-miterlimit="10" stroke-linecap="round" stroke-linejoin="round"/>
        <path d="M101.277 67.4286L101.137 67.4987L98.8248 68.8299L97.7037 68.1292L96.933 67.7089L93.4297 65.6769L95.8119 64.2056L99.4553 66.3075L101.277 67.4286Z" fill="#F1F2F2" stroke="#231F20" stroke-width="0.201439" stroke-miterlimit="10" stroke-linecap="round" stroke-linejoin="round"/>
        <path d="M101.277 67.4987V68.9L98.8247 70.3013V68.8299L101.067 67.4987C101.207 67.4987 101.207 67.4987 101.277 67.4987Z" fill="#F1F2F2" stroke="#231F20" stroke-width="0.201439" stroke-miterlimit="10" stroke-linecap="round" stroke-linejoin="round"/>
        <path d="M101.277 67.4286V67.4987C101.207 67.4987 101.137 67.4987 101.137 67.4987L101.277 67.4286Z" fill="#F1F2F2" stroke="#231F20" stroke-width="0.201439" stroke-miterlimit="10" stroke-linecap="round" stroke-linejoin="round"/>
        <path d="M95.8821 68.6898C95.7419 68.7599 95.5317 68.8299 95.3916 68.9V68.4095L95.5317 68.4796L95.8821 68.6898Z" fill="#F1F2F2" stroke="#231F20" stroke-width="0.201439" stroke-miterlimit="10" stroke-linecap="round" stroke-linejoin="round"/>
        <path d="M95.1814 70.6516L92.7991 72.0529L91.4679 71.2822L90.9774 71.0019L87.334 68.9L89.7863 67.4987L93.4297 69.6006L93.6399 69.7408L95.1814 70.6516Z" fill="#F1F2F2" stroke="#231F20" stroke-width="0.201439" stroke-miterlimit="10" stroke-linecap="round" stroke-linejoin="round"/>
        <path d="M98.8248 68.8298V70.3012L95.882 68.6897L95.4616 68.4795L95.3215 68.4094V68.8999C95.0412 69.04 94.7609 69.1802 94.4807 69.3203L94.2705 69.1802L93.4297 68.6897V65.6769L96.933 67.7088L97.7037 68.1292L98.8248 68.8298Z" fill="#F1F2F2" stroke="#231F20" stroke-width="0.201439" stroke-miterlimit="10" stroke-linecap="round" stroke-linejoin="round"/>
        <path opacity="0.2" d="M92.7991 72.053V73.6645L90.557 72.4033H90.4869L89.436 71.8428V73.174L87.334 71.9129V68.9L90.9774 71.002L91.4679 71.2823L92.7991 72.053Z" fill="black" stroke="#231F20" stroke-width="0.201439" stroke-miterlimit="10"/>
        <path opacity="0.2" d="M98.8248 68.8298V70.3012L95.882 68.6897L95.4616 68.4795L95.3215 68.4094V68.8999C95.0412 69.04 94.7609 69.1802 94.4807 69.3203L94.2705 69.1802L93.4297 68.6897V65.6769L96.933 67.7088L97.7037 68.1292L98.8248 68.8298Z" fill="black" stroke="#231F20" stroke-width="0.201439" stroke-miterlimit="10"/>
        <path d="M90.4873 72.4033C90.4172 72.4734 90.3471 72.5434 90.3471 72.6135L89.5063 73.174V71.8428L90.4873 72.4033Z" fill="#F1F2F2" stroke="#231F20" stroke-width="0.201439" stroke-miterlimit="10" stroke-linecap="round" stroke-linejoin="round"/>
        <path opacity="0.2" d="M118.724 75.8364V78.569C118.724 80.741 117.252 82.9131 114.379 84.5946C108.634 87.9578 99.2452 87.9578 93.4998 84.5946C90.6271 82.9131 89.1558 80.741 89.1558 78.569V75.8364C89.1558 76.3269 89.2258 76.7473 89.366 77.1677C89.5061 77.6581 89.7163 78.0785 89.9265 78.4989C90.6271 79.69 91.8183 80.8111 93.4998 81.792C99.2452 85.1552 108.634 85.1552 114.379 81.792C116.061 80.8111 117.252 79.69 117.953 78.4989C118.233 78.0785 118.373 77.5881 118.513 77.1677C118.724 76.7473 118.724 76.3269 118.724 75.8364Z" fill="black" stroke="#231F20" stroke-width="0.492913" stroke-miterlimit="10"/>
        <path opacity="0.14" d="M106.322 84.3144V87.047C101.768 87.4673 97.0031 86.6966 93.4998 84.6647C90.6271 82.9831 89.1558 80.8111 89.1558 78.6391V75.9065C89.1558 76.397 89.2258 76.8173 89.366 77.2377C89.5061 77.7282 89.7163 78.1486 89.9265 78.569C90.6271 79.7601 91.8183 80.8812 93.4998 81.8621C97.0031 83.894 101.838 84.7348 106.322 84.3144Z" fill="black" stroke="#231F20" stroke-width="0.201439" stroke-miterlimit="10"/>
    </g>
    <defs>
        <linearGradient id="paint0_linear_1_19911" x1="136.681" y1="110.818" x2="144.097" y2="96.7875" gradientUnits="userSpaceOnUse">
            <stop stop-color="#59595C"/>
            <stop offset="0.3636" stop-color="#221F1F"/>
            <stop offset="0.6738" stop-color="#808184"/>
            <stop offset="1" stop-color="#424143"/>
        </linearGradient>
        <linearGradient id="paint1_linear_1_19911" x1="150.538" y1="115.974" x2="155.935" y2="105.142" gradientUnits="userSpaceOnUse">
            <stop stop-color="#59595C"/>
            <stop offset="0.3636" stop-color="#221F1F"/>
            <stop offset="0.6738" stop-color="#808184"/>
            <stop offset="1" stop-color="#424143"/>
        </linearGradient>
        <linearGradient id="paint2_linear_1_19911" x1="118.469" y1="121.439" x2="125.885" y2="107.407" gradientUnits="userSpaceOnUse">
            <stop stop-color="#59595C"/>
            <stop offset="0.3636" stop-color="#221F1F"/>
            <stop offset="0.6738" stop-color="#808184"/>
            <stop offset="1" stop-color="#424143"/>
        </linearGradient>
        <linearGradient id="paint3_linear_1_19911" x1="132.569" y1="126.722" x2="137.966" y2="115.889" gradientUnits="userSpaceOnUse">
            <stop stop-color="#59595C"/>
            <stop offset="0.3636" stop-color="#221F1F"/>
            <stop offset="0.6738" stop-color="#808184"/>
            <stop offset="1" stop-color="#424143"/>
        </linearGradient>
        <clipPath id="">
            <rect width="103.767" height="73.569" fill="white" transform="translate(63.6514 59.4407)"/>
        </clipPath>
    </defs>
</svg>
