<svg width="230" height="230" viewBox="0 0 230 230" fill="none"
    xmlns="http://www.w3.org/2000/svg">
    <g clip-path="url(#)">
        <path d="M105.691 91.2505V125.302L74.0908 107.015L65.8932 93.7028L61.6191 91.2505V69.2499L72.3392 71.9824L105.691 91.2505Z" fill="#F1F2F2" stroke="#231F20" stroke-width="0.201439" stroke-miterlimit="10" stroke-linecap="round" stroke-linejoin="round"/>
        <path d="M119.143 102.811V129.156L105.69 125.303V91.2506L119.143 102.811Z" fill="#F1F2F2" stroke="#231F20" stroke-width="0.201439" stroke-miterlimit="10" stroke-linecap="round" stroke-linejoin="round"/>
        <path opacity="0.14" d="M105.691 91.2505V125.302L74.0908 107.015L65.8932 93.7028L61.6191 91.2505V69.2499L72.3392 71.9824L105.691 91.2505Z" fill="black" stroke="#231F20" stroke-width="0.201439" stroke-miterlimit="10"/>
        <path opacity="0.14" d="M119.143 102.811V129.156L105.69 125.303V91.2506L119.143 102.811Z" fill="black" stroke="#231F20" stroke-width="0.201439" stroke-miterlimit="10"/>
        <path d="M158.03 81.9318V108.276L153.896 110.519C154.176 109.608 154.316 108.627 154.316 107.436C154.386 101.13 150.042 93.4926 144.577 90.2696L134.698 95.6647L132.806 96.6456L131.405 97.4163L131.195 120.188C131.685 120.468 132.105 120.678 132.596 120.888C133.016 121.028 133.367 121.169 133.787 121.309L119.073 129.226V102.811L130.914 96.4354L144.507 89.0785L158.03 81.9318Z" fill="#F7F7F7" stroke="#231F20" stroke-width="0.201439" stroke-miterlimit="10" stroke-linecap="round" stroke-linejoin="round"/>
        <path d="M158.03 81.9318L144.577 89.1486L130.984 96.4354L119.143 102.811L105.69 91.2506L114.098 86.6963L144.577 70.3009L158.03 81.9318Z" fill="#F1F2F2" stroke="#231F20" stroke-width="0.201439" stroke-miterlimit="10" stroke-linecap="round" stroke-linejoin="round"/>
        <path opacity="0.2" d="M131.545 97.3462L127.271 105.544L127.341 124.742L136.239 119.977L131.545 97.3462Z" fill="black" stroke="#231F20" stroke-width="0.201439" stroke-miterlimit="10"/>
        <path d="M144.577 70.3009L114.099 86.6963L105.691 91.1805L72.3394 71.9825C73.3903 71.7022 89.3653 63.0141 100.506 56.9184C106.602 53.5552 111.296 51.0328 111.296 51.0328L144.577 70.3009Z" fill="#F1F2F2" stroke="#231F20" stroke-width="0.201439" stroke-miterlimit="10" stroke-linecap="round" stroke-linejoin="round"/>
        <path d="M111.296 51.0327C111.296 51.0327 106.671 53.5551 100.576 56.9183C89.4352 63.014 73.4603 71.7021 72.4093 71.9824L61.6191 69.2498L100.576 48.3002L111.296 51.0327Z" fill="#F1F2F2" stroke="#231F20" stroke-width="0.201439" stroke-miterlimit="10" stroke-linecap="round" stroke-linejoin="round"/>
        <path d="M141.214 114.512C141.214 115.633 141.074 116.614 140.794 117.525C140.373 118.856 139.743 119.837 138.832 120.538C137.571 121.519 135.819 121.799 133.857 121.238C133.507 121.168 133.086 121.028 132.666 120.818C132.246 120.608 131.755 120.398 131.265 120.117L131.475 97.3461C131.965 97.6263 132.386 97.9066 132.876 98.2569C133.787 98.9576 134.698 99.7283 135.469 100.639C137.711 103.162 139.532 106.385 140.443 109.608C141.004 111.289 141.214 112.971 141.214 114.512Z" fill="#F1F2F2" stroke="#231F20" stroke-width="0.201439" stroke-miterlimit="10" stroke-linecap="round" stroke-linejoin="round"/>
        <path opacity="0.2" d="M141.214 114.512C141.214 115.633 141.074 116.614 140.794 117.525C140.373 118.856 139.743 119.837 138.832 120.538C137.571 121.519 135.819 121.799 133.857 121.238C133.507 121.168 133.086 121.028 132.666 120.818C132.246 120.608 131.755 120.398 131.265 120.117L131.475 97.3461C131.965 97.6263 132.386 97.9066 132.876 98.2569C133.787 98.9576 134.698 99.7283 135.469 100.639C137.711 103.162 139.532 106.385 140.443 109.608C141.004 111.289 141.214 112.971 141.214 114.512Z" fill="black" stroke="#231F20" stroke-width="0.201439" stroke-miterlimit="10"/>
        <path d="M151.724 113.531C151.513 113.672 151.303 113.812 151.023 113.882L151.724 113.531Z" fill="#F1F2F2" stroke="#231F20" stroke-width="0.201439" stroke-miterlimit="10" stroke-linecap="round" stroke-linejoin="round"/>
        <path d="M154.386 107.366C154.386 108.487 154.246 109.538 153.966 110.448C153.546 111.85 152.775 112.901 151.724 113.601L151.023 113.952L144.437 117.525L138.832 120.538C139.743 119.837 140.373 118.856 140.794 117.525C141.074 116.684 141.214 115.633 141.214 114.512C141.214 112.971 140.934 111.289 140.513 109.608C139.602 106.385 137.781 103.162 135.539 100.639C134.698 99.7284 133.857 98.8876 132.946 98.257C132.526 97.9067 132.035 97.6264 131.545 97.3462L132.946 96.5754L134.838 95.5945L144.717 90.1995C150.112 93.4225 154.456 101.06 154.386 107.366Z" fill="#F1F2F2" stroke="#231F20" stroke-width="0.201439" stroke-miterlimit="10" stroke-linecap="round" stroke-linejoin="round"/>
        <path d="M189.279 139.176C189.139 139.105 188.999 139.035 188.859 138.965L189.279 139.176Z" fill="#F1F2F2" stroke="#231F20" stroke-width="0.201439" stroke-miterlimit="10" stroke-linecap="round" stroke-linejoin="round"/>
        <path d="M196.215 131.398C196.215 134.131 194.323 137.424 191.941 138.755C190.89 139.386 189.979 139.456 189.209 139.175L188.788 138.965C188.158 138.475 187.737 137.564 187.737 136.303C187.737 133.57 189.629 130.277 192.011 128.946C192.992 128.385 193.973 128.245 194.674 128.525C195.655 128.876 196.215 129.857 196.215 131.398Z" fill="#F1F2F2" stroke="#231F20" stroke-width="0.201439" stroke-miterlimit="10" stroke-linecap="round" stroke-linejoin="round"/>
        <path d="M194.674 128.525C193.973 128.245 192.993 128.385 192.012 128.946C189.699 130.277 187.738 133.57 187.738 136.303C187.738 137.564 188.158 138.475 188.789 138.965L144.367 114.442C143.456 114.092 142.896 113.041 142.896 111.57C142.896 108.837 144.787 105.544 147.17 104.213C148.291 103.582 149.271 103.512 150.042 103.862L150.182 103.932L194.674 128.525Z" fill="url(#paint0_linear_1_19911)" stroke="#231F20" stroke-width="0.201439" stroke-miterlimit="10" stroke-linecap="round" stroke-linejoin="round"/>
        <path d="M201.611 150.806C201.331 150.736 201.12 150.596 200.91 150.386L201.611 150.806Z" fill="#F1F2F2" stroke="#231F20" stroke-width="0.201439" stroke-miterlimit="10" stroke-linecap="round" stroke-linejoin="round"/>
        <path d="M213.312 138.195C213.242 142.679 210.019 148.004 206.095 150.176C204.343 151.157 202.802 151.297 201.611 150.807L200.91 150.386C199.859 149.545 199.158 148.074 199.228 146.042C199.299 141.558 202.522 136.233 206.445 134.061C208.127 133.15 209.668 132.94 210.859 133.36C212.401 133.991 213.382 135.672 213.312 138.195Z" fill="#58595B" stroke="#231F20" stroke-width="0.201439" stroke-miterlimit="10" stroke-linecap="round" stroke-linejoin="round"/>
        <path d="M211.77 139.035C211.7 142.539 209.178 146.743 206.095 148.424C204.764 149.195 203.502 149.335 202.591 148.915L202.031 148.634C201.19 148.004 200.7 146.813 200.7 145.201C200.77 141.698 203.292 137.494 206.305 135.812C207.636 135.112 208.827 134.972 209.738 135.252C211.069 135.742 211.84 137.074 211.77 139.035Z" fill="#231F20" stroke="#231F20" stroke-width="0.201439" stroke-miterlimit="10"/>
        <path d="M210.789 133.36C209.598 132.94 208.057 133.08 206.375 134.061C202.452 136.233 199.229 141.558 199.159 146.042C199.088 148.074 199.789 149.615 200.84 150.386L178.349 137.564C176.878 136.933 175.967 135.252 175.967 132.8C176.037 128.315 179.26 122.99 183.184 120.818C185.005 119.767 186.687 119.697 187.948 120.328L188.228 120.468L210.789 133.36Z" fill="url(#paint1_linear_1_19911)" stroke="#231F20" stroke-width="0.201439" stroke-miterlimit="10" stroke-linecap="round" stroke-linejoin="round"/>
        <path opacity="0.2" d="M104.57 83.1229C113.934 83.1229 121.526 78.7312 121.526 73.3137C121.526 67.8962 113.934 63.5045 104.57 63.5045C95.2052 63.5045 87.6138 67.8962 87.6138 73.3137C87.6138 78.7312 95.2052 83.1229 104.57 83.1229Z" fill="black" stroke="#231F20" stroke-width="0.201439" stroke-miterlimit="10"/>
        <path d="M127.271 69.4601C127.271 70.0206 127.201 70.5811 127.061 71.0716C126.921 71.6321 126.64 72.1926 126.36 72.6831C125.519 74.1545 124.118 75.4857 122.086 76.6769C115.15 80.6706 104.009 80.6706 97.0726 76.6769C95.0407 75.5558 93.6393 74.1545 92.7985 72.6831C92.5183 72.1226 92.238 71.6321 92.0979 71.0716C91.9578 70.5111 91.8877 70.0206 91.8877 69.4601C91.8877 68.4792 92.168 67.4282 92.6584 66.4473C92.7986 66.167 93.0087 65.8167 93.2189 65.5364C93.289 65.4663 93.3591 65.3262 93.4291 65.2561L93.5693 65.3262L96.2318 66.7976L99.1745 65.1861V63.2242L97.2828 62.1732C97.6331 61.963 97.9134 61.8229 98.2637 61.6828C98.614 61.5426 98.9643 61.3325 99.3147 61.1923C99.5249 61.1223 99.7351 61.0522 99.9453 60.9821L103.449 62.8038L106.391 61.1923V59.4407C111.927 58.8801 117.812 59.791 122.086 62.2433C125.519 64.2752 127.271 66.8676 127.271 69.4601Z" fill="#F1F2F2" stroke="#231F20" stroke-width="0.201439" stroke-miterlimit="10" stroke-linecap="round" stroke-linejoin="round"/>
        <path d="M127.271 69.4601V72.7532C127.271 75.3456 125.519 78.0081 122.086 79.9699C115.15 83.9637 104.009 83.9637 97.0726 79.9699C93.6393 78.0081 91.8877 75.3456 91.8877 72.7532V69.5301C91.8877 70.0907 91.9578 70.6512 92.0979 71.1417C92.238 71.7022 92.4482 72.2627 92.7985 72.7532C93.6393 74.2246 95.0407 75.5558 97.0726 76.7469C104.009 80.7407 115.15 80.7407 122.086 76.7469C124.118 75.6259 125.519 74.2246 126.36 72.7532C126.64 72.1926 126.921 71.7022 127.061 71.1417C127.201 70.5811 127.271 70.0206 127.271 69.4601Z" fill="#F1F2F2" stroke="#231F20" stroke-width="0.201439" stroke-miterlimit="10" stroke-linecap="round" stroke-linejoin="round"/>
        <path d="M99.1041 63.2242V65.2561L96.2314 66.8677V64.9058L99.1041 63.2242Z" fill="#F1F2F2" stroke="#231F20" stroke-width="0.201439" stroke-miterlimit="10" stroke-linecap="round" stroke-linejoin="round"/>
        <path d="M96.2314 64.9059V66.8677L93.5689 65.3963L93.4288 65.3263L92.2377 64.6957V66.2371L89.7153 64.7657V61.1223L94.0594 63.6447L94.6199 64.0651L96.2314 64.9059Z" fill="#F1F2F2" stroke="#231F20" stroke-width="0.201439" stroke-miterlimit="10" stroke-linecap="round" stroke-linejoin="round"/>
        <path d="M106.391 59.3706L106.18 59.4407L103.448 61.0522L102.046 60.2114L101.206 59.7209L96.9316 57.2686L99.8744 55.587L104.148 58.1094L106.391 59.3706Z" fill="#F1F2F2" stroke="#231F20" stroke-width="0.201439" stroke-miterlimit="10" stroke-linecap="round" stroke-linejoin="round"/>
        <path d="M106.391 59.4406V61.1221L103.448 62.7336V60.982L106.181 59.4406C106.251 59.4406 106.321 59.4406 106.391 59.4406Z" fill="#F1F2F2" stroke="#231F20" stroke-width="0.201439" stroke-miterlimit="10" stroke-linecap="round" stroke-linejoin="round"/>
        <path d="M106.391 59.3706V59.4407C106.321 59.4407 106.251 59.4407 106.181 59.4407L106.391 59.3706Z" fill="#F1F2F2" stroke="#231F20" stroke-width="0.201439" stroke-miterlimit="10" stroke-linecap="round" stroke-linejoin="round"/>
        <path d="M99.945 60.912C99.7348 60.982 99.5247 61.0521 99.3145 61.1222V60.5616L99.4546 60.6317L99.945 60.912Z" fill="#F1F2F2" stroke="#231F20" stroke-width="0.201439" stroke-miterlimit="10" stroke-linecap="round" stroke-linejoin="round"/>
        <path d="M99.1041 63.2241L96.2314 64.9057L94.6199 64.0649L94.0594 63.6445L89.7153 61.1221L92.588 59.4406L97.0022 62.033L97.2824 62.1731L99.1041 63.2241Z" fill="#F1F2F2" stroke="#231F20" stroke-width="0.201439" stroke-miterlimit="10" stroke-linecap="round" stroke-linejoin="round"/>
        <path d="M103.448 61.0521V62.8037L99.9445 60.982L99.454 60.7018L99.3139 60.6317V61.1922C98.9635 61.3324 98.6132 61.4725 98.2629 61.6827L97.9826 61.4725L96.9316 60.8419V57.1985L101.136 59.6508L102.046 60.1412L103.448 61.0521Z" fill="#F1F2F2" stroke="#231F20" stroke-width="0.201439" stroke-miterlimit="10" stroke-linecap="round" stroke-linejoin="round"/>
        <path opacity="0.2" d="M96.2314 64.9059V66.8677L93.5689 65.3963L93.4288 65.3263L92.2377 64.6957V66.2371L89.7153 64.7657V61.1223L94.0594 63.6447L94.6199 64.0651L96.2314 64.9059Z" fill="black" stroke="#231F20" stroke-width="0.201439" stroke-miterlimit="10"/>
        <path opacity="0.2" d="M103.448 61.0521V62.8037L99.9445 60.982L99.454 60.7018L99.3139 60.6317V61.1922C98.9635 61.3324 98.6132 61.4725 98.2629 61.6827L97.9826 61.4725L96.9316 60.8419V57.1985L101.136 59.6508L102.046 60.1412L103.448 61.0521Z" fill="black" stroke="#231F20" stroke-width="0.201439" stroke-miterlimit="10"/>
        <path d="M93.4289 65.3261C93.3588 65.3962 93.2888 65.5363 93.2187 65.6064L92.2378 66.237V64.6255L93.4289 65.3261Z" fill="#F1F2F2" stroke="#231F20" stroke-width="0.201439" stroke-miterlimit="10" stroke-linecap="round" stroke-linejoin="round"/>
        <path d="M127.271 69.4601V72.7532C127.271 75.3456 125.52 78.0081 122.087 79.9699C115.15 83.9637 104.01 83.9637 97.0731 79.9699C93.6398 78.0081 91.8882 75.3456 91.8882 72.7532V69.5301C91.8882 70.0907 91.9582 70.6512 92.0984 71.1417C92.2385 71.7022 92.4487 72.2627 92.799 72.7532C93.6398 74.2246 95.0411 75.5558 97.0731 76.7469C104.01 80.7407 115.15 80.7407 122.087 76.7469C124.118 75.6259 125.52 74.2246 126.361 72.7532C126.641 72.1926 126.921 71.7022 127.061 71.1417C127.201 70.5811 127.271 70.0206 127.271 69.4601Z" fill="#F1F2F2" stroke="#231F20" stroke-width="0.201439" stroke-miterlimit="10" stroke-linecap="round" stroke-linejoin="round"/>
        <path opacity="0.14" d="M112.417 79.5496V82.7726C107.022 83.263 101.277 82.3522 97.0731 79.8999C93.6398 77.938 91.8882 75.2755 91.8882 72.6831V69.4601C91.8882 70.0206 91.9582 70.5811 92.0984 71.0716C92.2385 71.6321 92.4487 72.1926 92.799 72.6831C93.6398 74.1545 95.0411 75.4857 97.0731 76.6769C101.277 79.1292 107.022 80.04 112.417 79.5496Z" fill="black" stroke="#231F20" stroke-width="0.201439" stroke-miterlimit="10"/>
    </g>
    <defs>
        <linearGradient id="paint0_linear_1_19911" x1="165.123" y1="125.885" x2="170.764" y2="115.469" gradientUnits="userSpaceOnUse">
            <stop stop-color="#59595C"/>
            <stop offset="0.3636" stop-color="#221F1F"/>
            <stop offset="0.6738" stop-color="#808184"/>
            <stop offset="1" stop-color="#424143"/>
        </linearGradient>
        <linearGradient id="paint1_linear_1_19911" x1="186.924" y1="142.494" x2="197.123" y2="125.557" gradientUnits="userSpaceOnUse">
            <stop stop-color="#59595C"/>
            <stop offset="0.3636" stop-color="#221F1F"/>
            <stop offset="0.6738" stop-color="#808184"/>
            <stop offset="1" stop-color="#424143"/>
        </linearGradient>
        <clipPath id="">
            <rect width="151.903" height="102.997" fill="white" transform="translate(61.5493 48.2302)"/>
        </clipPath>
    </defs>
</svg>
