<svg width="230" height="230" viewBox="0 0 230 230" fill="none"
    xmlns="http://www.w3.org/2000/svg">
    <g clip-path="url(#)">
        <path d="M110.945 53.4851V66.5874L140.233 83.4733V70.371L110.945 53.4851Z" fill="#F1F2F2" stroke="#231F20" stroke-width="0.176846" stroke-miterlimit="10" stroke-linecap="round" stroke-linejoin="round"/>
        <path d="M110.946 53.4851L76.7534 71.9124V84.9446L110.946 66.5874V53.4851Z" fill="#F1F2F2" stroke="#231F20" stroke-width="0.176846" stroke-miterlimit="10" stroke-linecap="round" stroke-linejoin="round"/>
        <path d="M140.233 83.4732L113.398 97.9068L106.041 101.901L76.7534 84.9446C77.6643 84.6644 91.7475 77.0272 101.557 71.7022C106.882 68.7594 110.946 66.5874 110.946 66.5874L140.233 83.4732Z" fill="#F1F2F2" stroke="#231F20" stroke-width="0.176846" stroke-miterlimit="10" stroke-linecap="round" stroke-linejoin="round"/>
        <path d="M105.971 91.4607V125.513L74.3711 107.296L66.1034 93.9831L61.8994 91.5308V69.5302L72.6195 72.1927L105.971 91.4607Z" fill="#F1F2F2" stroke="#231F20" stroke-width="0.201439" stroke-miterlimit="10" stroke-linecap="round" stroke-linejoin="round"/>
        <path d="M119.143 102.811V129.156L105.971 125.303H105.69V91.2506L119.143 102.811Z" fill="#F1F2F2" stroke="#231F20" stroke-width="0.201439" stroke-miterlimit="10" stroke-linecap="round" stroke-linejoin="round"/>
        <path opacity="0.14" d="M105.971 91.4607V125.513L74.3711 107.296L66.1034 93.9831L61.8994 91.5308V69.5302L72.6195 72.1927L105.971 91.4607Z" fill="black" stroke="#231F20" stroke-width="0.201439" stroke-miterlimit="10"/>
        <path opacity="0.14" d="M119.143 102.811V129.156L105.971 125.303H105.69V91.2506L119.143 102.811Z" fill="black" stroke="#231F20" stroke-width="0.201439" stroke-miterlimit="10"/>
        <path d="M158.03 81.9318V108.206L153.896 110.449L133.857 121.239L119.143 129.156V102.811L130.984 96.4354L144.577 89.1485L158.03 81.9318Z" fill="#F1F2F2" stroke="#231F20" stroke-width="0.201439" stroke-miterlimit="10" stroke-linecap="round" stroke-linejoin="round"/>
        <path d="M158.03 81.9318L144.577 89.1486L130.984 96.4354L119.143 102.811L105.69 91.2506L114.098 86.6963L144.577 70.3009L158.03 81.9318Z" fill="#F1F2F2" stroke="#231F20" stroke-width="0.201439" stroke-miterlimit="10" stroke-linecap="round" stroke-linejoin="round"/>
        <path d="M111.296 51.0328C111.296 51.0328 106.671 53.5552 100.576 56.9184C89.4352 63.0141 73.4602 71.7022 72.4092 71.9825L105.69 91.2506L114.098 86.7664L144.577 70.371L111.296 51.0328ZM113.398 84.8045L106.041 88.7983L76.7533 71.9124C77.6641 71.6322 91.7473 63.995 101.486 58.67C106.811 55.7272 110.875 53.5552 110.875 53.5552L140.163 70.4411L113.398 84.8045Z" fill="#F1F2F2" stroke="#231F20" stroke-width="0.201439" stroke-miterlimit="10" stroke-linecap="round" stroke-linejoin="round"/>
        <path d="M111.296 51.0327C111.296 51.0327 106.671 53.5551 100.576 56.9183C89.4352 63.014 73.4603 71.7021 72.4093 71.9824L61.6191 69.2498L100.576 48.3002L111.296 51.0327Z" fill="#F1F2F2" stroke="#231F20" stroke-width="0.201439" stroke-miterlimit="10" stroke-linecap="round" stroke-linejoin="round"/>
        <path opacity="0.14" d="M127.901 121.869C126.92 122.78 125.94 123.271 125.029 123.341C124.818 123.341 124.678 123.341 124.468 123.341C124.258 123.341 124.118 123.271 123.908 123.2C123.838 123.2 123.767 123.13 123.697 123.13C123.487 123.06 123.347 122.92 123.137 122.85C123.067 122.78 122.997 122.78 122.997 122.71C122.857 122.57 122.717 122.43 122.506 122.22C122.296 122.009 122.156 121.729 122.016 121.379C121.876 121.099 121.736 120.818 121.666 120.468C121.595 120.328 121.595 120.258 121.595 120.118C121.595 119.977 121.525 119.837 121.525 119.767C121.525 119.697 121.455 119.557 121.455 119.487C121.455 119.417 121.455 119.347 121.455 119.277C121.455 119.207 121.455 119.207 121.455 119.137C121.455 118.926 121.385 118.786 121.385 118.576C121.385 118.436 121.385 118.226 121.385 118.016C121.385 117.875 121.385 117.665 121.385 117.525C121.385 117.525 121.385 117.455 121.385 117.385C121.385 117.245 121.385 117.035 121.385 116.895C121.385 116.684 121.385 116.544 121.455 116.334C121.455 116.194 121.525 116.054 121.525 115.914L121.595 115.703C121.595 115.563 121.666 115.423 121.666 115.283C121.736 114.863 121.876 114.512 121.946 114.092C122.016 113.952 122.016 113.742 122.086 113.601C122.156 113.391 122.226 113.251 122.296 113.041C122.436 112.691 122.576 112.34 122.717 111.99C122.857 111.64 123.067 111.359 123.277 111.009C123.347 110.869 123.487 110.729 123.557 110.519C123.767 110.238 123.908 109.958 124.118 109.748C124.258 109.608 124.328 109.468 124.468 109.327C124.538 109.257 124.678 109.117 124.748 109.047C124.818 109.047 124.818 108.977 124.818 108.977C124.889 108.907 124.959 108.837 125.029 108.767C125.099 108.697 125.169 108.627 125.239 108.627C125.309 108.557 125.379 108.487 125.449 108.487C125.729 108.276 126.01 108.136 126.29 107.996C126.36 107.926 126.43 107.926 126.5 107.926C126.57 107.926 126.64 107.856 126.71 107.856C126.78 107.856 126.85 107.786 126.991 107.786C127.061 107.786 127.131 107.786 127.201 107.716C127.271 107.716 127.341 107.716 127.411 107.646C127.761 107.576 128.182 107.576 128.462 107.716C129.163 107.856 129.793 108.347 130.284 109.047C130.634 109.538 130.914 110.168 131.054 110.939C131.895 114.512 130.494 119.347 127.901 121.869Z" fill="black" stroke="#231F20" stroke-width="0.217204" stroke-miterlimit="10"/>
        <path opacity="0.14" d="M148.852 110.449C147.871 111.359 146.89 111.85 145.979 111.92C145.769 111.92 145.629 111.92 145.418 111.92C145.208 111.92 145.068 111.85 144.858 111.78C144.788 111.78 144.718 111.71 144.648 111.71C144.437 111.64 144.297 111.5 144.087 111.429C144.017 111.359 143.947 111.359 143.947 111.289C143.807 111.149 143.667 111.009 143.457 110.799C143.246 110.589 143.106 110.308 142.966 109.958C142.826 109.678 142.686 109.398 142.616 109.047C142.546 108.907 142.546 108.837 142.546 108.697C142.546 108.557 142.476 108.417 142.476 108.347C142.476 108.277 142.406 108.136 142.406 108.066C142.406 107.996 142.406 107.926 142.406 107.856C142.406 107.786 142.406 107.786 142.406 107.716C142.406 107.506 142.335 107.366 142.335 107.155C142.335 107.015 142.335 106.805 142.335 106.595C142.335 106.455 142.335 106.245 142.335 106.104C142.335 106.104 142.335 106.034 142.335 105.964C142.335 105.824 142.335 105.614 142.335 105.474C142.335 105.264 142.335 105.124 142.406 104.913C142.406 104.773 142.476 104.633 142.476 104.493L142.546 104.283C142.546 104.143 142.616 104.003 142.616 103.862C142.686 103.442 142.826 103.092 142.896 102.671C142.966 102.531 142.966 102.321 143.036 102.181C143.106 101.971 143.176 101.83 143.246 101.62C143.386 101.27 143.527 100.92 143.667 100.569C143.807 100.219 144.017 99.9387 144.227 99.5884C144.297 99.4482 144.437 99.3081 144.507 99.0979C144.718 98.8177 144.858 98.5374 145.068 98.3272C145.208 98.1871 145.278 98.0469 145.418 97.9068C145.488 97.8367 145.629 97.6966 145.699 97.6265C145.769 97.6265 145.769 97.5565 145.769 97.5565C145.839 97.4864 145.909 97.4163 145.979 97.3463C146.049 97.2762 146.119 97.2061 146.189 97.2061C146.259 97.1361 146.329 97.066 146.399 97.066C146.68 96.8558 146.96 96.7157 147.24 96.5756C147.31 96.5055 147.38 96.5055 147.45 96.5055C147.52 96.5055 147.59 96.4354 147.66 96.4354C147.731 96.4354 147.801 96.3654 147.941 96.3654C148.011 96.3654 148.081 96.3654 148.151 96.2953C148.221 96.2953 148.291 96.2953 148.361 96.2252C148.711 96.1552 149.132 96.1552 149.412 96.2953C150.113 96.4354 150.743 96.9259 151.234 97.6265C151.584 98.117 151.864 98.7476 152.005 99.5183C152.845 103.092 151.444 107.996 148.852 110.449Z" fill="black" stroke="#231F20" stroke-width="0.217204" stroke-miterlimit="10"/>
        <path d="M154.246 110.659C154.036 110.589 153.826 110.449 153.686 110.379L154.246 110.659Z" fill="white" stroke="#231F20" stroke-width="0.162833" stroke-miterlimit="10"/>
        <path d="M163.565 100.219C163.565 103.862 161.112 108.207 157.96 110.028C156.558 110.869 155.297 111.009 154.316 110.589L153.756 110.308C152.845 109.678 152.354 108.487 152.284 106.805C152.284 103.162 154.736 98.8177 157.889 96.996C159.221 96.2253 160.482 96.0151 161.393 96.3654C162.654 96.7858 163.495 98.117 163.565 100.219Z" fill="#F1F2F2" stroke="#231F20" stroke-width="0.126539" stroke-miterlimit="10" stroke-linecap="round" stroke-linejoin="round"/>
        <path d="M161.393 96.3655C160.412 96.0151 159.221 96.2253 157.89 96.9961C154.807 98.8178 152.285 103.232 152.285 106.805C152.285 108.487 152.845 109.678 153.756 110.309L146.679 106.595C145.488 106.105 144.718 104.773 144.647 102.812C144.647 99.1681 147.1 94.824 150.253 93.0023C151.724 92.1615 153.055 92.0214 154.106 92.5118L154.317 92.652L161.393 96.3655Z" fill="url(#paint0_linear_1_19911)" stroke="#231F20" stroke-width="0.140272" stroke-miterlimit="10" stroke-linecap="round" stroke-linejoin="round"/>
        <path opacity="0.14" d="M153.686 110.309L146.609 106.595C145.418 106.105 144.647 104.773 144.577 102.812C144.577 100.85 145.278 98.6777 146.469 96.7859L154.176 100.71C152.985 102.601 152.214 104.843 152.214 106.805C152.284 108.487 152.845 109.678 153.686 110.309Z" fill="black" stroke="#231F20" stroke-width="0.238504" stroke-miterlimit="10"/>
        <path d="M170.431 117.315C170.291 117.245 170.151 117.175 170.011 117.105L170.431 117.315Z" fill="#F1F2F2" stroke="#231F20" stroke-width="0.200388" stroke-miterlimit="10" stroke-linecap="round" stroke-linejoin="round"/>
        <path d="M177.368 109.608C177.368 112.27 175.476 115.564 173.164 116.895C172.113 117.525 171.202 117.595 170.431 117.315L170.011 117.105C169.38 116.615 168.96 115.704 168.96 114.513C168.96 111.85 170.852 108.557 173.164 107.226C174.145 106.665 175.056 106.525 175.826 106.805C176.807 107.015 177.368 108.066 177.368 109.608Z" fill="#F1F2F2" stroke="#231F20" stroke-width="0.200388" stroke-miterlimit="10" stroke-linecap="round" stroke-linejoin="round"/>
        <path d="M175.826 106.735C175.126 106.455 174.215 106.595 173.164 107.156C170.852 108.487 168.96 111.78 168.96 114.442C168.96 115.704 169.38 116.614 170.011 117.035L155.717 108.977C154.807 108.627 154.246 107.576 154.246 106.105C154.246 103.442 156.138 100.149 158.45 98.8178C159.571 98.1872 160.552 98.1171 161.323 98.4674L161.463 98.5375L175.826 106.735Z" fill="url(#paint1_linear_1_19911)" stroke="#231F20" stroke-width="0.200388" stroke-miterlimit="10" stroke-linecap="round" stroke-linejoin="round"/>
        <path d="M176.877 122.57C176.667 122.5 176.457 122.36 176.316 122.29L176.877 122.57Z" fill="white" stroke="#231F20" stroke-width="0.162833" stroke-miterlimit="10"/>
        <path d="M186.126 112.2C186.126 115.844 183.674 120.188 180.521 122.01C179.119 122.85 177.858 122.99 176.877 122.57L176.317 122.29C175.406 121.659 174.915 120.468 174.845 118.787C174.845 115.143 177.298 110.799 180.45 108.977C181.782 108.207 183.043 107.996 183.954 108.347C185.285 108.767 186.126 110.098 186.126 112.2Z" fill="#F1F2F2" stroke="#231F20" stroke-width="0.126539" stroke-miterlimit="10" stroke-linecap="round" stroke-linejoin="round"/>
        <path d="M184.024 108.277C183.043 107.926 181.852 108.137 180.521 108.907C177.438 110.729 174.915 115.143 174.915 118.717C174.915 120.398 175.476 121.589 176.387 122.22L169.31 118.506C168.119 118.016 167.348 116.685 167.278 114.723C167.278 111.079 169.731 106.735 172.884 104.914C174.355 104.073 175.686 103.933 176.737 104.423L176.947 104.563L184.024 108.277Z" fill="url(#paint2_linear_1_19911)" stroke="#231F20" stroke-width="0.140272" stroke-miterlimit="10" stroke-linecap="round" stroke-linejoin="round"/>
        <path opacity="0.14" d="M176.317 122.29L169.24 118.576C168.049 118.086 167.278 116.755 167.208 114.793C167.208 112.831 167.909 110.659 169.1 108.767L176.807 112.691C175.616 114.583 174.845 116.825 174.845 118.787C174.915 120.468 175.476 121.659 176.317 122.29Z" fill="black" stroke="#231F20" stroke-width="0.238504" stroke-miterlimit="10"/>
        <path d="M193.062 129.366C192.922 129.296 192.782 129.226 192.642 129.156L193.062 129.366Z" fill="#F1F2F2" stroke="#231F20" stroke-width="0.200388" stroke-miterlimit="10" stroke-linecap="round" stroke-linejoin="round"/>
        <path d="M200.069 121.589C200.069 124.251 198.177 127.545 195.865 128.876C194.814 129.506 193.903 129.576 193.133 129.296L192.712 129.086C192.082 128.596 191.661 127.685 191.661 126.494C191.661 123.831 193.553 120.538 195.865 119.207C196.846 118.646 197.757 118.506 198.528 118.786C199.438 119.067 200.069 120.048 200.069 121.589Z" fill="#F1F2F2" stroke="#231F20" stroke-width="0.200388" stroke-miterlimit="10" stroke-linecap="round" stroke-linejoin="round"/>
        <path d="M198.458 118.716C197.757 118.436 196.846 118.576 195.795 119.137C193.483 120.468 191.591 123.761 191.591 126.424C191.591 127.685 192.012 128.596 192.642 129.016L178.349 120.958C177.438 120.608 176.877 119.557 176.877 118.086C176.877 115.423 178.769 112.13 181.081 110.799C182.202 110.168 183.183 110.098 183.954 110.449L184.094 110.519L198.458 118.716Z" fill="url(#paint3_linear_1_19911)" stroke="#231F20" stroke-width="0.200388" stroke-miterlimit="10" stroke-linecap="round" stroke-linejoin="round"/>
        <path d="M211.35 142.679C211.14 142.609 210.929 142.469 210.719 142.329L211.35 142.679Z" fill="#F1F2F2" stroke="#231F20" stroke-width="0.18161" stroke-miterlimit="10" stroke-linecap="round" stroke-linejoin="round"/>
        <path d="M221.649 131.048C221.72 135.042 218.917 140.016 215.414 142.048C213.872 142.959 212.471 143.169 211.35 142.749L210.719 142.399C209.738 141.698 209.108 140.367 209.108 138.475C209.038 134.481 211.84 129.507 215.274 127.475C216.745 126.634 218.146 126.424 219.197 126.774C220.669 127.264 221.579 128.736 221.649 131.048Z" fill="#58595B" stroke="#231F20" stroke-width="0.18161" stroke-miterlimit="10" stroke-linecap="round" stroke-linejoin="round"/>
        <path d="M220.248 131.889C220.248 135.042 218.076 138.895 215.414 140.507C214.223 141.208 213.102 141.348 212.261 140.997L211.77 140.717C211 140.157 210.509 139.106 210.509 137.634C210.509 134.481 212.681 130.628 215.344 129.016C216.535 128.316 217.586 128.175 218.427 128.456C219.478 128.876 220.248 130.067 220.248 131.889Z" fill="#231F20" stroke="#231F20" stroke-width="0.18161" stroke-miterlimit="10"/>
        <path d="M219.197 126.774C218.146 126.424 216.745 126.634 215.273 127.475C211.84 129.507 209.038 134.411 209.108 138.475C209.108 140.297 209.738 141.698 210.719 142.399L190.12 131.398C188.789 130.838 187.878 129.366 187.878 127.194C187.808 123.201 190.61 118.226 194.114 116.194C195.795 115.213 197.267 115.073 198.388 115.634L198.598 115.774L219.197 126.774Z" fill="url(#paint4_linear_1_19911)" stroke="#231F20" stroke-width="0.18161" stroke-miterlimit="10" stroke-linecap="round" stroke-linejoin="round"/>
        <path d="M132.175 122.219C131.965 122.149 131.754 122.009 131.614 121.939L132.175 122.219Z" fill="white" stroke="#231F20" stroke-width="0.162833" stroke-miterlimit="10"/>
        <path d="M141.424 111.85C141.424 115.493 138.971 119.837 135.818 121.659C134.417 122.5 133.156 122.64 132.175 122.219L131.614 121.939C130.704 121.309 130.213 120.117 130.143 118.436C130.143 114.793 132.595 110.448 135.748 108.627C137.08 107.856 138.341 107.646 139.252 107.996C140.583 108.417 141.424 109.748 141.424 111.85Z" fill="#F1F2F2" stroke="#231F20" stroke-width="0.126539" stroke-miterlimit="10" stroke-linecap="round" stroke-linejoin="round"/>
        <path d="M139.252 107.926C138.271 107.576 137.08 107.786 135.748 108.557C132.665 110.378 130.143 114.793 130.143 118.366C130.143 120.048 130.704 121.239 131.614 121.869L124.538 118.156C123.347 117.665 122.576 116.334 122.506 114.372C122.506 110.729 124.958 106.385 128.111 104.563C129.583 103.722 130.914 103.582 131.965 104.073L132.175 104.213L139.252 107.926Z" fill="url(#paint5_linear_1_19911)" stroke="#231F20" stroke-width="0.140272" stroke-miterlimit="10" stroke-linecap="round" stroke-linejoin="round"/>
        <path opacity="0.14" d="M131.614 121.939L124.538 118.226C123.347 117.735 122.576 116.404 122.506 114.442C122.506 112.48 123.207 110.308 124.398 108.417L132.105 112.34C130.914 114.232 130.143 116.474 130.143 118.436C130.143 120.118 130.704 121.309 131.614 121.939Z" fill="black" stroke="#231F20" stroke-width="0.238504" stroke-miterlimit="10"/>
        <path d="M148.36 128.946C148.22 128.876 148.08 128.806 147.94 128.736L148.36 128.946Z" fill="#F1F2F2" stroke="#231F20" stroke-width="0.200388" stroke-miterlimit="10" stroke-linecap="round" stroke-linejoin="round"/>
        <path d="M155.297 121.239C155.297 123.901 153.405 127.194 151.093 128.525C150.042 129.156 149.131 129.226 148.36 128.946L147.94 128.736C147.309 128.245 146.889 127.334 146.889 126.143C146.889 123.481 148.78 120.188 151.093 118.856C152.074 118.296 152.984 118.156 153.755 118.436C154.666 118.646 155.297 119.697 155.297 121.239Z" fill="#F1F2F2" stroke="#231F20" stroke-width="0.200388" stroke-miterlimit="10" stroke-linecap="round" stroke-linejoin="round"/>
        <path d="M153.685 118.296C152.985 118.016 152.074 118.156 151.023 118.716C148.711 120.048 146.819 123.341 146.819 126.003C146.819 127.264 147.239 128.175 147.87 128.596L133.576 120.538C132.666 120.188 132.105 119.137 132.105 117.665C132.105 115.003 133.997 111.71 136.309 110.378C137.43 109.748 138.411 109.678 139.182 110.028L139.322 110.098L153.685 118.296Z" fill="url(#paint6_linear_1_19911)" stroke="#231F20" stroke-width="0.200388" stroke-miterlimit="10" stroke-linecap="round" stroke-linejoin="round"/>
        <path d="M154.806 134.201C154.595 134.131 154.385 133.991 154.245 133.921L154.806 134.201Z" fill="white" stroke="#231F20" stroke-width="0.162833" stroke-miterlimit="10"/>
        <path d="M164.055 123.761C164.055 127.404 161.602 131.748 158.449 133.57C157.048 134.411 155.787 134.551 154.806 134.131L154.245 133.85C153.334 133.22 152.844 132.029 152.774 130.347C152.774 126.704 155.226 122.36 158.379 120.538C159.71 119.767 160.972 119.557 161.882 119.907C163.214 120.398 164.055 121.729 164.055 123.761Z" fill="#F1F2F2" stroke="#231F20" stroke-width="0.126539" stroke-miterlimit="10" stroke-linecap="round" stroke-linejoin="round"/>
        <path d="M161.882 119.907C160.902 119.557 159.71 119.767 158.379 120.538C155.296 122.36 152.774 126.774 152.774 130.347C152.774 132.029 153.334 133.22 154.245 133.851L147.169 130.137C145.978 129.647 145.207 128.315 145.137 126.354C145.137 122.71 147.589 118.366 150.742 116.544C152.213 115.704 153.545 115.563 154.596 116.054L154.806 116.194L161.882 119.907Z" fill="url(#paint7_linear_1_19911)" stroke="#231F20" stroke-width="0.140272" stroke-miterlimit="10" stroke-linecap="round" stroke-linejoin="round"/>
        <path opacity="0.14" d="M154.245 133.921L147.169 130.207C145.978 129.717 145.207 128.385 145.137 126.424C145.137 124.462 145.837 122.29 147.028 120.398L154.736 124.322C153.545 126.213 152.774 128.456 152.774 130.417C152.774 132.029 153.334 133.22 154.245 133.921Z" fill="black" stroke="#231F20" stroke-width="0.238504" stroke-miterlimit="10"/>
        <path d="M170.992 140.927C170.852 140.857 170.711 140.787 170.571 140.717L170.992 140.927Z" fill="#F1F2F2" stroke="#231F20" stroke-width="0.200388" stroke-miterlimit="10" stroke-linecap="round" stroke-linejoin="round"/>
        <path d="M177.928 133.22C177.928 135.882 176.037 139.175 173.724 140.507C172.673 141.137 171.763 141.207 170.992 140.927L170.571 140.717C169.941 140.226 169.521 139.316 169.521 138.124C169.521 135.462 171.412 132.169 173.724 130.838C174.705 130.277 175.616 130.137 176.387 130.417C177.298 130.627 177.928 131.678 177.928 133.22Z" fill="#F1F2F2" stroke="#231F20" stroke-width="0.200388" stroke-miterlimit="10" stroke-linecap="round" stroke-linejoin="round"/>
        <path d="M176.387 130.347C175.686 130.067 174.775 130.207 173.724 130.768C171.412 132.099 169.52 135.392 169.52 138.054C169.52 139.316 169.941 140.226 170.571 140.647L156.278 132.589C155.367 132.239 154.807 131.188 154.807 129.717C154.807 127.054 156.698 123.761 159.011 122.43C160.132 121.799 161.113 121.729 161.883 122.079L162.023 122.149L176.387 130.347Z" fill="url(#paint8_linear_1_19911)" stroke="#231F20" stroke-width="0.200388" stroke-miterlimit="10" stroke-linecap="round" stroke-linejoin="round"/>
        <path d="M189.209 154.31C188.999 154.24 188.789 154.1 188.579 153.959L189.209 154.31Z" fill="#F1F2F2" stroke="#231F20" stroke-width="0.18161" stroke-miterlimit="10" stroke-linecap="round" stroke-linejoin="round"/>
        <path d="M199.509 142.679C199.579 146.673 196.776 151.647 193.343 153.679C191.801 154.59 190.4 154.8 189.279 154.38L188.648 154.029C187.668 153.329 187.037 151.998 187.037 150.106C186.967 146.112 189.769 141.137 193.203 139.105C194.674 138.265 196.075 138.054 197.126 138.405C198.528 138.895 199.509 140.367 199.509 142.679Z" fill="#58595B" stroke="#231F20" stroke-width="0.18161" stroke-miterlimit="10" stroke-linecap="round" stroke-linejoin="round"/>
        <path d="M198.178 143.45C198.178 146.602 196.006 150.456 193.343 152.068C192.152 152.768 191.031 152.908 190.19 152.558L189.7 152.278C188.929 151.717 188.438 150.666 188.438 149.195C188.438 146.042 190.611 142.188 193.273 140.577C194.464 139.876 195.515 139.736 196.356 140.016C197.407 140.507 198.108 141.698 198.178 143.45Z" fill="#231F20" stroke="#231F20" stroke-width="0.18161" stroke-miterlimit="10"/>
        <path d="M197.126 138.405C196.075 138.054 194.674 138.265 193.203 139.105C189.769 141.137 186.967 146.042 187.037 150.106C187.037 151.928 187.667 153.329 188.648 154.029L168.049 143.029C166.718 142.469 165.807 140.997 165.807 138.825C165.737 134.831 168.54 129.857 172.043 127.825C173.724 126.844 175.196 126.704 176.317 127.264L176.527 127.404L197.126 138.405Z" fill="url(#paint9_linear_1_19911)" stroke="#231F20" stroke-width="0.18161" stroke-miterlimit="10" stroke-linecap="round" stroke-linejoin="round"/>
        <path opacity="0.2" d="M110.945 53.4851L106.041 69.2499L123.767 78.989L140.233 70.371L110.945 53.4851Z" fill="black" stroke="#231F20" stroke-width="0.201439" stroke-miterlimit="10"/>
    </g>
    <defs>
        <linearGradient id="paint0_linear_1_19911" x1="147.76" y1="107.699" x2="155.953" y2="93.056" gradientUnits="userSpaceOnUse">
            <stop stop-color="#D1D2D3"/>
            <stop offset="0.3636" stop-color="#D1D2D3"/>
            <stop offset="0.6738" stop-color="#F1F1F1"/>
            <stop offset="1" stop-color="#E5E6E6"/>
        </linearGradient>
        <linearGradient id="paint1_linear_1_19911" x1="161.422" y1="112.211" x2="166.967" y2="101.971" gradientUnits="userSpaceOnUse">
            <stop stop-color="#59595C"/>
            <stop offset="0.3636" stop-color="#221F1F"/>
            <stop offset="0.6738" stop-color="#808184"/>
            <stop offset="1" stop-color="#424143"/>
        </linearGradient>
        <linearGradient id="paint2_linear_1_19911" x1="170.386" y1="119.661" x2="178.579" y2="105.018" gradientUnits="userSpaceOnUse">
            <stop stop-color="#D1D2D3"/>
            <stop offset="0.3636" stop-color="#D1D2D3"/>
            <stop offset="0.6738" stop-color="#F1F1F1"/>
            <stop offset="1" stop-color="#E5E6E6"/>
        </linearGradient>
        <linearGradient id="paint3_linear_1_19911" x1="184.061" y1="124.207" x2="189.606" y2="113.968" gradientUnits="userSpaceOnUse">
            <stop stop-color="#59595C"/>
            <stop offset="0.3636" stop-color="#221F1F"/>
            <stop offset="0.6738" stop-color="#808184"/>
            <stop offset="1" stop-color="#424143"/>
        </linearGradient>
        <linearGradient id="paint4_linear_1_19911" x1="197.929" y1="135.577" x2="206.702" y2="120.061" gradientUnits="userSpaceOnUse">
            <stop stop-color="#59595C"/>
            <stop offset="0.3636" stop-color="#221F1F"/>
            <stop offset="0.6738" stop-color="#808184"/>
            <stop offset="1" stop-color="#424143"/>
        </linearGradient>
        <linearGradient id="paint5_linear_1_19911" x1="125.655" y1="119.311" x2="133.848" y2="104.669" gradientUnits="userSpaceOnUse">
            <stop stop-color="#D1D2D3"/>
            <stop offset="0.3636" stop-color="#D1D2D3"/>
            <stop offset="0.6738" stop-color="#F1F1F1"/>
            <stop offset="1" stop-color="#E5E6E6"/>
        </linearGradient>
        <linearGradient id="paint6_linear_1_19911" x1="139.318" y1="123.823" x2="144.863" y2="113.584" gradientUnits="userSpaceOnUse">
            <stop stop-color="#59595C"/>
            <stop offset="0.3636" stop-color="#221F1F"/>
            <stop offset="0.6738" stop-color="#808184"/>
            <stop offset="1" stop-color="#424143"/>
        </linearGradient>
        <linearGradient id="paint7_linear_1_19911" x1="148.282" y1="131.274" x2="156.475" y2="116.631" gradientUnits="userSpaceOnUse">
            <stop stop-color="#D1D2D3"/>
            <stop offset="0.3636" stop-color="#D1D2D3"/>
            <stop offset="0.6738" stop-color="#F1F1F1"/>
            <stop offset="1" stop-color="#E5E6E6"/>
        </linearGradient>
        <linearGradient id="paint8_linear_1_19911" x1="161.957" y1="135.819" x2="167.502" y2="125.58" gradientUnits="userSpaceOnUse">
            <stop stop-color="#59595C"/>
            <stop offset="0.3636" stop-color="#221F1F"/>
            <stop offset="0.6738" stop-color="#808184"/>
            <stop offset="1" stop-color="#424143"/>
        </linearGradient>
        <linearGradient id="paint9_linear_1_19911" x1="175.826" y1="147.189" x2="184.599" y2="131.674" gradientUnits="userSpaceOnUse">
            <stop stop-color="#59595C"/>
            <stop offset="0.3636" stop-color="#221F1F"/>
            <stop offset="0.6738" stop-color="#808184"/>
            <stop offset="1" stop-color="#424143"/>
        </linearGradient>
        <clipPath id="">
            <rect width="160.17" height="106.43" fill="white" transform="translate(61.5493 48.2302)"/>
        </clipPath>
    </defs>
</svg>
