<svg width="230" height="230" viewBox="0 0 230 230" fill="none"
    xmlns="http://www.w3.org/2000/svg">
    <g clip-path="url(#)">
        <path d="M147.31 106.455L140.233 110.449V110.519L112.347 126.284L107.933 128.806L107.513 127.335L98.4741 94.5438L97.9136 92.4418L107.302 87.327L112.908 84.3142L124.609 77.9382L138.552 70.301L139.953 75.9063L140.584 78.779L146.679 103.792L147.31 106.455Z" fill="#F1F2F2" stroke="#231F20" stroke-width="0.150992" stroke-miterlimit="10" stroke-linecap="round" stroke-linejoin="round"/>
        <path d="M140.233 110.519L112.347 126.283L107.933 128.806L106.461 127.965L72.8999 108.557L98.4739 94.5437L107.512 127.334L107.933 128.806L112.347 126.283L140.233 110.519Z" fill="#F1F2F2" stroke="#231F20" stroke-width="0.150992" stroke-miterlimit="10"/>
        <path d="M147.31 106.455L140.233 110.519V110.449L147.31 106.455Z" fill="#F1F2F2" stroke="#231F20" stroke-width="0.150992" stroke-miterlimit="10"/>
        <path d="M138.551 70.301L124.608 77.9382L112.907 84.3142L107.302 87.327L97.9132 92.4418L95.1806 91.1105L80.4668 83.6135L112.907 64.3454L119.844 60.2115L138.551 70.301Z" fill="#F1F2F2" stroke="#231F20" stroke-width="0.150992" stroke-miterlimit="10" stroke-linecap="round" stroke-linejoin="round"/>
        <path d="M113.679 102.181L114.03 115.423C115.571 114.443 129.164 106.805 136.24 102.882C138.833 101.41 140.584 100.499 140.584 100.499L140.304 88.3781L113.679 102.181ZM137.852 98.6077L137.782 98.6777C137.712 98.6777 137.642 98.7478 137.572 98.8179C137.502 98.8179 137.502 98.8879 137.431 98.8879C137.361 98.958 137.221 98.958 137.151 99.028C137.151 99.028 137.151 99.028 137.081 99.028C136.31 99.4484 134.979 100.219 133.298 101.13H133.228C132.737 101.41 132.247 101.691 131.756 101.971C131.406 102.181 131.056 102.391 130.705 102.531C130.635 102.531 130.635 102.601 130.565 102.601C129.164 103.372 127.622 104.213 126.151 105.054C125.941 105.194 125.801 105.264 125.59 105.404C123.558 106.525 121.667 107.646 119.985 108.557C119.845 108.627 119.775 108.697 119.635 108.767C119.495 108.837 119.355 108.907 119.214 108.977C119.074 109.047 118.934 109.118 118.794 109.258C118.654 109.328 118.514 109.398 118.374 109.538C117.813 109.888 117.323 110.169 116.832 110.379L116.692 104.633L128.253 98.2573L131.336 96.5757L133.368 95.4547L137.782 93.0725L137.852 98.6077Z" fill="#F1F2F2" stroke="#231F20" stroke-width="0.150992" stroke-miterlimit="10" stroke-linecap="round" stroke-linejoin="round"/>
        <path d="M137.851 98.6076C137.851 98.6076 122.157 107.366 116.761 110.449L116.691 105.684L133.367 96.4355L137.851 98.6076Z" fill="#939598" stroke="#231F20" stroke-width="0.150992" stroke-miterlimit="10"/>
        <path d="M137.712 93.1426L137.852 98.6077L133.297 96.4357V95.5248L137.712 93.1426Z" fill="#4F4C4D" stroke="#231F20" stroke-width="0.150992" stroke-miterlimit="10"/>
        <path d="M133.298 95.5247V96.4355L116.692 105.684L116.622 104.703L133.298 95.5247Z" fill="#231F20" stroke="#231F20" stroke-width="0.150992" stroke-miterlimit="10" stroke-linecap="round" stroke-linejoin="round"/>
        <path d="M140.234 88.3079L113.679 102.181V101.901L109.125 99.2381L135.329 85.7155L140.234 88.3079Z" fill="#F1F2F2" stroke="#231F20" stroke-width="0.150992" stroke-miterlimit="10" stroke-linecap="round" stroke-linejoin="round"/>
        <path d="M113.679 101.901L113.959 115.423L109.125 99.2383L113.679 101.901Z" fill="#F1F2F2" stroke="#231F20" stroke-width="0.150992" stroke-miterlimit="10" stroke-linecap="round" stroke-linejoin="round"/>
        <path opacity="0.2" d="M113.679 101.901L113.959 115.423L109.125 99.2383L113.679 101.901Z" fill="black" stroke="#231F20" stroke-width="0.150992" stroke-miterlimit="10"/>
        <path d="M107.933 128.806L106.461 127.965L72.8999 108.557L74.7216 102.531L80.467 83.6135L95.1808 91.1106L97.9134 92.4418L98.4739 94.5438L107.512 127.335L107.933 128.806Z" fill="#F1F2F2" stroke="#231F20" stroke-width="0.150992" stroke-miterlimit="10" stroke-linecap="round" stroke-linejoin="round"/>
        <path opacity="0.2" d="M107.933 128.806L106.461 127.965L72.8999 108.557L74.7216 102.531L80.467 83.6135L95.1808 91.1106L97.9134 92.4418L98.4739 94.5438L107.512 127.335L107.933 128.806Z" fill="black" stroke="#231F20" stroke-width="0.150992" stroke-miterlimit="10"/>
        <path d="M98.1939 108.977V113.111C98.1238 113.111 98.1238 113.041 98.0538 113.041C93.2192 110.308 80.0469 102.882 80.0469 102.882L83.6202 100.99L98.1939 108.977Z" fill="#939598" stroke="#231F20" stroke-width="0.150992" stroke-miterlimit="10"/>
        <path d="M83.6903 100.149L83.6202 100.92L80.0469 102.882V98.047L83.6903 100.149Z" fill="#4F4C4D" stroke="#231F20" stroke-width="0.150992" stroke-miterlimit="10"/>
        <path d="M98.1943 108.137V108.977L83.6206 100.92L83.6907 100.149L84.1811 100.499L98.1943 108.137Z" fill="#231F20" stroke="#231F20" stroke-width="0.150992" stroke-miterlimit="10" stroke-linecap="round" stroke-linejoin="round"/>
    </g>
    <defs>
        <clipPath id="">
            <rect width="74.62" height="68.8046" fill="white" transform="translate(72.7598 60.1414)"/>
        </clipPath>
    </defs>
</svg>
