<svg width="230" height="230" viewBox="0 0 230 230" fill="none"
    xmlns="http://www.w3.org/2000/svg">
    <g clip-path="url(#)">
        <path d="M102.608 124.602C102.608 124.602 102.468 124.672 102.188 124.812C102.328 124.742 102.468 124.672 102.608 124.602Z" fill="white" stroke="#231F20" stroke-width="0.157578" stroke-miterlimit="10"/>
        <path d="M122.016 92.3016C121.806 92.4418 115.57 96.0852 108.564 100.219C99.315 105.614 88.5949 111.64 87.9643 111.289L74.5117 114.723L108.564 95.7349L122.016 92.3016Z" fill="#F1F2F2" stroke="#231F20" stroke-width="0.157578" stroke-miterlimit="10" stroke-linecap="round" stroke-linejoin="round"/>
        <path d="M102.608 124.602C102.608 124.602 102.468 124.672 102.188 124.812C102.328 124.742 102.468 124.672 102.608 124.602Z" fill="white" stroke="#231F20" stroke-width="0.157578" stroke-miterlimit="10"/>
        <path d="M112.347 94.824C111.717 94.6138 111.016 94.6839 110.175 95.1743C109.965 95.3145 109.755 95.4546 109.545 95.6648C109.474 95.7349 109.404 95.7349 109.404 95.8049C109.264 95.875 109.194 96.0151 109.124 96.0852C109.054 96.1553 109.054 96.1553 108.984 96.2253C108.984 96.2253 108.914 96.2954 108.914 96.3655C108.634 96.6457 108.424 96.926 108.213 97.2062C108.143 97.2763 108.143 97.3464 108.073 97.4164C108.003 97.5566 107.933 97.6967 107.863 97.7668C107.863 97.8368 107.793 97.8368 107.793 97.9069C107.793 97.977 107.723 98.047 107.723 98.047C107.653 98.1171 107.653 98.2572 107.583 98.3273C107.583 98.3974 107.513 98.4674 107.513 98.5375C107.513 98.6076 107.443 98.6776 107.443 98.7477C107.373 98.9579 107.232 99.2382 107.232 99.4483C107.232 99.5184 107.162 99.5885 107.162 99.6585C107.162 99.7987 107.092 99.8687 107.092 99.9388C107.092 99.9388 107.092 99.9388 107.022 99.9388L99.8755 102.181V96.1553C99.8755 96.0852 99.8755 96.0151 99.8755 95.9451C99.8755 95.875 99.8755 95.875 99.8755 95.8049C99.8755 95.8049 99.8755 95.7349 99.8755 95.6648C99.8755 95.3845 99.9456 95.1743 100.016 94.8941C100.016 94.824 100.016 94.7539 100.086 94.6839C100.156 94.4737 100.226 94.1934 100.296 93.9832C100.296 93.9132 100.366 93.8431 100.366 93.773C100.366 93.703 100.436 93.6329 100.436 93.5628C100.506 93.4928 100.506 93.3526 100.576 93.2826C100.576 93.2125 100.646 93.1424 100.646 93.1424C100.646 93.0724 100.716 93.0724 100.716 93.0023C100.786 92.8622 100.856 92.722 100.926 92.652C100.997 92.5819 100.997 92.5118 101.067 92.4418C101.277 92.1615 101.487 91.8112 101.767 91.601C101.767 91.5309 101.837 91.5309 101.837 91.4609C101.907 91.3908 101.907 91.3908 101.977 91.3207C102.048 91.2507 102.188 91.1105 102.258 91.0405C102.328 90.9704 102.328 90.9704 102.398 90.9003C102.608 90.7602 102.818 90.55 103.028 90.4099C103.239 90.2697 103.449 90.1997 103.659 90.1296C103.729 90.1296 103.799 90.0595 103.869 90.0595C104.36 89.9194 104.85 89.9895 105.2 90.1296L105.691 90.4799L112.347 94.824Z" fill="#F1F2F2" stroke="#231F20" stroke-width="0.157578" stroke-miterlimit="10" stroke-linecap="round" stroke-linejoin="round"/>
        <path d="M103.729 90.1296C103.799 90.1296 103.869 90.0596 103.939 90.0596C103.869 90.0596 103.799 90.0596 103.729 90.1296Z" fill="#F1F2F2" stroke="#231F20" stroke-width="0.157578" stroke-miterlimit="10" stroke-linecap="round" stroke-linejoin="round"/>
        <path d="M113.468 96.3655L112.347 96.996L108.073 99.3783L106.952 100.009C106.952 99.9388 107.022 99.7987 107.022 99.7286C107.022 99.6585 107.022 99.5885 107.092 99.5184C107.162 99.3082 107.232 99.028 107.302 98.8178C107.302 98.7477 107.373 98.6776 107.373 98.6076C107.373 98.5375 107.443 98.4674 107.443 98.3974C107.513 98.2572 107.513 98.1872 107.583 98.1171C107.583 98.047 107.653 97.977 107.653 97.977C107.653 97.9069 107.723 97.9069 107.723 97.8368C107.793 97.6967 107.863 97.5566 107.933 97.4865C108.003 97.4164 108.003 97.3464 108.073 97.2763C108.283 96.996 108.494 96.6457 108.774 96.4355C108.774 96.3655 108.844 96.3655 108.844 96.2954C108.914 96.2253 108.914 96.2253 108.984 96.1553C109.054 96.0852 109.194 95.9451 109.264 95.875C109.334 95.8049 109.334 95.8049 109.404 95.7349C109.615 95.5947 109.825 95.3845 110.035 95.2444C110.806 94.7539 111.576 94.6839 112.137 94.8941C112.137 94.8941 112.137 94.8941 112.207 94.8941C112.277 94.8941 112.347 94.9641 112.347 94.9641L112.557 95.1043C113.118 95.3145 113.398 95.7349 113.468 96.3655Z" fill="#F1F2F2" stroke="#231F20" stroke-width="0.157578" stroke-miterlimit="10" stroke-linecap="round" stroke-linejoin="round"/>
        <path opacity="0.2" d="M108.213 97.1362C108.143 97.2063 108.143 97.2763 108.073 97.3464C108.003 97.4865 107.933 97.6266 107.863 97.6967C107.863 97.7668 107.793 97.7668 107.793 97.8368C107.793 97.9069 107.723 97.977 107.723 97.977C107.653 98.047 107.653 98.1872 107.583 98.2572C107.583 98.3273 107.513 98.3974 107.513 98.4674C107.513 98.5375 107.443 98.6076 107.443 98.6776C107.373 98.8878 107.232 99.1681 107.232 99.3783C107.232 99.4484 107.162 99.5184 107.162 99.5885C107.162 99.6586 107.092 99.7286 107.092 99.7987L107.022 99.8688L99.8755 102.111V96.0852C99.8755 96.0151 99.8755 95.9451 99.8755 95.875C99.8755 95.8049 99.8755 95.8049 99.8755 95.7349C99.8755 95.7349 99.8755 95.6648 99.8755 95.5947C99.8755 95.3145 99.9456 95.1043 100.016 94.824C100.016 94.754 100.016 94.6839 100.086 94.6138C100.156 94.4036 100.226 94.1234 100.296 93.9132C100.296 93.8431 100.366 93.773 100.366 93.703C100.366 93.6329 100.436 93.5628 100.436 93.4928C100.506 93.4227 100.506 93.2826 100.576 93.2125C100.576 93.1424 100.646 93.0724 100.646 93.0724C100.646 93.0023 100.716 93.0023 100.716 92.9322C100.786 92.8622 100.786 92.7921 100.856 92.722L108.213 97.1362Z" fill="black" stroke="#231F20" stroke-width="0.157578" stroke-miterlimit="10"/>
        <path d="M97.7036 103.232C97.073 103.022 96.3724 103.092 95.5316 103.582C95.3214 103.722 95.1112 103.863 94.901 104.073C94.8309 104.143 94.7609 104.143 94.7609 104.213C94.6207 104.283 94.5507 104.423 94.4806 104.493C94.4105 104.563 94.4105 104.563 94.3405 104.633C94.3405 104.633 94.2704 104.703 94.2704 104.773C93.9902 105.054 93.78 105.334 93.5698 105.614C93.4997 105.684 93.4997 105.754 93.4296 105.824C93.3596 105.965 93.2895 106.105 93.2194 106.175C93.2194 106.245 93.1494 106.245 93.1494 106.315C93.1494 106.385 93.0793 106.455 93.0793 106.455C93.0092 106.525 93.0092 106.665 92.9392 106.735C92.9392 106.805 92.8691 106.875 92.8691 106.945C92.8691 107.016 92.799 107.086 92.799 107.156C92.729 107.366 92.5888 107.646 92.5888 107.856C92.5888 107.926 92.5188 107.996 92.5188 108.067C92.5188 108.207 92.4487 108.277 92.4487 108.347C92.4487 108.347 92.4487 108.347 92.3786 108.347L85.0918 110.589V104.563C85.0918 104.493 85.0918 104.423 85.0918 104.353C85.0918 104.283 85.0918 104.283 85.0918 104.213C85.0918 104.213 85.0918 104.143 85.0918 104.073C85.0918 103.792 85.1619 103.582 85.2319 103.302C85.2319 103.232 85.2319 103.162 85.302 103.092C85.3721 102.882 85.4421 102.601 85.5122 102.391C85.5122 102.321 85.5823 102.251 85.5823 102.181C85.5823 102.111 85.6523 102.041 85.6523 101.971C85.7224 101.901 85.7224 101.761 85.7925 101.691C85.7925 101.62 85.8625 101.55 85.8625 101.55C85.8625 101.48 85.9326 101.48 85.9326 101.41C86.0027 101.27 86.0727 101.13 86.1428 101.06C86.2128 100.99 86.2128 100.92 86.2829 100.85C86.4931 100.569 86.7033 100.219 86.9836 100.009C86.9836 99.9389 87.0536 99.9389 87.0536 99.8688C87.1237 99.7987 87.1237 99.7987 87.1938 99.7287C87.2638 99.6586 87.404 99.5185 87.474 99.4484C87.5441 99.3784 87.5441 99.3784 87.6142 99.3083C87.8244 99.1682 88.0346 98.958 88.2448 98.8178C88.455 98.6777 88.6652 98.6076 88.8753 98.5376C88.9454 98.5376 89.0155 98.4675 89.0855 98.4675C89.576 98.3274 90.0665 98.3974 90.4168 98.5376L90.9073 98.8879L97.7036 103.232Z" fill="#F1F2F2" stroke="#231F20" stroke-width="0.157578" stroke-miterlimit="10" stroke-linecap="round" stroke-linejoin="round"/>
        <path d="M89.0854 98.5376C89.1555 98.5376 89.2256 98.4675 89.2956 98.4675C89.2256 98.5376 89.1555 98.5376 89.0854 98.5376Z" fill="#F1F2F2" stroke="#231F20" stroke-width="0.157578" stroke-miterlimit="10" stroke-linecap="round" stroke-linejoin="round"/>
        <path d="M98.8242 104.773L97.7032 105.404L93.4292 107.786L92.3081 108.417C92.3081 108.347 92.3782 108.207 92.3782 108.137C92.3782 108.067 92.3782 107.996 92.4482 107.926C92.5183 107.716 92.5884 107.436 92.6584 107.226C92.6584 107.156 92.7285 107.086 92.7285 107.016C92.7285 106.945 92.7986 106.875 92.7986 106.805C92.8686 106.665 92.8686 106.595 92.9387 106.525C92.9387 106.455 93.0088 106.385 93.0088 106.385C93.0088 106.315 93.0788 106.315 93.0788 106.245C93.1489 106.105 93.219 105.965 93.289 105.894C93.3591 105.824 93.3591 105.754 93.4292 105.684C93.6394 105.404 93.8496 105.054 94.1298 104.843C94.1298 104.773 94.1999 104.773 94.1999 104.703C94.2699 104.633 94.2699 104.633 94.34 104.563C94.4101 104.493 94.5502 104.353 94.6203 104.283C94.6903 104.213 94.6903 104.213 94.7604 104.143C94.9706 104.003 95.1808 103.792 95.391 103.652C96.1617 103.162 96.9324 103.092 97.493 103.302C97.493 103.302 97.493 103.302 97.563 103.302C97.6331 103.302 97.7032 103.372 97.7032 103.372L97.9134 103.512C98.4739 103.792 98.6841 104.213 98.8242 104.773Z" fill="#F1F2F2" stroke="#231F20" stroke-width="0.157578" stroke-miterlimit="10" stroke-linecap="round" stroke-linejoin="round"/>
        <path opacity="0.2" d="M93.4992 105.544C93.4291 105.614 93.4291 105.684 93.3591 105.754C93.289 105.894 93.2189 106.034 93.1489 106.105C93.1489 106.175 93.0788 106.175 93.0788 106.245C93.0788 106.315 93.0087 106.385 93.0087 106.385C92.9387 106.455 92.9387 106.595 92.8686 106.665C92.8686 106.735 92.7985 106.805 92.7985 106.875C92.7985 106.945 92.7285 107.015 92.7285 107.085C92.6584 107.296 92.5183 107.576 92.5183 107.786C92.5183 107.856 92.4482 107.926 92.4482 107.996C92.4482 108.066 92.3781 108.136 92.3781 108.207L92.3081 108.277L85.0913 110.589V104.563C85.0913 104.493 85.0913 104.423 85.0913 104.353C85.0913 104.283 85.0913 104.283 85.0913 104.213C85.0913 104.213 85.0913 104.143 85.0913 104.073C85.0913 103.792 85.1614 103.582 85.2314 103.302C85.2314 103.232 85.2314 103.162 85.3015 103.092C85.3716 102.882 85.4416 102.601 85.5117 102.391C85.5117 102.321 85.5818 102.251 85.5818 102.181C85.5818 102.111 85.6518 102.041 85.6518 101.971C85.7219 101.901 85.7219 101.76 85.792 101.69C85.792 101.62 85.862 101.55 85.862 101.55C85.862 101.48 85.9321 101.48 85.9321 101.41C86.0022 101.34 86.0022 101.27 86.0722 101.2L93.4992 105.544Z" fill="black" stroke="#231F20" stroke-width="0.157578" stroke-miterlimit="10"/>
        <path d="M126.781 85.7854L105.13 73.6641L110.525 70.5111L132.176 82.6325L126.781 85.7854Z" fill="black" stroke="#231F20" stroke-width="0.14875" stroke-miterlimit="10"/>
        <path d="M126.781 117.595L105.13 105.474L110.525 102.391L132.176 114.512L126.781 117.595Z" fill="black" stroke="#231F20" stroke-width="0.14875" stroke-miterlimit="10"/>
        <path d="M132.176 82.6324V114.512L126.781 117.595V85.7854L132.176 82.6324Z" fill="#F1F2F2" stroke="#231F20" stroke-width="0.157578" stroke-miterlimit="10" stroke-linecap="round" stroke-linejoin="round"/>
        <path d="M105.13 73.6641V105.474L126.781 117.595V85.7854L105.13 73.6641Z" fill="#F1F2F2" stroke="#231F20" stroke-width="0.157578" stroke-miterlimit="10" stroke-linecap="round" stroke-linejoin="round"/>
        <path opacity="0.2" d="M105.13 73.6641V105.474L126.781 117.595V85.7854L105.13 73.6641Z" fill="black" stroke="#231F20" stroke-width="0.157578" stroke-miterlimit="10"/>
        <path d="M130.285 68.6195L129.234 61.4027C129.023 59.8612 127.972 58.53 126.571 57.8293L116.972 53.4152C116.061 52.9948 115.01 53.4853 114.73 54.4662L113.469 58.6701L116.902 65.957L114.099 71.7724L107.513 72.6833L104.36 76.1866C103.66 76.9573 103.87 78.0783 104.711 78.6389L112.698 83.8237C114.029 84.7346 115.781 84.8047 117.252 84.104L125.87 80.0402L130.285 68.6195Z" fill="url(#paint0_linear_1_19911)" stroke="#231F20" stroke-width="0.27718" stroke-miterlimit="10" stroke-linecap="round" stroke-linejoin="round"/>
        <path opacity="0.2" d="M104.641 78.6388L112.698 83.8236C114.029 84.7345 115.781 84.8046 117.252 84.1039L125.8 80.0401L114.17 71.6322L114.099 71.7723L107.513 72.6832L104.36 76.1865C103.59 76.8871 103.8 78.0783 104.641 78.6388Z" fill="black"/>
        <path d="M112.628 67.2882C112.278 67.9888 112.067 68.7595 111.927 69.4602C111.507 71.7724 112.628 74.0845 114.59 75.3457L120.545 78.9891L123.838 81.021L151.725 98.2572L159.852 81.3013L130.284 68.5493L127.272 67.2882L120.265 64.2753C117.673 63.1543 114.59 64.0651 113.118 66.4474C112.908 66.7276 112.768 67.0079 112.628 67.2882Z" fill="url(#paint1_linear_1_19911)" stroke="#231F20" stroke-width="0.27718" stroke-miterlimit="10" stroke-linecap="round" stroke-linejoin="round"/>
        <path d="M150.533 87.257C150.463 87.3971 150.393 87.4672 150.393 87.6073C150.323 87.7474 150.323 87.8175 150.253 87.9576C150.183 88.0978 150.183 88.2379 150.113 88.308C150.043 88.4481 150.043 88.5182 149.973 88.6583C149.903 88.7984 149.903 88.8685 149.833 89.0086C149.833 89.0787 149.763 89.1487 149.763 89.2188C149.763 89.2889 149.693 89.429 149.693 89.4991L149.623 89.7093C149.623 89.7793 149.552 89.8494 149.552 89.9195C149.552 89.9895 149.482 90.0596 149.482 90.1997C149.412 90.4099 149.412 90.6201 149.342 90.7603C149.342 90.8303 149.342 90.9004 149.342 90.9705C149.342 91.0405 149.342 91.1807 149.272 91.2507C149.272 91.4609 149.202 91.6711 149.202 91.8813C149.202 92.0214 149.202 92.0915 149.202 92.2316C149.202 92.3017 149.202 92.3718 149.202 92.3718C149.202 92.582 149.202 92.7922 149.202 93.0024C149.202 93.0724 149.202 93.1425 149.202 93.2126C149.202 93.703 149.272 94.1234 149.342 94.5438C149.342 94.6139 149.342 94.6139 149.342 94.6839C149.412 94.8241 149.412 95.0343 149.482 95.1744C149.482 95.2445 149.482 95.3145 149.552 95.3145C149.623 95.4547 149.693 95.5948 149.693 95.805C149.693 95.8751 149.763 95.9451 149.763 95.9451C149.763 95.9451 149.763 96.0152 149.833 96.0152C149.903 96.0853 149.903 96.2254 149.973 96.2955C149.973 96.3655 150.043 96.3655 150.043 96.4356C150.043 96.4356 150.043 96.5057 150.113 96.5057C150.113 96.5757 150.183 96.5757 150.183 96.6458C150.253 96.7859 150.393 96.926 150.463 97.0662L150.533 97.1362C150.533 97.1362 150.533 97.1362 150.533 97.2063L150.603 97.2764C150.744 97.4866 150.954 97.6267 151.094 97.7668L151.164 97.8369L151.234 97.907L151.304 97.977C151.374 98.0471 151.514 98.1172 151.584 98.1872C151.725 98.2573 151.865 98.3974 152.075 98.4675C152.145 98.4675 152.425 98.6076 152.916 98.7478C155.438 99.5885 162.935 101.971 168.12 101.48C169.591 101.34 170.852 100.92 171.833 100.219C172.254 99.9389 172.604 99.5885 172.814 99.1681L172.884 99.0981C172.954 99.028 172.954 98.958 173.025 98.8879C173.095 98.8178 173.095 98.7478 173.095 98.6777C173.095 98.6777 173.095 98.6076 173.165 98.6076C173.165 98.6076 173.165 98.5376 173.235 98.5376C173.235 98.4675 173.305 98.3974 173.305 98.3274C173.305 98.2573 173.305 98.1872 173.375 98.1872C173.375 98.1172 173.445 98.0471 173.445 97.977C173.445 97.907 173.445 97.8369 173.515 97.7668V97.6968C173.515 97.6267 173.515 97.5566 173.515 97.4866C173.515 97.4165 173.515 97.3464 173.515 97.2764V97.2063C173.515 97.1362 173.515 97.1362 173.515 97.0662C173.515 96.9961 173.515 96.856 173.515 96.7859V96.7158C173.515 96.6458 173.515 96.6458 173.515 96.5757C173.515 96.5057 173.515 96.4356 173.515 96.3655C172.954 92.3718 167.84 87.4672 164.126 84.4543C164.056 84.3843 163.986 84.3142 163.916 84.2441C163.496 83.8938 163.145 83.6136 162.795 83.3333C162.725 83.3333 162.725 83.2632 162.655 83.2632C162.375 83.053 162.094 82.7728 161.814 82.6326C161.814 82.6326 161.744 82.6326 161.744 82.5626C161.744 82.5626 161.674 82.5626 161.674 82.4925C160.833 81.8619 160.343 81.5116 160.343 81.5116C160.202 81.4415 159.992 81.3714 159.852 81.3014C159.502 81.1613 159.151 81.0912 158.801 81.0912C158.591 81.0912 158.381 81.0912 158.1 81.0912H158.03C157.96 81.0912 157.89 81.0912 157.82 81.0912H157.75C157.68 81.0912 157.68 81.0912 157.61 81.0912C157.54 81.0912 157.47 81.0912 157.4 81.0912C157.05 81.1613 156.699 81.2313 156.419 81.3714C156.349 81.3714 156.209 81.4415 156.139 81.5116C155.718 81.6517 155.368 81.8619 154.948 82.1422C154.877 82.1422 154.877 82.2122 154.807 82.2122C154.737 82.2823 154.667 82.2823 154.597 82.3524C154.527 82.4224 154.457 82.4224 154.387 82.4925C154.317 82.5626 154.247 82.5626 154.247 82.6326C154.177 82.7027 154.107 82.7728 154.037 82.7728C153.967 82.8428 153.967 82.8428 153.897 82.9129C153.826 82.983 153.686 83.053 153.616 83.1231C153.546 83.1932 153.546 83.1932 153.476 83.2632C153.406 83.3333 153.406 83.3333 153.336 83.4034C153.266 83.4734 153.266 83.4734 153.196 83.5435C153.126 83.6136 153.126 83.6136 153.056 83.6836C152.986 83.7537 152.916 83.8238 152.846 83.9639C152.776 84.0339 152.705 84.104 152.705 84.1741C152.495 84.3843 152.355 84.5945 152.145 84.8747C152.075 84.9448 152.075 85.0149 152.005 85.0849C151.654 85.5053 151.374 85.9958 151.094 86.4862L151.024 86.5563C150.744 86.8366 150.674 87.0468 150.533 87.257Z" fill="url(#paint2_linear_1_19911)"/>
        <path opacity="0.2" d="M113.398 71.8425L119.354 75.4859L122.647 77.5178L150.533 94.824C150.673 94.8941 150.813 95.0342 151.024 95.1043C151.094 95.1043 151.374 95.2444 151.864 95.3846C154.387 96.2254 161.884 98.6076 167.069 98.1171C168.54 97.977 169.801 97.5566 170.782 96.856C171.203 96.5757 171.553 96.2254 171.763 95.805L171.833 95.7349C171.903 95.6648 171.903 95.5948 171.973 95.5247C172.043 95.4546 172.043 95.3846 172.043 95.3145C172.043 95.3145 172.043 95.2444 172.113 95.2444C172.113 95.2444 172.113 95.1744 172.184 95.1744C172.184 95.1043 172.254 95.0342 172.254 94.9642C172.254 94.8941 172.254 94.824 172.324 94.824C172.324 94.754 172.394 94.6839 172.394 94.6139C172.394 94.5438 172.394 94.4737 172.464 94.4037V94.3336C172.464 94.2635 172.464 94.1935 172.464 94.1234C172.464 94.0533 172.464 93.9833 172.464 93.9132V93.8431C172.464 93.7731 172.464 93.7731 172.464 93.703C172.464 93.6329 172.464 93.4928 172.464 93.4227C173.024 94.4737 173.445 95.5247 173.585 96.5056C173.585 96.5757 173.585 96.6458 173.585 96.7158C173.585 96.7859 173.585 96.7859 173.585 96.856V96.926C173.585 96.9961 173.585 97.1362 173.585 97.2063C173.585 97.2764 173.585 97.2763 173.585 97.3464V97.4165C173.585 97.4865 173.585 97.5566 173.585 97.6267C173.585 97.6967 173.585 97.7668 173.585 97.8369V97.9069C173.585 97.977 173.585 98.0471 173.515 98.1171C173.515 98.1872 173.515 98.2573 173.445 98.3273C173.445 98.3974 173.445 98.4675 173.375 98.4675C173.375 98.5375 173.305 98.6076 173.305 98.6777C173.305 98.6777 173.305 98.7477 173.235 98.7477C173.235 98.7477 173.235 98.8178 173.164 98.8178C173.164 98.8879 173.094 98.9579 173.094 99.028C173.094 99.0981 173.024 99.1681 172.954 99.2382L172.884 99.3083C172.604 99.7287 172.254 100.079 171.903 100.359C170.992 101.06 169.661 101.48 168.19 101.62C163.005 102.181 155.508 99.7987 152.986 98.8879C152.495 98.7477 152.215 98.6076 152.145 98.6076C152.005 98.5375 151.864 98.4675 151.654 98.3273L123.768 81.0912L120.475 79.0593L114.519 75.4158C112.768 74.3648 111.717 72.4731 111.717 70.5112C112.277 71.0017 112.768 71.4922 113.398 71.8425Z" fill="black"/>
        <path d="M105.131 65.3263C107.864 67.078 110.456 68.4092 112.628 69.3901H112.698C112.838 69.4602 112.978 69.5303 113.119 69.6003C114.45 70.2309 115.641 70.7214 116.762 71.0717C117.042 71.1418 117.252 71.2819 117.533 71.352C120.265 72.3329 121.947 72.6132 121.947 72.6132C121.947 72.6132 121.737 72.0526 121.246 71.1418C121.036 70.7214 120.686 70.2309 120.335 69.6704C119.915 69.1099 119.424 68.5493 118.864 67.9188C117.813 66.8678 116.482 65.8868 114.73 64.976C114.24 64.7658 113.819 64.5556 113.259 64.3454C113.259 64.3454 113.049 64.2753 112.628 64.1352C112.418 64.0651 112.208 63.9951 111.927 63.8549C110.036 63.2243 106.673 62.1734 104.571 62.3135C104.571 62.4536 103.87 63.2243 105.131 65.3263Z" fill="#D1D2D3" stroke="#221F1F" stroke-width="0.358246" stroke-miterlimit="10" stroke-linecap="round" stroke-linejoin="round"/>
        <path opacity="0.2" d="M111.647 66.4474C111.857 66.5174 111.997 66.5875 112.137 66.6576C113.469 67.2882 114.66 67.7786 115.781 68.1289C116.061 68.199 116.271 68.3391 116.552 68.4092C118.163 68.9697 119.424 69.3201 120.195 69.5303C120.265 69.6003 120.335 69.7405 120.405 69.8105C120.826 70.3711 121.106 70.8615 121.316 71.2819C121.807 72.1227 122.017 72.7533 122.017 72.7533C121.947 72.7533 120.335 72.473 117.603 71.4921C117.392 71.422 117.112 71.352 116.832 71.2118C115.781 70.7914 114.52 70.301 113.188 69.7405C113.048 69.6704 112.908 69.6003 112.768 69.5303H112.698C110.456 68.4793 107.934 67.148 105.201 65.4665C104.22 63.7849 104.43 62.9441 104.57 62.7339C107.093 64.2053 109.545 65.4665 111.647 66.4474Z" fill="black"/>
        <path d="M105.131 65.3263C105.131 65.3263 108.074 68.6194 112.769 70.7914C112.839 70.7914 112.839 70.8615 112.909 70.8615C113.679 71.2118 114.45 71.5621 115.361 71.8424C115.992 72.0526 116.692 72.1927 117.393 72.4029C117.743 72.473 118.094 72.5431 118.514 72.6131C118.584 72.6131 118.724 72.6131 118.794 72.6832C118.934 72.6832 119.074 72.7533 119.285 72.7533C119.355 72.7533 119.495 72.7533 119.565 72.7533C119.775 72.7533 119.985 72.7533 120.266 72.8233C120.336 72.8233 120.476 72.8233 120.546 72.8233C120.616 72.8233 120.686 72.8233 120.686 72.8233C120.756 72.8233 120.756 72.8233 120.826 72.8233C120.896 72.8233 120.966 72.8233 121.036 72.8233C121.106 72.8233 121.176 72.8233 121.246 72.8233C121.317 72.8233 121.387 72.8233 121.457 72.8233C121.597 72.8233 121.807 72.8233 121.947 72.8233C121.877 72.8233 120.266 72.5431 117.533 71.5621C117.323 71.4921 117.043 71.422 116.762 71.2819C115.711 70.8615 114.45 70.371 113.119 69.8105C112.979 69.7404 112.839 69.6704 112.698 69.6003H112.628C110.456 68.4092 107.934 67.0779 105.131 65.3263Z" fill="#D1D2D3" stroke="#221F1F" stroke-width="0.358246" stroke-miterlimit="10" stroke-linecap="round" stroke-linejoin="round"/>
        <path opacity="0.2" d="M150.533 70.5814V82.3524L129.163 70.0209L129.233 69.8807L129.093 69.9508V59.6511L150.533 70.5814Z" fill="black" stroke="#231F20" stroke-width="0.157578" stroke-miterlimit="10"/>
        <path d="M155.508 67.8488V79.4096C154.387 78.7089 150.954 78.5688 150.534 82.2823V76.5369L150.604 70.6514L155.508 67.8488Z" fill="#F1F2F2" stroke="#231F20" stroke-width="0.157578" stroke-miterlimit="10" stroke-linecap="round" stroke-linejoin="round"/>
        <path opacity="0.2" d="M150.533 82.3523L136.73 89.0086L128.112 83.9638L138.271 76.7471L150.533 82.3523Z" fill="black" stroke="#231F20" stroke-width="0.157578" stroke-miterlimit="10"/>
        <path d="M77.5939 100.499L76.5429 93.2826C76.3327 91.7411 75.2817 90.4099 73.8804 89.7092L64.2814 85.2951C63.3706 84.8747 62.3196 85.3651 62.0393 86.3461L60.7781 90.55L64.2114 97.9069L61.3387 103.722L54.7525 104.633L51.5995 108.137C50.8989 108.907 51.1091 110.028 51.9498 110.589L60.0775 115.774C61.4087 116.685 63.1604 116.755 64.6317 116.054L73.2498 111.99L77.5939 100.499Z" fill="url(#paint3_linear_1_19911)" stroke="#231F20" stroke-width="0.27718" stroke-miterlimit="10" stroke-linecap="round" stroke-linejoin="round"/>
        <path opacity="0.2" d="M51.9497 110.519L60.0773 115.704C61.4086 116.615 63.1602 116.685 64.6316 115.984L73.1096 111.99L61.4786 103.512L61.4086 103.652L54.8224 104.563L51.6694 108.066C50.8987 108.767 51.1089 109.958 51.9497 110.519Z" fill="black"/>
        <path d="M59.9374 99.168C59.5871 99.8687 59.3769 100.639 59.2368 101.34C58.8164 103.652 59.9374 105.964 61.8993 107.226L67.8549 110.869L71.148 112.901L99.0341 130.137L107.162 113.181L77.594 100.499L74.5812 99.2381L67.5746 96.2253C64.9822 95.1042 61.8993 96.0151 60.4279 98.3973C60.2177 98.6075 60.0776 98.8878 59.9374 99.168Z" fill="url(#paint4_linear_1_19911)" stroke="#231F20" stroke-width="0.27718" stroke-miterlimit="10" stroke-linecap="round" stroke-linejoin="round"/>
        <path d="M97.843 119.137C97.7729 119.277 97.7028 119.347 97.7028 119.487C97.6328 119.627 97.6328 119.697 97.5627 119.838C97.4926 119.978 97.4926 120.118 97.4226 120.188C97.3525 120.328 97.2824 120.398 97.2824 120.538C97.2124 120.678 97.2124 120.748 97.1423 120.888C97.1423 120.959 97.0722 121.029 97.0722 121.099C97.0722 121.169 97.0022 121.309 97.0022 121.379L96.9321 121.589C96.9321 121.659 96.862 121.729 96.862 121.799C96.862 121.869 96.792 121.939 96.792 122.08C96.7219 122.29 96.7219 122.5 96.6518 122.64C96.6518 122.71 96.6518 122.78 96.6518 122.85C96.6518 122.92 96.6518 123.061 96.5818 123.131C96.5818 123.341 96.5117 123.551 96.5117 123.761C96.5117 123.901 96.5117 123.971 96.5117 124.112C96.5117 124.182 96.5117 124.252 96.5117 124.252C96.5117 124.462 96.5117 124.672 96.5117 124.882C96.5117 124.952 96.5117 125.022 96.5117 125.092C96.5117 125.583 96.5818 126.003 96.6518 126.424C96.6518 126.494 96.6518 126.494 96.6518 126.564C96.7219 126.704 96.7219 126.914 96.792 127.054C96.792 127.124 96.792 127.194 96.862 127.194C96.9321 127.335 97.0022 127.475 97.0022 127.685C97.0022 127.755 97.0722 127.825 97.0722 127.825C97.0722 127.825 97.0722 127.895 97.1423 127.895C97.2124 127.965 97.2124 128.105 97.2824 128.175C97.2824 128.245 97.3525 128.245 97.3525 128.315C97.3525 128.315 97.3525 128.386 97.4226 128.386C97.4226 128.456 97.4926 128.456 97.4926 128.526C97.5627 128.666 97.7028 128.806 97.7729 128.946L97.843 129.016C97.843 129.016 97.843 129.016 97.843 129.086L97.913 129.156C98.0532 129.366 98.2634 129.507 98.4035 129.647L98.4736 129.717L98.5436 129.787L98.6137 129.857C98.6838 129.927 98.8239 129.997 98.894 130.067C99.0341 130.137 99.1742 130.277 99.3844 130.347C99.4545 130.347 99.7347 130.488 100.225 130.628C102.748 131.468 110.245 133.851 115.429 133.36C116.901 133.22 118.162 132.8 119.143 132.099C119.563 131.819 119.914 131.468 120.124 131.048L120.194 130.978C120.264 130.908 120.264 130.838 120.334 130.768C120.404 130.698 120.404 130.628 120.404 130.558C120.404 130.558 120.404 130.488 120.474 130.488C120.474 130.488 120.474 130.417 120.544 130.417C120.544 130.347 120.614 130.277 120.614 130.207C120.614 130.137 120.614 130.067 120.684 130.067C120.684 129.997 120.754 129.927 120.754 129.857C120.754 129.787 120.754 129.717 120.825 129.647V129.577C120.825 129.507 120.825 129.437 120.825 129.366C120.825 129.296 120.825 129.226 120.825 129.156V129.086C120.825 129.016 120.825 129.016 120.825 128.946C120.825 128.876 120.825 128.736 120.825 128.666V128.596C120.825 128.526 120.825 128.526 120.825 128.456C120.825 128.386 120.825 128.315 120.825 128.245C120.264 124.252 115.149 119.347 111.436 116.334C111.366 116.264 111.296 116.194 111.226 116.124C110.805 115.774 110.455 115.493 110.104 115.213C110.034 115.213 110.034 115.143 109.964 115.143C109.684 114.933 109.404 114.653 109.124 114.513C109.124 114.513 109.053 114.513 109.053 114.442C109.053 114.442 108.983 114.442 108.983 114.372C108.143 113.742 107.652 113.391 107.652 113.391C107.512 113.321 107.302 113.251 107.162 113.181C106.811 113.041 106.461 112.971 106.111 112.971C105.901 112.971 105.69 112.971 105.41 112.971H105.34C105.27 112.971 105.2 112.971 105.13 112.971H105.06C104.99 112.971 104.99 112.971 104.92 112.971C104.85 112.971 104.779 112.971 104.709 112.971C104.359 113.041 104.009 113.111 103.728 113.251C103.658 113.251 103.518 113.321 103.448 113.391C103.028 113.532 102.678 113.742 102.257 114.022C102.187 114.022 102.187 114.092 102.117 114.092C102.047 114.162 101.977 114.162 101.907 114.232C101.837 114.302 101.767 114.302 101.697 114.372C101.627 114.442 101.556 114.442 101.556 114.513C101.486 114.583 101.416 114.653 101.346 114.653C101.276 114.723 101.276 114.723 101.206 114.793C101.136 114.863 100.996 114.933 100.926 115.003C100.856 115.073 100.856 115.073 100.786 115.143C100.716 115.213 100.716 115.213 100.646 115.283C100.576 115.353 100.576 115.353 100.505 115.423C100.435 115.493 100.435 115.493 100.365 115.564C100.295 115.634 100.225 115.704 100.155 115.844C100.085 115.914 100.015 115.984 100.015 116.054C99.8048 116.264 99.6647 116.474 99.4545 116.755C99.3844 116.825 99.3844 116.895 99.3143 116.965C98.964 117.385 98.6838 117.876 98.4035 118.366L98.3334 118.436C98.0532 118.646 97.9831 118.927 97.843 119.137Z" fill="url(#paint5_linear_1_19911)"/>
        <path opacity="0.2" d="M60.7077 103.722L66.6633 107.366L69.9564 109.398L97.8426 126.634C97.9827 126.704 98.1228 126.844 98.333 126.914C98.4031 126.914 98.6833 127.054 99.1738 127.194C101.696 128.035 109.193 130.417 114.378 129.927C115.849 129.787 117.111 129.366 118.092 128.666C118.512 128.386 118.862 128.035 119.072 127.615L119.143 127.545C119.213 127.475 119.213 127.405 119.283 127.335C119.353 127.264 119.353 127.194 119.353 127.124C119.353 127.124 119.353 127.054 119.423 127.054C119.423 127.054 119.423 126.984 119.493 126.984C119.493 126.914 119.563 126.844 119.563 126.774C119.563 126.704 119.563 126.634 119.633 126.634C119.633 126.564 119.703 126.494 119.703 126.424C119.703 126.354 119.703 126.284 119.773 126.213V126.143C119.773 126.073 119.773 126.003 119.773 125.933C119.773 125.863 119.773 125.793 119.773 125.723V125.653C119.773 125.583 119.773 125.583 119.773 125.513C119.773 125.443 119.773 125.303 119.773 125.233C120.334 126.284 120.754 127.335 120.894 128.315C120.894 128.386 120.894 128.456 120.894 128.526C120.894 128.596 120.894 128.596 120.894 128.666V128.736C120.894 128.806 120.894 128.946 120.894 129.016C120.894 129.086 120.894 129.086 120.894 129.156V129.226C120.894 129.296 120.894 129.366 120.894 129.436C120.894 129.507 120.894 129.577 120.894 129.647V129.717C120.894 129.787 120.894 129.857 120.824 129.927C120.824 129.997 120.824 130.067 120.754 130.137C120.754 130.207 120.754 130.277 120.684 130.277C120.684 130.347 120.614 130.417 120.614 130.487C120.614 130.487 120.614 130.558 120.544 130.558C120.544 130.558 120.544 130.628 120.474 130.628C120.474 130.698 120.404 130.768 120.404 130.838C120.404 130.908 120.334 130.978 120.264 131.048L120.194 131.118C119.913 131.538 119.563 131.889 119.213 132.169C118.302 132.87 116.971 133.29 115.499 133.43C110.314 133.991 102.817 131.609 100.295 130.698C99.8044 130.558 99.5241 130.417 99.4541 130.417C99.3139 130.347 99.1738 130.277 98.9636 130.137L71.1475 112.901L67.8544 110.869L61.8988 107.226C60.1472 106.175 59.0962 104.283 59.0962 102.321C59.5867 102.882 60.0771 103.372 60.7077 103.722Z" fill="black"/>
        <path d="M52.4406 97.2062C55.1732 98.9579 57.7656 100.289 59.9377 101.27H60.0078C60.1479 101.34 60.288 101.41 60.4281 101.48C61.7594 102.111 62.9505 102.601 64.0716 102.952C64.3518 103.022 64.562 103.162 64.8423 103.232C67.5749 104.213 69.2564 104.493 69.2564 104.493C69.2564 104.493 69.0462 103.933 68.5558 103.022C68.3456 102.601 67.9952 102.111 67.6449 101.55C67.2245 100.99 66.7341 100.429 66.1735 99.7987C65.1226 98.7477 63.7913 97.7668 62.0397 96.8559C61.5492 96.6457 61.1288 96.4355 60.5683 96.2253C60.5683 96.2253 60.3581 96.1553 59.9377 96.0151C59.7275 95.9451 59.5173 95.875 59.237 95.7349C57.3453 95.2444 53.912 94.1934 51.8801 94.3335C51.8801 94.3335 51.1795 95.1043 52.4406 97.2062Z" fill="#D1D2D3" stroke="#221F1F" stroke-width="0.358246" stroke-miterlimit="10" stroke-linecap="round" stroke-linejoin="round"/>
        <path opacity="0.2" d="M58.9568 98.3272C59.167 98.3973 59.3071 98.4674 59.4473 98.5374C60.7785 99.168 61.9696 99.6585 63.0907 100.009C63.3709 100.079 63.5811 100.219 63.8614 100.289C65.4729 100.85 66.7341 101.2 67.5048 101.41C67.5749 101.48 67.645 101.62 67.715 101.69C68.1354 102.251 68.4157 102.741 68.6259 103.162C69.1163 104.003 69.3265 104.633 69.3265 104.633C69.2565 104.633 67.645 104.353 64.9124 103.372C64.7022 103.302 64.4219 103.232 64.1417 103.092C63.0907 102.671 61.8295 102.181 60.4982 101.62C60.3581 101.55 60.218 101.48 60.0779 101.41H60.0078C57.7657 100.289 55.2433 98.9578 52.4407 97.2062C51.4598 95.5246 51.67 94.6838 51.8101 94.4736C54.4025 96.0851 56.8548 97.3463 58.9568 98.3272Z" fill="black"/>
        <path d="M52.4409 97.2062C52.4409 97.2062 55.3837 100.499 60.0781 102.671C60.1482 102.671 60.1482 102.741 60.2182 102.741C60.9889 103.092 61.7597 103.442 62.6705 103.722C63.3011 103.932 64.0018 104.073 64.7024 104.283C65.0528 104.353 65.4031 104.423 65.8235 104.493C65.8935 104.493 66.0337 104.493 66.1037 104.563C66.2439 104.563 66.384 104.633 66.5942 104.633C66.6643 104.633 66.8044 104.633 66.8745 104.633C67.0847 104.633 67.2949 104.633 67.5751 104.703C67.6452 104.703 67.7853 104.703 67.8554 104.703C67.9255 104.703 67.9955 104.703 67.9955 104.703C68.0656 104.703 68.0656 104.703 68.1356 104.703C68.2057 104.703 68.2758 104.703 68.3458 104.703C68.4159 104.703 68.486 104.703 68.556 104.703C68.6261 104.703 68.6962 104.703 68.7662 104.703C68.9064 104.703 69.1166 104.703 69.2567 104.703C69.1866 104.703 67.5751 104.423 64.8426 103.442C64.6324 103.372 64.3521 103.302 64.0718 103.162C63.0208 102.741 61.7597 102.251 60.4284 101.69C60.2883 101.62 60.1482 101.55 60.008 101.48H59.938C57.7659 100.289 55.2435 98.9578 52.4409 97.2062Z" fill="#D1D2D3" stroke="#221F1F" stroke-width="0.358246" stroke-miterlimit="10" stroke-linecap="round" stroke-linejoin="round"/>
        <path d="M97.843 102.461V114.232L76.4729 101.901V101.831L76.543 101.76L76.4028 101.831V91.5309L97.843 102.461Z" fill="#F1F2F2" stroke="#231F20" stroke-width="0.157578" stroke-miterlimit="10" stroke-linecap="round" stroke-linejoin="round"/>
        <path opacity="0.2" d="M150.533 70.5813V82.3523L129.163 70.0207L129.233 69.8806L129.093 69.9507V59.651L150.533 70.5813Z" fill="black" stroke="#231F20" stroke-width="0.157578" stroke-miterlimit="10"/>
        <path opacity="0.2" d="M97.843 102.461V114.232L76.4729 101.901V101.831L76.543 101.76L76.4028 101.831V91.5309L97.843 102.461Z" fill="black" stroke="#231F20" stroke-width="0.157578" stroke-miterlimit="10"/>
        <path d="M102.817 99.7285V111.289C101.696 110.589 98.2632 110.449 97.8428 114.162V108.487L97.9128 102.601L102.817 99.7285Z" fill="#F1F2F2" stroke="#231F20" stroke-width="0.157578" stroke-miterlimit="10" stroke-linecap="round" stroke-linejoin="round"/>
        <path opacity="0.2" d="M97.8434 114.232L88.0342 114.022L74.4414 106.245C72.6898 105.264 72.5496 102.812 74.1611 101.62L76.4032 99.9388L76.3332 101.761L97.8434 114.232Z" fill="black" stroke="#231F20" stroke-width="0.157578" stroke-miterlimit="10"/>
        <path d="M150.463 74.2247L108.073 98.6777L88.6648 102.391L68.0654 90.48L136.309 51.103L156.909 63.0142L150.463 74.2247Z" fill="#F1F2F2" stroke="#231F20" stroke-width="0.157578" stroke-miterlimit="10" stroke-linecap="round" stroke-linejoin="round"/>
        <path d="M68.0654 90.4799V94.4736L88.6648 106.315V102.391L68.0654 90.4799Z" fill="#F1F2F2" stroke="#231F20" stroke-width="0.157578" stroke-miterlimit="10" stroke-linecap="round" stroke-linejoin="round"/>
        <path opacity="0.2" d="M68.0654 90.4799V94.4736L88.6648 106.315V102.391L68.0654 90.4799Z" fill="black" stroke="#231F20" stroke-width="0.157578" stroke-miterlimit="10"/>
        <path d="M108.073 98.6777V102.671L88.6646 106.315V102.391L108.073 98.6777Z" fill="#F7F7F7" stroke="#231F20" stroke-width="0.157578" stroke-miterlimit="10" stroke-linecap="round" stroke-linejoin="round"/>
        <path d="M150.463 74.2246V78.1483L108.073 102.671V98.6776L150.463 74.2246Z" fill="#F7F7F7" stroke="#231F20" stroke-width="0.157578" stroke-miterlimit="10" stroke-linecap="round" stroke-linejoin="round"/>
        <path d="M156.909 63.0142V66.9378L150.463 78.1484V74.2247L156.909 63.0142Z" fill="#F7F7F7" stroke="#231F20" stroke-width="0.157578" stroke-miterlimit="10" stroke-linecap="round" stroke-linejoin="round"/>
    </g>
    <defs>
        <linearGradient id="paint0_linear_1_19911" x1="112.104" y1="83.5645" x2="125.318" y2="57.1878" gradientUnits="userSpaceOnUse">
            <stop stop-color="#D1D2D3"/>
            <stop offset="0.3636" stop-color="#A7A8AB"/>
            <stop offset="0.6738" stop-color="#F1F1F1"/>
            <stop offset="1" stop-color="#E5E6E6"/>
        </linearGradient>
        <linearGradient id="paint1_linear_1_19911" x1="129.908" y1="87.3549" x2="138.33" y2="70.5451" gradientUnits="userSpaceOnUse">
            <stop stop-color="#D1D2D3"/>
            <stop offset="0.3636" stop-color="#A7A8AB"/>
            <stop offset="0.6738" stop-color="#F1F1F1"/>
            <stop offset="1" stop-color="#E5E6E6"/>
        </linearGradient>
        <linearGradient id="paint2_linear_1_19911" x1="157.724" y1="101.319" x2="166.177" y2="84.4483" gradientUnits="userSpaceOnUse">
            <stop stop-color="#BE1E2D"/>
            <stop offset="0.3636" stop-color="#AA1E23"/>
            <stop offset="0.6989" stop-color="#F5828A"/>
            <stop offset="1" stop-color="#BE1E2D"/>
        </linearGradient>
        <linearGradient id="paint3_linear_1_19911" x1="59.4145" y1="115.437" x2="72.6292" y2="89.0599" gradientUnits="userSpaceOnUse">
            <stop stop-color="#D1D2D3"/>
            <stop offset="0.3636" stop-color="#A7A8AB"/>
            <stop offset="0.6738" stop-color="#F1F1F1"/>
            <stop offset="1" stop-color="#E5E6E6"/>
        </linearGradient>
        <linearGradient id="paint4_linear_1_19911" x1="77.2196" y1="119.227" x2="85.6413" y2="102.417" gradientUnits="userSpaceOnUse">
            <stop stop-color="#D1D2D3"/>
            <stop offset="0.3636" stop-color="#A7A8AB"/>
            <stop offset="0.6738" stop-color="#F1F1F1"/>
            <stop offset="1" stop-color="#E5E6E6"/>
        </linearGradient>
        <linearGradient id="paint5_linear_1_19911" x1="105.035" y1="133.191" x2="113.488" y2="116.32" gradientUnits="userSpaceOnUse">
            <stop stop-color="#BE1E2D"/>
            <stop offset="0.3636" stop-color="#AA1E23"/>
            <stop offset="0.6989" stop-color="#F5828A"/>
            <stop offset="1" stop-color="#BE1E2D"/>
        </linearGradient>
        <clipPath id="">
            <rect width="122.545" height="82.4674" fill="white" transform="translate(51.0391 51.033)"/>
        </clipPath>
    </defs>
</svg>
