<svg width="230" height="230" viewBox="0 0 230 230" fill="none"
    xmlns="http://www.w3.org/2000/svg">
    <g clip-path="url(#)">
        <path d="M86.7733 102.391L87.4739 131.258L60.3585 116.474L53.0716 105.334L49.4983 103.372L49.0078 84.7345L58.1864 86.7664L86.7733 102.391Z" fill="#F1F2F2" stroke="#231F20" stroke-width="0.17068" stroke-miterlimit="10" stroke-linecap="round" stroke-linejoin="round"/>
        <path d="M98.4044 111.99L98.9649 134.271L87.4741 131.258L86.7734 102.391L98.4044 111.99Z" fill="#F1F2F2" stroke="#231F20" stroke-width="0.17068" stroke-miterlimit="10" stroke-linecap="round" stroke-linejoin="round"/>
        <path opacity="0.2" d="M86.7733 102.391L87.4739 131.258L60.3585 116.474L53.0716 105.334L49.4983 103.372L49.0078 84.7345L58.1864 86.7664L86.7733 102.391Z" fill="black" stroke="#231F20" stroke-width="0.17068" stroke-miterlimit="10"/>
        <path opacity="0.2" d="M98.4044 111.99L98.9649 134.271L87.4741 131.258L86.7734 102.391L98.4044 111.99Z" fill="black" stroke="#231F20" stroke-width="0.17068" stroke-miterlimit="10"/>
        <path d="M160.622 77.0272L161.183 99.3081L157.75 101.27C157.96 100.499 158.1 99.6585 158.1 98.6775C158.03 93.3525 154.176 86.9065 149.552 84.3141L141.284 89.0785L139.743 89.9894L138.551 90.69L138.832 109.958C139.252 110.168 139.602 110.379 140.023 110.519C140.373 110.659 140.724 110.729 141.004 110.869L99.0344 134.341L98.4038 111.99L137.991 89.8493L149.412 83.3331L160.622 77.0272Z" fill="#F7F7F7" stroke="#231F20" stroke-width="0.17068" stroke-miterlimit="10" stroke-linecap="round" stroke-linejoin="round"/>
        <path opacity="0.2" d="M141.074 110.799L135.539 113.952L134.488 103.933C134.208 101.41 134.628 98.8879 135.749 96.6458L138.622 90.6201L141.074 110.799Z" fill="black" stroke="#231F20" stroke-width="0.17068" stroke-miterlimit="10"/>
        <path d="M160.623 77.0272L149.412 83.4032L137.992 89.8493L98.4044 111.99L86.7734 102.391L93.8501 98.3973L148.992 67.4282L160.623 77.0272Z" fill="#F1F2F2" stroke="#231F20" stroke-width="0.17068" stroke-miterlimit="10" stroke-linecap="round" stroke-linejoin="round"/>
        <path d="M148.991 67.4283L93.8495 98.3973L86.8429 102.391L58.186 86.7664C59.0969 86.4861 102.117 62.3135 111.436 56.9885C116.551 54.0457 120.404 51.8036 120.404 51.8036L148.991 67.4283Z" fill="#F1F2F2" stroke="#231F20" stroke-width="0.17068" stroke-miterlimit="10" stroke-linecap="round" stroke-linejoin="round"/>
        <path d="M120.335 51.8035C120.335 51.8035 116.481 54.0456 111.366 56.9884C102.048 62.3834 59.0272 86.4861 58.1164 86.7663L49.0078 84.6644L111.226 49.7015L120.335 51.8035Z" fill="#F1F2F2" stroke="#231F20" stroke-width="0.17068" stroke-miterlimit="10" stroke-linecap="round" stroke-linejoin="round"/>
        <path d="M147.029 104.983C147.029 105.964 146.959 106.805 146.749 107.506C146.469 108.627 145.908 109.538 145.138 110.098C144.087 110.939 142.615 111.219 140.934 110.799C140.583 110.729 140.303 110.589 139.953 110.449C139.532 110.308 139.182 110.098 138.762 109.888L138.481 90.62C138.902 90.8302 139.252 91.1105 139.673 91.3907C140.443 91.9512 141.214 92.6519 141.915 93.3526C143.877 95.4545 145.488 98.117 146.329 100.85C146.749 102.251 147.029 103.652 147.029 104.983Z" fill="#F1F2F2" stroke="#231F20" stroke-width="0.17068" stroke-miterlimit="10" stroke-linecap="round" stroke-linejoin="round"/>
        <path opacity="0.2" d="M147.029 104.983C147.029 105.964 146.959 106.805 146.749 107.506C146.469 108.627 145.908 109.538 145.138 110.098C144.087 110.939 142.615 111.219 140.934 110.799C140.583 110.729 140.303 110.589 139.953 110.449C139.532 110.308 139.182 110.098 138.762 109.888L138.481 90.62C138.902 90.8302 139.252 91.1105 139.673 91.3907C140.443 91.9512 141.214 92.6519 141.915 93.3526C143.877 95.4545 145.488 98.117 146.329 100.85C146.749 102.251 147.029 103.652 147.029 104.983Z" fill="black" stroke="#231F20" stroke-width="0.17068" stroke-miterlimit="10"/>
        <path d="M155.857 103.932C155.647 104.073 155.507 104.143 155.297 104.283L155.857 103.932Z" fill="white" stroke="#231F20" stroke-width="0.17068" stroke-miterlimit="10"/>
        <path d="M158.03 98.6776C158.03 99.6585 157.96 100.499 157.679 101.27C157.329 102.461 156.699 103.372 155.858 104.003L155.297 104.353L149.832 107.506L145.138 110.168C145.908 109.608 146.399 108.697 146.749 107.576C146.959 106.805 147.1 105.964 147.029 105.054C147.029 103.722 146.749 102.321 146.329 100.92C145.488 98.1871 143.877 95.5246 141.915 93.4226C141.214 92.6519 140.443 92.0213 139.673 91.4608C139.252 91.1805 138.902 90.9003 138.481 90.6901L139.673 89.9894L141.214 89.0786L149.482 84.3141C154.106 86.9065 157.96 93.3526 158.03 98.6776Z" fill="#F1F2F2" stroke="#231F20" stroke-width="0.17068" stroke-miterlimit="10" stroke-linecap="round" stroke-linejoin="round"/>
        <path opacity="0.2" d="M115.43 125.162L109.895 128.315L108.844 118.296C108.564 115.774 108.984 113.251 110.105 111.009L112.978 104.984L115.43 125.162Z" fill="black" stroke="#231F20" stroke-width="0.17068" stroke-miterlimit="10"/>
        <path d="M121.385 119.347C121.385 120.328 121.315 121.169 121.105 121.869C120.825 122.99 120.264 123.901 119.494 124.462C118.443 125.303 116.971 125.583 115.29 125.162C114.939 125.092 114.659 124.952 114.309 124.812C113.888 124.672 113.538 124.462 113.118 124.252L112.837 104.984C113.258 105.194 113.608 105.474 114.029 105.754C114.799 106.315 115.57 107.015 116.271 107.716C118.232 109.818 119.844 112.481 120.685 115.213C121.105 116.614 121.385 118.016 121.385 119.347Z" fill="#F1F2F2" stroke="#231F20" stroke-width="0.17068" stroke-miterlimit="10" stroke-linecap="round" stroke-linejoin="round"/>
        <path opacity="0.2" d="M121.385 119.347C121.385 120.328 121.315 121.169 121.105 121.869C120.825 122.99 120.264 123.901 119.494 124.462C118.443 125.303 116.971 125.583 115.29 125.162C114.939 125.092 114.659 124.952 114.309 124.812C113.888 124.672 113.538 124.462 113.118 124.252L112.837 104.984C113.258 105.194 113.608 105.474 114.029 105.754C114.799 106.315 115.57 107.015 116.271 107.716C118.232 109.818 119.844 112.481 120.685 115.213C121.105 116.614 121.385 118.016 121.385 119.347Z" fill="black" stroke="#231F20" stroke-width="0.17068" stroke-miterlimit="10"/>
        <path d="M130.214 118.366C130.004 118.506 129.864 118.576 129.653 118.716L130.214 118.366Z" fill="white" stroke="#231F20" stroke-width="0.17068" stroke-miterlimit="10"/>
        <path d="M132.386 113.041C132.386 114.022 132.316 114.863 132.035 115.634C131.685 116.825 131.055 117.735 130.214 118.366L129.653 118.716L124.188 121.869L119.494 124.532C120.264 123.971 120.755 123.06 121.105 121.939C121.315 121.169 121.455 120.328 121.385 119.417C121.385 118.086 121.105 116.685 120.685 115.283C119.844 112.551 118.232 109.888 116.271 107.786C115.57 107.015 114.799 106.385 114.029 105.824C113.608 105.544 113.258 105.264 112.837 105.054L114.029 104.353L115.57 103.442L123.838 98.6776C128.462 101.27 132.316 107.716 132.386 113.041Z" fill="#F1F2F2" stroke="#231F20" stroke-width="0.17068" stroke-miterlimit="10" stroke-linecap="round" stroke-linejoin="round"/>
        <path d="M188.158 123.481C188.018 123.411 187.878 123.341 187.808 123.271L188.158 123.481Z" fill="white" stroke="#231F20" stroke-width="0.17068" stroke-miterlimit="10"/>
        <path d="M193.973 116.755C194.044 119.067 192.502 121.869 190.54 123.061C189.699 123.621 188.859 123.691 188.228 123.481L187.878 123.271C187.317 122.85 186.967 122.15 186.897 121.029C186.827 118.716 188.368 115.914 190.33 114.723C191.171 114.232 191.942 114.092 192.572 114.302C193.413 114.583 193.903 115.423 193.973 116.755Z" fill="white" stroke="#231F20" stroke-width="0.17068" stroke-miterlimit="10"/>
        <path d="M192.572 114.302C191.942 114.092 191.171 114.232 190.33 114.723C188.368 115.914 186.827 118.716 186.897 121.029C186.897 122.08 187.247 122.85 187.878 123.271L149.762 103.372C148.992 103.092 148.501 102.251 148.431 100.99C148.361 98.6777 149.902 95.875 151.864 94.6839C152.775 94.1234 153.686 94.0533 154.317 94.3336L154.457 94.4036L192.572 114.302Z" fill="url(#paint0_linear_1_19911)" stroke="#231F20" stroke-width="0.17068" stroke-miterlimit="10" stroke-linecap="round" stroke-linejoin="round"/>
        <path d="M198.878 133.08C198.668 133.01 198.458 132.87 198.248 132.73L198.878 133.08Z" fill="white" stroke="#231F20" stroke-width="0.17068" stroke-miterlimit="10"/>
        <path d="M208.547 122.15C208.547 125.933 205.955 130.558 202.662 132.449C201.19 133.29 199.859 133.5 198.878 133.08L198.248 132.73C197.337 132.029 196.776 130.838 196.706 129.086C196.706 125.303 199.298 120.678 202.592 118.786C203.993 117.946 205.254 117.806 206.305 118.156C207.706 118.576 208.547 119.978 208.547 122.15Z" fill="#58595B" stroke="#231F20" stroke-width="0.17068" stroke-miterlimit="10" stroke-linecap="round" stroke-linejoin="round"/>
        <path d="M207.286 122.92C207.286 125.863 205.254 129.507 202.732 130.978C201.611 131.609 200.56 131.749 199.719 131.468L199.229 131.188C198.528 130.698 198.038 129.717 198.038 128.315C198.038 125.373 200.07 121.729 202.592 120.258C203.713 119.627 204.694 119.487 205.465 119.767C206.586 120.118 207.286 121.239 207.286 122.92Z" fill="#231F20" stroke="#231F20" stroke-width="0.17068" stroke-miterlimit="10"/>
        <path d="M206.305 118.086C205.254 117.736 203.993 117.946 202.592 118.716C199.299 120.608 196.706 125.233 196.706 129.016C196.706 130.768 197.267 132.029 198.248 132.66L178.91 122.22C177.648 121.729 176.808 120.328 176.808 118.226C176.808 114.442 179.4 109.818 182.693 107.926C184.235 107.015 185.636 106.875 186.687 107.436L186.897 107.576L206.305 118.086Z" fill="url(#paint1_linear_1_19911)" stroke="#231F20" stroke-width="0.17068" stroke-miterlimit="10" stroke-linecap="round" stroke-linejoin="round"/>
        <path d="M162.584 138.825C162.444 138.755 162.304 138.685 162.234 138.615L162.584 138.825Z" fill="white" stroke="#231F20" stroke-width="0.17068" stroke-miterlimit="10"/>
        <path d="M168.33 132.099C168.4 134.411 166.859 137.214 164.897 138.405C164.056 138.965 163.215 139.035 162.585 138.825L162.234 138.615C161.674 138.195 161.323 137.494 161.253 136.373C161.183 134.061 162.725 131.258 164.686 130.067C165.527 129.577 166.298 129.436 166.929 129.647C167.769 129.927 168.33 130.768 168.33 132.099Z" fill="white" stroke="#231F20" stroke-width="0.17068" stroke-miterlimit="10"/>
        <path d="M166.928 129.647C166.297 129.436 165.527 129.577 164.686 130.067C162.724 131.258 161.183 134.061 161.253 136.373C161.253 137.424 161.603 138.195 162.233 138.615L124.118 118.716C123.347 118.436 122.857 117.595 122.786 116.334C122.716 114.022 124.258 111.219 126.22 110.028C127.131 109.468 128.041 109.398 128.672 109.678L128.812 109.748L166.928 129.647Z" fill="url(#paint2_linear_1_19911)" stroke="#231F20" stroke-width="0.17068" stroke-miterlimit="10" stroke-linecap="round" stroke-linejoin="round"/>
        <path d="M173.234 148.424C173.024 148.354 172.814 148.214 172.604 148.074L173.234 148.424Z" fill="white" stroke="#231F20" stroke-width="0.17068" stroke-miterlimit="10"/>
        <path d="M182.973 137.494C182.973 141.278 180.381 145.902 177.088 147.794C175.617 148.635 174.285 148.845 173.304 148.424L172.674 148.074C171.763 147.373 171.202 146.182 171.132 144.431C171.132 140.647 173.725 136.023 177.018 134.131C178.419 133.29 179.68 133.15 180.731 133.5C182.063 133.921 182.903 135.322 182.973 137.494Z" fill="#58595B" stroke="#231F20" stroke-width="0.17068" stroke-miterlimit="10" stroke-linecap="round" stroke-linejoin="round"/>
        <path d="M181.642 138.265C181.642 141.207 179.61 144.851 177.087 146.322C175.966 146.953 174.915 147.093 174.075 146.813L173.584 146.532C172.884 146.042 172.393 145.061 172.393 143.66C172.393 140.717 174.425 137.074 176.947 135.602C178.068 134.972 179.049 134.831 179.82 135.112C180.941 135.462 181.642 136.583 181.642 138.265Z" fill="#231F20" stroke="#231F20" stroke-width="0.17068" stroke-miterlimit="10"/>
        <path d="M173.234 148.424C173.234 148.424 173.306 148.424 173.234 148.424V148.424Z" fill="white" stroke="#231F20" stroke-width="0.17068" stroke-miterlimit="10"/>
        <path d="M180.731 133.43C179.68 133.08 178.419 133.29 177.018 134.061C173.725 135.953 171.132 140.577 171.132 144.36C171.132 146.112 171.693 147.373 172.674 148.004L153.335 137.704C152.074 137.214 151.233 135.812 151.233 133.71C151.233 129.927 153.826 125.303 157.119 123.411C158.66 122.5 160.062 122.36 161.113 122.92L161.323 123.06L180.731 133.43Z" fill="url(#paint3_linear_1_19911)" stroke="#231F20" stroke-width="0.17068" stroke-miterlimit="10" stroke-linecap="round" stroke-linejoin="round"/>
        <path opacity="0.2" d="M119.007 77.8656C127.595 77.66 134.461 73.4791 134.342 68.5275C134.223 63.5758 127.165 59.7285 118.577 59.9342C109.989 60.1399 103.123 64.3207 103.242 69.2724C103.361 74.224 110.419 78.0713 119.007 77.8656Z" fill="black" stroke="#231F20" stroke-width="0.17068" stroke-miterlimit="10"/>
        <path d="M137.009 65.1861C137.009 65.6766 136.939 66.097 136.869 66.5874C136.729 67.0779 136.589 67.4983 136.309 67.9888C135.608 69.2499 134.417 70.4411 132.805 71.422C127.06 74.9253 117.531 75.1355 111.646 71.9124C109.964 71.0016 108.703 69.8805 107.932 68.6193C107.652 68.199 107.442 67.7085 107.302 67.2881C107.161 66.8677 107.091 66.3772 107.091 65.8868C107.091 65.046 107.302 64.2052 107.652 63.3644C107.792 63.0842 107.932 62.874 108.072 62.5937C108.142 62.5236 108.212 62.4536 108.212 62.3835L108.282 62.4536L110.525 63.6447L112.977 62.1733L112.907 60.4917L111.295 59.6509C111.576 59.5108 111.856 59.3006 112.136 59.1605C112.416 59.0203 112.697 58.8802 112.977 58.7401C113.117 58.67 113.327 58.5999 113.467 58.5299L116.48 60.0013L118.932 58.5299V57.0585C123.627 56.4279 128.672 57.1286 132.315 59.1605C135.468 60.772 136.939 62.944 137.009 65.1861Z" fill="#F1F2F2" stroke="#231F20" stroke-width="0.17068" stroke-miterlimit="10" stroke-linecap="round" stroke-linejoin="round"/>
        <path d="M137.01 65.186L137.08 67.9186C137.15 70.1607 135.748 72.4028 132.806 74.1545C127.06 77.6577 117.531 77.8679 111.646 74.6449C108.703 73.0334 107.162 70.8614 107.092 68.6193L107.021 65.8867C107.021 66.3772 107.092 66.7975 107.232 67.288C107.372 67.7785 107.582 68.1989 107.862 68.6193C108.633 69.8104 109.824 70.9314 111.576 71.9123C117.531 75.1354 126.99 74.9252 132.736 71.4219C134.417 70.3709 135.608 69.2498 136.239 67.9887C136.519 67.4982 136.659 67.0778 136.799 66.5874C136.94 66.0969 137.01 65.6064 137.01 65.186Z" fill="#939598" stroke="#231F20" stroke-width="0.17068" stroke-miterlimit="10"/>
        <path d="M113.048 60.4216V62.1032L110.665 63.5746L110.595 61.9631L113.048 60.4216Z" fill="white" stroke="#231F20" stroke-width="0.17068" stroke-miterlimit="10"/>
        <path d="M110.595 61.963L110.665 63.5745L108.353 62.3834L108.283 62.3133L107.232 61.7528L107.302 63.1541L105.06 61.963L104.99 58.8801L108.703 60.912L109.264 61.1923L110.595 61.963Z" fill="#939598" stroke="#231F20" stroke-width="0.17068" stroke-miterlimit="10"/>
        <path d="M119.073 56.9884L118.933 57.1285L116.691 58.4598L115.5 57.8292L114.729 57.4088L111.085 55.447L113.538 53.9055L117.181 55.9374L119.073 56.9884Z" fill="#F1F2F2" stroke="#231F20" stroke-width="0.17068" stroke-miterlimit="10" stroke-linecap="round" stroke-linejoin="round"/>
        <path d="M119.073 57.0583V58.5297L116.62 60.0011L116.55 58.5297L118.792 57.1284C119.003 57.0583 119.073 57.0583 119.073 57.0583Z" fill="white" stroke="#231F20" stroke-width="0.17068" stroke-miterlimit="10"/>
        <path d="M119.073 56.9884V57.0585C119.003 57.0585 118.933 57.0585 118.933 57.0585L119.073 56.9884Z" fill="white" stroke="#231F20" stroke-width="0.17068" stroke-miterlimit="10"/>
        <path d="M113.678 58.4597C113.538 58.5298 113.328 58.5998 113.188 58.6699V58.1794L113.328 58.2495L113.678 58.4597Z" fill="white" stroke="#231F20" stroke-width="0.17068" stroke-miterlimit="10"/>
        <path d="M113.047 60.4215L110.595 61.963L109.264 61.1922L108.703 60.912L104.99 58.8801L107.442 57.4087L111.226 59.4406L111.436 59.5807L113.047 60.4215Z" fill="#F1F2F2" stroke="#231F20" stroke-width="0.17068" stroke-miterlimit="10" stroke-linecap="round" stroke-linejoin="round"/>
        <path d="M116.69 58.4597L116.761 59.9311L113.748 58.4597L113.327 58.2495L113.187 58.1795V58.6699C112.907 58.8101 112.627 58.9502 112.346 59.0903L112.136 58.9502L111.225 58.4597L111.155 55.3768L114.799 57.3387L115.569 57.7591L116.69 58.4597Z" fill="#939598" stroke="#231F20" stroke-width="0.17068" stroke-miterlimit="10"/>
        <path d="M108.283 62.3133C108.213 62.3834 108.143 62.4535 108.143 62.5235L107.302 63.0841V61.7528L108.283 62.3133Z" fill="white" stroke="#231F20" stroke-width="0.17068" stroke-miterlimit="10"/>
        <path opacity="0.2" d="M87.6177 95.1707C96.2057 94.965 103.071 90.7841 102.953 85.8325C102.834 80.8809 95.7761 77.0335 87.1881 77.2393C78.6001 77.445 71.7343 81.6259 71.853 86.5775C71.9716 91.5292 79.0297 95.3765 87.6177 95.1707Z" fill="black" stroke="#231F20" stroke-width="0.17068" stroke-miterlimit="10"/>
        <path d="M105.55 82.4925C105.55 82.983 105.48 83.4034 105.41 83.8938C105.27 84.3843 105.13 84.8047 104.85 85.2952C104.149 86.5563 102.958 87.7475 101.346 88.7284C95.6011 92.2317 86.0721 92.4419 80.1866 89.2188C78.505 88.308 77.2438 87.1869 76.4731 85.9257C76.1929 85.5054 75.9827 85.0149 75.8425 84.5945C75.7024 84.1741 75.6323 83.6836 75.6323 83.1932C75.6323 82.3524 75.8425 81.5116 76.1929 80.6708C76.333 80.3906 76.4731 80.1804 76.6132 79.9001C76.6833 79.83 76.7534 79.76 76.7534 79.6899L76.8234 79.76L79.0655 80.9511L81.5178 79.4797L81.4478 77.7981L79.8363 76.9573C80.1165 76.8172 80.3968 76.607 80.6771 76.4669C80.9573 76.3267 81.2376 76.1866 81.5178 76.0465C81.658 75.9764 81.8682 75.9063 82.0083 75.8363L85.0211 77.3077L87.4734 75.8363V74.3649C92.1678 73.7343 97.2126 74.435 100.856 76.4669C104.009 78.0784 105.55 80.2504 105.55 82.4925Z" fill="#F1F2F2" stroke="#231F20" stroke-width="0.17068" stroke-miterlimit="10" stroke-linecap="round" stroke-linejoin="round"/>
        <path d="M105.55 82.4924L105.62 85.225C105.69 87.4671 104.289 89.7092 101.346 91.4608C95.6008 94.9641 86.0719 95.1743 80.1864 91.9513C77.2436 90.3398 75.7021 88.1678 75.6321 85.9257L75.562 83.1931C75.562 83.6835 75.6321 84.1039 75.7722 84.5944C75.9123 85.0849 76.1225 85.5053 76.4028 85.9257C77.1735 87.1168 78.3646 88.2378 80.1163 89.2187C86.0719 92.4418 95.5308 92.2316 101.276 88.7283C102.958 87.6773 104.149 86.5562 104.779 85.2951C105.06 84.8046 105.2 84.3842 105.34 83.8937C105.55 83.4033 105.62 82.9829 105.55 82.4924Z" fill="#939598" stroke="#231F20" stroke-width="0.17068" stroke-miterlimit="10"/>
        <path d="M81.588 77.7982L81.6581 79.4798L79.2058 80.8811L79.1357 79.2696L81.588 77.7982Z" fill="white" stroke="#231F20" stroke-width="0.17068" stroke-miterlimit="10"/>
        <path d="M79.1358 79.2694L79.2058 80.8809L76.8937 79.6898L76.8236 79.6197L75.7726 79.1293L75.8427 80.4605L73.6707 79.2694L73.6006 76.1865L77.3141 78.2184L77.8045 78.4987L79.1358 79.2694Z" fill="#939598" stroke="#231F20" stroke-width="0.17068" stroke-miterlimit="10"/>
        <path d="M87.684 74.2948L87.4738 74.4349L85.2317 75.8363L84.0406 75.1356L83.2699 74.7152L79.6265 72.7534L82.0788 71.282L85.7923 73.3139L87.684 74.2948Z" fill="#F1F2F2" stroke="#231F20" stroke-width="0.17068" stroke-miterlimit="10" stroke-linecap="round" stroke-linejoin="round"/>
        <path d="M87.6835 74.4349V75.9063L85.2312 77.3777L85.1611 75.9063L87.4032 74.505C87.5434 74.4349 87.6134 74.4349 87.6835 74.4349Z" fill="white" stroke="#231F20" stroke-width="0.17068" stroke-miterlimit="10"/>
        <path d="M87.6836 74.2948V74.3649C87.6135 74.3649 87.5435 74.3649 87.5435 74.3649L87.6836 74.2948Z" fill="white" stroke="#231F20" stroke-width="0.17068" stroke-miterlimit="10"/>
        <path d="M82.2185 75.7661C82.0784 75.8362 81.8682 75.9062 81.728 75.9763V75.4858L81.8682 75.5559L82.2185 75.7661Z" fill="white" stroke="#231F20" stroke-width="0.17068" stroke-miterlimit="10"/>
        <path d="M81.5881 77.7981L79.1358 79.2695L77.8045 78.4988L77.3141 78.2185L73.6006 76.1866L75.9828 74.7152L79.7664 76.7471L79.9766 76.8873L81.5881 77.7981Z" fill="#F1F2F2" stroke="#231F20" stroke-width="0.17068" stroke-miterlimit="10" stroke-linecap="round" stroke-linejoin="round"/>
        <path d="M85.2317 75.8362L85.3018 77.3076L82.289 75.8362L81.7985 75.5559H81.7284V76.0464C81.4482 76.1865 81.1679 76.3266 80.8876 76.4668L80.6775 76.3266L79.7666 75.8362L79.6265 72.7533L83.2699 74.7151L84.0406 75.1355L85.2317 75.8362Z" fill="#939598" stroke="#231F20" stroke-width="0.17068" stroke-miterlimit="10"/>
        <path d="M76.8237 79.6197C76.7536 79.6898 76.6836 79.7599 76.6836 79.8299L75.8428 80.4605V79.1293L76.8237 79.6197Z" fill="white" stroke="#231F20" stroke-width="0.17068" stroke-miterlimit="10"/>
    </g>
    <defs>
        <linearGradient id="paint0_linear_1_19911" x1="167.373" y1="112.57" x2="172.987" y2="102.423" gradientUnits="userSpaceOnUse">
            <stop stop-color="#59595C"/>
            <stop offset="0.3636" stop-color="#221F1F"/>
            <stop offset="0.6738" stop-color="#808184"/>
            <stop offset="1" stop-color="#424143"/>
        </linearGradient>
        <linearGradient id="paint1_linear_1_19911" x1="187.243" y1="125.115" x2="194.387" y2="111.564" gradientUnits="userSpaceOnUse">
            <stop stop-color="#59595C"/>
            <stop offset="0.3636" stop-color="#221F1F"/>
            <stop offset="0.6738" stop-color="#808184"/>
            <stop offset="1" stop-color="#424143"/>
        </linearGradient>
        <linearGradient id="paint2_linear_1_19911" x1="141.752" y1="127.919" x2="147.366" y2="117.773" gradientUnits="userSpaceOnUse">
            <stop stop-color="#59595C"/>
            <stop offset="0.3636" stop-color="#221F1F"/>
            <stop offset="0.6738" stop-color="#808184"/>
            <stop offset="1" stop-color="#424143"/>
        </linearGradient>
        <linearGradient id="paint3_linear_1_19911" x1="161.622" y1="140.464" x2="168.767" y2="126.913" gradientUnits="userSpaceOnUse">
            <stop stop-color="#59595C"/>
            <stop offset="0.3636" stop-color="#221F1F"/>
            <stop offset="0.6738" stop-color="#808184"/>
            <stop offset="1" stop-color="#424143"/>
        </linearGradient>
        <clipPath id="">
            <rect width="159.75" height="99.073" fill="white" transform="translate(48.9375 49.6316)"/>
        </clipPath>
    </defs>
</svg>
