<svg width="230" height="230" viewBox="0 0 230 230" fill="none"
    xmlns="http://www.w3.org/2000/svg">
    <g clip-path="url(#)">
        <path d="M132.666 58.8801L98.4043 78.8489L58.1865 55.587L92.5888 35.6884L132.666 58.8801Z" fill="#F7F7F7" stroke="#231F20" stroke-width="0.17068" stroke-miterlimit="10" stroke-linecap="round" stroke-linejoin="round"/>
        <path d="M106.602 94.1933V127.755L75.773 109.888V99.0979L67.5053 94.3334L58.1865 88.8683V55.587L98.4043 78.8489L101.767 85.1548L106.602 94.1933Z" fill="#F7F7F7" stroke="#231F20" stroke-width="0.17068" stroke-miterlimit="10" stroke-linecap="round" stroke-linejoin="round"/>
        <path opacity="0.2" d="M106.602 94.1933V127.755L75.773 109.888V99.0979L67.5053 94.3334L58.1865 88.8683V55.587L98.4043 78.8489L101.767 85.1548L106.602 94.1933Z" fill="black" stroke="#231F20" stroke-width="0.210688" stroke-miterlimit="10"/>
        <path d="M141.074 74.5748V107.856L106.602 127.755V94.1932L112.067 91.1103L141.074 74.5748Z" fill="#F7F7F7" stroke="#231F20" stroke-width="0.17068" stroke-miterlimit="10" stroke-linecap="round" stroke-linejoin="round"/>
        <path d="M141.074 74.5749L112.067 91.1104L106.602 94.1933L101.767 85.1548L98.4043 78.8489L132.666 58.8801L136.59 66.3071L141.074 74.5749Z" fill="#F7F7F7" stroke="#231F20" stroke-width="0.17068" stroke-miterlimit="10" stroke-linecap="round" stroke-linejoin="round"/>
        <path opacity="0.2" d="M120.125 116.614L113.328 120.468L111.997 108.066C111.647 104.984 112.207 101.901 113.539 99.098L117.112 91.671L120.125 116.614Z" fill="black" stroke="#231F20" stroke-width="0.210688" stroke-miterlimit="10"/>
        <path d="M127.482 109.397C127.482 110.588 127.342 111.639 127.132 112.55C126.712 113.952 126.081 115.003 125.17 115.773C123.839 116.824 122.087 117.175 119.985 116.614C119.565 116.544 119.144 116.404 118.724 116.194C118.234 115.983 117.743 115.773 117.253 115.493L116.902 91.6707C117.393 91.9509 117.883 92.2312 118.374 92.5815C119.355 93.2822 120.265 94.123 121.176 95.0338C123.629 97.6262 125.59 100.919 126.641 104.282C127.132 106.034 127.482 107.716 127.482 109.397Z" fill="#F1F2F2" stroke="#231F20" stroke-width="0.210688" stroke-miterlimit="10" stroke-linecap="round" stroke-linejoin="round"/>
        <path opacity="0.2" d="M127.482 109.397C127.482 110.588 127.342 111.639 127.132 112.55C126.712 113.952 126.081 115.003 125.17 115.773C123.839 116.824 122.087 117.175 119.985 116.614C119.565 116.544 119.144 116.404 118.724 116.194C118.234 115.983 117.743 115.773 117.253 115.493L116.902 91.6707C117.393 91.9509 117.883 92.2312 118.374 92.5815C119.355 93.2822 120.265 94.123 121.176 95.0338C123.629 97.6262 125.59 100.919 126.641 104.282C127.132 106.034 127.482 107.716 127.482 109.397Z" fill="black" stroke="#231F20" stroke-width="0.210688" stroke-miterlimit="10"/>
        <path d="M138.412 108.136C138.202 108.276 137.922 108.416 137.711 108.557L138.412 108.136Z" fill="white" stroke="#231F20" stroke-width="0.210688" stroke-miterlimit="10"/>
        <path d="M141.075 101.55C141.075 102.741 140.935 103.862 140.654 104.773C140.234 106.244 139.463 107.365 138.412 108.136L137.712 108.557L133.368 111.009L130.915 112.41L125.1 115.703C126.011 115.003 126.711 113.882 127.062 112.48C127.342 111.569 127.482 110.518 127.412 109.327C127.412 107.716 127.062 105.964 126.501 104.283C126.361 103.932 126.291 103.582 126.151 103.232C125.03 100.219 123.208 97.3461 121.106 95.0339C120.265 94.123 119.284 93.2822 118.303 92.5816C117.813 92.2313 117.322 91.951 116.832 91.6707L118.303 90.8299L120.195 89.7089L130.425 83.8234C136.24 87.1165 140.935 95.0339 141.075 101.55Z" fill="#F1F2F2" stroke="#231F20" stroke-width="0.210688" stroke-miterlimit="10" stroke-linecap="round" stroke-linejoin="round"/>
        <path opacity="0.2" d="M133.367 111.009L130.915 112.41L125.1 115.703C126.01 115.003 126.711 113.882 127.061 112.48C127.342 111.57 127.482 110.519 127.412 109.327C127.412 107.716 127.061 105.964 126.501 104.283C126.361 103.932 126.291 103.582 126.151 103.232L127.412 100.639L133.367 111.009Z" fill="black" stroke="#231F20" stroke-width="0.210688" stroke-miterlimit="10"/>
        <path d="M136.17 115.003C135.959 114.933 135.749 114.793 135.539 114.652L136.17 115.003Z" fill="white" stroke="#231F20" stroke-width="0.175375" stroke-miterlimit="10"/>
        <path d="M146.189 103.792C146.189 107.646 143.526 112.41 140.163 114.372C138.692 115.213 137.29 115.423 136.239 115.003L135.609 114.652C134.628 113.952 134.067 112.69 134.067 110.869C134.067 107.015 136.73 102.251 140.093 100.289C141.564 99.448 142.826 99.2378 143.877 99.5882C145.278 100.079 146.189 101.55 146.189 103.792Z" fill="#58595B" stroke="#231F20" stroke-width="0.175375" stroke-miterlimit="10" stroke-linecap="round" stroke-linejoin="round"/>
        <path d="M143.877 99.5883C142.826 99.2379 141.495 99.4481 140.093 100.289C136.73 102.251 134.068 107.015 134.068 110.869C134.068 112.691 134.698 113.952 135.609 114.652L128.883 111.079C129.163 110.168 129.303 109.117 129.233 107.926C129.233 106.315 128.883 104.563 128.322 102.881C128.112 102.111 127.762 101.34 127.481 100.639C128.602 98.6774 130.144 96.9258 131.826 95.9448C133.437 95.034 134.908 94.8939 135.959 95.3843L136.17 95.5244L143.877 99.5883Z" fill="url(#paint0_linear_1_19911)" stroke="#231F20" stroke-width="0.175375" stroke-miterlimit="10" stroke-linecap="round" stroke-linejoin="round"/>
        <path d="M153.195 121.799C153.055 121.729 152.845 121.659 152.705 121.519L153.195 121.799Z" fill="white" stroke="#231F20" stroke-width="0.133826" stroke-miterlimit="10"/>
        <path d="M160.763 113.251C160.763 116.194 158.731 119.837 156.138 121.309C155.017 121.939 153.966 122.079 153.125 121.799L152.635 121.519C151.934 121.028 151.444 119.977 151.444 118.646C151.444 115.703 153.476 112.06 156.068 110.589C157.189 109.958 158.17 109.818 158.941 110.098C160.062 110.448 160.763 111.569 160.763 113.251Z" fill="#58595B" stroke="#231F20" stroke-width="0.133826" stroke-miterlimit="10" stroke-linecap="round" stroke-linejoin="round"/>
        <path d="M159.781 113.882C159.781 116.194 158.17 119.066 156.208 120.188C155.297 120.678 154.527 120.818 153.896 120.538L153.546 120.328C152.985 119.907 152.635 119.137 152.635 118.086C152.635 115.773 154.246 112.901 156.208 111.78C157.049 111.289 157.89 111.149 158.45 111.359C159.221 111.64 159.781 112.55 159.781 113.882Z" fill="#231F20" stroke="#231F20" stroke-width="0.133826" stroke-miterlimit="10"/>
        <path d="M159.011 110.098C158.24 109.818 157.189 109.958 156.138 110.589C153.616 112.06 151.514 115.703 151.514 118.646C151.514 120.047 152.004 121.028 152.705 121.519L137.571 113.391C136.59 112.971 135.959 111.92 135.889 110.238C135.889 107.295 137.921 103.652 140.513 102.181C141.705 101.48 142.826 101.34 143.666 101.76L143.877 101.83L159.011 110.098Z" fill="url(#paint1_linear_1_19911)" stroke="#231F20" stroke-width="0.133826" stroke-miterlimit="10" stroke-linecap="round" stroke-linejoin="round"/>
        <path opacity="0.2" d="M93.0091 69.3901C102.374 69.3901 109.965 64.9984 109.965 59.5809C109.965 54.1635 102.374 49.7717 93.0091 49.7717C83.6446 49.7717 76.0532 54.1635 76.0532 59.5809C76.0532 64.9984 83.6446 69.3901 93.0091 69.3901Z" fill="black" stroke="#231F20" stroke-width="0.201439" stroke-miterlimit="10"/>
        <path d="M115.711 55.7274C115.711 56.2879 115.641 56.8485 115.501 57.3389C115.361 57.8995 115.08 58.46 114.8 58.9504C113.959 60.4218 112.558 61.7531 110.526 62.9442C103.589 66.9379 92.449 66.9379 85.5125 62.9442C83.4806 61.8231 82.0793 60.4218 81.2385 58.9504C80.9582 58.3899 80.678 57.8995 80.5378 57.3389C80.3977 56.7784 80.3276 56.2879 80.3276 55.7274C80.3276 54.7465 80.6079 53.6955 81.0984 52.7146C81.2385 52.4343 81.4487 52.084 81.6589 51.8037C81.729 51.7337 81.799 51.5935 81.8691 51.5235L82.0092 51.5935L84.6717 53.135L87.6145 51.5235V49.5616L85.7928 48.5106C86.1431 48.3004 86.4234 48.1603 86.7737 48.0202C87.124 47.8801 87.4743 47.6699 87.8247 47.5297C88.0349 47.4597 88.2451 47.3896 88.4553 47.3195L91.9586 49.1412L94.9013 47.5297V45.8481C100.437 45.2876 106.322 46.1985 110.596 48.6508C114.029 50.5426 115.711 53.135 115.711 55.7274Z" fill="#F1F2F2" stroke="#231F20" stroke-width="0.201439" stroke-miterlimit="10" stroke-linecap="round" stroke-linejoin="round"/>
        <path d="M115.711 55.7274V58.9504C115.711 61.5429 113.959 64.2054 110.526 66.1672C103.589 70.161 92.449 70.161 85.5125 66.1672C82.0793 64.2054 80.3276 61.5429 80.3276 58.9504V55.7274C80.3276 56.2879 80.3977 56.8485 80.5378 57.3389C80.678 57.8995 80.8882 58.46 81.2385 58.9504C82.0793 60.4218 83.4806 61.7531 85.5125 62.9442C92.449 66.9379 103.589 66.9379 110.526 62.9442C112.558 61.8231 113.959 60.4218 114.8 58.9504C115.08 58.3899 115.361 57.8995 115.501 57.3389C115.641 56.8485 115.711 56.2879 115.711 55.7274Z" fill="#F1F2F2" stroke="#231F20" stroke-width="0.201439" stroke-miterlimit="10" stroke-linecap="round" stroke-linejoin="round"/>
        <path d="M87.6141 49.4916V51.4534L84.6714 53.135V51.1732L87.6141 49.4916Z" fill="#F1F2F2" stroke="#231F20" stroke-width="0.201439" stroke-miterlimit="10" stroke-linecap="round" stroke-linejoin="round"/>
        <path d="M84.6714 51.1731V53.1349L82.0089 51.6635L81.9388 51.5935L80.7477 50.8928V52.5043L78.1553 51.0329V47.3895L82.4994 49.9119L83.1299 50.2622L84.6714 51.1731Z" fill="#F1F2F2" stroke="#231F20" stroke-width="0.201439" stroke-miterlimit="10" stroke-linecap="round" stroke-linejoin="round"/>
        <path d="M94.8307 45.6379L94.6205 45.708L91.958 47.3195L90.5567 46.4787L89.6458 45.9883L85.4419 43.5359L88.3146 41.8544L92.6587 44.3067L94.8307 45.6379Z" fill="#F1F2F2" stroke="#231F20" stroke-width="0.201439" stroke-miterlimit="10" stroke-linecap="round" stroke-linejoin="round"/>
        <path d="M94.8309 45.7079V47.3895L91.8882 49.001V47.2493L94.6207 45.7079C94.6908 45.7079 94.7609 45.7079 94.8309 45.7079Z" fill="#F1F2F2" stroke="#231F20" stroke-width="0.201439" stroke-miterlimit="10" stroke-linecap="round" stroke-linejoin="round"/>
        <path d="M94.8313 45.6379V45.708C94.7612 45.708 94.6912 45.708 94.6211 45.708L94.8313 45.6379Z" fill="#F1F2F2" stroke="#231F20" stroke-width="0.201439" stroke-miterlimit="10" stroke-linecap="round" stroke-linejoin="round"/>
        <path d="M88.385 47.1793C88.1748 47.2494 87.9646 47.3194 87.7544 47.3895V46.829L87.8945 46.899L88.385 47.1793Z" fill="#F1F2F2" stroke="#231F20" stroke-width="0.201439" stroke-miterlimit="10" stroke-linecap="round" stroke-linejoin="round"/>
        <path d="M87.6142 49.4914L84.6714 51.173L83.1299 50.2622L82.4994 49.9118L78.1553 47.3895L81.098 45.7079L85.5122 48.3003L85.7224 48.4405L87.6142 49.4914Z" fill="#F1F2F2" stroke="#231F20" stroke-width="0.201439" stroke-miterlimit="10" stroke-linecap="round" stroke-linejoin="round"/>
        <path d="M91.9583 47.3194V49.0711L88.455 47.2494L87.9645 46.9691L87.7543 46.829V47.3895C87.404 47.5296 87.0536 47.6698 86.7033 47.88L86.4231 47.7398L85.3721 47.1092V43.4658L89.576 45.9181L90.4869 46.4086L91.9583 47.3194Z" fill="#F1F2F2" stroke="#231F20" stroke-width="0.201439" stroke-miterlimit="10" stroke-linecap="round" stroke-linejoin="round"/>
        <path opacity="0.2" d="M84.6714 51.1731V53.1349L82.0089 51.6635L81.9388 51.5935L80.7477 50.8928V52.5043L78.1553 51.0329V47.3895L82.4994 49.9119L83.1299 50.2622L84.6714 51.1731Z" fill="black" stroke="#231F20" stroke-width="0.201439" stroke-miterlimit="10"/>
        <path opacity="0.2" d="M91.9583 47.3194V49.0711L88.455 47.2494L87.9645 46.9691L87.7543 46.829V47.3895C87.404 47.5296 87.0536 47.6698 86.7033 47.88L86.4231 47.7398L85.3721 47.1092V43.4658L89.576 45.9181L90.4869 46.4086L91.9583 47.3194Z" fill="black" stroke="#231F20" stroke-width="0.201439" stroke-miterlimit="10"/>
        <path d="M81.9387 51.5935C81.8686 51.6635 81.7985 51.8037 81.7285 51.8737L80.7476 52.5043V50.8928L81.9387 51.5935Z" fill="#F1F2F2" stroke="#231F20" stroke-width="0.201439" stroke-miterlimit="10" stroke-linecap="round" stroke-linejoin="round"/>
        <path d="M115.71 55.7274V58.9504C115.71 61.5429 113.959 64.2054 110.525 66.1672C103.589 70.161 92.4485 70.161 85.512 66.1672C82.0788 64.2054 80.3271 61.5429 80.3271 58.9504V55.7274C80.3271 56.2879 80.3972 56.8485 80.5373 57.3389C80.6775 57.8995 80.8877 58.46 81.238 58.9504C82.0788 60.4218 83.4801 61.7531 85.512 62.9442C92.4485 66.9379 103.589 66.9379 110.525 62.9442C112.557 61.8231 113.959 60.4218 114.8 58.9504C115.08 58.3899 115.36 57.8995 115.5 57.3389C115.64 56.8485 115.71 56.2879 115.71 55.7274Z" fill="#F1F2F2" stroke="#231F20" stroke-width="0.201439" stroke-miterlimit="10" stroke-linecap="round" stroke-linejoin="round"/>
        <path opacity="0.14" d="M100.856 65.8169V69.0399C95.4614 69.5304 89.716 68.6195 85.512 66.1672C82.0788 64.2054 80.3271 61.5429 80.3271 58.9504V55.7274C80.3271 56.2879 80.3972 56.8485 80.5373 57.3389C80.6775 57.8995 80.8877 58.46 81.238 58.9504C82.0788 60.4218 83.4801 61.7531 85.512 62.9442C89.716 65.3965 95.4614 66.3073 100.856 65.8169Z" fill="black" stroke="#231F20" stroke-width="0.201439" stroke-miterlimit="10"/>
        <path d="M106.602 99.6585V107.366L58.1865 79.3394V71.7023L106.602 99.6585Z" fill="#939598" stroke="#231F20" stroke-width="0.17068" stroke-miterlimit="10"/>
    </g>
    <defs>
        <linearGradient id="paint0_linear_1_19911" x1="130.223" y1="109.983" x2="137.877" y2="96.2737" gradientUnits="userSpaceOnUse">
            <stop stop-color="#59595C"/>
            <stop offset="0.3636" stop-color="#221F1F"/>
            <stop offset="0.6738" stop-color="#808184"/>
            <stop offset="1" stop-color="#424143"/>
        </linearGradient>
        <linearGradient id="paint1_linear_1_19911" x1="144.066" y1="115.585" x2="149.667" y2="104.963" gradientUnits="userSpaceOnUse">
            <stop stop-color="#59595C"/>
            <stop offset="0.3636" stop-color="#221F1F"/>
            <stop offset="0.6738" stop-color="#808184"/>
            <stop offset="1" stop-color="#424143"/>
        </linearGradient>
        <clipPath id="">
            <rect width="102.786" height="92.2766" fill="white" transform="translate(58.0459 35.6184)"/>
        </clipPath>
    </defs>
</svg>
