<svg width="230" height="230" viewBox="0 0 230 230" fill="none"
    xmlns="http://www.w3.org/2000/svg">
    <g clip-path="url(#)">
        <path opacity="0.2" d="M127.201 109.257C127.201 111.149 126.36 113.041 124.678 114.723C123.837 115.563 122.856 116.264 121.665 116.965C114.308 121.239 102.327 121.239 94.9703 116.965C93.7791 116.264 92.7982 115.493 91.9574 114.723C90.2758 113.041 89.4351 111.149 89.4351 109.257C89.4351 106.455 91.2568 103.652 94.9703 101.55C102.327 97.2762 114.308 97.2762 121.665 101.55C125.379 103.722 127.201 106.525 127.201 109.257Z" fill="black" stroke="#231F20" stroke-width="0.157718" stroke-miterlimit="10"/>
        <path d="M131.545 101.34V106.805C131.545 109.608 129.723 112.41 126.01 114.512C118.653 118.786 106.671 118.786 99.3145 114.512C95.601 112.41 93.7793 109.608 93.7793 106.805V101.34C93.7793 103.232 94.6201 105.124 96.3017 106.805C97.1425 107.646 98.1234 108.347 99.3145 109.047C106.671 113.321 118.653 113.321 126.01 109.047C127.201 108.347 128.182 107.576 129.022 106.805C130.704 105.124 131.545 103.232 131.545 101.34Z" fill="#F7F7F7" stroke="#231F20" stroke-width="0.157718" stroke-miterlimit="10" stroke-linecap="round" stroke-linejoin="round"/>
        <path opacity="0.2" d="M125.239 109.468V114.933C117.812 118.786 106.391 118.646 99.3145 114.512C95.601 112.41 93.7793 109.608 93.7793 106.805V101.34C93.7793 103.232 94.6201 105.124 96.3017 106.805C97.1425 107.646 98.1234 108.347 99.3145 109.047C106.461 113.181 117.882 113.321 125.239 109.468Z" fill="black" stroke="#231F20" stroke-width="0.157718" stroke-miterlimit="10"/>
        <path d="M131.545 101.34C131.545 103.232 130.704 105.124 129.022 106.805C128.182 107.646 127.201 108.347 126.01 109.047C118.653 113.321 106.671 113.321 99.3145 109.047C98.1234 108.347 97.1425 107.576 96.3017 106.805C94.6201 105.124 93.7793 103.232 93.7793 101.34C93.7793 98.5375 95.601 95.7348 99.3145 93.6329C106.671 89.3589 118.653 89.3589 126.01 93.6329C129.723 95.8049 131.545 98.5375 131.545 101.34Z" fill="#F7F7F7" stroke="#231F20" stroke-width="0.157718" stroke-miterlimit="10" stroke-linecap="round" stroke-linejoin="round"/>
        <path d="M128.671 98.047V101.34C128.671 102.952 127.971 104.563 126.499 105.964C125.799 106.665 124.958 107.296 123.977 107.856C117.741 111.43 107.582 111.43 101.346 107.856C100.365 107.296 99.454 106.595 98.8234 105.964C97.4221 104.563 96.6514 102.952 96.6514 101.34V98.047C96.6514 98.6075 96.7214 99.1681 96.9316 99.6585C97.0718 100.219 97.352 100.78 97.7024 101.34C97.9826 101.831 98.3329 102.251 98.8234 102.671C99.5241 103.372 100.365 104.003 101.346 104.563C107.582 108.136 117.741 108.136 123.977 104.563C124.958 104.003 125.869 103.372 126.499 102.671C126.92 102.251 127.27 101.76 127.62 101.34C127.971 100.78 128.251 100.289 128.391 99.6585C128.601 99.1681 128.671 98.6075 128.671 98.047Z" fill="#F7F7F7" stroke="#231F20" stroke-width="0.157718" stroke-miterlimit="10" stroke-linecap="round" stroke-linejoin="round"/>
        <path opacity="0.2" d="M128.671 98.047V101.34C128.671 102.952 127.971 104.563 126.499 105.964C125.799 106.665 124.958 107.296 123.977 107.856C117.741 111.43 107.582 111.43 101.346 107.856C100.365 107.296 99.454 106.595 98.8234 105.964C97.4221 104.563 96.6514 102.952 96.6514 101.34V98.047C96.6514 98.6075 96.7214 99.1681 96.9316 99.6585C97.0718 100.219 97.352 100.78 97.7024 101.34C97.9826 101.831 98.3329 102.251 98.8234 102.671C99.5241 103.372 100.365 104.003 101.346 104.563C107.582 108.136 117.741 108.136 123.977 104.563C124.958 104.003 125.869 103.372 126.499 102.671C126.92 102.251 127.27 101.76 127.62 101.34C127.971 100.78 128.251 100.289 128.391 99.6585C128.601 99.1681 128.671 98.6075 128.671 98.047Z" fill="black" stroke="#231F20" stroke-width="0.157718" stroke-miterlimit="10"/>
        <path d="M128.671 98.047C128.671 98.6075 128.601 99.1681 128.391 99.6585C128.251 100.219 127.971 100.78 127.62 101.34C127.34 101.831 126.99 102.251 126.499 102.671C125.799 103.372 124.958 104.003 123.977 104.563C117.741 108.136 107.582 108.136 101.346 104.563C100.365 104.003 99.454 103.372 98.8234 102.671C98.403 102.251 98.0527 101.761 97.7024 101.34C97.352 100.78 97.0718 100.289 96.9316 99.6585C96.7214 99.098 96.6514 98.6075 96.6514 98.047C96.6514 95.6648 98.1928 93.2825 101.346 91.5309C107.582 87.8875 117.741 87.8875 123.977 91.5309C127.13 93.3526 128.671 95.7348 128.671 98.047Z" fill="#F7F7F7" stroke="#231F20" stroke-width="0.157718" stroke-miterlimit="10" stroke-linecap="round" stroke-linejoin="round"/>
        <path d="M139.882 42.6951L134.067 46.0582L116.831 56.0075L115.57 55.2368L70.7275 29.3826L93.8492 16.0701L139.882 42.6951Z" fill="#F7F7F7" stroke="#231F20" stroke-width="0.157718" stroke-miterlimit="10" stroke-linecap="round" stroke-linejoin="round"/>
        <path d="M116.831 56.0076V91.4608L70.7275 64.8358V29.3826L115.57 55.2368L116.831 56.0076Z" fill="#F7F7F7" stroke="#231F20" stroke-width="0.157718" stroke-miterlimit="10" stroke-linecap="round" stroke-linejoin="round"/>
        <path opacity="0.14" d="M116.831 56.0076V91.4608L70.7275 64.8358V29.3826L115.57 55.2368L116.831 56.0076Z" fill="black" stroke="#231F20" stroke-width="0.201439" stroke-miterlimit="10"/>
        <path d="M137.991 76.2565L137.36 76.6769L118.723 87.397V82.9828L133.507 74.4348L134.067 74.1545L137.991 76.2565Z" fill="#F7F7F7" stroke="#231F20" stroke-width="0.157718" stroke-miterlimit="10" stroke-linecap="round" stroke-linejoin="round"/>
        <path d="M137.991 46.7589V76.2566L134.067 74.1546V49.001L137.991 46.7589Z" fill="#F7F7F7" stroke="#231F20" stroke-width="0.157718" stroke-miterlimit="10" stroke-linecap="round" stroke-linejoin="round"/>
        <path d="M134.067 49.001V74.1546L133.507 74.4349L118.723 82.9829V57.8293L134.067 49.001Z" fill="#F7F7F7" stroke="#231F20" stroke-width="0.157718" stroke-miterlimit="10" stroke-linecap="round" stroke-linejoin="round"/>
        <path d="M95.5308 75.9764C95.811 75.9064 96.0212 75.7662 96.2314 75.556L95.5308 75.9764Z" fill="white" stroke="#231F20" stroke-width="0.20235" stroke-miterlimit="10"/>
        <path d="M84.04 63.0142C84.04 67.4984 87.1229 72.9635 90.9765 75.2056C92.6581 76.1865 94.2696 76.3967 95.4608 75.9063L96.1614 75.4859C97.2825 74.7152 97.9131 73.1737 97.9831 71.1418C97.9831 66.6576 94.9002 61.1925 91.0466 58.9504C89.365 57.9694 87.8937 57.7592 86.6325 58.1796C85.091 58.8102 84.04 60.4918 84.04 63.0142Z" fill="#F7F7F7" stroke="#231F20" stroke-width="0.230516" stroke-miterlimit="10" stroke-linecap="round" stroke-linejoin="round"/>
        <path opacity="0.14" d="M84.04 63.0142C84.04 67.4984 87.1229 72.9635 90.9765 75.2056C92.6581 76.1865 94.2696 76.3967 95.4608 75.9063L96.1614 75.4859C97.2825 74.7152 97.9131 73.1737 97.9831 71.1418C97.9831 66.6576 94.9002 61.1925 91.0466 58.9504C89.365 57.9694 87.8937 57.7592 86.6325 58.1796C85.091 58.8102 84.04 60.4918 84.04 63.0142Z" fill="black" stroke="#231F20" stroke-width="0.201439" stroke-miterlimit="10"/>
        <path d="M86.7026 58.2498C87.8938 57.8294 89.4352 58.0396 91.1168 59.0205C94.9704 61.2626 98.1234 66.7277 98.0533 71.2119C98.0533 73.3139 97.3526 74.7853 96.2316 75.556L100.646 73.2438C102.187 72.6132 103.098 71.0017 103.168 68.4794C103.168 63.9951 100.085 58.53 96.2316 56.2879C94.4099 55.2369 92.7283 55.0267 91.4671 55.6573L91.1868 55.7975L86.7026 58.2498Z" fill="url(#paint0_linear_1_19911)" stroke="#231F20" stroke-width="0.135577" stroke-miterlimit="10" stroke-linecap="round" stroke-linejoin="round"/>
        <path d="M86.4917 77.0975C86.6318 77.0275 86.842 76.9574 86.9822 76.8173L86.4917 77.0975Z" fill="white" stroke="#231F20" stroke-width="0.137399" stroke-miterlimit="10"/>
        <path d="M78.7144 68.2693C78.7144 71.2821 80.8163 74.9956 83.4088 76.537C84.5999 77.2377 85.6509 77.3778 86.4917 77.0275L86.9821 76.7472C87.7528 76.1867 88.1732 75.2058 88.1732 73.8045C88.1732 70.7916 86.0713 67.0781 83.4788 65.5367C82.3578 64.9061 81.3068 64.6959 80.466 64.9762C79.415 65.3966 78.7144 66.5176 78.7144 68.2693Z" fill="#F7F7F7" stroke="#231F20" stroke-width="0.156597" stroke-miterlimit="10" stroke-linecap="round" stroke-linejoin="round"/>
        <path d="M80.5361 65.0462C81.3769 64.7659 82.3578 64.906 83.549 65.6067C86.1414 67.1481 88.3134 70.8616 88.2434 73.8744C88.2434 75.2758 87.7529 76.2567 87.0522 76.8172L93.0078 73.6643C94.0588 73.2439 94.6894 72.1228 94.6894 70.4412C94.6894 67.4284 92.5874 63.7149 89.995 62.1735C88.7338 61.4728 87.6128 61.3327 86.772 61.7531L86.5618 61.8231L80.5361 65.0462Z" fill="url(#paint1_linear_1_19911)" stroke="#231F20" stroke-width="0.0920664" stroke-miterlimit="10" stroke-linecap="round" stroke-linejoin="round"/>
        <path d="M126.079 90.1296C126.079 90.3398 126.079 90.62 126.009 90.8302C126.009 91.0404 125.939 91.2506 125.869 91.3907C125.729 91.8111 125.519 92.2315 125.238 92.6519C125.168 92.7921 125.028 92.9322 124.958 93.0723C124.818 93.2825 124.608 93.4927 124.398 93.7029C124.047 94.0532 123.557 94.4036 123.066 94.7539L121.665 95.5947L118.722 97.2763L97.002 109.818V89.4289L100.856 87.1868L104.219 85.225L105.2 84.6644L116.831 91.3907L124.818 86.7664C125.659 87.8875 126.079 89.0085 126.079 90.1296Z" fill="#F7F7F7" stroke="#231F20" stroke-width="0.154285" stroke-miterlimit="10" stroke-linecap="round" stroke-linejoin="round"/>
        <path d="M123.136 94.7539C122.926 94.894 122.716 95.0342 122.436 95.1743C122.225 95.3144 121.945 95.4546 121.735 95.5947L123.136 94.7539Z" fill="#F7F7F7" stroke="#231F20" stroke-width="0.154285" stroke-miterlimit="10" stroke-linecap="round" stroke-linejoin="round"/>
        <path d="M105.34 84.6644L104.219 85.295C104.359 85.1549 104.569 85.0848 104.709 84.9447C104.919 84.8746 105.13 84.8046 105.34 84.6644Z" fill="#F7F7F7" stroke="#231F20" stroke-width="0.123246" stroke-miterlimit="10" stroke-linecap="round" stroke-linejoin="round"/>
        <path d="M123.136 94.7539C122.926 94.894 122.716 95.0342 122.436 95.1743C122.225 95.3144 121.945 95.4546 121.735 95.5947L123.136 94.7539Z" fill="#F7F7F7" stroke="#231F20" stroke-width="0.123246" stroke-miterlimit="10" stroke-linecap="round" stroke-linejoin="round"/>
        <path d="M91.1866 113.181V119.137L73.6001 108.977V65.6767C73.6001 64.4856 74.1606 63.5047 74.9313 62.8741C75.2116 62.5938 75.5619 62.4537 75.9123 62.2435C76.8932 61.8932 78.0142 61.8932 79.0652 62.5238L79.4156 62.734L86.2119 66.6576C89.3649 68.4794 91.2567 71.8425 91.2567 75.4159V113.181H91.1866Z" fill="#F7F7F7" stroke="#231F20" stroke-width="0.146788" stroke-miterlimit="10" stroke-linecap="round" stroke-linejoin="round"/>
        <path opacity="0.14" d="M91.1866 113.181V119.137L73.6001 108.977V65.6767C73.6001 64.4856 74.1606 63.5047 74.9313 62.8741C75.2116 62.5938 75.5619 62.4537 75.9123 62.2435C76.8932 61.8932 78.0142 61.8932 79.0652 62.5238L79.4156 62.734L86.2119 66.6576C89.3649 68.4794 91.2567 71.8425 91.2567 75.4159V113.181H91.1866Z" fill="black" stroke="#231F20" stroke-width="0.201439" stroke-miterlimit="10"/>
        <path d="M126.079 90.1296V96.0852C126.079 96.2954 126.079 96.5756 126.009 96.7858C126.009 96.996 125.939 97.2062 125.869 97.3464C125.729 97.7668 125.519 98.1872 125.238 98.6075C125.028 98.9579 124.748 99.3082 124.398 99.6585C124.047 100.009 123.557 100.359 123.066 100.71L121.665 101.55L91.1164 119.137V113.181V75.3457C91.1164 71.7023 89.1545 68.4092 86.0716 66.5875L79.2753 62.6638L79.0651 62.5237C78.0141 61.9632 76.893 61.8931 75.9121 62.2434L81.0269 59.2306C82.0779 58.5299 83.5493 58.3898 84.8105 59.1605L91.9572 63.2944C95.1101 65.1161 97.0019 68.4793 97.0019 72.0526V109.888L121.735 95.5947C122.015 95.4546 122.226 95.3145 122.436 95.1743C122.646 95.0342 122.926 94.8941 123.136 94.7539C123.627 94.4036 124.047 94.0533 124.468 93.7029C124.678 93.4927 124.888 93.2826 125.028 93.0724C125.098 92.9322 125.238 92.7921 125.308 92.652C125.589 92.2316 125.799 91.8112 125.939 91.3908C126.009 91.1806 126.079 90.9704 126.079 90.8303C126.079 90.55 126.079 90.3398 126.079 90.1296Z" fill="#F7F7F7" stroke="#231F20" stroke-width="0.146788" stroke-miterlimit="10" stroke-linecap="round" stroke-linejoin="round"/>
        <path d="M133.086 77.728C133.016 77.658 132.876 77.658 132.806 77.5879L133.086 77.728Z" fill="url(#paint2_linear_1_19911)" stroke="#231F20" stroke-width="0.0598999" stroke-miterlimit="10" stroke-linecap="round" stroke-linejoin="round"/>
        <path d="M136.449 70.8614C136.029 70.7213 135.538 70.7914 134.978 71.0716C134.908 71.1417 134.838 71.1417 134.767 71.2118C133.296 72.0526 132.105 74.2246 132.105 75.9062C132.105 76.1864 132.105 76.3966 132.175 76.6068C132.315 77.0272 132.525 77.3776 132.806 77.5878L133.086 77.7279C133.576 77.9381 134.137 77.868 134.838 77.4476C136.309 76.6068 137.5 74.4348 137.5 72.7532C137.5 71.7723 137.08 71.0716 136.449 70.8614ZM134.838 76.8871C134.277 77.2374 133.787 77.3075 133.366 77.0973L133.156 76.9572C133.016 76.817 132.876 76.6769 132.806 76.4667C132.666 76.1864 132.595 75.9062 132.595 75.5559C132.595 74.1545 133.576 72.4029 134.838 71.6322C135.048 71.492 135.188 71.422 135.398 71.422C135.748 71.3519 136.029 71.3519 136.239 71.422C136.729 71.6322 137.08 72.1226 137.08 72.9634C137.08 74.4348 136.029 76.1864 134.838 76.8871Z" fill="#F7F7F7" stroke="#231F20" stroke-width="0.0696909" stroke-miterlimit="10" stroke-linecap="round" stroke-linejoin="round"/>
        <path d="M137.009 73.0335C137.009 74.4348 136.028 76.1864 134.767 76.9571C134.207 77.3075 133.716 77.3775 133.296 77.1673L133.086 77.0272C132.946 76.8871 132.805 76.7469 132.735 76.5367C132.875 76.4667 133.086 76.3966 133.296 76.3265C134.557 75.6259 135.538 73.8742 135.538 72.4029C135.538 72.0525 135.468 71.7022 135.328 71.492C135.678 71.4219 135.958 71.4219 136.169 71.492C136.729 71.6321 137.009 72.1927 137.009 73.0335Z" fill="#BCBEC0" stroke="#231F20" stroke-width="0.0576431" stroke-miterlimit="10" stroke-linecap="round" stroke-linejoin="round"/>
        <path d="M135.538 72.4029C135.538 73.8042 134.557 75.5559 133.296 76.3266C133.085 76.4667 132.945 76.5368 132.735 76.5368C132.595 76.2565 132.525 75.9763 132.525 75.6259C132.525 74.2246 133.506 72.473 134.767 71.7023C134.977 71.5621 135.117 71.4921 135.328 71.4921C135.468 71.7023 135.538 72.0526 135.538 72.4029Z" fill="#808285" stroke="#231F20" stroke-width="0.0576431" stroke-miterlimit="10" stroke-linecap="round" stroke-linejoin="round"/>
        <path d="M136.449 70.8615C136.028 70.7213 135.538 70.7914 134.977 71.0716C134.907 71.1417 134.837 71.1417 134.767 71.2118C133.296 72.0526 132.105 74.2246 132.105 75.9062C132.105 76.1864 132.105 76.3966 132.175 76.6068C132.315 77.0272 132.525 77.3776 132.805 77.5878L129.372 75.7661C128.812 75.5559 128.391 74.9253 128.391 73.9443C128.391 72.1927 129.582 70.0907 131.054 69.2499C131.754 68.8295 132.385 68.7595 132.875 69.0397L132.945 69.1098L136.449 70.8615Z" fill="url(#paint3_linear_1_19911)" stroke="#231F20" stroke-width="0.0598999" stroke-miterlimit="10" stroke-linecap="round" stroke-linejoin="round"/>
        <path d="M127.481 80.8809C127.411 80.8108 127.271 80.8108 127.201 80.7407L127.481 80.8809Z" fill="url(#paint4_linear_1_19911)" stroke="#231F20" stroke-width="0.0598999" stroke-miterlimit="10" stroke-linecap="round" stroke-linejoin="round"/>
        <path d="M130.914 74.0846C130.494 73.9445 130.003 74.0145 129.443 74.2948C129.372 74.3649 129.302 74.3649 129.232 74.4349C127.761 75.2757 126.57 77.4477 126.57 79.1293C126.57 79.4096 126.57 79.6198 126.64 79.83C126.78 80.2504 126.99 80.6007 127.27 80.8109L127.551 80.951C128.041 81.1612 128.602 81.0912 129.302 80.6708C130.774 79.83 131.965 77.6579 131.965 75.9764C131.895 74.9254 131.544 74.2948 130.914 74.0846ZM129.232 80.1102C128.672 80.4606 128.181 80.5306 127.761 80.3204L127.551 80.1803C127.411 80.0402 127.27 79.9001 127.2 79.6899C127.06 79.4096 126.99 79.1293 126.99 78.779C126.99 77.3777 127.971 75.626 129.232 74.8553C129.443 74.7152 129.583 74.6451 129.793 74.6451C130.143 74.5751 130.423 74.5751 130.634 74.6451C131.124 74.8553 131.474 75.3458 131.474 76.1866C131.474 77.6579 130.494 79.3395 129.232 80.1102Z" fill="#F7F7F7" stroke="#231F20" stroke-width="0.0696909" stroke-miterlimit="10" stroke-linecap="round" stroke-linejoin="round"/>
        <path d="M131.475 76.1865C131.475 77.5878 130.494 79.3395 129.233 80.1102C128.672 80.4605 128.182 80.5306 127.761 80.3204L127.551 80.1803C127.411 80.0401 127.271 79.9 127.201 79.6898C127.341 79.6198 127.551 79.5497 127.761 79.4796C129.022 78.779 130.003 77.0273 130.003 75.5559C130.003 75.2056 129.933 74.8553 129.793 74.6451C130.143 74.575 130.424 74.575 130.634 74.6451C131.124 74.8553 131.475 75.3457 131.475 76.1865Z" fill="#BCBEC0" stroke="#231F20" stroke-width="0.0576431" stroke-miterlimit="10" stroke-linecap="round" stroke-linejoin="round"/>
        <path d="M129.933 75.5559C129.933 76.9572 128.952 78.7088 127.691 79.4796C127.48 79.6197 127.34 79.6898 127.13 79.6898C126.99 79.4095 126.92 79.1292 126.92 78.7789C126.92 77.3776 127.901 75.6259 129.162 74.8552C129.372 74.7151 129.512 74.645 129.723 74.645C129.863 74.9253 129.933 75.2055 129.933 75.5559Z" fill="#808285" stroke="#231F20" stroke-width="0.0576431" stroke-miterlimit="10" stroke-linecap="round" stroke-linejoin="round"/>
        <path d="M130.914 74.0846C130.494 73.9445 130.003 74.0145 129.443 74.2948C129.373 74.3649 129.302 74.3649 129.232 74.4349C127.761 75.2757 126.57 77.4477 126.57 79.1293C126.57 79.4096 126.57 79.6198 126.64 79.83C126.78 80.2504 126.99 80.6007 127.271 80.8109L123.837 78.9892C123.277 78.779 122.856 78.1484 122.856 77.1675C122.856 75.4158 124.048 73.3139 125.519 72.4731C126.22 72.0527 126.85 71.9826 127.341 72.2629L127.411 72.333L130.914 74.0846Z" fill="url(#paint5_linear_1_19911)" stroke="#231F20" stroke-width="0.0598999" stroke-miterlimit="10" stroke-linecap="round" stroke-linejoin="round"/>
        <path d="M122.086 84.104C122.016 84.0339 121.876 84.0339 121.806 83.9639L122.086 84.104Z" fill="url(#paint6_linear_1_19911)" stroke="#231F20" stroke-width="0.0598999" stroke-miterlimit="10" stroke-linecap="round" stroke-linejoin="round"/>
        <path d="M125.519 77.2374C125.098 77.0973 124.608 77.1674 124.047 77.4476C123.977 77.5177 123.907 77.5177 123.837 77.5878C122.366 78.4285 121.175 80.6006 121.175 82.2822C121.175 82.5624 121.175 82.7726 121.245 82.9828C121.385 83.4032 121.595 83.7535 121.875 83.9637L122.156 84.1039C122.646 84.3141 123.207 84.244 123.907 83.8236C125.379 82.9828 126.57 80.8108 126.57 79.1292C126.5 78.1483 126.149 77.4476 125.519 77.2374ZM123.837 83.2631C123.277 83.6134 122.786 83.6835 122.366 83.4733L122.156 83.3331C122.016 83.193 121.875 83.0529 121.805 82.8427C121.665 82.5624 121.595 82.2822 121.595 81.9318C121.595 80.5305 122.576 78.7789 123.837 78.0081C124.048 77.868 124.188 77.7979 124.398 77.7979C124.748 77.7279 125.028 77.7279 125.239 77.7979C125.729 78.0081 126.079 78.4986 126.079 79.3394C126.079 80.8108 125.098 82.5624 123.837 83.2631Z" fill="#F7F7F7" stroke="#231F20" stroke-width="0.0696909" stroke-miterlimit="10" stroke-linecap="round" stroke-linejoin="round"/>
        <path d="M126.08 79.4095C126.08 80.8109 125.099 82.5625 123.838 83.3332C123.277 83.6836 122.787 83.7536 122.366 83.5434L122.156 83.4033C122.016 83.2632 121.876 83.123 121.806 82.9128C121.946 82.8428 122.156 82.7727 122.366 82.7026C123.627 82.002 124.608 80.2503 124.608 78.779C124.608 78.4286 124.538 78.0783 124.398 77.8681C124.748 77.798 125.029 77.798 125.239 77.8681C125.729 78.0082 126.08 78.5688 126.08 79.4095Z" fill="#BCBEC0" stroke="#231F20" stroke-width="0.0576431" stroke-miterlimit="10" stroke-linecap="round" stroke-linejoin="round"/>
        <path d="M124.538 78.7789C124.538 80.1802 123.557 81.9319 122.296 82.7026C122.085 82.8427 121.945 82.9128 121.735 82.9128C121.595 82.6325 121.525 82.3522 121.525 82.0019C121.525 80.6006 122.506 78.849 123.767 78.0782C123.977 77.9381 124.117 77.868 124.328 77.868C124.468 78.0782 124.538 78.4286 124.538 78.7789Z" fill="#808285" stroke="#231F20" stroke-width="0.0576431" stroke-miterlimit="10" stroke-linecap="round" stroke-linejoin="round"/>
        <path d="M125.518 77.2375C125.098 77.0974 124.608 77.1675 124.047 77.4477C123.977 77.5178 123.907 77.5178 123.837 77.5879C122.366 78.4287 121.174 80.6007 121.174 82.2823C121.174 82.5625 121.174 82.7727 121.244 82.9829C121.385 83.4033 121.595 83.7537 121.875 83.9639L118.442 82.1422C117.881 81.932 117.461 81.3014 117.461 80.3204C117.461 78.5688 118.652 76.4668 120.123 75.626C120.824 75.2056 121.455 75.1356 121.945 75.4158L122.015 75.4859L125.518 77.2375Z" fill="url(#paint7_linear_1_19911)" stroke="#231F20" stroke-width="0.0598999" stroke-miterlimit="10" stroke-linecap="round" stroke-linejoin="round"/>
        <path d="M133.086 71.2819C133.016 71.2118 132.876 71.2118 132.806 71.1417L133.086 71.2819Z" fill="url(#paint8_linear_1_19911)" stroke="#231F20" stroke-width="0.0598999" stroke-miterlimit="10" stroke-linecap="round" stroke-linejoin="round"/>
        <path d="M136.449 64.4855C136.029 64.3453 135.538 64.4154 134.978 64.6957C134.908 64.7657 134.838 64.7657 134.767 64.8358C133.296 65.6766 132.105 67.8486 132.105 69.5302C132.105 69.8105 132.105 70.0207 132.175 70.2309C132.315 70.6513 132.525 71.0016 132.806 71.2118L133.086 71.3519C133.576 71.5621 134.137 71.492 134.838 71.0717C136.309 70.2309 137.5 68.0588 137.5 66.3772C137.5 65.3263 137.08 64.6957 136.449 64.4855ZM134.838 70.5111C134.277 70.8615 133.787 70.9315 133.366 70.7213L133.156 70.5812C133.016 70.4411 132.876 70.3009 132.806 70.0907C132.666 69.8105 132.595 69.5302 132.595 69.1799C132.595 67.7786 133.576 66.0269 134.838 65.2562C135.048 65.1161 135.188 65.046 135.398 65.046C135.748 64.9759 136.029 64.9759 136.239 65.046C136.729 65.2562 137.08 65.7467 137.08 66.5874C137.08 67.9888 136.029 69.7404 134.838 70.5111Z" fill="#F7F7F7" stroke="#231F20" stroke-width="0.0696909" stroke-miterlimit="10" stroke-linecap="round" stroke-linejoin="round"/>
        <path d="M137.009 66.5875C137.009 67.9888 136.028 69.7405 134.767 70.5112C134.207 70.8615 133.716 70.9316 133.296 70.7214L133.086 70.5813C132.946 70.4411 132.805 70.301 132.735 70.0908C132.875 70.0207 133.086 69.9507 133.296 69.8806C134.557 69.18 135.538 67.4283 135.538 65.9569C135.538 65.6066 135.468 65.2563 135.328 65.0461C135.678 64.976 135.958 64.976 136.169 65.0461C136.729 65.2563 137.009 65.7467 137.009 66.5875Z" fill="#BCBEC0" stroke="#231F20" stroke-width="0.0576431" stroke-miterlimit="10" stroke-linecap="round" stroke-linejoin="round"/>
        <path d="M135.538 65.9569C135.538 67.3582 134.557 69.1098 133.296 69.8806C133.085 70.0207 132.945 70.0908 132.735 70.0908C132.595 69.8105 132.525 69.5302 132.525 69.1799C132.525 67.7786 133.506 66.0269 134.767 65.2562C134.977 65.1161 135.117 65.046 135.328 65.046C135.468 65.3263 135.538 65.6065 135.538 65.9569Z" fill="#808285" stroke="#231F20" stroke-width="0.0576431" stroke-miterlimit="10" stroke-linecap="round" stroke-linejoin="round"/>
        <path d="M136.449 64.4855C136.028 64.3453 135.538 64.4154 134.977 64.6957C134.907 64.7657 134.837 64.7657 134.767 64.8358C133.296 65.6766 132.105 67.8486 132.105 69.5302C132.105 69.8105 132.105 70.0207 132.175 70.2309C132.315 70.6513 132.525 71.0016 132.805 71.2118L129.372 69.3901C128.812 69.1799 128.391 68.5493 128.391 67.5684C128.391 65.8167 129.582 63.7148 131.054 62.874C131.754 62.4536 132.385 62.3835 132.875 62.6638L132.945 62.7338L136.449 64.4855Z" fill="url(#paint9_linear_1_19911)" stroke="#231F20" stroke-width="0.0598999" stroke-miterlimit="10" stroke-linecap="round" stroke-linejoin="round"/>
        <path d="M127.481 74.505C127.411 74.4349 127.271 74.4349 127.201 74.3649L127.481 74.505Z" fill="url(#paint10_linear_1_19911)" stroke="#231F20" stroke-width="0.0598999" stroke-miterlimit="10" stroke-linecap="round" stroke-linejoin="round"/>
        <path d="M130.914 67.6384C130.494 67.4983 130.003 67.5684 129.443 67.8486C129.372 67.9187 129.302 67.9187 129.232 67.9888C127.761 68.8295 126.57 71.0016 126.57 72.6832C126.57 72.9634 126.57 73.1736 126.64 73.3838C126.78 73.8042 126.99 74.1545 127.27 74.3647L127.551 74.5049C128.041 74.7151 128.602 74.645 129.302 74.2246C130.774 73.3838 131.965 71.2118 131.965 69.5302C131.895 68.5493 131.544 67.8486 130.914 67.6384ZM129.232 73.6641C128.672 74.0144 128.181 74.0845 127.761 73.8743L127.551 73.7341C127.411 73.594 127.27 73.4539 127.2 73.2437C127.06 72.9634 126.99 72.6832 126.99 72.3328C126.99 70.9315 127.971 69.1799 129.232 68.4092C129.443 68.269 129.583 68.199 129.793 68.199C130.143 68.1289 130.423 68.1289 130.634 68.199C131.124 68.4092 131.474 68.8996 131.474 69.7404C131.474 71.2118 130.494 72.9634 129.232 73.6641Z" fill="#F7F7F7" stroke="#231F20" stroke-width="0.0696909" stroke-miterlimit="10" stroke-linecap="round" stroke-linejoin="round"/>
        <path d="M131.475 69.8106C131.475 71.2119 130.494 72.9635 129.233 73.7342C128.672 74.0846 128.182 74.1546 127.761 73.9444L127.551 73.8043C127.411 73.6642 127.271 73.524 127.201 73.3138C127.341 73.2438 127.551 73.1737 127.761 73.1036C129.022 72.403 130.003 70.6513 130.003 69.18C130.003 68.8296 129.933 68.4793 129.793 68.2691C130.143 68.199 130.424 68.199 130.634 68.2691C131.124 68.4092 131.475 68.9698 131.475 69.8106Z" fill="#BCBEC0" stroke="#231F20" stroke-width="0.0576431" stroke-miterlimit="10" stroke-linecap="round" stroke-linejoin="round"/>
        <path d="M129.933 69.1799C129.933 70.5812 128.952 72.3329 127.691 73.1036C127.48 73.2437 127.34 73.3138 127.13 73.3138C126.99 73.0335 126.92 72.7533 126.92 72.4029C126.92 71.0016 127.901 69.25 129.162 68.4792C129.372 68.3391 129.512 68.269 129.723 68.269C129.863 68.4792 129.933 68.8296 129.933 69.1799Z" fill="#808285" stroke="#231F20" stroke-width="0.0576431" stroke-miterlimit="10" stroke-linecap="round" stroke-linejoin="round"/>
        <path d="M130.914 67.6385C130.494 67.4984 130.003 67.5685 129.443 67.8487C129.373 67.9188 129.302 67.9188 129.232 67.9889C127.761 68.8297 126.57 71.0017 126.57 72.6833C126.57 72.9635 126.57 73.1737 126.64 73.3839C126.78 73.8043 126.99 74.1547 127.271 74.3649L123.837 72.5432C123.277 72.333 122.856 71.7024 122.856 70.7214C122.856 68.9698 124.048 66.8678 125.519 66.027C126.22 65.6066 126.85 65.5366 127.341 65.8168L127.411 65.8869L130.914 67.6385Z" fill="url(#paint11_linear_1_19911)" stroke="#231F20" stroke-width="0.0598999" stroke-miterlimit="10" stroke-linecap="round" stroke-linejoin="round"/>
        <path d="M122.086 77.728C122.016 77.658 121.876 77.658 121.806 77.5879L122.086 77.728Z" fill="url(#paint12_linear_1_19911)" stroke="#231F20" stroke-width="0.0598999" stroke-miterlimit="10" stroke-linecap="round" stroke-linejoin="round"/>
        <path d="M125.519 70.8614C125.098 70.7213 124.608 70.7914 124.047 71.0716C123.977 71.1417 123.907 71.1417 123.837 71.2118C122.296 72.0526 121.104 74.1545 121.104 75.8361C121.104 76.1164 121.104 76.3266 121.175 76.5368C121.315 76.9572 121.525 77.3075 121.805 77.5177L122.085 77.6578C122.576 77.868 123.136 77.798 123.837 77.3776C125.308 76.5368 126.5 74.3647 126.5 72.6832C126.5 71.7022 126.149 71.0716 125.519 70.8614ZM123.837 76.8871C123.277 77.2374 122.786 77.3075 122.366 77.0973L122.155 76.9572C122.015 76.817 121.875 76.6769 121.805 76.4667C121.665 76.1864 121.595 75.9062 121.595 75.5559C121.595 74.1545 122.576 72.4029 123.837 71.6322C124.047 71.492 124.187 71.422 124.398 71.422C124.748 71.3519 125.028 71.3519 125.238 71.422C125.729 71.6322 126.079 72.1226 126.079 72.9634C126.079 74.4348 125.098 76.1864 123.837 76.8871Z" fill="#F7F7F7" stroke="#231F20" stroke-width="0.0696909" stroke-miterlimit="10" stroke-linecap="round" stroke-linejoin="round"/>
        <path d="M126.08 72.9635C126.08 74.3648 125.099 76.1165 123.838 76.8872C123.277 77.2375 122.787 77.3076 122.366 77.0974L122.156 76.9573C122.016 76.8171 121.876 76.677 121.806 76.4668C121.946 76.3967 122.156 76.3267 122.366 76.2566C123.627 75.5559 124.608 73.8043 124.608 72.3329C124.608 71.9826 124.538 71.6323 124.398 71.4221C124.748 71.352 125.029 71.352 125.239 71.4221C125.729 71.6323 126.08 72.1227 126.08 72.9635Z" fill="#BCBEC0" stroke="#231F20" stroke-width="0.0576431" stroke-miterlimit="10" stroke-linecap="round" stroke-linejoin="round"/>
        <path d="M124.538 72.3329C124.538 73.7342 123.557 75.4858 122.296 76.2565C122.085 76.3967 121.945 76.4667 121.735 76.4667C121.595 76.1865 121.525 75.9062 121.525 75.5559C121.525 74.1546 122.506 72.4029 123.767 71.6322C123.977 71.4921 124.117 71.422 124.328 71.422C124.468 71.7023 124.538 71.9825 124.538 72.3329Z" fill="#808285" stroke="#231F20" stroke-width="0.0576431" stroke-miterlimit="10" stroke-linecap="round" stroke-linejoin="round"/>
        <path d="M125.519 70.8614C125.098 70.7213 124.608 70.7914 124.047 71.0716C123.977 71.1417 123.907 71.1417 123.837 71.2118C122.296 72.0526 121.105 74.1545 121.105 75.8361C121.105 76.1164 121.105 76.3266 121.175 76.5368C121.315 76.9572 121.525 77.3075 121.805 77.5177L118.372 75.696C117.812 75.4858 117.391 74.8552 117.391 73.8743C117.391 72.1226 118.582 70.0207 120.054 69.1799C120.754 68.7595 121.385 68.6894 121.875 68.9697L121.945 69.0397L125.519 70.8614Z" fill="url(#paint13_linear_1_19911)" stroke="#231F20" stroke-width="0.0598999" stroke-miterlimit="10" stroke-linecap="round" stroke-linejoin="round"/>
        <path d="M133.086 64.8359C133.016 64.7659 132.876 64.7659 132.806 64.6958L133.086 64.8359Z" fill="url(#paint14_linear_1_19911)" stroke="#231F20" stroke-width="0.0598999" stroke-miterlimit="10" stroke-linecap="round" stroke-linejoin="round"/>
        <path d="M136.449 58.0395C136.029 57.8994 135.538 57.9695 134.978 58.2497C134.908 58.3198 134.838 58.3198 134.767 58.3899C133.296 59.2307 132.105 61.4027 132.105 63.0843C132.105 63.3645 132.105 63.5747 132.175 63.7849C132.315 64.2053 132.525 64.5557 132.806 64.7659L133.086 64.906C133.576 65.1162 134.137 65.0461 134.838 64.6257C136.309 63.7849 137.5 61.6129 137.5 59.9313C137.5 58.8803 137.08 58.2497 136.449 58.0395ZM134.838 64.0652C134.277 64.4155 133.787 64.4856 133.366 64.2754L133.156 64.1353C133.016 63.9951 132.876 63.855 132.806 63.6448C132.666 63.3645 132.595 63.0843 132.595 62.734C132.595 61.3326 133.576 59.581 134.838 58.8103C135.048 58.6701 135.188 58.6001 135.398 58.6001C135.748 58.53 136.029 58.53 136.239 58.6001C136.729 58.8103 137.08 59.3007 137.08 60.1415C137.08 61.5428 136.029 63.2945 134.838 64.0652Z" fill="#F7F7F7" stroke="#231F20" stroke-width="0.0696909" stroke-miterlimit="10" stroke-linecap="round" stroke-linejoin="round"/>
        <path d="M137.009 60.1415C137.009 61.5428 136.028 63.2944 134.767 64.0652C134.207 64.4155 133.716 64.4856 133.296 64.2754L133.086 64.1352C132.946 63.9951 132.805 63.855 132.735 63.6448C132.875 63.5747 133.086 63.5046 133.296 63.4346C134.557 62.7339 135.538 60.9823 135.538 59.5109C135.538 59.1606 135.468 58.8102 135.328 58.6C135.678 58.53 135.958 58.53 136.169 58.6C136.729 58.8102 137.009 59.3007 137.009 60.1415Z" fill="#BCBEC0" stroke="#231F20" stroke-width="0.0576431" stroke-miterlimit="10" stroke-linecap="round" stroke-linejoin="round"/>
        <path d="M135.538 59.5108C135.538 60.9121 134.557 62.6638 133.296 63.4345C133.085 63.5746 132.945 63.6447 132.735 63.6447C132.595 63.3644 132.525 63.0842 132.525 62.7339C132.525 61.3325 133.506 59.5809 134.767 58.8102C134.977 58.67 135.117 58.6 135.328 58.6C135.468 58.8802 135.538 59.1605 135.538 59.5108Z" fill="#808285" stroke="#231F20" stroke-width="0.0576431" stroke-miterlimit="10" stroke-linecap="round" stroke-linejoin="round"/>
        <path d="M136.449 58.0395C136.028 57.8994 135.538 57.9695 134.977 58.2497C134.907 58.3198 134.837 58.3198 134.767 58.3899C133.296 59.2307 132.105 61.4027 132.105 63.0843C132.105 63.3645 132.105 63.5747 132.175 63.7849C132.315 64.2053 132.525 64.5557 132.805 64.7659L129.372 62.9442C128.812 62.734 128.391 62.1034 128.391 61.1224C128.391 59.3708 129.582 57.2688 131.054 56.428C131.754 56.0076 132.385 55.9376 132.875 56.2178L132.945 56.2879L136.449 58.0395Z" fill="url(#paint15_linear_1_19911)" stroke="#231F20" stroke-width="0.0598999" stroke-miterlimit="10" stroke-linecap="round" stroke-linejoin="round"/>
        <path d="M127.481 68.0588C127.411 67.9888 127.271 67.9888 127.201 67.9187L127.481 68.0588Z" fill="url(#paint16_linear_1_19911)" stroke="#231F20" stroke-width="0.0598999" stroke-miterlimit="10" stroke-linecap="round" stroke-linejoin="round"/>
        <path d="M130.914 61.1924C130.494 61.0522 130.003 61.1223 129.443 61.4026C129.372 61.4726 129.302 61.4726 129.232 61.5427C127.761 62.3835 126.57 64.5555 126.57 66.2371C126.57 66.5174 126.57 66.7276 126.64 66.9378C126.78 67.3582 126.99 67.7085 127.27 67.9187L127.551 68.0588C128.041 68.269 128.602 68.199 129.302 67.7786C130.774 66.9378 131.965 64.7657 131.965 63.0842C131.895 62.0332 131.544 61.4026 130.914 61.1924ZM129.232 67.218C128.672 67.5684 128.181 67.6384 127.761 67.4282L127.551 67.2881C127.411 67.148 127.27 67.0078 127.2 66.7976C127.06 66.5174 126.99 66.2371 126.99 65.8868C126.99 64.4855 127.971 62.7338 129.232 61.9631C129.443 61.823 129.583 61.7529 129.793 61.7529C130.143 61.6828 130.423 61.6828 130.634 61.7529C131.124 61.9631 131.474 62.4536 131.474 63.2944C131.474 64.7657 130.494 66.5174 129.232 67.218Z" fill="#F7F7F7" stroke="#231F20" stroke-width="0.0696909" stroke-miterlimit="10" stroke-linecap="round" stroke-linejoin="round"/>
        <path d="M131.475 63.2943C131.475 64.6956 130.494 66.4473 129.233 67.218C128.672 67.5683 128.182 67.6384 127.761 67.4282L127.551 67.2881C127.411 67.1479 127.271 67.0078 127.201 66.7976C127.341 66.7275 127.551 66.6575 127.761 66.5874C129.022 65.8867 130.003 64.1351 130.003 62.6637C130.003 62.3134 129.933 61.9631 129.793 61.7529C130.143 61.6828 130.424 61.6828 130.634 61.7529C131.124 61.9631 131.475 62.5236 131.475 63.2943Z" fill="#BCBEC0" stroke="#231F20" stroke-width="0.0576431" stroke-miterlimit="10" stroke-linecap="round" stroke-linejoin="round"/>
        <path d="M129.933 62.7338C129.933 64.1352 128.952 65.8868 127.691 66.6575C127.48 66.7977 127.34 66.8677 127.13 66.8677C126.99 66.5875 126.92 66.3072 126.92 65.9569C126.92 64.5556 127.901 62.8039 129.162 62.0332C129.372 61.8931 129.512 61.823 129.723 61.823C129.863 62.0332 129.933 62.3835 129.933 62.7338Z" fill="#808285" stroke="#231F20" stroke-width="0.0576431" stroke-miterlimit="10" stroke-linecap="round" stroke-linejoin="round"/>
        <path d="M130.914 61.1924C130.494 61.0522 130.003 61.1223 129.443 61.4026C129.373 61.4726 129.302 61.4726 129.232 61.5427C127.761 62.3835 126.57 64.5555 126.57 66.2371C126.57 66.5174 126.57 66.7276 126.64 66.9378C126.78 67.3582 126.99 67.7085 127.271 67.9187L123.837 66.097C123.277 65.8868 122.856 65.2562 122.856 64.2753C122.856 62.5236 124.048 60.4217 125.519 59.5809C126.22 59.1605 126.85 59.0904 127.341 59.3707L127.411 59.4407L130.914 61.1924Z" fill="url(#paint17_linear_1_19911)" stroke="#231F20" stroke-width="0.0598999" stroke-miterlimit="10" stroke-linecap="round" stroke-linejoin="round"/>
        <path d="M122.086 71.2118C122.016 71.1417 121.876 71.1417 121.806 71.0717L122.086 71.2118Z" fill="url(#paint18_linear_1_19911)" stroke="#231F20" stroke-width="0.0598999" stroke-miterlimit="10" stroke-linecap="round" stroke-linejoin="round"/>
        <path d="M125.519 64.4155C125.098 64.2754 124.608 64.3455 124.047 64.6257C123.977 64.6958 123.907 64.6958 123.837 64.7659C122.366 65.6066 121.175 67.7787 121.175 69.4603C121.175 69.7405 121.175 69.9507 121.245 70.1609C121.385 70.5813 121.595 70.9316 121.875 71.1418L122.156 71.282C122.646 71.4922 123.207 71.4221 123.907 71.0017C125.379 70.1609 126.57 67.9889 126.57 66.3073C126.5 65.2563 126.149 64.6257 125.519 64.4155ZM123.837 70.4412C123.277 70.7915 122.786 70.8616 122.366 70.6514L122.156 70.5112C122.016 70.3711 121.875 70.231 121.805 70.0208C121.665 69.7405 121.595 69.4603 121.595 69.1099C121.595 67.7086 122.576 65.957 123.837 65.1862C124.048 65.0461 124.188 64.9761 124.398 64.9761C124.748 64.906 125.028 64.906 125.239 64.9761C125.729 65.1862 126.079 65.6767 126.079 66.5175C126.079 67.9188 125.098 69.6705 123.837 70.4412Z" fill="#F7F7F7" stroke="#231F20" stroke-width="0.0696909" stroke-miterlimit="10" stroke-linecap="round" stroke-linejoin="round"/>
        <path d="M126.08 66.5175C126.08 67.9188 125.099 69.6704 123.838 70.4411C123.277 70.7915 122.787 70.8615 122.366 70.6513L122.156 70.5112C122.016 70.3711 121.876 70.2309 121.806 70.0207C121.946 69.9507 122.156 69.8806 122.366 69.8105C123.627 69.1099 124.608 67.3582 124.608 65.8869C124.608 65.5365 124.538 65.1862 124.398 64.976C124.748 64.9059 125.029 64.9059 125.239 64.976C125.729 65.1862 126.08 65.6767 126.08 66.5175Z" fill="#BCBEC0" stroke="#231F20" stroke-width="0.0576431" stroke-miterlimit="10" stroke-linecap="round" stroke-linejoin="round"/>
        <path d="M124.538 65.8868C124.538 67.2881 123.557 69.0398 122.296 69.8105C122.086 69.9506 121.946 70.0207 121.736 70.0207C121.595 69.7404 121.525 69.4602 121.525 69.1098C121.525 67.7085 122.506 65.9569 123.767 65.1861C123.978 65.046 124.118 64.976 124.328 64.976C124.468 65.2562 124.538 65.5365 124.538 65.8868Z" fill="#808285" stroke="#231F20" stroke-width="0.0576431" stroke-miterlimit="10" stroke-linecap="round" stroke-linejoin="round"/>
        <path d="M122.086 71.2825V71.2118V71.2825Z" fill="url(#paint19_linear_1_19911)" stroke="#231F20" stroke-width="0.0598999" stroke-miterlimit="10" stroke-linecap="round" stroke-linejoin="round"/>
        <path d="M125.519 64.4154C125.099 64.2753 124.608 64.3453 124.048 64.6256C123.978 64.6957 123.907 64.6957 123.837 64.7657C122.366 65.6065 121.175 67.7786 121.175 69.4601C121.175 69.7404 121.175 69.9506 121.245 70.1608C121.385 70.5812 121.595 70.9315 121.876 71.1417L118.442 69.32C117.882 69.1098 117.461 68.4792 117.461 67.4983C117.461 65.7467 118.653 63.6447 120.124 62.8039C120.825 62.3835 121.455 62.3134 121.946 62.5937L122.016 62.6638L125.519 64.4154Z" fill="url(#paint20_linear_1_19911)" stroke="#231F20" stroke-width="0.0598999" stroke-miterlimit="10" stroke-linecap="round" stroke-linejoin="round"/>
        <path d="M133.086 58.5299C133.016 58.4598 132.876 58.4598 132.806 58.3898L133.086 58.5299Z" fill="url(#paint21_linear_1_19911)" stroke="#231F20" stroke-width="0.0598999" stroke-miterlimit="10" stroke-linecap="round" stroke-linejoin="round"/>
        <path d="M136.449 51.6634C136.029 51.5233 135.538 51.5934 134.978 51.8736C134.908 51.9437 134.838 51.9437 134.767 52.0138C133.296 52.8546 132.105 55.0266 132.105 56.7082C132.105 56.9884 132.105 57.1986 132.175 57.4088C132.315 57.8292 132.525 58.1796 132.806 58.3898L133.086 58.5299C133.576 58.7401 134.137 58.67 134.838 58.2496C136.309 57.4088 137.5 55.2368 137.5 53.5552C137.5 52.5042 137.08 51.8736 136.449 51.6634ZM134.838 57.6891C134.277 58.0394 133.787 58.1095 133.366 57.8993L133.156 57.7592C133.016 57.619 132.876 57.4789 132.806 57.2687C132.666 56.9884 132.595 56.7082 132.595 56.3579C132.595 54.9565 133.576 53.2049 134.838 52.4342C135.048 52.294 135.188 52.224 135.398 52.224C135.748 52.1539 136.029 52.1539 136.239 52.224C136.729 52.4342 137.08 52.9246 137.08 53.7654C137.08 55.2368 136.029 56.9884 134.838 57.6891Z" fill="#F7F7F7" stroke="#231F20" stroke-width="0.0696909" stroke-miterlimit="10" stroke-linecap="round" stroke-linejoin="round"/>
        <path d="M137.009 53.7654C137.009 55.1667 136.028 56.9183 134.767 57.6891C134.207 58.0394 133.716 58.1095 133.296 57.8993L133.086 57.7591C132.946 57.619 132.805 57.4789 132.735 57.2687C132.875 57.1986 133.086 57.1285 133.296 57.0585C134.557 56.3578 135.538 54.6062 135.538 53.1348C135.538 52.7845 135.468 52.4341 135.328 52.2239C135.678 52.1539 135.958 52.1539 136.169 52.2239C136.729 52.4341 137.009 52.9947 137.009 53.7654Z" fill="#BCBEC0" stroke="#231F20" stroke-width="0.0576431" stroke-miterlimit="10" stroke-linecap="round" stroke-linejoin="round"/>
        <path d="M135.538 53.2049C135.538 54.6062 134.557 56.3579 133.296 57.1286C133.085 57.2687 132.945 57.3388 132.735 57.3388C132.595 57.0585 132.525 56.7783 132.525 56.4279C132.525 55.0266 133.506 53.275 134.767 52.5043C134.977 52.3641 135.117 52.2941 135.328 52.2941C135.468 52.5043 135.538 52.7845 135.538 53.2049Z" fill="#808285" stroke="#231F20" stroke-width="0.0576431" stroke-miterlimit="10" stroke-linecap="round" stroke-linejoin="round"/>
        <path d="M136.449 51.6635C136.028 51.5233 135.538 51.5934 134.977 51.8737C134.907 51.9437 134.837 51.9437 134.767 52.0138C133.296 52.8546 132.105 55.0266 132.105 56.7082C132.105 56.9884 132.105 57.1986 132.175 57.4088C132.315 57.8292 132.525 58.1796 132.805 58.3898L129.372 56.5681C128.812 56.3579 128.391 55.7273 128.391 54.7463C128.391 52.9947 129.582 50.8927 131.054 50.0519C131.754 49.6315 132.385 49.5615 132.875 49.8417L132.945 49.9118L136.449 51.6635Z" fill="url(#paint22_linear_1_19911)" stroke="#231F20" stroke-width="0.0598999" stroke-miterlimit="10" stroke-linecap="round" stroke-linejoin="round"/>
        <path d="M127.481 61.6829C127.411 61.6128 127.271 61.6128 127.201 61.5427L127.481 61.6829Z" fill="url(#paint23_linear_1_19911)" stroke="#231F20" stroke-width="0.0598999" stroke-miterlimit="10" stroke-linecap="round" stroke-linejoin="round"/>
        <path d="M130.914 54.8865C130.494 54.7463 130.003 54.8164 129.443 55.0967C129.372 55.1667 129.302 55.1667 129.232 55.2368C127.761 56.0776 126.57 58.2496 126.57 59.9312C126.57 60.2115 126.57 60.4217 126.64 60.6319C126.78 61.0523 126.99 61.4026 127.27 61.6128L127.551 61.7529C128.041 61.9631 128.602 61.893 129.302 61.4727C130.774 60.6319 131.965 58.4598 131.965 56.7782C131.895 55.7273 131.544 55.0967 130.914 54.8865ZM129.232 60.9121C128.672 61.2625 128.181 61.3325 127.761 61.1223L127.551 60.9822C127.411 60.8421 127.27 60.7019 127.2 60.4917C127.06 60.2115 126.99 59.9312 126.99 59.5809C126.99 58.1796 127.971 56.4279 129.232 55.6572C129.443 55.5171 129.583 55.447 129.793 55.447C130.143 55.3769 130.423 55.3769 130.634 55.447C131.124 55.6572 131.474 56.1477 131.474 56.9884C131.474 58.3898 130.494 60.1414 129.232 60.9121Z" fill="#F7F7F7" stroke="#231F20" stroke-width="0.0696909" stroke-miterlimit="10" stroke-linecap="round" stroke-linejoin="round"/>
        <path d="M131.475 56.9884C131.475 58.3897 130.494 60.1414 129.233 60.9121C128.672 61.2624 128.182 61.3325 127.761 61.1223L127.551 60.9822C127.411 60.842 127.271 60.7019 127.201 60.4917C127.341 60.4216 127.551 60.3516 127.761 60.2815C129.022 59.5808 130.003 57.8292 130.003 56.3578C130.003 56.0075 129.933 55.6572 129.793 55.447C130.143 55.3769 130.424 55.3769 130.634 55.447C131.124 55.6572 131.475 56.1476 131.475 56.9884Z" fill="#BCBEC0" stroke="#231F20" stroke-width="0.0576431" stroke-miterlimit="10" stroke-linecap="round" stroke-linejoin="round"/>
        <path d="M129.933 56.358C129.933 57.7593 128.952 59.511 127.691 60.2817C127.48 60.4218 127.34 60.4919 127.13 60.4919C126.99 60.2116 126.92 59.9314 126.92 59.581C126.92 58.1797 127.901 56.4281 129.162 55.6573C129.372 55.5172 129.512 55.4471 129.723 55.4471C129.863 55.7274 129.933 56.0077 129.933 56.358Z" fill="#808285" stroke="#231F20" stroke-width="0.0576431" stroke-miterlimit="10" stroke-linecap="round" stroke-linejoin="round"/>
        <path d="M130.914 54.8865C130.494 54.7463 130.003 54.8164 129.443 55.0967C129.373 55.1667 129.302 55.1667 129.232 55.2368C127.761 56.0776 126.57 58.2496 126.57 59.9312C126.57 60.2115 126.57 60.4217 126.64 60.6319C126.78 61.0523 126.99 61.4026 127.271 61.6128L123.837 59.7911C123.277 59.5809 122.856 58.9503 122.856 57.9694C122.856 56.2177 124.048 54.1158 125.519 53.275C126.22 52.8546 126.85 52.7845 127.341 53.0648L127.411 53.1348L130.914 54.8865Z" fill="url(#paint24_linear_1_19911)" stroke="#231F20" stroke-width="0.0598999" stroke-miterlimit="10" stroke-linecap="round" stroke-linejoin="round"/>
        <path d="M122.086 64.9059C122.016 64.8358 121.876 64.8358 121.806 64.7657L122.086 64.9059Z" fill="url(#paint25_linear_1_19911)" stroke="#231F20" stroke-width="0.0598999" stroke-miterlimit="10" stroke-linecap="round" stroke-linejoin="round"/>
        <path d="M125.519 58.0395C125.098 57.8994 124.608 57.9695 124.047 58.2497C123.977 58.3198 123.907 58.3198 123.837 58.3899C122.366 59.2307 121.175 61.4027 121.175 63.0843C121.175 63.3645 121.175 63.5747 121.245 63.7849C121.385 64.2053 121.595 64.5557 121.875 64.7659L122.156 64.906C122.646 65.1162 123.207 65.0461 123.907 64.6257C125.379 63.7849 126.57 61.6129 126.57 59.9313C126.5 58.8803 126.149 58.2497 125.519 58.0395ZM123.837 64.0652C123.277 64.4155 122.786 64.4856 122.366 64.2754L122.156 64.1353C122.016 63.9951 121.875 63.855 121.805 63.6448C121.665 63.3645 121.595 63.0843 121.595 62.734C121.595 61.3326 122.576 59.581 123.837 58.8103C124.048 58.6701 124.188 58.6001 124.398 58.6001C124.748 58.53 125.028 58.53 125.239 58.6001C125.729 58.8103 126.079 59.3007 126.079 60.1415C126.079 61.6129 125.098 63.3645 123.837 64.0652Z" fill="#F7F7F7" stroke="#231F20" stroke-width="0.0696909" stroke-miterlimit="10" stroke-linecap="round" stroke-linejoin="round"/>
        <path d="M126.08 60.1415C126.08 61.5428 125.099 63.2944 123.838 64.0652C123.277 64.4155 122.787 64.4856 122.366 64.2754L122.156 64.1352C122.016 63.9951 121.876 63.855 121.806 63.6448C121.946 63.5747 122.156 63.5046 122.366 63.4346C123.627 62.7339 124.608 60.9823 124.608 59.5109C124.608 59.1606 124.538 58.8102 124.398 58.6C124.748 58.53 125.029 58.53 125.239 58.6C125.729 58.8102 126.08 59.3708 126.08 60.1415Z" fill="#BCBEC0" stroke="#231F20" stroke-width="0.0576431" stroke-miterlimit="10" stroke-linecap="round" stroke-linejoin="round"/>
        <path d="M124.538 59.5809C124.538 60.9822 123.557 62.7339 122.296 63.5046C122.085 63.6447 121.945 63.7148 121.735 63.7148C121.595 63.4345 121.525 63.1543 121.525 62.8039C121.525 61.4026 122.506 59.651 123.767 58.8802C123.977 58.7401 124.117 58.67 124.328 58.67C124.468 58.8802 124.538 59.2306 124.538 59.5809Z" fill="#808285" stroke="#231F20" stroke-width="0.0576431" stroke-miterlimit="10" stroke-linecap="round" stroke-linejoin="round"/>
        <path d="M125.518 58.0395C125.098 57.8994 124.608 57.9695 124.047 58.2497C123.977 58.3198 123.907 58.3198 123.837 58.3899C122.366 59.2307 121.174 61.4027 121.174 63.0843C121.174 63.3645 121.174 63.5747 121.244 63.7849C121.385 64.2053 121.595 64.5557 121.875 64.7659L118.442 62.9442C117.881 62.734 117.461 62.1034 117.461 61.1224C117.461 59.3708 118.652 57.2688 120.123 56.428C120.824 56.0076 121.455 55.9376 121.945 56.2178L122.015 56.2879L125.518 58.0395Z" fill="url(#paint26_linear_1_19911)" stroke="#231F20" stroke-width="0.0598999" stroke-miterlimit="10" stroke-linecap="round" stroke-linejoin="round"/>
        <path d="M134.067 46.0582L116.831 56.0076V91.4608L139.882 78.1483V42.6951L134.067 46.0582ZM137.99 76.2566L137.36 76.6069L118.792 87.327V57.8293L134.137 49.001L138.06 46.7589V76.2566H137.99Z" fill="#F7F7F7" stroke="#231F20" stroke-width="0.157718" stroke-miterlimit="10" stroke-linecap="round" stroke-linejoin="round"/>
    </g>
    <defs>
        <linearGradient id="paint0_linear_1_19911" x1="99.9975" y1="71.479" x2="91.6131" y2="55.5774" gradientUnits="userSpaceOnUse">
            <stop stop-color="#D1D2D3"/>
            <stop offset="0.3636" stop-color="#D1D2D3"/>
            <stop offset="0.6738" stop-color="#F1F1F1"/>
            <stop offset="1" stop-color="#E5E6E6"/>
        </linearGradient>
        <linearGradient id="paint1_linear_1_19911" x1="91.0437" y1="73.2354" x2="85.3498" y2="62.4358" gradientUnits="userSpaceOnUse">
            <stop stop-color="#D1D2D3"/>
            <stop offset="0.3636" stop-color="#D1D2D3"/>
            <stop offset="0.6738" stop-color="#F1F1F1"/>
            <stop offset="1" stop-color="#E5E6E6"/>
        </linearGradient>
        <linearGradient id="paint2_linear_1_19911" x1="132.795" y1="77.6478" x2="133.069" y2="77.6478" gradientUnits="userSpaceOnUse">
            <stop stop-color="#D1D2D3"/>
            <stop offset="0.3636" stop-color="#D1D2D3"/>
            <stop offset="0.6738" stop-color="#F1F1F1"/>
            <stop offset="1" stop-color="#E5E6E6"/>
        </linearGradient>
        <linearGradient id="paint3_linear_1_19911" x1="129.781" y1="76.0792" x2="134.4" y2="69.7008" gradientUnits="userSpaceOnUse">
            <stop stop-color="#D1D2D3"/>
            <stop offset="0.3636" stop-color="#D1D2D3"/>
            <stop offset="0.6738" stop-color="#F1F1F1"/>
            <stop offset="1" stop-color="#E5E6E6"/>
        </linearGradient>
        <linearGradient id="paint4_linear_1_19911" x1="127.217" y1="80.8416" x2="127.491" y2="80.8416" gradientUnits="userSpaceOnUse">
            <stop stop-color="#D1D2D3"/>
            <stop offset="0.3636" stop-color="#D1D2D3"/>
            <stop offset="0.6738" stop-color="#F1F1F1"/>
            <stop offset="1" stop-color="#E5E6E6"/>
        </linearGradient>
        <linearGradient id="paint5_linear_1_19911" x1="124.203" y1="79.2733" x2="128.822" y2="72.8949" gradientUnits="userSpaceOnUse">
            <stop stop-color="#D1D2D3"/>
            <stop offset="0.3636" stop-color="#D1D2D3"/>
            <stop offset="0.6738" stop-color="#F1F1F1"/>
            <stop offset="1" stop-color="#E5E6E6"/>
        </linearGradient>
        <linearGradient id="paint6_linear_1_19911" x1="121.813" y1="84.0358" x2="122.087" y2="84.0358" gradientUnits="userSpaceOnUse">
            <stop stop-color="#D1D2D3"/>
            <stop offset="0.3636" stop-color="#D1D2D3"/>
            <stop offset="0.6738" stop-color="#F1F1F1"/>
            <stop offset="1" stop-color="#E5E6E6"/>
        </linearGradient>
        <linearGradient id="paint7_linear_1_19911" x1="118.798" y1="82.4673" x2="123.418" y2="76.0889" gradientUnits="userSpaceOnUse">
            <stop stop-color="#D1D2D3"/>
            <stop offset="0.3636" stop-color="#D1D2D3"/>
            <stop offset="0.6738" stop-color="#F1F1F1"/>
            <stop offset="1" stop-color="#E5E6E6"/>
        </linearGradient>
        <linearGradient id="paint8_linear_1_19911" x1="132.795" y1="71.2331" x2="133.069" y2="71.2331" gradientUnits="userSpaceOnUse">
            <stop stop-color="#D1D2D3"/>
            <stop offset="0.3636" stop-color="#D1D2D3"/>
            <stop offset="0.6738" stop-color="#F1F1F1"/>
            <stop offset="1" stop-color="#E5E6E6"/>
        </linearGradient>
        <linearGradient id="paint9_linear_1_19911" x1="129.781" y1="69.6647" x2="134.4" y2="63.2863" gradientUnits="userSpaceOnUse">
            <stop stop-color="#D1D2D3"/>
            <stop offset="0.3636" stop-color="#D1D2D3"/>
            <stop offset="0.6738" stop-color="#F1F1F1"/>
            <stop offset="1" stop-color="#E5E6E6"/>
        </linearGradient>
        <linearGradient id="paint10_linear_1_19911" x1="127.217" y1="74.4272" x2="127.491" y2="74.4272" gradientUnits="userSpaceOnUse">
            <stop stop-color="#D1D2D3"/>
            <stop offset="0.3636" stop-color="#D1D2D3"/>
            <stop offset="0.6738" stop-color="#F1F1F1"/>
            <stop offset="1" stop-color="#E5E6E6"/>
        </linearGradient>
        <linearGradient id="paint11_linear_1_19911" x1="124.203" y1="72.8588" x2="128.822" y2="66.4804" gradientUnits="userSpaceOnUse">
            <stop stop-color="#D1D2D3"/>
            <stop offset="0.3636" stop-color="#D1D2D3"/>
            <stop offset="0.6738" stop-color="#F1F1F1"/>
            <stop offset="1" stop-color="#E5E6E6"/>
        </linearGradient>
        <linearGradient id="paint12_linear_1_19911" x1="121.813" y1="77.6212" x2="122.087" y2="77.6212" gradientUnits="userSpaceOnUse">
            <stop stop-color="#D1D2D3"/>
            <stop offset="0.3636" stop-color="#D1D2D3"/>
            <stop offset="0.6738" stop-color="#F1F1F1"/>
            <stop offset="1" stop-color="#E5E6E6"/>
        </linearGradient>
        <linearGradient id="paint13_linear_1_19911" x1="118.798" y1="76.0526" x2="123.418" y2="69.6742" gradientUnits="userSpaceOnUse">
            <stop stop-color="#D1D2D3"/>
            <stop offset="0.3636" stop-color="#D1D2D3"/>
            <stop offset="0.6738" stop-color="#F1F1F1"/>
            <stop offset="1" stop-color="#E5E6E6"/>
        </linearGradient>
        <linearGradient id="paint14_linear_1_19911" x1="132.795" y1="64.7804" x2="133.069" y2="64.7804" gradientUnits="userSpaceOnUse">
            <stop stop-color="#D1D2D3"/>
            <stop offset="0.3636" stop-color="#D1D2D3"/>
            <stop offset="0.6738" stop-color="#F1F1F1"/>
            <stop offset="1" stop-color="#E5E6E6"/>
        </linearGradient>
        <linearGradient id="paint15_linear_1_19911" x1="129.781" y1="63.2119" x2="134.4" y2="56.8335" gradientUnits="userSpaceOnUse">
            <stop stop-color="#D1D2D3"/>
            <stop offset="0.3636" stop-color="#D1D2D3"/>
            <stop offset="0.6738" stop-color="#F1F1F1"/>
            <stop offset="1" stop-color="#E5E6E6"/>
        </linearGradient>
        <linearGradient id="paint16_linear_1_19911" x1="127.217" y1="67.9742" x2="127.491" y2="67.9742" gradientUnits="userSpaceOnUse">
            <stop stop-color="#D1D2D3"/>
            <stop offset="0.3636" stop-color="#D1D2D3"/>
            <stop offset="0.6738" stop-color="#F1F1F1"/>
            <stop offset="1" stop-color="#E5E6E6"/>
        </linearGradient>
        <linearGradient id="paint17_linear_1_19911" x1="124.203" y1="66.4058" x2="128.822" y2="60.0273" gradientUnits="userSpaceOnUse">
            <stop stop-color="#D1D2D3"/>
            <stop offset="0.3636" stop-color="#D1D2D3"/>
            <stop offset="0.6738" stop-color="#F1F1F1"/>
            <stop offset="1" stop-color="#E5E6E6"/>
        </linearGradient>
        <linearGradient id="paint18_linear_1_19911" x1="121.813" y1="71.1681" x2="122.087" y2="71.1681" gradientUnits="userSpaceOnUse">
            <stop stop-color="#D1D2D3"/>
            <stop offset="0.3636" stop-color="#D1D2D3"/>
            <stop offset="0.6738" stop-color="#F1F1F1"/>
            <stop offset="1" stop-color="#E5E6E6"/>
        </linearGradient>
        <linearGradient id="paint19_linear_1_19911" x1="-nan" y1="-nan" x2="-nan" y2="-nan" gradientUnits="userSpaceOnUse">
            <stop stop-color="#D1D2D3"/>
            <stop offset="0.3636" stop-color="#D1D2D3"/>
            <stop offset="0.6738" stop-color="#F1F1F1"/>
            <stop offset="1" stop-color="#E5E6E6"/>
        </linearGradient>
        <linearGradient id="paint20_linear_1_19911" x1="118.799" y1="69.5997" x2="123.418" y2="63.2213" gradientUnits="userSpaceOnUse">
            <stop stop-color="#D1D2D3"/>
            <stop offset="0.3636" stop-color="#D1D2D3"/>
            <stop offset="0.6738" stop-color="#F1F1F1"/>
            <stop offset="1" stop-color="#E5E6E6"/>
        </linearGradient>
        <linearGradient id="paint21_linear_1_19911" x1="132.795" y1="58.4306" x2="133.069" y2="58.4306" gradientUnits="userSpaceOnUse">
            <stop stop-color="#D1D2D3"/>
            <stop offset="0.3636" stop-color="#D1D2D3"/>
            <stop offset="0.6738" stop-color="#F1F1F1"/>
            <stop offset="1" stop-color="#E5E6E6"/>
        </linearGradient>
        <linearGradient id="paint22_linear_1_19911" x1="129.781" y1="56.8622" x2="134.4" y2="50.4838" gradientUnits="userSpaceOnUse">
            <stop stop-color="#D1D2D3"/>
            <stop offset="0.3636" stop-color="#D1D2D3"/>
            <stop offset="0.6738" stop-color="#F1F1F1"/>
            <stop offset="1" stop-color="#E5E6E6"/>
        </linearGradient>
        <linearGradient id="paint23_linear_1_19911" x1="127.217" y1="61.6246" x2="127.491" y2="61.6246" gradientUnits="userSpaceOnUse">
            <stop stop-color="#D1D2D3"/>
            <stop offset="0.3636" stop-color="#D1D2D3"/>
            <stop offset="0.6738" stop-color="#F1F1F1"/>
            <stop offset="1" stop-color="#E5E6E6"/>
        </linearGradient>
        <linearGradient id="paint24_linear_1_19911" x1="124.203" y1="60.0561" x2="128.822" y2="53.6778" gradientUnits="userSpaceOnUse">
            <stop stop-color="#D1D2D3"/>
            <stop offset="0.3636" stop-color="#D1D2D3"/>
            <stop offset="0.6738" stop-color="#F1F1F1"/>
            <stop offset="1" stop-color="#E5E6E6"/>
        </linearGradient>
        <linearGradient id="paint25_linear_1_19911" x1="121.813" y1="64.8186" x2="122.087" y2="64.8186" gradientUnits="userSpaceOnUse">
            <stop stop-color="#D1D2D3"/>
            <stop offset="0.3636" stop-color="#D1D2D3"/>
            <stop offset="0.6738" stop-color="#F1F1F1"/>
            <stop offset="1" stop-color="#E5E6E6"/>
        </linearGradient>
        <linearGradient id="paint26_linear_1_19911" x1="118.798" y1="63.2503" x2="123.418" y2="56.8718" gradientUnits="userSpaceOnUse">
            <stop stop-color="#D1D2D3"/>
            <stop offset="0.3636" stop-color="#D1D2D3"/>
            <stop offset="0.6738" stop-color="#F1F1F1"/>
            <stop offset="1" stop-color="#E5E6E6"/>
        </linearGradient>
        <clipPath id="">
            <rect width="69.295" height="104.258" fill="white" transform="translate(70.6582 16)"/>
        </clipPath>
    </defs>
</svg>
