<svg width="230" height="230" viewBox="0 0 230 230" fill="none"
    xmlns="http://www.w3.org/2000/svg">

    <g clip-path="url(#)">
        <path d="M176.528 153.329L176.037 153.609C175.967 153.609 175.967 153.609 175.897 153.609C176.177 153.539 176.387 153.399 176.528 153.329Z" fill="#F1F2F2" stroke="#231F20" stroke-width="0.201439" stroke-miterlimit="10" stroke-linecap="round" stroke-linejoin="round"/>
        <path d="M180.592 155.571C180.452 155.711 180.241 155.781 180.101 155.921L180.031 155.991L180.592 155.571Z" fill="#F1F2F2" stroke="#231F20" stroke-width="0.201439" stroke-miterlimit="10" stroke-linecap="round" stroke-linejoin="round"/>
        <path d="M176.528 153.329L176.037 153.609C175.967 153.609 175.967 153.609 175.897 153.609C176.177 153.539 176.387 153.399 176.528 153.329Z" fill="#F1F2F2" stroke="#231F20" stroke-width="0.201439" stroke-miterlimit="10" stroke-linecap="round" stroke-linejoin="round"/>
        <path d="M176.528 153.329L176.037 153.609C175.967 153.609 175.967 153.609 175.897 153.609C176.177 153.539 176.387 153.399 176.528 153.329Z" fill="#F1F2F2" stroke="#231F20" stroke-width="0.201439" stroke-miterlimit="10" stroke-linecap="round" stroke-linejoin="round"/>
        <path d="M180.592 155.571C180.452 155.711 180.241 155.781 180.101 155.921L180.031 155.991L180.592 155.571Z" fill="#F1F2F2" stroke="#231F20" stroke-width="0.201439" stroke-miterlimit="10" stroke-linecap="round" stroke-linejoin="round"/>
        <path d="M183.884 153.469C183.184 155.15 182.203 156.342 180.871 157.112L180.731 157.182C178.349 158.584 175.056 158.373 171.413 156.342L172.323 155.781C175.336 157.112 177.999 157.112 180.031 155.991L180.101 155.921C180.311 155.781 180.451 155.711 180.591 155.571L183.884 153.469Z" fill="#414042" stroke="#231F20" stroke-width="0.201439" stroke-miterlimit="10" stroke-linecap="round" stroke-linejoin="round"/>
        <path d="M176.528 153.329L176.037 153.609C175.967 153.609 175.967 153.609 175.897 153.609C176.177 153.539 176.387 153.399 176.528 153.329Z" fill="#F1F2F2" stroke="#231F20" stroke-width="0.201439" stroke-miterlimit="10" stroke-linecap="round" stroke-linejoin="round"/>
        <path d="M180.592 155.571C180.452 155.711 180.241 155.781 180.101 155.921L180.031 155.991L180.592 155.571Z" fill="#F1F2F2" stroke="#231F20" stroke-width="0.201439" stroke-miterlimit="10" stroke-linecap="round" stroke-linejoin="round"/>
        <path d="M176.528 153.329L176.037 153.609C175.967 153.609 175.967 153.609 175.897 153.609C176.177 153.539 176.387 153.399 176.528 153.329Z" fill="#F1F2F2" stroke="#231F20" stroke-width="0.201439" stroke-miterlimit="10" stroke-linecap="round" stroke-linejoin="round"/>
        <path d="M155.438 121.729L154.597 121.239C154.667 121.169 154.737 121.028 154.807 120.958L155.438 121.729Z" fill="#F1F2F2" stroke="#231F20" stroke-width="0.201439" stroke-miterlimit="10" stroke-linecap="round" stroke-linejoin="round"/>
        <path d="M137.781 93.5626L136.87 93.983C137.15 93.7728 137.431 93.6327 137.781 93.5626Z" fill="#F1F2F2" stroke="#231F20" stroke-width="0.201439" stroke-miterlimit="10" stroke-linecap="round" stroke-linejoin="round"/>
        <path d="M120.405 93.3524H120.334C120.334 93.2823 120.405 93.2823 120.405 93.2123C120.405 93.2823 120.405 93.3524 120.405 93.3524Z" fill="#F1F2F2" stroke="#231F20" stroke-width="0.201439" stroke-miterlimit="10" stroke-linecap="round" stroke-linejoin="round"/>
        <path d="M172.043 150.316C172.043 151.157 171.973 151.928 171.833 152.628C171.763 153.049 171.693 153.399 171.553 153.819C171.413 154.31 171.273 154.73 171.062 155.151C170.922 155.431 170.782 155.641 170.642 155.851C170.432 156.202 170.222 156.552 169.941 156.832C169.521 157.253 169.101 157.673 168.61 157.953L168.47 158.023C166.298 159.214 163.355 159.074 160.062 157.182C159.642 156.972 159.221 156.692 158.871 156.412L116.341 131.889C116.061 131.749 115.851 131.608 115.57 131.468C108.984 127.685 103.659 118.436 103.659 110.869C103.659 109.328 103.869 107.996 104.29 106.875C104.85 105.194 105.831 104.003 107.022 103.232C107.092 103.232 107.092 103.162 107.162 103.162C107.723 102.882 108.284 102.671 108.914 102.531C109.054 102.531 109.264 102.461 109.405 102.461C109.545 102.461 109.755 102.391 109.965 102.391L111.857 102.251L112.277 102.181L118.373 101.69L118.793 101.62L122.157 101.34L123.768 101.2L126.711 100.99L131.685 100.569C131.966 100.499 132.246 100.499 132.526 100.499C132.666 100.499 132.807 100.499 133.017 100.499C133.858 100.499 134.768 100.709 135.749 101.06C136.52 101.34 137.291 101.69 138.061 102.111C139.183 102.741 140.304 103.582 141.284 104.493C142.125 105.264 142.966 106.175 143.737 107.085L143.807 107.156C144.017 107.436 144.227 107.646 144.437 107.926L154.737 120.888C154.667 120.958 154.597 121.099 154.527 121.169L155.368 121.659L156.909 123.621L157.189 123.971L159.432 126.844L161.604 129.577L164.827 133.64C165.387 134.201 165.878 134.831 166.368 135.462C166.718 135.882 167.069 136.373 167.349 136.863C169.871 140.647 171.623 145.061 171.903 149.195C171.973 149.615 172.043 149.966 172.043 150.316Z" fill="#F1F2F2" stroke="#231F20" stroke-width="0.201439" stroke-miterlimit="10" stroke-linecap="round" stroke-linejoin="round"/>
        <path opacity="0.14" d="M172.043 150.316C172.043 151.157 171.973 151.928 171.833 152.628C171.763 153.049 171.693 153.399 171.553 153.819C171.413 154.31 171.273 154.73 171.062 155.151C170.922 155.431 170.782 155.641 170.642 155.851C170.432 156.202 170.222 156.552 169.941 156.832C169.521 157.253 169.101 157.673 168.61 157.953L168.47 158.023C166.298 159.214 163.355 159.074 160.062 157.182C159.642 156.972 159.221 156.692 158.871 156.412L116.341 131.889C116.061 131.749 115.851 131.608 115.57 131.468C108.984 127.685 103.659 118.436 103.659 110.869C103.659 109.328 103.869 107.996 104.29 106.875C104.85 105.194 105.831 104.003 107.022 103.232C107.092 103.232 107.092 103.162 107.162 103.162C107.723 102.882 108.284 102.671 108.914 102.531C109.054 102.531 109.264 102.461 109.405 102.461C109.545 102.461 109.755 102.391 109.965 102.391L111.857 102.251L112.277 102.181L118.373 101.69L118.793 101.62L122.157 101.34L123.768 101.2L126.711 100.99L131.685 100.569C131.966 100.499 132.246 100.499 132.526 100.499C132.666 100.499 132.807 100.499 133.017 100.499C133.858 100.499 134.768 100.709 135.749 101.06C136.52 101.34 137.291 101.69 138.061 102.111C139.183 102.741 140.304 103.582 141.284 104.493C142.125 105.264 142.966 106.175 143.737 107.085L143.807 107.156C144.017 107.436 144.227 107.646 144.437 107.926L154.737 120.888C154.667 120.958 154.597 121.099 154.527 121.169L155.368 121.659L156.909 123.621L157.189 123.971L159.432 126.844L161.604 129.577L164.827 133.64C165.387 134.201 165.878 134.831 166.368 135.462C166.718 135.882 167.069 136.373 167.349 136.863C169.871 140.647 171.623 145.061 171.903 149.195C171.973 149.615 172.043 149.966 172.043 150.316Z" fill="black" stroke="#231F20" stroke-width="0.0802954" stroke-miterlimit="10"/>
        <path d="M155.438 121.729L154.597 121.239C154.667 121.169 154.737 121.028 154.807 120.958L155.438 121.729Z" fill="#F1F2F2" stroke="#231F20" stroke-width="0.201439" stroke-miterlimit="10" stroke-linecap="round" stroke-linejoin="round"/>
        <path d="M188.088 150.456C188.088 155.08 186.477 158.374 183.884 159.915L183.744 159.985C181.082 161.526 177.438 161.246 173.375 158.934C172.884 158.654 172.394 158.303 171.903 158.023L170.222 157.042L171.413 156.342C175.056 158.374 178.349 158.584 180.732 157.182L180.872 157.112C182.203 156.342 183.184 155.08 183.884 153.469C184.445 152.068 184.795 150.386 184.795 148.424C184.795 147.653 184.725 146.813 184.655 145.972C184.305 142.959 183.254 139.876 181.782 136.863C181.152 135.602 180.381 134.341 179.61 133.15C178.7 131.819 177.719 130.627 176.738 129.506L172.043 123.551L169.661 120.538L169.311 120.118L167.279 117.595L161.183 109.888L159.221 107.436L153.546 100.219C153.336 99.9387 153.126 99.6584 152.845 99.3782L152.775 99.3081C151.794 98.117 150.743 97.066 149.692 96.0851C148.571 95.1041 147.45 94.2634 146.259 93.6328C144.508 92.6518 142.896 92.0913 141.425 91.8811C141.284 91.8811 141.144 91.8111 140.934 91.8111C140.514 91.8111 140.163 91.741 139.813 91.8111C139.533 91.8111 139.253 91.8811 139.042 91.8811L131.756 92.5117L130.845 92.5818L120.335 93.4226C120.335 93.3525 120.335 93.3525 120.335 93.2824C120.335 93.3525 120.265 93.3525 120.265 93.4226L117.953 93.6328L114.169 93.913C113.959 93.913 113.749 93.913 113.538 93.9831C112.628 94.1232 111.787 94.4035 111.016 94.8239C108.634 96.2252 107.092 99.0979 107.022 103.302C105.761 104.073 104.85 105.264 104.29 106.945C103.869 105.194 103.659 103.442 103.659 101.76C103.659 97.066 105.341 93.7729 108.003 92.2314H108.073C108.494 92.0212 108.914 91.8111 109.335 91.6709C109.825 91.5308 110.245 91.3907 110.806 91.3206C111.016 91.3206 111.226 91.2505 111.436 91.2505L120.405 90.4798L132.596 89.4989L137.921 89.0785L138.482 89.0084C138.902 88.9384 139.323 88.9384 139.743 88.9384C141.355 88.9384 143.106 89.3587 144.998 90.1995C145.418 90.4097 145.909 90.6199 146.329 90.9002C148.922 92.3716 151.304 94.5436 153.406 97.066L153.476 97.136C153.756 97.4163 153.966 97.7666 154.247 98.0469L160.833 106.385L168.89 116.614L168.82 116.684L169.311 117.105L170.852 119.067L173.655 122.57L173.935 122.92L179.4 129.787C180.521 130.978 181.572 132.379 182.553 133.78C183.674 135.392 184.585 137.144 185.426 138.895C186.757 141.838 187.668 144.921 188.018 147.864C188.018 148.775 188.088 149.615 188.088 150.456Z" fill="#231F20" stroke="#231F20" stroke-width="0.201439" stroke-miterlimit="10" stroke-linecap="round" stroke-linejoin="round"/>
        <path d="M169.241 117.035L168.68 116.614L168.82 116.544L169.241 117.035Z" fill="#F1F2F2" stroke="#231F20" stroke-width="0.201439" stroke-miterlimit="10" stroke-linecap="round" stroke-linejoin="round"/>
        <path d="M137.781 93.5626L136.87 93.983C137.15 93.7728 137.431 93.6327 137.781 93.5626Z" fill="#F1F2F2" stroke="#231F20" stroke-width="0.201439" stroke-miterlimit="10" stroke-linecap="round" stroke-linejoin="round"/>
        <path d="M141.425 91.811L141.144 91.9512L140.934 91.811C141.144 91.811 141.284 91.811 141.425 91.811Z" fill="#F1F2F2" stroke="#231F20" stroke-width="0.201439" stroke-miterlimit="10" stroke-linecap="round" stroke-linejoin="round"/>
        <path d="M169.521 120.468L168.96 120.118L169.171 120.048L169.521 120.468Z" fill="#F1F2F2" stroke="#231F20" stroke-width="0.201439" stroke-miterlimit="10" stroke-linecap="round" stroke-linejoin="round"/>
        <path d="M155.438 121.729L154.597 121.239C154.667 121.169 154.737 121.028 154.807 120.958L155.438 121.729Z" fill="#F1F2F2" stroke="#231F20" stroke-width="0.201439" stroke-miterlimit="10" stroke-linecap="round" stroke-linejoin="round"/>
        <path d="M122.437 97.2761L121.036 97.4163L118.583 97.6264L118.023 97.6965C117.813 97.6965 117.673 97.6965 117.462 97.7666C116.622 97.8366 115.921 98.1169 115.22 98.4672L108.984 102.181C109.405 99.1679 110.736 97.0659 112.628 96.0149C113.048 95.8047 113.399 95.5945 113.889 95.4544C115.43 94.9639 117.182 95.034 119.074 95.7347C119.634 95.9449 120.195 96.1551 120.755 96.4353C121.036 96.5755 121.386 96.7156 121.666 96.9258C121.947 96.9258 122.157 97.136 122.437 97.2761Z" fill="#928874" stroke="#231F20" stroke-width="0.201439" stroke-miterlimit="10"/>
        <path d="M134.978 95.5946C134.768 95.8048 134.628 96.0851 134.488 96.2953L131.755 96.5055L122.437 97.2762C122.156 97.1361 121.946 96.9959 121.666 96.8558C121.386 96.6456 121.035 96.5055 120.755 96.3653C120.195 96.0851 119.634 95.8048 119.074 95.6647C117.112 95.0341 115.36 94.964 113.889 95.3844L118.023 93.6328L120.335 93.4226H120.405L130.915 92.5818C131.055 92.6519 131.125 92.7219 131.265 92.792C131.405 92.8621 131.615 93.0022 131.755 93.0722C132.806 93.7028 133.927 94.6137 134.978 95.5946Z" fill="url(#paint0_linear_1_19911)" stroke="#231F20" stroke-width="0.201439" stroke-miterlimit="10" stroke-linecap="round" stroke-linejoin="round"/>
        <path d="M117.952 93.5626L113.818 95.3143C113.398 95.4544 112.978 95.5945 112.557 95.8748C110.665 96.9958 109.334 99.0978 108.914 102.041L107.162 103.092C107.092 103.092 107.092 103.162 107.022 103.162C107.092 99.0278 108.563 96.085 111.016 94.6837C111.786 94.2633 112.627 93.983 113.538 93.8429C113.748 93.8429 113.958 93.7728 114.169 93.7728L117.952 93.5626Z" fill="#414042" stroke="#231F20" stroke-width="0.201439" stroke-miterlimit="10" stroke-linecap="round" stroke-linejoin="round"/>
        <path d="M137.781 93.5626L136.87 93.983C137.15 93.7728 137.431 93.6327 137.781 93.5626Z" fill="#F1F2F2" stroke="#231F20" stroke-width="0.201439" stroke-miterlimit="10" stroke-linecap="round" stroke-linejoin="round"/>
        <path d="M184.725 148.424C184.725 150.386 184.445 152.068 183.814 153.469L180.591 155.571C182.553 154.1 183.744 151.367 183.744 147.654C183.744 146.883 183.674 146.182 183.604 145.411C183.254 142.399 182.203 139.246 180.661 136.303C178.279 131.749 174.776 127.685 170.852 125.443C170.432 125.232 170.011 124.952 169.591 124.812L166.928 121.379L168.96 120.118L169.521 120.398L171.903 123.411L176.597 129.366C177.648 130.487 178.629 131.749 179.47 133.01C180.311 134.201 181.011 135.462 181.642 136.723C183.113 139.666 184.094 142.819 184.515 145.832C184.655 146.813 184.725 147.654 184.725 148.424Z" fill="url(#paint1_linear_1_19911)" stroke="#231F20" stroke-width="0.201439" stroke-miterlimit="10" stroke-linecap="round" stroke-linejoin="round"/>
        <path d="M183.744 147.653C183.744 151.367 182.553 154.099 180.591 155.571L179.961 155.991C177.929 157.112 175.266 157.112 172.253 155.781L176.037 153.539L176.527 153.259L176.597 153.189C178.699 151.927 180.031 149.265 180.031 145.551C180.031 144.781 179.961 144.01 179.89 143.239C179.47 140.156 178.279 136.863 176.597 133.921C176.247 133.36 175.967 132.8 175.616 132.309C175.616 132.239 175.546 132.239 175.546 132.169C174.776 131.048 173.935 129.927 173.024 128.946L169.731 124.812C170.151 125.022 170.572 125.232 170.992 125.443C174.916 127.685 178.419 131.749 180.801 136.303C182.343 139.246 183.394 142.399 183.744 145.411C183.744 146.182 183.744 146.953 183.744 147.653Z" fill="#928874" stroke="#231F20" stroke-width="0.201439" stroke-miterlimit="10"/>
        <path d="M141.425 91.811L141.144 91.9512L140.934 91.811C141.144 91.811 141.284 91.811 141.425 91.811Z" fill="#F1F2F2" stroke="#231F20" stroke-width="0.201439" stroke-miterlimit="10" stroke-linecap="round" stroke-linejoin="round"/>
        <path d="M169.521 120.468L168.96 120.118L169.171 120.048L169.521 120.468Z" fill="#F1F2F2" stroke="#231F20" stroke-width="0.201439" stroke-miterlimit="10" stroke-linecap="round" stroke-linejoin="round"/>
        <path d="M155.438 121.729L154.597 121.239C154.667 121.169 154.737 121.028 154.807 120.958L155.438 121.729Z" fill="#F1F2F2" stroke="#231F20" stroke-width="0.201439" stroke-miterlimit="10" stroke-linecap="round" stroke-linejoin="round"/>
        <path d="M155.438 121.729L154.597 121.239C154.667 121.169 154.737 121.028 154.807 120.958L155.438 121.729Z" fill="#F1F2F2" stroke="#231F20" stroke-width="0.201439" stroke-miterlimit="10" stroke-linecap="round" stroke-linejoin="round"/>
        <path d="M180.031 145.622C180.031 149.405 178.699 151.998 176.598 153.259L176.527 153.329C176.317 153.469 176.107 153.539 175.897 153.609C175.967 153.609 175.967 153.609 176.037 153.609L172.253 155.851L171.343 156.412L170.151 157.112L168.54 158.093C169.03 157.813 169.451 157.393 169.871 156.972C170.151 156.692 170.362 156.342 170.572 155.991C170.712 155.781 170.852 155.501 170.992 155.291C171.202 154.87 171.343 154.45 171.483 153.959C171.623 153.609 171.693 153.189 171.763 152.768C171.903 152.068 171.973 151.297 171.973 150.456C171.973 150.106 171.973 149.685 171.903 149.335C171.623 145.271 169.941 140.787 167.349 137.003C166.999 136.513 166.718 136.093 166.368 135.602C165.877 134.972 165.387 134.341 164.826 133.78L161.603 129.717L159.431 126.984L157.189 124.111L156.909 123.761L155.438 121.729L154.807 120.958L144.577 107.926C144.367 107.646 144.157 107.436 143.947 107.155L143.877 107.085C143.106 106.175 142.265 105.264 141.425 104.493C140.374 103.582 139.323 102.741 138.201 102.111C137.431 101.62 136.59 101.27 135.889 101.06C134.908 100.709 133.998 100.569 133.157 100.499C133.017 100.499 132.806 100.499 132.666 100.499C132.386 100.499 132.106 100.499 131.826 100.569L126.851 100.99L123.908 101.2L122.297 101.34L118.933 101.62L118.513 101.69L112.347 102.181L111.927 102.251L110.035 102.391C109.825 102.391 109.685 102.391 109.475 102.461C109.334 102.461 109.124 102.531 108.984 102.531C108.353 102.671 107.793 102.881 107.232 103.162L108.984 102.111L115.22 98.3972C115.921 98.0469 116.621 97.7666 117.462 97.6966C117.602 97.6966 117.812 97.6265 118.023 97.6265L118.583 97.5564L121.035 97.3462L122.437 97.2061L131.755 96.4354L134.488 96.2252L135.609 96.1551L139.813 95.8048C140.093 95.7347 140.374 95.7347 140.654 95.7347C142.335 95.6647 144.157 96.2252 146.189 97.3462C148.291 98.5374 150.183 100.289 151.934 102.321L152.004 102.391C152.215 102.671 152.425 102.881 152.635 103.162L157.119 108.837L163.565 116.965L165.107 118.927L166.999 121.309L169.661 124.742L172.954 128.876C173.865 129.857 174.706 130.978 175.476 132.099C175.476 132.169 175.547 132.169 175.547 132.239C175.897 132.8 176.247 133.29 176.527 133.851C178.209 136.793 179.4 140.086 179.821 143.169C180.031 144.08 180.031 144.851 180.031 145.622Z" fill="#F1F2F2" stroke="#231F20" stroke-width="0.201439" stroke-miterlimit="10" stroke-linecap="round" stroke-linejoin="round"/>
        <path d="M155.438 121.729L154.597 121.239C154.667 121.169 154.737 121.028 154.807 120.958L155.438 121.729Z" fill="#F1F2F2" stroke="#231F20" stroke-width="0.201439" stroke-miterlimit="10" stroke-linecap="round" stroke-linejoin="round"/>
        <path d="M169.241 117.035L168.68 116.614L168.82 116.544L169.241 117.035Z" fill="#F1F2F2" stroke="#231F20" stroke-width="0.201439" stroke-miterlimit="10" stroke-linecap="round" stroke-linejoin="round"/>
        <path d="M137.781 93.5626L136.87 93.983C137.15 93.7728 137.431 93.6327 137.781 93.5626Z" fill="#F1F2F2" stroke="#231F20" stroke-width="0.201439" stroke-miterlimit="10" stroke-linecap="round" stroke-linejoin="round"/>
        <path d="M141.425 91.811L141.144 91.9512L140.934 91.811C141.144 91.811 141.284 91.811 141.425 91.811Z" fill="#F1F2F2" stroke="#231F20" stroke-width="0.201439" stroke-miterlimit="10" stroke-linecap="round" stroke-linejoin="round"/>
        <path d="M169.521 120.468L168.96 120.118L169.171 120.048L169.521 120.468Z" fill="#F1F2F2" stroke="#231F20" stroke-width="0.201439" stroke-miterlimit="10" stroke-linecap="round" stroke-linejoin="round"/>
        <path d="M141.425 91.811L141.144 91.9512L140.934 91.811C141.144 91.811 141.284 91.811 141.425 91.811Z" fill="#F1F2F2" stroke="#231F20" stroke-width="0.201439" stroke-miterlimit="10" stroke-linecap="round" stroke-linejoin="round"/>
        <path d="M169.521 120.468L168.96 120.118L169.171 120.048L169.521 120.468Z" fill="#F1F2F2" stroke="#231F20" stroke-width="0.201439" stroke-miterlimit="10" stroke-linecap="round" stroke-linejoin="round"/>
        <path d="M169.241 117.035L168.68 116.614L168.82 116.544L169.241 117.035Z" fill="#F1F2F2" stroke="#231F20" stroke-width="0.201439" stroke-miterlimit="10" stroke-linecap="round" stroke-linejoin="round"/>
        <path d="M207.987 129.016C207.987 132.799 206.656 135.392 204.554 136.653L204.484 136.723L204.344 136.583C203.573 132.309 201.682 127.965 199.089 124.111C198.108 122.71 197.057 121.379 195.936 120.118L170.853 88.3077C170.642 87.9574 170.362 87.6771 170.082 87.3969L170.012 87.3268C167.91 84.8044 165.528 82.6324 162.935 81.161C161.954 80.6005 161.043 80.1801 160.203 79.8298L167.77 79.1992C169.591 78.9189 171.834 79.4094 174.146 80.7406C176.248 81.9318 178.139 83.6834 179.891 85.7153L179.961 85.7854C180.171 86.0656 180.382 86.2758 180.592 86.5561L200.911 112.27C201.822 113.251 202.662 114.372 203.433 115.493C206.236 119.697 207.987 124.602 207.987 129.016Z" fill="#F1F2F2" stroke="#231F20" stroke-width="0.201439" stroke-miterlimit="10" stroke-linecap="round" stroke-linejoin="round"/>
        <path d="M204.484 136.723L204.414 136.793C204.414 136.723 204.414 136.653 204.414 136.583L204.484 136.723Z" fill="#F1F2F2" stroke="#231F20" stroke-width="0.201439" stroke-miterlimit="10" stroke-linecap="round" stroke-linejoin="round"/>
        <path d="M169.241 117.035L168.68 116.614L168.82 116.544L169.241 117.035Z" fill="#F1F2F2" stroke="#231F20" stroke-width="0.201439" stroke-miterlimit="10" stroke-linecap="round" stroke-linejoin="round"/>
        <path d="M141.144 91.9512L139.953 92.5117L137.781 93.5627C137.431 93.7028 137.15 93.8429 136.87 93.9831C136.169 94.4035 135.539 94.8939 135.048 95.5946C133.997 94.6137 132.876 93.7729 131.755 93.0021C131.615 92.9321 131.405 92.792 131.265 92.7219C131.125 92.6518 131.055 92.5818 130.915 92.5117L131.825 92.4416L139.112 91.811C139.393 91.741 139.603 91.741 139.883 91.741C140.233 91.741 140.654 91.741 141.004 91.741L141.144 91.9512Z" fill="#414042" stroke="#231F20" stroke-width="0.201439" stroke-miterlimit="10" stroke-linecap="round" stroke-linejoin="round"/>
        <path d="M157.049 108.837L152.565 103.162C152.355 102.881 152.145 102.671 151.935 102.391V102.391C150.253 100.359 148.291 98.6075 146.189 97.4163C144.227 96.2953 142.336 95.7348 140.654 95.8048C140.374 95.8048 140.094 95.8048 139.813 95.8749L135.609 96.2252L134.488 96.2953C134.628 96.015 134.769 95.8048 134.979 95.5946C135.469 94.964 136.1 94.4035 136.8 93.9831L137.711 93.5627C138.412 93.2825 139.183 93.1423 140.023 93.1423C140.934 93.1423 141.915 93.2825 142.966 93.5627C143.877 93.843 144.858 94.2634 145.909 94.894C149.342 96.9259 152.495 100.289 154.807 104.213C155.718 105.684 156.419 107.226 157.049 108.837Z" fill="#928874" stroke="#231F20" stroke-width="0.201439" stroke-miterlimit="10"/>
        <path d="M137.781 93.5626L136.87 93.983C137.15 93.7728 137.431 93.6327 137.781 93.5626Z" fill="#F1F2F2" stroke="#231F20" stroke-width="0.201439" stroke-miterlimit="10" stroke-linecap="round" stroke-linejoin="round"/>
        <path d="M141.425 91.811L141.144 91.9512L140.934 91.811C141.144 91.811 141.284 91.811 141.425 91.811Z" fill="#F1F2F2" stroke="#231F20" stroke-width="0.201439" stroke-miterlimit="10" stroke-linecap="round" stroke-linejoin="round"/>
        <path d="M169.171 120.048L168.961 120.118L166.999 121.379L165.107 118.926L165.948 118.366L167.279 117.595L169.171 120.048Z" fill="#414042" stroke="#231F20" stroke-width="0.201439" stroke-miterlimit="10" stroke-linecap="round" stroke-linejoin="round"/>
        <path d="M169.521 120.468L168.96 120.118L169.171 120.048L169.521 120.468Z" fill="#F1F2F2" stroke="#231F20" stroke-width="0.201439" stroke-miterlimit="10" stroke-linecap="round" stroke-linejoin="round"/>
        <path d="M167.279 117.595L165.948 118.366L165.037 118.926L163.496 116.965L157.05 108.837C156.419 107.226 155.648 105.684 154.807 104.213C152.495 100.289 149.342 96.9258 145.909 94.8939C144.928 94.3334 143.947 93.913 142.966 93.5627C141.915 93.2124 140.934 93.0722 140.024 93.1423C139.183 93.1423 138.412 93.2824 137.711 93.5627L139.883 92.5117L141.075 91.9512L141.355 91.811C142.896 92.0212 144.508 92.5818 146.189 93.5627C147.381 94.2633 148.502 95.1041 149.623 96.015C150.744 96.9959 151.725 98.0469 152.705 99.238L152.776 99.3081C152.986 99.5883 153.266 99.8686 153.476 100.149L159.152 107.366L161.113 109.818L167.279 117.595Z" fill="url(#paint2_linear_1_19911)" stroke="#231F20" stroke-width="0.201439" stroke-miterlimit="10" stroke-linecap="round" stroke-linejoin="round"/>
        <path d="M141.425 91.811L141.144 91.9512L140.934 91.811C141.144 91.811 141.284 91.811 141.425 91.811Z" fill="#F1F2F2" stroke="#231F20" stroke-width="0.201439" stroke-miterlimit="10" stroke-linecap="round" stroke-linejoin="round"/>
        <path d="M169.241 117.035L168.68 116.614L168.82 116.544L169.241 117.035Z" fill="#F1F2F2" stroke="#231F20" stroke-width="0.201439" stroke-miterlimit="10" stroke-linecap="round" stroke-linejoin="round"/>
        <path d="M204.484 136.723L204.414 136.793C204.414 136.723 204.414 136.653 204.414 136.583L204.484 136.723Z" fill="#F1F2F2" stroke="#231F20" stroke-width="0.201439" stroke-miterlimit="10" stroke-linecap="round" stroke-linejoin="round"/>
        <path d="M204.764 140.717C204.764 145.341 203.152 148.634 200.56 150.176L200.42 150.246L183.884 159.915C186.477 158.374 188.088 155.08 188.088 150.456C188.088 149.615 188.018 148.774 187.948 147.934C187.598 144.991 186.687 141.908 185.356 138.965C184.515 137.214 183.604 135.462 182.483 133.85C181.502 132.449 180.451 131.118 179.33 129.857L173.865 122.99L173.585 122.64L170.782 119.137L169.241 117.175L168.82 116.684L160.763 106.315L154.177 97.9768C153.966 97.6265 153.686 97.3462 153.406 97.066L153.336 96.9959C151.234 94.4735 148.852 92.3015 146.259 90.8301C145.769 90.5498 145.348 90.3396 144.928 90.1294C143.036 89.2186 141.284 88.7982 139.673 88.8683C139.253 88.8683 138.832 88.9383 138.412 88.9383L137.851 89.0084L132.526 89.4288L120.405 90.4798L111.436 91.2505C111.226 91.2505 111.016 91.2505 110.806 91.3206C110.315 91.3906 109.825 91.4607 109.334 91.6709C108.914 91.811 108.494 92.0212 108.073 92.2314L124.679 82.4222C125.099 82.212 125.52 82.0018 126.01 81.8617C126.501 81.7216 126.921 81.5814 127.481 81.5114C127.692 81.5114 127.902 81.4413 128.112 81.4413L155.157 79.1992C156.699 78.989 158.451 79.1291 160.272 79.8298C161.183 80.1801 162.094 80.6005 163.005 81.161C165.597 82.6324 167.979 84.8044 170.081 87.3268L170.152 87.3969C170.432 87.6771 170.642 88.0275 170.922 88.3077L196.006 120.118C197.127 121.309 198.178 122.71 199.159 124.111C201.751 127.895 203.643 132.309 204.414 136.583C204.414 136.653 204.414 136.723 204.414 136.793C204.624 138.124 204.764 139.456 204.764 140.717Z" fill="#414042" stroke="#231F20" stroke-width="0.201439" stroke-miterlimit="10" stroke-linecap="round" stroke-linejoin="round"/>
    </g>
    <defs>
        <linearGradient id="paint0_linear_1_19911" x1="113.864" y1="94.8909" x2="135.002" y2="94.8909" gradientUnits="userSpaceOnUse">
            <stop stop-color="#58595B"/>
            <stop offset="1"/>
        </linearGradient>
        <linearGradient id="paint1_linear_1_19911" x1="166.975" y1="137.864" x2="184.739" y2="137.864" gradientUnits="userSpaceOnUse">
            <stop stop-color="#58595B"/>
            <stop offset="1"/>
        </linearGradient>
        <linearGradient id="paint2_linear_1_19911" x1="137.753" y1="105.395" x2="167.244" y2="105.395" gradientUnits="userSpaceOnUse">
            <stop stop-color="#58595B"/>
            <stop offset="1"/>
        </linearGradient>
        <clipPath id="">
            <rect width="104.538" height="81.9769" fill="white" transform="translate(103.589 79.0592)"/>
        </clipPath>
    </defs>


    <g clip-path="url(#)">
        <path d="M95.9521 163.138C95.8821 163.068 95.7419 163.068 95.6719 162.998C95.7419 162.998 95.7419 163.068 95.812 163.068C95.8821 163.068 95.8821 163.068 95.9521 163.138Z" fill="#F1F2F2" stroke="#231F20" stroke-width="0.201439" stroke-miterlimit="10" stroke-linecap="round" stroke-linejoin="round"/>
        <path d="M125.73 154.17L125.66 154.1L121.806 149.125L117.112 143.099L106.322 129.366L105.971 129.156L102.678 127.264L71.1488 109.047L53.9126 113.391V127.755L58.7471 136.443L122.647 183.177L129.373 172.036V158.794L125.73 154.17ZM95.6718 162.998C95.7419 162.998 95.7419 163.068 95.8119 163.068C95.882 163.068 95.882 163.138 95.9521 163.138C95.882 163.068 95.7419 162.998 95.6718 162.998Z" fill="#F1F2F2" stroke="#231F20" stroke-width="0.201439" stroke-miterlimit="10" stroke-linecap="round" stroke-linejoin="round"/>
        <path opacity="0.14" d="M125.73 154.17L125.66 154.1L121.806 149.125L117.112 143.099L106.322 129.366L105.971 129.156L102.678 127.264L71.1488 109.047L53.9126 113.391V127.755L58.7471 136.443L122.647 183.177L129.373 172.036V158.794L125.73 154.17ZM95.6718 162.998C95.7419 162.998 95.7419 163.068 95.8119 163.068C95.882 163.068 95.882 163.138 95.9521 163.138C95.882 163.068 95.7419 162.998 95.6718 162.998Z" fill="black" stroke="#231F20" stroke-width="0.0802954" stroke-miterlimit="10"/>
        <path d="M172.533 134.551L129.653 158.584L129.373 158.724L125.73 154.1L106.321 129.366L107.793 128.526L108.143 128.315L110.035 127.264L110.525 126.984L113.118 125.583L118.022 122.85L120.405 121.519L123.137 119.977L126.29 118.226L131.825 115.143L132.666 114.652L133.857 114.022L135.329 113.251L137.01 112.34L138.341 111.64L144.507 108.206L149.972 105.194L150.112 105.334L152.144 107.926L161.813 120.258L163.425 122.29L165.877 125.443L169.871 130.557C170.642 131.538 171.342 132.519 171.973 133.57C172.043 133.851 172.323 134.201 172.533 134.551Z" fill="#F7F7F7" stroke="#231F20" stroke-width="0.201439" stroke-miterlimit="10" stroke-linecap="round" stroke-linejoin="round"/>
        <path d="M125.73 154.17L125.659 154.1L121.806 149.125L117.111 143.099L106.321 129.366L125.73 154.17Z" fill="#F1F2F2" stroke="#231F20" stroke-width="0.201439" stroke-miterlimit="10" stroke-linecap="round" stroke-linejoin="round"/>
        <path d="M138.762 98.6776L128.672 92.8621L128.532 92.7921L114.659 84.7345C114.379 84.8746 106.462 89.569 97.4231 94.824C85.582 101.69 71.9192 109.398 71.1484 108.977L102.678 127.194L105.971 129.086L106.321 129.296L107.793 128.456L108.143 128.245L110.035 127.194L110.525 126.914L113.118 125.513L118.022 122.78L120.405 121.449L123.137 119.908L126.29 118.156L131.825 115.073L132.666 114.583L133.857 113.952L135.329 113.181L137.01 112.27L138.341 111.57L144.507 108.136L149.972 105.124L138.762 98.6776Z" fill="#F1F2F2" stroke="#231F20" stroke-width="0.201439" stroke-miterlimit="10" stroke-linecap="round" stroke-linejoin="round"/>
        <path d="M114.66 84.7345C114.379 84.8746 106.462 89.569 97.4234 94.824C85.5823 101.69 71.9195 109.398 71.1488 108.977L53.9126 113.391L97.4234 89.1486L114.66 84.7345Z" fill="#F1F2F2" stroke="#231F20" stroke-width="0.201439" stroke-miterlimit="10" stroke-linecap="round" stroke-linejoin="round"/>
        <path d="M136.169 138.055L136.239 150.947C138.341 149.685 162.374 136.863 162.374 136.863L162.304 125.022L136.169 138.055ZM159.782 135.042C159.782 135.042 144.297 143.31 139.042 146.182L138.972 140.577L155.438 131.959L159.782 129.717V135.042Z" fill="#F1F2F2" stroke="#231F20" stroke-width="0.201439" stroke-miterlimit="10" stroke-linecap="round" stroke-linejoin="round"/>
        <path d="M159.781 135.042C159.781 135.042 144.297 143.31 139.042 146.182V141.558L155.437 132.8L159.781 135.042Z" fill="#939598" stroke="#231F20" stroke-width="0.0802954" stroke-miterlimit="10"/>
        <path d="M159.711 129.647L159.781 135.042L155.437 132.8V131.959L159.711 129.647Z" fill="#4F4C4D" stroke="#231F20" stroke-width="0.0802954" stroke-miterlimit="10"/>
        <path d="M155.438 131.959V132.8L138.972 141.558V140.577L155.438 131.959Z" fill="#231F20" stroke="#231F20" stroke-width="0.0802954" stroke-miterlimit="10" stroke-linecap="round" stroke-linejoin="round"/>
        <path d="M136.169 138.055V137.774L120.264 128.105C120.194 128.035 120.124 127.965 120.054 127.895L144.017 115.073L162.304 125.022L136.169 138.055Z" fill="#F1F2F2" stroke="#231F20" stroke-width="0.201439" stroke-miterlimit="10" stroke-linecap="round" stroke-linejoin="round"/>
        <path d="M136.17 137.774L136.24 150.947C136.24 150.947 124.609 133.22 120.265 128.105L136.17 137.774Z" fill="#F1F2F2" stroke="#231F20" stroke-width="0.201439" stroke-miterlimit="10" stroke-linecap="round" stroke-linejoin="round"/>
        <path opacity="0.14" d="M136.17 137.774L136.24 150.947C136.24 150.947 124.609 133.22 120.265 128.105L136.17 137.774Z" fill="black" stroke="#231F20" stroke-width="0.0802954" stroke-miterlimit="10"/>
        <path d="M79.697 100.079C79.697 100.009 79.697 100.009 79.697 100.079C78.9963 99.7986 78.2256 99.9388 77.3148 100.429C77.0345 100.569 76.8243 100.78 76.544 100.92C76.474 100.99 76.4039 100.99 76.3338 101.06C76.1937 101.13 76.1236 101.27 75.9835 101.34C75.9134 101.41 75.9134 101.41 75.8434 101.48C75.7733 101.55 75.7733 101.55 75.7032 101.62C75.423 101.901 75.1427 102.251 74.9325 102.601C74.8625 102.671 74.8625 102.741 74.7924 102.811C74.7223 102.952 74.6523 103.092 74.5121 103.232C74.5121 103.302 74.4421 103.302 74.4421 103.372C74.372 103.442 74.372 103.512 74.372 103.582C74.3019 103.722 74.2319 103.792 74.2319 103.933C74.1618 104.003 74.1618 104.073 74.1618 104.143C74.2319 104.213 74.1618 104.283 74.1618 104.353C74.0217 104.633 73.9516 104.913 73.8815 105.124C73.8815 105.194 73.8115 105.264 73.8115 105.334C73.8115 105.474 73.7414 105.544 73.7414 105.684C73.7414 105.684 73.7414 105.684 73.6713 105.684L65.7539 108.207V101.48C65.7539 101.41 65.7539 101.34 65.7539 101.27C65.7539 101.2 65.7539 101.13 65.7539 101.13C65.7539 101.06 65.7539 101.06 65.7539 100.99C65.7539 100.71 65.824 100.429 65.894 100.149C65.894 100.079 65.9641 100.009 65.9641 99.9388C66.0342 99.6585 66.1042 99.3783 66.2444 99.1681C66.2444 99.098 66.3144 99.0279 66.3144 98.8878C66.3144 98.8177 66.3845 98.7477 66.3845 98.6776C66.4546 98.5375 66.5246 98.4674 66.5246 98.3273C66.5246 98.2572 66.5947 98.1871 66.5947 98.1171C66.5947 98.047 66.6648 98.047 66.6648 97.9769C66.7348 97.8368 66.8049 97.6967 66.945 97.5565C67.0151 97.4865 67.0151 97.4164 67.0852 97.3463C67.2954 96.996 67.5756 96.6457 67.8559 96.3654C67.9259 96.2954 67.9259 96.2954 67.996 96.2253C68.0661 96.1552 68.0661 96.1552 68.1361 96.0852C68.2763 95.945 68.3463 95.875 68.4865 95.8049C68.5565 95.7348 68.6266 95.6648 68.6967 95.6648C68.9069 95.4546 69.1871 95.3144 69.4674 95.1743C69.6776 95.0342 69.9579 94.894 70.168 94.824C70.2381 94.824 70.3082 94.7539 70.3782 94.7539C70.9388 94.6138 71.4292 94.6138 71.8496 94.824L72.4102 95.2444L79.697 100.079Z" fill="#F1F2F2" stroke="#231F20" stroke-width="0.201439" stroke-miterlimit="10" stroke-linecap="round" stroke-linejoin="round"/>
        <path d="M70.168 94.824C70.238 94.824 70.3081 94.7539 70.3782 94.7539C70.3081 94.7539 70.238 94.824 70.168 94.824Z" fill="#F1F2F2" stroke="#231F20" stroke-width="0.201439" stroke-miterlimit="10" stroke-linecap="round" stroke-linejoin="round"/>
        <path d="M80.958 101.76L79.7669 102.461L75.0024 105.054L73.7412 105.754C73.7412 105.614 73.8113 105.544 73.8113 105.404C73.8113 105.334 73.8813 105.264 73.8813 105.194C73.9514 104.913 74.0215 104.633 74.1616 104.423C74.1616 104.353 74.2317 104.283 74.2317 104.213C74.2317 104.143 74.3017 104.073 74.3017 104.003C74.3718 103.862 74.4419 103.792 74.4419 103.652C74.4419 103.582 74.5119 103.512 74.5119 103.442C74.5119 103.372 74.582 103.372 74.582 103.302C74.6521 103.162 74.7221 103.022 74.8623 102.881C74.9323 102.811 74.9323 102.741 75.0024 102.671C75.2126 102.321 75.4929 101.971 75.7731 101.69C75.8432 101.62 75.8432 101.62 75.9132 101.55C75.9833 101.48 75.9833 101.48 76.0534 101.41C76.1935 101.27 76.2636 101.2 76.4037 101.13C76.4738 101.06 76.5438 100.99 76.6139 100.99C76.8241 100.779 77.1044 100.639 77.3846 100.499C78.2955 100.009 79.0662 99.8686 79.6968 100.079C79.6968 100.079 79.6968 100.079 79.7669 100.079C79.8369 100.079 79.907 100.149 79.9771 100.149L80.1873 100.289C80.5376 100.639 80.8179 101.13 80.958 101.76Z" fill="#F1F2F2" stroke="#231F20" stroke-width="0.201439" stroke-miterlimit="10" stroke-linecap="round" stroke-linejoin="round"/>
        <path opacity="0.14" d="M75.0021 102.671C74.932 102.741 74.932 102.811 74.862 102.811C74.7919 102.952 74.7218 103.092 74.5817 103.232C74.5817 103.302 74.5116 103.302 74.5116 103.372C74.5116 103.442 74.4416 103.512 74.4416 103.582C74.3715 103.722 74.3715 103.792 74.3014 103.932C74.3014 104.003 74.2314 104.073 74.2314 104.143C74.2314 104.213 74.1613 104.283 74.1613 104.353C74.0212 104.633 73.9511 104.913 73.881 105.124C73.881 105.194 73.811 105.264 73.811 105.334C73.811 105.474 73.7409 105.544 73.7409 105.684C73.7409 105.684 73.7409 105.684 73.6708 105.684L65.7534 108.207V101.48C65.7534 101.41 65.7534 101.34 65.7534 101.27C65.7534 101.2 65.7534 101.2 65.7534 101.13C65.7534 101.13 65.7534 101.06 65.7534 100.99C65.7534 100.709 65.8235 100.429 65.8936 100.149C65.8936 100.079 65.8935 100.009 65.9636 99.9387C66.0337 99.6585 66.1037 99.3782 66.2439 99.168C66.2439 99.098 66.3139 99.0279 66.3139 98.8878C66.3139 98.8177 66.384 98.7476 66.384 98.6776C66.4541 98.5374 66.4541 98.4674 66.5241 98.3272C66.5241 98.2572 66.5942 98.1871 66.5942 98.117C66.5942 98.047 66.6643 98.047 66.6643 97.9769C66.7343 97.8368 66.8044 97.6966 66.9445 97.5565C66.9445 97.5565 67.0146 97.4864 67.0146 97.4164L75.0021 102.671Z" fill="black" stroke="#231F20" stroke-width="0.0802954" stroke-miterlimit="10"/>
        <path d="M70.168 94.824C70.238 94.824 70.3081 94.7539 70.3782 94.7539C70.3081 94.7539 70.238 94.824 70.168 94.824Z" fill="#F1F2F2" stroke="#231F20" stroke-width="0.201439" stroke-miterlimit="10" stroke-linecap="round" stroke-linejoin="round"/>
        <path d="M80.9577 101.76L79.7666 102.461L76.964 103.932L74.9321 105.054L73.6709 105.754C73.6709 105.614 73.741 105.544 73.741 105.404C73.741 105.334 73.811 105.264 73.811 105.194C73.8811 104.913 73.9512 104.633 74.0913 104.423C74.0913 104.353 74.1614 104.283 74.1614 104.213C74.1614 104.143 74.2314 104.073 74.2314 104.003C74.3015 103.862 74.3015 103.792 74.3716 103.652C74.3716 103.582 74.4416 103.512 74.4416 103.442C74.4416 103.372 74.5117 103.372 74.5117 103.302C74.5818 103.162 74.6518 103.022 74.792 102.881C74.862 102.811 74.862 102.741 74.9321 102.741C74.9321 102.741 74.9321 102.741 74.9321 102.671C75.1423 102.321 75.4225 101.971 75.7028 101.69C75.7028 101.62 75.7729 101.62 75.8429 101.55C75.913 101.48 75.913 101.48 75.9831 101.41C76.1232 101.34 76.1933 101.2 76.3334 101.13C76.4035 101.06 76.4735 101.06 76.4735 100.99C76.6837 100.779 76.964 100.639 77.2443 100.499C78.1551 100.009 78.9258 99.8686 79.5564 100.079C79.5564 100.079 79.5564 100.079 79.6265 100.079C79.6966 100.079 79.7666 100.149 79.8367 100.149L80.0469 100.289C80.5373 100.639 80.8176 101.13 80.9577 101.76Z" fill="#F1F2F2" stroke="#231F20" stroke-width="0.201439" stroke-miterlimit="10" stroke-linecap="round" stroke-linejoin="round"/>
        <path d="M97.4236 90.2697C96.7229 89.9894 95.9522 90.1296 95.0413 90.62C94.7611 90.7602 94.5509 90.9704 94.2706 91.1105C94.2005 91.1806 94.1305 91.1806 94.0604 91.2506C93.9203 91.3207 93.8502 91.4608 93.7101 91.5309C93.7801 91.671 93.7101 91.671 93.64 91.7411C93.5699 91.8112 93.5699 91.8112 93.4999 91.8812C93.2196 92.1615 92.9393 92.5118 92.7291 92.8621C92.6591 92.9322 92.6591 93.0023 92.589 93.0723C92.519 93.2125 92.4489 93.3526 92.3088 93.4927C92.3088 93.5628 92.2387 93.5628 92.2387 93.6329C92.1686 93.7029 92.1686 93.773 92.1686 93.8431C92.0986 93.9832 92.0285 94.0533 92.0285 94.1934C91.9584 94.2635 91.9584 94.3335 91.9584 94.4036C91.8884 94.4736 91.8884 94.5437 91.8884 94.6138C91.7482 94.894 91.6782 95.1743 91.6081 95.3845C91.6081 95.4546 91.538 95.5246 91.538 95.5947C91.538 95.7348 91.468 95.8049 91.468 95.945C91.468 95.945 91.468 95.945 91.3979 95.945L83.4805 98.3973V91.671C83.4805 91.601 83.4805 91.5309 83.4805 91.4608C83.4805 91.3908 83.4805 91.3207 83.4805 91.3207C83.4805 91.2506 83.4805 91.2506 83.4805 91.1806C83.4805 90.9003 83.5505 90.62 83.6206 90.3398C83.6206 90.2697 83.6907 90.1996 83.6907 90.1296C83.7607 89.8493 83.9009 89.569 83.9709 89.2888C83.9709 89.2187 84.041 89.1487 84.041 89.0085C84.041 88.9385 84.1111 88.8684 84.1111 88.7983C84.1811 88.6582 84.2512 88.5881 84.2512 88.448C84.2512 88.3779 84.3213 88.3079 84.3213 88.2378C84.3213 88.1677 84.3913 88.1677 84.3913 88.0977C84.4614 87.9575 84.5315 87.8174 84.6716 87.6773C84.7417 87.6072 84.7417 87.5371 84.8117 87.4671C85.0219 87.1167 85.3022 86.7664 85.5824 86.4862C85.6525 86.4161 85.6525 86.4161 85.7226 86.346C85.7926 86.276 85.7926 86.276 85.8627 86.2059C86.0028 86.0658 86.0729 85.9957 86.213 85.9256C86.2831 85.8556 86.3532 85.7855 86.4232 85.7855C86.6334 85.5753 86.9137 85.4352 87.194 85.295C87.4042 85.1549 87.6844 85.0148 87.8946 84.9447C87.9647 84.9447 88.0347 84.8746 88.1048 84.8746C88.6653 84.7345 89.1558 84.7345 89.5762 84.9447L90.1367 85.3651L97.4236 90.2697Z" fill="#F1F2F2" stroke="#231F20" stroke-width="0.201439" stroke-miterlimit="10" stroke-linecap="round" stroke-linejoin="round"/>
        <path d="M87.8945 85.0148C87.9646 85.0148 88.0347 84.9447 88.1047 84.9447C88.0347 84.9447 87.9646 85.0148 87.8945 85.0148Z" fill="#F1F2F2" stroke="#231F20" stroke-width="0.201439" stroke-miterlimit="10" stroke-linecap="round" stroke-linejoin="round"/>
        <path d="M98.6845 91.9513L97.4934 92.652L92.729 95.2444L91.4678 95.9451C91.4678 95.805 91.5378 95.7349 91.5378 95.5948C91.5378 95.5247 91.6079 95.4546 91.6079 95.3846C91.678 95.1043 91.748 94.824 91.8882 94.6138C91.8882 94.5438 91.9582 94.4737 91.9582 94.4036C91.9582 94.3336 92.0283 94.2635 92.0283 94.1934C92.0984 94.0533 92.1684 93.9832 92.1684 93.8431C92.1684 93.773 92.2385 93.703 92.2385 93.6329C92.2385 93.5629 92.3086 93.5629 92.3086 93.4928C92.3786 93.3527 92.4487 93.2125 92.5888 93.0724C92.6589 93.0023 92.6589 92.9323 92.729 92.8622C92.9392 92.5119 93.2194 92.1615 93.4997 91.8813C93.5697 91.8112 93.5697 91.8112 93.6398 91.7411C93.7099 91.6711 93.7799 91.6711 93.7799 91.601C93.9201 91.4609 93.9901 91.3908 94.1303 91.3207C94.2003 91.2507 94.2704 91.1806 94.3405 91.1806C94.5507 90.9704 94.8309 90.8303 95.1112 90.6902C96.022 90.1997 96.7928 90.0596 97.4234 90.2698H97.4934C97.5635 90.2698 97.6336 90.3398 97.7036 90.3398L97.9138 90.48C98.2642 90.8303 98.5444 91.3207 98.6845 91.9513Z" fill="#F1F2F2" stroke="#231F20" stroke-width="0.201439" stroke-miterlimit="10" stroke-linecap="round" stroke-linejoin="round"/>
        <path opacity="0.14" d="M93.0795 92.3716C92.9393 92.5118 92.8693 92.6519 92.7291 92.792C92.6591 92.8621 92.6591 92.9322 92.589 93.0022C92.519 93.1424 92.4489 93.2825 92.3088 93.4226C92.3088 93.4927 92.2387 93.4927 92.2387 93.5628C92.2387 93.6328 92.1686 93.7029 92.1686 93.773C92.0986 93.9131 92.0986 93.9832 92.0285 94.1233C92.0285 94.1934 91.9584 94.2634 91.9584 94.3335C91.9584 94.4036 91.8884 94.4736 91.8884 94.5437C91.7482 94.8239 91.6782 95.1042 91.6081 95.3144C91.6081 95.3845 91.538 95.4545 91.538 95.5246C91.538 95.6647 91.468 95.7348 91.468 95.8749C91.468 95.8749 91.468 95.8749 91.3979 95.8749L83.4805 98.3272V91.671C83.4805 91.6009 83.4805 91.5309 83.4805 91.4608C83.4805 91.3907 83.4805 91.3907 83.4805 91.3207C83.4805 91.3207 83.4805 91.2506 83.4805 91.1805C83.4805 90.9003 83.5505 90.62 83.6206 90.3397C83.6206 90.2697 83.6206 90.1996 83.6907 90.1295C83.7607 89.8493 83.9009 89.569 83.9709 89.2888C83.9709 89.2187 84.041 89.1486 84.041 89.0085C84.041 88.9384 84.1111 88.8684 84.1111 88.7983C84.1811 88.6582 84.1811 88.5881 84.2512 88.448C84.2512 88.3779 84.3213 88.3078 84.3213 88.2378C84.3213 88.1677 84.3913 88.1677 84.3913 88.0976C84.4614 87.9575 84.5315 87.8174 84.6716 87.6772C84.6716 87.6072 84.7417 87.6072 84.7417 87.5371L93.0795 92.3716Z" fill="black" stroke="#231F20" stroke-width="0.0802954" stroke-miterlimit="10"/>
        <path d="M87.894 85.0148C87.9641 85.0148 88.0342 84.9447 88.1042 84.9447C88.0342 84.9447 87.9641 85.0148 87.894 85.0148Z" fill="#F1F2F2" stroke="#231F20" stroke-width="0.201439" stroke-miterlimit="10" stroke-linecap="round" stroke-linejoin="round"/>
        <path d="M98.6845 91.9513L97.4934 92.652L95.4615 93.773L92.729 95.3145L91.4678 96.0152C91.4678 95.875 91.5378 95.805 91.5378 95.6648C91.5378 95.5948 91.6079 95.5247 91.6079 95.4546C91.678 95.1744 91.748 94.8941 91.8882 94.6839C91.8882 94.6138 91.9582 94.5438 91.9582 94.4737C91.9582 94.4036 92.0283 94.3336 92.0283 94.2635C92.0984 94.1234 92.0984 94.0533 92.1684 93.9132C92.1684 93.8431 92.2385 93.773 92.2385 93.703C92.2385 93.6329 92.3086 93.6329 92.3086 93.5629C92.3786 93.4227 92.4487 93.2826 92.5888 93.1425C92.6589 93.0724 92.6589 93.0023 92.729 92.9323C92.799 92.7921 92.9392 92.652 93.0793 92.5119C93.2194 92.3017 93.3595 92.1615 93.4997 91.9513C93.4997 91.8813 93.5697 91.8813 93.6398 91.8112C93.7099 91.6711 93.7799 91.6711 93.7799 91.601C93.9201 91.5309 93.9901 91.3908 94.1303 91.3207C94.2003 91.2507 94.2704 91.2507 94.2704 91.1806C94.4806 90.9704 94.7609 90.8303 95.0411 90.6902C95.952 90.1997 96.7227 90.0596 97.3533 90.2698C97.3533 90.2698 97.3533 90.2698 97.4234 90.2698C97.4934 90.2698 97.5635 90.3398 97.6336 90.3398L97.8438 90.48C98.2642 90.8303 98.5444 91.3207 98.6845 91.9513Z" fill="#F1F2F2" stroke="#231F20" stroke-width="0.201439" stroke-miterlimit="10" stroke-linecap="round" stroke-linejoin="round"/>
        <path opacity="0.14" d="M80.9577 101.76L79.7666 102.461L76.964 103.932L74.9321 105.054L73.6709 105.754C73.6709 105.614 73.741 105.544 73.741 105.404C73.741 105.334 73.811 105.264 73.811 105.194C73.8811 104.913 73.9512 104.633 74.0913 104.423C74.0913 104.353 74.1614 104.283 74.1614 104.213C74.1614 104.143 74.2314 104.073 74.2314 104.003C74.3015 103.862 74.3015 103.792 74.3716 103.652C74.3716 103.582 74.4416 103.512 74.4416 103.442C74.4416 103.372 74.5117 103.372 74.5117 103.302C74.5818 103.162 74.6518 103.022 74.792 102.881C74.862 102.811 74.862 102.741 74.9321 102.741C74.9321 102.741 74.9321 102.741 74.9321 102.671C75.1423 102.321 75.4225 101.971 75.7028 101.69C75.7028 101.62 75.7729 101.62 75.8429 101.55C75.913 101.48 75.913 101.48 75.9831 101.41C76.1232 101.34 76.1933 101.2 76.3334 101.13C76.4035 101.06 76.4735 101.06 76.4735 100.99C76.6837 100.779 76.964 100.639 77.2443 100.499C78.1551 100.009 78.9258 99.8686 79.5564 100.079C79.5564 100.079 79.5564 100.079 79.6265 100.079C79.6966 100.079 79.7666 100.149 79.8367 100.149L80.0469 100.289C80.5373 100.639 80.8176 101.13 80.9577 101.76Z" fill="black" stroke="#231F20" stroke-width="0.0802954" stroke-miterlimit="10"/>
        <path opacity="0.14" d="M98.6845 91.9513L97.4934 92.652L95.4615 93.773L92.729 95.3145L91.4678 96.0152C91.4678 95.875 91.5378 95.805 91.5378 95.6648C91.5378 95.5948 91.6079 95.5247 91.6079 95.4546C91.678 95.1744 91.748 94.8941 91.8882 94.6839C91.8882 94.6138 91.9582 94.5438 91.9582 94.4737C91.9582 94.4036 92.0283 94.3336 92.0283 94.2635C92.0984 94.1234 92.0984 94.0533 92.1684 93.9132C92.1684 93.8431 92.2385 93.773 92.2385 93.703C92.2385 93.6329 92.3086 93.6329 92.3086 93.5629C92.3786 93.4227 92.4487 93.2826 92.5888 93.1425C92.6589 93.0724 92.6589 93.0023 92.729 92.9323C92.799 92.7921 92.9392 92.652 93.0793 92.5119C93.2194 92.3017 93.3595 92.1615 93.4997 91.9513C93.4997 91.8813 93.5697 91.8813 93.6398 91.8112C93.7099 91.6711 93.7799 91.6711 93.7799 91.601C93.9201 91.5309 93.9901 91.3908 94.1303 91.3207C94.2003 91.2507 94.2704 91.2507 94.2704 91.1806C94.4806 90.9704 94.7609 90.8303 95.0411 90.6902C95.952 90.1997 96.7227 90.0596 97.3533 90.2698C97.3533 90.2698 97.3533 90.2698 97.4234 90.2698C97.4934 90.2698 97.5635 90.3398 97.6336 90.3398L97.8438 90.48C98.2642 90.8303 98.5444 91.3207 98.6845 91.9513Z" fill="black" stroke="#231F20" stroke-width="0.0802954" stroke-miterlimit="10"/>
        <path d="M172.534 134.551V147.794L135.679 168.533L129.373 172.036V158.794L129.653 158.584L172.534 134.551Z" fill="#F7F7F7" stroke="#231F20" stroke-width="0.201439" stroke-miterlimit="10" stroke-linecap="round" stroke-linejoin="round"/>
        <path d="M172.534 147.794V147.864L165.457 159.144L137.991 174.559L122.647 183.177L129.373 172.036L135.679 168.533L172.534 147.794Z" fill="#F7F7F7" stroke="#231F20" stroke-width="0.201439" stroke-miterlimit="10" stroke-linecap="round" stroke-linejoin="round"/>
        <path d="M172.534 147.794V147.864L165.457 159.144L137.991 174.559L122.647 183.177L129.373 172.036L135.679 168.533L172.534 147.794Z" fill="#F7F7F7" stroke="#231F20" stroke-width="0.201439" stroke-miterlimit="10" stroke-linecap="round" stroke-linejoin="round"/>
        <path opacity="0.2" d="M172.534 147.794V147.864L165.457 159.144L137.991 174.559L122.647 183.177L129.373 172.036L135.679 168.533L172.534 147.794Z" fill="black" stroke="#231F20" stroke-width="0.0802954" stroke-miterlimit="10"/>
        <path opacity="0.2" d="M136.239 150.947L129.373 149.896L118.373 132.8L120.264 128.105L136.239 150.947Z" fill="black" stroke="#231F20" stroke-width="0.0802954" stroke-miterlimit="10"/>
    </g>
    <defs>
        <clipPath id="">
            <rect width="118.761" height="98.6526" fill="white" transform="translate(53.8418 84.6644)"/>
        </clipPath>
    </defs>


    <g clip-path="url(#)">
        <path d="M91.7473 199.572L91.2568 199.853C91.1868 199.853 91.1868 199.853 91.1167 199.853C91.397 199.782 91.6072 199.642 91.7473 199.572Z" fill="#F1F2F2" stroke="#231F20" stroke-width="0.201439" stroke-miterlimit="10" stroke-linecap="round" stroke-linejoin="round"/>
        <path d="M95.8115 201.814C95.6714 201.954 95.4612 202.025 95.321 202.165L95.251 202.235L95.8115 201.814Z" fill="#F1F2F2" stroke="#231F20" stroke-width="0.201439" stroke-miterlimit="10" stroke-linecap="round" stroke-linejoin="round"/>
        <path d="M91.7473 199.572L91.2568 199.853C91.1868 199.853 91.1868 199.853 91.1167 199.853C91.397 199.782 91.6072 199.642 91.7473 199.572Z" fill="#F1F2F2" stroke="#231F20" stroke-width="0.201439" stroke-miterlimit="10" stroke-linecap="round" stroke-linejoin="round"/>
        <path d="M91.7473 199.572L91.2568 199.853C91.1868 199.853 91.1868 199.853 91.1167 199.853C91.397 199.782 91.6072 199.642 91.7473 199.572Z" fill="#F1F2F2" stroke="#231F20" stroke-width="0.201439" stroke-miterlimit="10" stroke-linecap="round" stroke-linejoin="round"/>
        <path d="M95.8115 201.814C95.6714 201.954 95.4612 202.025 95.321 202.165L95.251 202.235L95.8115 201.814Z" fill="#F1F2F2" stroke="#231F20" stroke-width="0.201439" stroke-miterlimit="10" stroke-linecap="round" stroke-linejoin="round"/>
        <path d="M99.104 199.712C98.4034 201.394 97.4225 202.585 96.0912 203.356L95.9511 203.426C93.5688 204.827 90.2757 204.617 86.6323 202.585L87.5432 202.025C90.556 203.356 93.2185 203.356 95.2504 202.235L95.3205 202.165C95.5307 202.025 95.6708 201.955 95.8109 201.814L99.104 199.712Z" fill="#414042" stroke="#231F20" stroke-width="0.201439" stroke-miterlimit="10" stroke-linecap="round" stroke-linejoin="round"/>
        <path d="M91.7473 199.572L91.2568 199.853C91.1868 199.853 91.1868 199.853 91.1167 199.853C91.397 199.782 91.6072 199.642 91.7473 199.572Z" fill="#F1F2F2" stroke="#231F20" stroke-width="0.201439" stroke-miterlimit="10" stroke-linecap="round" stroke-linejoin="round"/>
        <path d="M95.8115 201.814C95.6714 201.954 95.4612 202.025 95.321 202.165L95.251 202.235L95.8115 201.814Z" fill="#F1F2F2" stroke="#231F20" stroke-width="0.201439" stroke-miterlimit="10" stroke-linecap="round" stroke-linejoin="round"/>
        <path d="M91.7473 199.572L91.2568 199.853C91.1868 199.853 91.1868 199.853 91.1167 199.853C91.397 199.782 91.6072 199.642 91.7473 199.572Z" fill="#F1F2F2" stroke="#231F20" stroke-width="0.201439" stroke-miterlimit="10" stroke-linecap="round" stroke-linejoin="round"/>
        <path d="M70.6577 167.973L69.8169 167.482C69.887 167.412 69.957 167.272 70.0271 167.202L70.6577 167.973Z" fill="#F1F2F2" stroke="#231F20" stroke-width="0.201439" stroke-miterlimit="10" stroke-linecap="round" stroke-linejoin="round"/>
        <path d="M53.0007 139.806L52.0898 140.227C52.3701 140.016 52.6504 139.876 53.0007 139.806Z" fill="#F1F2F2" stroke="#231F20" stroke-width="0.201439" stroke-miterlimit="10" stroke-linecap="round" stroke-linejoin="round"/>
        <path d="M35.6243 139.596H35.5542C35.5542 139.526 35.6243 139.526 35.6243 139.456C35.6243 139.526 35.6243 139.596 35.6243 139.596Z" fill="#F1F2F2" stroke="#231F20" stroke-width="0.201439" stroke-miterlimit="10" stroke-linecap="round" stroke-linejoin="round"/>
        <path d="M87.2631 196.559C87.2631 197.4 87.193 198.171 87.0529 198.872C86.9828 199.292 86.9128 199.642 86.7726 200.063C86.6325 200.553 86.4924 200.974 86.2822 201.394C86.142 201.674 86.0019 201.884 85.8618 202.095C85.6516 202.445 85.4414 202.795 85.1611 203.076C84.7407 203.496 84.3203 203.916 83.8299 204.197L83.6897 204.267C81.5177 205.458 78.5749 205.318 75.2818 203.426C74.8614 203.216 74.4411 202.935 74.0907 202.655L31.5608 178.132C31.2805 177.992 31.0703 177.852 30.7901 177.712C24.2039 173.928 18.8789 164.68 18.8789 157.112C18.8789 155.571 19.0891 154.24 19.5095 153.119C20.07 151.437 21.0509 150.246 22.2421 149.475C22.3121 149.475 22.3121 149.405 22.3822 149.405C22.9427 149.125 23.5032 148.915 24.1338 148.775C24.274 148.775 24.4842 148.705 24.6243 148.705C24.7644 148.705 24.9746 148.634 25.1848 148.634L27.0766 148.494L27.497 148.424L33.5927 147.934L34.0131 147.864L37.3763 147.583L38.9878 147.443L41.9305 147.233L46.9052 146.813C47.1855 146.743 47.4657 146.743 47.746 146.743C47.8861 146.743 48.0263 146.743 48.2365 146.743C49.0772 146.743 49.9881 146.953 50.969 147.303C51.7397 147.583 52.5105 147.934 53.2812 148.354C54.4022 148.985 55.5233 149.826 56.5042 150.736C57.345 151.507 58.1858 152.418 58.9565 153.329L59.0266 153.399C59.2368 153.679 59.447 153.889 59.6572 154.17L69.9568 167.132C69.8868 167.202 69.8167 167.342 69.7466 167.412L70.5874 167.903L72.1289 169.864L72.4091 170.215L74.6512 173.087L76.8233 175.82L80.0463 179.884C80.6068 180.444 81.0973 181.075 81.5878 181.705C81.9381 182.126 82.2884 182.616 82.5687 183.107C85.091 186.89 86.8427 191.304 87.123 195.438C87.193 195.859 87.2631 196.209 87.2631 196.559Z" fill="#F1F2F2" stroke="#231F20" stroke-width="0.201439" stroke-miterlimit="10" stroke-linecap="round" stroke-linejoin="round"/>
        <path opacity="0.14" d="M87.2631 196.559C87.2631 197.4 87.193 198.171 87.0529 198.872C86.9828 199.292 86.9128 199.642 86.7726 200.063C86.6325 200.553 86.4924 200.974 86.2822 201.394C86.142 201.674 86.0019 201.884 85.8618 202.095C85.6516 202.445 85.4414 202.795 85.1611 203.076C84.7407 203.496 84.3203 203.916 83.8299 204.197L83.6897 204.267C81.5177 205.458 78.5749 205.318 75.2818 203.426C74.8614 203.216 74.4411 202.935 74.0907 202.655L31.5608 178.132C31.2805 177.992 31.0703 177.852 30.7901 177.712C24.2039 173.928 18.8789 164.68 18.8789 157.112C18.8789 155.571 19.0891 154.24 19.5095 153.119C20.07 151.437 21.0509 150.246 22.2421 149.475C22.3121 149.475 22.3121 149.405 22.3822 149.405C22.9427 149.125 23.5032 148.915 24.1338 148.775C24.274 148.775 24.4842 148.705 24.6243 148.705C24.7644 148.705 24.9746 148.634 25.1848 148.634L27.0766 148.494L27.497 148.424L33.5927 147.934L34.0131 147.864L37.3763 147.583L38.9878 147.443L41.9305 147.233L46.9052 146.813C47.1855 146.743 47.4657 146.743 47.746 146.743C47.8861 146.743 48.0263 146.743 48.2365 146.743C49.0772 146.743 49.9881 146.953 50.969 147.303C51.7397 147.583 52.5105 147.934 53.2812 148.354C54.4022 148.985 55.5233 149.826 56.5042 150.736C57.345 151.507 58.1858 152.418 58.9565 153.329L59.0266 153.399C59.2368 153.679 59.447 153.889 59.6572 154.17L69.9568 167.132C69.8868 167.202 69.8167 167.342 69.7466 167.412L70.5874 167.903L72.1289 169.864L72.4091 170.215L74.6512 173.087L76.8233 175.82L80.0463 179.884C80.6068 180.444 81.0973 181.075 81.5878 181.705C81.9381 182.126 82.2884 182.616 82.5687 183.107C85.091 186.89 86.8427 191.304 87.123 195.438C87.193 195.859 87.2631 196.209 87.2631 196.559Z" fill="black" stroke="#231F20" stroke-width="0.0802954" stroke-miterlimit="10"/>
        <path d="M70.6577 167.973L69.8169 167.482C69.887 167.412 69.957 167.272 70.0271 167.202L70.6577 167.973Z" fill="#F1F2F2" stroke="#231F20" stroke-width="0.201439" stroke-miterlimit="10" stroke-linecap="round" stroke-linejoin="round"/>
        <path d="M103.308 196.7C103.308 201.324 101.697 204.617 99.1042 206.159L98.9641 206.229C96.3016 207.77 92.6581 207.49 88.5943 205.178C88.1039 204.897 87.6134 204.547 87.123 204.267L85.4414 203.286L86.6325 202.585C90.2759 204.617 93.569 204.827 95.9512 203.426L96.0914 203.356C97.4226 202.585 98.4035 201.324 99.1042 199.712C99.6647 198.311 100.015 196.63 100.015 194.668C100.015 193.897 99.945 193.056 99.8749 192.215C99.5246 189.203 98.4736 186.12 97.0022 183.107C96.3716 181.846 95.6009 180.585 94.8302 179.393C93.9193 178.062 92.9384 176.871 91.9575 175.75L87.2631 169.794L84.8809 166.782L84.5305 166.361L82.4986 163.839L76.4029 156.132L74.4411 153.679L68.7657 146.462C68.5555 146.182 68.3453 145.902 68.0651 145.622L67.995 145.552C67.0141 144.36 65.9631 143.31 64.9121 142.329C63.7911 141.348 62.67 140.507 61.4789 139.876C59.7272 138.895 58.1157 138.335 56.6443 138.125C56.5042 138.125 56.3641 138.055 56.1539 138.055C55.7335 138.055 55.3832 137.985 55.0328 138.055C54.7526 138.055 54.4723 138.125 54.2621 138.125L46.9753 138.755L46.0644 138.825L35.5546 139.666C35.5546 139.596 35.5546 139.596 35.5546 139.526C35.5546 139.596 35.4845 139.596 35.4845 139.666L33.1723 139.876L29.3888 140.157C29.1786 140.157 28.9684 140.157 28.7582 140.227C27.8473 140.367 27.0065 140.647 26.2358 141.067C23.8536 142.469 22.3121 145.341 22.2421 149.545C20.9809 150.316 20.07 151.507 19.5095 153.189C19.0891 151.437 18.8789 149.685 18.8789 148.004C18.8789 143.31 20.5605 140.016 23.223 138.475H23.293C23.7134 138.265 24.1338 138.055 24.5542 137.914C25.0447 137.774 25.4651 137.634 26.0256 137.564C26.2358 137.564 26.446 137.494 26.6562 137.494L35.6246 136.723L47.8161 135.742L53.1411 135.322L53.7016 135.252C54.122 135.182 54.5424 135.182 54.9628 135.182C56.5743 135.182 58.3259 135.602 60.2177 136.443C60.6381 136.653 61.1286 136.863 61.549 137.144C64.1414 138.615 66.5236 140.787 68.6256 143.31L68.6957 143.38C68.9759 143.66 69.1861 144.01 69.4664 144.29L76.0526 152.628L84.1101 162.858L84.0401 162.928L84.5305 163.348L86.072 165.31L88.8746 168.813L89.1549 169.164L94.62 176.03C95.741 177.221 96.792 178.623 97.7729 180.024C98.894 181.635 99.8049 183.387 100.646 185.139C101.977 188.082 102.888 191.164 103.238 194.107C103.238 195.018 103.308 195.859 103.308 196.7Z" fill="#231F20" stroke="#231F20" stroke-width="0.201439" stroke-miterlimit="10" stroke-linecap="round" stroke-linejoin="round"/>
        <path d="M84.4604 163.278L83.8999 162.858L84.04 162.788L84.4604 163.278Z" fill="#F1F2F2" stroke="#231F20" stroke-width="0.201439" stroke-miterlimit="10" stroke-linecap="round" stroke-linejoin="round"/>
        <path d="M53.0007 139.806L52.0898 140.227C52.3701 140.016 52.6504 139.876 53.0007 139.806Z" fill="#F1F2F2" stroke="#231F20" stroke-width="0.201439" stroke-miterlimit="10" stroke-linecap="round" stroke-linejoin="round"/>
        <path d="M56.6443 138.055L56.364 138.195L56.1538 138.055C56.364 138.055 56.5041 138.055 56.6443 138.055Z" fill="#F1F2F2" stroke="#231F20" stroke-width="0.201439" stroke-miterlimit="10" stroke-linecap="round" stroke-linejoin="round"/>
        <path d="M84.7407 166.712L84.1802 166.361L84.3904 166.291L84.7407 166.712Z" fill="#F1F2F2" stroke="#231F20" stroke-width="0.201439" stroke-miterlimit="10" stroke-linecap="round" stroke-linejoin="round"/>
        <path d="M70.6577 167.973L69.8169 167.482C69.887 167.412 69.957 167.272 70.0271 167.202L70.6577 167.973Z" fill="#F1F2F2" stroke="#231F20" stroke-width="0.201439" stroke-miterlimit="10" stroke-linecap="round" stroke-linejoin="round"/>
        <path d="M37.6567 143.52L36.2554 143.66L33.8031 143.87L33.2426 143.94C33.0324 143.94 32.8923 143.94 32.6821 144.01C31.8413 144.08 31.1406 144.36 30.44 144.711L24.2041 148.424C24.6245 145.411 25.9557 143.309 27.8475 142.258C28.2679 142.048 28.6182 141.838 29.1087 141.698C30.6502 141.207 32.4018 141.278 34.2936 141.978C34.8541 142.188 35.4146 142.399 35.9751 142.679C36.2554 142.819 36.6057 142.959 36.886 143.169C37.1663 143.169 37.3765 143.38 37.6567 143.52Z" fill="#928874" stroke="#231F20" stroke-width="0.201439" stroke-miterlimit="10"/>
        <path d="M50.1982 141.838C49.988 142.048 49.8479 142.329 49.7077 142.539L46.9752 142.749L37.6564 143.52C37.3762 143.38 37.166 143.239 36.8857 143.099C36.6054 142.889 36.2551 142.749 35.9748 142.609C35.4143 142.329 34.8538 142.048 34.2933 141.908C32.3314 141.278 30.5798 141.208 29.1084 141.628L33.2423 139.876L35.5544 139.666H35.6245L46.1344 138.825C46.2745 138.895 46.3446 138.965 46.4847 139.036C46.6248 139.106 46.835 139.246 46.9752 139.316C48.0262 139.946 49.1472 140.857 50.1982 141.838Z" fill="url(#paint0_linear_1_19911)" stroke="#231F20" stroke-width="0.201439" stroke-miterlimit="10" stroke-linecap="round" stroke-linejoin="round"/>
        <path d="M33.172 139.806L29.0381 141.558C28.6177 141.698 28.1973 141.838 27.7769 142.118C25.8851 143.239 24.5539 145.341 24.1335 148.284L22.3818 149.335C22.3118 149.335 22.3118 149.405 22.2417 149.405C22.3118 145.271 23.7831 142.329 26.2354 140.927C27.0062 140.507 27.847 140.227 28.7578 140.086C28.968 140.086 29.1782 140.016 29.3884 140.016L33.172 139.806Z" fill="#414042" stroke="#231F20" stroke-width="0.201439" stroke-miterlimit="10" stroke-linecap="round" stroke-linejoin="round"/>
        <path d="M53.0007 139.806L52.0898 140.227C52.3701 140.016 52.6504 139.876 53.0007 139.806Z" fill="#F1F2F2" stroke="#231F20" stroke-width="0.201439" stroke-miterlimit="10" stroke-linecap="round" stroke-linejoin="round"/>
        <path d="M99.9447 194.668C99.9447 196.629 99.6644 198.311 99.0338 199.712L95.8108 201.814C97.7726 200.343 98.9637 197.61 98.9637 193.897C98.9637 193.126 98.8937 192.426 98.8236 191.655C98.4733 188.642 97.4223 185.489 95.8808 182.546C93.4986 177.992 89.9953 173.928 86.0716 171.686C85.6512 171.476 85.2308 171.196 84.8104 171.055L82.1479 167.622L84.1799 166.361L84.7404 166.641L87.1226 169.654L91.817 175.61C92.868 176.731 93.8489 177.992 94.6897 179.253C95.5305 180.444 96.2312 181.705 96.8618 182.967C98.3331 185.909 99.3141 189.062 99.7345 192.075C99.8746 193.056 99.9447 193.897 99.9447 194.668Z" fill="url(#paint1_linear_1_19911)" stroke="#231F20" stroke-width="0.201439" stroke-miterlimit="10" stroke-linecap="round" stroke-linejoin="round"/>
        <path d="M98.9638 193.897C98.9638 197.61 97.7727 200.343 95.8109 201.814L95.1803 202.235C93.1484 203.356 90.4859 203.356 87.473 202.025L91.2566 199.783L91.7471 199.502L91.8171 199.432C93.9191 198.171 95.2503 195.508 95.2503 191.795C95.2503 191.024 95.1803 190.254 95.1102 189.483C94.6898 186.4 93.4987 183.107 91.8171 180.164C91.4668 179.604 91.1865 179.043 90.8362 178.553C90.8362 178.483 90.7661 178.483 90.7661 178.412C89.9954 177.291 89.1546 176.17 88.2438 175.189L84.9507 171.056C85.3711 171.266 85.7915 171.476 86.2119 171.686C90.1355 173.928 93.6388 177.992 96.0211 182.546C97.5625 185.489 98.6135 188.642 98.9638 191.655C98.9638 192.426 98.9638 193.196 98.9638 193.897Z" fill="#928874" stroke="#231F20" stroke-width="0.201439" stroke-miterlimit="10"/>
        <path d="M56.6443 138.055L56.364 138.195L56.1538 138.055C56.364 138.055 56.5041 138.055 56.6443 138.055Z" fill="#F1F2F2" stroke="#231F20" stroke-width="0.201439" stroke-miterlimit="10" stroke-linecap="round" stroke-linejoin="round"/>
        <path d="M84.7407 166.712L84.1802 166.361L84.3904 166.291L84.7407 166.712Z" fill="#F1F2F2" stroke="#231F20" stroke-width="0.201439" stroke-miterlimit="10" stroke-linecap="round" stroke-linejoin="round"/>
        <path d="M70.6577 167.973L69.8169 167.482C69.887 167.412 69.957 167.272 70.0271 167.202L70.6577 167.973Z" fill="#F1F2F2" stroke="#231F20" stroke-width="0.201439" stroke-miterlimit="10" stroke-linecap="round" stroke-linejoin="round"/>
        <path d="M70.6577 167.973L69.8169 167.482C69.887 167.412 69.957 167.272 70.0271 167.202L70.6577 167.973Z" fill="#F1F2F2" stroke="#231F20" stroke-width="0.201439" stroke-miterlimit="10" stroke-linecap="round" stroke-linejoin="round"/>
        <path d="M95.2505 191.865C95.2505 195.649 93.9192 198.241 91.8173 199.502L91.7472 199.572C91.537 199.712 91.3268 199.783 91.1166 199.853C91.1867 199.853 91.1867 199.853 91.2567 199.853L87.4732 202.095L86.5623 202.655L85.3712 203.356L83.7597 204.337C84.2501 204.057 84.6705 203.636 85.0909 203.216C85.3712 202.935 85.5814 202.585 85.7916 202.235C85.9317 202.025 86.0719 201.744 86.212 201.534C86.4222 201.114 86.5623 200.693 86.7025 200.203C86.8426 199.853 86.9127 199.432 86.9827 199.012C87.1228 198.311 87.1929 197.54 87.1929 196.7C87.1929 196.349 87.1929 195.929 87.1228 195.579C86.8426 191.515 85.161 187.031 82.5686 183.247C82.2182 182.757 81.938 182.336 81.5877 181.846C81.0972 181.215 80.6067 180.584 80.0462 180.024L76.8232 175.96L74.6511 173.228L72.409 170.355L72.1288 170.005L70.6574 167.973L70.0268 167.202L59.7972 154.17C59.587 153.889 59.3768 153.679 59.1666 153.399L59.0965 153.329C58.3258 152.418 57.485 151.507 56.6442 150.736C55.5933 149.826 54.5423 148.985 53.4212 148.354C52.6505 147.864 51.8097 147.513 51.109 147.303C50.1281 146.953 49.2173 146.813 48.3765 146.743C48.2363 146.743 48.0262 146.743 47.886 146.743C47.6058 146.743 47.3255 146.743 47.0452 146.813L42.0706 147.233L39.1278 147.443L37.5163 147.584L34.1531 147.864L33.7327 147.934L27.5669 148.424L27.1466 148.494L25.2548 148.635C25.0446 148.635 24.9044 148.635 24.6943 148.705C24.5541 148.705 24.3439 148.775 24.2038 148.775C23.5732 148.915 23.0127 149.125 22.4521 149.405L24.2038 148.354L30.4396 144.641C31.1403 144.29 31.841 144.01 32.6817 143.94C32.8219 143.94 33.0321 143.87 33.2423 143.87L33.8028 143.8L36.2551 143.59L37.6564 143.45L46.9752 142.679L49.7077 142.469L50.8288 142.399L55.0327 142.048C55.313 141.978 55.5933 141.978 55.8735 141.978C57.5551 141.908 59.3768 142.469 61.4087 143.59C63.5107 144.781 65.4025 146.533 67.1541 148.564L67.2242 148.635C67.4344 148.915 67.6446 149.125 67.8548 149.405L72.339 155.081L78.785 163.208L80.3265 165.17L82.2182 167.552L84.8807 170.985L88.1738 175.119C89.0847 176.1 89.9255 177.221 90.6962 178.342C90.6962 178.412 90.7663 178.412 90.7663 178.483C91.1166 179.043 91.4669 179.534 91.7472 180.094C93.4288 183.037 94.6199 186.33 95.0403 189.413C95.2505 190.324 95.2505 191.094 95.2505 191.865Z" fill="#F1F2F2" stroke="#231F20" stroke-width="0.201439" stroke-miterlimit="10" stroke-linecap="round" stroke-linejoin="round"/>
        <path d="M70.6577 167.973L69.8169 167.482C69.887 167.412 69.957 167.272 70.0271 167.202L70.6577 167.973Z" fill="#F1F2F2" stroke="#231F20" stroke-width="0.201439" stroke-miterlimit="10" stroke-linecap="round" stroke-linejoin="round"/>
        <path d="M84.4604 163.278L83.8999 162.858L84.04 162.788L84.4604 163.278Z" fill="#F1F2F2" stroke="#231F20" stroke-width="0.201439" stroke-miterlimit="10" stroke-linecap="round" stroke-linejoin="round"/>
        <path d="M53.0007 139.806L52.0898 140.227C52.3701 140.016 52.6504 139.876 53.0007 139.806Z" fill="#F1F2F2" stroke="#231F20" stroke-width="0.201439" stroke-miterlimit="10" stroke-linecap="round" stroke-linejoin="round"/>
        <path d="M56.6443 138.055L56.364 138.195L56.1538 138.055C56.364 138.055 56.5041 138.055 56.6443 138.055Z" fill="#F1F2F2" stroke="#231F20" stroke-width="0.201439" stroke-miterlimit="10" stroke-linecap="round" stroke-linejoin="round"/>
        <path d="M84.7407 166.712L84.1802 166.361L84.3904 166.291L84.7407 166.712Z" fill="#F1F2F2" stroke="#231F20" stroke-width="0.201439" stroke-miterlimit="10" stroke-linecap="round" stroke-linejoin="round"/>
        <path d="M56.6443 138.055L56.364 138.195L56.1538 138.055C56.364 138.055 56.5041 138.055 56.6443 138.055Z" fill="#F1F2F2" stroke="#231F20" stroke-width="0.201439" stroke-miterlimit="10" stroke-linecap="round" stroke-linejoin="round"/>
        <path d="M84.7407 166.712L84.1802 166.361L84.3904 166.291L84.7407 166.712Z" fill="#F1F2F2" stroke="#231F20" stroke-width="0.201439" stroke-miterlimit="10" stroke-linecap="round" stroke-linejoin="round"/>
        <path d="M84.4604 163.278L83.8999 162.858L84.04 162.788L84.4604 163.278Z" fill="#F1F2F2" stroke="#231F20" stroke-width="0.201439" stroke-miterlimit="10" stroke-linecap="round" stroke-linejoin="round"/>
        <path d="M123.207 175.259C123.207 179.043 121.876 181.635 119.774 182.897L119.704 182.967L119.564 182.827C118.793 178.553 116.901 174.208 114.309 170.355C113.328 168.954 112.277 167.622 111.156 166.361L86.0724 134.551C85.8622 134.201 85.5819 133.921 85.3016 133.64L85.2316 133.57C83.1296 131.048 80.7474 128.876 78.1549 127.405C77.174 126.844 76.2632 126.424 75.4224 126.073L82.9895 125.443C84.8112 125.162 87.0533 125.653 89.3654 126.984C91.4674 128.175 93.3592 129.927 95.1108 131.959L95.1809 132.029C95.3911 132.309 95.6013 132.519 95.8115 132.8L116.131 158.514C117.041 159.495 117.882 160.616 118.653 161.737C121.456 165.941 123.207 170.845 123.207 175.259Z" fill="#F1F2F2" stroke="#231F20" stroke-width="0.201439" stroke-miterlimit="10" stroke-linecap="round" stroke-linejoin="round"/>
        <path d="M119.703 182.967L119.633 183.037C119.633 182.967 119.633 182.897 119.633 182.827L119.703 182.967Z" fill="#F1F2F2" stroke="#231F20" stroke-width="0.201439" stroke-miterlimit="10" stroke-linecap="round" stroke-linejoin="round"/>
        <path d="M84.4604 163.278L83.8999 162.858L84.04 162.788L84.4604 163.278Z" fill="#F1F2F2" stroke="#231F20" stroke-width="0.201439" stroke-miterlimit="10" stroke-linecap="round" stroke-linejoin="round"/>
        <path d="M56.3639 138.195L55.1728 138.755L53.0007 139.806C52.6504 139.946 52.3701 140.086 52.0899 140.227C51.3892 140.647 50.7586 141.137 50.2682 141.838C49.2172 140.857 48.0961 140.016 46.9751 139.246C46.8349 139.176 46.6247 139.035 46.4846 138.965C46.3445 138.895 46.2744 138.825 46.1343 138.755L47.0451 138.685L54.332 138.055C54.6122 137.984 54.8224 137.984 55.1027 137.984C55.453 137.984 55.8734 137.984 56.2237 137.984L56.3639 138.195Z" fill="#414042" stroke="#231F20" stroke-width="0.201439" stroke-miterlimit="10" stroke-linecap="round" stroke-linejoin="round"/>
        <path d="M72.2692 155.08L67.785 149.405C67.5748 149.125 67.3646 148.915 67.1544 148.634V148.634C65.4728 146.603 63.511 144.851 61.409 143.66C59.4471 142.539 57.5554 141.978 55.8738 142.048C55.5935 142.048 55.3133 142.048 55.033 142.118L50.8291 142.469L49.708 142.539C49.8481 142.258 49.9883 142.048 50.1985 141.838C50.6889 141.207 51.3195 140.647 52.0202 140.227L52.931 139.806C53.6317 139.526 54.4024 139.386 55.2432 139.386C56.1541 139.386 57.135 139.526 58.186 139.806C59.0968 140.086 60.0777 140.507 61.1287 141.137C64.562 143.169 67.7149 146.532 70.0271 150.456C70.9379 151.928 71.6386 153.469 72.2692 155.08Z" fill="#928874" stroke="#231F20" stroke-width="0.201439" stroke-miterlimit="10"/>
        <path d="M53.0007 139.806L52.0898 140.227C52.3701 140.016 52.6504 139.876 53.0007 139.806Z" fill="#F1F2F2" stroke="#231F20" stroke-width="0.201439" stroke-miterlimit="10" stroke-linecap="round" stroke-linejoin="round"/>
        <path d="M56.6443 138.055L56.364 138.195L56.1538 138.055C56.364 138.055 56.5041 138.055 56.6443 138.055Z" fill="#F1F2F2" stroke="#231F20" stroke-width="0.201439" stroke-miterlimit="10" stroke-linecap="round" stroke-linejoin="round"/>
        <path d="M84.3905 166.291L84.1803 166.361L82.2184 167.622L80.3267 165.17L81.1674 164.609L82.4987 163.839L84.3905 166.291Z" fill="#414042" stroke="#231F20" stroke-width="0.201439" stroke-miterlimit="10" stroke-linecap="round" stroke-linejoin="round"/>
        <path d="M84.7407 166.712L84.1802 166.361L84.3904 166.291L84.7407 166.712Z" fill="#F1F2F2" stroke="#231F20" stroke-width="0.201439" stroke-miterlimit="10" stroke-linecap="round" stroke-linejoin="round"/>
        <path d="M82.4989 163.839L81.1677 164.609L80.2568 165.17L78.7154 163.208L72.2693 155.081C71.6387 153.469 70.868 151.928 70.0272 150.456C67.715 146.533 64.5621 143.169 61.1288 141.137C60.1479 140.577 59.167 140.157 58.1861 139.806C57.1351 139.456 56.1542 139.316 55.2433 139.386C54.4025 139.386 53.6318 139.526 52.9312 139.806L55.1032 138.755L56.2943 138.195L56.5746 138.055C58.116 138.265 59.7275 138.825 61.4091 139.806C62.6002 140.507 63.7213 141.348 64.8423 142.259C65.9634 143.239 66.9443 144.29 67.9252 145.482L67.9953 145.552C68.2055 145.832 68.4857 146.112 68.6959 146.392L74.3713 153.609L76.3331 156.061L82.4989 163.839Z" fill="url(#paint2_linear_1_19911)" stroke="#231F20" stroke-width="0.201439" stroke-miterlimit="10" stroke-linecap="round" stroke-linejoin="round"/>
        <path d="M56.6443 138.055L56.364 138.195L56.1538 138.055C56.364 138.055 56.5041 138.055 56.6443 138.055Z" fill="#F1F2F2" stroke="#231F20" stroke-width="0.201439" stroke-miterlimit="10" stroke-linecap="round" stroke-linejoin="round"/>
        <path d="M84.4604 163.278L83.8999 162.858L84.04 162.788L84.4604 163.278Z" fill="#F1F2F2" stroke="#231F20" stroke-width="0.201439" stroke-miterlimit="10" stroke-linecap="round" stroke-linejoin="round"/>
        <path d="M119.703 182.967L119.633 183.037C119.633 182.967 119.633 182.897 119.633 182.827L119.703 182.967Z" fill="#F1F2F2" stroke="#231F20" stroke-width="0.201439" stroke-miterlimit="10" stroke-linecap="round" stroke-linejoin="round"/>
        <path d="M119.984 186.96C119.984 191.585 118.372 194.878 115.78 196.419L115.64 196.489L99.1041 206.158C101.697 204.617 103.308 201.324 103.308 196.7C103.308 195.859 103.238 195.018 103.168 194.177C102.818 191.234 101.907 188.152 100.575 185.209C99.7347 183.457 98.8239 181.706 97.7028 180.094C96.7219 178.693 95.6709 177.361 94.5498 176.1L89.0847 169.234L88.8045 168.883L86.0018 165.38L84.4604 163.418L84.04 162.928L75.9824 152.558L69.3962 144.22C69.186 143.87 68.9058 143.59 68.6255 143.309L68.5554 143.239C66.4535 140.717 64.0712 138.545 61.4788 137.074C60.9883 136.793 60.568 136.583 60.1476 136.373C58.2558 135.462 56.5041 135.042 54.8926 135.112C54.4722 135.112 54.0518 135.182 53.6314 135.182L53.0709 135.252L47.7459 135.672L35.6245 136.723L26.6561 137.494C26.4459 137.494 26.2357 137.494 26.0255 137.564C25.5351 137.634 25.0446 137.704 24.5542 137.914C24.1338 138.055 23.7134 138.265 23.293 138.475L39.8986 128.666C40.3189 128.456 40.7393 128.245 41.2298 128.105C41.7203 127.965 42.1407 127.825 42.7012 127.755C42.9114 127.755 43.1216 127.685 43.3318 127.685L70.3772 125.443C71.9186 125.233 73.6703 125.373 75.492 126.073C76.4028 126.424 77.3137 126.844 78.2245 127.405C80.817 128.876 83.1992 131.048 85.3012 133.57L85.3712 133.64C85.6515 133.921 85.8617 134.271 86.142 134.551L111.225 166.361C112.347 167.552 113.398 168.954 114.378 170.355C116.971 174.138 118.863 178.553 119.633 182.827C119.633 182.897 119.633 182.967 119.633 183.037C119.844 184.368 119.984 185.699 119.984 186.96Z" fill="#414042" stroke="#231F20" stroke-width="0.201439" stroke-miterlimit="10" stroke-linecap="round" stroke-linejoin="round"/>
    </g>
    <defs>
        <linearGradient id="paint0_linear_1_19911" x1="29.0842" y1="141.134" x2="50.2221" y2="141.134" gradientUnits="userSpaceOnUse">
            <stop stop-color="#58595B"/>
            <stop offset="1"/>
        </linearGradient>
        <linearGradient id="paint1_linear_1_19911" x1="82.1947" y1="184.107" x2="99.9584" y2="184.107" gradientUnits="userSpaceOnUse">
            <stop stop-color="#58595B"/>
            <stop offset="1"/>
        </linearGradient>
        <linearGradient id="paint2_linear_1_19911" x1="52.9729" y1="151.638" x2="82.4641" y2="151.638" gradientUnits="userSpaceOnUse">
            <stop stop-color="#58595B"/>
            <stop offset="1"/>
        </linearGradient>
        <clipPath id="">
            <rect width="104.538" height="81.9769" fill="white" transform="translate(18.8096 125.303)"/>
        </clipPath>
    </defs>


    <g clip-path="url(#)">
        <path d="M86.7733 102.391L87.4739 131.258L60.3585 116.474L53.0716 105.334L49.4983 103.372L49.0078 84.7345L58.1864 86.7664L86.7733 102.391Z" fill="#F1F2F2" stroke="#231F20" stroke-width="0.17068" stroke-miterlimit="10" stroke-linecap="round" stroke-linejoin="round"/>
        <path d="M98.4044 111.99L98.9649 134.271L87.4741 131.258L86.7734 102.391L98.4044 111.99Z" fill="#F1F2F2" stroke="#231F20" stroke-width="0.17068" stroke-miterlimit="10" stroke-linecap="round" stroke-linejoin="round"/>
        <path opacity="0.2" d="M86.7733 102.391L87.4739 131.258L60.3585 116.474L53.0716 105.334L49.4983 103.372L49.0078 84.7345L58.1864 86.7664L86.7733 102.391Z" fill="black" stroke="#231F20" stroke-width="0.17068" stroke-miterlimit="10"/>
        <path opacity="0.2" d="M98.4044 111.99L98.9649 134.271L87.4741 131.258L86.7734 102.391L98.4044 111.99Z" fill="black" stroke="#231F20" stroke-width="0.17068" stroke-miterlimit="10"/>
        <path d="M160.622 77.0272L161.183 99.3081L157.75 101.27C157.96 100.499 158.1 99.6585 158.1 98.6775C158.03 93.3525 154.176 86.9065 149.552 84.3141L141.284 89.0785L139.743 89.9894L138.551 90.69L138.832 109.958C139.252 110.168 139.602 110.379 140.023 110.519C140.373 110.659 140.724 110.729 141.004 110.869L99.0344 134.341L98.4038 111.99L137.991 89.8493L149.412 83.3331L160.622 77.0272Z" fill="#F7F7F7" stroke="#231F20" stroke-width="0.17068" stroke-miterlimit="10" stroke-linecap="round" stroke-linejoin="round"/>
        <path opacity="0.2" d="M141.074 110.799L135.539 113.952L134.488 103.933C134.208 101.41 134.628 98.8879 135.749 96.6458L138.622 90.6201L141.074 110.799Z" fill="black" stroke="#231F20" stroke-width="0.17068" stroke-miterlimit="10"/>
        <path d="M160.623 77.0272L149.412 83.4032L137.992 89.8493L98.4044 111.99L86.7734 102.391L93.8501 98.3973L148.992 67.4282L160.623 77.0272Z" fill="#F1F2F2" stroke="#231F20" stroke-width="0.17068" stroke-miterlimit="10" stroke-linecap="round" stroke-linejoin="round"/>
        <path d="M148.991 67.4283L93.8495 98.3973L86.8429 102.391L58.186 86.7664C59.0969 86.4861 102.117 62.3135 111.436 56.9885C116.551 54.0457 120.404 51.8036 120.404 51.8036L148.991 67.4283Z" fill="#F1F2F2" stroke="#231F20" stroke-width="0.17068" stroke-miterlimit="10" stroke-linecap="round" stroke-linejoin="round"/>
        <path d="M120.335 51.8035C120.335 51.8035 116.481 54.0456 111.366 56.9884C102.048 62.3834 59.0272 86.4861 58.1164 86.7663L49.0078 84.6644L111.226 49.7015L120.335 51.8035Z" fill="#F1F2F2" stroke="#231F20" stroke-width="0.17068" stroke-miterlimit="10" stroke-linecap="round" stroke-linejoin="round"/>
        <path d="M147.029 104.983C147.029 105.964 146.959 106.805 146.749 107.506C146.469 108.627 145.908 109.538 145.138 110.098C144.087 110.939 142.615 111.219 140.934 110.799C140.583 110.729 140.303 110.589 139.953 110.449C139.532 110.308 139.182 110.098 138.762 109.888L138.481 90.62C138.902 90.8302 139.252 91.1105 139.673 91.3907C140.443 91.9512 141.214 92.6519 141.915 93.3526C143.877 95.4545 145.488 98.117 146.329 100.85C146.749 102.251 147.029 103.652 147.029 104.983Z" fill="#F1F2F2" stroke="#231F20" stroke-width="0.17068" stroke-miterlimit="10" stroke-linecap="round" stroke-linejoin="round"/>
        <path opacity="0.2" d="M147.029 104.983C147.029 105.964 146.959 106.805 146.749 107.506C146.469 108.627 145.908 109.538 145.138 110.098C144.087 110.939 142.615 111.219 140.934 110.799C140.583 110.729 140.303 110.589 139.953 110.449C139.532 110.308 139.182 110.098 138.762 109.888L138.481 90.62C138.902 90.8302 139.252 91.1105 139.673 91.3907C140.443 91.9512 141.214 92.6519 141.915 93.3526C143.877 95.4545 145.488 98.117 146.329 100.85C146.749 102.251 147.029 103.652 147.029 104.983Z" fill="black" stroke="#231F20" stroke-width="0.17068" stroke-miterlimit="10"/>
        <path d="M155.857 103.932C155.647 104.073 155.507 104.143 155.297 104.283L155.857 103.932Z" fill="white" stroke="#231F20" stroke-width="0.17068" stroke-miterlimit="10"/>
        <path d="M158.03 98.6776C158.03 99.6585 157.96 100.499 157.679 101.27C157.329 102.461 156.699 103.372 155.858 104.003L155.297 104.353L149.832 107.506L145.138 110.168C145.908 109.608 146.399 108.697 146.749 107.576C146.959 106.805 147.1 105.964 147.029 105.054C147.029 103.722 146.749 102.321 146.329 100.92C145.488 98.1871 143.877 95.5246 141.915 93.4226C141.214 92.6519 140.443 92.0213 139.673 91.4608C139.252 91.1805 138.902 90.9003 138.481 90.6901L139.673 89.9894L141.214 89.0786L149.482 84.3141C154.106 86.9065 157.96 93.3526 158.03 98.6776Z" fill="#F1F2F2" stroke="#231F20" stroke-width="0.17068" stroke-miterlimit="10" stroke-linecap="round" stroke-linejoin="round"/>
        <path opacity="0.2" d="M115.43 125.162L109.895 128.315L108.844 118.296C108.564 115.774 108.984 113.251 110.105 111.009L112.978 104.984L115.43 125.162Z" fill="black" stroke="#231F20" stroke-width="0.17068" stroke-miterlimit="10"/>
        <path d="M121.385 119.347C121.385 120.328 121.315 121.169 121.105 121.869C120.825 122.99 120.264 123.901 119.494 124.462C118.443 125.303 116.971 125.583 115.29 125.162C114.939 125.092 114.659 124.952 114.309 124.812C113.888 124.672 113.538 124.462 113.118 124.252L112.837 104.984C113.258 105.194 113.608 105.474 114.029 105.754C114.799 106.315 115.57 107.015 116.271 107.716C118.232 109.818 119.844 112.481 120.685 115.213C121.105 116.614 121.385 118.016 121.385 119.347Z" fill="#F1F2F2" stroke="#231F20" stroke-width="0.17068" stroke-miterlimit="10" stroke-linecap="round" stroke-linejoin="round"/>
        <path opacity="0.2" d="M121.385 119.347C121.385 120.328 121.315 121.169 121.105 121.869C120.825 122.99 120.264 123.901 119.494 124.462C118.443 125.303 116.971 125.583 115.29 125.162C114.939 125.092 114.659 124.952 114.309 124.812C113.888 124.672 113.538 124.462 113.118 124.252L112.837 104.984C113.258 105.194 113.608 105.474 114.029 105.754C114.799 106.315 115.57 107.015 116.271 107.716C118.232 109.818 119.844 112.481 120.685 115.213C121.105 116.614 121.385 118.016 121.385 119.347Z" fill="black" stroke="#231F20" stroke-width="0.17068" stroke-miterlimit="10"/>
        <path d="M130.214 118.366C130.004 118.506 129.864 118.576 129.653 118.716L130.214 118.366Z" fill="white" stroke="#231F20" stroke-width="0.17068" stroke-miterlimit="10"/>
        <path d="M132.386 113.041C132.386 114.022 132.316 114.863 132.035 115.634C131.685 116.825 131.055 117.735 130.214 118.366L129.653 118.716L124.188 121.869L119.494 124.532C120.264 123.971 120.755 123.06 121.105 121.939C121.315 121.169 121.455 120.328 121.385 119.417C121.385 118.086 121.105 116.685 120.685 115.283C119.844 112.551 118.232 109.888 116.271 107.786C115.57 107.015 114.799 106.385 114.029 105.824C113.608 105.544 113.258 105.264 112.837 105.054L114.029 104.353L115.57 103.442L123.838 98.6776C128.462 101.27 132.316 107.716 132.386 113.041Z" fill="#F1F2F2" stroke="#231F20" stroke-width="0.17068" stroke-miterlimit="10" stroke-linecap="round" stroke-linejoin="round"/>
        <path d="M188.158 123.481C188.018 123.411 187.878 123.341 187.808 123.271L188.158 123.481Z" fill="white" stroke="#231F20" stroke-width="0.17068" stroke-miterlimit="10"/>
        <path d="M193.973 116.755C194.044 119.067 192.502 121.869 190.54 123.061C189.699 123.621 188.859 123.691 188.228 123.481L187.878 123.271C187.317 122.85 186.967 122.15 186.897 121.029C186.827 118.716 188.368 115.914 190.33 114.723C191.171 114.232 191.942 114.092 192.572 114.302C193.413 114.583 193.903 115.423 193.973 116.755Z" fill="white" stroke="#231F20" stroke-width="0.17068" stroke-miterlimit="10"/>
        <path d="M192.572 114.302C191.942 114.092 191.171 114.232 190.33 114.723C188.368 115.914 186.827 118.716 186.897 121.029C186.897 122.08 187.247 122.85 187.878 123.271L149.762 103.372C148.992 103.092 148.501 102.251 148.431 100.99C148.361 98.6777 149.902 95.875 151.864 94.6839C152.775 94.1234 153.686 94.0533 154.317 94.3336L154.457 94.4036L192.572 114.302Z" fill="url(#paint0_linear_1_19911)" stroke="#231F20" stroke-width="0.17068" stroke-miterlimit="10" stroke-linecap="round" stroke-linejoin="round"/>
        <path d="M198.878 133.08C198.668 133.01 198.458 132.87 198.248 132.73L198.878 133.08Z" fill="white" stroke="#231F20" stroke-width="0.17068" stroke-miterlimit="10"/>
        <path d="M208.547 122.15C208.547 125.933 205.955 130.558 202.662 132.449C201.19 133.29 199.859 133.5 198.878 133.08L198.248 132.73C197.337 132.029 196.776 130.838 196.706 129.086C196.706 125.303 199.298 120.678 202.592 118.786C203.993 117.946 205.254 117.806 206.305 118.156C207.706 118.576 208.547 119.978 208.547 122.15Z" fill="#58595B" stroke="#231F20" stroke-width="0.17068" stroke-miterlimit="10" stroke-linecap="round" stroke-linejoin="round"/>
        <path d="M207.286 122.92C207.286 125.863 205.254 129.507 202.732 130.978C201.611 131.609 200.56 131.749 199.719 131.468L199.229 131.188C198.528 130.698 198.038 129.717 198.038 128.315C198.038 125.373 200.07 121.729 202.592 120.258C203.713 119.627 204.694 119.487 205.465 119.767C206.586 120.118 207.286 121.239 207.286 122.92Z" fill="#231F20" stroke="#231F20" stroke-width="0.17068" stroke-miterlimit="10"/>
        <path d="M206.305 118.086C205.254 117.736 203.993 117.946 202.592 118.716C199.299 120.608 196.706 125.233 196.706 129.016C196.706 130.768 197.267 132.029 198.248 132.66L178.91 122.22C177.648 121.729 176.808 120.328 176.808 118.226C176.808 114.442 179.4 109.818 182.693 107.926C184.235 107.015 185.636 106.875 186.687 107.436L186.897 107.576L206.305 118.086Z" fill="url(#paint1_linear_1_19911)" stroke="#231F20" stroke-width="0.17068" stroke-miterlimit="10" stroke-linecap="round" stroke-linejoin="round"/>
        <path d="M162.584 138.825C162.444 138.755 162.304 138.685 162.234 138.615L162.584 138.825Z" fill="white" stroke="#231F20" stroke-width="0.17068" stroke-miterlimit="10"/>
        <path d="M168.33 132.099C168.4 134.411 166.859 137.214 164.897 138.405C164.056 138.965 163.215 139.035 162.585 138.825L162.234 138.615C161.674 138.195 161.323 137.494 161.253 136.373C161.183 134.061 162.725 131.258 164.686 130.067C165.527 129.577 166.298 129.436 166.929 129.647C167.769 129.927 168.33 130.768 168.33 132.099Z" fill="white" stroke="#231F20" stroke-width="0.17068" stroke-miterlimit="10"/>
        <path d="M166.928 129.647C166.297 129.436 165.527 129.577 164.686 130.067C162.724 131.258 161.183 134.061 161.253 136.373C161.253 137.424 161.603 138.195 162.233 138.615L124.118 118.716C123.347 118.436 122.857 117.595 122.786 116.334C122.716 114.022 124.258 111.219 126.22 110.028C127.131 109.468 128.041 109.398 128.672 109.678L128.812 109.748L166.928 129.647Z" fill="url(#paint2_linear_1_19911)" stroke="#231F20" stroke-width="0.17068" stroke-miterlimit="10" stroke-linecap="round" stroke-linejoin="round"/>
        <path d="M173.234 148.424C173.024 148.354 172.814 148.214 172.604 148.074L173.234 148.424Z" fill="white" stroke="#231F20" stroke-width="0.17068" stroke-miterlimit="10"/>
        <path d="M182.973 137.494C182.973 141.278 180.381 145.902 177.088 147.794C175.617 148.635 174.285 148.845 173.304 148.424L172.674 148.074C171.763 147.373 171.202 146.182 171.132 144.431C171.132 140.647 173.725 136.023 177.018 134.131C178.419 133.29 179.68 133.15 180.731 133.5C182.063 133.921 182.903 135.322 182.973 137.494Z" fill="#58595B" stroke="#231F20" stroke-width="0.17068" stroke-miterlimit="10" stroke-linecap="round" stroke-linejoin="round"/>
        <path d="M181.642 138.265C181.642 141.207 179.61 144.851 177.087 146.322C175.966 146.953 174.915 147.093 174.075 146.813L173.584 146.532C172.884 146.042 172.393 145.061 172.393 143.66C172.393 140.717 174.425 137.074 176.947 135.602C178.068 134.972 179.049 134.831 179.82 135.112C180.941 135.462 181.642 136.583 181.642 138.265Z" fill="#231F20" stroke="#231F20" stroke-width="0.17068" stroke-miterlimit="10"/>
        <path d="M173.234 148.424C173.234 148.424 173.306 148.424 173.234 148.424V148.424Z" fill="white" stroke="#231F20" stroke-width="0.17068" stroke-miterlimit="10"/>
        <path d="M180.731 133.43C179.68 133.08 178.419 133.29 177.018 134.061C173.725 135.953 171.132 140.577 171.132 144.36C171.132 146.112 171.693 147.373 172.674 148.004L153.335 137.704C152.074 137.214 151.233 135.812 151.233 133.71C151.233 129.927 153.826 125.303 157.119 123.411C158.66 122.5 160.062 122.36 161.113 122.92L161.323 123.06L180.731 133.43Z" fill="url(#paint3_linear_1_19911)" stroke="#231F20" stroke-width="0.17068" stroke-miterlimit="10" stroke-linecap="round" stroke-linejoin="round"/>
        <path opacity="0.2" d="M119.007 77.8656C127.595 77.66 134.461 73.4791 134.342 68.5275C134.223 63.5758 127.165 59.7285 118.577 59.9342C109.989 60.1399 103.123 64.3207 103.242 69.2724C103.361 74.224 110.419 78.0713 119.007 77.8656Z" fill="black" stroke="#231F20" stroke-width="0.17068" stroke-miterlimit="10"/>
        <path d="M137.009 65.1861C137.009 65.6766 136.939 66.097 136.869 66.5874C136.729 67.0779 136.589 67.4983 136.309 67.9888C135.608 69.2499 134.417 70.4411 132.805 71.422C127.06 74.9253 117.531 75.1355 111.646 71.9124C109.964 71.0016 108.703 69.8805 107.932 68.6193C107.652 68.199 107.442 67.7085 107.302 67.2881C107.161 66.8677 107.091 66.3772 107.091 65.8868C107.091 65.046 107.302 64.2052 107.652 63.3644C107.792 63.0842 107.932 62.874 108.072 62.5937C108.142 62.5236 108.212 62.4536 108.212 62.3835L108.282 62.4536L110.525 63.6447L112.977 62.1733L112.907 60.4917L111.295 59.6509C111.576 59.5108 111.856 59.3006 112.136 59.1605C112.416 59.0203 112.697 58.8802 112.977 58.7401C113.117 58.67 113.327 58.5999 113.467 58.5299L116.48 60.0013L118.932 58.5299V57.0585C123.627 56.4279 128.672 57.1286 132.315 59.1605C135.468 60.772 136.939 62.944 137.009 65.1861Z" fill="#F1F2F2" stroke="#231F20" stroke-width="0.17068" stroke-miterlimit="10" stroke-linecap="round" stroke-linejoin="round"/>
        <path d="M137.01 65.186L137.08 67.9186C137.15 70.1607 135.748 72.4028 132.806 74.1545C127.06 77.6577 117.531 77.8679 111.646 74.6449C108.703 73.0334 107.162 70.8614 107.092 68.6193L107.021 65.8867C107.021 66.3772 107.092 66.7975 107.232 67.288C107.372 67.7785 107.582 68.1989 107.862 68.6193C108.633 69.8104 109.824 70.9314 111.576 71.9123C117.531 75.1354 126.99 74.9252 132.736 71.4219C134.417 70.3709 135.608 69.2498 136.239 67.9887C136.519 67.4982 136.659 67.0778 136.799 66.5874C136.94 66.0969 137.01 65.6064 137.01 65.186Z" fill="#939598" stroke="#231F20" stroke-width="0.17068" stroke-miterlimit="10"/>
        <path d="M113.048 60.4216V62.1032L110.665 63.5746L110.595 61.9631L113.048 60.4216Z" fill="white" stroke="#231F20" stroke-width="0.17068" stroke-miterlimit="10"/>
        <path d="M110.595 61.963L110.665 63.5745L108.353 62.3834L108.283 62.3133L107.232 61.7528L107.302 63.1541L105.06 61.963L104.99 58.8801L108.703 60.912L109.264 61.1923L110.595 61.963Z" fill="#939598" stroke="#231F20" stroke-width="0.17068" stroke-miterlimit="10"/>
        <path d="M119.073 56.9884L118.933 57.1285L116.691 58.4598L115.5 57.8292L114.729 57.4088L111.085 55.447L113.538 53.9055L117.181 55.9374L119.073 56.9884Z" fill="#F1F2F2" stroke="#231F20" stroke-width="0.17068" stroke-miterlimit="10" stroke-linecap="round" stroke-linejoin="round"/>
        <path d="M119.073 57.0583V58.5297L116.62 60.0011L116.55 58.5297L118.792 57.1284C119.003 57.0583 119.073 57.0583 119.073 57.0583Z" fill="white" stroke="#231F20" stroke-width="0.17068" stroke-miterlimit="10"/>
        <path d="M119.073 56.9884V57.0585C119.003 57.0585 118.933 57.0585 118.933 57.0585L119.073 56.9884Z" fill="white" stroke="#231F20" stroke-width="0.17068" stroke-miterlimit="10"/>
        <path d="M113.678 58.4597C113.538 58.5298 113.328 58.5998 113.188 58.6699V58.1794L113.328 58.2495L113.678 58.4597Z" fill="white" stroke="#231F20" stroke-width="0.17068" stroke-miterlimit="10"/>
        <path d="M113.047 60.4215L110.595 61.963L109.264 61.1922L108.703 60.912L104.99 58.8801L107.442 57.4087L111.226 59.4406L111.436 59.5807L113.047 60.4215Z" fill="#F1F2F2" stroke="#231F20" stroke-width="0.17068" stroke-miterlimit="10" stroke-linecap="round" stroke-linejoin="round"/>
        <path d="M116.69 58.4597L116.761 59.9311L113.748 58.4597L113.327 58.2495L113.187 58.1795V58.6699C112.907 58.8101 112.627 58.9502 112.346 59.0903L112.136 58.9502L111.225 58.4597L111.155 55.3768L114.799 57.3387L115.569 57.7591L116.69 58.4597Z" fill="#939598" stroke="#231F20" stroke-width="0.17068" stroke-miterlimit="10"/>
        <path d="M108.283 62.3133C108.213 62.3834 108.143 62.4535 108.143 62.5235L107.302 63.0841V61.7528L108.283 62.3133Z" fill="white" stroke="#231F20" stroke-width="0.17068" stroke-miterlimit="10"/>
        <path opacity="0.2" d="M87.6177 95.1707C96.2057 94.965 103.071 90.7841 102.953 85.8325C102.834 80.8809 95.7761 77.0335 87.1881 77.2393C78.6001 77.445 71.7343 81.6259 71.853 86.5775C71.9716 91.5292 79.0297 95.3765 87.6177 95.1707Z" fill="black" stroke="#231F20" stroke-width="0.17068" stroke-miterlimit="10"/>
        <path d="M105.55 82.4925C105.55 82.983 105.48 83.4034 105.41 83.8938C105.27 84.3843 105.13 84.8047 104.85 85.2952C104.149 86.5563 102.958 87.7475 101.346 88.7284C95.6011 92.2317 86.0721 92.4419 80.1866 89.2188C78.505 88.308 77.2438 87.1869 76.4731 85.9257C76.1929 85.5054 75.9827 85.0149 75.8425 84.5945C75.7024 84.1741 75.6323 83.6836 75.6323 83.1932C75.6323 82.3524 75.8425 81.5116 76.1929 80.6708C76.333 80.3906 76.4731 80.1804 76.6132 79.9001C76.6833 79.83 76.7534 79.76 76.7534 79.6899L76.8234 79.76L79.0655 80.9511L81.5178 79.4797L81.4478 77.7981L79.8363 76.9573C80.1165 76.8172 80.3968 76.607 80.6771 76.4669C80.9573 76.3267 81.2376 76.1866 81.5178 76.0465C81.658 75.9764 81.8682 75.9063 82.0083 75.8363L85.0211 77.3077L87.4734 75.8363V74.3649C92.1678 73.7343 97.2126 74.435 100.856 76.4669C104.009 78.0784 105.55 80.2504 105.55 82.4925Z" fill="#F1F2F2" stroke="#231F20" stroke-width="0.17068" stroke-miterlimit="10" stroke-linecap="round" stroke-linejoin="round"/>
        <path d="M105.55 82.4924L105.62 85.225C105.69 87.4671 104.289 89.7092 101.346 91.4608C95.6008 94.9641 86.0719 95.1743 80.1864 91.9513C77.2436 90.3398 75.7021 88.1678 75.6321 85.9257L75.562 83.1931C75.562 83.6835 75.6321 84.1039 75.7722 84.5944C75.9123 85.0849 76.1225 85.5053 76.4028 85.9257C77.1735 87.1168 78.3646 88.2378 80.1163 89.2187C86.0719 92.4418 95.5308 92.2316 101.276 88.7283C102.958 87.6773 104.149 86.5562 104.779 85.2951C105.06 84.8046 105.2 84.3842 105.34 83.8937C105.55 83.4033 105.62 82.9829 105.55 82.4924Z" fill="#939598" stroke="#231F20" stroke-width="0.17068" stroke-miterlimit="10"/>
        <path d="M81.588 77.7982L81.6581 79.4798L79.2058 80.8811L79.1357 79.2696L81.588 77.7982Z" fill="white" stroke="#231F20" stroke-width="0.17068" stroke-miterlimit="10"/>
        <path d="M79.1358 79.2694L79.2058 80.8809L76.8937 79.6898L76.8236 79.6197L75.7726 79.1293L75.8427 80.4605L73.6707 79.2694L73.6006 76.1865L77.3141 78.2184L77.8045 78.4987L79.1358 79.2694Z" fill="#939598" stroke="#231F20" stroke-width="0.17068" stroke-miterlimit="10"/>
        <path d="M87.684 74.2948L87.4738 74.4349L85.2317 75.8363L84.0406 75.1356L83.2699 74.7152L79.6265 72.7534L82.0788 71.282L85.7923 73.3139L87.684 74.2948Z" fill="#F1F2F2" stroke="#231F20" stroke-width="0.17068" stroke-miterlimit="10" stroke-linecap="round" stroke-linejoin="round"/>
        <path d="M87.6835 74.4349V75.9063L85.2312 77.3777L85.1611 75.9063L87.4032 74.505C87.5434 74.4349 87.6134 74.4349 87.6835 74.4349Z" fill="white" stroke="#231F20" stroke-width="0.17068" stroke-miterlimit="10"/>
        <path d="M87.6836 74.2948V74.3649C87.6135 74.3649 87.5435 74.3649 87.5435 74.3649L87.6836 74.2948Z" fill="white" stroke="#231F20" stroke-width="0.17068" stroke-miterlimit="10"/>
        <path d="M82.2185 75.7661C82.0784 75.8362 81.8682 75.9062 81.728 75.9763V75.4858L81.8682 75.5559L82.2185 75.7661Z" fill="white" stroke="#231F20" stroke-width="0.17068" stroke-miterlimit="10"/>
        <path d="M81.5881 77.7981L79.1358 79.2695L77.8045 78.4988L77.3141 78.2185L73.6006 76.1866L75.9828 74.7152L79.7664 76.7471L79.9766 76.8873L81.5881 77.7981Z" fill="#F1F2F2" stroke="#231F20" stroke-width="0.17068" stroke-miterlimit="10" stroke-linecap="round" stroke-linejoin="round"/>
        <path d="M85.2317 75.8362L85.3018 77.3076L82.289 75.8362L81.7985 75.5559H81.7284V76.0464C81.4482 76.1865 81.1679 76.3266 80.8876 76.4668L80.6775 76.3266L79.7666 75.8362L79.6265 72.7533L83.2699 74.7151L84.0406 75.1355L85.2317 75.8362Z" fill="#939598" stroke="#231F20" stroke-width="0.17068" stroke-miterlimit="10"/>
        <path d="M76.8237 79.6197C76.7536 79.6898 76.6836 79.7599 76.6836 79.8299L75.8428 80.4605V79.1293L76.8237 79.6197Z" fill="white" stroke="#231F20" stroke-width="0.17068" stroke-miterlimit="10"/>
    </g>
    <defs>
        <linearGradient id="paint0_linear_1_19911" x1="167.373" y1="112.57" x2="172.987" y2="102.423" gradientUnits="userSpaceOnUse">
            <stop stop-color="#59595C"/>
            <stop offset="0.3636" stop-color="#221F1F"/>
            <stop offset="0.6738" stop-color="#808184"/>
            <stop offset="1" stop-color="#424143"/>
        </linearGradient>
        <linearGradient id="paint1_linear_1_19911" x1="187.243" y1="125.115" x2="194.387" y2="111.564" gradientUnits="userSpaceOnUse">
            <stop stop-color="#59595C"/>
            <stop offset="0.3636" stop-color="#221F1F"/>
            <stop offset="0.6738" stop-color="#808184"/>
            <stop offset="1" stop-color="#424143"/>
        </linearGradient>
        <linearGradient id="paint2_linear_1_19911" x1="141.752" y1="127.919" x2="147.366" y2="117.773" gradientUnits="userSpaceOnUse">
            <stop stop-color="#59595C"/>
            <stop offset="0.3636" stop-color="#221F1F"/>
            <stop offset="0.6738" stop-color="#808184"/>
            <stop offset="1" stop-color="#424143"/>
        </linearGradient>
        <linearGradient id="paint3_linear_1_19911" x1="161.622" y1="140.464" x2="168.767" y2="126.913" gradientUnits="userSpaceOnUse">
            <stop stop-color="#59595C"/>
            <stop offset="0.3636" stop-color="#221F1F"/>
            <stop offset="0.6738" stop-color="#808184"/>
            <stop offset="1" stop-color="#424143"/>
        </linearGradient>
        <clipPath id="">
            <rect width="159.75" height="99.073" fill="white" transform="translate(48.9375 49.6316)"/>
        </clipPath>
    </defs>

</svg>
