<svg width="230" height="230" viewBox="0 0 230 230" fill="none"
    xmlns="http://www.w3.org/2000/svg">

    <g clip-path="url(#)">
        <path d="M198.458 135.882L197.968 136.163C197.898 136.163 197.898 136.163 197.828 136.163C198.038 136.093 198.248 136.023 198.458 135.882Z" fill="#F1F2F2" stroke="#231F20" stroke-width="0.201439" stroke-miterlimit="10" stroke-linecap="round" stroke-linejoin="round"/>
        <path d="M202.522 138.195C202.382 138.335 202.172 138.405 202.032 138.545L201.962 138.615L202.522 138.195Z" fill="#F1F2F2" stroke="#231F20" stroke-width="0.201439" stroke-miterlimit="10" stroke-linecap="round" stroke-linejoin="round"/>
        <path d="M198.458 135.882L197.968 136.163C197.898 136.163 197.898 136.163 197.828 136.163C198.038 136.093 198.248 136.023 198.458 135.882Z" fill="#F1F2F2" stroke="#231F20" stroke-width="0.201439" stroke-miterlimit="10" stroke-linecap="round" stroke-linejoin="round"/>
        <path d="M198.458 135.882L197.968 136.163C197.898 136.163 197.898 136.163 197.828 136.163C198.038 136.093 198.248 136.023 198.458 135.882Z" fill="#F1F2F2" stroke="#231F20" stroke-width="0.201439" stroke-miterlimit="10" stroke-linecap="round" stroke-linejoin="round"/>
        <path d="M202.522 138.195C202.382 138.335 202.172 138.405 202.032 138.545L201.962 138.615L202.522 138.195Z" fill="#F1F2F2" stroke="#231F20" stroke-width="0.201439" stroke-miterlimit="10" stroke-linecap="round" stroke-linejoin="round"/>
        <path d="M198.458 135.882L197.968 136.163C197.898 136.163 197.898 136.163 197.828 136.163C198.038 136.093 198.248 136.023 198.458 135.882Z" fill="#F1F2F2" stroke="#231F20" stroke-width="0.201439" stroke-miterlimit="10" stroke-linecap="round" stroke-linejoin="round"/>
        <path d="M198.458 135.882L197.968 136.163C197.898 136.163 197.898 136.163 197.828 136.163C198.038 136.093 198.248 136.023 198.458 135.882Z" fill="#F1F2F2" stroke="#231F20" stroke-width="0.201439" stroke-miterlimit="10" stroke-linecap="round" stroke-linejoin="round"/>
        <path d="M193.904 132.94C193.904 133.78 193.834 134.551 193.694 135.252C193.624 135.672 193.554 136.022 193.413 136.443C193.273 136.933 193.133 137.354 192.923 137.774C192.783 138.054 192.643 138.265 192.503 138.475C192.292 138.825 192.082 139.175 191.802 139.456C191.382 139.876 190.961 140.296 190.471 140.577L190.331 140.647C188.159 141.838 185.216 141.698 181.923 139.806C181.502 139.596 181.152 139.316 180.732 139.035L138.272 114.442C137.991 114.302 137.781 114.162 137.501 114.022C130.915 110.238 125.59 100.99 125.59 93.4225C125.59 91.881 125.8 90.5498 126.22 89.4287C126.781 87.7471 127.762 86.556 128.953 85.7853C129.023 85.7853 129.023 85.7152 129.093 85.7152C129.654 85.435 130.214 85.2248 130.845 85.0846C130.985 85.0846 131.195 85.0146 131.335 85.0146C131.475 85.0146 131.686 84.9445 131.896 84.9445L133.788 84.8044H134.208L140.304 84.3139H140.724L144.087 84.0337L145.699 83.8935L148.641 83.6833L153.616 83.2629C153.896 83.1929 154.177 83.1929 154.457 83.1929C154.597 83.1929 154.737 83.1929 154.947 83.1929C155.788 83.1929 156.699 83.4031 157.68 83.7534C158.451 84.0337 159.221 84.384 159.992 84.8044C161.113 85.435 162.234 86.2758 163.215 87.1866C164.056 87.9573 164.897 88.8682 165.667 89.7791L165.738 89.8491C165.948 90.1294 166.158 90.3396 166.368 90.6198L176.668 103.582L177.298 104.353L178.84 106.315L179.12 106.665L181.362 109.538L183.534 112.27L186.757 116.334C187.318 116.895 187.808 117.525 188.299 118.156C188.649 118.576 188.999 119.067 189.28 119.557C191.802 123.341 193.554 127.755 193.834 131.889C193.904 132.169 193.904 132.589 193.904 132.94Z" fill="#F1F2F2" stroke="#231F20" stroke-width="0.201439" stroke-miterlimit="10" stroke-linecap="round" stroke-linejoin="round"/>
        <path opacity="0.14" d="M193.904 132.94C193.904 133.78 193.834 134.551 193.694 135.252C193.624 135.672 193.554 136.022 193.413 136.443C193.273 136.933 193.133 137.354 192.923 137.774C192.783 138.054 192.643 138.265 192.503 138.475C192.292 138.825 192.082 139.175 191.802 139.456C191.382 139.876 190.961 140.296 190.471 140.577L190.331 140.647C188.159 141.838 185.216 141.698 181.923 139.806C181.502 139.596 181.152 139.316 180.732 139.035L138.272 114.442C137.991 114.302 137.781 114.162 137.501 114.022C130.915 110.238 125.59 100.99 125.59 93.4225C125.59 91.881 125.8 90.5498 126.22 89.4287C126.781 87.7471 127.762 86.556 128.953 85.7853C129.023 85.7853 129.023 85.7152 129.093 85.7152C129.654 85.435 130.214 85.2248 130.845 85.0846C130.985 85.0846 131.195 85.0146 131.335 85.0146C131.475 85.0146 131.686 84.9445 131.896 84.9445L133.788 84.8044H134.208L140.304 84.3139H140.724L144.087 84.0337L145.699 83.8935L148.641 83.6833L153.616 83.2629C153.896 83.1929 154.177 83.1929 154.457 83.1929C154.597 83.1929 154.737 83.1929 154.947 83.1929C155.788 83.1929 156.699 83.4031 157.68 83.7534C158.451 84.0337 159.221 84.384 159.992 84.8044C161.113 85.435 162.234 86.2758 163.215 87.1866C164.056 87.9573 164.897 88.8682 165.667 89.7791L165.738 89.8491C165.948 90.1294 166.158 90.3396 166.368 90.6198L176.668 103.582L177.298 104.353L178.84 106.315L179.12 106.665L181.362 109.538L183.534 112.27L186.757 116.334C187.318 116.895 187.808 117.525 188.299 118.156C188.649 118.576 188.999 119.067 189.28 119.557C191.802 123.341 193.554 127.755 193.834 131.889C193.904 132.169 193.904 132.589 193.904 132.94Z" fill="black" stroke="#231F20" stroke-width="0.201439" stroke-miterlimit="10"/>
        <path d="M201.962 128.175C201.962 131.959 200.63 134.551 198.528 135.812L198.458 135.882C198.248 136.023 198.038 136.093 197.828 136.163C197.898 136.163 197.898 136.163 197.968 136.163L194.184 138.405L193.273 138.895L192.082 139.596L190.471 140.577C190.961 140.297 191.382 139.876 191.802 139.456C192.082 139.175 192.293 138.825 192.503 138.475C192.643 138.265 192.783 137.984 192.923 137.774C193.133 137.354 193.273 136.933 193.414 136.443C193.484 136.093 193.624 135.672 193.694 135.252C193.834 134.551 193.904 133.78 193.904 132.94C193.904 132.589 193.904 132.169 193.834 131.819C193.554 127.755 191.872 123.271 189.28 119.487C188.929 118.997 188.649 118.576 188.299 118.086C187.808 117.455 187.318 116.824 186.757 116.264L183.534 112.2L181.362 109.468L179.12 106.595L178.84 106.245L177.299 104.283L176.668 103.512L166.368 90.5498C166.158 90.2696 165.948 90.0594 165.738 89.7791L165.668 89.709C164.897 88.7982 164.056 87.8873 163.215 87.1166C162.164 86.2058 161.113 85.365 159.992 84.7344C159.222 84.2439 158.451 83.8936 157.68 83.6834C156.699 83.3331 155.788 83.1929 154.948 83.1229C154.807 83.1229 154.597 83.1229 154.457 83.1229C154.177 83.1229 153.897 83.1229 153.616 83.1929L148.642 83.6133L145.699 83.8235L144.087 83.9637L140.724 84.2439H140.304L134.208 84.7344H133.788L131.896 84.8745C131.686 84.8745 131.546 84.8745 131.335 84.9446C131.195 84.9446 130.985 85.0146 130.845 85.0146C130.214 85.1548 129.654 85.365 129.093 85.6452L130.845 84.5942L137.081 80.8808C137.781 80.5304 138.482 80.2502 139.323 80.1801C139.463 80.1801 139.673 80.11 139.883 80.11L140.444 80.04L142.896 79.8298L144.298 79.6896L153.616 78.9189L156.349 78.7087L157.54 78.7788L161.744 78.4285C162.024 78.3584 162.304 78.3584 162.585 78.3584C164.196 78.2883 166.088 78.8489 168.12 79.9699C170.222 81.161 172.114 82.9127 173.865 84.9446L173.935 85.0146C174.146 85.2949 174.356 85.5051 174.566 85.7854L179.05 91.4607L185.496 99.5883L187.038 101.62L188.929 104.002L191.592 107.436L194.885 111.57C195.796 112.55 196.637 113.672 197.407 114.793C197.407 114.863 197.477 114.863 197.477 114.933C197.828 115.493 198.178 115.984 198.458 116.544C200.14 119.487 201.331 122.78 201.751 125.863C201.892 126.634 201.962 127.404 201.962 128.175Z" fill="#F1F2F2" stroke="#231F20" stroke-width="0.201439" stroke-miterlimit="10" stroke-linecap="round" stroke-linejoin="round"/>
        <path opacity="0.25" d="M162.164 96.9961L152.985 106.315L146.75 98.5375L162.164 96.9961Z" fill="black" stroke="#231F20" stroke-width="0.201439" stroke-miterlimit="10"/>
        <path d="M163.215 94.6137C163.215 95.8049 162.795 96.6456 162.164 97.066C162.094 97.066 162.094 97.1361 162.024 97.1361C161.954 97.2062 160.973 97.6966 159.501 98.6075C155.087 101.13 146.119 106.245 141.354 108.697C140.514 109.117 139.813 109.468 139.323 109.748C139.953 109.328 140.374 108.417 140.374 107.296C140.374 104.773 138.622 101.69 136.45 100.429C135.469 99.8687 134.558 99.7285 133.857 100.079C134.628 99.6585 135.539 99.168 136.52 98.6075C140.584 96.4354 145.909 93.5628 150.113 91.3206C151.094 90.7601 152.004 90.2697 152.845 89.8493C154.527 88.9384 155.788 88.2378 156.489 87.8874C156.769 87.7473 156.979 87.6072 156.979 87.6072C157.61 87.397 158.451 87.5371 159.361 88.0276C161.463 89.1486 163.215 92.1614 163.215 94.6137Z" fill="url(#paint0_linear_1_19911)" stroke="#231F20" stroke-width="0.201439" stroke-miterlimit="10" stroke-linecap="round" stroke-linejoin="round"/>
        <path d="M162.794 124.812C162.794 124.812 156.699 118.646 155.648 130.207C154.597 141.768 154.597 141.768 154.597 141.768L166.158 159.144L179.68 160.546L180.661 153.539L162.794 124.812Z" fill="#49443A" stroke="#231F20" stroke-width="0.225612" stroke-miterlimit="10" stroke-linecap="round" stroke-linejoin="round"/>
        <path d="M186.967 145.902C186.967 146.743 186.897 147.514 186.827 148.284C186.687 148.985 186.547 149.616 186.337 150.246C185.846 151.647 185.005 152.698 184.024 153.399C183.043 154.1 181.852 154.52 180.521 154.52C180.451 154.52 180.311 154.52 180.241 154.52C178.769 154.45 177.088 154.03 175.266 153.049C175.196 153.049 175.196 152.979 175.126 152.979C168.47 149.265 163.005 140.017 162.935 132.449C162.935 132.099 162.935 131.679 162.935 131.328C163.005 129.647 163.425 128.245 163.986 127.124C163.986 127.054 164.056 126.984 164.126 126.914C164.826 125.653 165.807 124.742 167.068 124.252C168.119 123.831 169.311 123.691 170.642 123.901C171.623 124.042 172.744 124.392 173.865 124.952C174.145 125.092 174.495 125.233 174.776 125.443C174.916 125.513 175.056 125.583 175.266 125.723C175.336 125.723 175.336 125.793 175.406 125.793C180.801 130.978 185.075 138.265 186.967 145.412C186.967 145.482 186.967 145.482 186.967 145.552C186.967 145.622 186.967 145.762 186.967 145.902Z" fill="#6E6657" stroke="#231F20" stroke-width="0.225612" stroke-miterlimit="10" stroke-linecap="round" stroke-linejoin="round"/>
        <path d="M160.973 136.653C161.043 142.329 165.107 149.195 170.081 151.998C172.744 153.469 175.056 153.539 176.667 152.348C177.438 151.787 177.999 151.017 178.419 149.966C178.559 149.545 178.699 149.055 178.769 148.494C178.839 147.934 178.909 147.373 178.909 146.743C178.839 141.067 174.776 134.201 169.801 131.398C169.591 131.258 169.381 131.188 169.1 131.048C168.259 130.628 167.419 130.417 166.718 130.277C165.737 130.137 164.826 130.207 164.056 130.558C162.094 131.398 160.903 133.5 160.973 136.653Z" fill="#928874" stroke="#231F20" stroke-width="0.225612" stroke-miterlimit="10" stroke-linecap="round" stroke-linejoin="round"/>
        <path d="M164.056 130.628C164.826 130.277 165.737 130.207 166.718 130.347C167.489 130.487 168.26 130.698 169.1 131.118C169.311 131.258 169.521 131.328 169.801 131.468C174.776 134.271 178.84 141.137 178.91 146.813C178.91 147.443 178.84 148.004 178.769 148.564C178.699 149.055 178.559 149.545 178.419 150.036C178.069 151.087 177.438 151.858 176.668 152.418L181.502 149.545L181.572 149.475C183.184 148.564 184.165 146.533 184.165 143.66C184.094 137.985 180.031 131.118 175.056 128.315C172.884 127.124 170.922 126.844 169.381 127.475L168.119 128.175L164.056 130.628Z" fill="url(#paint1_linear_1_19911)" stroke="#231F20" stroke-width="0.225612" stroke-miterlimit="10" stroke-linecap="round" stroke-linejoin="round"/>
        <path d="M186.967 145.482C186.967 145.411 186.967 145.411 186.897 145.341C184.935 138.125 180.661 130.908 175.336 125.723C175.266 125.653 175.196 125.653 175.196 125.583C173.234 123.691 171.132 122.15 168.96 120.888C168.47 120.608 167.98 120.398 167.559 120.188C165.807 119.347 164.126 118.786 162.514 118.576C160.482 118.296 158.591 118.506 156.979 119.137H156.909C152.845 120.818 150.323 125.303 150.393 131.889C150.533 143.8 159.081 158.233 169.521 164.119C175.056 167.202 180.031 167.272 183.464 164.82C185.076 163.699 186.267 162.017 187.107 159.845C187.458 158.934 187.738 157.883 187.878 156.762C188.088 155.641 188.158 154.38 188.158 153.049C188.018 150.596 187.668 148.074 186.967 145.482ZM178.279 156.762C176.107 158.304 172.954 158.304 169.381 156.272C162.725 152.558 157.259 143.309 157.189 135.742C157.119 131.538 158.731 128.666 161.323 127.615C162.094 127.264 163.005 127.124 163.986 127.124C164.056 127.124 164.126 127.124 164.196 127.124C164.406 127.124 164.686 127.124 164.897 127.194C165.878 127.334 166.999 127.685 168.12 128.175C168.4 128.315 168.75 128.456 169.031 128.666C175.687 132.379 181.152 141.628 181.222 149.195C181.222 149.335 181.222 149.475 181.222 149.615C181.222 150.316 181.152 150.947 181.082 151.577C180.942 152.278 180.802 152.908 180.591 153.539C180.451 153.889 180.311 154.17 180.171 154.52C179.681 155.431 179.05 156.202 178.279 156.762Z" fill="#231F20" stroke="#231F20" stroke-width="0.225612" stroke-miterlimit="10" stroke-linecap="round" stroke-linejoin="round"/>
        <path d="M196.566 157.113C197.057 156.902 197.547 156.622 198.038 156.272L196.566 157.113ZM186.967 145.341C185.006 138.125 180.732 130.908 175.407 125.723C175.336 125.653 175.266 125.653 175.266 125.583V125.653C175.547 126.844 175.967 127.965 176.387 129.156C178.139 133.921 180.872 138.545 184.165 142.469C185.076 143.52 186.057 144.571 187.037 145.552C187.037 145.552 187.037 145.552 187.107 145.552C186.967 145.412 186.967 145.412 186.967 145.341ZM169.311 111.85C169.241 111.85 169.241 111.92 169.241 111.92C169.941 111.5 170.572 111.149 170.922 110.939C170.992 110.939 170.992 110.869 171.062 110.869C171.133 110.799 171.203 110.799 171.203 110.799C171.273 110.799 171.273 110.729 171.343 110.729L171.413 110.659C170.712 110.939 170.011 111.36 169.311 111.85Z" fill="#231F20" stroke="#231F20" stroke-width="0.225612" stroke-miterlimit="10" stroke-linecap="round" stroke-linejoin="round"/>
        <path d="M199.789 154.87C199.649 155.011 199.509 155.081 199.439 155.151C199.509 155.011 199.649 154.941 199.789 154.87Z" fill="url(#paint2_linear_1_19911)" stroke="#231F20" stroke-width="0.225612" stroke-miterlimit="10" stroke-linecap="round" stroke-linejoin="round"/>
        <path d="M202.662 144.571C202.662 145.902 202.592 147.163 202.382 148.284C202.241 149.405 201.961 150.386 201.611 151.367C200.84 153.539 199.579 155.221 197.967 156.342L196.496 157.183L183.324 164.82C184.935 163.699 186.126 162.017 186.967 159.845C187.317 158.934 187.598 157.883 187.738 156.762C187.948 155.641 188.018 154.38 188.018 153.049C188.018 150.596 187.598 148.074 186.897 145.482C186.897 145.412 186.897 145.412 186.827 145.341C184.865 138.125 180.591 130.908 175.266 125.723C175.196 125.653 175.126 125.653 175.126 125.583C173.164 123.691 171.062 122.15 168.89 120.889C168.4 120.608 167.909 120.398 167.489 120.188C165.737 119.347 164.056 118.787 162.444 118.576C160.412 118.296 158.52 118.506 156.909 119.137H156.839L169.311 111.92C169.241 111.92 169.241 111.99 169.241 111.99C169.941 111.57 170.572 111.219 170.922 111.009C170.992 111.009 170.992 110.939 171.062 110.939C171.132 110.869 171.202 110.869 171.202 110.869C171.272 110.869 171.272 110.799 171.342 110.799L171.413 110.729C173.094 110.028 174.986 109.818 177.018 110.098C178.629 110.309 180.311 110.869 182.063 111.71C182.553 111.92 182.973 112.2 183.464 112.411C185.706 113.672 187.878 115.283 189.84 117.245C195.235 122.43 199.509 129.717 201.401 136.864C202.241 139.456 202.662 142.048 202.662 144.571Z" fill="url(#paint3_linear_1_19911)" stroke="#231F20" stroke-width="0.225612" stroke-miterlimit="10" stroke-linecap="round" stroke-linejoin="round"/>
        <path d="M170.922 110.939C170.502 111.149 169.941 111.5 169.241 111.92L169.311 111.85L170.922 110.939Z" fill="#C49A6C" stroke="#231F20" stroke-width="0.225612" stroke-miterlimit="10" stroke-linecap="round" stroke-linejoin="round"/>
        <path d="M102.819 91.3207C102.819 91.3207 96.7228 85.1549 95.6718 96.7158C94.5508 108.207 94.5508 108.207 94.5508 108.207L106.112 125.583L119.634 126.984L120.615 119.978L102.819 91.3207Z" fill="#49443A" stroke="#231F20" stroke-width="0.225612" stroke-miterlimit="10" stroke-linecap="round" stroke-linejoin="round"/>
        <path d="M126.991 112.411C126.991 113.251 126.921 114.022 126.851 114.793C126.711 115.493 126.571 116.124 126.361 116.755C125.87 118.156 125.029 119.207 124.049 119.908C123.068 120.608 121.876 121.029 120.545 121.029C120.475 121.029 120.335 121.029 120.265 121.029C118.794 121.029 117.112 120.538 115.29 119.557C115.22 119.557 115.22 119.487 115.15 119.487C108.424 115.704 102.959 106.455 102.889 98.8879C102.889 98.5376 102.889 98.1172 102.889 97.7668C102.959 96.0853 103.379 94.6839 103.94 93.5629C103.94 93.4928 104.01 93.4228 104.08 93.3527C104.78 92.0915 105.761 91.1806 107.023 90.6902C108.074 90.2698 109.265 90.1297 110.596 90.3399C111.577 90.48 112.698 90.8303 113.819 91.3908C114.099 91.531 114.45 91.6711 114.73 91.8813C114.87 91.9514 115.01 92.0214 115.22 92.1616C115.29 92.1616 115.29 92.2316 115.36 92.2316C120.755 97.4165 125.029 104.703 126.921 111.85C126.921 111.92 126.921 111.92 126.921 111.99C126.991 112.06 126.991 112.2 126.991 112.411Z" fill="#6E6657" stroke="#231F20" stroke-width="0.225612" stroke-miterlimit="10" stroke-linecap="round" stroke-linejoin="round"/>
        <path d="M100.927 103.162C100.997 108.837 105.061 115.704 110.035 118.506C112.698 119.978 115.01 120.048 116.621 118.857C117.392 118.296 117.953 117.525 118.373 116.474C118.513 116.054 118.653 115.564 118.723 115.003C118.794 114.442 118.864 113.882 118.864 113.251C118.794 107.576 114.73 100.71 109.755 97.907C109.545 97.7668 109.335 97.6968 109.054 97.5567C108.214 97.1363 107.373 96.9261 106.672 96.7859C105.691 96.6458 104.78 96.7159 104.01 97.0662C102.118 97.907 100.927 100.009 100.927 103.162Z" fill="#928874" stroke="#231F20" stroke-width="0.225612" stroke-miterlimit="10" stroke-linecap="round" stroke-linejoin="round"/>
        <path d="M104.08 97.0662C104.851 96.7159 105.762 96.6458 106.743 96.7859C107.513 96.9261 108.284 97.1363 109.125 97.5567C109.335 97.6968 109.545 97.7669 109.825 97.907C114.8 100.71 118.864 107.576 118.934 113.251C118.934 113.882 118.864 114.443 118.794 115.003C118.724 115.493 118.584 115.984 118.444 116.474C118.093 117.525 117.463 118.296 116.692 118.857L121.526 115.984L121.597 115.914C123.208 115.003 124.189 112.971 124.189 110.098C124.119 104.423 120.055 97.5567 115.08 94.754C112.908 93.5629 110.947 93.2826 109.405 93.9132L108.144 94.6139L104.08 97.0662Z" fill="url(#paint4_linear_1_19911)" stroke="#231F20" stroke-width="0.225612" stroke-miterlimit="10" stroke-linecap="round" stroke-linejoin="round"/>
        <path d="M126.991 111.99C126.991 111.92 126.991 111.92 126.921 111.85C124.959 104.633 120.685 97.4165 115.36 92.2316C115.29 92.1616 115.22 92.1616 115.22 92.0915C113.258 90.1997 111.156 88.6583 108.984 87.3971C108.494 87.1168 108.003 86.9066 107.583 86.6964C105.831 85.8557 104.15 85.2951 102.538 85.0849C100.506 84.8047 98.6146 85.0149 97.0031 85.6455H96.9331C92.8693 87.327 90.3469 91.8112 90.417 98.3974C90.5571 110.309 99.1051 124.742 109.545 130.628C115.08 133.711 120.055 133.781 123.488 131.328C125.1 130.207 126.291 128.526 127.131 126.354C127.482 125.443 127.762 124.392 127.902 123.271C128.112 122.15 128.182 120.889 128.182 119.557C128.042 117.105 127.692 114.513 126.991 111.99ZM118.303 123.201C116.131 124.742 112.978 124.742 109.405 122.71C102.749 118.997 97.2834 109.818 97.2133 102.181C97.1433 97.977 98.7548 95.1043 101.347 94.0534C102.118 93.703 103.029 93.5629 104.01 93.5629C104.08 93.5629 104.15 93.5629 104.22 93.5629C104.43 93.5629 104.71 93.5629 104.921 93.633C105.901 93.7731 107.023 94.1234 108.144 94.6139C108.424 94.754 108.774 94.8941 109.054 95.1043C115.711 98.8178 121.176 108.067 121.246 115.634C121.246 115.774 121.246 115.914 121.246 116.054C121.246 116.755 121.176 117.385 121.106 118.016C120.966 118.716 120.825 119.347 120.615 119.978C120.475 120.328 120.335 120.608 120.195 120.959C119.704 121.94 119.074 122.64 118.303 123.201Z" fill="#231F20" stroke="#231F20" stroke-width="0.225612" stroke-miterlimit="10" stroke-linecap="round" stroke-linejoin="round"/>
        <path d="M136.59 123.621C137.081 123.411 137.571 123.13 138.062 122.78L136.59 123.621ZM126.921 111.78C124.959 104.563 120.685 97.3463 115.36 92.1614C115.29 92.0914 115.22 92.0914 115.22 92.0213V92.0914C115.5 93.2825 115.921 94.4035 116.341 95.5947C118.093 100.359 120.825 104.983 124.119 108.907C125.029 109.958 126.01 111.009 126.991 111.99C126.991 111.99 126.991 111.99 127.061 111.99C126.991 111.92 126.991 111.85 126.921 111.78ZM109.335 78.3585C109.265 78.3585 109.265 78.4285 109.265 78.4285C109.965 78.0081 110.596 77.6578 110.946 77.4476C111.016 77.4476 111.016 77.3776 111.086 77.3776C111.156 77.3075 111.226 77.3075 111.226 77.3075C111.297 77.3075 111.297 77.2374 111.367 77.2374L111.437 77.1674C110.736 77.4476 109.965 77.868 109.335 78.3585Z" fill="#231F20" stroke="#231F20" stroke-width="0.225612" stroke-miterlimit="10" stroke-linecap="round" stroke-linejoin="round"/>
        <path d="M139.743 121.309C139.603 121.449 139.463 121.519 139.393 121.589C139.533 121.519 139.673 121.449 139.743 121.309Z" fill="url(#paint5_linear_1_19911)" stroke="#231F20" stroke-width="0.225612" stroke-miterlimit="10" stroke-linecap="round" stroke-linejoin="round"/>
        <path d="M142.687 111.009C142.687 112.34 142.616 113.602 142.406 114.723C142.266 115.844 141.986 116.825 141.636 117.806C140.865 119.978 139.604 121.659 137.992 122.78L136.521 123.621L123.418 131.258C125.03 130.137 126.221 128.456 127.062 126.284C127.412 125.373 127.692 124.322 127.833 123.201C128.043 122.08 128.113 120.818 128.113 119.487C128.113 117.035 127.692 114.513 126.992 111.92C126.992 111.85 126.992 111.85 126.922 111.78C124.96 104.563 120.686 97.3464 115.361 92.1615C115.291 92.0915 115.221 92.0915 115.221 92.0214C113.259 90.1296 111.157 88.5882 108.985 87.327C108.494 87.0467 108.004 86.8365 107.584 86.6263C105.832 85.7855 104.15 85.225 102.539 85.0148C100.507 84.7346 98.6152 84.9448 97.0037 85.5753H96.9336L109.335 78.3586C109.265 78.3586 109.265 78.4286 109.265 78.4286C109.966 78.0082 110.596 77.6579 110.947 77.4477C111.017 77.4477 111.017 77.3777 111.087 77.3777C111.157 77.3076 111.227 77.3076 111.227 77.3076C111.297 77.3076 111.297 77.2375 111.367 77.2375L111.437 77.1675C113.119 76.4668 115.011 76.2566 117.042 76.5369C118.654 76.7471 120.336 77.3076 122.087 78.1484C122.578 78.3586 122.998 78.6388 123.489 78.849C125.731 80.1102 127.903 81.7217 129.865 83.6836C135.26 88.8684 139.534 96.1553 141.425 103.302C142.266 105.894 142.687 108.557 142.687 111.009Z" fill="url(#paint6_linear_1_19911)" stroke="#231F20" stroke-width="0.225612" stroke-miterlimit="10" stroke-linecap="round" stroke-linejoin="round"/>
        <path d="M110.946 77.4478C110.526 77.658 109.965 78.0083 109.265 78.4287L109.335 78.3586L110.946 77.4478Z" fill="#C49A6C" stroke="#231F20" stroke-width="0.225612" stroke-miterlimit="10" stroke-linecap="round" stroke-linejoin="round"/>
        <path d="M172.464 150.806L171.973 151.087C171.903 151.087 171.903 151.087 171.833 151.087C172.113 151.017 172.253 150.947 172.464 150.806Z" fill="#F1F2F2" stroke="#231F20" stroke-width="0.201439" stroke-miterlimit="10" stroke-linecap="round" stroke-linejoin="round"/>
        <path d="M172.464 150.806L171.973 151.087C171.903 151.087 171.903 151.087 171.833 151.087C172.113 151.017 172.253 150.947 172.464 150.806Z" fill="#F1F2F2" stroke="#231F20" stroke-width="0.201439" stroke-miterlimit="10" stroke-linecap="round" stroke-linejoin="round"/>
        <path d="M172.464 150.806L171.973 151.087C171.903 151.087 171.903 151.087 171.833 151.087C172.113 151.017 172.253 150.947 172.464 150.806Z" fill="#F1F2F2" stroke="#231F20" stroke-width="0.201439" stroke-miterlimit="10" stroke-linecap="round" stroke-linejoin="round"/>
        <path d="M172.464 150.806L171.973 151.087C171.903 151.087 171.903 151.087 171.833 151.087C172.113 151.017 172.253 150.947 172.464 150.806Z" fill="#F1F2F2" stroke="#231F20" stroke-width="0.201439" stroke-miterlimit="10" stroke-linecap="round" stroke-linejoin="round"/>
        <path d="M172.464 150.806L171.973 151.087C171.903 151.087 171.903 151.087 171.833 151.087C172.113 151.017 172.253 150.947 172.464 150.806Z" fill="#F1F2F2" stroke="#231F20" stroke-width="0.201439" stroke-miterlimit="10" stroke-linecap="round" stroke-linejoin="round"/>
        <path d="M167.909 147.864C167.909 148.705 167.839 149.475 167.699 150.176C167.629 150.596 167.559 150.947 167.419 151.367C167.279 151.858 167.139 152.278 166.928 152.698C166.788 152.979 166.648 153.189 166.508 153.399C166.298 153.749 166.088 154.1 165.807 154.38C165.387 154.8 164.967 155.221 164.476 155.501L164.336 155.571C162.164 156.762 159.221 156.622 155.928 154.73C155.508 154.52 155.157 154.24 154.737 153.959L112.277 129.366C111.997 129.226 111.787 129.086 111.506 128.946C104.92 125.162 99.5952 115.914 99.5952 108.347C99.5952 106.805 99.8054 105.474 100.226 104.353C100.786 102.671 101.767 101.48 102.958 100.709C103.028 100.709 103.028 100.639 103.099 100.639C103.659 100.359 104.22 100.149 104.85 100.009C104.99 100.009 105.2 99.9388 105.341 99.9388C105.481 99.9388 105.691 99.8687 105.901 99.8687L107.793 99.7286H108.213L114.309 99.2381H114.729L118.093 98.9579L119.704 98.8177L122.647 98.6075L127.622 98.1871C127.902 98.1171 128.182 98.1171 128.462 98.1171C128.602 98.1171 128.743 98.1171 128.953 98.1171C129.794 98.1171 130.704 98.3273 131.685 98.6776C132.456 98.9579 133.227 99.3082 133.998 99.7286C135.119 100.359 136.24 101.2 137.221 102.111C138.061 102.882 138.902 103.792 139.673 104.703L139.743 104.773C139.953 105.054 140.163 105.264 140.373 105.544L150.673 118.506L151.304 119.277L152.845 121.239L153.125 121.589L155.368 124.462L157.54 127.194L160.763 131.258C161.323 131.819 161.814 132.449 162.304 133.08C162.654 133.5 163.005 133.991 163.285 134.481C165.807 138.265 167.559 142.679 167.839 146.813C167.909 147.093 167.909 147.443 167.909 147.864Z" fill="#F1F2F2" stroke="#231F20" stroke-width="0.201439" stroke-miterlimit="10" stroke-linecap="round" stroke-linejoin="round"/>
        <path opacity="0.14" d="M167.909 147.864C167.909 148.705 167.839 149.475 167.699 150.176C167.629 150.596 167.559 150.947 167.419 151.367C167.279 151.858 167.139 152.278 166.928 152.698C166.788 152.979 166.648 153.189 166.508 153.399C166.298 153.749 166.088 154.1 165.807 154.38C165.387 154.8 164.967 155.221 164.476 155.501L164.336 155.571C162.164 156.762 159.221 156.622 155.928 154.73C155.508 154.52 155.157 154.24 154.737 153.959L112.277 129.366C111.997 129.226 111.787 129.086 111.506 128.946C104.92 125.162 99.5952 115.914 99.5952 108.347C99.5952 106.805 99.8054 105.474 100.226 104.353C100.786 102.671 101.767 101.48 102.958 100.709C103.028 100.709 103.028 100.639 103.099 100.639C103.659 100.359 104.22 100.149 104.85 100.009C104.99 100.009 105.2 99.9388 105.341 99.9388C105.481 99.9388 105.691 99.8687 105.901 99.8687L107.793 99.7286H108.213L114.309 99.2381H114.729L118.093 98.9579L119.704 98.8177L122.647 98.6075L127.622 98.1871C127.902 98.1171 128.182 98.1171 128.462 98.1171C128.602 98.1171 128.743 98.1171 128.953 98.1171C129.794 98.1171 130.704 98.3273 131.685 98.6776C132.456 98.9579 133.227 99.3082 133.998 99.7286C135.119 100.359 136.24 101.2 137.221 102.111C138.061 102.882 138.902 103.792 139.673 104.703L139.743 104.773C139.953 105.054 140.163 105.264 140.373 105.544L150.673 118.506L151.304 119.277L152.845 121.239L153.125 121.589L155.368 124.462L157.54 127.194L160.763 131.258C161.323 131.819 161.814 132.449 162.304 133.08C162.654 133.5 163.005 133.991 163.285 134.481C165.807 138.265 167.559 142.679 167.839 146.813C167.909 147.093 167.909 147.443 167.909 147.864Z" fill="black" stroke="#231F20" stroke-width="0.201439" stroke-miterlimit="10"/>
        <path d="M175.967 143.099C175.967 146.883 174.636 149.475 172.534 150.736L172.463 150.806C172.253 150.947 172.043 151.017 171.833 151.087C171.903 151.087 171.903 151.087 171.973 151.087L168.189 153.329L167.279 153.819L166.088 154.52L164.476 155.501C164.966 155.221 165.387 154.8 165.807 154.38C166.088 154.1 166.298 153.749 166.508 153.399C166.648 153.189 166.788 152.908 166.928 152.698C167.138 152.278 167.279 151.857 167.419 151.367C167.489 151.017 167.629 150.596 167.699 150.176C167.839 149.475 167.909 148.704 167.909 147.864C167.909 147.513 167.909 147.093 167.839 146.743C167.559 142.679 165.877 138.195 163.285 134.411C162.935 133.921 162.654 133.5 162.304 133.01C161.813 132.379 161.323 131.749 160.763 131.188L157.539 127.124L155.438 124.322L153.195 121.449L152.915 121.099L151.374 119.137L150.743 118.366L140.443 105.404C140.233 105.124 140.023 104.913 139.813 104.633L139.743 104.563C138.972 103.652 138.131 102.741 137.29 101.971C136.239 101.06 135.189 100.219 134.067 99.5884C133.297 99.0979 132.526 98.7476 131.755 98.5374C130.774 98.1871 129.864 98.0469 129.023 97.9769C128.883 97.9769 128.672 97.9769 128.532 97.9769C128.252 97.9769 127.972 97.9769 127.691 98.0469L122.717 98.4673L119.774 98.6775L118.163 98.8177L114.799 99.168H114.379L108.283 99.6584H107.863L105.971 99.7986C105.761 99.7986 105.621 99.7986 105.411 99.8686C105.27 99.8686 105.06 99.9387 104.92 99.9387C104.29 100.079 103.729 100.289 103.168 100.569L104.92 99.5183L111.156 95.8048C111.857 95.4545 112.557 95.1742 113.398 95.1042C113.538 95.1042 113.748 95.0341 113.959 95.0341L114.519 94.964L116.971 94.7538L118.373 94.6137L127.691 93.843L130.424 93.6328L131.545 93.5627L135.749 93.2124C136.029 93.1423 136.31 93.1423 136.59 93.1423C138.201 93.0723 140.093 93.6328 142.125 94.7538C144.227 95.945 146.119 97.6966 147.87 99.7285L147.94 99.7986C148.151 100.079 148.361 100.289 148.571 100.569L153.055 106.245L159.501 114.372L161.043 116.404L162.935 118.786L165.597 122.22L168.89 126.353C169.801 127.334 170.642 128.455 171.413 129.577C171.413 129.647 171.483 129.647 171.483 129.717C171.833 130.277 172.183 130.768 172.463 131.328C174.145 134.271 175.336 137.564 175.757 140.647C175.897 141.558 175.967 142.328 175.967 143.099Z" fill="#F1F2F2" stroke="#231F20" stroke-width="0.201439" stroke-miterlimit="10" stroke-linecap="round" stroke-linejoin="round"/>
    </g>
    <defs>
        <linearGradient id="paint0_linear_1_19911" x1="146.15" y1="92.3076" x2="152.234" y2="102.936" gradientUnits="userSpaceOnUse">
            <stop stop-color="#59595C"/>
            <stop offset="0.3636" stop-color="#221F1F"/>
            <stop offset="0.6738" stop-color="#808184"/>
            <stop offset="1" stop-color="#424143"/>
        </linearGradient>
        <linearGradient id="paint1_linear_1_19911" x1="170.865" y1="129.289" x2="180.435" y2="146.807" gradientUnits="userSpaceOnUse">
            <stop stop-color="#C2B59B"/>
            <stop offset="1" stop-color="#49443A"/>
        </linearGradient>
        <linearGradient id="paint2_linear_1_19911" x1="199.67" y1="154.857" x2="199.526" y2="155.127" gradientUnits="userSpaceOnUse">
            <stop stop-color="#58595B"/>
            <stop offset="1"/>
        </linearGradient>
        <linearGradient id="paint3_linear_1_19911" x1="181.403" y1="161.542" x2="178.662" y2="111.173" gradientUnits="userSpaceOnUse">
            <stop/>
            <stop offset="1" stop-color="#58595B"/>
        </linearGradient>
        <linearGradient id="paint4_linear_1_19911" x1="110.879" y1="95.7664" x2="120.448" y2="113.284" gradientUnits="userSpaceOnUse">
            <stop stop-color="#C2B59B"/>
            <stop offset="1" stop-color="#49443A"/>
        </linearGradient>
        <linearGradient id="paint5_linear_1_19911" x1="139.683" y1="121.334" x2="139.539" y2="121.604" gradientUnits="userSpaceOnUse">
            <stop stop-color="#58595B"/>
            <stop offset="1"/>
        </linearGradient>
        <linearGradient id="paint6_linear_1_19911" x1="121.417" y1="128.019" x2="118.676" y2="77.6501" gradientUnits="userSpaceOnUse">
            <stop/>
            <stop offset="1" stop-color="#58595B"/>
        </linearGradient>
        <clipPath id="">
            <rect width="112.526" height="90.3848" fill="white" transform="translate(90.2764 76.2566)"/>
        </clipPath>
    </defs>


    <g clip-path="url(#)">
        <path d="M101.066 125.863C100.646 125.723 100.226 125.513 99.8051 125.233C99.3847 124.952 98.9643 124.672 98.5439 124.392L101.066 125.863Z" fill="#F1F2F2" stroke="#231F20" stroke-width="0.201439" stroke-miterlimit="10" stroke-linecap="round" stroke-linejoin="round"/>
        <path d="M89.0146 118.927L89.435 119.137L89.0146 118.927Z" fill="#F1F2F2" stroke="#231F20" stroke-width="0.201439" stroke-miterlimit="10" stroke-linecap="round" stroke-linejoin="round"/>
        <path d="M98.4736 124.392L101.066 125.863C100.646 125.723 100.225 125.513 99.8049 125.233C99.3144 124.952 98.894 124.672 98.4736 124.392Z" fill="#F1F2F2" stroke="#231F20" stroke-width="0.201439" stroke-miterlimit="10" stroke-linecap="round" stroke-linejoin="round"/>
        <path d="M111.997 124.392C112.067 124.392 112.067 124.392 112.137 124.392C112.137 124.322 112.067 124.392 111.997 124.392Z" fill="#F1F2F2" stroke="#231F20" stroke-width="0.201439" stroke-miterlimit="10" stroke-linecap="round" stroke-linejoin="round"/>
        <path d="M150.603 156.131L148.711 157.182L150.603 156.131Z" fill="#F7F7F7" stroke="#231F20" stroke-width="0.201439" stroke-miterlimit="10" stroke-linecap="round" stroke-linejoin="round"/>
        <path d="M89.0146 118.927L89.435 119.137L89.0146 118.927Z" fill="#F1F2F2" stroke="#231F20" stroke-width="0.201439" stroke-miterlimit="10" stroke-linecap="round" stroke-linejoin="round"/>
        <path d="M98.4736 124.392L101.066 125.863C100.646 125.723 100.225 125.513 99.8049 125.233C99.3144 124.952 98.894 124.672 98.4736 124.392Z" fill="#F1F2F2" stroke="#231F20" stroke-width="0.201439" stroke-miterlimit="10" stroke-linecap="round" stroke-linejoin="round"/>
        <path d="M111.997 124.392C112.067 124.392 112.067 124.392 112.137 124.392C112.137 124.322 112.067 124.392 111.997 124.392Z" fill="#F1F2F2" stroke="#231F20" stroke-width="0.201439" stroke-miterlimit="10" stroke-linecap="round" stroke-linejoin="round"/>
        <path d="M98.4736 124.392L101.066 125.863C100.646 125.723 100.225 125.513 99.8049 125.233C99.3144 124.952 98.894 124.672 98.4736 124.392Z" fill="#F1F2F2" stroke="#231F20" stroke-width="0.201439" stroke-miterlimit="10" stroke-linecap="round" stroke-linejoin="round"/>
        <path d="M150.603 156.131L148.711 157.182L150.603 156.131Z" fill="#F7F7F7" stroke="#231F20" stroke-width="0.201439" stroke-miterlimit="10" stroke-linecap="round" stroke-linejoin="round"/>
        <path d="M150.603 156.131L148.711 157.182L150.603 156.131Z" fill="#F7F7F7" stroke="#231F20" stroke-width="0.201439" stroke-miterlimit="10" stroke-linecap="round" stroke-linejoin="round"/>
        <path d="M150.603 156.131L148.711 157.182L150.603 156.131Z" fill="#F7F7F7" stroke="#231F20" stroke-width="0.201439" stroke-miterlimit="10" stroke-linecap="round" stroke-linejoin="round"/>
        <path d="M98.4736 124.392L101.066 125.863C100.646 125.723 100.225 125.513 99.8049 125.233C99.3144 124.952 98.894 124.672 98.4736 124.392Z" fill="#F1F2F2" stroke="#231F20" stroke-width="0.201439" stroke-miterlimit="10" stroke-linecap="round" stroke-linejoin="round"/>
        <path d="M148.641 104.143L143.456 101.13L132.105 94.5437L128.252 92.3016L125.169 90.5499L113.958 84.0338L108.073 87.3269L107.512 87.6072L103.308 89.9193L100.786 91.3207L99.1745 92.2315L84.811 100.149L84.3205 100.429L82.709 101.34L80.1866 102.741L70.3774 108.207L83.1995 115.633L84.3205 116.264L86.2824 117.385L88.5945 118.716L89.085 118.997L89.5054 119.207L98.5439 124.462L101.136 125.933L107.722 129.717L119.073 123.411L124.188 120.608L124.608 120.398L130.844 116.965L132.736 115.914L135.188 114.582L137.921 113.041L138.481 112.761L139.883 111.99L151.303 105.684L148.641 104.143Z" fill="#F7F7F7" stroke="#231F20" stroke-width="0.201439" stroke-miterlimit="10" stroke-linecap="round" stroke-linejoin="round"/>
        <path d="M169.45 131.328L167.418 132.449L159.641 136.793L157.609 137.914L156.138 138.685L155.928 138.825L153.125 140.367L151.514 141.278L151.023 141.488L149.482 142.399L148.08 143.169L141.844 146.603L141.774 146.673L139.742 147.794L139.532 147.864L138.131 148.705L137.15 149.195L133.437 151.297L131.615 152.278L128.882 153.819L125.94 155.431L121.946 149.826L118.232 144.641L113.188 137.494L111.786 135.532L109.754 132.66L107.652 129.717L119.003 123.411L124.118 120.538L124.468 120.328L130.704 116.895L132.596 115.844L135.048 114.512L137.781 113.041L138.341 112.691L139.742 111.92L151.163 105.614L158.52 116.054L159.921 117.946L160.412 118.646L169.45 131.328Z" fill="#F7F7F7" stroke="#231F20" stroke-width="0.201439" stroke-miterlimit="10" stroke-linecap="round" stroke-linejoin="round"/>
        <path d="M169.45 131.328V145.762L164.476 148.494L162.163 149.756L160.061 150.947L154.807 153.819L153.055 154.8L152.915 154.87L150.603 156.132L148.711 157.183L145.698 158.864L144.437 159.565L141.564 161.176L125.939 169.794V155.431L128.882 153.819L131.615 152.278L133.436 151.297L137.15 149.195L138.131 148.705L139.532 147.864L139.742 147.794L141.774 146.673L141.844 146.603L148.08 143.169L149.482 142.399L151.023 141.488L151.513 141.278L153.125 140.367L155.928 138.825L156.138 138.685L157.609 137.914L159.641 136.793L167.418 132.449L169.45 131.328Z" fill="#F7F7F7" stroke="#231F20" stroke-width="0.201439" stroke-miterlimit="10" stroke-linecap="round" stroke-linejoin="round"/>
        <path d="M169.451 145.762L164.896 152.838L164.406 153.609C163.985 154.38 163.425 155.01 162.794 155.501L161.883 155.991L161.043 156.482L158.52 157.883L152.074 161.456L149.832 162.718L146.749 164.399L121.175 178.552L125.94 169.864L141.564 161.176L144.437 159.565L145.698 158.864L148.711 157.182L150.603 156.131L152.915 154.87L153.055 154.8L154.807 153.819L160.062 150.877L162.164 149.755L164.476 148.424L169.451 145.762Z" fill="#F7F7F7" stroke="#231F20" stroke-width="0.201439" stroke-miterlimit="10" stroke-linecap="round" stroke-linejoin="round"/>
        <path d="M113.818 84.0338L107.933 87.3269L107.372 87.6072L103.168 89.9193L100.646 91.3207L99.0345 92.2315L84.8111 100.149L84.3207 100.429L82.7092 101.34L80.1868 102.741L70.3776 108.207L49.2878 110.729C49.1477 110.729 49.0075 110.729 48.9375 110.799C48.7973 110.799 48.7273 110.869 48.5871 110.869C48.5171 110.869 48.447 110.869 48.3769 110.939C48.1667 110.939 47.8865 110.939 47.6763 110.939L82.2187 91.8111L89.3654 87.8874H89.4355C90.4164 87.2568 91.6075 86.9065 92.8687 86.6963L95.4611 86.346L101.627 85.5753L112.277 84.244L113.818 84.0338Z" fill="#F1F2F2" stroke="#231F20" stroke-width="0.201439" stroke-miterlimit="10" stroke-linecap="round" stroke-linejoin="round"/>
        <path d="M139.953 130.137C139.182 129.857 138.201 129.927 137.22 130.558C136.94 130.698 136.66 130.908 136.379 131.118C136.309 131.188 136.239 131.258 136.169 131.258C136.029 131.398 135.889 131.468 135.749 131.609C135.679 131.679 135.679 131.679 135.609 131.749C135.538 131.819 135.538 131.819 135.468 131.889C135.188 132.239 134.838 132.589 134.628 133.01C134.558 133.08 134.487 133.15 134.487 133.29C134.417 133.43 134.277 133.57 134.207 133.781C134.207 133.851 134.137 133.851 134.137 133.921C134.067 133.991 134.067 134.061 133.997 134.131C133.927 134.271 133.857 134.411 133.787 134.481C133.717 134.551 133.717 134.621 133.647 134.761C133.577 134.832 133.577 134.972 133.507 135.042C133.366 135.322 133.296 135.672 133.226 135.953C133.226 136.023 133.156 136.093 133.156 136.233C133.086 136.583 133.016 136.863 133.016 137.214C133.016 137.284 133.016 137.284 133.016 137.354C133.016 137.424 133.016 137.494 133.016 137.564C133.016 137.634 133.016 137.704 133.016 137.844V145.552L141.564 140.577V132.94C141.424 131.468 140.793 130.487 139.953 130.137ZM140.303 139.806L134.067 143.45V137.844C134.137 135.883 135.468 133.5 137.15 132.519C137.5 132.309 137.851 132.169 138.131 132.169C138.481 132.099 138.832 132.099 139.112 132.239C139.742 132.519 140.163 133.22 140.233 134.271V139.806H140.303Z" fill="#F7F7F7" stroke="#231F20" stroke-width="0.201439" stroke-miterlimit="10" stroke-linecap="round" stroke-linejoin="round"/>
        <path d="M140.303 134.271V139.876L138.552 139.176V133.57C138.552 133.01 138.411 132.519 138.201 132.169C138.552 132.099 138.902 132.099 139.182 132.239C139.813 132.449 140.233 133.22 140.303 134.271Z" fill="#6D6E71" stroke="#231F20" stroke-width="0.0802954" stroke-miterlimit="10"/>
        <path d="M140.303 139.806L134.067 143.45V141.768L138.551 139.105L140.303 139.806Z" fill="#939598" stroke="#231F20" stroke-width="0.0802954" stroke-miterlimit="10"/>
        <path d="M138.551 133.57V139.176L134.067 141.838V137.914C134.137 135.952 135.468 133.57 137.15 132.589C137.5 132.379 137.85 132.239 138.131 132.239C138.411 132.519 138.551 133.01 138.551 133.57Z" fill="#939598" stroke="#231F20" stroke-width="0.0802954" stroke-miterlimit="10"/>
        <path d="M139.883 130.137C139.112 129.857 138.201 129.997 137.15 130.558C136.87 130.698 136.59 130.908 136.309 131.118C136.239 131.188 136.169 131.258 136.099 131.258C135.959 131.398 135.819 131.468 135.679 131.609C135.609 131.679 135.609 131.679 135.539 131.749C135.469 131.819 135.469 131.819 135.399 131.889C135.118 132.239 134.768 132.589 134.558 133.01C134.488 133.08 134.418 133.22 134.418 133.29C134.348 133.43 134.207 133.57 134.137 133.781C134.137 133.851 134.067 133.851 134.067 133.921C133.997 133.991 133.997 134.061 133.927 134.131C133.857 134.271 133.787 134.411 133.717 134.481C133.647 134.551 133.647 134.621 133.577 134.761C133.507 134.832 133.507 134.972 133.437 135.042C133.297 135.322 133.226 135.672 133.156 135.953C133.156 136.023 133.086 136.093 133.086 136.233C133.016 136.583 132.946 136.863 132.946 137.214C132.946 137.284 132.946 137.284 132.946 137.354C132.946 137.424 132.946 137.494 132.946 137.564C132.946 137.634 132.946 137.704 132.946 137.844V145.552L128.672 138.895L124.468 132.379C124.959 129.997 126.64 127.545 128.602 126.424C129.793 125.723 130.844 125.653 131.615 126.143L139.883 130.137Z" fill="#F7F7F7" stroke="#231F20" stroke-width="0.201439" stroke-miterlimit="10" stroke-linecap="round" stroke-linejoin="round"/>
        <path opacity="0.14" d="M133.997 134.061C133.997 134.131 133.927 134.131 133.927 134.201C133.857 134.341 133.787 134.481 133.717 134.551C133.647 134.621 133.647 134.691 133.577 134.831C133.507 134.901 133.507 135.042 133.437 135.112C133.297 135.392 133.226 135.742 133.156 136.023C133.156 136.093 133.086 136.163 133.086 136.303C133.016 136.653 132.946 136.933 132.946 137.284C132.946 137.354 132.946 137.354 132.946 137.424C132.946 137.494 132.946 137.564 132.946 137.634C132.946 137.704 132.946 137.774 132.946 137.914V145.622L128.672 138.965L124.468 132.449C124.749 131.118 125.449 129.717 126.29 128.526L133.997 134.061Z" fill="black" stroke="#231F20" stroke-width="0.201439" stroke-miterlimit="10"/>
        <path d="M156.208 121.449C155.437 121.169 154.456 121.239 153.475 121.869C153.195 122.01 152.915 122.22 152.635 122.43C152.565 122.5 152.495 122.57 152.424 122.57C152.284 122.71 152.144 122.78 152.004 122.92C151.934 122.99 151.934 122.99 151.864 123.061C151.794 123.131 151.794 123.131 151.724 123.201C151.444 123.551 151.093 123.901 150.883 124.322C150.813 124.392 150.743 124.462 150.743 124.602C150.673 124.742 150.533 124.882 150.463 125.092C150.463 125.163 150.393 125.163 150.393 125.233C150.322 125.303 150.322 125.373 150.252 125.443C150.182 125.583 150.112 125.723 150.042 125.793C149.972 125.863 149.972 125.933 149.902 126.073C149.832 126.143 149.832 126.284 149.762 126.354C149.622 126.634 149.552 126.984 149.482 127.264C149.482 127.335 149.412 127.405 149.412 127.545C149.342 127.895 149.271 128.175 149.271 128.526C149.271 128.596 149.271 128.596 149.271 128.666C149.271 128.736 149.271 128.806 149.271 128.876C149.271 128.946 149.271 129.016 149.271 129.156V136.863L157.82 131.889V124.182C157.679 122.78 157.119 121.799 156.208 121.449ZM156.558 131.118L150.322 134.762V129.156C150.393 127.194 151.724 124.812 153.405 123.831C153.756 123.621 154.106 123.481 154.386 123.481C154.737 123.411 155.087 123.411 155.367 123.551C155.998 123.831 156.418 124.532 156.488 125.583V131.118H156.558Z" fill="#F7F7F7" stroke="#231F20" stroke-width="0.201439" stroke-miterlimit="10" stroke-linecap="round" stroke-linejoin="round"/>
        <path d="M156.559 125.513V131.118L154.807 130.417V124.812C154.807 124.252 154.667 123.761 154.457 123.411C154.807 123.341 155.157 123.341 155.437 123.481C156.138 123.761 156.559 124.462 156.559 125.513Z" fill="#6D6E71" stroke="#231F20" stroke-width="0.0802954" stroke-miterlimit="10"/>
        <path d="M156.558 131.118L150.322 134.761V133.01L154.806 130.417L156.558 131.118Z" fill="#939598" stroke="#231F20" stroke-width="0.0802954" stroke-miterlimit="10"/>
        <path d="M154.806 124.812V130.417L150.322 133.08V129.156C150.392 127.194 151.724 124.812 153.405 123.831C153.755 123.621 154.106 123.481 154.386 123.481C154.666 123.761 154.806 124.252 154.806 124.812Z" fill="#939598" stroke="#231F20" stroke-width="0.0802954" stroke-miterlimit="10"/>
        <path d="M156.208 121.379C155.437 121.099 154.526 121.239 153.475 121.799C153.195 121.939 152.915 122.15 152.634 122.36C152.564 122.43 152.494 122.5 152.424 122.5C152.284 122.64 152.144 122.71 152.004 122.85C151.934 122.92 151.934 122.92 151.864 122.99C151.794 123.06 151.794 123.06 151.723 123.13C151.443 123.481 151.093 123.831 150.883 124.252C150.813 124.322 150.743 124.462 150.743 124.532C150.672 124.672 150.532 124.812 150.462 125.022C150.462 125.092 150.392 125.092 150.392 125.162C150.322 125.232 150.322 125.303 150.252 125.373C150.182 125.513 150.112 125.653 150.042 125.723C149.972 125.793 149.972 125.863 149.902 126.003C149.832 126.073 149.832 126.213 149.762 126.283C149.621 126.564 149.551 126.914 149.481 127.194C149.481 127.264 149.411 127.334 149.411 127.475C149.341 127.825 149.271 128.105 149.271 128.455C149.271 128.526 149.271 128.526 149.271 128.596C149.271 128.666 149.271 128.736 149.271 128.806C149.271 128.876 149.271 128.946 149.271 129.086V136.793L144.927 130.207L140.723 123.691C141.214 121.309 142.895 118.856 144.857 117.735C146.048 117.035 147.099 116.965 147.87 117.455L156.208 121.379Z" fill="#F7F7F7" stroke="#231F20" stroke-width="0.201439" stroke-miterlimit="10" stroke-linecap="round" stroke-linejoin="round"/>
        <path opacity="0.14" d="M150.392 125.092C150.322 125.162 150.322 125.232 150.252 125.303C150.182 125.373 150.182 125.443 150.112 125.513C150.042 125.653 149.972 125.793 149.902 125.863C149.832 125.933 149.832 126.003 149.762 126.143C149.692 126.213 149.692 126.354 149.621 126.424C149.481 126.704 149.411 127.054 149.341 127.334C149.341 127.405 149.271 127.475 149.271 127.615C149.201 127.965 149.131 128.245 149.131 128.596C149.131 128.666 149.131 128.666 149.131 128.736C149.131 128.806 149.131 128.876 149.131 128.946C149.131 129.016 149.131 129.086 149.131 129.226V136.933L144.927 130.207L140.723 123.691C141.003 122.43 141.634 121.099 142.405 119.978L150.392 125.092Z" fill="black" stroke="#231F20" stroke-width="0.201439" stroke-miterlimit="10"/>
        <path d="M125.939 155.431V169.794L121.175 178.482L54.8227 135.462L47.606 124.322V110.939C47.8162 110.939 48.0964 110.939 48.3066 110.939C48.3767 110.939 48.4467 110.869 48.5168 110.869C48.6569 110.869 48.727 110.799 48.8671 110.799C49.0073 110.799 49.1474 110.729 49.2175 110.729L70.3073 108.136L83.1293 115.563L84.2504 116.194L86.2122 117.315L88.5244 118.646L89.0148 118.927L89.4352 119.207L98.4737 124.462C98.8941 124.742 99.3145 125.022 99.7349 125.303C100.155 125.583 100.576 125.793 100.996 125.933L107.582 129.717L109.684 132.659L111.716 135.532L113.117 137.564L118.162 144.641L121.876 149.826L125.939 155.431Z" fill="#F1F2F2" stroke="#231F20" stroke-width="0.201439" stroke-miterlimit="10" stroke-linecap="round" stroke-linejoin="round"/>
        <path opacity="0.14" d="M125.939 155.431V169.794L121.175 178.482L54.8227 135.462L47.606 124.322V110.939C47.8162 110.939 48.0964 110.939 48.3066 110.939C48.3767 110.939 48.4467 110.869 48.5168 110.869C48.6569 110.869 48.727 110.799 48.8671 110.799C49.0073 110.799 49.1474 110.729 49.2175 110.729L70.3073 108.136L83.1293 115.563L84.2504 116.194L86.2122 117.315L88.5244 118.646L89.0148 118.927L89.4352 119.207L98.4737 124.462C98.8941 124.742 99.3145 125.022 99.7349 125.303C100.155 125.583 100.576 125.793 100.996 125.933L107.582 129.717L109.684 132.659L111.716 135.532L113.117 137.564L118.162 144.641L121.876 149.826L125.939 155.431Z" fill="black" stroke="#231F20" stroke-width="0.201439" stroke-miterlimit="10"/>
        <path d="M169.451 145.762L164.896 152.838L164.406 153.609C163.985 154.38 163.425 155.01 162.794 155.501L161.883 155.991L161.043 156.482L158.52 157.883L152.074 161.456L149.832 162.718L146.749 164.399L121.175 178.552L125.94 169.864L141.564 161.176L144.437 159.565L145.698 158.864L148.711 157.182L150.603 156.131L152.915 154.87L153.055 154.8L154.807 153.819L160.062 150.877L162.164 149.755L164.476 148.424L169.451 145.762Z" fill="#F7F7F7" stroke="#231F20" stroke-width="0.201439" stroke-miterlimit="10" stroke-linecap="round" stroke-linejoin="round"/>
        <path opacity="0.2" d="M169.451 145.762L164.896 152.838L164.406 153.609C163.985 154.38 163.425 155.01 162.794 155.501L161.883 155.991L161.043 156.482L158.52 157.883L152.074 161.456L149.832 162.718L146.749 164.399L121.175 178.552L125.94 169.864L141.564 161.176L144.437 159.565L145.698 158.864L148.711 157.182L150.603 156.131L152.915 154.87L153.055 154.8L154.807 153.819L160.062 150.877L162.164 149.755L164.476 148.424L169.451 145.762Z" fill="black" stroke="#231F20" stroke-width="0.0802954" stroke-miterlimit="10"/>
        <path opacity="0.2" d="M70.6576 105.544L66.2435 107.296L54.9629 108.627L62.8103 104.353L70.6576 105.544Z" fill="black" stroke="#231F20" stroke-width="0.0802954" stroke-miterlimit="10"/>
        <path d="M70.6576 105.544L60.8484 100.149C60.7783 100.079 60.9184 100.219 60.8484 100.149L84.2503 87.0466L95.3908 92.0213L70.6576 105.544Z" fill="#F1F2F2" stroke="#231F20" stroke-width="0.201439" stroke-miterlimit="10" stroke-linecap="round" stroke-linejoin="round"/>
        <path d="M70.6574 105.544L60.8481 106.875V100.149L70.6574 105.544Z" fill="#F1F2F2" stroke="#231F20" stroke-width="0.201439" stroke-miterlimit="10" stroke-linecap="round" stroke-linejoin="round"/>
        <path opacity="0.14" d="M70.6574 105.544L60.8481 106.875V100.149L70.6574 105.544Z" fill="black" stroke="#231F20" stroke-width="0.201439" stroke-miterlimit="10"/>
        <path opacity="0.2" d="M132.876 145.552L128.812 144.781L122.506 134.762L124.398 132.379L132.876 145.552Z" fill="black" stroke="#231F20" stroke-width="0.0802954" stroke-miterlimit="10"/>
        <path opacity="0.2" d="M149.202 136.863L145.068 136.093L138.832 126.003L140.724 123.691L149.202 136.863Z" fill="black" stroke="#231F20" stroke-width="0.0802954" stroke-miterlimit="10"/>
    </g>
    <defs>
        <clipPath id="">
            <rect width="121.984" height="94.7289" fill="white" transform="translate(47.5361 83.9639)"/>
        </clipPath>
    </defs>


    <g clip-path="url(#)">
        <path d="M117.182 182.826L116.691 183.107C116.621 183.107 116.621 183.107 116.551 183.107C116.761 183.037 116.972 182.967 117.182 182.826Z" fill="#F1F2F2" stroke="#231F20" stroke-width="0.201439" stroke-miterlimit="10" stroke-linecap="round" stroke-linejoin="round"/>
        <path d="M121.246 185.139C121.105 185.279 120.895 185.349 120.755 185.489L120.685 185.559L121.246 185.139Z" fill="#F1F2F2" stroke="#231F20" stroke-width="0.201439" stroke-miterlimit="10" stroke-linecap="round" stroke-linejoin="round"/>
        <path d="M117.182 182.826L116.691 183.107C116.621 183.107 116.621 183.107 116.551 183.107C116.761 183.037 116.972 182.967 117.182 182.826Z" fill="#F1F2F2" stroke="#231F20" stroke-width="0.201439" stroke-miterlimit="10" stroke-linecap="round" stroke-linejoin="round"/>
        <path d="M117.182 182.826L116.691 183.107C116.621 183.107 116.621 183.107 116.551 183.107C116.761 183.037 116.972 182.967 117.182 182.826Z" fill="#F1F2F2" stroke="#231F20" stroke-width="0.201439" stroke-miterlimit="10" stroke-linecap="round" stroke-linejoin="round"/>
        <path d="M121.246 185.139C121.105 185.279 120.895 185.349 120.755 185.489L120.685 185.559L121.246 185.139Z" fill="#F1F2F2" stroke="#231F20" stroke-width="0.201439" stroke-miterlimit="10" stroke-linecap="round" stroke-linejoin="round"/>
        <path d="M117.182 182.826L116.691 183.107C116.621 183.107 116.621 183.107 116.551 183.107C116.761 183.037 116.972 182.967 117.182 182.826Z" fill="#F1F2F2" stroke="#231F20" stroke-width="0.201439" stroke-miterlimit="10" stroke-linecap="round" stroke-linejoin="round"/>
        <path d="M117.182 182.826L116.691 183.107C116.621 183.107 116.621 183.107 116.551 183.107C116.761 183.037 116.972 182.967 117.182 182.826Z" fill="#F1F2F2" stroke="#231F20" stroke-width="0.201439" stroke-miterlimit="10" stroke-linecap="round" stroke-linejoin="round"/>
        <path d="M112.628 179.884C112.628 180.724 112.558 181.495 112.417 182.196C112.347 182.616 112.277 182.967 112.137 183.387C111.997 183.877 111.857 184.298 111.647 184.718C111.507 184.998 111.366 185.209 111.226 185.419C111.016 185.769 110.806 186.12 110.526 186.4C110.105 186.82 109.685 187.241 109.194 187.521L109.054 187.591C106.882 188.782 103.939 188.642 100.646 186.75C100.226 186.54 99.8756 186.26 99.4552 185.979L56.9954 161.386C56.7151 161.246 56.5049 161.106 56.2247 160.966C49.6385 157.182 44.3135 147.934 44.3135 140.367C44.3135 138.825 44.5237 137.494 44.9441 136.373C45.5046 134.691 46.4855 133.5 47.6766 132.729C47.7467 132.729 47.7467 132.659 47.8168 132.659C48.3773 132.379 48.9378 132.169 49.5684 132.029C49.7085 132.029 49.9187 131.959 50.0589 131.959C50.199 131.959 50.4092 131.889 50.6194 131.889L52.5112 131.748H52.9316L59.0273 131.258H59.4477L62.8108 130.978L64.4223 130.838L67.3651 130.627L72.3398 130.207C72.62 130.137 72.9003 130.137 73.1806 130.137C73.3207 130.137 73.4608 130.137 73.671 130.137C74.5118 130.137 75.4227 130.347 76.4036 130.697C77.1743 130.978 77.945 131.328 78.7158 131.748C79.8368 132.379 80.9579 133.22 81.9388 134.131C82.7796 134.901 83.6204 135.812 84.3911 136.723L84.4612 136.793C84.6714 137.073 84.8815 137.284 85.0917 137.564L95.3914 150.526L96.022 151.297L97.5635 153.259L97.8437 153.609L100.086 156.482L102.258 159.214L105.481 163.278C106.041 163.839 106.532 164.469 107.022 165.1C107.373 165.52 107.723 166.011 108.003 166.501C110.526 170.285 112.277 174.699 112.558 178.833C112.628 179.113 112.628 179.533 112.628 179.884Z" fill="#F1F2F2" stroke="#231F20" stroke-width="0.201439" stroke-miterlimit="10" stroke-linecap="round" stroke-linejoin="round"/>
        <path opacity="0.14" d="M112.628 179.884C112.628 180.724 112.558 181.495 112.417 182.196C112.347 182.616 112.277 182.967 112.137 183.387C111.997 183.877 111.857 184.298 111.647 184.718C111.507 184.998 111.366 185.209 111.226 185.419C111.016 185.769 110.806 186.12 110.526 186.4C110.105 186.82 109.685 187.241 109.194 187.521L109.054 187.591C106.882 188.782 103.939 188.642 100.646 186.75C100.226 186.54 99.8756 186.26 99.4552 185.979L56.9954 161.386C56.7151 161.246 56.5049 161.106 56.2247 160.966C49.6385 157.182 44.3135 147.934 44.3135 140.367C44.3135 138.825 44.5237 137.494 44.9441 136.373C45.5046 134.691 46.4855 133.5 47.6766 132.729C47.7467 132.729 47.7467 132.659 47.8168 132.659C48.3773 132.379 48.9378 132.169 49.5684 132.029C49.7085 132.029 49.9187 131.959 50.0589 131.959C50.199 131.959 50.4092 131.889 50.6194 131.889L52.5112 131.748H52.9316L59.0273 131.258H59.4477L62.8108 130.978L64.4223 130.838L67.3651 130.627L72.3398 130.207C72.62 130.137 72.9003 130.137 73.1806 130.137C73.3207 130.137 73.4608 130.137 73.671 130.137C74.5118 130.137 75.4227 130.347 76.4036 130.697C77.1743 130.978 77.945 131.328 78.7158 131.748C79.8368 132.379 80.9579 133.22 81.9388 134.131C82.7796 134.901 83.6204 135.812 84.3911 136.723L84.4612 136.793C84.6714 137.073 84.8815 137.284 85.0917 137.564L95.3914 150.526L96.022 151.297L97.5635 153.259L97.8437 153.609L100.086 156.482L102.258 159.214L105.481 163.278C106.041 163.839 106.532 164.469 107.022 165.1C107.373 165.52 107.723 166.011 108.003 166.501C110.526 170.285 112.277 174.699 112.558 178.833C112.628 179.113 112.628 179.533 112.628 179.884Z" fill="black" stroke="#231F20" stroke-width="0.201439" stroke-miterlimit="10"/>
        <path d="M120.685 175.119C120.685 178.903 119.354 181.495 117.252 182.756L117.182 182.826C116.971 182.967 116.761 183.037 116.551 183.107C116.621 183.107 116.621 183.107 116.691 183.107L112.907 185.349L111.997 185.839L110.806 186.54L109.194 187.521C109.684 187.241 110.105 186.82 110.525 186.4C110.806 186.12 111.016 185.769 111.226 185.419C111.366 185.209 111.506 184.928 111.646 184.718C111.857 184.298 111.997 183.877 112.137 183.387C112.207 183.037 112.347 182.616 112.417 182.196C112.557 181.495 112.627 180.725 112.627 179.884C112.627 179.533 112.627 179.113 112.557 178.763C112.277 174.699 110.595 170.215 108.003 166.431C107.653 165.941 107.372 165.52 107.022 165.03C106.532 164.399 106.041 163.769 105.481 163.208L102.258 159.144L100.085 156.412L97.8434 153.539L97.5631 153.189L96.0216 151.227L95.3911 150.456L85.0914 137.494C84.8812 137.214 84.671 137.003 84.4608 136.723L84.3907 136.653C83.62 135.742 82.7792 134.831 81.9384 134.061C80.8874 133.15 79.8365 132.309 78.7154 131.678C77.9447 131.188 77.174 130.838 76.4032 130.627C75.4223 130.277 74.5115 130.137 73.6707 130.067C73.5305 130.067 73.3203 130.067 73.1802 130.067C72.8999 130.067 72.6197 130.067 72.3394 130.137L67.3648 130.557L64.422 130.768L62.8105 130.908L59.4473 131.188H59.0269L52.9312 131.678H52.5108L50.619 131.819C50.4088 131.819 50.2687 131.819 50.0585 131.889C49.9184 131.889 49.7082 131.959 49.5681 131.959C48.9375 132.099 48.3769 132.309 47.8164 132.589L49.5681 131.538L55.8039 127.825C56.5046 127.475 57.2052 127.194 58.046 127.124C58.1861 127.124 58.3963 127.054 58.6065 127.054L59.1671 126.984L61.6194 126.774L63.0207 126.634L72.3394 125.863L75.072 125.653L76.2631 125.723L80.467 125.373C80.7473 125.302 81.0276 125.302 81.3078 125.302C82.9193 125.232 84.8111 125.793 86.843 126.914C88.945 128.105 90.8368 129.857 92.5884 131.889L92.6585 131.959C92.8687 132.239 93.0789 132.449 93.2891 132.729L97.7733 138.405L104.219 146.532L105.761 148.564L107.653 150.947L110.315 154.38L113.608 158.514C114.519 159.495 115.36 160.616 116.131 161.737C116.131 161.807 116.201 161.807 116.201 161.877C116.551 162.437 116.901 162.928 117.182 163.488C118.863 166.431 120.054 169.724 120.475 172.807C120.615 173.578 120.685 174.349 120.685 175.119Z" fill="#F1F2F2" stroke="#231F20" stroke-width="0.201439" stroke-miterlimit="10" stroke-linecap="round" stroke-linejoin="round"/>
        <path opacity="0.25" d="M80.8876 143.94L71.709 153.259L65.4731 145.481L80.8876 143.94Z" fill="black" stroke="#231F20" stroke-width="0.201439" stroke-miterlimit="10"/>
        <path d="M81.9386 141.558C81.9386 142.749 81.5182 143.59 80.8876 144.01C80.8176 144.01 80.8176 144.08 80.7475 144.08C80.6774 144.15 79.6965 144.641 78.2251 145.552C73.811 148.074 64.8426 153.189 60.0781 155.641C59.2373 156.061 58.5366 156.412 58.0462 156.692C58.6768 156.272 59.0972 155.361 59.0972 154.24C59.0972 151.717 57.3455 148.634 55.1735 147.373C54.1926 146.813 53.2817 146.673 52.5811 147.023C53.3518 146.603 54.2626 146.112 55.2436 145.552C59.3074 143.38 64.6324 140.507 68.8363 138.265C69.8172 137.704 70.7281 137.214 71.5689 136.793C73.2505 135.883 74.5116 135.182 75.2123 134.832C75.4926 134.691 75.7028 134.551 75.7028 134.551C76.3333 134.341 77.1741 134.481 78.085 134.972C80.187 136.093 81.9386 139.106 81.9386 141.558Z" fill="url(#paint0_linear_1_19911)" stroke="#231F20" stroke-width="0.201439" stroke-miterlimit="10" stroke-linecap="round" stroke-linejoin="round"/>
        <path d="M81.518 171.756C81.518 171.756 75.4223 165.59 74.3713 177.151C73.3203 188.712 73.3203 188.712 73.3203 188.712L84.8812 206.088L98.4039 207.49L99.3848 200.483L81.518 171.756Z" fill="#49443A" stroke="#231F20" stroke-width="0.225612" stroke-miterlimit="10" stroke-linecap="round" stroke-linejoin="round"/>
        <path d="M105.691 192.846C105.691 193.687 105.621 194.457 105.551 195.228C105.411 195.929 105.27 196.559 105.06 197.19C104.57 198.591 103.729 199.642 102.748 200.343C101.767 201.044 100.576 201.464 99.2447 201.464C99.1746 201.464 99.0345 201.464 98.9644 201.464C97.4931 201.394 95.8115 200.974 93.9898 199.993C93.9197 199.993 93.9197 199.923 93.8496 199.923C87.1934 196.209 81.7283 186.96 81.6582 179.393C81.6582 179.043 81.6582 178.623 81.6582 178.272C81.7283 176.591 82.1487 175.189 82.7092 174.068C82.7092 173.998 82.7793 173.928 82.8493 173.858C83.55 172.597 84.5309 171.686 85.7921 171.196C86.8431 170.775 88.0342 170.635 89.3654 170.845C90.3464 170.985 91.4674 171.336 92.5885 171.896C92.8687 172.036 93.2191 172.176 93.4993 172.387C93.6394 172.457 93.7796 172.527 93.9898 172.667C94.0598 172.667 94.0598 172.737 94.1299 172.737C99.525 177.922 103.799 185.209 105.691 192.355C105.691 192.425 105.691 192.425 105.691 192.496C105.691 192.566 105.691 192.706 105.691 192.846Z" fill="#6E6657" stroke="#231F20" stroke-width="0.225612" stroke-miterlimit="10" stroke-linecap="round" stroke-linejoin="round"/>
        <path d="M79.6963 183.597C79.7664 189.272 83.8302 196.139 88.8048 198.941C91.4673 200.413 93.7795 200.483 95.391 199.292C96.1617 198.731 96.7223 197.961 97.1427 196.91C97.2828 196.489 97.4229 195.999 97.493 195.438C97.5631 194.878 97.6331 194.317 97.6331 193.687C97.5631 188.011 93.4992 181.145 88.5246 178.342C88.3144 178.202 88.1042 178.132 87.8239 177.992C86.9831 177.571 86.1423 177.361 85.4417 177.221C84.4608 177.081 83.5499 177.151 82.7792 177.501C80.8173 178.342 79.6262 180.444 79.6963 183.597Z" fill="#928874" stroke="#231F20" stroke-width="0.225612" stroke-miterlimit="10" stroke-linecap="round" stroke-linejoin="round"/>
        <path d="M82.7788 177.572C83.5495 177.221 84.4604 177.151 85.4413 177.291C86.212 177.431 86.9828 177.642 87.8235 178.062C88.0337 178.202 88.2439 178.272 88.5242 178.412C93.4989 181.215 97.5627 188.081 97.6327 193.757C97.6327 194.387 97.5627 194.948 97.4926 195.508C97.4226 195.999 97.2824 196.489 97.1423 196.98C96.792 198.031 96.1614 198.801 95.3906 199.362L100.225 196.489L100.295 196.419C101.907 195.508 102.888 193.476 102.888 190.604C102.818 184.928 98.7538 178.062 93.7791 175.259C91.6071 174.068 89.6453 173.788 88.1038 174.419L86.8426 175.119L82.7788 177.572Z" fill="url(#paint1_linear_1_19911)" stroke="#231F20" stroke-width="0.225612" stroke-miterlimit="10" stroke-linecap="round" stroke-linejoin="round"/>
        <path d="M105.691 192.425C105.691 192.355 105.691 192.355 105.621 192.285C103.659 185.068 99.3851 177.852 94.0601 172.667C93.99 172.597 93.9199 172.597 93.9199 172.527C91.9581 170.635 89.8561 169.093 87.6841 167.832C87.1936 167.552 86.7032 167.342 86.2828 167.132C84.5311 166.291 82.8495 165.73 81.238 165.52C79.2061 165.24 77.3143 165.45 75.7028 166.081H75.6328C71.569 167.762 69.0466 172.246 69.1167 178.833C69.2568 190.744 77.8048 205.177 88.2446 211.063C93.7798 214.146 98.7545 214.216 102.188 211.764C103.799 210.642 104.99 208.961 105.831 206.789C106.181 205.878 106.462 204.827 106.602 203.706C106.812 202.585 106.882 201.324 106.882 199.992C106.742 197.54 106.392 195.018 105.691 192.425ZM97.0028 203.706C94.8308 205.247 91.6778 205.247 88.1045 203.215C81.4482 199.502 75.9831 190.253 75.913 182.686C75.843 178.482 77.4545 175.61 80.0469 174.559C80.8176 174.208 81.7285 174.068 82.7094 174.068C82.7795 174.068 82.8495 174.068 82.9196 174.068C83.1298 174.068 83.4101 174.068 83.6203 174.138C84.6012 174.278 85.7222 174.629 86.8433 175.119C87.1236 175.259 87.4739 175.399 87.7542 175.61C94.4104 179.323 99.8755 188.572 99.9456 196.139C99.9456 196.279 99.9456 196.419 99.9456 196.559C99.9456 197.26 99.8755 197.89 99.8055 198.521C99.6653 199.222 99.5252 199.852 99.315 200.483C99.1749 200.833 99.0347 201.114 98.8946 201.464C98.4041 202.375 97.7736 203.145 97.0028 203.706Z" fill="#231F20" stroke="#231F20" stroke-width="0.225612" stroke-miterlimit="10" stroke-linecap="round" stroke-linejoin="round"/>
        <path d="M115.29 204.056C115.78 203.846 116.271 203.566 116.761 203.216L115.29 204.056ZM105.691 192.285C103.729 185.069 99.4551 177.852 94.1301 172.667C94.0601 172.597 93.99 172.597 93.99 172.527V172.597C94.2703 173.788 94.6907 174.909 95.1111 176.1C96.8627 180.865 99.5953 185.489 102.888 189.413C103.799 190.464 104.78 191.515 105.761 192.496C105.761 192.496 105.761 192.496 105.831 192.496C105.691 192.355 105.691 192.355 105.691 192.285ZM88.0344 158.794C87.9644 158.794 87.9644 158.864 87.9644 158.864C88.665 158.444 89.2956 158.093 89.6459 157.883C89.716 157.883 89.716 157.813 89.7861 157.813C89.8561 157.743 89.9262 157.743 89.9262 157.743C89.9963 157.743 89.9963 157.673 90.0663 157.673L90.1364 157.603C89.4357 157.883 88.7351 158.303 88.0344 158.794Z" fill="#231F20" stroke="#231F20" stroke-width="0.225612" stroke-miterlimit="10" stroke-linecap="round" stroke-linejoin="round"/>
        <path d="M118.513 201.814C118.373 201.954 118.233 202.025 118.163 202.095C118.233 201.954 118.373 201.884 118.513 201.814Z" fill="url(#paint2_linear_1_19911)" stroke="#231F20" stroke-width="0.225612" stroke-miterlimit="10" stroke-linecap="round" stroke-linejoin="round"/>
        <path d="M121.386 191.515C121.386 192.846 121.315 194.107 121.105 195.228C120.965 196.349 120.685 197.33 120.335 198.311C119.564 200.483 118.303 202.165 116.691 203.286L115.22 204.126L102.047 211.764C103.659 210.643 104.85 208.961 105.691 206.789C106.041 205.878 106.321 204.827 106.462 203.706C106.672 202.585 106.742 201.324 106.742 199.993C106.742 197.54 106.321 195.018 105.621 192.425C105.621 192.355 105.621 192.355 105.551 192.285C103.589 185.069 99.3148 177.852 93.9898 172.667C93.9197 172.597 93.8497 172.597 93.8497 172.527C91.8878 170.635 89.7858 169.094 87.6138 167.832C87.1233 167.552 86.6329 167.342 86.2125 167.132C84.4609 166.291 82.7793 165.73 81.1678 165.52C79.1359 165.24 77.2441 165.45 75.6326 166.081H75.5625L88.0342 158.864C87.9641 158.864 87.9641 158.934 87.9641 158.934C88.6648 158.514 89.2954 158.163 89.6457 157.953C89.7158 157.953 89.7158 157.883 89.7859 157.883C89.8559 157.813 89.926 157.813 89.926 157.813C89.996 157.813 89.996 157.743 90.0661 157.743L90.1362 157.673C91.8178 156.972 93.7095 156.762 95.7414 157.042C97.353 157.252 99.0345 157.813 100.786 158.654C101.277 158.864 101.697 159.144 102.187 159.354C104.43 160.616 106.602 162.227 108.563 164.189C113.959 169.374 118.233 176.661 120.124 183.807C120.965 186.4 121.386 188.992 121.386 191.515Z" fill="url(#paint3_linear_1_19911)" stroke="#231F20" stroke-width="0.225612" stroke-miterlimit="10" stroke-linecap="round" stroke-linejoin="round"/>
        <path d="M89.6459 157.883C89.2255 158.093 88.665 158.444 87.9644 158.864L88.0344 158.794L89.6459 157.883Z" fill="#C49A6C" stroke="#231F20" stroke-width="0.225612" stroke-miterlimit="10" stroke-linecap="round" stroke-linejoin="round"/>
        <path d="M21.5422 138.265C21.5422 138.265 15.4465 132.099 14.3955 143.66C13.2744 155.151 13.2744 155.151 13.2744 155.151L24.8353 172.527L38.358 173.928L39.3389 166.922L21.5422 138.265Z" fill="#49443A" stroke="#231F20" stroke-width="0.225612" stroke-miterlimit="10" stroke-linecap="round" stroke-linejoin="round"/>
        <path d="M45.7149 159.355C45.7149 160.195 45.6449 160.966 45.5748 161.737C45.4347 162.437 45.2945 163.068 45.0843 163.699C44.5939 165.1 43.7531 166.151 42.7722 166.852C41.7912 167.552 40.6001 167.973 39.2689 167.973C39.1988 167.973 39.0587 167.973 38.9886 167.973C37.5172 167.973 35.8357 167.482 34.0139 166.501C33.9439 166.501 33.9439 166.431 33.8738 166.431C27.1475 162.648 21.6824 153.399 21.6123 145.832C21.6123 145.482 21.6123 145.061 21.6123 144.711C21.6824 143.029 22.1028 141.628 22.6633 140.507C22.6633 140.437 22.7334 140.367 22.8034 140.297C23.5041 139.035 24.485 138.125 25.7462 137.634C26.7972 137.214 27.9883 137.074 29.3195 137.284C30.3005 137.424 31.4215 137.774 32.5426 138.335C32.8228 138.475 33.1732 138.615 33.4534 138.825C33.5936 138.895 33.7337 138.965 33.9439 139.106C34.0139 139.106 34.0139 139.176 34.084 139.176C39.4791 144.36 43.7531 151.647 45.6449 158.794C45.6449 158.864 45.6449 158.864 45.6449 158.934C45.7149 159.004 45.7149 159.144 45.7149 159.355Z" fill="#6E6657" stroke="#231F20" stroke-width="0.225612" stroke-miterlimit="10" stroke-linecap="round" stroke-linejoin="round"/>
        <path d="M19.6504 150.106C19.7205 155.781 23.7843 162.648 28.7589 165.45C31.4214 166.922 33.7336 166.992 35.3451 165.801C36.1158 165.24 36.6764 164.469 37.0968 163.418C37.2369 162.998 37.377 162.508 37.4471 161.947C37.5172 161.386 37.5872 160.826 37.5872 160.195C37.5172 154.52 33.4533 147.654 28.4787 144.851C28.2685 144.711 28.0583 144.641 27.778 144.501C26.9372 144.08 26.0964 143.87 25.3958 143.73C24.4149 143.59 23.504 143.66 22.7333 144.01C20.8415 144.851 19.6504 146.953 19.6504 150.106Z" fill="#928874" stroke="#231F20" stroke-width="0.225612" stroke-miterlimit="10" stroke-linecap="round" stroke-linejoin="round"/>
        <path d="M22.8037 144.01C23.5744 143.66 24.4853 143.59 25.4662 143.73C26.2369 143.87 27.0077 144.08 27.8484 144.501C28.0586 144.641 28.2688 144.711 28.5491 144.851C33.5238 147.654 37.5876 154.52 37.6577 160.195C37.6577 160.826 37.5876 161.386 37.5175 161.947C37.4475 162.437 37.3073 162.928 37.1672 163.418C36.8169 164.469 36.1863 165.24 35.4155 165.801L40.2501 162.928L40.3202 162.858C41.9317 161.947 42.9126 159.915 42.9126 157.042C42.8425 151.367 38.7787 144.501 33.804 141.698C31.632 140.507 29.6702 140.227 28.1287 140.857L26.8675 141.558L22.8037 144.01Z" fill="url(#paint4_linear_1_19911)" stroke="#231F20" stroke-width="0.225612" stroke-miterlimit="10" stroke-linecap="round" stroke-linejoin="round"/>
        <path d="M45.7149 158.934C45.7149 158.864 45.7149 158.864 45.6448 158.794C43.683 151.577 39.409 144.36 34.084 139.176C34.0139 139.106 33.9439 139.106 33.9439 139.035C31.982 137.144 29.88 135.602 27.708 134.341C27.2175 134.061 26.7271 133.851 26.3067 133.64C24.5551 132.8 22.8735 132.239 21.262 132.029C19.2301 131.749 17.3383 131.959 15.7268 132.589H15.6567C11.5929 134.271 9.07052 138.755 9.14058 145.341C9.28071 157.253 17.8287 171.686 28.2685 177.572C33.8037 180.655 38.7784 180.725 42.2116 178.272C43.8231 177.151 45.0143 175.47 45.855 173.298C46.2054 172.387 46.4856 171.336 46.6258 170.215C46.836 169.094 46.906 167.833 46.906 166.501C46.7659 164.049 46.4156 161.457 45.7149 158.934ZM37.0268 170.145C34.8547 171.686 31.7018 171.686 28.1284 169.654C21.4722 165.941 16.007 156.762 15.937 149.125C15.8669 144.921 17.4784 142.048 20.0708 140.997C20.8416 140.647 21.7524 140.507 22.7333 140.507C22.8034 140.507 22.8735 140.507 22.9435 140.507C23.1537 140.507 23.434 140.507 23.6442 140.577C24.6251 140.717 25.7462 141.067 26.8672 141.558C27.1475 141.698 27.4978 141.838 27.7781 142.048C34.4343 145.762 39.8995 155.01 39.9695 162.578C39.9695 162.718 39.9695 162.858 39.9695 162.998C39.9695 163.699 39.8995 164.329 39.8294 164.96C39.6893 165.66 39.5491 166.291 39.3389 166.922C39.1988 167.272 39.0587 167.552 38.9185 167.903C38.4281 168.883 37.7975 169.584 37.0268 170.145Z" fill="#231F20" stroke="#231F20" stroke-width="0.225612" stroke-miterlimit="10" stroke-linecap="round" stroke-linejoin="round"/>
        <path d="M55.3139 170.565C55.8044 170.355 56.2948 170.074 56.7853 169.724L55.3139 170.565ZM45.6449 158.724C43.683 151.507 39.409 144.29 34.084 139.105C34.0139 139.035 33.9439 139.035 33.9439 138.965V139.035C34.2241 140.226 34.6445 141.348 35.0649 142.539C36.8166 147.303 39.5491 151.927 42.8422 155.851C43.7531 156.902 44.734 157.953 45.7149 158.934C45.7149 158.934 45.7149 158.934 45.785 158.934C45.7149 158.864 45.7149 158.794 45.6449 158.724ZM28.0583 125.302C27.9883 125.302 27.9883 125.373 27.9883 125.373C28.6889 124.952 29.3195 124.602 29.6699 124.392C29.7399 124.392 29.7399 124.322 29.81 124.322C29.8801 124.251 29.9501 124.251 29.9501 124.251C30.0202 124.251 30.0202 124.181 30.0903 124.181L30.1603 124.111C29.4597 124.392 28.6889 124.812 28.0583 125.302Z" fill="#231F20" stroke="#231F20" stroke-width="0.225612" stroke-miterlimit="10" stroke-linecap="round" stroke-linejoin="round"/>
        <path d="M58.4665 168.253C58.3264 168.393 58.1863 168.463 58.1162 168.533C58.2563 168.463 58.3965 168.393 58.4665 168.253Z" fill="url(#paint5_linear_1_19911)" stroke="#231F20" stroke-width="0.225612" stroke-miterlimit="10" stroke-linecap="round" stroke-linejoin="round"/>
        <path d="M61.4102 157.953C61.4102 159.284 61.3401 160.546 61.1299 161.667C60.9898 162.788 60.7095 163.769 60.3592 164.75C59.5885 166.922 58.3273 168.603 56.7158 169.724L55.2444 170.565L42.1421 178.202C43.7536 177.081 44.9447 175.4 45.7855 173.228C46.1358 172.317 46.4161 171.266 46.5562 170.145C46.7664 169.024 46.8365 167.762 46.8365 166.431C46.8365 163.979 46.4161 161.456 45.7154 158.864C45.7154 158.794 45.7154 158.794 45.6454 158.724C43.6835 151.507 39.4095 144.29 34.0845 139.105C34.0145 139.035 33.9444 139.035 33.9444 138.965C31.9825 137.074 29.8806 135.532 27.7085 134.271C27.2181 133.991 26.7276 133.78 26.3072 133.57C24.5556 132.73 22.874 132.169 21.2625 131.959C19.2306 131.679 17.3388 131.889 15.7273 132.519H15.6572L28.0589 125.303C27.9888 125.303 27.9888 125.373 27.9888 125.373C28.6895 124.952 29.32 124.602 29.6704 124.392C29.7404 124.392 29.7404 124.322 29.8105 124.322C29.8806 124.252 29.9506 124.252 29.9506 124.252C30.0207 124.252 30.0207 124.181 30.0908 124.181L30.1608 124.111C31.8424 123.411 33.7342 123.201 35.7661 123.481C37.3776 123.691 39.0592 124.252 40.8108 125.092C41.3013 125.303 41.7217 125.583 42.2122 125.793C44.4543 127.054 46.6263 128.666 48.5881 130.628C53.9832 135.812 58.2572 143.099 60.149 150.246C60.9898 152.838 61.4102 155.501 61.4102 157.953Z" fill="url(#paint6_linear_1_19911)" stroke="#231F20" stroke-width="0.225612" stroke-miterlimit="10" stroke-linecap="round" stroke-linejoin="round"/>
        <path d="M29.6699 124.392C29.2495 124.602 28.6889 124.952 27.9883 125.373L28.0583 125.303L29.6699 124.392Z" fill="#C49A6C" stroke="#231F20" stroke-width="0.225612" stroke-miterlimit="10" stroke-linecap="round" stroke-linejoin="round"/>
        <path d="M91.1872 197.751L90.6968 198.031C90.6267 198.031 90.6267 198.031 90.5566 198.031C90.8369 197.961 90.977 197.891 91.1872 197.751Z" fill="#F1F2F2" stroke="#231F20" stroke-width="0.201439" stroke-miterlimit="10" stroke-linecap="round" stroke-linejoin="round"/>
        <path d="M91.1872 197.751L90.6968 198.031C90.6267 198.031 90.6267 198.031 90.5566 198.031C90.8369 197.961 90.977 197.891 91.1872 197.751Z" fill="#F1F2F2" stroke="#231F20" stroke-width="0.201439" stroke-miterlimit="10" stroke-linecap="round" stroke-linejoin="round"/>
        <path d="M91.1872 197.751L90.6968 198.031C90.6267 198.031 90.6267 198.031 90.5566 198.031C90.8369 197.961 90.977 197.891 91.1872 197.751Z" fill="#F1F2F2" stroke="#231F20" stroke-width="0.201439" stroke-miterlimit="10" stroke-linecap="round" stroke-linejoin="round"/>
        <path d="M91.1872 197.751L90.6968 198.031C90.6267 198.031 90.6267 198.031 90.5566 198.031C90.8369 197.961 90.977 197.891 91.1872 197.751Z" fill="#F1F2F2" stroke="#231F20" stroke-width="0.201439" stroke-miterlimit="10" stroke-linecap="round" stroke-linejoin="round"/>
        <path d="M91.1872 197.751L90.6968 198.031C90.6267 198.031 90.6267 198.031 90.5566 198.031C90.8369 197.961 90.977 197.891 91.1872 197.751Z" fill="#F1F2F2" stroke="#231F20" stroke-width="0.201439" stroke-miterlimit="10" stroke-linecap="round" stroke-linejoin="round"/>
        <path d="M86.633 194.808C86.633 195.649 86.5629 196.419 86.4228 197.12C86.3527 197.54 86.2826 197.891 86.1425 198.311C86.0024 198.802 85.8622 199.222 85.652 199.642C85.5119 199.923 85.3718 200.133 85.2316 200.343C85.0215 200.693 84.8113 201.044 84.531 201.324C84.1106 201.744 83.6902 202.165 83.1997 202.445L83.0596 202.515C80.8876 203.706 77.9448 203.566 74.6517 201.674C74.2313 201.464 73.881 201.184 73.4606 200.904L31.0007 176.31C30.7205 176.17 30.5103 176.03 30.23 175.89C23.6438 172.107 18.3188 162.858 18.3188 155.291C18.3188 153.749 18.529 152.418 18.9494 151.297C19.51 149.615 20.4909 148.424 21.682 147.654C21.7521 147.654 21.7521 147.584 21.8221 147.584C22.3827 147.303 22.9432 147.093 23.5738 146.953C23.7139 146.953 23.9241 146.883 24.0642 146.883C24.2044 146.883 24.4146 146.813 24.6248 146.813L26.5165 146.673H26.9369L33.0327 146.182H33.4531L36.8162 145.902L38.4277 145.762L41.3705 145.552L46.3452 145.131C46.6254 145.061 46.9057 145.061 47.1859 145.061C47.3261 145.061 47.4662 145.061 47.6764 145.061C48.5172 145.061 49.428 145.271 50.409 145.622C51.1797 145.902 51.9504 146.252 52.7211 146.673C53.8422 147.303 54.9632 148.144 55.9442 149.055C56.785 149.826 57.6257 150.736 58.3965 151.647L58.4665 151.717C58.6767 151.998 58.8869 152.208 59.0971 152.488L69.3968 165.45L70.0274 166.221L71.5688 168.183L71.8491 168.533L74.0912 171.406L76.2632 174.138L79.4863 178.202C80.0468 178.763 80.5372 179.393 81.0277 180.024C81.378 180.444 81.7284 180.935 82.0086 181.425C84.531 185.209 86.2826 189.623 86.5629 193.757C86.633 194.037 86.633 194.387 86.633 194.808Z" fill="#F1F2F2" stroke="#231F20" stroke-width="0.201439" stroke-miterlimit="10" stroke-linecap="round" stroke-linejoin="round"/>
        <path opacity="0.14" d="M86.633 194.808C86.633 195.649 86.5629 196.419 86.4228 197.12C86.3527 197.54 86.2826 197.891 86.1425 198.311C86.0024 198.802 85.8622 199.222 85.652 199.642C85.5119 199.923 85.3718 200.133 85.2316 200.343C85.0215 200.693 84.8113 201.044 84.531 201.324C84.1106 201.744 83.6902 202.165 83.1997 202.445L83.0596 202.515C80.8876 203.706 77.9448 203.566 74.6517 201.674C74.2313 201.464 73.881 201.184 73.4606 200.904L31.0007 176.31C30.7205 176.17 30.5103 176.03 30.23 175.89C23.6438 172.107 18.3188 162.858 18.3188 155.291C18.3188 153.749 18.529 152.418 18.9494 151.297C19.51 149.615 20.4909 148.424 21.682 147.654C21.7521 147.654 21.7521 147.584 21.8221 147.584C22.3827 147.303 22.9432 147.093 23.5738 146.953C23.7139 146.953 23.9241 146.883 24.0642 146.883C24.2044 146.883 24.4146 146.813 24.6248 146.813L26.5165 146.673H26.9369L33.0327 146.182H33.4531L36.8162 145.902L38.4277 145.762L41.3705 145.552L46.3452 145.131C46.6254 145.061 46.9057 145.061 47.1859 145.061C47.3261 145.061 47.4662 145.061 47.6764 145.061C48.5172 145.061 49.428 145.271 50.409 145.622C51.1797 145.902 51.9504 146.252 52.7211 146.673C53.8422 147.303 54.9632 148.144 55.9442 149.055C56.785 149.826 57.6257 150.736 58.3965 151.647L58.4665 151.717C58.6767 151.998 58.8869 152.208 59.0971 152.488L69.3968 165.45L70.0274 166.221L71.5688 168.183L71.8491 168.533L74.0912 171.406L76.2632 174.138L79.4863 178.202C80.0468 178.763 80.5372 179.393 81.0277 180.024C81.378 180.444 81.7284 180.935 82.0086 181.425C84.531 185.209 86.2826 189.623 86.5629 193.757C86.633 194.037 86.633 194.387 86.633 194.808Z" fill="black" stroke="#231F20" stroke-width="0.201439" stroke-miterlimit="10"/>
        <path d="M94.6904 190.043C94.6904 193.827 93.3592 196.419 91.2572 197.68L91.1871 197.751C90.9769 197.891 90.7667 197.961 90.5565 198.031C90.6266 198.031 90.6266 198.031 90.6967 198.031L86.9131 200.273L86.0023 200.763L84.8111 201.464L83.1996 202.445C83.6901 202.165 84.1105 201.744 84.5309 201.324C84.8111 201.044 85.0213 200.693 85.2315 200.343C85.3717 200.133 85.5118 199.853 85.6519 199.642C85.8621 199.222 86.0023 198.802 86.1424 198.311C86.2125 197.961 86.3526 197.54 86.4227 197.12C86.5628 196.419 86.6329 195.649 86.6329 194.808C86.6329 194.457 86.6328 194.037 86.5628 193.687C86.2825 189.623 84.6009 185.139 82.0085 181.355C81.6582 180.865 81.3779 180.444 81.0276 179.954C80.5371 179.323 80.0467 178.693 79.4861 178.132L76.2631 174.068L74.1611 171.266L71.919 168.393L71.6388 168.043L70.0973 166.081L69.4667 165.31L59.1671 152.348C58.9569 152.068 58.7467 151.857 58.5365 151.577L58.4664 151.507C57.6957 150.596 56.8549 149.685 56.0141 148.915C54.9631 148.004 53.9121 147.163 52.7911 146.532C52.0204 146.042 51.2496 145.692 50.4789 145.481C49.498 145.131 48.5871 144.991 47.7464 144.921C47.6062 144.921 47.396 144.921 47.2559 144.921C46.9756 144.921 46.6954 144.921 46.4151 144.991L41.4404 145.411L38.4977 145.622L36.8862 145.762L33.523 146.112H33.1026L27.0069 146.603H26.5865L24.6947 146.743C24.4845 146.743 24.3444 146.743 24.1342 146.813C23.9941 146.813 23.7839 146.883 23.6437 146.883C23.0131 147.023 22.4526 147.233 21.8921 147.513L23.6437 146.462L29.8796 142.749C30.5802 142.399 31.2809 142.118 32.1217 142.048C32.2618 142.048 32.472 141.978 32.6822 141.978L33.2427 141.908L35.695 141.698L37.0964 141.558L46.4151 140.787L49.1477 140.577L50.2687 140.507L54.4727 140.156C54.7529 140.086 55.0332 140.086 55.3135 140.086C56.925 140.016 58.8167 140.577 60.8487 141.698C62.9506 142.889 64.8424 144.641 66.594 146.673L66.6641 146.743C66.8743 147.023 67.0845 147.233 67.2947 147.513L71.7789 153.189L78.225 161.316L79.7664 163.348L81.6582 165.73L84.3207 169.164L87.6138 173.298C88.5246 174.279 89.3654 175.4 90.1361 176.521C90.1361 176.591 90.2062 176.591 90.2062 176.661C90.5565 177.221 90.9069 177.712 91.1871 178.272C92.8687 181.215 94.0598 184.508 94.4802 187.591C94.6203 188.502 94.6904 189.273 94.6904 190.043Z" fill="#F1F2F2" stroke="#231F20" stroke-width="0.201439" stroke-miterlimit="10" stroke-linecap="round" stroke-linejoin="round"/>
    </g>
    <defs>
        <linearGradient id="paint0_linear_1_19911" x1="64.8735" y1="139.252" x2="70.9576" y2="149.88" gradientUnits="userSpaceOnUse">
            <stop stop-color="#59595C"/>
            <stop offset="0.3636" stop-color="#221F1F"/>
            <stop offset="0.6738" stop-color="#808184"/>
            <stop offset="1" stop-color="#424143"/>
        </linearGradient>
        <linearGradient id="paint1_linear_1_19911" x1="89.5882" y1="176.233" x2="99.1579" y2="193.751" gradientUnits="userSpaceOnUse">
            <stop stop-color="#C2B59B"/>
            <stop offset="1" stop-color="#49443A"/>
        </linearGradient>
        <linearGradient id="paint2_linear_1_19911" x1="118.393" y1="201.801" x2="118.25" y2="202.071" gradientUnits="userSpaceOnUse">
            <stop stop-color="#58595B"/>
            <stop offset="1"/>
        </linearGradient>
        <linearGradient id="paint3_linear_1_19911" x1="100.126" y1="208.486" x2="97.3852" y2="158.117" gradientUnits="userSpaceOnUse">
            <stop/>
            <stop offset="1" stop-color="#58595B"/>
        </linearGradient>
        <linearGradient id="paint4_linear_1_19911" x1="29.6023" y1="142.71" x2="39.1719" y2="160.228" gradientUnits="userSpaceOnUse">
            <stop stop-color="#C2B59B"/>
            <stop offset="1" stop-color="#49443A"/>
        </linearGradient>
        <linearGradient id="paint5_linear_1_19911" x1="58.4062" y1="168.278" x2="58.2631" y2="168.548" gradientUnits="userSpaceOnUse">
            <stop stop-color="#58595B"/>
            <stop offset="1"/>
        </linearGradient>
        <linearGradient id="paint6_linear_1_19911" x1="40.1402" y1="174.963" x2="37.3992" y2="124.594" gradientUnits="userSpaceOnUse">
            <stop/>
            <stop offset="1" stop-color="#58595B"/>
        </linearGradient>
        <clipPath id="">
            <rect width="112.526" height="90.3848" fill="white" transform="translate(9 123.201)"/>
        </clipPath>
    </defs>


    <g clip-path="url(#)">
        <path d="M175.687 132.029V140.717L160.973 147.934V139.246C161.113 139.316 161.253 139.316 161.394 139.386C163.706 140.016 165.738 139.806 167.419 139.106C167.489 139.106 167.559 139.036 167.559 139.036C169.311 138.405 170.852 137.424 171.973 136.373C174.706 133.851 175.547 132.239 175.687 132.029C175.687 132.029 175.617 132.029 175.687 132.029Z" fill="#F1F2F2"/>
        <path d="M175.687 132.029V140.717L160.973 147.934V139.246C161.113 139.316 161.253 139.316 161.394 139.386C163.706 140.016 165.738 139.806 167.419 139.106C167.489 139.106 167.559 139.036 167.559 139.036C169.311 138.405 170.852 137.424 171.973 136.373C174.706 133.851 175.547 132.239 175.687 132.029ZM175.687 132.029C175.617 132.029 175.687 132.029 175.687 132.029Z" stroke="#231F20" stroke-width="0.185955" stroke-miterlimit="10" stroke-linecap="round" stroke-linejoin="round"/>
        <path d="M175.686 132.029C175.686 132.029 175.616 132.029 175.686 132.029C175.546 132.239 174.706 133.851 172.043 136.373C170.922 137.424 169.381 138.405 167.629 139.036C167.559 139.036 167.489 139.106 167.489 139.106C165.737 139.806 163.775 140.016 161.463 139.386C161.323 139.316 161.183 139.316 161.043 139.246L132.316 122.64L61.269 81.7217C61.269 81.7217 71.0782 83.6836 75.7026 72.9635L175.686 132.029Z" fill="#939598" stroke="#231F20" stroke-width="0.185955" stroke-miterlimit="10"/>
        <path d="M160.903 139.246V147.934L61.269 90.4799V81.7217L132.176 122.64L160.903 139.246Z" fill="#F1F2F2" stroke="#231F20" stroke-width="0.185955" stroke-miterlimit="10" stroke-linecap="round" stroke-linejoin="round"/>
        <path opacity="0.2" d="M160.903 139.246V147.934L61.269 90.4799V81.7217L132.176 122.64L160.903 139.246Z" fill="black" stroke="#231F20" stroke-width="0.185955" stroke-miterlimit="10"/>
        <path d="M92.3087 61.5428L86.6334 71.4221L76.684 88.6582L60.1485 77.5878L57.6962 75.9763C56.2248 74.7852 55.314 72.7533 55.314 69.8806C55.314 68.5494 55.5242 67.148 55.8745 65.7467C56.7153 62.4536 58.4669 59.1605 60.709 56.498C62.1103 54.8865 63.6518 53.4852 65.3334 52.5744C67.7857 51.1731 70.0978 50.8928 71.7794 51.5934V51.5234L92.2386 61.5428H92.3087Z" fill="url(#paint0_linear_1_19911)"/>
        <path d="M154.177 133.5L169.872 106.385C151.304 95.6649 92.3091 61.5429 92.3091 61.5429C90.2772 60.3517 87.5446 60.5619 84.4617 62.3136C78.4361 65.8869 73.4614 74.435 73.4614 81.5116C73.4614 85.0149 74.7226 87.5372 76.6844 88.6583L154.177 133.5Z" fill="url(#paint1_linear_1_19911)" stroke="#231F20" stroke-width="0.0444042" stroke-miterlimit="10"/>
        <path d="M121.386 114.512L114.87 110.729C112.838 109.538 111.647 107.085 111.647 103.582C111.647 96.5055 116.622 87.9575 122.717 84.3842C124.259 83.4733 125.73 83.0529 126.991 82.9128C128.323 82.7727 129.514 83.0529 130.495 83.6134C130.495 83.6134 132.947 85.0148 137.011 87.397C136.03 86.8365 134.839 86.5562 133.507 86.6963C132.176 86.8365 130.705 87.3269 129.233 88.1677C123.138 91.671 118.163 100.289 118.163 107.366C118.093 110.869 119.354 113.391 121.386 114.512Z" fill="url(#paint2_linear_1_19911)"/>
        <path d="M111.507 108.837L104.991 105.054C102.959 103.862 101.768 101.41 101.768 97.9069C101.768 90.8302 106.743 82.2822 112.838 78.7089C114.38 77.798 115.851 77.3776 117.112 77.2375C118.444 77.0974 119.635 77.3776 120.616 77.9382C120.616 77.9382 123.068 79.3395 127.132 81.7217C126.151 81.1612 124.96 80.8809 123.629 81.021C122.297 81.1612 120.826 81.6516 119.355 82.4924C113.259 85.9957 108.284 94.6138 108.284 101.69C108.284 105.194 109.475 107.646 111.507 108.837Z" fill="url(#paint3_linear_1_19911)"/>
        <path d="M154.177 133.5C154.597 133.781 155.088 133.921 155.578 134.061C161.744 136.513 178.209 141.348 190.961 140.227C193.133 140.016 194.465 137.774 193.554 135.742C188.229 123.971 176.178 111.5 170.993 107.366C170.642 107.015 170.222 106.665 169.802 106.385C167.77 105.194 165.037 105.404 161.954 107.156C155.858 110.659 150.884 119.277 150.884 126.354C150.954 129.857 152.145 132.309 154.177 133.5Z" fill="url(#paint4_linear_1_19911)"/>
        <path d="M97.4942 98.1172L57.4166 99.1682L27.4985 81.8619L39.3396 75.0656L74.5827 84.8748L97.4942 98.1172Z" fill="url(#paint5_linear_1_19911)" stroke="#231F20" stroke-width="0.11708" stroke-miterlimit="10"/>
        <path d="M97.3541 94.8241L57.2765 95.8751L27.3584 78.5688L39.1995 71.7725L74.4426 81.5817L97.3541 94.8241Z" fill="#F1F2F2" stroke="#231F20" stroke-width="0.149871" stroke-miterlimit="10"/>
        <path d="M27.3584 78.5687L27.4985 81.8618L57.4166 99.1681L57.2765 95.875L27.3584 78.5687Z" fill="#BCBEC0" stroke="#231F20" stroke-width="0.11708" stroke-miterlimit="10"/>
        <path d="M97.4946 98.1172L97.3545 94.8241L57.2769 95.8751L57.417 99.1682L97.4946 98.1172Z" fill="#D1D3D4" stroke="#231F20" stroke-width="0.11708" stroke-miterlimit="10"/>
        <path d="M110.526 75.626L91.3981 40.3829L61.48 23.0767V36.7395L87.5444 62.3836L110.526 75.626Z" fill="url(#paint6_linear_1_19911)" stroke="#231F20" stroke-width="0.11708" stroke-miterlimit="10"/>
        <path d="M107.583 77.1674L88.4552 41.9243L58.5371 24.618V38.2809L84.6716 63.9249L107.583 77.1674Z" fill="#F1F2F2" stroke="#231F20" stroke-width="0.149871" stroke-miterlimit="10"/>
        <path opacity="0.2" d="M107.583 77.1674L88.4552 41.9243L58.5371 24.618V38.2809L84.6716 63.9249L107.583 77.1674Z" fill="black" stroke="#231F20" stroke-width="0.185955" stroke-miterlimit="10"/>
        <path d="M58.5371 24.6181L61.4799 23.0767L91.3979 40.3829L88.4552 41.9243L58.5371 24.6181Z" fill="#F1F2F2" stroke="#231F20" stroke-width="0.149871" stroke-miterlimit="10"/>
        <path d="M110.526 75.6259L107.584 77.1673L88.4556 41.9243L91.3983 40.3828L110.526 75.6259Z" fill="#F1F2F2" stroke="#231F20" stroke-width="0.149871" stroke-miterlimit="10"/>
        <path opacity="0.2" d="M107.583 77.1674H96.5128L86.6336 71.4221L60.7793 56.498C62.1806 54.8865 63.7221 53.4852 65.4036 52.5744C67.8559 51.1731 70.1681 50.8928 71.8497 51.5934V51.5234L72.0599 51.6635L84.6717 63.925L107.583 77.1674Z" fill="black" stroke="#231F20" stroke-width="0.185955" stroke-miterlimit="10"/>
    </g>
    <defs>
        <linearGradient id="paint0_linear_1_19911" x1="66.1855" y1="80.85" x2="78.5825" y2="53.4229" gradientUnits="userSpaceOnUse">
            <stop stop-color="#BE1E2D"/>
            <stop offset="0.3636" stop-color="#AA1E23"/>
            <stop offset="0.6989" stop-color="#F5828A"/>
            <stop offset="1" stop-color="#BE1E2D"/>
        </linearGradient>
        <linearGradient id="paint1_linear_1_19911" x1="127.182" y1="81.7221" x2="111.51" y2="108.825" gradientUnits="userSpaceOnUse">
            <stop stop-color="#E6E7E8"/>
            <stop offset="0.3262" stop-color="#F1F2F2"/>
            <stop offset="0.6364" stop-color="#D1D3D4"/>
            <stop offset="1" stop-color="#D1D3D4"/>
        </linearGradient>
        <linearGradient id="paint2_linear_1_19911" x1="129.855" y1="83.269" x2="114.184" y2="110.37" gradientUnits="userSpaceOnUse">
            <stop stop-color="#BE1E2D"/>
            <stop offset="0.3011" stop-color="#F5828A"/>
            <stop offset="0.6364" stop-color="#AA1E23"/>
            <stop offset="1" stop-color="#BE1E2D"/>
        </linearGradient>
        <linearGradient id="paint3_linear_1_19911" x1="120.001" y1="77.5703" x2="104.33" y2="104.671" gradientUnits="userSpaceOnUse">
            <stop stop-color="#BE1E2D"/>
            <stop offset="0.3011" stop-color="#F5828A"/>
            <stop offset="0.6364" stop-color="#AA1E23"/>
            <stop offset="1" stop-color="#BE1E2D"/>
        </linearGradient>
        <linearGradient id="paint4_linear_1_19911" x1="181.771" y1="113.29" x2="166.099" y2="140.392" gradientUnits="userSpaceOnUse">
            <stop stop-color="#BE1E2D"/>
            <stop offset="0.3011" stop-color="#F5828A"/>
            <stop offset="0.6364" stop-color="#AA1E23"/>
            <stop offset="1" stop-color="#BE1E2D"/>
        </linearGradient>
        <linearGradient id="paint5_linear_1_19911" x1="52.0269" y1="96.0349" x2="62.5203" y2="77.8874" gradientUnits="userSpaceOnUse">
            <stop stop-color="#D1D3D4"/>
            <stop offset="0.3636" stop-color="#A7A9AC"/>
            <stop offset="0.6738" stop-color="#F1F2F2"/>
            <stop offset="1" stop-color="#E6E7E8"/>
        </linearGradient>
        <linearGradient id="paint6_linear_1_19911" x1="86.0024" y1="37.2798" x2="75.5079" y2="55.4292" gradientUnits="userSpaceOnUse">
            <stop stop-color="#D1D3D4"/>
            <stop offset="0.3636" stop-color="#A7A9AC"/>
            <stop offset="0.6738" stop-color="#F1F2F2"/>
            <stop offset="1" stop-color="#E6E7E8"/>
        </linearGradient>
        <clipPath id="">
            <rect width="166.686" height="125.137" fill="white" transform="translate(27.2168 23.0066)"/>
        </clipPath>
    </defs>

</svg>
