<svg width="230" height="230" viewBox="0 0 230 230" fill="none"
    xmlns="http://www.w3.org/2000/svg">

    <g clip-path="url(#)">
        <path d="M140.303 114.583L173.304 133.851L190.54 124.812L136.379 91.6011L140.303 114.583Z" fill="#F1F2F2" stroke="#231F20" stroke-width="0.201439" stroke-miterlimit="10" stroke-linecap="round" stroke-linejoin="round"/>
        <path opacity="0.2" d="M140.303 114.583L173.304 133.851L190.54 124.812L136.379 91.6011L140.303 114.583Z" fill="black" stroke="#231F20" stroke-width="0.0802954" stroke-miterlimit="10"/>
        <path d="M109.824 103.652C109.824 103.652 103.729 97.4865 102.678 109.047C101.557 120.538 101.557 120.538 101.557 120.538L113.117 137.914L126.64 139.316L127.621 132.309L109.824 103.652Z" fill="#49443A" stroke="#231F20" stroke-width="0.225612" stroke-miterlimit="10" stroke-linecap="round" stroke-linejoin="round"/>
        <path d="M133.997 124.742C133.997 125.583 133.927 126.354 133.857 127.124C133.717 127.825 133.577 128.456 133.367 129.086C132.876 130.488 132.035 131.538 131.054 132.239C130.073 132.94 128.882 133.29 127.551 133.36C127.481 133.36 127.341 133.36 127.271 133.36C125.799 133.36 124.118 132.87 122.296 131.889C122.226 131.889 122.226 131.819 122.156 131.819C115.43 128.035 109.965 118.787 109.895 111.219C109.895 110.869 109.895 110.449 109.895 110.098C109.965 108.417 110.385 107.015 110.946 105.894C110.946 105.824 111.016 105.754 111.086 105.684C111.786 104.423 112.767 103.512 114.028 103.022C115.079 102.601 116.271 102.461 117.602 102.671C118.583 102.812 119.704 103.162 120.825 103.722C121.105 103.863 121.455 104.003 121.736 104.213C121.876 104.283 122.016 104.353 122.226 104.493C122.296 104.493 122.296 104.563 122.366 104.563C127.761 109.748 132.035 117.035 133.927 124.182C133.927 124.252 133.927 124.252 133.927 124.322C133.997 124.392 133.997 124.532 133.997 124.742Z" fill="#6E6657" stroke="#231F20" stroke-width="0.225612" stroke-miterlimit="10" stroke-linecap="round" stroke-linejoin="round"/>
        <path d="M107.933 115.493C108.003 121.169 112.066 128.035 117.041 130.838C119.704 132.309 122.016 132.379 123.627 131.188C124.398 130.628 124.959 129.857 125.379 128.806C125.519 128.385 125.659 127.895 125.729 127.334C125.799 126.774 125.869 126.213 125.869 125.583C125.799 119.907 121.736 113.041 116.761 110.238C116.551 110.098 116.341 110.028 116.06 109.888C115.219 109.468 114.379 109.257 113.678 109.117C112.697 108.977 111.786 109.047 111.016 109.398C109.124 110.238 107.933 112.34 107.933 115.493Z" fill="#928874" stroke="#231F20" stroke-width="0.225612" stroke-miterlimit="10" stroke-linecap="round" stroke-linejoin="round"/>
        <path d="M111.086 109.398C111.857 109.047 112.768 108.977 113.748 109.117C114.519 109.257 115.29 109.468 116.131 109.888C116.341 110.028 116.551 110.098 116.831 110.238C121.806 113.041 125.87 119.907 125.94 125.583C125.94 126.213 125.87 126.774 125.8 127.334C125.73 127.825 125.59 128.315 125.449 128.806C125.099 129.857 124.468 130.628 123.698 131.188L128.532 128.315L128.602 128.245C130.214 127.334 131.195 125.303 131.195 122.43C131.125 116.755 127.061 109.888 122.086 107.085C119.914 105.894 117.952 105.614 116.411 106.245L115.15 106.945L111.086 109.398Z" fill="url(#paint0_linear_1_19911)" stroke="#231F20" stroke-width="0.225612" stroke-miterlimit="10" stroke-linecap="round" stroke-linejoin="round"/>
        <path d="M133.997 124.322C133.997 124.252 133.997 124.252 133.927 124.181C131.965 116.965 127.691 109.748 122.366 104.563C122.296 104.493 122.296 104.493 122.226 104.423C120.264 102.531 118.162 100.99 115.99 99.7285C115.5 99.4483 115.009 99.2381 114.589 99.0279C112.837 98.1871 111.156 97.6266 109.544 97.4164C107.512 97.1361 105.621 97.3463 104.009 97.9769H103.939C99.8751 99.6585 97.3527 104.143 97.4228 110.729C97.5629 122.64 106.111 137.074 116.551 142.959C122.086 146.042 127.061 146.112 130.494 143.66C132.105 142.539 133.296 140.857 134.137 138.685C134.488 137.774 134.768 136.723 134.908 135.602C135.118 134.481 135.188 133.22 135.188 131.889C135.048 129.436 134.698 126.844 133.997 124.322ZM127.201 133.29C126.71 134.201 126.08 134.972 125.309 135.532C123.137 137.074 119.984 137.074 116.411 135.042C109.754 131.328 104.289 122.15 104.219 114.512C104.149 110.308 105.761 107.436 108.353 106.385C109.124 106.034 110.035 105.894 111.016 105.894C111.086 105.894 111.156 105.894 111.226 105.894C111.436 105.894 111.716 105.964 111.926 105.964C112.907 106.105 114.028 106.455 115.149 106.945C115.43 107.085 115.78 107.226 116.06 107.436C122.717 111.149 128.182 120.398 128.252 127.965C128.252 128.105 128.252 128.245 128.252 128.385C128.252 129.086 128.182 129.717 128.112 130.347C127.971 131.048 127.831 131.679 127.621 132.309C127.481 132.729 127.341 133.01 127.201 133.29Z" fill="#231F20" stroke="#231F20" stroke-width="0.225612" stroke-miterlimit="10" stroke-linecap="round" stroke-linejoin="round"/>
        <path d="M125.449 85.295L125.379 85.3651C126.01 85.0147 126.57 84.6644 126.92 84.4542L125.449 85.295ZM133.927 124.111C131.965 116.895 127.691 109.678 122.366 104.493C122.296 104.423 122.296 104.423 122.226 104.353V104.423C122.506 105.614 122.927 106.735 123.347 107.926C125.099 112.691 127.831 117.315 131.124 121.239C132.035 122.29 133.016 123.341 133.997 124.322C133.997 124.322 133.997 124.322 134.067 124.322C133.997 124.252 133.997 124.182 133.927 124.111ZM152.705 130.558C153.195 130.347 153.686 130.067 154.176 129.717L152.705 130.558Z" fill="#231F20" stroke="#231F20" stroke-width="0.225612" stroke-miterlimit="10" stroke-linecap="round" stroke-linejoin="round"/>
        <path d="M155.927 128.245C155.787 128.385 155.647 128.456 155.577 128.526C155.717 128.456 155.787 128.385 155.927 128.245Z" fill="url(#paint1_linear_1_19911)" stroke="#231F20" stroke-width="0.225612" stroke-miterlimit="10" stroke-linecap="round" stroke-linejoin="round"/>
        <path d="M158.801 117.946C158.801 119.277 158.731 120.538 158.521 121.659C158.381 122.78 158.1 123.761 157.75 124.672C156.979 126.844 155.718 128.526 154.107 129.647L152.635 130.488L130.424 143.59C132.036 142.469 133.227 140.787 134.068 138.615C134.418 137.704 134.698 136.653 134.838 135.532C135.049 134.411 135.119 133.15 135.119 131.819C135.119 129.366 134.698 126.844 133.998 124.252C133.998 124.182 133.998 124.182 133.928 124.112C131.966 116.895 127.692 109.678 122.367 104.493C122.297 104.423 122.297 104.423 122.227 104.353C120.265 102.461 118.163 100.92 115.991 99.6586C115.5 99.3783 115.01 99.1681 114.589 98.9579C112.838 98.1171 111.156 97.5566 109.545 97.3464C107.513 97.0661 105.621 97.2763 104.01 97.9069H103.939L125.52 85.225L125.45 85.2951C126.08 84.9448 126.641 84.5944 126.991 84.3842C127.061 84.3842 127.061 84.3142 127.131 84.3142C127.201 84.3142 127.271 84.2441 127.271 84.2441C127.341 84.2441 127.411 84.174 127.411 84.174C127.482 84.174 127.482 84.104 127.552 84.104L127.622 84.0339C129.303 83.3333 131.195 83.1231 133.227 83.4033C134.838 83.6135 136.52 84.174 138.272 85.0148C138.762 85.225 139.183 85.5053 139.673 85.7155C141.915 86.9767 144.087 88.5882 146.049 90.55C151.444 95.7349 155.718 103.022 157.61 110.168C158.381 112.831 158.801 115.423 158.801 117.946Z" fill="url(#paint2_linear_1_19911)" stroke="#231F20" stroke-width="0.225612" stroke-miterlimit="10" stroke-linecap="round" stroke-linejoin="round"/>
        <path d="M126.92 84.4542C126.5 84.6644 126.009 85.0147 125.379 85.3651L125.449 85.295L126.92 84.4542Z" fill="#C49A6C" stroke="#231F20" stroke-width="0.225612" stroke-miterlimit="10" stroke-linecap="round" stroke-linejoin="round"/>
        <path d="M154.667 129.717C154.667 129.717 148.571 123.551 147.52 135.112C146.469 146.673 146.469 146.673 146.469 146.673L158.03 164.049L171.553 165.45L172.534 158.444L154.667 129.717Z" fill="#49443A" stroke="#231F20" stroke-width="0.225612" stroke-miterlimit="10" stroke-linecap="round" stroke-linejoin="round"/>
        <path d="M178.839 150.807C178.839 151.647 178.769 152.418 178.699 153.189C178.559 153.889 178.419 154.52 178.209 155.151C177.718 156.552 176.878 157.603 175.897 158.304C174.916 159.004 173.725 159.425 172.393 159.425C172.323 159.425 172.183 159.425 172.113 159.425C170.642 159.355 168.96 158.934 167.138 157.953C167.068 157.953 167.068 157.883 166.998 157.883C160.272 154.1 154.807 144.921 154.737 137.284C154.737 136.934 154.737 136.513 154.737 136.163C154.807 134.481 155.227 133.08 155.788 131.959C155.788 131.889 155.858 131.819 155.928 131.749C156.629 130.487 157.61 129.577 158.871 129.086C159.922 128.666 161.113 128.526 162.444 128.736C163.495 128.876 164.546 129.226 165.667 129.787C165.947 129.927 166.298 130.067 166.578 130.277C166.718 130.347 166.858 130.417 167.068 130.558C167.138 130.558 167.138 130.628 167.209 130.628C172.604 135.812 176.878 143.099 178.769 150.246C178.769 150.316 178.769 150.316 178.769 150.386C178.839 150.456 178.839 150.666 178.839 150.807Z" fill="#6E6657" stroke="#231F20" stroke-width="0.225612" stroke-miterlimit="10" stroke-linecap="round" stroke-linejoin="round"/>
        <path d="M152.845 141.558C152.915 147.233 156.979 154.1 161.954 156.902C164.616 158.374 166.928 158.444 168.54 157.253C169.311 156.692 169.871 155.921 170.292 154.87C170.432 154.45 170.572 153.96 170.642 153.399C170.712 152.838 170.782 152.278 170.782 151.647C170.712 145.972 166.648 139.106 161.673 136.303C161.463 136.163 161.253 136.093 160.973 135.953C160.132 135.532 159.291 135.322 158.591 135.182C157.61 135.042 156.699 135.112 155.928 135.462C153.966 136.303 152.775 138.405 152.845 141.558Z" fill="#928874" stroke="#231F20" stroke-width="0.225612" stroke-miterlimit="10" stroke-linecap="round" stroke-linejoin="round"/>
        <path d="M155.928 135.462C156.699 135.112 157.61 135.042 158.591 135.182C159.361 135.322 160.132 135.532 160.973 135.953C161.183 136.093 161.393 136.163 161.674 136.303C166.648 139.106 170.712 145.972 170.782 151.647C170.782 152.278 170.712 152.839 170.642 153.399C170.572 153.889 170.432 154.38 170.292 154.87C169.941 155.921 169.311 156.692 168.54 157.253L173.375 154.38L173.445 154.31C175.056 153.399 176.037 151.367 176.037 148.494C175.967 142.819 171.903 135.953 166.929 133.15C164.757 131.959 162.795 131.679 161.253 132.309L159.992 133.01L155.928 135.462Z" fill="url(#paint3_linear_1_19911)" stroke="#231F20" stroke-width="0.225612" stroke-miterlimit="10" stroke-linecap="round" stroke-linejoin="round"/>
        <path d="M178.84 150.386C178.84 150.316 178.84 150.316 178.77 150.246C176.808 143.029 172.534 135.812 167.209 130.628C167.139 130.557 167.139 130.557 167.069 130.487C165.107 128.596 163.005 127.054 160.833 125.793C160.342 125.513 159.852 125.303 159.431 125.092C157.68 124.252 155.998 123.691 154.387 123.481C152.355 123.201 150.463 123.411 148.852 124.041C144.788 125.723 142.265 130.207 142.335 136.793C142.476 148.704 151.024 163.138 161.463 169.024C166.999 172.106 171.973 172.177 175.406 169.724C177.018 168.603 178.209 166.922 179.05 164.75C179.4 163.839 179.68 162.788 179.821 161.667C180.031 160.546 180.101 159.284 180.101 157.953C179.891 155.501 179.54 152.908 178.84 150.386ZM170.152 161.597C167.979 163.138 164.827 163.138 161.253 161.106C154.597 157.393 149.132 148.144 149.062 140.577C148.992 136.373 150.603 133.5 153.196 132.449C153.966 132.099 154.877 131.959 155.858 131.959C155.928 131.959 155.998 131.959 156.068 131.959C156.278 131.959 156.559 131.959 156.769 132.029C157.75 132.169 158.871 132.519 159.992 133.01C160.272 133.15 160.623 133.29 160.903 133.5C167.559 137.214 173.024 146.462 173.094 154.029C173.094 154.17 173.094 154.31 173.094 154.45C173.094 155.151 173.024 155.781 172.954 156.412C172.814 157.112 172.674 157.743 172.464 158.374C172.324 158.724 172.183 159.004 172.043 159.354C171.553 160.335 170.922 161.036 170.152 161.597Z" fill="#231F20" stroke="#231F20" stroke-width="0.225612" stroke-miterlimit="10" stroke-linecap="round" stroke-linejoin="round"/>
        <path d="M170.291 111.36C170.221 111.36 170.221 111.43 170.221 111.43C170.852 111.079 171.412 110.729 171.763 110.519L170.291 111.36ZM178.839 150.176C176.877 142.959 172.603 135.743 167.278 130.558C167.208 130.488 167.208 130.488 167.138 130.418V130.488C167.418 131.679 167.839 132.8 168.259 133.991C170.011 138.755 172.743 143.38 176.037 147.303C176.947 148.354 177.928 149.405 178.909 150.386C178.839 150.316 178.839 150.246 178.839 150.176ZM197.547 156.622C198.037 156.412 198.528 156.132 199.018 155.781L197.547 156.622Z" fill="#231F20" stroke="#231F20" stroke-width="0.225612" stroke-miterlimit="10" stroke-linecap="round" stroke-linejoin="round"/>
        <path d="M200.77 154.31C200.63 154.45 200.489 154.52 200.419 154.59C200.56 154.52 200.63 154.45 200.77 154.31Z" fill="url(#paint4_linear_1_19911)" stroke="#231F20" stroke-width="0.225612" stroke-miterlimit="10" stroke-linecap="round" stroke-linejoin="round"/>
        <path d="M203.643 144.01C203.643 145.341 203.573 146.603 203.362 147.724C203.222 148.845 202.942 149.826 202.592 150.737C201.821 152.909 200.56 154.59 198.948 155.711L197.477 156.552L175.196 169.584C176.808 168.463 177.999 166.782 178.839 164.61C179.19 163.699 179.47 162.648 179.61 161.527C179.82 160.406 179.89 159.144 179.89 157.813C179.89 155.361 179.47 152.839 178.769 150.246C178.769 150.176 178.769 150.176 178.699 150.106C176.737 142.889 172.463 135.672 167.138 130.488C167.068 130.417 167.068 130.417 166.998 130.347C165.037 128.456 162.935 126.914 160.762 125.653C160.272 125.373 159.782 125.163 159.361 124.952C157.61 124.112 155.928 123.551 154.316 123.341C152.285 123.061 150.393 123.271 148.781 123.901L170.362 111.29C170.291 111.29 170.291 111.36 170.291 111.36C170.922 111.009 171.483 110.659 171.833 110.449C171.903 110.449 171.903 110.379 171.973 110.379C172.043 110.379 172.113 110.309 172.113 110.309C172.183 110.239 172.253 110.239 172.253 110.239C172.323 110.239 172.323 110.168 172.393 110.168L172.463 110.098C174.145 109.398 176.037 109.188 178.069 109.538C179.68 109.748 181.362 110.309 183.113 111.149C183.604 111.36 184.024 111.64 184.515 111.85C186.757 113.111 188.929 114.723 190.891 116.685C196.286 121.869 200.56 129.156 202.452 136.303C203.222 138.895 203.643 141.558 203.643 144.01Z" fill="url(#paint5_linear_1_19911)" stroke="#231F20" stroke-width="0.225612" stroke-miterlimit="10" stroke-linecap="round" stroke-linejoin="round"/>
        <path d="M203.643 144.01C203.643 145.341 203.573 146.603 203.362 147.724C203.222 148.845 202.942 149.826 202.592 150.737C201.821 152.909 200.56 154.59 198.948 155.711L197.477 156.552L175.196 169.584C176.808 168.463 177.999 166.782 178.839 164.61C179.19 163.699 179.47 162.648 179.61 161.527C179.82 160.406 179.89 159.144 179.89 157.813C179.89 155.361 179.47 152.839 178.769 150.246C178.769 150.176 178.769 150.176 178.699 150.106C176.737 142.889 172.463 135.672 167.138 130.488C167.068 130.417 167.068 130.417 166.998 130.347C165.037 128.456 162.935 126.914 160.762 125.653C160.272 125.373 159.782 125.163 159.361 124.952C157.61 124.112 155.928 123.551 154.316 123.341C152.285 123.061 150.393 123.271 148.781 123.901L170.362 111.29C170.291 111.29 170.291 111.36 170.291 111.36C170.922 111.009 171.483 110.659 171.833 110.449C171.903 110.449 171.903 110.379 171.973 110.379C172.043 110.379 172.113 110.309 172.113 110.309C172.183 110.239 172.253 110.239 172.253 110.239C172.323 110.239 172.323 110.168 172.393 110.168L172.463 110.098C174.145 109.398 176.037 109.188 178.069 109.538C179.68 109.748 181.362 110.309 183.113 111.149C183.394 111.29 183.674 111.43 183.884 111.57L183.464 111.78L172.043 118.086L163.635 123.131V126.214L172.043 121.309L172.323 121.169L186.336 113.462L186.687 113.251C187.037 113.462 187.387 113.742 187.668 113.952C188.579 114.653 189.489 115.423 190.33 116.194C190.47 116.334 190.681 116.544 190.821 116.685C196.216 121.869 200.49 129.156 202.382 136.303C203.222 138.895 203.643 141.558 203.643 144.01Z" fill="url(#paint6_linear_1_19911)" stroke="#231F20" stroke-width="0.225612" stroke-miterlimit="10" stroke-linecap="round" stroke-linejoin="round"/>
        <path d="M186.757 113.181L186.407 113.391L172.394 121.099L172.113 121.239L163.706 126.143V123.06L172.113 118.016L183.534 111.71L183.955 111.5C184.165 111.64 184.375 111.71 184.585 111.85C185.286 112.27 186.057 112.691 186.757 113.181Z" fill="url(#paint7_linear_1_19911)" stroke="#231F20" stroke-width="0.225612" stroke-miterlimit="10" stroke-linecap="round" stroke-linejoin="round"/>
        <path d="M171.763 110.519C171.413 110.729 170.852 111.079 170.222 111.43L170.292 111.36L171.763 110.519Z" fill="#C49A6C" stroke="#231F20" stroke-width="0.225612" stroke-miterlimit="10" stroke-linecap="round" stroke-linejoin="round"/>
        <g opacity="0.2">
            <path opacity="0.2" d="M188.579 115.634L181.572 119.487L170.151 125.793L164.686 129.086L110.105 98.0472L115.57 94.6841L126.5 88.4482L133.997 84.1742L188.579 115.634Z" fill="black" stroke="#231F20" stroke-width="0.210688" stroke-miterlimit="10"/>
        </g>
        <path d="M190.54 107.856L183.534 111.71L172.113 118.016L163.705 123.061L109.054 92.0215L117.532 86.9067L128.462 80.6709L136.029 76.3268L190.54 107.856Z" fill="#F1F2F2" stroke="#231F20" stroke-width="0.201439" stroke-miterlimit="10" stroke-linecap="round" stroke-linejoin="round"/>
        <path d="M163.705 123.061V126.144L109.054 94.1935V92.0215L163.705 123.061Z" fill="#F1F2F2" stroke="#231F20" stroke-width="0.201439" stroke-miterlimit="10" stroke-linecap="round" stroke-linejoin="round"/>
        <path opacity="0.14" d="M163.705 123.061V126.144L109.054 94.1935V92.0215L163.705 123.061Z" fill="black" stroke="#231F20" stroke-width="0.201439" stroke-miterlimit="10"/>
        <path d="M190.54 107.856L190.4 116.194C189.559 115.353 188.648 114.653 187.738 113.952V112.691L186.757 113.251L186.406 113.462L172.393 121.169L172.113 121.309L163.705 126.214V123.131L172.113 118.086L183.534 111.78L183.954 111.57L190.54 107.856Z" fill="#F1F2F2" stroke="#231F20" stroke-width="0.201439" stroke-miterlimit="10" stroke-linecap="round" stroke-linejoin="round"/>
    </g>
    <defs>
        <linearGradient id="paint0_linear_1_19911" x1="117.885" y1="108.101" x2="127.455" y2="125.619" gradientUnits="userSpaceOnUse">
            <stop stop-color="#C2B59B"/>
            <stop offset="1" stop-color="#49443A"/>
        </linearGradient>
        <linearGradient id="paint1_linear_1_19911" x1="155.814" y1="128.262" x2="155.671" y2="128.532" gradientUnits="userSpaceOnUse">
            <stop stop-color="#58595B"/>
            <stop offset="1"/>
        </linearGradient>
        <linearGradient id="paint2_linear_1_19911" x1="133.65" y1="143.321" x2="130.125" y2="88.5171" gradientUnits="userSpaceOnUse">
            <stop/>
            <stop offset="1" stop-color="#58595B"/>
        </linearGradient>
        <linearGradient id="paint3_linear_1_19911" x1="162.734" y1="134.172" x2="172.303" y2="151.69" gradientUnits="userSpaceOnUse">
            <stop stop-color="#C2B59B"/>
            <stop offset="1" stop-color="#49443A"/>
        </linearGradient>
        <linearGradient id="paint4_linear_1_19911" x1="200.662" y1="154.333" x2="200.519" y2="154.603" gradientUnits="userSpaceOnUse">
            <stop stop-color="#58595B"/>
            <stop offset="1"/>
        </linearGradient>
        <linearGradient id="paint5_linear_1_19911" x1="178.902" y1="167.153" x2="174.518" y2="112.434" gradientUnits="userSpaceOnUse">
            <stop/>
            <stop offset="1" stop-color="#58595B"/>
        </linearGradient>
        <linearGradient id="paint6_linear_1_19911" x1="175.714" y1="163.106" x2="176.671" y2="108.219" gradientUnits="userSpaceOnUse">
            <stop/>
            <stop offset="1" stop-color="#58595B"/>
        </linearGradient>
        <linearGradient id="paint7_linear_1_19911" x1="175.626" y1="124.693" x2="174.68" y2="112.877" gradientUnits="userSpaceOnUse">
            <stop/>
            <stop offset="1" stop-color="#58595B"/>
        </linearGradient>
        <clipPath id="">
            <rect width="106.5" height="95.2894" fill="white" transform="translate(97.2832 76.2566)"/>
        </clipPath>
    </defs>


    <g clip-path="url(#)">
        <path d="M65.8939 95.805C65.1232 96.5757 64.3524 96.8559 63.6518 96.7859C63.5117 96.7859 63.3715 96.7158 63.3015 96.7158C63.2314 96.7158 63.2314 96.7158 63.1613 96.6457C63.0212 96.5757 62.9511 96.5056 62.811 96.4355C62.7409 96.4355 62.7409 96.3655 62.6709 96.3655C62.5307 96.2954 62.4607 96.1553 62.3906 96.0152C62.1804 95.7349 61.9702 95.3145 61.8301 94.824C61.8301 94.754 61.76 94.6839 61.76 94.6138C61.76 94.5438 61.6899 94.4737 61.6899 94.3336C61.6899 94.2635 61.6899 94.1934 61.6899 94.1234C61.6899 94.0533 61.6899 94.0533 61.6899 93.9832V93.9132C61.6899 93.773 61.6899 93.703 61.6899 93.5629C61.6899 93.4227 61.6899 93.3527 61.6899 93.2125C61.6899 93.0724 61.6899 93.0023 61.6899 92.8622V92.7921C61.6899 92.652 61.6899 92.5819 61.6899 92.4418C61.6899 92.3017 61.6899 92.1615 61.76 92.0915C61.76 92.0214 61.76 91.8813 61.8301 91.8112V91.6711C61.8301 91.601 61.8301 91.4609 61.9001 91.3908C61.9702 91.1106 62.0403 90.8303 62.1103 90.6201C62.1103 90.48 62.1804 90.4099 62.1804 90.2698C62.2505 90.1296 62.2505 90.0596 62.3205 89.9194C62.3906 89.7092 62.5307 89.429 62.6008 89.2188C62.7409 89.0086 62.811 88.7984 62.9511 88.5882C63.0212 88.5181 63.0913 88.378 63.1613 88.3079C63.3015 88.0977 63.4416 87.9576 63.5817 87.7474C63.7218 87.6073 63.862 87.3971 64.0021 87.2569L64.0722 87.1869C64.1422 87.1168 64.1422 87.1168 64.2123 87.0467C64.2824 86.9767 64.2824 86.9767 64.3524 86.9066C64.4225 86.8365 64.4225 86.8365 64.4926 86.8365C64.7028 86.6964 64.8429 86.6263 65.0531 86.4862C65.1232 86.4862 65.1232 86.4161 65.1932 86.4161C65.2633 86.4161 65.2633 86.3461 65.3334 86.3461C65.4034 86.3461 65.4735 86.276 65.4735 86.276C65.5436 86.276 65.5436 86.276 65.6136 86.276C65.6837 86.276 65.6837 86.276 65.7538 86.276C66.034 86.2059 66.2442 86.276 66.4544 86.276C67.2952 86.4862 67.9258 87.1869 68.2061 88.4481C68.6265 90.8303 67.6455 94.1234 65.8939 95.805Z" fill="#F1F2F2" stroke="#231F20" stroke-width="0.201439" stroke-miterlimit="10" stroke-linecap="round" stroke-linejoin="round"/>
        <path opacity="0.2" d="M65.8939 95.805C65.1232 96.5757 64.3524 96.8559 63.6518 96.7859C63.5117 96.7859 63.3715 96.7158 63.3015 96.7158C63.2314 96.7158 63.2314 96.7158 63.1613 96.6457C63.0212 96.5757 62.9511 96.5056 62.811 96.4355C62.7409 96.4355 62.7409 96.3655 62.6709 96.3655C62.5307 96.2954 62.4607 96.1553 62.3906 96.0152C62.1804 95.7349 61.9702 95.3145 61.8301 94.824C61.8301 94.754 61.76 94.6839 61.76 94.6138C61.76 94.5438 61.6899 94.4737 61.6899 94.3336C61.6899 94.2635 61.6899 94.1934 61.6899 94.1234C61.6899 94.0533 61.6899 94.0533 61.6899 93.9832V93.9132C61.6899 93.773 61.6899 93.703 61.6899 93.5629C61.6899 93.4227 61.6899 93.3527 61.6899 93.2125C61.6899 93.0724 61.6899 93.0023 61.6899 92.8622V92.7921C61.6899 92.652 61.6899 92.5819 61.6899 92.4418C61.6899 92.3017 61.6899 92.1615 61.76 92.0915C61.76 92.0214 61.76 91.8813 61.8301 91.8112V91.6711C61.8301 91.601 61.8301 91.4609 61.9001 91.3908C61.9702 91.1106 62.0403 90.8303 62.1103 90.6201C62.1103 90.48 62.1804 90.4099 62.1804 90.2698C62.2505 90.1296 62.2505 90.0596 62.3205 89.9194C62.3906 89.7092 62.5307 89.429 62.6008 89.2188C62.7409 89.0086 62.811 88.7984 62.9511 88.5882C63.0212 88.5181 63.0913 88.378 63.1613 88.3079C63.3015 88.0977 63.4416 87.9576 63.5817 87.7474C63.7218 87.6073 63.862 87.3971 64.0021 87.2569L64.0722 87.1869C64.1422 87.1168 64.1422 87.1168 64.2123 87.0467C64.2824 86.9767 64.2824 86.9767 64.3524 86.9066C64.4225 86.8365 64.4225 86.8365 64.4926 86.8365C64.7028 86.6964 64.8429 86.6263 65.0531 86.4862C65.1232 86.4862 65.1232 86.4161 65.1932 86.4161C65.2633 86.4161 65.2633 86.3461 65.3334 86.3461C65.4034 86.3461 65.4735 86.276 65.4735 86.276C65.5436 86.276 65.5436 86.276 65.6136 86.276C65.6837 86.276 65.6837 86.276 65.7538 86.276C66.034 86.2059 66.2442 86.276 66.4544 86.276C67.2952 86.4862 67.9258 87.1869 68.2061 88.4481C68.6265 90.8303 67.6455 94.1234 65.8939 95.805Z" fill="black" stroke="#231F20" stroke-width="0.209427" stroke-miterlimit="10"/>
        <path d="M66.3143 86.3459C66.1041 86.2759 65.8238 86.2759 65.6136 86.3459C65.5435 86.3459 65.5435 86.3459 65.4735 86.3459C65.4034 86.3459 65.4034 86.3459 65.3333 86.3459C65.2633 86.3459 65.1932 86.3459 65.1932 86.416C65.1231 86.416 65.1231 86.416 65.0531 86.4861C64.983 86.4861 64.983 86.5561 64.9129 86.5561C64.7028 86.6262 64.5626 86.7663 64.3524 86.9065C64.2824 86.9065 64.2824 86.9765 64.2123 86.9765C64.1422 86.9765 64.1422 87.0466 64.0722 87.1167C64.0021 87.1867 64.0021 87.1867 63.932 87.2568L63.862 87.3269C63.7218 87.467 63.5817 87.6071 63.4416 87.8173C63.3014 87.9574 63.1613 88.1676 63.0212 88.3778C62.9511 88.4479 62.881 88.588 62.811 88.6581C62.6708 88.8683 62.5307 89.0785 62.4606 89.2887C62.3205 89.4989 62.2504 89.7792 62.1804 89.9894C62.1103 90.1295 62.1103 90.1996 62.0403 90.3397C61.9702 90.4798 61.9702 90.5499 61.9702 90.69C61.9001 90.9703 61.8301 91.2505 61.76 91.4607C61.76 91.5308 61.6899 91.6709 61.6899 91.741V91.8811C61.6899 91.9512 61.6899 92.0913 61.6199 92.1614C61.6199 92.3015 61.6199 92.4417 61.5498 92.5117C61.5498 92.6519 61.5498 92.7219 61.5498 92.862V92.9321C61.5498 93.0722 61.5498 93.1423 61.5498 93.2824C61.5498 93.4226 61.5498 93.4926 61.5498 93.6328C61.5498 93.7729 61.5498 93.843 61.5498 93.9831V94.0532C61.5498 94.1232 61.5498 94.1232 61.5498 94.1933C61.5498 94.2634 61.5498 94.3334 61.5498 94.4035C61.5498 94.4736 61.6199 94.5436 61.6199 94.6838C61.6199 94.7538 61.6899 94.8239 61.6899 94.894C61.8301 95.3844 62.0403 95.7347 62.2504 96.0851C62.3205 96.2252 62.4606 96.2953 62.5307 96.4354C62.6008 96.4354 62.6008 96.5055 62.6708 96.5055C62.811 96.5755 62.881 96.6456 63.0212 96.7157C63.0912 96.7157 63.0912 96.7157 63.1613 96.7857L61.0593 96.2252C60.9893 96.2252 60.8491 96.1551 60.7791 96.1551H60.709C60.0083 95.8749 59.5179 95.1742 59.2376 94.1232C58.6771 91.6709 59.5879 88.4479 61.2695 86.7663C61.3396 86.6963 61.3396 86.6963 61.4097 86.6262C61.4797 86.5561 61.4797 86.5561 61.5498 86.4861C62.2504 85.8555 63.0212 85.5752 63.6518 85.6453L64.1422 85.7854L66.3143 86.3459Z" fill="#F1F2F2" stroke="#231F20" stroke-width="0.201439" stroke-miterlimit="10" stroke-linecap="round" stroke-linejoin="round"/>
        <path d="M72.6205 94.6838V104.213C72.6205 104.703 72.2702 105.194 71.6396 105.614C70.8688 106.034 69.8179 106.245 68.8369 106.175C68.1363 106.105 67.4356 105.964 66.8751 105.614C66.2445 105.264 65.8942 104.703 65.8942 104.213V98.7476C65.8942 98.7476 65.8942 98.5374 65.8942 98.2572C65.8241 97.9068 65.684 97.3463 65.2636 96.8558C64.9133 96.4354 64.4929 96.0851 63.7221 95.7348C63.3718 95.5947 63.1616 95.3144 63.0215 94.9641C63.0215 94.9641 63.0215 94.9641 63.0215 94.894C63.0215 94.8239 62.9514 94.7539 62.9514 94.6838C62.9514 94.6137 62.8813 94.5437 62.8813 94.4035C62.8813 94.3335 62.8813 94.2634 62.8813 94.1933C62.8813 94.1233 62.8813 94.1233 62.8813 94.0532V93.9831C62.8813 93.843 62.8813 93.7729 62.8813 93.6328C62.8813 93.4927 62.8813 93.3526 62.8813 93.2825C62.8813 93.2124 62.8813 93.0723 62.8813 92.9322V92.8621C62.8813 92.792 62.8813 92.6519 62.8813 92.5118C62.8813 92.3716 62.8813 92.2315 62.9514 92.1614C62.9514 92.0914 62.9514 91.9512 63.0215 91.8812V91.741C63.0215 91.671 63.0215 91.5308 63.0915 91.4608C63.1616 91.1805 63.2317 90.9003 63.3017 90.6901C63.3017 90.5499 63.3718 90.4799 63.3718 90.3397C63.4419 90.1996 63.4419 90.1295 63.5119 89.9894C63.582 89.7792 63.7221 89.4989 63.7922 89.2887C63.9323 89.0785 64.0024 88.8683 64.1425 88.6581C64.2126 88.5881 64.2827 88.448 64.3527 88.3779C64.3527 88.3078 64.4228 88.3078 64.4228 88.2378C64.9133 87.6072 65.5438 87.397 65.684 87.397C66.3846 87.2568 67.0853 87.1868 67.7159 87.1868C68.0662 87.1868 68.4165 87.2568 68.7669 87.3269C69.4675 87.467 70.0281 87.8174 70.5886 88.3078C70.7287 88.518 70.9389 88.6581 71.079 88.7983C71.7096 89.6391 72.2001 90.8302 72.4804 92.5118C72.6205 93.1424 72.6205 93.843 72.6205 94.6838Z" fill="#F1F2F2" stroke="#231F20" stroke-width="0.201439" stroke-miterlimit="10" stroke-linecap="round" stroke-linejoin="round"/>
        <path d="M65.8242 98.2572C65.8242 98.5375 65.8242 98.7477 65.8242 98.7477V98.2572Z" fill="url(#paint0_linear_1_19911)" stroke="#231F20" stroke-width="0.190369" stroke-miterlimit="10" stroke-linecap="round" stroke-linejoin="round"/>
        <path d="M71.0788 88.7983C70.9387 88.6582 70.7986 88.448 70.5884 88.3079C70.7986 88.3779 70.9387 88.5881 71.0788 88.7983Z" fill="url(#paint1_linear_1_19911)" stroke="#231F20" stroke-width="0.190369" stroke-miterlimit="10" stroke-linecap="round" stroke-linejoin="round"/>
        <path opacity="0.2" d="M72.6199 94.6838V104.213C72.6199 104.703 72.2696 105.194 71.639 105.614C70.8683 106.034 69.8173 106.245 68.8364 106.175C69.1166 106.105 69.3969 105.964 69.6772 105.824C70.3778 105.404 70.7282 104.913 70.7282 104.423V94.4035C70.7282 90.1295 69.467 87.9575 67.7153 87.1167C68.0657 87.1167 68.416 87.1868 68.7663 87.2568C69.467 87.397 70.0275 87.7473 70.588 88.2378C70.7282 88.4479 70.9384 88.5881 71.0785 88.7282C71.7091 89.569 72.1995 90.7601 72.4798 92.4417C72.6199 93.1424 72.6199 93.843 72.6199 94.6838Z" fill="black" stroke="#231F20" stroke-width="0.209427" stroke-miterlimit="10"/>
        <path d="M64.0723 88.588C64.1423 88.4479 64.2124 88.3077 64.3525 88.1676C64.3525 88.2377 64.2825 88.2377 64.2825 88.3077C64.2124 88.3778 64.1423 88.5179 64.0723 88.588Z" fill="url(#paint2_linear_1_19911)" stroke="#231F20" stroke-width="0.190369" stroke-miterlimit="10" stroke-linecap="round" stroke-linejoin="round"/>
        <path d="M80.6075 87.2569C79.8368 88.0276 78.996 88.3078 78.2953 88.2378C78.1552 88.2378 78.0151 88.1677 77.945 88.1677C77.8749 88.1677 77.8749 88.1677 77.8049 88.0977C77.6647 88.0276 77.5947 87.9575 77.4545 87.8875C77.3845 87.8875 77.3845 87.8174 77.3144 87.8174C77.1743 87.7473 77.1042 87.6072 77.0342 87.4671C76.824 87.1868 76.6138 86.7664 76.4736 86.2759C76.4736 86.2059 76.4036 86.1358 76.4036 86.0657C76.4036 85.9957 76.3335 85.9256 76.3335 85.7855C76.3335 85.7154 76.3335 85.6453 76.3335 85.5753C76.3335 85.5052 76.3335 85.5052 76.3335 85.4352V85.3651C76.3335 85.225 76.3335 85.1549 76.3335 85.0148C76.3335 84.8746 76.3335 84.8046 76.3335 84.6644C76.3335 84.5243 76.3335 84.4542 76.3335 84.3141V84.244C76.3335 84.1039 76.3335 84.0338 76.3335 83.8937C76.3335 83.7536 76.3335 83.6134 76.4036 83.5434C76.4036 83.4733 76.4036 83.3332 76.4736 83.2631V83.123C76.4736 83.0529 76.4736 82.9128 76.5437 82.8427C76.6138 82.5625 76.6838 82.2822 76.7539 82.072C76.7539 81.9319 76.824 81.8618 76.824 81.7217C76.894 81.5815 76.894 81.5115 76.9641 81.3713C77.0342 81.1611 77.1743 80.8809 77.2444 80.6707C77.3845 80.4605 77.4546 80.2503 77.5947 80.0401C77.5246 79.8299 77.5947 79.7598 77.6647 79.6197C77.8049 79.4095 77.945 79.2694 78.0851 79.0592C78.2253 78.919 78.3654 78.7088 78.5055 78.5687L78.5756 78.4986C78.6457 78.4286 78.6457 78.4286 78.7157 78.3585C78.7858 78.4286 78.7858 78.3585 78.8559 78.3585C78.9259 78.2884 78.9259 78.2884 78.996 78.2884C79.2062 78.1483 79.3463 78.0782 79.5565 77.9381C79.6266 77.9381 79.6266 77.868 79.6967 77.868C79.7667 77.868 79.7667 77.798 79.8368 77.798C79.9068 77.798 79.9769 77.7279 79.9769 77.7279C80.047 77.7279 80.047 77.7279 80.117 77.7279C80.1871 77.7279 80.1871 77.7279 80.2572 77.7279C80.5374 77.6579 80.7476 77.7279 80.9578 77.7279C81.7986 77.9381 82.4292 78.6388 82.7095 79.9C83.3401 82.2822 82.3592 85.5753 80.6075 87.2569Z" fill="#F1F2F2" stroke="#231F20" stroke-width="0.201439" stroke-miterlimit="10" stroke-linecap="round" stroke-linejoin="round"/>
        <path opacity="0.2" d="M80.6075 87.2569C79.8368 88.0276 78.996 88.3078 78.2953 88.2378C78.1552 88.2378 78.0151 88.1677 77.945 88.1677C77.8749 88.1677 77.8749 88.1677 77.8049 88.0977C77.6647 88.0276 77.5947 87.9575 77.4545 87.8875C77.3845 87.8875 77.3845 87.8174 77.3144 87.8174C77.1743 87.7473 77.1042 87.6072 77.0342 87.4671C76.824 87.1868 76.6138 86.7664 76.4736 86.2759C76.4736 86.2059 76.4036 86.1358 76.4036 86.0657C76.4036 85.9957 76.3335 85.9256 76.3335 85.7855C76.3335 85.7154 76.3335 85.6453 76.3335 85.5753C76.3335 85.5052 76.3335 85.5052 76.3335 85.4352V85.3651C76.3335 85.225 76.3335 85.1549 76.3335 85.0148C76.3335 84.8746 76.3335 84.8046 76.3335 84.6644C76.3335 84.5243 76.3335 84.4542 76.3335 84.3141V84.244C76.3335 84.1039 76.3335 84.0338 76.3335 83.8937C76.3335 83.7536 76.3335 83.6134 76.4036 83.5434C76.4036 83.4733 76.4036 83.3332 76.4736 83.2631V83.123C76.4736 83.0529 76.4736 82.9128 76.5437 82.8427C76.6138 82.5625 76.6838 82.2822 76.7539 82.072C76.7539 81.9319 76.824 81.8618 76.824 81.7217C76.894 81.5815 76.894 81.5115 76.9641 81.3713C77.0342 81.1611 77.1743 80.8809 77.2444 80.6707C77.3845 80.4605 77.4546 80.2503 77.5947 80.0401C77.5246 79.8299 77.5947 79.7598 77.6647 79.6197C77.8049 79.4095 77.945 79.2694 78.0851 79.0592C78.2253 78.919 78.3654 78.7088 78.5055 78.5687L78.5756 78.4986C78.6457 78.4286 78.6457 78.4286 78.7157 78.3585C78.7858 78.4286 78.7858 78.3585 78.8559 78.3585C78.9259 78.2884 78.9259 78.2884 78.996 78.2884C79.2062 78.1483 79.3463 78.0782 79.5565 77.9381C79.6266 77.9381 79.6266 77.868 79.6967 77.868C79.7667 77.868 79.7667 77.798 79.8368 77.798C79.9068 77.798 79.9769 77.7279 79.9769 77.7279C80.047 77.7279 80.047 77.7279 80.117 77.7279C80.1871 77.7279 80.1871 77.7279 80.2572 77.7279C80.5374 77.6579 80.7476 77.7279 80.9578 77.7279C81.7986 77.9381 82.4292 78.6388 82.7095 79.9C83.3401 82.2822 82.3592 85.5753 80.6075 87.2569Z" fill="black" stroke="#231F20" stroke-width="0.209427" stroke-miterlimit="10"/>
        <path d="M80.9578 77.7279C80.7476 77.6578 80.4674 77.6578 80.2572 77.7279C80.1871 77.7279 80.1871 77.7279 80.117 77.7279C80.047 77.7279 80.047 77.7279 79.9769 77.7279C79.9068 77.7279 79.8368 77.7279 79.8368 77.798C79.7667 77.798 79.7667 77.798 79.6966 77.868C79.6266 77.868 79.6266 77.9381 79.5565 77.9381C79.3463 78.0082 79.2062 78.1483 78.996 78.2884C78.9259 78.2884 78.9259 78.3585 78.8558 78.3585C78.7858 78.3585 78.7858 78.4286 78.7157 78.4986C78.6456 78.5687 78.6456 78.5687 78.5756 78.6388L78.5055 78.7088C78.3654 78.8489 78.2253 78.9891 78.0851 79.1993C77.945 79.3394 77.8049 79.5496 77.6647 79.7598C77.5947 79.8299 77.5246 79.97 77.4545 80.0401C77.3144 80.2503 77.1743 80.4605 77.1042 80.6707C76.9641 80.8809 76.894 81.1611 76.8239 81.3713C76.7539 81.5114 76.7539 81.5815 76.6838 81.7216C76.6137 81.8618 76.6137 81.9318 76.6137 82.072C76.5437 82.3522 76.4736 82.6325 76.4035 82.8427C76.4035 82.9128 76.3335 83.0529 76.3335 83.123V83.2631C76.3335 83.3332 76.3335 83.4733 76.2634 83.5434C76.2634 83.6835 76.2634 83.8236 76.1933 83.8937C76.1933 84.0338 76.1933 84.1039 76.1933 84.244V84.3141C76.1933 84.4542 76.1933 84.5243 76.1933 84.6644C76.1933 84.8045 76.1933 84.8746 76.1933 85.0147C76.1933 85.1549 76.1933 85.2249 76.1933 85.3651V85.4351C76.1933 85.5052 76.1933 85.5052 76.1933 85.5753C76.1933 85.6453 76.1933 85.7154 76.1933 85.7855C76.1933 85.8555 76.2634 85.9256 76.2634 86.0657C76.2634 86.1358 76.3335 86.2059 76.3335 86.2759C76.4736 86.7664 76.6838 87.1167 76.894 87.467C76.9641 87.6072 77.1042 87.6772 77.1743 87.8174C77.2443 87.8174 77.2443 87.8874 77.3144 87.8874C77.4545 87.9575 77.5246 88.0276 77.6647 88.0976C77.7348 88.0976 77.7348 88.0976 77.8049 88.1677L75.7029 87.6072C75.6328 87.6072 75.4927 87.5371 75.4226 87.5371H75.3526C74.6519 87.2568 74.1614 86.5562 73.8812 85.5052C73.3206 83.193 74.2315 80.0401 75.9131 78.2884C75.9831 78.2184 75.9831 78.2184 76.0532 78.1483C76.1233 78.0782 76.1233 78.0782 76.1933 78.0082C76.894 77.3776 77.6647 77.0973 78.2953 77.1674L78.7858 77.3075L80.9578 77.7279Z" fill="#F1F2F2" stroke="#231F20" stroke-width="0.201439" stroke-miterlimit="10" stroke-linecap="round" stroke-linejoin="round"/>
        <path d="M87.3336 86.0658V95.5947C87.3336 96.0852 86.9833 96.5756 86.3527 96.996C85.582 97.4164 84.531 97.6266 83.5501 97.5565C82.8494 97.4865 82.1488 97.3464 81.5882 96.996C80.9576 96.6457 80.6073 96.0852 80.6073 95.5947V90.1296C80.6073 90.1296 80.6073 89.9194 80.6073 89.6391C80.5372 89.2888 80.3971 88.7283 79.9767 88.2378C79.5563 87.8875 79.0659 87.4671 78.3652 87.1167C78.0149 86.9766 77.8047 86.6964 77.6645 86.346C77.6645 86.346 77.6645 86.346 77.6645 86.276C77.6645 86.2059 77.5945 86.1358 77.5945 86.0658C77.5945 85.9957 77.5244 85.9256 77.5244 85.7855C77.5244 85.7154 77.5244 85.6454 77.5244 85.5753C77.5244 85.5052 77.5244 85.5052 77.5244 85.4352V85.3651C77.5244 85.225 77.5244 85.1549 77.5244 85.0148C77.5244 84.8746 77.5244 84.7345 77.5244 84.6644C77.5244 84.5944 77.5244 84.4542 77.5244 84.3141V84.2441C77.5244 84.174 77.5244 84.0339 77.5244 83.8937C77.5244 83.7536 77.5244 83.6135 77.5945 83.5434C77.5945 83.4733 77.5945 83.3332 77.6645 83.2631V83.123C77.6645 83.0529 77.6645 82.9128 77.7346 82.8427C77.6645 82.5625 77.7346 82.2822 77.8047 82.072C77.8047 81.9319 77.8747 81.8618 77.8747 81.7217C77.9448 81.5816 77.9448 81.5115 78.0149 81.3714C78.0849 81.1612 78.2251 80.8809 78.2951 80.6707C78.4353 80.4605 78.5053 80.2503 78.6455 80.0401C78.7155 79.97 78.7856 79.8299 78.8557 79.7598C78.8557 79.6898 78.9257 79.6898 78.9257 79.6197C79.4162 78.9891 80.0468 78.7789 80.1869 78.7789C80.8876 78.6388 81.5882 78.5687 82.2188 78.5687C82.5691 78.5687 82.9195 78.6388 83.2698 78.7089C83.9705 78.849 84.531 79.1993 85.0915 79.6898C85.2316 79.9 85.4418 80.0401 85.582 80.1802C86.2126 81.021 86.703 82.2121 86.9833 83.8937C87.2636 84.5243 87.3336 85.295 87.3336 86.0658Z" fill="#F1F2F2" stroke="#231F20" stroke-width="0.201439" stroke-miterlimit="10" stroke-linecap="round" stroke-linejoin="round"/>
        <path d="M80.5376 89.639C80.5376 89.9193 80.5376 90.1295 80.5376 90.1295V89.639Z" fill="url(#paint3_linear_1_19911)" stroke="#231F20" stroke-width="0.190369" stroke-miterlimit="10" stroke-linecap="round" stroke-linejoin="round"/>
        <path d="M85.7922 80.1803C85.6521 80.0401 85.512 79.83 85.3018 79.6898C85.4419 79.83 85.6521 79.9701 85.7922 80.1803Z" fill="url(#paint4_linear_1_19911)" stroke="#231F20" stroke-width="0.190369" stroke-miterlimit="10" stroke-linecap="round" stroke-linejoin="round"/>
        <path opacity="0.2" d="M87.3338 86.0658V95.5947C87.3338 96.0852 86.9835 96.5756 86.3529 96.996C85.5822 97.4164 84.5312 97.6266 83.5503 97.5565C83.8305 97.4865 84.1108 97.3463 84.391 97.2062C85.0917 96.7858 85.442 96.2954 85.442 95.8049V85.8556C85.442 81.5816 84.1808 79.4095 82.4292 78.5687C82.7795 78.5687 83.1299 78.6388 83.4802 78.7089C84.1808 78.849 84.7414 79.1993 85.3019 79.6898C85.442 79.9 85.6522 80.0401 85.7924 80.1802C86.4229 81.021 86.9134 82.2121 87.1937 83.8937C87.2637 84.5243 87.3338 85.295 87.3338 86.0658Z" fill="black" stroke="#231F20" stroke-width="0.209427" stroke-miterlimit="10"/>
        <path d="M78.7163 80.0401C78.7864 79.9 78.8564 79.7599 78.9966 79.6198C78.9966 79.6898 78.9265 79.6898 78.9265 79.7599C78.8564 79.8299 78.7864 79.9 78.7163 80.0401Z" fill="url(#paint5_linear_1_19911)" stroke="#231F20" stroke-width="0.190369" stroke-miterlimit="10" stroke-linecap="round" stroke-linejoin="round"/>
        <path d="M133.647 129.296L133.577 129.366L133.507 129.226L133.647 129.296Z" fill="#F1F2F2" stroke="#231F20" stroke-width="0.201439" stroke-miterlimit="10" stroke-linecap="round" stroke-linejoin="round"/>
        <path d="M144.788 147.514L133.507 154.17L121.806 136.023L133.507 129.367H133.577L144.788 147.514Z" fill="#F9FAFA" stroke="#231F20" stroke-width="0.201439" stroke-miterlimit="10" stroke-linecap="round" stroke-linejoin="round"/>
        <path d="M162.865 136.864V125.793L151.725 119.067L161.324 113.602L171.833 131.539L162.865 136.864Z" fill="#F9FAFA" stroke="#231F20" stroke-width="0.201439" stroke-miterlimit="10" stroke-linecap="round" stroke-linejoin="round"/>
        <path d="M171.833 131.538V149.826L133.507 172.107V154.17L144.788 147.513L144.928 147.654V136.093L162.865 125.793V136.863L171.833 131.538Z" fill="#F1F2F2" stroke="#231F20" stroke-width="0.201439" stroke-miterlimit="10" stroke-linecap="round" stroke-linejoin="round"/>
        <path d="M144.928 147.443V147.654L144.788 147.514L144.928 147.443Z" fill="#F1F2F2" stroke="#231F20" stroke-width="0.201439" stroke-miterlimit="10" stroke-linecap="round" stroke-linejoin="round"/>
        <path d="M133.507 154.17V172.107L68.2761 147.023L53.9126 123.061V108.977L59.8682 99.7286L74.582 108.347V121.729L108.073 141.067V128.245L108.284 128.105L119.284 134.621L121.806 136.023L133.507 154.17Z" fill="#F1F2F2" stroke="#231F20" stroke-width="0.201439" stroke-miterlimit="10" stroke-linecap="round" stroke-linejoin="round"/>
        <path opacity="0.14" d="M133.507 154.17V172.107L68.2761 147.023L53.9126 123.061V108.977L59.8682 99.7286L74.582 108.347V121.729L108.073 141.067V128.245L108.284 128.105L119.284 134.621L121.806 136.023L133.507 154.17Z" fill="black" stroke="#231F20" stroke-width="0.0802954" stroke-miterlimit="10"/>
        <path d="M160.272 135.252C160.272 135.252 151.374 140.297 148.361 142.048L148.291 139.316L157.75 133.991L160.272 135.252Z" fill="#939598" stroke="#231F20" stroke-width="0.0468579" stroke-miterlimit="10"/>
        <path d="M160.203 132.099L160.273 135.252L157.75 134.061L157.68 133.5L160.203 132.099Z" fill="#4F4C4D" stroke="#231F20" stroke-width="0.0468579" stroke-miterlimit="10"/>
        <path d="M157.68 133.5L157.75 134.061L148.291 139.386V138.825L157.68 133.5Z" fill="#231F20" stroke="#231F20" stroke-width="0.0468579" stroke-miterlimit="10" stroke-linecap="round" stroke-linejoin="round"/>
        <path d="M113.819 85.7855V95.3145L108.844 92.3717L105.691 90.4799L106.812 89.7793L113.819 85.7855Z" fill="#F1F2F2" stroke="#231F20" stroke-width="0.201439" stroke-miterlimit="10" stroke-linecap="round" stroke-linejoin="round"/>
        <path d="M105.692 90.48H105.621H105.692Z" fill="#F1F2F2" stroke="#231F20" stroke-width="0.201439" stroke-miterlimit="10" stroke-linecap="round" stroke-linejoin="round"/>
        <path d="M162.865 125.793L144.928 136.093L133.647 129.296L133.507 129.226L133.577 129.366H133.507L121.806 136.023L119.284 134.621L158.591 112.06L161.323 113.602L151.724 119.067L162.865 125.793Z" fill="#F1F2F2" stroke="#231F20" stroke-width="0.201439" stroke-miterlimit="10" stroke-linecap="round" stroke-linejoin="round"/>
        <path d="M144.928 136.093V147.443L144.788 147.513L133.577 129.366L133.647 129.296L144.928 136.093Z" fill="#F1F2F2" stroke="#231F20" stroke-width="0.201439" stroke-miterlimit="10" stroke-linecap="round" stroke-linejoin="round"/>
        <path opacity="0.14" d="M144.928 136.093V147.443L144.788 147.513L133.577 129.366L133.647 129.296L144.928 136.093Z" fill="black" stroke="#231F20" stroke-width="0.0802954" stroke-miterlimit="10"/>
        <path d="M133.647 129.296L133.577 129.366L133.507 129.226L133.647 129.296Z" fill="#F1F2F2" stroke="#231F20" stroke-width="0.201439" stroke-miterlimit="10" stroke-linecap="round" stroke-linejoin="round"/>
        <path d="M144.928 147.443V147.654L144.788 147.513L144.928 147.443Z" fill="#F1F2F2" stroke="#231F20" stroke-width="0.201439" stroke-miterlimit="10" stroke-linecap="round" stroke-linejoin="round"/>
        <path opacity="0.2" d="M144.788 147.513L133.647 142.328L133.507 129.226L144.788 147.513Z" fill="black" stroke="#231F20" stroke-width="0.0802954" stroke-miterlimit="10"/>
        <path d="M108.073 130.838V141.067L74.582 121.729V121.589L83.6205 116.404L108.073 130.838Z" fill="#F1F2F2" stroke="#231F20" stroke-width="0.201439" stroke-miterlimit="10" stroke-linecap="round" stroke-linejoin="round"/>
        <path d="M83.6205 103.092V116.404L74.582 121.589V108.277L78.1554 106.245L83.6205 103.092Z" fill="#F1F2F2" stroke="#231F20" stroke-width="0.201439" stroke-miterlimit="10" stroke-linecap="round" stroke-linejoin="round"/>
        <path d="M158.591 112.06L119.284 134.621L108.284 128.105L117.883 122.64L95.2514 109.748L87.0537 105.054L83.6205 103.092L78.1553 106.245L74.582 108.277V108.347L59.8682 99.7287L99.105 77.1675L113.819 85.7856L106.812 89.7793L105.691 90.48H105.621H105.691L108.844 92.3718L113.819 95.3145L117.112 97.2063L139.253 110.379L147.59 105.614L158.591 112.06Z" fill="#F1F2F2" stroke="#231F20" stroke-width="0.201439" stroke-miterlimit="10" stroke-linecap="round" stroke-linejoin="round"/>
        <path d="M117.882 122.64L108.283 128.105L108.073 128.245V130.838L83.6201 116.404V103.092L87.0533 105.054L95.251 109.748L117.882 122.64Z" fill="#F1F2F2" stroke="#231F20" stroke-width="0.201439" stroke-miterlimit="10" stroke-linecap="round" stroke-linejoin="round"/>
        <path d="M105.692 90.48H105.621H105.692Z" fill="black" stroke="#231F20" stroke-width="0.201439" stroke-miterlimit="10"/>
        <path opacity="0.14" d="M83.6205 103.092L80.5376 118.156L108.073 134.621V128.245L117.883 122.64L83.6205 103.092Z" fill="black" stroke="#231F20" stroke-width="0.0802954" stroke-miterlimit="10"/>
    </g>
    <defs>
        <linearGradient id="paint0_linear_1_19911" x1="-nan" y1="-nan" x2="-nan" y2="-nan" gradientUnits="userSpaceOnUse">
            <stop stop-color="#D1D2D3"/>
            <stop offset="0.3636" stop-color="#D1D2D3"/>
            <stop offset="0.6738" stop-color="#F1F1F1"/>
            <stop offset="1" stop-color="#E5E6E6"/>
        </linearGradient>
        <linearGradient id="paint1_linear_1_19911" x1="70.6065" y1="88.5007" x2="71.1032" y2="88.5007" gradientUnits="userSpaceOnUse">
            <stop stop-color="#D1D2D3"/>
            <stop offset="0.3636" stop-color="#D1D2D3"/>
            <stop offset="0.6738" stop-color="#F1F1F1"/>
            <stop offset="1" stop-color="#E5E6E6"/>
        </linearGradient>
        <linearGradient id="paint2_linear_1_19911" x1="64.0486" y1="88.3998" x2="64.3225" y2="88.3998" gradientUnits="userSpaceOnUse">
            <stop stop-color="#D1D2D3"/>
            <stop offset="0.3636" stop-color="#D1D2D3"/>
            <stop offset="0.6738" stop-color="#F1F1F1"/>
            <stop offset="1" stop-color="#E5E6E6"/>
        </linearGradient>
        <linearGradient id="paint3_linear_1_19911" x1="-nan" y1="-nan" x2="-nan" y2="-nan" gradientUnits="userSpaceOnUse">
            <stop stop-color="#D1D2D3"/>
            <stop offset="0.3636" stop-color="#D1D2D3"/>
            <stop offset="0.6738" stop-color="#F1F1F1"/>
            <stop offset="1" stop-color="#E5E6E6"/>
        </linearGradient>
        <linearGradient id="paint4_linear_1_19911" x1="85.2797" y1="79.9124" x2="85.7765" y2="79.9124" gradientUnits="userSpaceOnUse">
            <stop stop-color="#D1D2D3"/>
            <stop offset="0.3636" stop-color="#D1D2D3"/>
            <stop offset="0.6738" stop-color="#F1F1F1"/>
            <stop offset="1" stop-color="#E5E6E6"/>
        </linearGradient>
        <linearGradient id="paint5_linear_1_19911" x1="78.7225" y1="79.8117" x2="78.9964" y2="79.8117" gradientUnits="userSpaceOnUse">
            <stop stop-color="#D1D2D3"/>
            <stop offset="0.3636" stop-color="#D1D2D3"/>
            <stop offset="0.6738" stop-color="#F1F1F1"/>
            <stop offset="1" stop-color="#E5E6E6"/>
        </linearGradient>
        <clipPath id="">
            <rect width="118.061" height="95.2894" fill="white" transform="translate(53.8418 76.9573)"/>
        </clipPath>
    </defs>


    <g clip-path="url(#)">
        <path d="M36.9557 145.762C36.9557 145.762 30.86 139.596 29.809 151.157C28.7581 162.718 28.688 162.648 28.688 162.648L40.2488 180.024L53.7715 181.425L54.7525 174.419L36.9557 145.762Z" fill="#49443A" stroke="#231F20" stroke-width="0.225612" stroke-miterlimit="10" stroke-linecap="round" stroke-linejoin="round"/>
        <path d="M61.1285 166.852C61.1285 167.692 61.0584 168.463 60.9884 169.234C60.8482 169.935 60.7081 170.565 60.4979 171.196C60.0074 172.597 59.1667 173.648 58.1857 174.349C57.2048 175.049 56.0137 175.4 54.6825 175.47C54.6124 175.47 54.4723 175.47 54.4022 175.47C52.9308 175.4 51.2492 174.979 49.4275 173.998C49.3575 173.998 49.3575 173.928 49.2874 173.928C42.5611 170.145 37.0959 160.896 37.0259 153.329C37.0259 152.979 37.0259 152.558 37.0259 152.208C37.0959 150.526 37.5163 149.125 38.0769 148.004C38.0769 147.934 38.1469 147.864 38.217 147.794C38.9177 146.533 39.8986 145.622 41.1598 145.131C42.2107 144.711 43.4019 144.571 44.7331 144.781C45.7841 144.921 46.8351 145.271 47.9561 145.832C48.2364 145.972 48.5867 146.112 48.867 146.322C49.0071 146.392 49.1473 146.462 49.3575 146.603C49.4275 146.603 49.4275 146.673 49.4976 146.673C54.8926 151.858 59.1667 159.144 61.0584 166.291C61.0584 166.361 61.0584 166.361 61.0584 166.431C61.1285 166.501 61.1285 166.641 61.1285 166.852Z" fill="#6E6657" stroke="#231F20" stroke-width="0.225612" stroke-miterlimit="10" stroke-linecap="round" stroke-linejoin="round"/>
        <path d="M35.064 157.603C35.134 163.278 39.1978 170.145 44.1725 172.947C46.835 174.419 49.1472 174.489 50.7587 173.298C51.5294 172.737 52.0899 171.966 52.5103 170.915C52.6505 170.495 52.7906 170.004 52.8607 169.444C52.9307 168.883 53.0008 168.323 53.0008 167.692C52.9307 162.017 48.8669 155.151 43.8923 152.348C43.6821 152.208 43.4719 152.138 43.1916 151.998C42.3508 151.577 41.51 151.367 40.8094 151.227C39.8284 151.087 38.9176 151.157 38.1469 151.507C36.2551 152.348 35.064 154.45 35.064 157.603Z" fill="#928874" stroke="#231F20" stroke-width="0.225612" stroke-miterlimit="10" stroke-linecap="round" stroke-linejoin="round"/>
        <path d="M38.2173 151.507C38.988 151.157 39.8989 151.087 40.8798 151.227C41.6505 151.367 42.4212 151.577 43.262 151.998C43.4722 152.138 43.6824 152.208 43.9627 152.348C48.9373 155.151 53.0012 162.017 53.0712 167.692C53.0712 168.323 53.0712 168.883 52.9311 169.444C52.861 169.934 52.7209 170.425 52.5808 170.915C52.2304 171.966 51.5998 172.737 50.8291 173.298L55.6637 170.425L55.7337 170.355C57.3452 169.444 58.3262 167.412 58.3262 164.539C58.2561 158.864 54.1923 151.998 49.2176 149.195C47.0456 148.004 45.0837 147.724 43.5423 148.354L42.2811 149.055L38.2173 151.507Z" fill="url(#paint0_linear_1_19911)" stroke="#231F20" stroke-width="0.225612" stroke-miterlimit="10" stroke-linecap="round" stroke-linejoin="round"/>
        <path d="M61.1285 166.431C61.1285 166.361 61.1285 166.361 61.0584 166.291C59.0966 159.074 54.8226 151.858 49.4976 146.673C49.4275 146.603 49.4275 146.603 49.3574 146.533C47.3956 144.641 45.2936 143.099 43.1216 141.838C42.6311 141.558 42.1407 141.348 41.7203 141.137C39.9686 140.297 38.287 139.736 36.6755 139.526C34.6436 139.246 32.7519 139.456 31.1403 140.086H31.0703C27.0065 141.768 24.4841 146.252 24.5542 152.838C24.6943 164.75 33.2423 179.183 43.6821 185.069C49.2173 188.152 54.192 188.222 57.6252 185.769C59.2367 184.648 60.4278 182.967 61.2686 180.795C61.6189 179.884 61.8992 178.833 62.0393 177.712C62.2495 176.591 62.3196 175.33 62.3196 173.998C62.1795 171.546 61.8291 168.954 61.1285 166.431ZM52.4403 177.642C50.2683 179.183 47.1153 179.183 43.542 177.151C36.8857 173.438 31.4206 164.259 31.3505 156.622C31.2805 152.418 32.892 149.545 35.4844 148.494C36.2551 148.144 37.166 148.004 38.1469 148.004C38.217 148.004 38.287 148.004 38.3571 148.004C38.5673 148.004 38.8476 148.074 39.0578 148.074C40.0387 148.214 41.1597 148.564 42.2808 149.055C42.5611 149.195 42.9114 149.335 43.1916 149.545C49.8479 153.329 55.313 162.508 55.3831 170.145C55.3831 170.285 55.3831 170.425 55.3831 170.565C55.3831 171.266 55.313 171.896 55.243 172.527C55.1028 173.228 54.9627 173.858 54.7525 174.489C54.6124 174.839 54.4722 175.119 54.3321 175.47C53.8416 176.381 53.2111 177.081 52.4403 177.642Z" fill="#231F20" stroke="#231F20" stroke-width="0.225612" stroke-miterlimit="10" stroke-linecap="round" stroke-linejoin="round"/>
        <path d="M79.836 172.667C80.3265 172.457 80.8169 172.177 81.3074 171.826L79.836 172.667ZM61.0584 166.221C59.0966 159.004 54.8226 151.787 49.4976 146.603C49.4275 146.532 49.4275 146.532 49.3574 146.462V146.532C49.6377 147.724 50.0581 148.845 50.4785 150.036C52.2301 154.8 54.9627 159.425 58.2558 163.348C59.1666 164.399 60.1476 165.45 61.1285 166.431C61.1285 166.361 61.1285 166.291 61.0584 166.221ZM52.5804 127.404L52.5104 127.475C53.211 127.054 53.8416 126.704 54.192 126.494C54.262 126.494 54.262 126.424 54.3321 126.424C54.4022 126.424 54.4722 126.354 54.4722 126.354C54.5423 126.354 54.5423 126.283 54.6124 126.283L54.6824 126.213C53.9818 126.424 53.2811 126.844 52.5804 127.404Z" fill="#231F20" stroke="#231F20" stroke-width="0.225612" stroke-miterlimit="10" stroke-linecap="round" stroke-linejoin="round"/>
        <path d="M83.0588 170.355C82.9187 170.495 82.7786 170.565 82.7085 170.635C82.8486 170.565 82.9187 170.495 83.0588 170.355Z" fill="url(#paint1_linear_1_19911)" stroke="#231F20" stroke-width="0.225612" stroke-miterlimit="10" stroke-linecap="round" stroke-linejoin="round"/>
        <path d="M85.9316 160.055C85.9316 161.386 85.8615 162.648 85.6513 163.769C85.5112 164.89 85.2309 165.871 84.8806 166.852C84.1098 169.024 82.8487 170.705 81.2371 171.826L79.7658 172.667L57.4849 185.699C59.0964 184.578 60.2875 182.897 61.1283 180.725C61.4786 179.814 61.7589 178.763 61.899 177.642C62.1092 176.521 62.1793 175.26 62.1793 173.928C62.1793 171.476 61.7589 168.954 61.0582 166.361C61.0582 166.291 61.0582 166.291 60.9881 166.221C59.0263 159.004 54.7523 151.787 49.4273 146.603C49.3572 146.533 49.3572 146.533 49.2872 146.462C47.3253 144.571 45.2233 143.029 43.0513 141.768C42.5609 141.488 42.0704 141.278 41.65 141.067C39.8984 140.227 38.2168 139.666 36.6053 139.456C34.5734 139.176 32.6816 139.386 31.0701 140.016H31L52.5803 127.405L52.5102 127.475C53.2108 127.054 53.8414 126.704 54.1918 126.494C54.2618 126.494 54.2618 126.424 54.3319 126.424C54.402 126.424 54.472 126.354 54.472 126.354C54.5421 126.354 54.5421 126.284 54.6122 126.284L54.6822 126.213C56.3638 125.513 58.2556 125.303 60.2875 125.583C61.899 125.793 63.5806 126.354 65.3322 127.194C65.8227 127.405 66.2431 127.685 66.7335 127.895C68.9756 129.156 71.1477 130.768 73.1095 132.73C78.5046 137.914 82.7786 145.201 84.6704 152.348C85.5112 154.94 85.9316 157.533 85.9316 160.055Z" fill="url(#paint2_linear_1_19911)" stroke="#231F20" stroke-width="0.225612" stroke-miterlimit="10" stroke-linecap="round" stroke-linejoin="round"/>
        <path d="M54.1918 126.494C53.7714 126.704 53.2109 127.054 52.5103 127.475L52.5803 127.405L54.1918 126.494Z" fill="#C49A6C" stroke="#231F20" stroke-width="0.225612" stroke-miterlimit="10" stroke-linecap="round" stroke-linejoin="round"/>
        <path d="M81.7983 171.826C81.7983 171.826 75.7026 165.66 74.6516 177.221C73.6006 188.782 73.6006 188.782 73.6006 188.782L85.1614 206.158L98.6841 207.56L99.6651 200.553L81.7983 171.826Z" fill="#49443A" stroke="#231F20" stroke-width="0.225612" stroke-miterlimit="10" stroke-linecap="round" stroke-linejoin="round"/>
        <path d="M105.971 192.916C105.971 193.757 105.901 194.528 105.831 195.298C105.691 195.999 105.551 196.63 105.34 197.26C104.85 198.661 104.009 199.712 103.028 200.413C102.047 201.114 100.856 201.534 99.525 201.534C99.4549 201.534 99.3148 201.534 99.2447 201.534C97.7733 201.534 96.0918 201.044 94.27 200.063C94.2 200.063 94.2 199.993 94.1299 199.993C87.4737 196.279 82.0085 187.031 81.9385 179.463C81.9385 179.113 81.9385 178.693 81.9385 178.342C82.0085 176.661 82.4289 175.259 82.9895 174.138C82.9895 174.068 83.0595 173.998 83.1296 173.928C83.8303 172.667 84.8112 171.756 86.0724 171.266C87.1233 170.845 88.3145 170.705 89.6457 170.915C90.6266 171.056 91.7477 171.406 92.8687 171.966C93.149 172.107 93.4993 172.247 93.7796 172.457C93.9197 172.527 94.0599 172.597 94.27 172.737C94.3401 172.737 94.3401 172.807 94.4102 172.807C99.8052 177.992 104.079 185.279 105.971 192.426C105.971 192.496 105.971 192.496 105.971 192.566C105.971 192.566 105.971 192.776 105.971 192.916Z" fill="#6E6657" stroke="#231F20" stroke-width="0.225612" stroke-miterlimit="10" stroke-linecap="round" stroke-linejoin="round"/>
        <path d="M79.9761 183.667C80.0461 189.343 84.11 196.209 89.0846 199.012C91.7471 200.483 94.0593 200.553 95.6708 199.362C96.4415 198.802 97.002 198.031 97.4224 196.98C97.5626 196.56 97.7027 196.069 97.7728 195.509C97.8428 194.948 97.9129 194.387 97.9129 193.757C97.8428 188.082 93.779 181.215 88.8044 178.412C88.5942 178.272 88.384 178.202 88.1037 178.062C87.2629 177.642 86.4221 177.432 85.7215 177.291C84.7405 177.151 83.8297 177.221 83.059 177.572C81.0971 178.412 79.906 180.514 79.9761 183.667Z" fill="#928874" stroke="#231F20" stroke-width="0.225612" stroke-miterlimit="10" stroke-linecap="round" stroke-linejoin="round"/>
        <path d="M83.0591 177.572C83.8298 177.221 84.7407 177.151 85.7216 177.292C86.4923 177.432 87.263 177.642 88.1038 178.062C88.314 178.202 88.5242 178.272 88.8045 178.413C93.7791 181.215 97.843 188.082 97.913 193.757C97.913 194.388 97.843 194.948 97.7729 195.509C97.7028 195.999 97.5627 196.49 97.4226 196.98C97.0722 198.031 96.4416 198.802 95.6709 199.362L100.505 196.49L100.576 196.42C102.187 195.509 103.168 193.477 103.168 190.604C103.098 184.929 99.0341 178.062 94.0594 175.26C91.8874 174.069 89.9255 173.788 88.3841 174.419L87.1229 175.12L83.0591 177.572Z" fill="url(#paint3_linear_1_19911)" stroke="#231F20" stroke-width="0.225612" stroke-miterlimit="10" stroke-linecap="round" stroke-linejoin="round"/>
        <path d="M105.971 192.496C105.971 192.426 105.971 192.426 105.901 192.356C103.939 185.139 99.6649 177.922 94.3399 172.737C94.2698 172.667 94.1997 172.667 94.1997 172.597C92.2379 170.705 90.1359 169.164 87.9639 167.903C87.4734 167.622 86.9829 167.412 86.5626 167.202C84.8109 166.361 83.1293 165.801 81.5178 165.59C79.4859 165.31 77.5941 165.52 75.9826 166.151H75.9126C71.8487 167.833 69.3264 172.317 69.3964 178.903C69.5366 190.814 78.0846 205.248 88.5244 211.133C94.0596 214.216 99.0343 214.286 102.467 211.834C104.079 210.713 105.27 209.031 106.111 206.859C106.461 205.948 106.741 204.897 106.882 203.776C107.092 202.655 107.162 201.394 107.162 200.063C107.022 197.61 106.671 195.018 105.971 192.496ZM97.2826 203.706C95.1106 205.248 91.9576 205.248 88.3843 203.216C81.728 199.502 76.2629 190.254 76.1928 182.686C76.1228 178.483 77.7343 175.61 80.3267 174.559C81.0974 174.209 82.0083 174.068 82.9892 174.068C83.0593 174.068 83.1293 174.068 83.1994 174.068C83.4096 174.068 83.6899 174.068 83.9001 174.138C84.881 174.279 86.002 174.629 87.1231 175.119C87.4033 175.26 87.7537 175.4 88.0339 175.61C94.6902 179.323 100.155 188.572 100.225 196.139C100.225 196.279 100.225 196.419 100.225 196.559C100.225 197.26 100.155 197.891 100.085 198.521C99.9451 199.222 99.805 199.853 99.5948 200.483C99.4547 200.834 99.3145 201.114 99.1744 201.464C98.6839 202.445 98.0533 203.146 97.2826 203.706Z" fill="#231F20" stroke="#231F20" stroke-width="0.225612" stroke-miterlimit="10" stroke-linecap="round" stroke-linejoin="round"/>
        <path d="M124.678 198.732C125.169 198.521 125.659 198.241 126.15 197.891L124.678 198.732ZM105.901 192.286C103.939 185.069 99.6648 177.852 94.3398 172.667C94.2698 172.597 94.1997 172.597 94.1997 172.527V172.597C94.48 173.788 94.9004 174.909 95.3208 176.1C97.0724 180.865 99.805 185.489 103.098 189.413C104.009 190.464 104.99 191.515 105.971 192.496C105.971 192.496 105.971 192.496 106.041 192.496C105.971 192.426 105.971 192.356 105.901 192.286ZM97.4227 153.469C97.3527 153.469 97.3527 153.539 97.3527 153.539C98.0533 153.119 98.6839 152.768 99.0342 152.558C99.1043 152.558 99.1043 152.488 99.1744 152.488C99.2444 152.418 99.3145 152.418 99.3145 152.418C99.3846 152.418 99.3846 152.348 99.4546 152.348L99.5247 152.278C98.824 152.558 98.1234 152.909 97.4227 153.469Z" fill="#231F20" stroke="#231F20" stroke-width="0.225612" stroke-miterlimit="10" stroke-linecap="round" stroke-linejoin="round"/>
        <path d="M127.901 196.419C127.761 196.559 127.621 196.63 127.551 196.7C127.691 196.63 127.761 196.559 127.901 196.419Z" fill="url(#paint4_linear_1_19911)" stroke="#231F20" stroke-width="0.225612" stroke-miterlimit="10" stroke-linecap="round" stroke-linejoin="round"/>
        <path d="M130.774 186.12C130.774 187.451 130.704 188.712 130.494 189.833C130.354 190.954 130.074 191.935 129.723 192.916C128.953 195.088 127.691 196.77 126.08 197.891L124.609 198.732L102.328 211.764C103.939 210.643 105.13 208.961 105.971 206.789C106.321 205.878 106.602 204.827 106.742 203.706C106.952 202.585 107.022 201.324 107.022 199.993C107.022 197.54 106.602 195.018 105.901 192.426C105.901 192.356 105.901 192.356 105.831 192.285C103.869 185.069 99.5951 177.852 94.2701 172.667C94.2 172.597 94.1299 172.597 94.1299 172.527C92.1681 170.635 90.0661 169.094 87.8941 167.833C87.4036 167.552 86.9132 167.342 86.4928 167.132C84.7411 166.291 83.0595 165.731 81.448 165.52C79.4161 165.24 77.5244 165.45 75.9128 166.081H75.8428L97.423 153.399C97.353 153.399 97.353 153.469 97.353 153.469C98.0536 153.049 98.6842 152.698 99.0345 152.488C99.1046 152.488 99.1046 152.418 99.1747 152.418C99.2447 152.348 99.3148 152.348 99.3148 152.348C99.3849 152.348 99.3849 152.278 99.4549 152.278L99.525 152.208C101.207 151.507 103.098 151.297 105.13 151.577C106.742 151.787 108.423 152.348 110.175 153.189C110.665 153.399 111.086 153.679 111.576 153.889C113.818 155.151 115.99 156.762 117.952 158.724C123.347 163.909 127.621 171.196 129.513 178.342C130.354 181.005 130.774 183.667 130.774 186.12Z" fill="url(#paint5_linear_1_19911)" stroke="#231F20" stroke-width="0.225612" stroke-miterlimit="10" stroke-linecap="round" stroke-linejoin="round"/>
        <path d="M99.0341 152.558C98.6137 152.768 98.0532 153.119 97.3525 153.539L97.4226 153.469L99.0341 152.558Z" fill="#C49A6C" stroke="#231F20" stroke-width="0.225612" stroke-miterlimit="10" stroke-linecap="round" stroke-linejoin="round"/>
        <path opacity="0.2" d="M112.487 154.66L94.0594 164.82L91.6772 166.221L49.2173 142.119L37.0259 135.182L39.4782 133.641L57.9055 123.131L112.487 154.66Z" fill="black" stroke="#231F20" stroke-width="0.210688" stroke-miterlimit="10"/>
        <path d="M114.378 147.093L94.0594 158.163L91.6772 159.565L49.2173 135.462L37.0259 128.526L39.4782 127.054L59.8673 115.563L114.378 147.093Z" fill="#F1F2F2" stroke="#231F20" stroke-width="0.201439" stroke-miterlimit="10" stroke-linecap="round" stroke-linejoin="round"/>
        <path d="M114.379 147.093V150.386L94.3397 161.176L94.0595 161.387V187.101L91.6772 188.362V159.565L94.0595 158.164L114.379 147.093Z" fill="#F1F2F2" stroke="#231F20" stroke-width="0.201439" stroke-miterlimit="10" stroke-linecap="round" stroke-linejoin="round"/>
        <path d="M91.6772 159.565V188.362L39.4782 158.514L37.0259 157.112V128.526L49.2173 135.462L91.6772 159.565Z" fill="#F1F2F2" stroke="#231F20" stroke-width="0.201439" stroke-miterlimit="10" stroke-linecap="round" stroke-linejoin="round"/>
        <path opacity="0.14" d="M91.6772 159.565V188.362L39.4782 158.514L37.0259 157.112V128.526L49.2173 135.462L91.6772 159.565Z" fill="black" stroke="#231F20" stroke-width="0.201439" stroke-miterlimit="10"/>
    </g>
    <defs>
        <linearGradient id="paint0_linear_1_19911" x1="45.0143" y1="150.209" x2="54.584" y2="167.727" gradientUnits="userSpaceOnUse">
            <stop stop-color="#C2B59B"/>
            <stop offset="1" stop-color="#49443A"/>
        </linearGradient>
        <linearGradient id="paint1_linear_1_19911" x1="82.9435" y1="170.37" x2="82.8004" y2="170.64" gradientUnits="userSpaceOnUse">
            <stop stop-color="#58595B"/>
            <stop offset="1"/>
        </linearGradient>
        <linearGradient id="paint2_linear_1_19911" x1="60.512" y1="175.121" x2="56.1537" y2="120.38" gradientUnits="userSpaceOnUse">
            <stop/>
            <stop offset="1" stop-color="#58595B"/>
        </linearGradient>
        <linearGradient id="paint3_linear_1_19911" x1="89.8624" y1="176.281" x2="99.432" y2="193.799" gradientUnits="userSpaceOnUse">
            <stop stop-color="#C2B59B"/>
            <stop offset="1" stop-color="#49443A"/>
        </linearGradient>
        <linearGradient id="paint4_linear_1_19911" x1="127.792" y1="196.442" x2="127.649" y2="196.711" gradientUnits="userSpaceOnUse">
            <stop stop-color="#58595B"/>
            <stop offset="1"/>
        </linearGradient>
        <linearGradient id="paint5_linear_1_19911" x1="105.08" y1="207.98" x2="102.096" y2="153.144" gradientUnits="userSpaceOnUse">
            <stop/>
            <stop offset="1" stop-color="#58595B"/>
        </linearGradient>
        <clipPath id="">
            <rect width="106.5" height="98.1621" fill="white" transform="translate(24.4141 115.493)"/>
        </clipPath>
    </defs>


    <g clip-path="url(#)">
        <path d="M142.125 84.7347L142.615 107.366C142.755 113.181 139.042 118.997 131.545 123.621C116.481 132.8 91.6774 133.36 76.1929 124.882C68.4156 120.678 64.4919 114.933 64.3518 109.188L63.8613 86.5565C63.9314 90.4801 65.8232 94.3338 69.3265 97.767C71.008 99.3785 73.1801 100.92 75.6324 102.321C91.1169 110.799 115.92 110.239 130.984 101.06C133.437 99.5887 135.469 97.9772 137.08 96.2255C140.513 92.6522 142.195 88.6584 142.125 84.7347Z" fill="#F7F7F7" stroke="#231F20" stroke-width="0.344794" stroke-miterlimit="10" stroke-linecap="round" stroke-linejoin="round"/>
        <path opacity="0.14" d="M108.984 107.926V130.558C97.4228 131.679 85.2314 129.787 76.1929 124.882C68.4156 120.678 64.4919 114.933 64.3518 109.188L63.8613 86.5564C63.9314 90.4801 65.8232 94.3337 69.3265 97.7669C71.008 99.3784 73.1801 100.92 75.6324 102.321C84.811 107.296 97.2827 109.118 108.984 107.926Z" fill="black" stroke="#231F20" stroke-width="0.0802954" stroke-miterlimit="10"/>
        <path d="M142.125 84.7346C142.195 88.6583 140.583 92.582 137.15 96.1554C135.539 97.8369 133.507 99.5185 131.055 100.99C115.99 110.169 91.1871 110.729 75.7026 102.251C73.1802 100.85 71.0783 99.3784 69.3967 97.6968C65.8233 94.2636 64.0016 90.41 63.9316 86.4863C63.7914 80.6708 67.5049 74.8554 75.0019 70.231C89.996 61.1225 114.799 60.5619 130.284 69.0399C137.991 73.3139 141.985 78.9892 142.125 84.7346Z" fill="#F7F7F7" stroke="#231F20" stroke-width="0.344794" stroke-miterlimit="10" stroke-linecap="round" stroke-linejoin="round"/>
        <path d="M136.029 78.1486L136.169 84.9449C136.239 88.238 134.837 91.6012 131.965 94.614C130.563 96.0854 128.812 97.4166 126.78 98.6778C114.028 106.455 92.9381 106.946 79.8358 99.7288C77.7338 98.5377 75.9121 97.2765 74.4407 95.8752C71.4279 93.0025 69.8865 89.7094 69.8164 86.4163L69.6763 79.6199C69.6763 80.741 69.8865 81.862 70.3069 82.9831C70.6572 84.1742 71.2177 85.2953 72.0585 86.3463C72.6891 87.3272 73.4598 88.238 74.3707 89.0788C75.8421 90.4801 77.5937 91.7413 79.7657 92.9324C92.868 100.149 113.888 99.6587 126.71 91.8814C128.812 90.6203 130.493 89.2189 131.895 87.8176C132.806 86.9068 133.506 85.9259 134.067 84.9449C134.837 83.8239 135.328 82.7028 135.608 81.5117C135.888 80.3907 136.029 79.2696 136.029 78.1486Z" fill="#F7F7F7" stroke="#231F20" stroke-width="0.344794" stroke-miterlimit="10" stroke-linecap="round" stroke-linejoin="round"/>
        <path opacity="0.2" d="M136.029 78.1486L136.169 84.9449C136.239 88.238 134.837 91.6012 131.965 94.614C130.563 96.0854 128.812 97.4166 126.78 98.6778C114.028 106.455 92.9381 106.946 79.8358 99.7288C77.7338 98.5377 75.9121 97.2765 74.4407 95.8752C71.4279 93.0025 69.8865 89.7094 69.8164 86.4163L69.6763 79.6199C69.6763 80.741 69.8865 81.862 70.3069 82.9831C70.6572 84.1742 71.2177 85.2953 72.0585 86.3463C72.6891 87.3272 73.4598 88.238 74.3707 89.0788C75.8421 90.4801 77.5937 91.7413 79.7657 92.9324C92.868 100.149 113.888 99.6587 126.71 91.8814C128.812 90.6203 130.493 89.2189 131.895 87.8176C132.806 86.9068 133.506 85.9259 134.067 84.9449C134.837 83.8239 135.328 82.7028 135.608 81.5117C135.888 80.3907 136.029 79.2696 136.029 78.1486Z" fill="black" stroke="#231F20" stroke-width="0.492913" stroke-miterlimit="10"/>
        <path d="M136.029 78.1485C136.029 79.2696 135.888 80.3906 135.608 81.5117C135.258 82.7028 134.767 83.8238 134.067 84.9449C133.506 85.9258 132.736 86.8367 131.895 87.8176C130.493 89.289 128.742 90.6202 126.71 91.8814C113.958 99.6587 92.8681 100.149 79.7658 92.9324C77.6638 91.8113 75.8421 90.4801 74.3708 89.0788C73.4599 88.1679 72.6892 87.3271 72.0586 86.3462C71.2879 85.2251 70.7273 84.1041 70.3069 82.983C69.8865 81.862 69.7464 80.7409 69.6763 79.6199C69.5362 74.7153 72.6892 69.7406 79.0652 65.8169C91.8171 58.0396 112.907 57.5492 126.009 64.7659C132.525 68.4094 135.888 73.1738 136.029 78.1485Z" fill="#F1F2F2" stroke="#231F20" stroke-width="0.523461" stroke-miterlimit="10" stroke-linecap="round" stroke-linejoin="round"/>
        <path d="M142.615 115.564C142.405 115.494 142.195 115.353 141.985 115.213L142.615 115.564Z" fill="white" stroke="#231F20" stroke-width="0.176776" stroke-miterlimit="10"/>
        <path d="M152.354 104.003C152.494 107.926 149.832 112.761 146.539 114.793C145.067 115.704 143.666 115.914 142.615 115.494L141.984 115.143C141.003 114.443 140.373 113.181 140.303 111.36C140.163 107.436 142.825 102.601 146.118 100.57C147.519 99.6587 148.851 99.4485 149.972 99.7988C151.373 100.359 152.354 101.761 152.354 104.003Z" fill="#58595B" stroke="#231F20" stroke-width="0.176776" stroke-miterlimit="10" stroke-linecap="round" stroke-linejoin="round"/>
        <path d="M149.972 99.8689C148.921 99.5185 147.59 99.7287 146.188 100.64C142.825 102.671 140.233 107.506 140.373 111.43C140.443 113.251 141.074 114.513 142.055 115.213L134.277 111.36C132.946 110.869 132.035 109.468 132.035 107.296C132.035 106.595 132.105 105.824 132.245 105.054C133.997 103.933 135.538 102.742 136.8 101.55C138.761 99.6587 140.233 97.6968 141.074 95.5948C141.424 95.6649 141.704 95.735 141.984 95.8751L142.195 96.0152L149.972 99.8689Z" fill="url(#paint0_linear_1_19911)" stroke="#231F20" stroke-width="0.176776" stroke-miterlimit="10" stroke-linecap="round" stroke-linejoin="round"/>
        <path d="M159.851 122.08C159.711 122.01 159.501 121.94 159.361 121.799L159.851 122.08Z" fill="white" stroke="#231F20" stroke-width="0.134877" stroke-miterlimit="10"/>
        <path d="M167.348 113.251C167.418 116.264 165.457 119.908 162.934 121.519C161.813 122.22 160.762 122.36 159.921 122.08L159.431 121.799C158.66 121.309 158.24 120.328 158.17 118.927C158.1 115.914 160.062 112.27 162.584 110.659C163.705 109.958 164.686 109.818 165.527 110.098C166.578 110.449 167.278 111.57 167.348 113.251Z" fill="#58595B" stroke="#231F20" stroke-width="0.134877" stroke-miterlimit="10" stroke-linecap="round" stroke-linejoin="round"/>
        <path d="M166.297 113.882C166.368 116.194 164.826 119.137 162.794 120.328C161.883 120.889 161.113 121.029 160.482 120.748L160.132 120.538C159.571 120.118 159.151 119.347 159.151 118.296C159.081 115.984 160.622 113.041 162.654 111.85C163.495 111.36 164.266 111.219 164.966 111.36C165.737 111.64 166.297 112.551 166.297 113.882Z" fill="#231F20" stroke="#231F20" stroke-width="0.134877" stroke-miterlimit="10"/>
        <path d="M165.457 110.098C164.616 109.818 163.635 110.028 162.514 110.659C159.992 112.2 157.96 115.914 158.1 118.927C158.17 120.328 158.59 121.309 159.361 121.799L143.877 113.952C142.826 113.602 142.195 112.481 142.125 110.869C142.055 107.856 144.017 104.213 146.539 102.601C147.73 101.831 148.851 101.761 149.692 102.111L149.902 102.181L165.457 110.098Z" fill="url(#paint1_linear_1_19911)" stroke="#231F20" stroke-width="0.134877" stroke-miterlimit="10" stroke-linecap="round" stroke-linejoin="round"/>
        <path d="M124.608 126.283C124.398 126.213 124.188 126.073 123.978 125.933L124.608 126.283Z" fill="white" stroke="#231F20" stroke-width="0.176776" stroke-miterlimit="10"/>
        <path d="M134.418 114.793C134.558 118.716 131.895 123.551 128.602 125.583C127.131 126.494 125.73 126.704 124.679 126.283L123.978 126.003C122.997 125.303 122.366 124.041 122.296 122.22C122.156 118.296 124.819 113.461 128.112 111.43C129.513 110.519 130.844 110.309 131.965 110.659C133.437 111.079 134.348 112.551 134.418 114.793Z" fill="#58595B" stroke="#231F20" stroke-width="0.176776" stroke-miterlimit="10" stroke-linecap="round" stroke-linejoin="round"/>
        <path d="M131.965 110.659C130.914 110.309 129.583 110.519 128.182 111.43C124.819 113.461 122.226 118.296 122.366 122.22C122.436 124.041 123.067 125.303 124.048 126.003L116.201 122.08C114.869 121.589 113.958 120.188 113.958 118.016C113.888 115.914 114.589 113.532 115.85 111.43C119.704 110.589 123.347 109.398 126.64 107.926L131.965 110.659Z" fill="url(#paint2_linear_1_19911)" stroke="#231F20" stroke-width="0.176776" stroke-miterlimit="10" stroke-linecap="round" stroke-linejoin="round"/>
        <path d="M141.915 132.8C141.775 132.73 141.565 132.66 141.425 132.519L141.915 132.8Z" fill="white" stroke="#231F20" stroke-width="0.134877" stroke-miterlimit="10"/>
        <path d="M149.343 123.971C149.413 126.984 147.451 130.628 144.928 132.239C143.807 132.94 142.756 133.08 141.916 132.8L141.425 132.519C140.654 132.029 140.234 131.048 140.164 129.647C140.094 126.634 142.056 122.99 144.578 121.379C145.699 120.678 146.68 120.538 147.521 120.818C148.572 121.169 149.343 122.29 149.343 123.971Z" fill="#58595B" stroke="#231F20" stroke-width="0.134877" stroke-miterlimit="10" stroke-linecap="round" stroke-linejoin="round"/>
        <path d="M148.361 124.602C148.431 126.914 146.89 129.857 144.858 131.048C143.947 131.609 143.177 131.749 142.546 131.468L142.196 131.258C141.635 130.838 141.215 130.067 141.215 129.016C141.145 126.704 142.686 123.761 144.718 122.57C145.559 122.08 146.33 121.939 147.03 122.08C147.731 122.43 148.291 123.271 148.361 124.602Z" fill="#231F20" stroke="#231F20" stroke-width="0.134877" stroke-miterlimit="10"/>
        <path d="M147.521 120.818C146.68 120.538 145.699 120.748 144.578 121.379C142.056 122.92 140.024 126.634 140.164 129.647C140.234 131.048 140.654 132.029 141.425 132.519L125.94 124.672C124.889 124.322 124.259 123.201 124.189 121.589C124.119 118.576 126.081 114.933 128.603 113.321C129.794 112.551 130.915 112.481 131.756 112.831L131.966 112.901L147.521 120.818Z" fill="url(#paint3_linear_1_19911)" stroke="#231F20" stroke-width="0.134877" stroke-miterlimit="10" stroke-linecap="round" stroke-linejoin="round"/>
        <path opacity="0.2" d="M99.7353 87.2571C107.552 87.2571 113.889 83.5869 113.889 79.0594C113.889 74.5319 107.552 70.8617 99.7353 70.8617C91.9187 70.8617 85.582 74.5319 85.582 79.0594C85.582 83.5869 91.9187 87.2571 99.7353 87.2571Z" fill="black" stroke="#231F20" stroke-width="0.201439" stroke-miterlimit="10"/>
        <path d="M118.724 75.8366C118.724 76.327 118.653 76.7474 118.513 77.1678C118.373 77.6583 118.163 78.0787 117.953 78.4991C117.252 79.6902 116.061 80.8112 114.379 81.7922C108.634 85.1553 99.2452 85.1553 93.4998 81.7922C91.8183 80.8112 90.6271 79.6902 89.9265 78.4991C89.6462 78.0787 89.5061 77.5882 89.366 77.1678C89.2258 76.7474 89.1558 76.257 89.1558 75.8366C89.1558 74.9958 89.366 74.155 89.7864 73.3142C89.9265 73.0339 90.0666 72.8237 90.2768 72.5435C90.3469 72.4734 90.4169 72.4033 90.4169 72.3333L90.487 72.4033L92.7291 73.6645L95.1814 72.2632V70.6517L93.64 69.7408C93.9202 69.6007 94.2005 69.4606 94.4808 69.3204C94.761 69.1803 95.0413 69.0402 95.3215 68.9001C95.4617 68.83 95.6719 68.7599 95.812 68.6899L98.7548 70.2313L101.207 68.83V67.4287C105.831 66.9382 110.806 67.7089 114.379 69.8109C117.322 71.4925 118.724 73.6645 118.724 75.8366Z" fill="#F1F2F2" stroke="#231F20" stroke-width="0.201439" stroke-miterlimit="10" stroke-linecap="round" stroke-linejoin="round"/>
        <path d="M118.724 75.8365V78.5691C118.724 80.7412 117.252 82.9132 114.379 84.5948C108.634 87.9579 99.2452 87.9579 93.4998 84.5948C90.6271 82.9132 89.1558 80.7412 89.1558 78.5691V75.8365C89.1558 76.327 89.2258 76.7474 89.366 77.1678C89.5061 77.6583 89.7163 78.0787 89.9265 78.499C90.6271 79.6902 91.8183 80.8112 93.4998 81.7921C99.2452 85.1553 108.634 85.1553 114.379 81.7921C116.061 80.8112 117.252 79.6902 117.953 78.499C118.233 78.0787 118.373 77.5882 118.513 77.1678C118.724 76.7474 118.724 76.327 118.724 75.8365Z" fill="#F1F2F2" stroke="#231F20" stroke-width="0.201439" stroke-miterlimit="10" stroke-linecap="round" stroke-linejoin="round"/>
        <path d="M95.1816 70.6516V72.3332L92.7993 73.6644V72.0529L95.1816 70.6516Z" fill="#F1F2F2" stroke="#231F20" stroke-width="0.201439" stroke-miterlimit="10" stroke-linecap="round" stroke-linejoin="round"/>
        <path d="M92.7991 72.053V73.6645L90.557 72.4033H90.4869L89.436 71.8428V73.174L87.334 71.9129V68.9L90.9774 71.002L91.4679 71.2823L92.7991 72.053Z" fill="#F1F2F2" stroke="#231F20" stroke-width="0.201439" stroke-miterlimit="10" stroke-linecap="round" stroke-linejoin="round"/>
        <path d="M101.277 67.4286L101.137 67.4987L98.8248 68.8299L97.7037 68.1292L96.933 67.7089L93.4297 65.6769L95.8119 64.2056L99.4553 66.3075L101.277 67.4286Z" fill="#F1F2F2" stroke="#231F20" stroke-width="0.201439" stroke-miterlimit="10" stroke-linecap="round" stroke-linejoin="round"/>
        <path d="M101.277 67.4987V68.9L98.8247 70.3013V68.8299L101.067 67.4987C101.207 67.4987 101.207 67.4987 101.277 67.4987Z" fill="#F1F2F2" stroke="#231F20" stroke-width="0.201439" stroke-miterlimit="10" stroke-linecap="round" stroke-linejoin="round"/>
        <path d="M101.277 67.4286V67.4987C101.207 67.4987 101.137 67.4987 101.137 67.4987L101.277 67.4286Z" fill="#F1F2F2" stroke="#231F20" stroke-width="0.201439" stroke-miterlimit="10" stroke-linecap="round" stroke-linejoin="round"/>
        <path d="M95.8821 68.6898C95.7419 68.7599 95.5317 68.8299 95.3916 68.9V68.4095L95.5317 68.4796L95.8821 68.6898Z" fill="#F1F2F2" stroke="#231F20" stroke-width="0.201439" stroke-miterlimit="10" stroke-linecap="round" stroke-linejoin="round"/>
        <path d="M95.1814 70.6516L92.7991 72.0529L91.4679 71.2822L90.9774 71.0019L87.334 68.9L89.7863 67.4987L93.4297 69.6006L93.6399 69.7408L95.1814 70.6516Z" fill="#F1F2F2" stroke="#231F20" stroke-width="0.201439" stroke-miterlimit="10" stroke-linecap="round" stroke-linejoin="round"/>
        <path d="M98.8248 68.8298V70.3012L95.882 68.6897L95.4616 68.4795L95.3215 68.4094V68.8999C95.0412 69.04 94.7609 69.1802 94.4807 69.3203L94.2705 69.1802L93.4297 68.6897V65.6769L96.933 67.7088L97.7037 68.1292L98.8248 68.8298Z" fill="#F1F2F2" stroke="#231F20" stroke-width="0.201439" stroke-miterlimit="10" stroke-linecap="round" stroke-linejoin="round"/>
        <path opacity="0.2" d="M92.7991 72.053V73.6645L90.557 72.4033H90.4869L89.436 71.8428V73.174L87.334 71.9129V68.9L90.9774 71.002L91.4679 71.2823L92.7991 72.053Z" fill="black" stroke="#231F20" stroke-width="0.201439" stroke-miterlimit="10"/>
        <path opacity="0.2" d="M98.8248 68.8298V70.3012L95.882 68.6897L95.4616 68.4795L95.3215 68.4094V68.8999C95.0412 69.04 94.7609 69.1802 94.4807 69.3203L94.2705 69.1802L93.4297 68.6897V65.6769L96.933 67.7088L97.7037 68.1292L98.8248 68.8298Z" fill="black" stroke="#231F20" stroke-width="0.201439" stroke-miterlimit="10"/>
        <path d="M90.4873 72.4033C90.4172 72.4734 90.3471 72.5434 90.3471 72.6135L89.5063 73.174V71.8428L90.4873 72.4033Z" fill="#F1F2F2" stroke="#231F20" stroke-width="0.201439" stroke-miterlimit="10" stroke-linecap="round" stroke-linejoin="round"/>
        <path opacity="0.2" d="M118.724 75.8364V78.569C118.724 80.741 117.252 82.9131 114.379 84.5946C108.634 87.9578 99.2452 87.9578 93.4998 84.5946C90.6271 82.9131 89.1558 80.741 89.1558 78.569V75.8364C89.1558 76.3269 89.2258 76.7473 89.366 77.1677C89.5061 77.6581 89.7163 78.0785 89.9265 78.4989C90.6271 79.69 91.8183 80.8111 93.4998 81.792C99.2452 85.1552 108.634 85.1552 114.379 81.792C116.061 80.8111 117.252 79.69 117.953 78.4989C118.233 78.0785 118.373 77.5881 118.513 77.1677C118.724 76.7473 118.724 76.3269 118.724 75.8364Z" fill="black" stroke="#231F20" stroke-width="0.492913" stroke-miterlimit="10"/>
        <path opacity="0.14" d="M106.322 84.3144V87.047C101.768 87.4673 97.0031 86.6966 93.4998 84.6647C90.6271 82.9831 89.1558 80.8111 89.1558 78.6391V75.9065C89.1558 76.397 89.2258 76.8173 89.366 77.2377C89.5061 77.7282 89.7163 78.1486 89.9265 78.569C90.6271 79.7601 91.8183 80.8812 93.4998 81.8621C97.0031 83.894 101.838 84.7348 106.322 84.3144Z" fill="black" stroke="#231F20" stroke-width="0.201439" stroke-miterlimit="10"/>
    </g>
    <defs>
        <linearGradient id="paint0_linear_1_19911" x1="136.681" y1="110.818" x2="144.097" y2="96.7875" gradientUnits="userSpaceOnUse">
            <stop stop-color="#59595C"/>
            <stop offset="0.3636" stop-color="#221F1F"/>
            <stop offset="0.6738" stop-color="#808184"/>
            <stop offset="1" stop-color="#424143"/>
        </linearGradient>
        <linearGradient id="paint1_linear_1_19911" x1="150.538" y1="115.974" x2="155.935" y2="105.142" gradientUnits="userSpaceOnUse">
            <stop stop-color="#59595C"/>
            <stop offset="0.3636" stop-color="#221F1F"/>
            <stop offset="0.6738" stop-color="#808184"/>
            <stop offset="1" stop-color="#424143"/>
        </linearGradient>
        <linearGradient id="paint2_linear_1_19911" x1="118.469" y1="121.439" x2="125.885" y2="107.407" gradientUnits="userSpaceOnUse">
            <stop stop-color="#59595C"/>
            <stop offset="0.3636" stop-color="#221F1F"/>
            <stop offset="0.6738" stop-color="#808184"/>
            <stop offset="1" stop-color="#424143"/>
        </linearGradient>
        <linearGradient id="paint3_linear_1_19911" x1="132.569" y1="126.722" x2="137.966" y2="115.889" gradientUnits="userSpaceOnUse">
            <stop stop-color="#59595C"/>
            <stop offset="0.3636" stop-color="#221F1F"/>
            <stop offset="0.6738" stop-color="#808184"/>
            <stop offset="1" stop-color="#424143"/>
        </linearGradient>
        <clipPath id="">
            <rect width="103.767" height="73.569" fill="white" transform="translate(63.6514 59.4407)"/>
        </clipPath>
    </defs>

</svg>
