<svg width="230" height="230" viewBox="0 0 230 230" fill="none"
    xmlns="http://www.w3.org/2000/svg">

    <g clip-path="url(#)">
        <path d="M140.303 114.583L173.304 133.851L190.54 124.812L136.379 91.6011L140.303 114.583Z" fill="#F1F2F2" stroke="#231F20" stroke-width="0.201439" stroke-miterlimit="10" stroke-linecap="round" stroke-linejoin="round"/>
        <path opacity="0.2" d="M140.303 114.583L173.304 133.851L190.54 124.812L136.379 91.6011L140.303 114.583Z" fill="black" stroke="#231F20" stroke-width="0.0802954" stroke-miterlimit="10"/>
        <path d="M109.824 103.652C109.824 103.652 103.729 97.4865 102.678 109.047C101.557 120.538 101.557 120.538 101.557 120.538L113.117 137.914L126.64 139.316L127.621 132.309L109.824 103.652Z" fill="#49443A" stroke="#231F20" stroke-width="0.225612" stroke-miterlimit="10" stroke-linecap="round" stroke-linejoin="round"/>
        <path d="M133.997 124.742C133.997 125.583 133.927 126.354 133.857 127.124C133.717 127.825 133.577 128.456 133.367 129.086C132.876 130.488 132.035 131.538 131.054 132.239C130.073 132.94 128.882 133.29 127.551 133.36C127.481 133.36 127.341 133.36 127.271 133.36C125.799 133.36 124.118 132.87 122.296 131.889C122.226 131.889 122.226 131.819 122.156 131.819C115.43 128.035 109.965 118.787 109.895 111.219C109.895 110.869 109.895 110.449 109.895 110.098C109.965 108.417 110.385 107.015 110.946 105.894C110.946 105.824 111.016 105.754 111.086 105.684C111.786 104.423 112.767 103.512 114.028 103.022C115.079 102.601 116.271 102.461 117.602 102.671C118.583 102.812 119.704 103.162 120.825 103.722C121.105 103.863 121.455 104.003 121.736 104.213C121.876 104.283 122.016 104.353 122.226 104.493C122.296 104.493 122.296 104.563 122.366 104.563C127.761 109.748 132.035 117.035 133.927 124.182C133.927 124.252 133.927 124.252 133.927 124.322C133.997 124.392 133.997 124.532 133.997 124.742Z" fill="#6E6657" stroke="#231F20" stroke-width="0.225612" stroke-miterlimit="10" stroke-linecap="round" stroke-linejoin="round"/>
        <path d="M107.933 115.493C108.003 121.169 112.066 128.035 117.041 130.838C119.704 132.309 122.016 132.379 123.627 131.188C124.398 130.628 124.959 129.857 125.379 128.806C125.519 128.385 125.659 127.895 125.729 127.334C125.799 126.774 125.869 126.213 125.869 125.583C125.799 119.907 121.736 113.041 116.761 110.238C116.551 110.098 116.341 110.028 116.06 109.888C115.219 109.468 114.379 109.257 113.678 109.117C112.697 108.977 111.786 109.047 111.016 109.398C109.124 110.238 107.933 112.34 107.933 115.493Z" fill="#928874" stroke="#231F20" stroke-width="0.225612" stroke-miterlimit="10" stroke-linecap="round" stroke-linejoin="round"/>
        <path d="M111.086 109.398C111.857 109.047 112.768 108.977 113.748 109.117C114.519 109.257 115.29 109.468 116.131 109.888C116.341 110.028 116.551 110.098 116.831 110.238C121.806 113.041 125.87 119.907 125.94 125.583C125.94 126.213 125.87 126.774 125.8 127.334C125.73 127.825 125.59 128.315 125.449 128.806C125.099 129.857 124.468 130.628 123.698 131.188L128.532 128.315L128.602 128.245C130.214 127.334 131.195 125.303 131.195 122.43C131.125 116.755 127.061 109.888 122.086 107.085C119.914 105.894 117.952 105.614 116.411 106.245L115.15 106.945L111.086 109.398Z" fill="url(#paint0_linear_1_19911)" stroke="#231F20" stroke-width="0.225612" stroke-miterlimit="10" stroke-linecap="round" stroke-linejoin="round"/>
        <path d="M133.997 124.322C133.997 124.252 133.997 124.252 133.927 124.181C131.965 116.965 127.691 109.748 122.366 104.563C122.296 104.493 122.296 104.493 122.226 104.423C120.264 102.531 118.162 100.99 115.99 99.7285C115.5 99.4483 115.009 99.2381 114.589 99.0279C112.837 98.1871 111.156 97.6266 109.544 97.4164C107.512 97.1361 105.621 97.3463 104.009 97.9769H103.939C99.8751 99.6585 97.3527 104.143 97.4228 110.729C97.5629 122.64 106.111 137.074 116.551 142.959C122.086 146.042 127.061 146.112 130.494 143.66C132.105 142.539 133.296 140.857 134.137 138.685C134.488 137.774 134.768 136.723 134.908 135.602C135.118 134.481 135.188 133.22 135.188 131.889C135.048 129.436 134.698 126.844 133.997 124.322ZM127.201 133.29C126.71 134.201 126.08 134.972 125.309 135.532C123.137 137.074 119.984 137.074 116.411 135.042C109.754 131.328 104.289 122.15 104.219 114.512C104.149 110.308 105.761 107.436 108.353 106.385C109.124 106.034 110.035 105.894 111.016 105.894C111.086 105.894 111.156 105.894 111.226 105.894C111.436 105.894 111.716 105.964 111.926 105.964C112.907 106.105 114.028 106.455 115.149 106.945C115.43 107.085 115.78 107.226 116.06 107.436C122.717 111.149 128.182 120.398 128.252 127.965C128.252 128.105 128.252 128.245 128.252 128.385C128.252 129.086 128.182 129.717 128.112 130.347C127.971 131.048 127.831 131.679 127.621 132.309C127.481 132.729 127.341 133.01 127.201 133.29Z" fill="#231F20" stroke="#231F20" stroke-width="0.225612" stroke-miterlimit="10" stroke-linecap="round" stroke-linejoin="round"/>
        <path d="M125.449 85.295L125.379 85.3651C126.01 85.0147 126.57 84.6644 126.92 84.4542L125.449 85.295ZM133.927 124.111C131.965 116.895 127.691 109.678 122.366 104.493C122.296 104.423 122.296 104.423 122.226 104.353V104.423C122.506 105.614 122.927 106.735 123.347 107.926C125.099 112.691 127.831 117.315 131.124 121.239C132.035 122.29 133.016 123.341 133.997 124.322C133.997 124.322 133.997 124.322 134.067 124.322C133.997 124.252 133.997 124.182 133.927 124.111ZM152.705 130.558C153.195 130.347 153.686 130.067 154.176 129.717L152.705 130.558Z" fill="#231F20" stroke="#231F20" stroke-width="0.225612" stroke-miterlimit="10" stroke-linecap="round" stroke-linejoin="round"/>
        <path d="M155.927 128.245C155.787 128.385 155.647 128.456 155.577 128.526C155.717 128.456 155.787 128.385 155.927 128.245Z" fill="url(#paint1_linear_1_19911)" stroke="#231F20" stroke-width="0.225612" stroke-miterlimit="10" stroke-linecap="round" stroke-linejoin="round"/>
        <path d="M158.801 117.946C158.801 119.277 158.731 120.538 158.521 121.659C158.381 122.78 158.1 123.761 157.75 124.672C156.979 126.844 155.718 128.526 154.107 129.647L152.635 130.488L130.424 143.59C132.036 142.469 133.227 140.787 134.068 138.615C134.418 137.704 134.698 136.653 134.838 135.532C135.049 134.411 135.119 133.15 135.119 131.819C135.119 129.366 134.698 126.844 133.998 124.252C133.998 124.182 133.998 124.182 133.928 124.112C131.966 116.895 127.692 109.678 122.367 104.493C122.297 104.423 122.297 104.423 122.227 104.353C120.265 102.461 118.163 100.92 115.991 99.6586C115.5 99.3783 115.01 99.1681 114.589 98.9579C112.838 98.1171 111.156 97.5566 109.545 97.3464C107.513 97.0661 105.621 97.2763 104.01 97.9069H103.939L125.52 85.225L125.45 85.2951C126.08 84.9448 126.641 84.5944 126.991 84.3842C127.061 84.3842 127.061 84.3142 127.131 84.3142C127.201 84.3142 127.271 84.2441 127.271 84.2441C127.341 84.2441 127.411 84.174 127.411 84.174C127.482 84.174 127.482 84.104 127.552 84.104L127.622 84.0339C129.303 83.3333 131.195 83.1231 133.227 83.4033C134.838 83.6135 136.52 84.174 138.272 85.0148C138.762 85.225 139.183 85.5053 139.673 85.7155C141.915 86.9767 144.087 88.5882 146.049 90.55C151.444 95.7349 155.718 103.022 157.61 110.168C158.381 112.831 158.801 115.423 158.801 117.946Z" fill="url(#paint2_linear_1_19911)" stroke="#231F20" stroke-width="0.225612" stroke-miterlimit="10" stroke-linecap="round" stroke-linejoin="round"/>
        <path d="M126.92 84.4542C126.5 84.6644 126.009 85.0147 125.379 85.3651L125.449 85.295L126.92 84.4542Z" fill="#C49A6C" stroke="#231F20" stroke-width="0.225612" stroke-miterlimit="10" stroke-linecap="round" stroke-linejoin="round"/>
        <path d="M154.667 129.717C154.667 129.717 148.571 123.551 147.52 135.112C146.469 146.673 146.469 146.673 146.469 146.673L158.03 164.049L171.553 165.45L172.534 158.444L154.667 129.717Z" fill="#49443A" stroke="#231F20" stroke-width="0.225612" stroke-miterlimit="10" stroke-linecap="round" stroke-linejoin="round"/>
        <path d="M178.839 150.807C178.839 151.647 178.769 152.418 178.699 153.189C178.559 153.889 178.419 154.52 178.209 155.151C177.718 156.552 176.878 157.603 175.897 158.304C174.916 159.004 173.725 159.425 172.393 159.425C172.323 159.425 172.183 159.425 172.113 159.425C170.642 159.355 168.96 158.934 167.138 157.953C167.068 157.953 167.068 157.883 166.998 157.883C160.272 154.1 154.807 144.921 154.737 137.284C154.737 136.934 154.737 136.513 154.737 136.163C154.807 134.481 155.227 133.08 155.788 131.959C155.788 131.889 155.858 131.819 155.928 131.749C156.629 130.487 157.61 129.577 158.871 129.086C159.922 128.666 161.113 128.526 162.444 128.736C163.495 128.876 164.546 129.226 165.667 129.787C165.947 129.927 166.298 130.067 166.578 130.277C166.718 130.347 166.858 130.417 167.068 130.558C167.138 130.558 167.138 130.628 167.209 130.628C172.604 135.812 176.878 143.099 178.769 150.246C178.769 150.316 178.769 150.316 178.769 150.386C178.839 150.456 178.839 150.666 178.839 150.807Z" fill="#6E6657" stroke="#231F20" stroke-width="0.225612" stroke-miterlimit="10" stroke-linecap="round" stroke-linejoin="round"/>
        <path d="M152.845 141.558C152.915 147.233 156.979 154.1 161.954 156.902C164.616 158.374 166.928 158.444 168.54 157.253C169.311 156.692 169.871 155.921 170.292 154.87C170.432 154.45 170.572 153.96 170.642 153.399C170.712 152.838 170.782 152.278 170.782 151.647C170.712 145.972 166.648 139.106 161.673 136.303C161.463 136.163 161.253 136.093 160.973 135.953C160.132 135.532 159.291 135.322 158.591 135.182C157.61 135.042 156.699 135.112 155.928 135.462C153.966 136.303 152.775 138.405 152.845 141.558Z" fill="#928874" stroke="#231F20" stroke-width="0.225612" stroke-miterlimit="10" stroke-linecap="round" stroke-linejoin="round"/>
        <path d="M155.928 135.462C156.699 135.112 157.61 135.042 158.591 135.182C159.361 135.322 160.132 135.532 160.973 135.953C161.183 136.093 161.393 136.163 161.674 136.303C166.648 139.106 170.712 145.972 170.782 151.647C170.782 152.278 170.712 152.839 170.642 153.399C170.572 153.889 170.432 154.38 170.292 154.87C169.941 155.921 169.311 156.692 168.54 157.253L173.375 154.38L173.445 154.31C175.056 153.399 176.037 151.367 176.037 148.494C175.967 142.819 171.903 135.953 166.929 133.15C164.757 131.959 162.795 131.679 161.253 132.309L159.992 133.01L155.928 135.462Z" fill="url(#paint3_linear_1_19911)" stroke="#231F20" stroke-width="0.225612" stroke-miterlimit="10" stroke-linecap="round" stroke-linejoin="round"/>
        <path d="M178.84 150.386C178.84 150.316 178.84 150.316 178.77 150.246C176.808 143.029 172.534 135.812 167.209 130.628C167.139 130.557 167.139 130.557 167.069 130.487C165.107 128.596 163.005 127.054 160.833 125.793C160.342 125.513 159.852 125.303 159.431 125.092C157.68 124.252 155.998 123.691 154.387 123.481C152.355 123.201 150.463 123.411 148.852 124.041C144.788 125.723 142.265 130.207 142.335 136.793C142.476 148.704 151.024 163.138 161.463 169.024C166.999 172.106 171.973 172.177 175.406 169.724C177.018 168.603 178.209 166.922 179.05 164.75C179.4 163.839 179.68 162.788 179.821 161.667C180.031 160.546 180.101 159.284 180.101 157.953C179.891 155.501 179.54 152.908 178.84 150.386ZM170.152 161.597C167.979 163.138 164.827 163.138 161.253 161.106C154.597 157.393 149.132 148.144 149.062 140.577C148.992 136.373 150.603 133.5 153.196 132.449C153.966 132.099 154.877 131.959 155.858 131.959C155.928 131.959 155.998 131.959 156.068 131.959C156.278 131.959 156.559 131.959 156.769 132.029C157.75 132.169 158.871 132.519 159.992 133.01C160.272 133.15 160.623 133.29 160.903 133.5C167.559 137.214 173.024 146.462 173.094 154.029C173.094 154.17 173.094 154.31 173.094 154.45C173.094 155.151 173.024 155.781 172.954 156.412C172.814 157.112 172.674 157.743 172.464 158.374C172.324 158.724 172.183 159.004 172.043 159.354C171.553 160.335 170.922 161.036 170.152 161.597Z" fill="#231F20" stroke="#231F20" stroke-width="0.225612" stroke-miterlimit="10" stroke-linecap="round" stroke-linejoin="round"/>
        <path d="M170.291 111.36C170.221 111.36 170.221 111.43 170.221 111.43C170.852 111.079 171.412 110.729 171.763 110.519L170.291 111.36ZM178.839 150.176C176.877 142.959 172.603 135.743 167.278 130.558C167.208 130.488 167.208 130.488 167.138 130.418V130.488C167.418 131.679 167.839 132.8 168.259 133.991C170.011 138.755 172.743 143.38 176.037 147.303C176.947 148.354 177.928 149.405 178.909 150.386C178.839 150.316 178.839 150.246 178.839 150.176ZM197.547 156.622C198.037 156.412 198.528 156.132 199.018 155.781L197.547 156.622Z" fill="#231F20" stroke="#231F20" stroke-width="0.225612" stroke-miterlimit="10" stroke-linecap="round" stroke-linejoin="round"/>
        <path d="M200.77 154.31C200.63 154.45 200.489 154.52 200.419 154.59C200.56 154.52 200.63 154.45 200.77 154.31Z" fill="url(#paint4_linear_1_19911)" stroke="#231F20" stroke-width="0.225612" stroke-miterlimit="10" stroke-linecap="round" stroke-linejoin="round"/>
        <path d="M203.643 144.01C203.643 145.341 203.573 146.603 203.362 147.724C203.222 148.845 202.942 149.826 202.592 150.737C201.821 152.909 200.56 154.59 198.948 155.711L197.477 156.552L175.196 169.584C176.808 168.463 177.999 166.782 178.839 164.61C179.19 163.699 179.47 162.648 179.61 161.527C179.82 160.406 179.89 159.144 179.89 157.813C179.89 155.361 179.47 152.839 178.769 150.246C178.769 150.176 178.769 150.176 178.699 150.106C176.737 142.889 172.463 135.672 167.138 130.488C167.068 130.417 167.068 130.417 166.998 130.347C165.037 128.456 162.935 126.914 160.762 125.653C160.272 125.373 159.782 125.163 159.361 124.952C157.61 124.112 155.928 123.551 154.316 123.341C152.285 123.061 150.393 123.271 148.781 123.901L170.362 111.29C170.291 111.29 170.291 111.36 170.291 111.36C170.922 111.009 171.483 110.659 171.833 110.449C171.903 110.449 171.903 110.379 171.973 110.379C172.043 110.379 172.113 110.309 172.113 110.309C172.183 110.239 172.253 110.239 172.253 110.239C172.323 110.239 172.323 110.168 172.393 110.168L172.463 110.098C174.145 109.398 176.037 109.188 178.069 109.538C179.68 109.748 181.362 110.309 183.113 111.149C183.604 111.36 184.024 111.64 184.515 111.85C186.757 113.111 188.929 114.723 190.891 116.685C196.286 121.869 200.56 129.156 202.452 136.303C203.222 138.895 203.643 141.558 203.643 144.01Z" fill="url(#paint5_linear_1_19911)" stroke="#231F20" stroke-width="0.225612" stroke-miterlimit="10" stroke-linecap="round" stroke-linejoin="round"/>
        <path d="M203.643 144.01C203.643 145.341 203.573 146.603 203.362 147.724C203.222 148.845 202.942 149.826 202.592 150.737C201.821 152.909 200.56 154.59 198.948 155.711L197.477 156.552L175.196 169.584C176.808 168.463 177.999 166.782 178.839 164.61C179.19 163.699 179.47 162.648 179.61 161.527C179.82 160.406 179.89 159.144 179.89 157.813C179.89 155.361 179.47 152.839 178.769 150.246C178.769 150.176 178.769 150.176 178.699 150.106C176.737 142.889 172.463 135.672 167.138 130.488C167.068 130.417 167.068 130.417 166.998 130.347C165.037 128.456 162.935 126.914 160.762 125.653C160.272 125.373 159.782 125.163 159.361 124.952C157.61 124.112 155.928 123.551 154.316 123.341C152.285 123.061 150.393 123.271 148.781 123.901L170.362 111.29C170.291 111.29 170.291 111.36 170.291 111.36C170.922 111.009 171.483 110.659 171.833 110.449C171.903 110.449 171.903 110.379 171.973 110.379C172.043 110.379 172.113 110.309 172.113 110.309C172.183 110.239 172.253 110.239 172.253 110.239C172.323 110.239 172.323 110.168 172.393 110.168L172.463 110.098C174.145 109.398 176.037 109.188 178.069 109.538C179.68 109.748 181.362 110.309 183.113 111.149C183.394 111.29 183.674 111.43 183.884 111.57L183.464 111.78L172.043 118.086L163.635 123.131V126.214L172.043 121.309L172.323 121.169L186.336 113.462L186.687 113.251C187.037 113.462 187.387 113.742 187.668 113.952C188.579 114.653 189.489 115.423 190.33 116.194C190.47 116.334 190.681 116.544 190.821 116.685C196.216 121.869 200.49 129.156 202.382 136.303C203.222 138.895 203.643 141.558 203.643 144.01Z" fill="url(#paint6_linear_1_19911)" stroke="#231F20" stroke-width="0.225612" stroke-miterlimit="10" stroke-linecap="round" stroke-linejoin="round"/>
        <path d="M186.757 113.181L186.407 113.391L172.394 121.099L172.113 121.239L163.706 126.143V123.06L172.113 118.016L183.534 111.71L183.955 111.5C184.165 111.64 184.375 111.71 184.585 111.85C185.286 112.27 186.057 112.691 186.757 113.181Z" fill="url(#paint7_linear_1_19911)" stroke="#231F20" stroke-width="0.225612" stroke-miterlimit="10" stroke-linecap="round" stroke-linejoin="round"/>
        <path d="M171.763 110.519C171.413 110.729 170.852 111.079 170.222 111.43L170.292 111.36L171.763 110.519Z" fill="#C49A6C" stroke="#231F20" stroke-width="0.225612" stroke-miterlimit="10" stroke-linecap="round" stroke-linejoin="round"/>
        <g opacity="0.2">
            <path opacity="0.2" d="M188.579 115.634L181.572 119.487L170.151 125.793L164.686 129.086L110.105 98.0472L115.57 94.6841L126.5 88.4482L133.997 84.1742L188.579 115.634Z" fill="black" stroke="#231F20" stroke-width="0.210688" stroke-miterlimit="10"/>
        </g>
        <path d="M190.54 107.856L183.534 111.71L172.113 118.016L163.705 123.061L109.054 92.0215L117.532 86.9067L128.462 80.6709L136.029 76.3268L190.54 107.856Z" fill="#F1F2F2" stroke="#231F20" stroke-width="0.201439" stroke-miterlimit="10" stroke-linecap="round" stroke-linejoin="round"/>
        <path d="M163.705 123.061V126.144L109.054 94.1935V92.0215L163.705 123.061Z" fill="#F1F2F2" stroke="#231F20" stroke-width="0.201439" stroke-miterlimit="10" stroke-linecap="round" stroke-linejoin="round"/>
        <path opacity="0.14" d="M163.705 123.061V126.144L109.054 94.1935V92.0215L163.705 123.061Z" fill="black" stroke="#231F20" stroke-width="0.201439" stroke-miterlimit="10"/>
        <path d="M190.54 107.856L190.4 116.194C189.559 115.353 188.648 114.653 187.738 113.952V112.691L186.757 113.251L186.406 113.462L172.393 121.169L172.113 121.309L163.705 126.214V123.131L172.113 118.086L183.534 111.78L183.954 111.57L190.54 107.856Z" fill="#F1F2F2" stroke="#231F20" stroke-width="0.201439" stroke-miterlimit="10" stroke-linecap="round" stroke-linejoin="round"/>
    </g>
    <defs>
        <linearGradient id="paint0_linear_1_19911" x1="117.885" y1="108.101" x2="127.455" y2="125.619" gradientUnits="userSpaceOnUse">
            <stop stop-color="#C2B59B"/>
            <stop offset="1" stop-color="#49443A"/>
        </linearGradient>
        <linearGradient id="paint1_linear_1_19911" x1="155.814" y1="128.262" x2="155.671" y2="128.532" gradientUnits="userSpaceOnUse">
            <stop stop-color="#58595B"/>
            <stop offset="1"/>
        </linearGradient>
        <linearGradient id="paint2_linear_1_19911" x1="133.65" y1="143.321" x2="130.125" y2="88.5171" gradientUnits="userSpaceOnUse">
            <stop/>
            <stop offset="1" stop-color="#58595B"/>
        </linearGradient>
        <linearGradient id="paint3_linear_1_19911" x1="162.734" y1="134.172" x2="172.303" y2="151.69" gradientUnits="userSpaceOnUse">
            <stop stop-color="#C2B59B"/>
            <stop offset="1" stop-color="#49443A"/>
        </linearGradient>
        <linearGradient id="paint4_linear_1_19911" x1="200.662" y1="154.333" x2="200.519" y2="154.603" gradientUnits="userSpaceOnUse">
            <stop stop-color="#58595B"/>
            <stop offset="1"/>
        </linearGradient>
        <linearGradient id="paint5_linear_1_19911" x1="178.902" y1="167.153" x2="174.518" y2="112.434" gradientUnits="userSpaceOnUse">
            <stop/>
            <stop offset="1" stop-color="#58595B"/>
        </linearGradient>
        <linearGradient id="paint6_linear_1_19911" x1="175.714" y1="163.106" x2="176.671" y2="108.219" gradientUnits="userSpaceOnUse">
            <stop/>
            <stop offset="1" stop-color="#58595B"/>
        </linearGradient>
        <linearGradient id="paint7_linear_1_19911" x1="175.626" y1="124.693" x2="174.68" y2="112.877" gradientUnits="userSpaceOnUse">
            <stop/>
            <stop offset="1" stop-color="#58595B"/>
        </linearGradient>
        <clipPath id="">
            <rect width="106.5" height="95.2894" fill="white" transform="translate(97.2832 76.2566)"/>
        </clipPath>
    </defs>


    <g clip-path="url(#)">
        <path d="M167.768 124.602L129.442 146.743L123.487 137.914L163.004 115.493L167.768 124.602Z" fill="#F9FAFA" stroke="#231F20" stroke-width="0.201439" stroke-miterlimit="10" stroke-linecap="round" stroke-linejoin="round"/>
        <path d="M167.769 124.602V137.564L129.443 160.546V146.743L167.769 124.602Z" fill="#F1F2F2" stroke="#231F20" stroke-width="0.201439" stroke-miterlimit="10" stroke-linecap="round" stroke-linejoin="round"/>
        <path d="M129.443 146.743V160.546L92.3079 163.979L46.9053 124.672V106.945L61.479 101.62H61.6191L120.965 136.443L123.487 137.914L129.443 146.743Z" fill="#F1F2F2" stroke="#231F20" stroke-width="0.201439" stroke-miterlimit="10" stroke-linecap="round" stroke-linejoin="round"/>
        <path d="M163.004 115.493L150.182 122.85L133.156 132.449L123.487 137.914L120.965 136.443L61.6191 101.62H61.479L71.2882 96.1553L101.346 79.1293L163.004 115.493Z" fill="#F1F2F2" stroke="#231F20" stroke-width="0.201439" stroke-miterlimit="10" stroke-linecap="round" stroke-linejoin="round"/>
        <path d="M71.2882 96.1553L61.479 101.62L46.9053 106.945L88.2441 83.6135L101.346 79.1293L71.2882 96.1553Z" fill="#F1F2F2" stroke="#231F20" stroke-width="0.201439" stroke-miterlimit="10" stroke-linecap="round" stroke-linejoin="round"/>
        <path opacity="0.14" d="M129.443 146.743V160.546L92.3079 163.979L46.9053 124.672V106.945L61.479 101.62H61.6191L120.965 136.443L123.487 137.914L129.443 146.743Z" fill="black" stroke="#231F20" stroke-width="0.0802954" stroke-miterlimit="10"/>
        <path d="M123.136 94.1234L111.576 87.5372L107.302 89.9195L75.4917 108.417L87.9634 115.423L96.2312 120.048L99.1739 121.729L103.028 123.901L107.302 126.284V126.143L107.442 126.214L113.607 122.64L116.48 120.959L119.143 119.417L123.277 117.035L136.309 109.608L143.245 105.614L123.136 94.1234ZM133.646 108.137L120.614 115.564L116.48 117.946L113.818 119.487L113.678 119.557L108.072 122.78L107.372 122.36L106.601 121.94L102.747 119.697L99.8746 118.016L90.696 112.761L85.6512 109.818L82.3581 107.926L84.0397 106.945L96.091 100.079L96.3012 99.9389L102.957 96.0853L111.225 91.3208L118.022 95.2445L136.939 106.175L133.646 108.137Z" fill="#F1F2F2" stroke="#231F20" stroke-width="0.328328" stroke-miterlimit="10" stroke-linecap="round" stroke-linejoin="round"/>
        <path d="M136.939 106.245L133.646 108.136L113.187 96.2953L111.155 95.1743V91.3207L117.952 95.2444L136.939 106.245Z" fill="#F1F2F2" stroke="#231F20" stroke-width="0.328328" stroke-miterlimit="10" stroke-linecap="round" stroke-linejoin="round"/>
        <path d="M111.155 91.3207V95.1743L106.741 97.6967L96.3012 103.722L93.7789 105.194L90.6259 106.945L85.6512 109.818L82.2881 107.856L83.9697 106.945L96.091 100.079L96.3012 99.9388L102.957 96.0851L111.155 91.3207Z" fill="#F1F2F2" stroke="#231F20" stroke-width="0.328328" stroke-miterlimit="10" stroke-linecap="round" stroke-linejoin="round"/>
        <path d="M133.646 108.137L120.544 115.564L116.48 117.876L113.817 119.417L113.677 119.347V119.487L108.072 122.78L107.301 122.36L106.53 121.869L102.747 119.697L99.8742 118.016L90.6956 112.761L85.6509 109.818L90.6255 106.945L93.7785 105.194L96.3009 103.722L106.741 97.6968L111.155 95.1744L113.187 96.2955L133.646 108.137Z" fill="#F1F2F2" stroke="#231F20" stroke-width="0.328328" stroke-miterlimit="10" stroke-linecap="round" stroke-linejoin="round"/>
        <path opacity="0.2" d="M136.939 106.245L130.073 110.168L107.652 97.2062L111.155 91.3207L136.939 106.245Z" fill="black" stroke="#231F20" stroke-width="0.328328" stroke-miterlimit="10"/>
        <path d="M59.7271 93.843C59.7271 93.843 59.7977 93.843 59.7271 93.843C59.7977 93.843 59.7977 93.843 59.7271 93.843Z" fill="#F1F2F2" stroke="#231F20" stroke-width="0.201439" stroke-miterlimit="10" stroke-linecap="round" stroke-linejoin="round"/>
        <path d="M91.1868 84.3843L67.1543 97.907L59.7974 93.8431L83.1993 80.7408L91.1868 84.3843Z" fill="#F1F2F2" stroke="#231F20" stroke-width="0.201439" stroke-miterlimit="10" stroke-linecap="round" stroke-linejoin="round"/>
        <path d="M67.1543 97.9068L59.7974 100.569V93.843L67.1543 97.9068Z" fill="#F1F2F2" stroke="#231F20" stroke-width="0.201439" stroke-miterlimit="10" stroke-linecap="round" stroke-linejoin="round"/>
        <path opacity="0.14" d="M67.1543 97.9068L59.7974 100.569V93.843L67.1543 97.9068Z" fill="black" stroke="#231F20" stroke-width="0.201439" stroke-miterlimit="10"/>
        <path d="M130.634 115.774L130.074 115.493L140.443 109.468L141.074 109.818L130.634 115.774Z" fill="#6D6E71" stroke="#231F20" stroke-width="0.0125215" stroke-miterlimit="10" stroke-linecap="round" stroke-linejoin="round"/>
        <path d="M131.895 116.474L131.265 116.194L141.634 110.168L142.265 110.519L131.895 116.474Z" fill="#6D6E71" stroke="#231F20" stroke-width="0.0125215" stroke-miterlimit="10" stroke-linecap="round" stroke-linejoin="round"/>
        <path d="M133.086 117.175L132.456 116.825L142.895 110.869L143.456 111.219L133.086 117.175Z" fill="#6D6E71" stroke="#231F20" stroke-width="0.0125215" stroke-miterlimit="10" stroke-linecap="round" stroke-linejoin="round"/>
        <path d="M134.278 117.876L133.647 117.525L144.087 111.57L144.647 111.92L134.278 117.876Z" fill="#6D6E71" stroke="#231F20" stroke-width="0.0125215" stroke-miterlimit="10" stroke-linecap="round" stroke-linejoin="round"/>
        <path d="M135.469 118.576L134.908 118.226L145.278 112.27L145.838 112.621L135.469 118.576Z" fill="#6D6E71" stroke="#231F20" stroke-width="0.0125215" stroke-miterlimit="10" stroke-linecap="round" stroke-linejoin="round"/>
        <path d="M136.66 119.277L136.1 118.927L146.469 112.971L147.1 113.321L136.66 119.277Z" fill="#6D6E71" stroke="#231F20" stroke-width="0.0125215" stroke-miterlimit="10" stroke-linecap="round" stroke-linejoin="round"/>
        <path d="M137.921 119.978L137.29 119.627L147.66 113.672L148.29 113.952L137.921 119.978Z" fill="#6D6E71" stroke="#231F20" stroke-width="0.0125215" stroke-miterlimit="10" stroke-linecap="round" stroke-linejoin="round"/>
        <path d="M139.113 120.678L138.482 120.328L148.922 114.372L149.482 114.653L139.113 120.678Z" fill="#6D6E71" stroke="#231F20" stroke-width="0.0125215" stroke-miterlimit="10" stroke-linecap="round" stroke-linejoin="round"/>
        <path d="M140.303 121.379L139.742 121.029L150.112 115.003L150.672 115.353L140.303 121.379Z" fill="#6D6E71" stroke="#231F20" stroke-width="0.0125215" stroke-miterlimit="10" stroke-linecap="round" stroke-linejoin="round"/>
        <path d="M141.495 122.08L140.934 121.729L151.304 115.704L151.864 116.054L141.495 122.08Z" fill="#6D6E71" stroke="#231F20" stroke-width="0.0125215" stroke-miterlimit="10" stroke-linecap="round" stroke-linejoin="round"/>
        <path d="M142.686 122.78L142.125 122.43L152.495 116.404L153.125 116.755L142.686 122.78Z" fill="#6D6E71" stroke="#231F20" stroke-width="0.0125215" stroke-miterlimit="10" stroke-linecap="round" stroke-linejoin="round"/>
        <path d="M143.947 123.481L143.316 123.131L153.686 117.105L154.316 117.455L143.947 123.481Z" fill="#6D6E71" stroke="#231F20" stroke-width="0.0125215" stroke-miterlimit="10" stroke-linecap="round" stroke-linejoin="round"/>
        <path d="M154.316 117.455L153.686 117.806L139.883 109.818L140.443 109.468L154.316 117.455Z" fill="#6D6E71" stroke="#231F20" stroke-width="0.0125215" stroke-miterlimit="10" stroke-linecap="round" stroke-linejoin="round"/>
        <path d="M153.056 118.156L152.495 118.506L138.622 110.519L139.253 110.168L153.056 118.156Z" fill="#6D6E71" stroke="#231F20" stroke-width="0.0125215" stroke-miterlimit="10" stroke-linecap="round" stroke-linejoin="round"/>
        <path d="M151.864 118.857L151.233 119.207L137.43 111.219L137.991 110.869L151.864 118.857Z" fill="#6D6E71" stroke="#231F20" stroke-width="0.0125215" stroke-miterlimit="10" stroke-linecap="round" stroke-linejoin="round"/>
        <path d="M150.603 119.557L150.042 119.908L136.169 111.92L136.8 111.57L150.603 119.557Z" fill="#6D6E71" stroke="#231F20" stroke-width="0.0125215" stroke-miterlimit="10" stroke-linecap="round" stroke-linejoin="round"/>
        <path d="M149.412 120.258L148.851 120.608L134.978 112.621L135.539 112.27L149.412 120.258Z" fill="#6D6E71" stroke="#231F20" stroke-width="0.0125215" stroke-miterlimit="10" stroke-linecap="round" stroke-linejoin="round"/>
        <path d="M148.221 121.029L147.59 121.309L133.717 113.321L134.348 112.971L148.221 121.029Z" fill="#6D6E71" stroke="#231F20" stroke-width="0.0125215" stroke-miterlimit="10" stroke-linecap="round" stroke-linejoin="round"/>
        <path d="M146.959 121.729L146.399 122.08L132.526 114.022L133.086 113.742L146.959 121.729Z" fill="#6D6E71" stroke="#231F20" stroke-width="0.0125215" stroke-miterlimit="10" stroke-linecap="round" stroke-linejoin="round"/>
        <path d="M145.768 122.43L145.138 122.78L131.265 114.723L131.895 114.442L145.768 122.43Z" fill="#6D6E71" stroke="#231F20" stroke-width="0.0125215" stroke-miterlimit="10" stroke-linecap="round" stroke-linejoin="round"/>
        <path d="M144.507 123.131L143.947 123.481L130.074 115.493L130.634 115.143L144.507 123.131Z" fill="#6D6E71" stroke="#231F20" stroke-width="0.0125215" stroke-miterlimit="10" stroke-linecap="round" stroke-linejoin="round"/>
        <path d="M114.449 125.022L113.889 124.672L124.258 118.716L124.819 119.067L114.449 125.022Z" fill="#6D6E71" stroke="#231F20" stroke-width="0.0125215" stroke-miterlimit="10" stroke-linecap="round" stroke-linejoin="round"/>
        <path d="M115.64 125.723L115.08 125.373L125.449 119.417L126.08 119.767L115.64 125.723Z" fill="#6D6E71" stroke="#231F20" stroke-width="0.0125215" stroke-miterlimit="10" stroke-linecap="round" stroke-linejoin="round"/>
        <path d="M116.902 126.424L116.271 126.073L126.641 120.118L127.271 120.468L116.902 126.424Z" fill="#6D6E71" stroke="#231F20" stroke-width="0.0125215" stroke-miterlimit="10" stroke-linecap="round" stroke-linejoin="round"/>
        <path d="M118.093 127.124L117.462 126.774L127.902 120.818L128.462 121.099L118.093 127.124Z" fill="#6D6E71" stroke="#231F20" stroke-width="0.0125215" stroke-miterlimit="10" stroke-linecap="round" stroke-linejoin="round"/>
        <path d="M119.284 127.825L118.723 127.475L129.093 121.519L129.653 121.799L119.284 127.825Z" fill="#6D6E71" stroke="#231F20" stroke-width="0.0125215" stroke-miterlimit="10" stroke-linecap="round" stroke-linejoin="round"/>
        <path d="M120.475 128.526L119.915 128.175L130.284 122.15L130.915 122.5L120.475 128.526Z" fill="#6D6E71" stroke="#231F20" stroke-width="0.0125215" stroke-miterlimit="10" stroke-linecap="round" stroke-linejoin="round"/>
        <path d="M121.666 129.226L121.105 128.876L131.475 122.85L132.105 123.201L121.666 129.226Z" fill="#6D6E71" stroke="#231F20" stroke-width="0.0125215" stroke-miterlimit="10" stroke-linecap="round" stroke-linejoin="round"/>
        <path d="M122.927 129.927L122.297 129.577L132.667 123.551L133.297 123.901L122.927 129.927Z" fill="#6D6E71" stroke="#231F20" stroke-width="0.0125215" stroke-miterlimit="10" stroke-linecap="round" stroke-linejoin="round"/>
        <path d="M124.118 130.628L123.488 130.277L133.928 124.252L134.488 124.602L124.118 130.628Z" fill="#6D6E71" stroke="#231F20" stroke-width="0.0125215" stroke-miterlimit="10" stroke-linecap="round" stroke-linejoin="round"/>
        <path d="M125.31 131.328L124.749 130.978L135.119 124.952L135.679 125.303L125.31 131.328Z" fill="#6D6E71" stroke="#231F20" stroke-width="0.0125215" stroke-miterlimit="10" stroke-linecap="round" stroke-linejoin="round"/>
        <path d="M126.5 132.029L125.94 131.679L136.31 125.653L136.94 126.003L126.5 132.029Z" fill="#6D6E71" stroke="#231F20" stroke-width="0.0125215" stroke-miterlimit="10" stroke-linecap="round" stroke-linejoin="round"/>
        <path d="M127.691 132.73L127.131 132.379L137.501 126.354L138.131 126.704L127.691 132.73Z" fill="#6D6E71" stroke="#231F20" stroke-width="0.0125215" stroke-miterlimit="10" stroke-linecap="round" stroke-linejoin="round"/>
        <path d="M138.132 126.704L137.501 127.054L123.698 119.067L124.259 118.716L138.132 126.704Z" fill="#6D6E71" stroke="#231F20" stroke-width="0.0125215" stroke-miterlimit="10" stroke-linecap="round" stroke-linejoin="round"/>
        <path d="M136.871 127.405L136.31 127.755L122.437 119.767L123.068 119.417L136.871 127.405Z" fill="#6D6E71" stroke="#231F20" stroke-width="0.0125215" stroke-miterlimit="10" stroke-linecap="round" stroke-linejoin="round"/>
        <path d="M135.679 128.105L135.049 128.456L121.246 120.468L121.806 120.118L135.679 128.105Z" fill="#6D6E71" stroke="#231F20" stroke-width="0.0125215" stroke-miterlimit="10" stroke-linecap="round" stroke-linejoin="round"/>
        <path d="M134.418 128.806L133.858 129.156L119.985 121.169L120.615 120.818L134.418 128.806Z" fill="#6D6E71" stroke="#231F20" stroke-width="0.0125215" stroke-miterlimit="10" stroke-linecap="round" stroke-linejoin="round"/>
        <path d="M133.227 129.507L132.596 129.857L118.793 121.869L119.353 121.519L133.227 129.507Z" fill="#6D6E71" stroke="#231F20" stroke-width="0.0125215" stroke-miterlimit="10" stroke-linecap="round" stroke-linejoin="round"/>
        <path d="M131.966 130.207L131.405 130.558L117.532 122.57L118.163 122.22L131.966 130.207Z" fill="#6D6E71" stroke="#231F20" stroke-width="0.0125215" stroke-miterlimit="10" stroke-linecap="round" stroke-linejoin="round"/>
        <path d="M130.774 130.908L130.144 131.258L116.341 123.271L116.901 122.92L130.774 130.908Z" fill="#6D6E71" stroke="#231F20" stroke-width="0.0125215" stroke-miterlimit="10" stroke-linecap="round" stroke-linejoin="round"/>
        <path d="M129.513 131.679L128.953 131.959L115.08 123.971L115.71 123.621L129.513 131.679Z" fill="#6D6E71" stroke="#231F20" stroke-width="0.0125215" stroke-miterlimit="10" stroke-linecap="round" stroke-linejoin="round"/>
        <path d="M128.322 132.379L127.692 132.73L113.889 124.672L114.449 124.392L128.322 132.379Z" fill="#6D6E71" stroke="#231F20" stroke-width="0.0125215" stroke-miterlimit="10" stroke-linecap="round" stroke-linejoin="round"/>
    </g>
    <defs>
        <clipPath id="">
            <rect width="121.004" height="85.0598" fill="white" transform="translate(46.8359 79.0592)"/>
        </clipPath>
    </defs>


    <g clip-path="url(#)">
        <path d="M36.9557 145.762C36.9557 145.762 30.86 139.596 29.809 151.157C28.7581 162.718 28.688 162.648 28.688 162.648L40.2488 180.024L53.7715 181.425L54.7525 174.419L36.9557 145.762Z" fill="#49443A" stroke="#231F20" stroke-width="0.225612" stroke-miterlimit="10" stroke-linecap="round" stroke-linejoin="round"/>
        <path d="M61.1285 166.852C61.1285 167.692 61.0584 168.463 60.9884 169.234C60.8482 169.935 60.7081 170.565 60.4979 171.196C60.0074 172.597 59.1667 173.648 58.1857 174.349C57.2048 175.049 56.0137 175.4 54.6825 175.47C54.6124 175.47 54.4723 175.47 54.4022 175.47C52.9308 175.4 51.2492 174.979 49.4275 173.998C49.3575 173.998 49.3575 173.928 49.2874 173.928C42.5611 170.145 37.0959 160.896 37.0259 153.329C37.0259 152.979 37.0259 152.558 37.0259 152.208C37.0959 150.526 37.5163 149.125 38.0769 148.004C38.0769 147.934 38.1469 147.864 38.217 147.794C38.9177 146.533 39.8986 145.622 41.1598 145.131C42.2107 144.711 43.4019 144.571 44.7331 144.781C45.7841 144.921 46.8351 145.271 47.9561 145.832C48.2364 145.972 48.5867 146.112 48.867 146.322C49.0071 146.392 49.1473 146.462 49.3575 146.603C49.4275 146.603 49.4275 146.673 49.4976 146.673C54.8926 151.858 59.1667 159.144 61.0584 166.291C61.0584 166.361 61.0584 166.361 61.0584 166.431C61.1285 166.501 61.1285 166.641 61.1285 166.852Z" fill="#6E6657" stroke="#231F20" stroke-width="0.225612" stroke-miterlimit="10" stroke-linecap="round" stroke-linejoin="round"/>
        <path d="M35.064 157.603C35.134 163.278 39.1978 170.145 44.1725 172.947C46.835 174.419 49.1472 174.489 50.7587 173.298C51.5294 172.737 52.0899 171.966 52.5103 170.915C52.6505 170.495 52.7906 170.004 52.8607 169.444C52.9307 168.883 53.0008 168.323 53.0008 167.692C52.9307 162.017 48.8669 155.151 43.8923 152.348C43.6821 152.208 43.4719 152.138 43.1916 151.998C42.3508 151.577 41.51 151.367 40.8094 151.227C39.8284 151.087 38.9176 151.157 38.1469 151.507C36.2551 152.348 35.064 154.45 35.064 157.603Z" fill="#928874" stroke="#231F20" stroke-width="0.225612" stroke-miterlimit="10" stroke-linecap="round" stroke-linejoin="round"/>
        <path d="M38.2173 151.507C38.988 151.157 39.8989 151.087 40.8798 151.227C41.6505 151.367 42.4212 151.577 43.262 151.998C43.4722 152.138 43.6824 152.208 43.9627 152.348C48.9373 155.151 53.0012 162.017 53.0712 167.692C53.0712 168.323 53.0712 168.883 52.9311 169.444C52.861 169.934 52.7209 170.425 52.5808 170.915C52.2304 171.966 51.5998 172.737 50.8291 173.298L55.6637 170.425L55.7337 170.355C57.3452 169.444 58.3262 167.412 58.3262 164.539C58.2561 158.864 54.1923 151.998 49.2176 149.195C47.0456 148.004 45.0837 147.724 43.5423 148.354L42.2811 149.055L38.2173 151.507Z" fill="url(#paint0_linear_1_19911)" stroke="#231F20" stroke-width="0.225612" stroke-miterlimit="10" stroke-linecap="round" stroke-linejoin="round"/>
        <path d="M61.1285 166.431C61.1285 166.361 61.1285 166.361 61.0584 166.291C59.0966 159.074 54.8226 151.858 49.4976 146.673C49.4275 146.603 49.4275 146.603 49.3574 146.533C47.3956 144.641 45.2936 143.099 43.1216 141.838C42.6311 141.558 42.1407 141.348 41.7203 141.137C39.9686 140.297 38.287 139.736 36.6755 139.526C34.6436 139.246 32.7519 139.456 31.1403 140.086H31.0703C27.0065 141.768 24.4841 146.252 24.5542 152.838C24.6943 164.75 33.2423 179.183 43.6821 185.069C49.2173 188.152 54.192 188.222 57.6252 185.769C59.2367 184.648 60.4278 182.967 61.2686 180.795C61.6189 179.884 61.8992 178.833 62.0393 177.712C62.2495 176.591 62.3196 175.33 62.3196 173.998C62.1795 171.546 61.8291 168.954 61.1285 166.431ZM52.4403 177.642C50.2683 179.183 47.1153 179.183 43.542 177.151C36.8857 173.438 31.4206 164.259 31.3505 156.622C31.2805 152.418 32.892 149.545 35.4844 148.494C36.2551 148.144 37.166 148.004 38.1469 148.004C38.217 148.004 38.287 148.004 38.3571 148.004C38.5673 148.004 38.8476 148.074 39.0578 148.074C40.0387 148.214 41.1597 148.564 42.2808 149.055C42.5611 149.195 42.9114 149.335 43.1916 149.545C49.8479 153.329 55.313 162.508 55.3831 170.145C55.3831 170.285 55.3831 170.425 55.3831 170.565C55.3831 171.266 55.313 171.896 55.243 172.527C55.1028 173.228 54.9627 173.858 54.7525 174.489C54.6124 174.839 54.4722 175.119 54.3321 175.47C53.8416 176.381 53.2111 177.081 52.4403 177.642Z" fill="#231F20" stroke="#231F20" stroke-width="0.225612" stroke-miterlimit="10" stroke-linecap="round" stroke-linejoin="round"/>
        <path d="M79.836 172.667C80.3265 172.457 80.8169 172.177 81.3074 171.826L79.836 172.667ZM61.0584 166.221C59.0966 159.004 54.8226 151.787 49.4976 146.603C49.4275 146.532 49.4275 146.532 49.3574 146.462V146.532C49.6377 147.724 50.0581 148.845 50.4785 150.036C52.2301 154.8 54.9627 159.425 58.2558 163.348C59.1666 164.399 60.1476 165.45 61.1285 166.431C61.1285 166.361 61.1285 166.291 61.0584 166.221ZM52.5804 127.404L52.5104 127.475C53.211 127.054 53.8416 126.704 54.192 126.494C54.262 126.494 54.262 126.424 54.3321 126.424C54.4022 126.424 54.4722 126.354 54.4722 126.354C54.5423 126.354 54.5423 126.283 54.6124 126.283L54.6824 126.213C53.9818 126.424 53.2811 126.844 52.5804 127.404Z" fill="#231F20" stroke="#231F20" stroke-width="0.225612" stroke-miterlimit="10" stroke-linecap="round" stroke-linejoin="round"/>
        <path d="M83.0588 170.355C82.9187 170.495 82.7786 170.565 82.7085 170.635C82.8486 170.565 82.9187 170.495 83.0588 170.355Z" fill="url(#paint1_linear_1_19911)" stroke="#231F20" stroke-width="0.225612" stroke-miterlimit="10" stroke-linecap="round" stroke-linejoin="round"/>
        <path d="M85.9316 160.055C85.9316 161.386 85.8615 162.648 85.6513 163.769C85.5112 164.89 85.2309 165.871 84.8806 166.852C84.1098 169.024 82.8487 170.705 81.2371 171.826L79.7658 172.667L57.4849 185.699C59.0964 184.578 60.2875 182.897 61.1283 180.725C61.4786 179.814 61.7589 178.763 61.899 177.642C62.1092 176.521 62.1793 175.26 62.1793 173.928C62.1793 171.476 61.7589 168.954 61.0582 166.361C61.0582 166.291 61.0582 166.291 60.9881 166.221C59.0263 159.004 54.7523 151.787 49.4273 146.603C49.3572 146.533 49.3572 146.533 49.2872 146.462C47.3253 144.571 45.2233 143.029 43.0513 141.768C42.5609 141.488 42.0704 141.278 41.65 141.067C39.8984 140.227 38.2168 139.666 36.6053 139.456C34.5734 139.176 32.6816 139.386 31.0701 140.016H31L52.5803 127.405L52.5102 127.475C53.2108 127.054 53.8414 126.704 54.1918 126.494C54.2618 126.494 54.2618 126.424 54.3319 126.424C54.402 126.424 54.472 126.354 54.472 126.354C54.5421 126.354 54.5421 126.284 54.6122 126.284L54.6822 126.213C56.3638 125.513 58.2556 125.303 60.2875 125.583C61.899 125.793 63.5806 126.354 65.3322 127.194C65.8227 127.405 66.2431 127.685 66.7335 127.895C68.9756 129.156 71.1477 130.768 73.1095 132.73C78.5046 137.914 82.7786 145.201 84.6704 152.348C85.5112 154.94 85.9316 157.533 85.9316 160.055Z" fill="url(#paint2_linear_1_19911)" stroke="#231F20" stroke-width="0.225612" stroke-miterlimit="10" stroke-linecap="round" stroke-linejoin="round"/>
        <path d="M54.1918 126.494C53.7714 126.704 53.2109 127.054 52.5103 127.475L52.5803 127.405L54.1918 126.494Z" fill="#C49A6C" stroke="#231F20" stroke-width="0.225612" stroke-miterlimit="10" stroke-linecap="round" stroke-linejoin="round"/>
        <path d="M81.7983 171.826C81.7983 171.826 75.7026 165.66 74.6516 177.221C73.6006 188.782 73.6006 188.782 73.6006 188.782L85.1614 206.158L98.6841 207.56L99.6651 200.553L81.7983 171.826Z" fill="#49443A" stroke="#231F20" stroke-width="0.225612" stroke-miterlimit="10" stroke-linecap="round" stroke-linejoin="round"/>
        <path d="M105.971 192.916C105.971 193.757 105.901 194.528 105.831 195.298C105.691 195.999 105.551 196.63 105.34 197.26C104.85 198.661 104.009 199.712 103.028 200.413C102.047 201.114 100.856 201.534 99.525 201.534C99.4549 201.534 99.3148 201.534 99.2447 201.534C97.7733 201.534 96.0918 201.044 94.27 200.063C94.2 200.063 94.2 199.993 94.1299 199.993C87.4737 196.279 82.0085 187.031 81.9385 179.463C81.9385 179.113 81.9385 178.693 81.9385 178.342C82.0085 176.661 82.4289 175.259 82.9895 174.138C82.9895 174.068 83.0595 173.998 83.1296 173.928C83.8303 172.667 84.8112 171.756 86.0724 171.266C87.1233 170.845 88.3145 170.705 89.6457 170.915C90.6266 171.056 91.7477 171.406 92.8687 171.966C93.149 172.107 93.4993 172.247 93.7796 172.457C93.9197 172.527 94.0599 172.597 94.27 172.737C94.3401 172.737 94.3401 172.807 94.4102 172.807C99.8052 177.992 104.079 185.279 105.971 192.426C105.971 192.496 105.971 192.496 105.971 192.566C105.971 192.566 105.971 192.776 105.971 192.916Z" fill="#6E6657" stroke="#231F20" stroke-width="0.225612" stroke-miterlimit="10" stroke-linecap="round" stroke-linejoin="round"/>
        <path d="M79.9761 183.667C80.0461 189.343 84.11 196.209 89.0846 199.012C91.7471 200.483 94.0593 200.553 95.6708 199.362C96.4415 198.802 97.002 198.031 97.4224 196.98C97.5626 196.56 97.7027 196.069 97.7728 195.509C97.8428 194.948 97.9129 194.387 97.9129 193.757C97.8428 188.082 93.779 181.215 88.8044 178.412C88.5942 178.272 88.384 178.202 88.1037 178.062C87.2629 177.642 86.4221 177.432 85.7215 177.291C84.7405 177.151 83.8297 177.221 83.059 177.572C81.0971 178.412 79.906 180.514 79.9761 183.667Z" fill="#928874" stroke="#231F20" stroke-width="0.225612" stroke-miterlimit="10" stroke-linecap="round" stroke-linejoin="round"/>
        <path d="M83.0591 177.572C83.8298 177.221 84.7407 177.151 85.7216 177.292C86.4923 177.432 87.263 177.642 88.1038 178.062C88.314 178.202 88.5242 178.272 88.8045 178.413C93.7791 181.215 97.843 188.082 97.913 193.757C97.913 194.388 97.843 194.948 97.7729 195.509C97.7028 195.999 97.5627 196.49 97.4226 196.98C97.0722 198.031 96.4416 198.802 95.6709 199.362L100.505 196.49L100.576 196.42C102.187 195.509 103.168 193.477 103.168 190.604C103.098 184.929 99.0341 178.062 94.0594 175.26C91.8874 174.069 89.9255 173.788 88.3841 174.419L87.1229 175.12L83.0591 177.572Z" fill="url(#paint3_linear_1_19911)" stroke="#231F20" stroke-width="0.225612" stroke-miterlimit="10" stroke-linecap="round" stroke-linejoin="round"/>
        <path d="M105.971 192.496C105.971 192.426 105.971 192.426 105.901 192.356C103.939 185.139 99.6649 177.922 94.3399 172.737C94.2698 172.667 94.1997 172.667 94.1997 172.597C92.2379 170.705 90.1359 169.164 87.9639 167.903C87.4734 167.622 86.9829 167.412 86.5626 167.202C84.8109 166.361 83.1293 165.801 81.5178 165.59C79.4859 165.31 77.5941 165.52 75.9826 166.151H75.9126C71.8487 167.833 69.3264 172.317 69.3964 178.903C69.5366 190.814 78.0846 205.248 88.5244 211.133C94.0596 214.216 99.0343 214.286 102.467 211.834C104.079 210.713 105.27 209.031 106.111 206.859C106.461 205.948 106.741 204.897 106.882 203.776C107.092 202.655 107.162 201.394 107.162 200.063C107.022 197.61 106.671 195.018 105.971 192.496ZM97.2826 203.706C95.1106 205.248 91.9576 205.248 88.3843 203.216C81.728 199.502 76.2629 190.254 76.1928 182.686C76.1228 178.483 77.7343 175.61 80.3267 174.559C81.0974 174.209 82.0083 174.068 82.9892 174.068C83.0593 174.068 83.1293 174.068 83.1994 174.068C83.4096 174.068 83.6899 174.068 83.9001 174.138C84.881 174.279 86.002 174.629 87.1231 175.119C87.4033 175.26 87.7537 175.4 88.0339 175.61C94.6902 179.323 100.155 188.572 100.225 196.139C100.225 196.279 100.225 196.419 100.225 196.559C100.225 197.26 100.155 197.891 100.085 198.521C99.9451 199.222 99.805 199.853 99.5948 200.483C99.4547 200.834 99.3145 201.114 99.1744 201.464C98.6839 202.445 98.0533 203.146 97.2826 203.706Z" fill="#231F20" stroke="#231F20" stroke-width="0.225612" stroke-miterlimit="10" stroke-linecap="round" stroke-linejoin="round"/>
        <path d="M124.678 198.732C125.169 198.521 125.659 198.241 126.15 197.891L124.678 198.732ZM105.901 192.286C103.939 185.069 99.6648 177.852 94.3398 172.667C94.2698 172.597 94.1997 172.597 94.1997 172.527V172.597C94.48 173.788 94.9004 174.909 95.3208 176.1C97.0724 180.865 99.805 185.489 103.098 189.413C104.009 190.464 104.99 191.515 105.971 192.496C105.971 192.496 105.971 192.496 106.041 192.496C105.971 192.426 105.971 192.356 105.901 192.286ZM97.4227 153.469C97.3527 153.469 97.3527 153.539 97.3527 153.539C98.0533 153.119 98.6839 152.768 99.0342 152.558C99.1043 152.558 99.1043 152.488 99.1744 152.488C99.2444 152.418 99.3145 152.418 99.3145 152.418C99.3846 152.418 99.3846 152.348 99.4546 152.348L99.5247 152.278C98.824 152.558 98.1234 152.909 97.4227 153.469Z" fill="#231F20" stroke="#231F20" stroke-width="0.225612" stroke-miterlimit="10" stroke-linecap="round" stroke-linejoin="round"/>
        <path d="M127.901 196.419C127.761 196.559 127.621 196.63 127.551 196.7C127.691 196.63 127.761 196.559 127.901 196.419Z" fill="url(#paint4_linear_1_19911)" stroke="#231F20" stroke-width="0.225612" stroke-miterlimit="10" stroke-linecap="round" stroke-linejoin="round"/>
        <path d="M130.774 186.12C130.774 187.451 130.704 188.712 130.494 189.833C130.354 190.954 130.074 191.935 129.723 192.916C128.953 195.088 127.691 196.77 126.08 197.891L124.609 198.732L102.328 211.764C103.939 210.643 105.13 208.961 105.971 206.789C106.321 205.878 106.602 204.827 106.742 203.706C106.952 202.585 107.022 201.324 107.022 199.993C107.022 197.54 106.602 195.018 105.901 192.426C105.901 192.356 105.901 192.356 105.831 192.285C103.869 185.069 99.5951 177.852 94.2701 172.667C94.2 172.597 94.1299 172.597 94.1299 172.527C92.1681 170.635 90.0661 169.094 87.8941 167.833C87.4036 167.552 86.9132 167.342 86.4928 167.132C84.7411 166.291 83.0595 165.731 81.448 165.52C79.4161 165.24 77.5244 165.45 75.9128 166.081H75.8428L97.423 153.399C97.353 153.399 97.353 153.469 97.353 153.469C98.0536 153.049 98.6842 152.698 99.0345 152.488C99.1046 152.488 99.1046 152.418 99.1747 152.418C99.2447 152.348 99.3148 152.348 99.3148 152.348C99.3849 152.348 99.3849 152.278 99.4549 152.278L99.525 152.208C101.207 151.507 103.098 151.297 105.13 151.577C106.742 151.787 108.423 152.348 110.175 153.189C110.665 153.399 111.086 153.679 111.576 153.889C113.818 155.151 115.99 156.762 117.952 158.724C123.347 163.909 127.621 171.196 129.513 178.342C130.354 181.005 130.774 183.667 130.774 186.12Z" fill="url(#paint5_linear_1_19911)" stroke="#231F20" stroke-width="0.225612" stroke-miterlimit="10" stroke-linecap="round" stroke-linejoin="round"/>
        <path d="M99.0341 152.558C98.6137 152.768 98.0532 153.119 97.3525 153.539L97.4226 153.469L99.0341 152.558Z" fill="#C49A6C" stroke="#231F20" stroke-width="0.225612" stroke-miterlimit="10" stroke-linecap="round" stroke-linejoin="round"/>
        <path opacity="0.2" d="M112.487 154.66L94.0594 164.82L91.6772 166.221L49.2173 142.119L37.0259 135.182L39.4782 133.641L57.9055 123.131L112.487 154.66Z" fill="black" stroke="#231F20" stroke-width="0.210688" stroke-miterlimit="10"/>
        <path d="M114.378 147.093L94.0594 158.163L91.6772 159.565L49.2173 135.462L37.0259 128.526L39.4782 127.054L59.8673 115.563L114.378 147.093Z" fill="#F1F2F2" stroke="#231F20" stroke-width="0.201439" stroke-miterlimit="10" stroke-linecap="round" stroke-linejoin="round"/>
        <path d="M114.379 147.093V150.386L94.3397 161.176L94.0595 161.387V187.101L91.6772 188.362V159.565L94.0595 158.164L114.379 147.093Z" fill="#F1F2F2" stroke="#231F20" stroke-width="0.201439" stroke-miterlimit="10" stroke-linecap="round" stroke-linejoin="round"/>
        <path d="M91.6772 159.565V188.362L39.4782 158.514L37.0259 157.112V128.526L49.2173 135.462L91.6772 159.565Z" fill="#F1F2F2" stroke="#231F20" stroke-width="0.201439" stroke-miterlimit="10" stroke-linecap="round" stroke-linejoin="round"/>
        <path opacity="0.14" d="M91.6772 159.565V188.362L39.4782 158.514L37.0259 157.112V128.526L49.2173 135.462L91.6772 159.565Z" fill="black" stroke="#231F20" stroke-width="0.201439" stroke-miterlimit="10"/>
    </g>
    <defs>
        <linearGradient id="paint0_linear_1_19911" x1="45.0143" y1="150.209" x2="54.584" y2="167.727" gradientUnits="userSpaceOnUse">
            <stop stop-color="#C2B59B"/>
            <stop offset="1" stop-color="#49443A"/>
        </linearGradient>
        <linearGradient id="paint1_linear_1_19911" x1="82.9435" y1="170.37" x2="82.8004" y2="170.64" gradientUnits="userSpaceOnUse">
            <stop stop-color="#58595B"/>
            <stop offset="1"/>
        </linearGradient>
        <linearGradient id="paint2_linear_1_19911" x1="60.512" y1="175.121" x2="56.1537" y2="120.38" gradientUnits="userSpaceOnUse">
            <stop/>
            <stop offset="1" stop-color="#58595B"/>
        </linearGradient>
        <linearGradient id="paint3_linear_1_19911" x1="89.8624" y1="176.281" x2="99.432" y2="193.799" gradientUnits="userSpaceOnUse">
            <stop stop-color="#C2B59B"/>
            <stop offset="1" stop-color="#49443A"/>
        </linearGradient>
        <linearGradient id="paint4_linear_1_19911" x1="127.792" y1="196.442" x2="127.649" y2="196.711" gradientUnits="userSpaceOnUse">
            <stop stop-color="#58595B"/>
            <stop offset="1"/>
        </linearGradient>
        <linearGradient id="paint5_linear_1_19911" x1="105.08" y1="207.98" x2="102.096" y2="153.144" gradientUnits="userSpaceOnUse">
            <stop/>
            <stop offset="1" stop-color="#58595B"/>
        </linearGradient>
        <clipPath id="">
            <rect width="106.5" height="98.1621" fill="white" transform="translate(24.4141 115.493)"/>
        </clipPath>
    </defs>


    <g clip-path="url(#)">
        <path d="M102.608 124.602C102.608 124.602 102.468 124.672 102.188 124.812C102.328 124.742 102.468 124.672 102.608 124.602Z" fill="white" stroke="#231F20" stroke-width="0.157578" stroke-miterlimit="10"/>
        <path d="M122.016 92.3016C121.806 92.4418 115.57 96.0852 108.564 100.219C99.315 105.614 88.5949 111.64 87.9643 111.289L74.5117 114.723L108.564 95.7349L122.016 92.3016Z" fill="#F1F2F2" stroke="#231F20" stroke-width="0.157578" stroke-miterlimit="10" stroke-linecap="round" stroke-linejoin="round"/>
        <path d="M102.608 124.602C102.608 124.602 102.468 124.672 102.188 124.812C102.328 124.742 102.468 124.672 102.608 124.602Z" fill="white" stroke="#231F20" stroke-width="0.157578" stroke-miterlimit="10"/>
        <path d="M112.347 94.824C111.717 94.6138 111.016 94.6839 110.175 95.1743C109.965 95.3145 109.755 95.4546 109.545 95.6648C109.474 95.7349 109.404 95.7349 109.404 95.8049C109.264 95.875 109.194 96.0151 109.124 96.0852C109.054 96.1553 109.054 96.1553 108.984 96.2253C108.984 96.2253 108.914 96.2954 108.914 96.3655C108.634 96.6457 108.424 96.926 108.213 97.2062C108.143 97.2763 108.143 97.3464 108.073 97.4164C108.003 97.5566 107.933 97.6967 107.863 97.7668C107.863 97.8368 107.793 97.8368 107.793 97.9069C107.793 97.977 107.723 98.047 107.723 98.047C107.653 98.1171 107.653 98.2572 107.583 98.3273C107.583 98.3974 107.513 98.4674 107.513 98.5375C107.513 98.6076 107.443 98.6776 107.443 98.7477C107.373 98.9579 107.232 99.2382 107.232 99.4483C107.232 99.5184 107.162 99.5885 107.162 99.6585C107.162 99.7987 107.092 99.8687 107.092 99.9388C107.092 99.9388 107.092 99.9388 107.022 99.9388L99.8755 102.181V96.1553C99.8755 96.0852 99.8755 96.0151 99.8755 95.9451C99.8755 95.875 99.8755 95.875 99.8755 95.8049C99.8755 95.8049 99.8755 95.7349 99.8755 95.6648C99.8755 95.3845 99.9456 95.1743 100.016 94.8941C100.016 94.824 100.016 94.7539 100.086 94.6839C100.156 94.4737 100.226 94.1934 100.296 93.9832C100.296 93.9132 100.366 93.8431 100.366 93.773C100.366 93.703 100.436 93.6329 100.436 93.5628C100.506 93.4928 100.506 93.3526 100.576 93.2826C100.576 93.2125 100.646 93.1424 100.646 93.1424C100.646 93.0724 100.716 93.0724 100.716 93.0023C100.786 92.8622 100.856 92.722 100.926 92.652C100.997 92.5819 100.997 92.5118 101.067 92.4418C101.277 92.1615 101.487 91.8112 101.767 91.601C101.767 91.5309 101.837 91.5309 101.837 91.4609C101.907 91.3908 101.907 91.3908 101.977 91.3207C102.048 91.2507 102.188 91.1105 102.258 91.0405C102.328 90.9704 102.328 90.9704 102.398 90.9003C102.608 90.7602 102.818 90.55 103.028 90.4099C103.239 90.2697 103.449 90.1997 103.659 90.1296C103.729 90.1296 103.799 90.0595 103.869 90.0595C104.36 89.9194 104.85 89.9895 105.2 90.1296L105.691 90.4799L112.347 94.824Z" fill="#F1F2F2" stroke="#231F20" stroke-width="0.157578" stroke-miterlimit="10" stroke-linecap="round" stroke-linejoin="round"/>
        <path d="M103.729 90.1296C103.799 90.1296 103.869 90.0596 103.939 90.0596C103.869 90.0596 103.799 90.0596 103.729 90.1296Z" fill="#F1F2F2" stroke="#231F20" stroke-width="0.157578" stroke-miterlimit="10" stroke-linecap="round" stroke-linejoin="round"/>
        <path d="M113.468 96.3655L112.347 96.996L108.073 99.3783L106.952 100.009C106.952 99.9388 107.022 99.7987 107.022 99.7286C107.022 99.6585 107.022 99.5885 107.092 99.5184C107.162 99.3082 107.232 99.028 107.302 98.8178C107.302 98.7477 107.373 98.6776 107.373 98.6076C107.373 98.5375 107.443 98.4674 107.443 98.3974C107.513 98.2572 107.513 98.1872 107.583 98.1171C107.583 98.047 107.653 97.977 107.653 97.977C107.653 97.9069 107.723 97.9069 107.723 97.8368C107.793 97.6967 107.863 97.5566 107.933 97.4865C108.003 97.4164 108.003 97.3464 108.073 97.2763C108.283 96.996 108.494 96.6457 108.774 96.4355C108.774 96.3655 108.844 96.3655 108.844 96.2954C108.914 96.2253 108.914 96.2253 108.984 96.1553C109.054 96.0852 109.194 95.9451 109.264 95.875C109.334 95.8049 109.334 95.8049 109.404 95.7349C109.615 95.5947 109.825 95.3845 110.035 95.2444C110.806 94.7539 111.576 94.6839 112.137 94.8941C112.137 94.8941 112.137 94.8941 112.207 94.8941C112.277 94.8941 112.347 94.9641 112.347 94.9641L112.557 95.1043C113.118 95.3145 113.398 95.7349 113.468 96.3655Z" fill="#F1F2F2" stroke="#231F20" stroke-width="0.157578" stroke-miterlimit="10" stroke-linecap="round" stroke-linejoin="round"/>
        <path opacity="0.2" d="M108.213 97.1362C108.143 97.2063 108.143 97.2763 108.073 97.3464C108.003 97.4865 107.933 97.6266 107.863 97.6967C107.863 97.7668 107.793 97.7668 107.793 97.8368C107.793 97.9069 107.723 97.977 107.723 97.977C107.653 98.047 107.653 98.1872 107.583 98.2572C107.583 98.3273 107.513 98.3974 107.513 98.4674C107.513 98.5375 107.443 98.6076 107.443 98.6776C107.373 98.8878 107.232 99.1681 107.232 99.3783C107.232 99.4484 107.162 99.5184 107.162 99.5885C107.162 99.6586 107.092 99.7286 107.092 99.7987L107.022 99.8688L99.8755 102.111V96.0852C99.8755 96.0151 99.8755 95.9451 99.8755 95.875C99.8755 95.8049 99.8755 95.8049 99.8755 95.7349C99.8755 95.7349 99.8755 95.6648 99.8755 95.5947C99.8755 95.3145 99.9456 95.1043 100.016 94.824C100.016 94.754 100.016 94.6839 100.086 94.6138C100.156 94.4036 100.226 94.1234 100.296 93.9132C100.296 93.8431 100.366 93.773 100.366 93.703C100.366 93.6329 100.436 93.5628 100.436 93.4928C100.506 93.4227 100.506 93.2826 100.576 93.2125C100.576 93.1424 100.646 93.0724 100.646 93.0724C100.646 93.0023 100.716 93.0023 100.716 92.9322C100.786 92.8622 100.786 92.7921 100.856 92.722L108.213 97.1362Z" fill="black" stroke="#231F20" stroke-width="0.157578" stroke-miterlimit="10"/>
        <path d="M97.7036 103.232C97.073 103.022 96.3724 103.092 95.5316 103.582C95.3214 103.722 95.1112 103.863 94.901 104.073C94.8309 104.143 94.7609 104.143 94.7609 104.213C94.6207 104.283 94.5507 104.423 94.4806 104.493C94.4105 104.563 94.4105 104.563 94.3405 104.633C94.3405 104.633 94.2704 104.703 94.2704 104.773C93.9902 105.054 93.78 105.334 93.5698 105.614C93.4997 105.684 93.4997 105.754 93.4296 105.824C93.3596 105.965 93.2895 106.105 93.2194 106.175C93.2194 106.245 93.1494 106.245 93.1494 106.315C93.1494 106.385 93.0793 106.455 93.0793 106.455C93.0092 106.525 93.0092 106.665 92.9392 106.735C92.9392 106.805 92.8691 106.875 92.8691 106.945C92.8691 107.016 92.799 107.086 92.799 107.156C92.729 107.366 92.5888 107.646 92.5888 107.856C92.5888 107.926 92.5188 107.996 92.5188 108.067C92.5188 108.207 92.4487 108.277 92.4487 108.347C92.4487 108.347 92.4487 108.347 92.3786 108.347L85.0918 110.589V104.563C85.0918 104.493 85.0918 104.423 85.0918 104.353C85.0918 104.283 85.0918 104.283 85.0918 104.213C85.0918 104.213 85.0918 104.143 85.0918 104.073C85.0918 103.792 85.1619 103.582 85.2319 103.302C85.2319 103.232 85.2319 103.162 85.302 103.092C85.3721 102.882 85.4421 102.601 85.5122 102.391C85.5122 102.321 85.5823 102.251 85.5823 102.181C85.5823 102.111 85.6523 102.041 85.6523 101.971C85.7224 101.901 85.7224 101.761 85.7925 101.691C85.7925 101.62 85.8625 101.55 85.8625 101.55C85.8625 101.48 85.9326 101.48 85.9326 101.41C86.0027 101.27 86.0727 101.13 86.1428 101.06C86.2128 100.99 86.2128 100.92 86.2829 100.85C86.4931 100.569 86.7033 100.219 86.9836 100.009C86.9836 99.9389 87.0536 99.9389 87.0536 99.8688C87.1237 99.7987 87.1237 99.7987 87.1938 99.7287C87.2638 99.6586 87.404 99.5185 87.474 99.4484C87.5441 99.3784 87.5441 99.3784 87.6142 99.3083C87.8244 99.1682 88.0346 98.958 88.2448 98.8178C88.455 98.6777 88.6652 98.6076 88.8753 98.5376C88.9454 98.5376 89.0155 98.4675 89.0855 98.4675C89.576 98.3274 90.0665 98.3974 90.4168 98.5376L90.9073 98.8879L97.7036 103.232Z" fill="#F1F2F2" stroke="#231F20" stroke-width="0.157578" stroke-miterlimit="10" stroke-linecap="round" stroke-linejoin="round"/>
        <path d="M89.0854 98.5376C89.1555 98.5376 89.2256 98.4675 89.2956 98.4675C89.2256 98.5376 89.1555 98.5376 89.0854 98.5376Z" fill="#F1F2F2" stroke="#231F20" stroke-width="0.157578" stroke-miterlimit="10" stroke-linecap="round" stroke-linejoin="round"/>
        <path d="M98.8242 104.773L97.7032 105.404L93.4292 107.786L92.3081 108.417C92.3081 108.347 92.3782 108.207 92.3782 108.137C92.3782 108.067 92.3782 107.996 92.4482 107.926C92.5183 107.716 92.5884 107.436 92.6584 107.226C92.6584 107.156 92.7285 107.086 92.7285 107.016C92.7285 106.945 92.7986 106.875 92.7986 106.805C92.8686 106.665 92.8686 106.595 92.9387 106.525C92.9387 106.455 93.0088 106.385 93.0088 106.385C93.0088 106.315 93.0788 106.315 93.0788 106.245C93.1489 106.105 93.219 105.965 93.289 105.894C93.3591 105.824 93.3591 105.754 93.4292 105.684C93.6394 105.404 93.8496 105.054 94.1298 104.843C94.1298 104.773 94.1999 104.773 94.1999 104.703C94.2699 104.633 94.2699 104.633 94.34 104.563C94.4101 104.493 94.5502 104.353 94.6203 104.283C94.6903 104.213 94.6903 104.213 94.7604 104.143C94.9706 104.003 95.1808 103.792 95.391 103.652C96.1617 103.162 96.9324 103.092 97.493 103.302C97.493 103.302 97.493 103.302 97.563 103.302C97.6331 103.302 97.7032 103.372 97.7032 103.372L97.9134 103.512C98.4739 103.792 98.6841 104.213 98.8242 104.773Z" fill="#F1F2F2" stroke="#231F20" stroke-width="0.157578" stroke-miterlimit="10" stroke-linecap="round" stroke-linejoin="round"/>
        <path opacity="0.2" d="M93.4992 105.544C93.4291 105.614 93.4291 105.684 93.3591 105.754C93.289 105.894 93.2189 106.034 93.1489 106.105C93.1489 106.175 93.0788 106.175 93.0788 106.245C93.0788 106.315 93.0087 106.385 93.0087 106.385C92.9387 106.455 92.9387 106.595 92.8686 106.665C92.8686 106.735 92.7985 106.805 92.7985 106.875C92.7985 106.945 92.7285 107.015 92.7285 107.085C92.6584 107.296 92.5183 107.576 92.5183 107.786C92.5183 107.856 92.4482 107.926 92.4482 107.996C92.4482 108.066 92.3781 108.136 92.3781 108.207L92.3081 108.277L85.0913 110.589V104.563C85.0913 104.493 85.0913 104.423 85.0913 104.353C85.0913 104.283 85.0913 104.283 85.0913 104.213C85.0913 104.213 85.0913 104.143 85.0913 104.073C85.0913 103.792 85.1614 103.582 85.2314 103.302C85.2314 103.232 85.2314 103.162 85.3015 103.092C85.3716 102.882 85.4416 102.601 85.5117 102.391C85.5117 102.321 85.5818 102.251 85.5818 102.181C85.5818 102.111 85.6518 102.041 85.6518 101.971C85.7219 101.901 85.7219 101.76 85.792 101.69C85.792 101.62 85.862 101.55 85.862 101.55C85.862 101.48 85.9321 101.48 85.9321 101.41C86.0022 101.34 86.0022 101.27 86.0722 101.2L93.4992 105.544Z" fill="black" stroke="#231F20" stroke-width="0.157578" stroke-miterlimit="10"/>
        <path d="M126.781 85.7854L105.13 73.6641L110.525 70.5111L132.176 82.6325L126.781 85.7854Z" fill="black" stroke="#231F20" stroke-width="0.14875" stroke-miterlimit="10"/>
        <path d="M126.781 117.595L105.13 105.474L110.525 102.391L132.176 114.512L126.781 117.595Z" fill="black" stroke="#231F20" stroke-width="0.14875" stroke-miterlimit="10"/>
        <path d="M132.176 82.6324V114.512L126.781 117.595V85.7854L132.176 82.6324Z" fill="#F1F2F2" stroke="#231F20" stroke-width="0.157578" stroke-miterlimit="10" stroke-linecap="round" stroke-linejoin="round"/>
        <path d="M105.13 73.6641V105.474L126.781 117.595V85.7854L105.13 73.6641Z" fill="#F1F2F2" stroke="#231F20" stroke-width="0.157578" stroke-miterlimit="10" stroke-linecap="round" stroke-linejoin="round"/>
        <path opacity="0.2" d="M105.13 73.6641V105.474L126.781 117.595V85.7854L105.13 73.6641Z" fill="black" stroke="#231F20" stroke-width="0.157578" stroke-miterlimit="10"/>
        <path d="M130.285 68.6195L129.234 61.4027C129.023 59.8612 127.972 58.53 126.571 57.8293L116.972 53.4152C116.061 52.9948 115.01 53.4853 114.73 54.4662L113.469 58.6701L116.902 65.957L114.099 71.7724L107.513 72.6833L104.36 76.1866C103.66 76.9573 103.87 78.0783 104.711 78.6389L112.698 83.8237C114.029 84.7346 115.781 84.8047 117.252 84.104L125.87 80.0402L130.285 68.6195Z" fill="url(#paint0_linear_1_19911)" stroke="#231F20" stroke-width="0.27718" stroke-miterlimit="10" stroke-linecap="round" stroke-linejoin="round"/>
        <path opacity="0.2" d="M104.641 78.6388L112.698 83.8236C114.029 84.7345 115.781 84.8046 117.252 84.1039L125.8 80.0401L114.17 71.6322L114.099 71.7723L107.513 72.6832L104.36 76.1865C103.59 76.8871 103.8 78.0783 104.641 78.6388Z" fill="black"/>
        <path d="M112.628 67.2882C112.278 67.9888 112.067 68.7595 111.927 69.4602C111.507 71.7724 112.628 74.0845 114.59 75.3457L120.545 78.9891L123.838 81.021L151.725 98.2572L159.852 81.3013L130.284 68.5493L127.272 67.2882L120.265 64.2753C117.673 63.1543 114.59 64.0651 113.118 66.4474C112.908 66.7276 112.768 67.0079 112.628 67.2882Z" fill="url(#paint1_linear_1_19911)" stroke="#231F20" stroke-width="0.27718" stroke-miterlimit="10" stroke-linecap="round" stroke-linejoin="round"/>
        <path d="M150.533 87.257C150.463 87.3971 150.393 87.4672 150.393 87.6073C150.323 87.7474 150.323 87.8175 150.253 87.9576C150.183 88.0978 150.183 88.2379 150.113 88.308C150.043 88.4481 150.043 88.5182 149.973 88.6583C149.903 88.7984 149.903 88.8685 149.833 89.0086C149.833 89.0787 149.763 89.1487 149.763 89.2188C149.763 89.2889 149.693 89.429 149.693 89.4991L149.623 89.7093C149.623 89.7793 149.552 89.8494 149.552 89.9195C149.552 89.9895 149.482 90.0596 149.482 90.1997C149.412 90.4099 149.412 90.6201 149.342 90.7603C149.342 90.8303 149.342 90.9004 149.342 90.9705C149.342 91.0405 149.342 91.1807 149.272 91.2507C149.272 91.4609 149.202 91.6711 149.202 91.8813C149.202 92.0214 149.202 92.0915 149.202 92.2316C149.202 92.3017 149.202 92.3718 149.202 92.3718C149.202 92.582 149.202 92.7922 149.202 93.0024C149.202 93.0724 149.202 93.1425 149.202 93.2126C149.202 93.703 149.272 94.1234 149.342 94.5438C149.342 94.6139 149.342 94.6139 149.342 94.6839C149.412 94.8241 149.412 95.0343 149.482 95.1744C149.482 95.2445 149.482 95.3145 149.552 95.3145C149.623 95.4547 149.693 95.5948 149.693 95.805C149.693 95.8751 149.763 95.9451 149.763 95.9451C149.763 95.9451 149.763 96.0152 149.833 96.0152C149.903 96.0853 149.903 96.2254 149.973 96.2955C149.973 96.3655 150.043 96.3655 150.043 96.4356C150.043 96.4356 150.043 96.5057 150.113 96.5057C150.113 96.5757 150.183 96.5757 150.183 96.6458C150.253 96.7859 150.393 96.926 150.463 97.0662L150.533 97.1362C150.533 97.1362 150.533 97.1362 150.533 97.2063L150.603 97.2764C150.744 97.4866 150.954 97.6267 151.094 97.7668L151.164 97.8369L151.234 97.907L151.304 97.977C151.374 98.0471 151.514 98.1172 151.584 98.1872C151.725 98.2573 151.865 98.3974 152.075 98.4675C152.145 98.4675 152.425 98.6076 152.916 98.7478C155.438 99.5885 162.935 101.971 168.12 101.48C169.591 101.34 170.852 100.92 171.833 100.219C172.254 99.9389 172.604 99.5885 172.814 99.1681L172.884 99.0981C172.954 99.028 172.954 98.958 173.025 98.8879C173.095 98.8178 173.095 98.7478 173.095 98.6777C173.095 98.6777 173.095 98.6076 173.165 98.6076C173.165 98.6076 173.165 98.5376 173.235 98.5376C173.235 98.4675 173.305 98.3974 173.305 98.3274C173.305 98.2573 173.305 98.1872 173.375 98.1872C173.375 98.1172 173.445 98.0471 173.445 97.977C173.445 97.907 173.445 97.8369 173.515 97.7668V97.6968C173.515 97.6267 173.515 97.5566 173.515 97.4866C173.515 97.4165 173.515 97.3464 173.515 97.2764V97.2063C173.515 97.1362 173.515 97.1362 173.515 97.0662C173.515 96.9961 173.515 96.856 173.515 96.7859V96.7158C173.515 96.6458 173.515 96.6458 173.515 96.5757C173.515 96.5057 173.515 96.4356 173.515 96.3655C172.954 92.3718 167.84 87.4672 164.126 84.4543C164.056 84.3843 163.986 84.3142 163.916 84.2441C163.496 83.8938 163.145 83.6136 162.795 83.3333C162.725 83.3333 162.725 83.2632 162.655 83.2632C162.375 83.053 162.094 82.7728 161.814 82.6326C161.814 82.6326 161.744 82.6326 161.744 82.5626C161.744 82.5626 161.674 82.5626 161.674 82.4925C160.833 81.8619 160.343 81.5116 160.343 81.5116C160.202 81.4415 159.992 81.3714 159.852 81.3014C159.502 81.1613 159.151 81.0912 158.801 81.0912C158.591 81.0912 158.381 81.0912 158.1 81.0912H158.03C157.96 81.0912 157.89 81.0912 157.82 81.0912H157.75C157.68 81.0912 157.68 81.0912 157.61 81.0912C157.54 81.0912 157.47 81.0912 157.4 81.0912C157.05 81.1613 156.699 81.2313 156.419 81.3714C156.349 81.3714 156.209 81.4415 156.139 81.5116C155.718 81.6517 155.368 81.8619 154.948 82.1422C154.877 82.1422 154.877 82.2122 154.807 82.2122C154.737 82.2823 154.667 82.2823 154.597 82.3524C154.527 82.4224 154.457 82.4224 154.387 82.4925C154.317 82.5626 154.247 82.5626 154.247 82.6326C154.177 82.7027 154.107 82.7728 154.037 82.7728C153.967 82.8428 153.967 82.8428 153.897 82.9129C153.826 82.983 153.686 83.053 153.616 83.1231C153.546 83.1932 153.546 83.1932 153.476 83.2632C153.406 83.3333 153.406 83.3333 153.336 83.4034C153.266 83.4734 153.266 83.4734 153.196 83.5435C153.126 83.6136 153.126 83.6136 153.056 83.6836C152.986 83.7537 152.916 83.8238 152.846 83.9639C152.776 84.0339 152.705 84.104 152.705 84.1741C152.495 84.3843 152.355 84.5945 152.145 84.8747C152.075 84.9448 152.075 85.0149 152.005 85.0849C151.654 85.5053 151.374 85.9958 151.094 86.4862L151.024 86.5563C150.744 86.8366 150.674 87.0468 150.533 87.257Z" fill="url(#paint2_linear_1_19911)"/>
        <path opacity="0.2" d="M113.398 71.8425L119.354 75.4859L122.647 77.5178L150.533 94.824C150.673 94.8941 150.813 95.0342 151.024 95.1043C151.094 95.1043 151.374 95.2444 151.864 95.3846C154.387 96.2254 161.884 98.6076 167.069 98.1171C168.54 97.977 169.801 97.5566 170.782 96.856C171.203 96.5757 171.553 96.2254 171.763 95.805L171.833 95.7349C171.903 95.6648 171.903 95.5948 171.973 95.5247C172.043 95.4546 172.043 95.3846 172.043 95.3145C172.043 95.3145 172.043 95.2444 172.113 95.2444C172.113 95.2444 172.113 95.1744 172.184 95.1744C172.184 95.1043 172.254 95.0342 172.254 94.9642C172.254 94.8941 172.254 94.824 172.324 94.824C172.324 94.754 172.394 94.6839 172.394 94.6139C172.394 94.5438 172.394 94.4737 172.464 94.4037V94.3336C172.464 94.2635 172.464 94.1935 172.464 94.1234C172.464 94.0533 172.464 93.9833 172.464 93.9132V93.8431C172.464 93.7731 172.464 93.7731 172.464 93.703C172.464 93.6329 172.464 93.4928 172.464 93.4227C173.024 94.4737 173.445 95.5247 173.585 96.5056C173.585 96.5757 173.585 96.6458 173.585 96.7158C173.585 96.7859 173.585 96.7859 173.585 96.856V96.926C173.585 96.9961 173.585 97.1362 173.585 97.2063C173.585 97.2764 173.585 97.2763 173.585 97.3464V97.4165C173.585 97.4865 173.585 97.5566 173.585 97.6267C173.585 97.6967 173.585 97.7668 173.585 97.8369V97.9069C173.585 97.977 173.585 98.0471 173.515 98.1171C173.515 98.1872 173.515 98.2573 173.445 98.3273C173.445 98.3974 173.445 98.4675 173.375 98.4675C173.375 98.5375 173.305 98.6076 173.305 98.6777C173.305 98.6777 173.305 98.7477 173.235 98.7477C173.235 98.7477 173.235 98.8178 173.164 98.8178C173.164 98.8879 173.094 98.9579 173.094 99.028C173.094 99.0981 173.024 99.1681 172.954 99.2382L172.884 99.3083C172.604 99.7287 172.254 100.079 171.903 100.359C170.992 101.06 169.661 101.48 168.19 101.62C163.005 102.181 155.508 99.7987 152.986 98.8879C152.495 98.7477 152.215 98.6076 152.145 98.6076C152.005 98.5375 151.864 98.4675 151.654 98.3273L123.768 81.0912L120.475 79.0593L114.519 75.4158C112.768 74.3648 111.717 72.4731 111.717 70.5112C112.277 71.0017 112.768 71.4922 113.398 71.8425Z" fill="black"/>
        <path d="M105.131 65.3263C107.864 67.078 110.456 68.4092 112.628 69.3901H112.698C112.838 69.4602 112.978 69.5303 113.119 69.6003C114.45 70.2309 115.641 70.7214 116.762 71.0717C117.042 71.1418 117.252 71.2819 117.533 71.352C120.265 72.3329 121.947 72.6132 121.947 72.6132C121.947 72.6132 121.737 72.0526 121.246 71.1418C121.036 70.7214 120.686 70.2309 120.335 69.6704C119.915 69.1099 119.424 68.5493 118.864 67.9188C117.813 66.8678 116.482 65.8868 114.73 64.976C114.24 64.7658 113.819 64.5556 113.259 64.3454C113.259 64.3454 113.049 64.2753 112.628 64.1352C112.418 64.0651 112.208 63.9951 111.927 63.8549C110.036 63.2243 106.673 62.1734 104.571 62.3135C104.571 62.4536 103.87 63.2243 105.131 65.3263Z" fill="#D1D2D3" stroke="#221F1F" stroke-width="0.358246" stroke-miterlimit="10" stroke-linecap="round" stroke-linejoin="round"/>
        <path opacity="0.2" d="M111.647 66.4474C111.857 66.5174 111.997 66.5875 112.137 66.6576C113.469 67.2882 114.66 67.7786 115.781 68.1289C116.061 68.199 116.271 68.3391 116.552 68.4092C118.163 68.9697 119.424 69.3201 120.195 69.5303C120.265 69.6003 120.335 69.7405 120.405 69.8105C120.826 70.3711 121.106 70.8615 121.316 71.2819C121.807 72.1227 122.017 72.7533 122.017 72.7533C121.947 72.7533 120.335 72.473 117.603 71.4921C117.392 71.422 117.112 71.352 116.832 71.2118C115.781 70.7914 114.52 70.301 113.188 69.7405C113.048 69.6704 112.908 69.6003 112.768 69.5303H112.698C110.456 68.4793 107.934 67.148 105.201 65.4665C104.22 63.7849 104.43 62.9441 104.57 62.7339C107.093 64.2053 109.545 65.4665 111.647 66.4474Z" fill="black"/>
        <path d="M105.131 65.3263C105.131 65.3263 108.074 68.6194 112.769 70.7914C112.839 70.7914 112.839 70.8615 112.909 70.8615C113.679 71.2118 114.45 71.5621 115.361 71.8424C115.992 72.0526 116.692 72.1927 117.393 72.4029C117.743 72.473 118.094 72.5431 118.514 72.6131C118.584 72.6131 118.724 72.6131 118.794 72.6832C118.934 72.6832 119.074 72.7533 119.285 72.7533C119.355 72.7533 119.495 72.7533 119.565 72.7533C119.775 72.7533 119.985 72.7533 120.266 72.8233C120.336 72.8233 120.476 72.8233 120.546 72.8233C120.616 72.8233 120.686 72.8233 120.686 72.8233C120.756 72.8233 120.756 72.8233 120.826 72.8233C120.896 72.8233 120.966 72.8233 121.036 72.8233C121.106 72.8233 121.176 72.8233 121.246 72.8233C121.317 72.8233 121.387 72.8233 121.457 72.8233C121.597 72.8233 121.807 72.8233 121.947 72.8233C121.877 72.8233 120.266 72.5431 117.533 71.5621C117.323 71.4921 117.043 71.422 116.762 71.2819C115.711 70.8615 114.45 70.371 113.119 69.8105C112.979 69.7404 112.839 69.6704 112.698 69.6003H112.628C110.456 68.4092 107.934 67.0779 105.131 65.3263Z" fill="#D1D2D3" stroke="#221F1F" stroke-width="0.358246" stroke-miterlimit="10" stroke-linecap="round" stroke-linejoin="round"/>
        <path opacity="0.2" d="M150.533 70.5814V82.3524L129.163 70.0209L129.233 69.8807L129.093 69.9508V59.6511L150.533 70.5814Z" fill="black" stroke="#231F20" stroke-width="0.157578" stroke-miterlimit="10"/>
        <path d="M155.508 67.8488V79.4096C154.387 78.7089 150.954 78.5688 150.534 82.2823V76.5369L150.604 70.6514L155.508 67.8488Z" fill="#F1F2F2" stroke="#231F20" stroke-width="0.157578" stroke-miterlimit="10" stroke-linecap="round" stroke-linejoin="round"/>
        <path opacity="0.2" d="M150.533 82.3523L136.73 89.0086L128.112 83.9638L138.271 76.7471L150.533 82.3523Z" fill="black" stroke="#231F20" stroke-width="0.157578" stroke-miterlimit="10"/>
        <path d="M77.5939 100.499L76.5429 93.2826C76.3327 91.7411 75.2817 90.4099 73.8804 89.7092L64.2814 85.2951C63.3706 84.8747 62.3196 85.3651 62.0393 86.3461L60.7781 90.55L64.2114 97.9069L61.3387 103.722L54.7525 104.633L51.5995 108.137C50.8989 108.907 51.1091 110.028 51.9498 110.589L60.0775 115.774C61.4087 116.685 63.1604 116.755 64.6317 116.054L73.2498 111.99L77.5939 100.499Z" fill="url(#paint3_linear_1_19911)" stroke="#231F20" stroke-width="0.27718" stroke-miterlimit="10" stroke-linecap="round" stroke-linejoin="round"/>
        <path opacity="0.2" d="M51.9497 110.519L60.0773 115.704C61.4086 116.615 63.1602 116.685 64.6316 115.984L73.1096 111.99L61.4786 103.512L61.4086 103.652L54.8224 104.563L51.6694 108.066C50.8987 108.767 51.1089 109.958 51.9497 110.519Z" fill="black"/>
        <path d="M59.9374 99.168C59.5871 99.8687 59.3769 100.639 59.2368 101.34C58.8164 103.652 59.9374 105.964 61.8993 107.226L67.8549 110.869L71.148 112.901L99.0341 130.137L107.162 113.181L77.594 100.499L74.5812 99.2381L67.5746 96.2253C64.9822 95.1042 61.8993 96.0151 60.4279 98.3973C60.2177 98.6075 60.0776 98.8878 59.9374 99.168Z" fill="url(#paint4_linear_1_19911)" stroke="#231F20" stroke-width="0.27718" stroke-miterlimit="10" stroke-linecap="round" stroke-linejoin="round"/>
        <path d="M97.843 119.137C97.7729 119.277 97.7028 119.347 97.7028 119.487C97.6328 119.627 97.6328 119.697 97.5627 119.838C97.4926 119.978 97.4926 120.118 97.4226 120.188C97.3525 120.328 97.2824 120.398 97.2824 120.538C97.2124 120.678 97.2124 120.748 97.1423 120.888C97.1423 120.959 97.0722 121.029 97.0722 121.099C97.0722 121.169 97.0022 121.309 97.0022 121.379L96.9321 121.589C96.9321 121.659 96.862 121.729 96.862 121.799C96.862 121.869 96.792 121.939 96.792 122.08C96.7219 122.29 96.7219 122.5 96.6518 122.64C96.6518 122.71 96.6518 122.78 96.6518 122.85C96.6518 122.92 96.6518 123.061 96.5818 123.131C96.5818 123.341 96.5117 123.551 96.5117 123.761C96.5117 123.901 96.5117 123.971 96.5117 124.112C96.5117 124.182 96.5117 124.252 96.5117 124.252C96.5117 124.462 96.5117 124.672 96.5117 124.882C96.5117 124.952 96.5117 125.022 96.5117 125.092C96.5117 125.583 96.5818 126.003 96.6518 126.424C96.6518 126.494 96.6518 126.494 96.6518 126.564C96.7219 126.704 96.7219 126.914 96.792 127.054C96.792 127.124 96.792 127.194 96.862 127.194C96.9321 127.335 97.0022 127.475 97.0022 127.685C97.0022 127.755 97.0722 127.825 97.0722 127.825C97.0722 127.825 97.0722 127.895 97.1423 127.895C97.2124 127.965 97.2124 128.105 97.2824 128.175C97.2824 128.245 97.3525 128.245 97.3525 128.315C97.3525 128.315 97.3525 128.386 97.4226 128.386C97.4226 128.456 97.4926 128.456 97.4926 128.526C97.5627 128.666 97.7028 128.806 97.7729 128.946L97.843 129.016C97.843 129.016 97.843 129.016 97.843 129.086L97.913 129.156C98.0532 129.366 98.2634 129.507 98.4035 129.647L98.4736 129.717L98.5436 129.787L98.6137 129.857C98.6838 129.927 98.8239 129.997 98.894 130.067C99.0341 130.137 99.1742 130.277 99.3844 130.347C99.4545 130.347 99.7347 130.488 100.225 130.628C102.748 131.468 110.245 133.851 115.429 133.36C116.901 133.22 118.162 132.8 119.143 132.099C119.563 131.819 119.914 131.468 120.124 131.048L120.194 130.978C120.264 130.908 120.264 130.838 120.334 130.768C120.404 130.698 120.404 130.628 120.404 130.558C120.404 130.558 120.404 130.488 120.474 130.488C120.474 130.488 120.474 130.417 120.544 130.417C120.544 130.347 120.614 130.277 120.614 130.207C120.614 130.137 120.614 130.067 120.684 130.067C120.684 129.997 120.754 129.927 120.754 129.857C120.754 129.787 120.754 129.717 120.825 129.647V129.577C120.825 129.507 120.825 129.437 120.825 129.366C120.825 129.296 120.825 129.226 120.825 129.156V129.086C120.825 129.016 120.825 129.016 120.825 128.946C120.825 128.876 120.825 128.736 120.825 128.666V128.596C120.825 128.526 120.825 128.526 120.825 128.456C120.825 128.386 120.825 128.315 120.825 128.245C120.264 124.252 115.149 119.347 111.436 116.334C111.366 116.264 111.296 116.194 111.226 116.124C110.805 115.774 110.455 115.493 110.104 115.213C110.034 115.213 110.034 115.143 109.964 115.143C109.684 114.933 109.404 114.653 109.124 114.513C109.124 114.513 109.053 114.513 109.053 114.442C109.053 114.442 108.983 114.442 108.983 114.372C108.143 113.742 107.652 113.391 107.652 113.391C107.512 113.321 107.302 113.251 107.162 113.181C106.811 113.041 106.461 112.971 106.111 112.971C105.901 112.971 105.69 112.971 105.41 112.971H105.34C105.27 112.971 105.2 112.971 105.13 112.971H105.06C104.99 112.971 104.99 112.971 104.92 112.971C104.85 112.971 104.779 112.971 104.709 112.971C104.359 113.041 104.009 113.111 103.728 113.251C103.658 113.251 103.518 113.321 103.448 113.391C103.028 113.532 102.678 113.742 102.257 114.022C102.187 114.022 102.187 114.092 102.117 114.092C102.047 114.162 101.977 114.162 101.907 114.232C101.837 114.302 101.767 114.302 101.697 114.372C101.627 114.442 101.556 114.442 101.556 114.513C101.486 114.583 101.416 114.653 101.346 114.653C101.276 114.723 101.276 114.723 101.206 114.793C101.136 114.863 100.996 114.933 100.926 115.003C100.856 115.073 100.856 115.073 100.786 115.143C100.716 115.213 100.716 115.213 100.646 115.283C100.576 115.353 100.576 115.353 100.505 115.423C100.435 115.493 100.435 115.493 100.365 115.564C100.295 115.634 100.225 115.704 100.155 115.844C100.085 115.914 100.015 115.984 100.015 116.054C99.8048 116.264 99.6647 116.474 99.4545 116.755C99.3844 116.825 99.3844 116.895 99.3143 116.965C98.964 117.385 98.6838 117.876 98.4035 118.366L98.3334 118.436C98.0532 118.646 97.9831 118.927 97.843 119.137Z" fill="url(#paint5_linear_1_19911)"/>
        <path opacity="0.2" d="M60.7077 103.722L66.6633 107.366L69.9564 109.398L97.8426 126.634C97.9827 126.704 98.1228 126.844 98.333 126.914C98.4031 126.914 98.6833 127.054 99.1738 127.194C101.696 128.035 109.193 130.417 114.378 129.927C115.849 129.787 117.111 129.366 118.092 128.666C118.512 128.386 118.862 128.035 119.072 127.615L119.143 127.545C119.213 127.475 119.213 127.405 119.283 127.335C119.353 127.264 119.353 127.194 119.353 127.124C119.353 127.124 119.353 127.054 119.423 127.054C119.423 127.054 119.423 126.984 119.493 126.984C119.493 126.914 119.563 126.844 119.563 126.774C119.563 126.704 119.563 126.634 119.633 126.634C119.633 126.564 119.703 126.494 119.703 126.424C119.703 126.354 119.703 126.284 119.773 126.213V126.143C119.773 126.073 119.773 126.003 119.773 125.933C119.773 125.863 119.773 125.793 119.773 125.723V125.653C119.773 125.583 119.773 125.583 119.773 125.513C119.773 125.443 119.773 125.303 119.773 125.233C120.334 126.284 120.754 127.335 120.894 128.315C120.894 128.386 120.894 128.456 120.894 128.526C120.894 128.596 120.894 128.596 120.894 128.666V128.736C120.894 128.806 120.894 128.946 120.894 129.016C120.894 129.086 120.894 129.086 120.894 129.156V129.226C120.894 129.296 120.894 129.366 120.894 129.436C120.894 129.507 120.894 129.577 120.894 129.647V129.717C120.894 129.787 120.894 129.857 120.824 129.927C120.824 129.997 120.824 130.067 120.754 130.137C120.754 130.207 120.754 130.277 120.684 130.277C120.684 130.347 120.614 130.417 120.614 130.487C120.614 130.487 120.614 130.558 120.544 130.558C120.544 130.558 120.544 130.628 120.474 130.628C120.474 130.698 120.404 130.768 120.404 130.838C120.404 130.908 120.334 130.978 120.264 131.048L120.194 131.118C119.913 131.538 119.563 131.889 119.213 132.169C118.302 132.87 116.971 133.29 115.499 133.43C110.314 133.991 102.817 131.609 100.295 130.698C99.8044 130.558 99.5241 130.417 99.4541 130.417C99.3139 130.347 99.1738 130.277 98.9636 130.137L71.1475 112.901L67.8544 110.869L61.8988 107.226C60.1472 106.175 59.0962 104.283 59.0962 102.321C59.5867 102.882 60.0771 103.372 60.7077 103.722Z" fill="black"/>
        <path d="M52.4406 97.2062C55.1732 98.9579 57.7656 100.289 59.9377 101.27H60.0078C60.1479 101.34 60.288 101.41 60.4281 101.48C61.7594 102.111 62.9505 102.601 64.0716 102.952C64.3518 103.022 64.562 103.162 64.8423 103.232C67.5749 104.213 69.2564 104.493 69.2564 104.493C69.2564 104.493 69.0462 103.933 68.5558 103.022C68.3456 102.601 67.9952 102.111 67.6449 101.55C67.2245 100.99 66.7341 100.429 66.1735 99.7987C65.1226 98.7477 63.7913 97.7668 62.0397 96.8559C61.5492 96.6457 61.1288 96.4355 60.5683 96.2253C60.5683 96.2253 60.3581 96.1553 59.9377 96.0151C59.7275 95.9451 59.5173 95.875 59.237 95.7349C57.3453 95.2444 53.912 94.1934 51.8801 94.3335C51.8801 94.3335 51.1795 95.1043 52.4406 97.2062Z" fill="#D1D2D3" stroke="#221F1F" stroke-width="0.358246" stroke-miterlimit="10" stroke-linecap="round" stroke-linejoin="round"/>
        <path opacity="0.2" d="M58.9568 98.3272C59.167 98.3973 59.3071 98.4674 59.4473 98.5374C60.7785 99.168 61.9696 99.6585 63.0907 100.009C63.3709 100.079 63.5811 100.219 63.8614 100.289C65.4729 100.85 66.7341 101.2 67.5048 101.41C67.5749 101.48 67.645 101.62 67.715 101.69C68.1354 102.251 68.4157 102.741 68.6259 103.162C69.1163 104.003 69.3265 104.633 69.3265 104.633C69.2565 104.633 67.645 104.353 64.9124 103.372C64.7022 103.302 64.4219 103.232 64.1417 103.092C63.0907 102.671 61.8295 102.181 60.4982 101.62C60.3581 101.55 60.218 101.48 60.0779 101.41H60.0078C57.7657 100.289 55.2433 98.9578 52.4407 97.2062C51.4598 95.5246 51.67 94.6838 51.8101 94.4736C54.4025 96.0851 56.8548 97.3463 58.9568 98.3272Z" fill="black"/>
        <path d="M52.4409 97.2062C52.4409 97.2062 55.3837 100.499 60.0781 102.671C60.1482 102.671 60.1482 102.741 60.2182 102.741C60.9889 103.092 61.7597 103.442 62.6705 103.722C63.3011 103.932 64.0018 104.073 64.7024 104.283C65.0528 104.353 65.4031 104.423 65.8235 104.493C65.8935 104.493 66.0337 104.493 66.1037 104.563C66.2439 104.563 66.384 104.633 66.5942 104.633C66.6643 104.633 66.8044 104.633 66.8745 104.633C67.0847 104.633 67.2949 104.633 67.5751 104.703C67.6452 104.703 67.7853 104.703 67.8554 104.703C67.9255 104.703 67.9955 104.703 67.9955 104.703C68.0656 104.703 68.0656 104.703 68.1356 104.703C68.2057 104.703 68.2758 104.703 68.3458 104.703C68.4159 104.703 68.486 104.703 68.556 104.703C68.6261 104.703 68.6962 104.703 68.7662 104.703C68.9064 104.703 69.1166 104.703 69.2567 104.703C69.1866 104.703 67.5751 104.423 64.8426 103.442C64.6324 103.372 64.3521 103.302 64.0718 103.162C63.0208 102.741 61.7597 102.251 60.4284 101.69C60.2883 101.62 60.1482 101.55 60.008 101.48H59.938C57.7659 100.289 55.2435 98.9578 52.4409 97.2062Z" fill="#D1D2D3" stroke="#221F1F" stroke-width="0.358246" stroke-miterlimit="10" stroke-linecap="round" stroke-linejoin="round"/>
        <path d="M97.843 102.461V114.232L76.4729 101.901V101.831L76.543 101.76L76.4028 101.831V91.5309L97.843 102.461Z" fill="#F1F2F2" stroke="#231F20" stroke-width="0.157578" stroke-miterlimit="10" stroke-linecap="round" stroke-linejoin="round"/>
        <path opacity="0.2" d="M150.533 70.5813V82.3523L129.163 70.0207L129.233 69.8806L129.093 69.9507V59.651L150.533 70.5813Z" fill="black" stroke="#231F20" stroke-width="0.157578" stroke-miterlimit="10"/>
        <path opacity="0.2" d="M97.843 102.461V114.232L76.4729 101.901V101.831L76.543 101.76L76.4028 101.831V91.5309L97.843 102.461Z" fill="black" stroke="#231F20" stroke-width="0.157578" stroke-miterlimit="10"/>
        <path d="M102.817 99.7285V111.289C101.696 110.589 98.2632 110.449 97.8428 114.162V108.487L97.9128 102.601L102.817 99.7285Z" fill="#F1F2F2" stroke="#231F20" stroke-width="0.157578" stroke-miterlimit="10" stroke-linecap="round" stroke-linejoin="round"/>
        <path opacity="0.2" d="M97.8434 114.232L88.0342 114.022L74.4414 106.245C72.6898 105.264 72.5496 102.812 74.1611 101.62L76.4032 99.9388L76.3332 101.761L97.8434 114.232Z" fill="black" stroke="#231F20" stroke-width="0.157578" stroke-miterlimit="10"/>
        <path d="M150.463 74.2247L108.073 98.6777L88.6648 102.391L68.0654 90.48L136.309 51.103L156.909 63.0142L150.463 74.2247Z" fill="#F1F2F2" stroke="#231F20" stroke-width="0.157578" stroke-miterlimit="10" stroke-linecap="round" stroke-linejoin="round"/>
        <path d="M68.0654 90.4799V94.4736L88.6648 106.315V102.391L68.0654 90.4799Z" fill="#F1F2F2" stroke="#231F20" stroke-width="0.157578" stroke-miterlimit="10" stroke-linecap="round" stroke-linejoin="round"/>
        <path opacity="0.2" d="M68.0654 90.4799V94.4736L88.6648 106.315V102.391L68.0654 90.4799Z" fill="black" stroke="#231F20" stroke-width="0.157578" stroke-miterlimit="10"/>
        <path d="M108.073 98.6777V102.671L88.6646 106.315V102.391L108.073 98.6777Z" fill="#F7F7F7" stroke="#231F20" stroke-width="0.157578" stroke-miterlimit="10" stroke-linecap="round" stroke-linejoin="round"/>
        <path d="M150.463 74.2246V78.1483L108.073 102.671V98.6776L150.463 74.2246Z" fill="#F7F7F7" stroke="#231F20" stroke-width="0.157578" stroke-miterlimit="10" stroke-linecap="round" stroke-linejoin="round"/>
        <path d="M156.909 63.0142V66.9378L150.463 78.1484V74.2247L156.909 63.0142Z" fill="#F7F7F7" stroke="#231F20" stroke-width="0.157578" stroke-miterlimit="10" stroke-linecap="round" stroke-linejoin="round"/>
    </g>
    <defs>
        <linearGradient id="paint0_linear_1_19911" x1="112.104" y1="83.5645" x2="125.318" y2="57.1878" gradientUnits="userSpaceOnUse">
            <stop stop-color="#D1D2D3"/>
            <stop offset="0.3636" stop-color="#A7A8AB"/>
            <stop offset="0.6738" stop-color="#F1F1F1"/>
            <stop offset="1" stop-color="#E5E6E6"/>
        </linearGradient>
        <linearGradient id="paint1_linear_1_19911" x1="129.908" y1="87.3549" x2="138.33" y2="70.5451" gradientUnits="userSpaceOnUse">
            <stop stop-color="#D1D2D3"/>
            <stop offset="0.3636" stop-color="#A7A8AB"/>
            <stop offset="0.6738" stop-color="#F1F1F1"/>
            <stop offset="1" stop-color="#E5E6E6"/>
        </linearGradient>
        <linearGradient id="paint2_linear_1_19911" x1="157.724" y1="101.319" x2="166.177" y2="84.4483" gradientUnits="userSpaceOnUse">
            <stop stop-color="#BE1E2D"/>
            <stop offset="0.3636" stop-color="#AA1E23"/>
            <stop offset="0.6989" stop-color="#F5828A"/>
            <stop offset="1" stop-color="#BE1E2D"/>
        </linearGradient>
        <linearGradient id="paint3_linear_1_19911" x1="59.4145" y1="115.437" x2="72.6292" y2="89.0599" gradientUnits="userSpaceOnUse">
            <stop stop-color="#D1D2D3"/>
            <stop offset="0.3636" stop-color="#A7A8AB"/>
            <stop offset="0.6738" stop-color="#F1F1F1"/>
            <stop offset="1" stop-color="#E5E6E6"/>
        </linearGradient>
        <linearGradient id="paint4_linear_1_19911" x1="77.2196" y1="119.227" x2="85.6413" y2="102.417" gradientUnits="userSpaceOnUse">
            <stop stop-color="#D1D2D3"/>
            <stop offset="0.3636" stop-color="#A7A8AB"/>
            <stop offset="0.6738" stop-color="#F1F1F1"/>
            <stop offset="1" stop-color="#E5E6E6"/>
        </linearGradient>
        <linearGradient id="paint5_linear_1_19911" x1="105.035" y1="133.191" x2="113.488" y2="116.32" gradientUnits="userSpaceOnUse">
            <stop stop-color="#BE1E2D"/>
            <stop offset="0.3636" stop-color="#AA1E23"/>
            <stop offset="0.6989" stop-color="#F5828A"/>
            <stop offset="1" stop-color="#BE1E2D"/>
        </linearGradient>
        <clipPath id="">
            <rect width="122.545" height="82.4674" fill="white" transform="translate(51.0391 51.033)"/>
        </clipPath>
    </defs>

</svg>
